<?xml version="1.0" encoding="UTF-8"?>
<svg width="100px" height="100px" viewBox="0 0 100 100" version="1.1" xmlns="http://www.w3.org/2000/svg" xmlns:xlink="http://www.w3.org/1999/xlink">
    <!-- Generator: Sketch 63.1 (92452) - https://sketch.com -->
    <title>Angel</title>
    <desc>Created with Sketch.</desc>
    <g id="Angel" stroke="none" stroke-width="1" fill="none" fill-rule="evenodd">
        <path d="M56.5752222,50.4660841 C57.7878787,49.7022347 59.3901534,50.066443 60.1540029,51.2787212 L60.5887342,51.9788365 C66.6797965,61.9262465 72.9153593,77.8542223 71.9799286,81.761272 C68.5672505,95.8762797 31.9627253,95.9927159 28.5263196,81.7561628 C27.5734908,77.7799816 34.0457366,61.1597736 40.2000772,51.2888507 C40.9583323,50.0726883 42.5589139,49.701481 43.7750763,50.4597362 C44.9912387,51.2179913 45.362446,52.8185729 44.6041908,54.0347353 C41.9429034,58.3031639 39.1220538,64.0952057 36.8803426,69.7352215 L36.5912906,70.4698758 C34.6126693,75.5508166 33.4238505,79.9225102 33.5724273,80.5425408 C35.7265955,89.4669518 64.7996964,89.3744724 66.9339269,80.5472153 C67.0842427,79.9193814 65.8766789,75.5499339 63.8667932,70.4629631 C61.5522454,64.6048999 58.5643953,58.4929052 55.7625851,54.0448648 C54.9987357,52.8322083 55.3625657,51.2299336 56.5752222,50.4660841 Z M56.1954216,65.7311598 C57.4300123,65.0032947 59.0208971,65.4140769 59.7487622,66.6486676 C60.4766273,67.8832583 60.0658451,69.4741431 58.8312544,70.2020082 C54.6343002,72.676364 45.7885208,72.676364 41.655771,70.1902398 C40.4276798,69.4514612 40.0310136,67.8569982 40.7697922,66.628907 C41.4777884,65.4519862 42.9716475,65.0386485 44.1757938,65.6564726 L44.331125,65.7429282 C46.7530423,67.1998727 53.2460712,67.2414997 55.9654676,65.8570209 L56.1954216,65.7311598 Z M50.254258,20.055791 C42.0881356,20.055791 35.459298,26.6807342 35.459298,34.847291 C35.459298,43.0152531 42.087811,49.640521 50.254258,49.640521 C58.4214619,49.640521 65.045758,43.0162249 65.045758,34.847291 C65.045758,26.6797626 58.4211375,20.055791 50.254258,20.055791 Z M50.254258,25.245791 C55.5548934,25.245791 59.855758,29.5462342 59.855758,34.847291 C59.855758,40.1498671 55.5551041,44.450521 50.254258,44.450521 C44.9536001,44.450521 40.649298,40.1483261 40.649298,34.847291 C40.649298,29.5477751 44.9538109,25.245791 50.254258,25.245791 Z M50.254431,5.283148 C43.8215127,5.283148 38.353761,7.56079296 38.353761,11.755078 C38.353761,15.9494693 43.820474,18.225278 50.254431,18.225278 C56.688388,18.225278 62.155101,15.9494693 62.155101,11.755078 C62.155101,7.56079296 56.6873493,5.283148 50.254431,5.283148 Z M50.254431,10.473148 C52.4286773,10.473148 54.4370104,10.8272814 55.8348974,11.4095848 L56.0386612,11.4981491 C56.1693756,11.5574556 56.2897444,11.6171391 56.3992311,11.6762981 L56.537,11.754 L56.3997082,11.8329536 C56.2355,11.921631 56.0468012,12.01149 55.8354216,12.0994879 C54.437592,12.6814085 52.4290959,13.035278 50.254431,13.035278 C48.0797661,13.035278 46.07127,12.6814085 44.6734404,12.0994879 L44.4696881,12.0109823 C44.3389828,11.9517152 44.2186259,11.8920718 44.1091538,11.8329536 L43.971,11.754 L44.1096309,11.6762981 C44.2738609,11.5875596 44.4625757,11.4976409 44.6739646,11.4095848 C46.0718516,10.8272814 48.0801847,10.473148 50.254431,10.473148 Z M16.8049057,37.3444397 C21.1083103,34.1763284 24.2792255,35.0570744 27.9971455,39.0984211 L28.2081893,39.3305461 C31.197329,42.6669562 33.6559738,44.7703514 36.5363805,46.2962727 C37.8028248,46.9671829 38.2856006,48.5377191 37.6146903,49.8041635 C36.9437801,51.0706078 35.3732439,51.5533836 34.1067995,50.8824733 C30.749371,49.1038454 27.9482495,46.7530283 24.7631035,43.2590622 L23.9899989,42.4049764 C22.0648245,40.3063918 21.595244,40.2625961 19.8835021,41.5227575 C17.8486076,43.023327 13.427279,48.3575699 10.3332463,53.3288745 L9.92046174,54.0029675 C6.7012437,59.348217 5.4777218,63.528592 6.41573632,64.7431767 C6.82946969,65.279184 7.27085909,65.3294929 8.40805583,64.8275337 C9.19536549,64.4800148 10.0916499,63.9038723 11.106465,63.1137983 L11.414475,62.8703728 C12.0970624,62.3231069 14.0640416,60.6032656 14.3218465,60.3971886 C16.0187283,59.0407815 18.5316045,60.2452165 18.5371216,62.4175925 L18.5302159,62.9534972 C18.522814,63.176532 18.5081695,63.4678615 18.4801462,63.987658 L18.4247921,65.0426802 C18.3838421,65.9113776 18.3728515,66.5254574 18.392402,67.1566422 C18.4608327,69.3659174 18.8891751,70.3518797 19.5273682,70.525859 C20.5600401,70.8080458 22.3188864,69.0343882 23.7168305,65.9133146 C24.3026767,64.6053444 25.8379182,64.0199472 27.1458884,64.6057935 C28.4538586,65.1916397 29.0392558,66.7268812 28.4534095,68.0348514 C26.0952422,73.2997358 22.6613624,76.7625324 18.1608202,75.5327187 C14.9022672,74.6443998 13.5396924,71.9918363 13.2530615,68.2289665 L13.236,67.993 L13.1064684,68.0854872 C12.3470554,68.6113022 11.6095942,69.0514007 10.872472,69.4056149 L10.503839,69.5755641 C7.39044714,70.949817 4.38592269,70.6073653 2.30769347,67.9149401 C-0.603186409,64.1457984 1.23366222,58.1273843 5.92695125,50.5864915 C9.33762709,45.1064239 14.1461156,39.3050805 16.8049057,37.3444397 Z M72.3004756,39.3274883 C76.1070941,35.092138 79.3201044,34.116055 83.7018736,37.3450718 C86.3605008,39.3040035 91.1691346,45.1050134 94.5803432,50.5866135 L95.0554934,51.361189 C99.3936955,58.5393495 101.008727,64.275775 98.1994426,67.9133656 C96.1208265,70.609122 93.1145843,70.9503217 89.9995395,69.5732173 C89.140263,69.1933469 88.2853633,68.6968878 87.4006032,68.084062 L87.272,67.993 L87.2559167,68.2293003 C86.9761911,71.8930894 85.6757647,74.5044744 82.5999085,75.4585899 L82.3466092,75.532307 C77.8435923,76.7627965 74.4061397,73.2951801 72.0549715,68.0326161 C71.4703598,66.7240936 72.0572055,65.1894052 73.3657279,64.6047935 C74.6742504,64.0201818 76.2089388,64.6070275 76.7935505,65.9155499 C78.1864215,69.0331802 79.9458552,70.8080528 80.9806003,70.5253004 C81.5926527,70.3585895 82.0119148,69.4462922 82.1062838,67.4261045 L82.1167394,67.1562891 C82.1363815,66.524925 82.1254314,65.9106878 82.0844953,65.0416891 L81.9784423,62.9311499 C81.9752136,62.8291647 81.973516,62.740879 81.9727265,62.6500262 L81.9722594,62.4175925 C81.9776386,60.2995259 84.366576,59.1016082 86.0587903,60.3002348 L86.1875345,60.3971886 C86.4456321,60.6034996 88.4125029,62.3232897 89.0948874,62.8704382 C90.236034,63.7854306 91.2328088,64.4438844 92.0980286,64.8263822 C93.2360657,65.3294876 93.6766555,65.279482 94.0905945,64.7426459 C95.0674546,63.4777623 93.699541,58.9942443 90.1738963,53.3287525 C87.0796699,48.3565229 82.6585962,43.0230555 80.623093,41.5232544 L80.3335453,41.314508 C78.8057263,40.2425782 78.2956904,40.4412965 76.3456567,42.5916563 L76.1643456,42.7925389 C72.8064474,46.545237 69.9063051,49.0263376 66.3981889,50.8829671 C65.1314719,51.5533623 63.5611321,51.069948 62.8907369,49.8032309 C62.2203417,48.5365139 62.703756,46.9661741 63.9704731,46.2957789 C66.7287488,44.8359936 69.0989217,42.8474153 71.9137947,39.7559428 L72.3004756,39.3274883 Z" fill="#00B077"></path>
    </g>
</svg>