<?xml version="1.0" encoding="UTF-8"?>
<svg width="100px" height="100px" viewBox="0 0 100 100" version="1.1" xmlns="http://www.w3.org/2000/svg" xmlns:xlink="http://www.w3.org/1999/xlink">
    <!-- Generator: Sketch 63.1 (92452) - https://sketch.com -->
    <title>Candles</title>
    <desc>Created with Sketch.</desc>
    <g id="Candles" stroke="none" stroke-width="1" fill="none" fill-rule="evenodd">
        <path d="M50.252874,22.974407 C51.6309307,22.974407 52.7581017,24.0485759 52.8427687,25.4052951 L52.847874,25.569407 L52.8475854,35.8434003 C61.8301505,36.2476414 68.2806536,38.203044 68.470983,42.513617 L68.47531,42.710939 L68.4744098,69.1735998 C71.1239398,68.2810565 74.6527773,67.8373992 78.7402369,67.749376 L78.740438,62.080192 C78.740438,60.6470131 79.9022591,59.485192 81.335438,59.485192 C82.7134947,59.485192 83.8406657,60.5593609 83.9253327,61.9160801 L83.930438,62.080192 L83.9311096,67.8130466 C92.9130275,68.217555 99.3635633,70.1733318 99.553893,74.4838477 L99.55822,74.681166 L99.5583602,91.1167032 C99.5584973,91.1276952 99.558566,91.1387035 99.558566,91.149728 C99.558566,95.2370562 95.2027587,97.0577178 88.2747994,97.7966725 C82.9809666,98.3613268 76.5311512,98.1157084 71.7131438,97.164207 C70.3071213,96.8865336 69.3924136,95.5216284 69.670087,94.1156058 C69.9477604,92.7095833 71.3126656,91.7948756 72.7186882,92.072549 C77.0132171,92.9206695 82.9392179,93.1463402 87.7243426,92.635946 C90.1233404,92.3800625 92.0889281,91.9535976 93.3746664,91.4161784 C93.8426134,91.2205836 94.1773057,91.0276827 94.3681594,90.8699559 L94.368,75.163 L94.265229,75.0968203 C93.6960364,74.7457075 92.7329995,74.3813271 91.4694624,74.0613464 C89.4293333,73.5446999 86.7776147,73.1830465 83.9314861,73.0207963 L83.9319297,76.1004783 C84.4168815,75.9967674 84.8640155,75.85429 85.2702861,75.6726935 L85.5453498,75.5405302 C86.8191188,74.8836327 88.3842333,75.3837058 89.0411308,76.6574748 C89.6980283,77.9312438 89.1979552,79.4963583 87.9241862,80.1532558 C86.5962148,80.8381061 85.1215686,81.2423872 83.5353405,81.4097165 C81.2923185,81.6463301 78.9668711,81.4070813 76.6962232,80.870664 L76.1252462,80.7292799 C75.4015571,80.5415532 74.8315852,80.3599855 74.4544785,80.220785 C73.1099733,79.7244912 72.4223621,78.2322287 72.918656,76.8877235 C73.3950981,75.5969985 74.7894249,74.911667 76.0897409,75.2979947 L76.5335365,75.4463635 L76.6497121,75.4829379 C77.015726,75.5967108 77.4327582,75.7118041 77.8894627,75.8196958 C78.1729153,75.8866586 78.4569836,75.9475573 78.7407529,76.001888 L78.7405752,72.9523931 C75.9121187,73.0408562 73.325082,73.3385866 71.3517135,73.8197281 C70.1151137,74.1212327 69.1861373,74.4801341 68.6472864,74.8364718 L68.5062758,74.9363358 L68.474355,74.960654 L68.47531,91.664749 C68.47531,93.0979279 67.3134889,94.259749 65.88031,94.259749 C64.5022533,94.259749 63.3750823,93.1855801 63.2904153,91.8288609 L63.28531,91.664749 L63.285,43.193 L63.1823822,43.1267491 C62.6131539,42.7756633 61.6500519,42.4113259 60.386425,42.0913988 C58.3463553,41.5748908 55.6947466,41.2133604 52.8486711,41.0511825 L52.8488921,44.1296602 C53.3331669,44.0258684 53.7797138,43.8833891 54.1855021,43.7018689 L54.4605555,43.5696126 C55.7341326,42.9123432 57.299393,43.4119593 57.9566624,44.6855365 C58.6139318,45.9591136 58.1143157,47.524374 56.8407385,48.1816434 C55.5127448,48.8669962 54.0380333,49.2716916 52.4517256,49.4393438 C50.2082344,49.6764518 47.8823256,49.4373451 45.6113057,48.9008752 C44.6140263,48.6652937 43.8415753,48.4251895 43.3703575,48.25125 C42.0258523,47.7549562 41.3382411,46.2626937 41.834535,44.9181885 C42.3109771,43.6274635 43.7053039,42.942132 45.0056199,43.3284597 L45.5653333,43.5133146 C45.9311555,43.6270246 46.3479809,43.7420555 46.8044708,43.8498895 C47.0886036,43.9170085 47.3733568,43.9780317 47.6578086,44.0324513 L47.6570367,40.9828696 C44.8282636,41.0713777 42.2408851,41.369129 40.2672453,41.850255 C39.030503,42.1517431 38.1013964,42.5106145 37.5624557,42.8669167 L37.4214314,42.9667621 L37.39,42.991 L37.39,91.901 L37.4781017,91.969858 C37.6435766,92.0897754 37.882628,92.2255581 38.1913303,92.3651429 L38.3848783,92.4492536 C39.6706469,92.9867267 41.6363091,93.4132044 44.0355305,93.6691008 C48.8201551,94.1794198 54.7463561,93.9539681 59.040922,93.1064962 C60.4469854,92.8290294 61.8117561,93.7439377 62.0892228,95.150001 C62.3666896,96.5560644 61.4517813,97.9208351 60.045718,98.1983018 C55.227978,99.1490148 48.7782206,99.3943842 43.485097,98.8298297 C36.6803007,98.104043 32.3570585,96.334689 32.2048268,92.3988561 L32.20067,92.182019 L32.2003337,60.0908048 C32.1276815,59.900543 32.076776,59.699537 32.0506567,59.4908263 L32.047,59.459 L31.9690699,59.3975884 L31.8583838,59.3204984 C31.3195153,58.9641213 30.3905278,58.6051698 29.1539241,58.303607 C27.1806879,57.8224062 24.5938907,57.5245785 21.7657298,57.4359961 L21.7651681,60.486037 C22.0489374,60.4317063 22.3330057,60.3708076 22.6164583,60.3038448 C23.0731628,60.1959531 23.490195,60.0808598 23.8562089,59.9670869 L24.2542035,59.83605 C25.5987087,59.3397561 27.0909712,60.0273673 27.587265,61.3718725 C28.0835589,62.7163777 27.3959477,64.2086402 26.0514425,64.704934 C25.5800591,64.8789346 24.8073239,65.1191341 23.8096978,65.354813 C21.5390499,65.8912303 19.2136025,66.1304791 16.9705805,65.8938655 C15.3843524,65.7265362 13.9097062,65.3222551 12.5817348,64.6374048 C11.3079658,63.9805073 10.8078927,62.4153928 11.4647902,61.1416238 C12.0954118,59.9188056 13.5630461,59.4090254 14.8063972,59.9513804 L14.9605712,60.0246792 C15.437096,60.2704286 15.9765718,60.4568112 16.5733223,60.5844842 L16.5741819,57.5042363 C13.728061,57.6664285 11.0764028,58.0280653 9.03635143,58.5447488 C7.8781553,58.838085 6.97246972,59.1687444 6.39117868,59.4923018 L6.1583325,59.6328312 L6.137,59.647 L6.137355,90.869654 L6.22453685,90.9368688 C6.3899982,91.0567574 6.62903606,91.1925161 6.93771895,91.33208 L7.13125463,91.4161784 C8.41699289,91.9535976 10.3825806,92.3800625 12.7815784,92.635946 C17.5667031,93.1463402 23.4927039,92.9206695 27.7872328,92.072549 C29.1932554,91.7948756 30.5581606,92.7095833 30.835834,94.1156058 C31.1135074,95.5216284 30.1987997,96.8865336 28.7927772,97.164207 C23.9747698,98.1157084 17.5249544,98.3613268 12.2311216,97.7966725 C5.30316232,97.0577178 0.947355,95.2370562 0.947355,91.149728 L0.947528,59.165315 C0.947528,54.7164532 7.45669135,52.7069865 16.5743186,52.2965037 L16.57531,46.564341 C16.57531,45.1311621 17.7371311,43.969341 19.17031,43.969341 C20.5483667,43.969341 21.6755377,45.0435099 21.7602047,46.4002291 L21.76531,46.564341 L21.7654848,52.2329561 C25.9409773,52.3230077 29.5335934,52.7842066 32.2013881,53.7159233 L32.20067,42.710939 C32.20067,37.941578 38.5391392,35.9762308 47.6572355,35.7798396 L47.657874,25.569407 C47.657874,24.1362281 48.8196951,22.974407 50.252874,22.974407 Z M20.9431068,26.1383511 C29.8488395,34.4756576 31.8822682,41.6794812 29.4452606,47.1064402 C29.0807984,47.9180591 28.6860177,48.5104823 28.3551672,48.8868283 C27.4089077,49.9632088 25.7692341,50.0686927 24.6928537,49.1224332 C23.6164732,48.1761737 23.5109893,46.5365001 24.4572488,45.4601197 L24.5336077,45.3344813 C24.578923,45.2540556 24.64103,45.1355503 24.7107166,44.9803655 C25.2234151,43.83864 25.358722,42.33278 24.8063423,40.3758654 C24.1207402,37.9469845 22.4551938,35.1890847 19.5915286,32.1194533 L19.169,31.674 L19.0968766,31.7500349 C16.1319603,34.8501007 14.3772417,37.6381437 13.6136622,40.0968003 L13.5299429,40.3790287 C12.9767644,42.3364521 13.111233,43.8424473 13.6228718,44.9838206 C13.7269472,45.2159939 13.8139728,45.3657468 13.8529726,45.4283819 L13.8748165,45.4618038 C14.8201458,46.5390012 14.7132456,48.1785831 13.6360482,49.1239125 C12.5588508,50.0692418 10.9192689,49.9623416 9.97393953,48.8851442 C9.64392224,48.5090913 9.25027121,47.917328 8.88693094,47.1067818 C6.45448273,41.6804318 8.49024152,34.4768955 17.3960053,26.1384671 C18.3938091,25.2042277 19.945242,25.2041769 20.9431068,26.1383511 Z M51.9794946,1.58097542 C64.7731553,12.9776841 66.7317555,22.8319482 61.6748827,30.1524808 C60.735567,31.512272 59.7743665,32.4466314 59.0518268,32.9771873 C57.896633,33.825438 56.2725204,33.5766115 55.4242697,32.4214178 C54.6113628,31.3143571 54.8060146,29.77664 55.8403745,28.9038429 L56.0320846,28.7519277 C56.093888,28.6999666 56.2002353,28.6056284 56.3396034,28.4701522 C56.6976328,28.1221206 57.0624095,27.6981401 57.4046532,27.2026944 C58.7388255,25.2712928 59.3274125,22.9186037 58.7535198,20.0311892 C58.0167115,16.3241007 55.4216097,12.0760314 50.5250163,7.31342165 L50.252,7.051 L49.9817065,7.31333079 C45.2107551,11.9534075 42.6250744,16.1050076 41.8145997,19.7436688 L41.7542954,20.0298655 C41.1808581,22.917048 41.7700474,25.2697138 43.105057,27.2012823 C43.4476664,27.6969894 43.8128443,28.1212069 44.1712794,28.469445 L44.4368324,28.7151739 C44.4844047,28.7565339 44.5167577,28.7827207 44.5313999,28.7934666 C45.6868113,29.6414208 45.9360546,31.2654695 45.0881004,32.4208809 C44.2401462,33.5762923 42.6160975,33.8255356 41.4606861,32.9775814 C40.7376356,32.446936 39.7756764,31.5123434 38.8355737,30.1521488 C33.7759126,22.8315402 35.7331433,12.9771385 48.5273741,1.58090172 C49.5112368,0.704543297 50.9956693,0.70457499 51.9794946,1.58097542 Z M79.5611333,41.6544911 C80.5589371,40.7202517 82.11037,40.7202009 83.1082348,41.6543751 C92.0139675,49.9916816 94.0473962,57.1955052 91.6103886,62.6224642 C91.2459264,63.4340831 90.8511457,64.0265063 90.5202952,64.4028523 C89.5740357,65.4792328 87.9343621,65.5847167 86.8579817,64.6384572 C85.7816012,63.6921977 85.6761173,62.0525241 86.6223768,60.9761437 L86.6680416,60.9036628 C86.7134712,60.8270398 86.7887364,60.6903704 86.8758446,60.4963895 C87.3885431,59.354664 87.52385,57.848804 86.9714703,55.8918894 C86.2858682,53.4630085 84.6203218,50.7051087 81.7566566,47.6354773 L81.335,47.19 L81.2620046,47.2660589 C78.2970883,50.3661247 76.5423697,53.1541677 75.7787902,55.6128243 L75.6950709,55.8950527 C75.1418924,57.8524761 75.276361,59.3584713 75.7879998,60.4998446 C75.926767,60.809409 76.0352234,60.9724482 76.0399445,60.9778278 C76.9852738,62.0550252 76.8783736,63.6946071 75.8011762,64.6399365 C74.7239788,65.5852658 73.0843969,65.4783656 72.1390675,64.4011682 C71.8090502,64.0251153 71.4153992,63.433352 71.0520589,62.6228058 C68.6196107,57.1964558 70.6553695,49.9929195 79.5611333,41.6544911 Z" fill="#00B077"></path>
    </g>
</svg>