<?xml version="1.0" encoding="UTF-8"?>
<svg width="100px" height="100px" viewBox="0 0 100 100" version="1.1" xmlns="http://www.w3.org/2000/svg" xmlns:xlink="http://www.w3.org/1999/xlink">
    <!-- Generator: Sketch 63.1 (92452) - https://sketch.com -->
    <title>CandyCane</title>
    <desc>Created with Sketch.</desc>
    <g id="CandyCane" stroke="none" stroke-width="1" fill="none" fill-rule="evenodd">
        <path d="M69.2817953,11.9228337 C70.756975,12.0547453 72.2294884,12.2942703 73.693616,12.6368577 C83.4234425,14.9207746 91.6668616,21.6459096 95.9152247,30.8314086 C101.396383,42.6926136 99.5851664,56.4869137 91.063749,68.569657 C87.0074847,74.3283363 79.0426495,75.7080028 73.288089,71.6506898 C67.6520903,67.6750891 66.2141297,59.967031 69.9640119,54.2377349 C70.1083579,53.8651651 70.3364094,53.5333839 70.6262834,53.2661888 C73.5568114,48.8481609 74.2340864,44.7311612 72.7593548,41.544088 C71.7580451,39.3807934 69.8349453,37.8569944 67.6572587,37.4255804 C67.5759472,37.4169065 67.4956151,37.4025476 67.4158175,37.3843119 C67.2721307,37.3594716 67.127195,37.34126 66.9814585,37.3279434 C63.66577,37.0303816 59.9898479,39.2230598 56.6620465,43.800141 L56.4131252,44.1478912 L23.6080342,90.6912594 C19.547621,96.4453209 11.5833251,97.822206 5.83403569,93.7655455 C0.0763989745,89.7056735 -1.30121432,81.7469509 2.7552025,75.9914886 C3.58084174,74.8200272 5.19981164,74.539683 6.37127299,75.3653222 C7.49392344,76.1565598 7.79816945,77.6763945 7.09489943,78.832719 L6.99743931,78.9813927 C4.59210231,82.3942142 5.40934648,87.1155824 8.82554478,89.5244404 C12.1619975,91.8786193 16.7629568,91.1442576 19.2132487,87.9099169 L19.3666967,87.7000801 L22.5081491,83.2411661 L12.0134007,81.3829578 C10.6021858,81.1330096 9.66079303,79.7863707 9.91074124,78.3751557 C10.1510761,77.0182183 11.405363,76.0956579 12.7560561,76.248902 L12.9185433,76.2724962 L25.8101491,78.5561661 L35.8611491,64.2961661 L26.1133149,62.5691892 C24.7021102,62.3191831 23.7607727,60.9725056 24.0107788,59.5613009 C24.2511693,58.2043733 25.5054941,57.2818643 26.8561809,57.4351639 L27.0186671,57.4587648 L39.1641491,59.6101661 L49.2171491,45.3471661 L40.4133418,43.789239 C39.0021013,43.5394349 38.060571,42.1928923 38.310375,40.7816518 C38.5505712,39.4246897 39.8047639,38.5020012 41.1554726,38.6551074 L41.3179622,38.678685 L52.5276086,40.6614493 C55.120212,37.1214181 58.062563,34.5829964 61.1672307,33.231786 L54.3128994,28.4215382 C53.1398189,27.5982011 52.8562958,25.9797849 53.6796328,24.8067044 C54.4686642,23.6825022 55.9878984,23.3752721 57.1456018,24.0762699 L57.2944666,24.1734378 L69.0373826,32.4145572 C71.9408862,33.087525 74.5162794,34.8405246 76.2747084,37.3074098 L79.9040093,28.4693877 C80.4483943,27.143625 81.9644486,26.5101932 83.2902113,27.0545783 C84.5629435,27.5771879 85.1976235,28.995288 84.7647245,30.2808498 L84.7050207,30.4407803 L78.707206,45.0493255 C78.7116778,47.3925897 78.1548874,49.8363588 77.0688696,52.2971171 L86.9677069,51.7078135 C88.3983544,51.6226699 89.6271459,52.7134163 89.7122895,54.1440639 C89.7941584,55.5196865 88.7888508,56.7086819 87.4395578,56.8738005 L87.2760391,56.8886465 L73.950977,57.6817013 C72.1898863,61.0009631 73.129559,65.1875654 76.2792201,67.4093181 C79.6899107,69.814061 84.4155584,68.9954857 86.8215528,65.5796956 C94.3173222,54.9512451 95.8720568,43.1103247 91.2042956,33.0093081 C87.6263354,25.2733053 80.6825954,19.6084727 72.509374,17.6899426 C71.2812335,17.4025738 70.0491697,17.2021613 68.8161059,17.0918976 C58.1251261,16.1215554 47.707232,21.4901982 40.1253528,31.9943308 L39.8066866,32.4412202 L11.8171144,72.1445816 C10.991393,73.315985 9.37240339,73.5962156 8.20099998,72.7704941 C7.07840505,71.9791778 6.7742657,70.4593217 7.47761687,69.3030466 L7.57508742,69.1543797 L35.5643188,29.4515022 C44.1881849,17.2096935 56.4909613,10.7619008 69.2817953,11.9228337 Z" fill="#00B077"></path>
    </g>
</svg>