<?xml version="1.0" encoding="UTF-8"?>
<svg width="100px" height="100px" viewBox="0 0 100 100" version="1.1" xmlns="http://www.w3.org/2000/svg" xmlns:xlink="http://www.w3.org/1999/xlink">
    <!-- Generator: Sketch 63.1 (92452) - https://sketch.com -->
    <title>GingerbreadMan</title>
    <desc>Created with Sketch.</desc>
    <g id="GingerbreadMan" stroke="none" stroke-width="1" fill="none" fill-rule="evenodd">
        <path d="M49.951575,0.673496 C37.9674273,0.673496 29.2682919,6.7001224 26.2330553,16.1578826 L26.1046449,16.5715632 C24.0730986,23.3442086 25.2641413,30.8809551 29.2770281,37.2490039 L29.373,37.398 L19.4511324,36.0691121 C7.74560251,34.4753376 1.31447278,42.2349234 5.98417025,50.6526005 C8.16703712,54.5863541 11.4100786,56.1792419 19.0755411,58.2694531 L21.4609604,58.9106736 C24.9935663,59.8733845 26.6619238,60.4566855 28.2343801,61.342618 C29.9495368,62.3099904 29.446644,65.3110017 26.1691876,70.5689124 C25.386289,71.8248898 24.4779355,73.1507546 23.42766,74.5861145 L22.8143606,75.4140519 C21.3898617,77.3066146 17.9773272,81.6425826 17.7196617,81.9838951 C13.5954857,87.4457782 14.5006085,93.861902 19.2502084,97.2949563 C23.961517,100.700333 30.4854613,99.7611236 34.9762595,94.4127861 L35.6534776,93.6137307 C41.4645013,86.8207643 45.7796066,83.4635725 49.9467682,83.4712915 C54.2838188,83.4632757 58.7707988,87.0839875 64.9272076,94.4131637 C69.4186837,99.7611401 75.942627,100.700314 80.653658,97.2949074 C85.3250919,93.9181235 86.2769469,87.655311 82.3821168,82.2530648 L82.1140444,81.8934371 C81.5266146,81.1339489 78.0687208,76.7357639 76.8754549,75.1277873 C75.6541655,73.4820476 74.6150744,71.981249 73.7346246,70.5688553 C70.4568551,65.3107463 69.9537892,62.3098912 71.6698113,61.3420309 L72.0086897,61.1566783 C73.4891627,60.3713713 75.1619218,59.8046143 78.4421906,58.910673 L80.8276089,58.2694531 C88.4930712,56.1792423 91.7361073,54.5863642 93.9188277,50.6528745 C98.5419787,42.3191029 92.28506,34.6305951 80.8038113,36.0237935 L70.524,37.399 L70.6207883,37.2504068 C74.7093783,30.7532864 75.8528808,23.037303 73.6337729,16.1545468 C70.5863427,6.70267664 61.8943231,0.673496 49.951575,0.673496 Z M49.951575,5.863496 C59.6881437,5.863496 66.3533009,10.4867526 68.6941671,17.7471527 C70.9588708,24.7713284 68.7180874,33.0648244 62.5643333,38.9679561 C60.7922572,40.6678613 62.1561444,43.6158388 64.5465413,43.4294928 L81.1567724,41.2110399 C88.8827668,40.1591034 91.8314472,43.7168824 89.3805503,48.1349115 C88.1164539,50.4129449 85.5522245,51.6218831 79.0110413,53.3844251 L76.9828461,53.9289342 C73.0779705,54.9943899 71.167743,55.6678579 69.1212001,56.820894 C66.1676988,58.4867093 65.0702584,61.3827372 65.6461379,64.8179344 C66.0647371,67.3149344 67.3343232,70.1125097 69.3302982,73.3143987 C70.1860372,74.6871521 71.1628514,76.1131993 72.2815036,77.6423082 L72.9224299,78.5079104 C74.3906326,80.4600247 77.8231501,84.8218515 78.0410044,85.110543 C80.4255732,88.2685646 79.9879572,91.3721428 77.6132045,93.0887521 C75.1438787,94.8737242 71.6717753,94.373887 68.9013799,91.0751921 C61.7214362,82.5275023 56.4444,78.2692646 49.9467682,78.2813005 C43.45875,78.2692646 38.1817138,82.5275023 31.0019076,91.0750283 C28.2319758,94.3738918 24.7600788,94.8737181 22.2905266,93.0887032 C19.9707125,91.4119203 19.499073,88.412053 21.6999308,85.3313183 L22.0237121,84.9019937 C22.7818883,83.9292608 25.837383,80.0388909 27.0942998,78.3574759 L27.1947917,78.2225812 C28.4940671,76.4718678 29.6105148,74.8593625 30.5735852,73.3143415 C32.5694013,70.1125224 33.8388716,67.3148425 34.2573173,64.8177691 C34.8329601,61.3826229 33.7353865,58.4866728 30.7829913,56.8214811 C28.7355078,55.6679147 26.8251893,54.9943954 22.9203048,53.9289347 L20.4799616,53.2726586 C14.2423977,51.5699545 11.7597941,50.3644647 10.5224477,48.1346375 C8.10671343,43.7799932 10.9372371,40.2609298 18.4203775,41.169067 L35.1975095,43.4128456 C37.6843896,43.7446271 39.1476513,40.7049941 37.3372008,38.9680656 C31.1784794,33.0594483 28.9225278,24.7618919 31.1748072,17.7438169 C33.5047867,10.4836294 40.1737194,5.863496 49.951575,5.863496 Z M36.41,18.571384 C36.41,20.478536 37.955928,22.03 39.864464,22.03 C41.778536,22.03 43.33,20.478536 43.33,18.571384 C43.33,16.654544 41.778536,15.11 39.864464,15.11 C37.955928,15.11 36.41,16.654544 36.41,18.571384 M62.36,18.571384 C62.36,20.478536 60.8129974,22.03 58.904843,22.03 C56.9911538,22.03 55.44,20.478536 55.44,18.571384 C55.44,16.654544 56.9911538,15.11 58.904843,15.11 C60.8129974,15.11 62.36,16.654544 62.36,18.571384 M46.79,65.2820764 C46.79,67.1896099 48.3365466,68.74 50.2458463,68.74 C52.1579152,68.74 53.71,67.1896099 53.71,65.2820764 C53.71,63.3662372 52.1579152,61.82 50.2458463,61.82 C48.3365466,61.82 46.79,63.3662372 46.79,65.2820764 M38.0353397,28.1244041 C39.0489059,27.1111492 40.691969,27.1114016 41.7052239,28.1249677 C46.3230397,32.7442023 53.8076738,32.7442023 58.4305914,28.1241226 C59.444313,27.1110233 61.0873761,27.1115277 62.1004754,28.1252494 C63.1135747,29.138971 63.1130703,30.7820341 62.0993486,31.7951334 C55.4495862,38.4408137 44.6792603,38.4408137 38.0347761,31.7942883 C37.0215212,30.7807221 37.0217736,29.137659 38.0353397,28.1244041 Z M46.79,51.441384 C46.79,53.347152 48.337312,54.9 50.245848,54.9 C52.158536,54.9 53.71,53.347152 53.71,51.441384 C53.71,49.524544 52.158536,47.98 50.245848,47.98 C48.337312,47.98 46.79,49.524544 46.79,51.441384" id="Gingerbread-Man" fill="#00B077"></path>
    </g>
</svg>