<?xml version="1.0" encoding="UTF-8"?>
<svg width="100px" height="100px" viewBox="0 0 100 100" version="1.1" xmlns="http://www.w3.org/2000/svg" xmlns:xlink="http://www.w3.org/1999/xlink">
    <!-- Generator: Sketch 63.1 (92452) - https://sketch.com -->
    <title>Holly</title>
    <desc>Created with Sketch.</desc>
    <g id="Holly" stroke="none" stroke-width="1" fill="none" fill-rule="evenodd">
        <path d="M44.2978044,13.0135929 C38.5201015,16.1867867 36.4041504,23.4238041 39.5678807,29.1963406 C42.7280761,34.9727104 49.9764704,37.0914719 55.751828,33.9229851 C61.4315445,30.813287 63.5739298,23.7487145 60.6263663,18.0217771 L60.4797633,17.7457334 C57.3160061,11.9731476 50.075023,9.85635281 44.2978044,13.0135929 Z M55.9284907,20.2401306 C57.7128853,23.4982107 56.5166791,27.5872433 53.2574322,29.3717122 C49.9956024,31.1612219 45.9045459,29.9653747 44.1200887,26.7036516 C42.3331311,23.4431706 43.5275985,19.3578299 46.7914649,17.565266 C50.0512919,15.7837825 54.1414374,16.9794764 55.9284907,20.2401306 Z M45.2383091,41.2910405 L45.0924726,41.0168068 C41.929902,35.242351 34.6891727,33.1252307 28.9109017,36.2862588 C23.1380616,39.4469439 21.0226743,46.6911022 24.1829482,52.4654025 C27.3446297,58.2404459 34.5919139,60.3571152 40.3670465,57.1963858 C46.0459811,54.0825537 48.1867037,47.0111809 45.2383091,41.2910405 Z M40.5404654,43.5098632 C42.3253894,46.7639181 41.1294112,50.8593894 37.8735582,52.6446156 C34.6135493,54.4288172 30.5202468,53.2333117 28.7355237,49.973384 C26.9509084,46.7126208 28.1453021,42.6224113 31.4025538,40.8390348 C34.6664547,39.0535038 38.754431,40.2487892 40.5404654,43.5098632 Z M16.4801865,19.2652955 C17.1967355,18.0935623 18.6935653,17.6911154 19.8931801,18.317693 L20.0478775,18.4052775 L34.3030775,27.1227475 C35.5257556,27.8704508 35.9107987,29.4677604 35.1630955,30.6904385 C34.4465465,31.8621717 32.9497167,32.2646186 31.7501019,31.638041 L31.5954045,31.5504565 L17.3402045,22.8329865 C16.1175264,22.0852832 15.7324833,20.4879736 16.4801865,19.2652955 Z M18.7415329,5.73195912 C20.0418621,4.35049917 22.3147155,4.79313296 23.0258315,6.51010995 L23.0878459,6.6747932 C24.3173303,10.2887748 29.3723383,13.591203 33.3252402,12.9769534 L33.5564556,12.9362763 C34.9626497,12.6594732 36.3269885,13.5750255 36.6037917,14.9812196 C36.8805948,16.3874137 35.9650425,17.7517525 34.5588484,18.0285557 C29.2248317,19.0785335 23.219868,16.1019213 19.9948466,11.7540505 L19.88,11.595 L19.7167216,11.7125556 C16.7988307,13.7492067 13.3232961,14.8835699 9.67050728,14.9844249 L9.341,14.99 L9.37208587,15.0506153 C11.0419596,18.3832459 11.6774543,22.0557633 11.2169191,25.6486987 L11.18,25.912 L11.4328746,25.9518871 C16.6550399,26.8148912 21.9234736,30.6271937 23.5590676,35.6770666 L23.6510612,35.9755325 C24.0535627,37.3510303 23.2647934,38.7923836 21.8892955,39.1948852 C20.5137977,39.5973867 19.0724444,38.8086174 18.6699428,37.4331195 C17.551733,33.6117796 12.3466592,30.5646129 8.51541893,30.9964597 L8.2872368,31.026567 C6.3527236,31.3198061 4.80191322,29.4480984 5.44964231,27.6018109 C7.10528206,22.8825742 5.89833206,17.5605451 2.02071324,13.6024658 L1.75825088,13.3406361 C-0.212790066,11.4187858 1.77125113,8.1543629 4.38486576,9.01896083 C9.79956682,10.8101734 15.2393746,9.45262562 18.7415329,5.73195912 Z M30.314105,46.645944 C30.262205,49.026424 32.151365,51.007274 34.535305,51.062634 C36.922705,51.114534 38.908745,49.221914 38.962375,46.839704 C39.016005,44.445384 37.118195,42.471454 34.730795,42.417824 C32.346855,42.364194 30.367735,44.251624 30.314105,46.645944 M54.1600424,41.2223915 C50.7398337,46.8379842 52.5297445,54.177645 58.1531397,57.5954836 C63.7807332,61.013185 71.1126377,59.2258495 74.5325143,53.5997436 C77.9498363,47.972775 76.1620134,40.6402389 70.5380732,37.2234132 C64.9098347,33.8044518 57.5766995,35.5943058 54.1600424,41.2223915 Z M67.8433937,41.659042 C71.0170631,43.5872052 72.0265819,47.7276226 70.0970372,50.9048147 C68.1665089,54.0807642 64.0261374,55.0900835 60.8479563,53.1599382 C57.7460819,51.2746525 56.7108474,47.2703567 58.4721003,44.1285062 L58.5965276,43.9156605 C60.5251251,40.73878 64.6650613,39.7283143 67.8433937,41.659042 Z M80.1956787,19.7582328 C81.450694,19.066179 83.0291053,19.5225494 83.7211592,20.7775647 C84.3855308,21.9823794 83.9915147,23.4852359 82.8485732,24.2158216 L82.7018273,24.3030452 L68.0694873,32.3717652 C66.814472,33.063819 65.2360607,32.6074486 64.5440068,31.3524333 C63.8796352,30.1476186 64.2736513,28.6447621 65.4165928,27.9141764 L65.5633387,27.8269528 L80.1956787,19.7582328 Z M77.6847272,7.90205472 C78.3974956,6.07981567 80.7938406,5.67194387 82.0693206,7.15577154 C85.328367,10.9471779 90.5461949,12.5619116 95.913992,11.1804586 L96.2642597,11.0861075 C98.9139754,10.3404692 100.74869,13.6905015 98.6934609,15.5216228 C94.4341263,19.3165087 92.8919856,24.7051886 94.3658625,29.6015341 C94.9297837,31.4749288 93.2966439,33.2748528 91.3774079,32.8951841 C87.556945,32.1394094 82.0304701,34.9860462 80.7160605,38.8290029 C80.2522486,40.1850561 78.7769563,40.9083605 77.4209031,40.4445485 C76.0648499,39.9807366 75.3415455,38.5054443 75.8053575,37.1493911 C77.5581608,32.0246969 83.1029487,28.324259 88.4621429,27.684358 L88.716,27.656 L88.6921451,27.3906065 C88.3935412,23.7805368 89.1932708,20.1407161 91.0109879,16.8869477 L91.044,16.827 L90.7143215,16.8070073 C87.0694643,16.5415169 83.6482023,15.2517257 80.825164,13.0858794 L80.668,12.962 L80.5075895,13.1628003 C77.1489176,17.2542044 71.2109901,19.909143 66.0202496,18.799257 L65.7157988,18.7296096 C64.3234268,18.3900483 63.4699551,16.9860389 63.8095164,15.5936668 C64.1354952,14.2569897 65.4424695,13.416963 66.7783875,13.6523217 L66.9454592,13.6873844 C70.8907088,14.6495225 76.266652,11.5274571 77.6847272,7.90205472 Z M49.2824486,55.8789322 C50.6602412,55.9059057 51.766171,57.0019316 51.8242657,58.3600482 L51.8261578,58.5242286 L51.4991878,75.2256486 C51.4711353,76.6585529 50.2867958,77.7974104 48.8538914,77.7693578 C47.4760988,77.7423843 46.370169,76.6463584 46.3120743,75.2882418 L46.3101822,75.1240614 L46.6371522,58.4226414 C46.6652047,56.9897371 47.8495442,55.8508796 49.2824486,55.8789322 Z M34.9734001,62.4799754 C36.0531386,61.5375495 37.6924268,61.6488635 38.6348526,62.7286021 C42.1948261,66.8072686 42.6261074,73.4612354 40.5020964,78.4213597 L40.398,78.656 L40.5280151,78.7149189 C43.8115641,80.2386217 46.576414,82.7269322 48.5043823,85.9047445 L48.612,86.086 L48.7274977,85.9112537 C50.7958598,82.8231316 53.6697809,80.4607331 57.0176569,79.085451 L57.148,79.033 L57.03125,78.7306454 C55.2005205,73.7958033 55.8714411,67.3780706 59.3940114,63.4530482 L59.6277908,63.2006434 C60.6181266,62.164672 62.2607732,62.127677 63.2967446,63.1180128 C64.2876738,64.0652905 64.3646057,65.6093894 63.5027257,66.6485029 L63.3793752,66.7869666 C60.6369556,69.6557595 60.5932026,75.6662491 62.8630668,78.7703682 L63.0214109,78.977438 C64.2431307,80.504768 63.4002556,82.7833372 61.4786899,83.1479213 C56.4533911,84.1013854 52.3798069,87.9529999 50.9761497,93.4756554 C50.2979743,96.1439201 46.478509,96.0586703 45.9200601,93.3628044 C44.7635614,87.7799023 40.8689355,83.7515176 35.888755,82.5735888 C34.0437135,82.1371934 33.2915611,79.9492269 34.4216878,78.4753832 L34.5331758,78.3393778 C37.0947985,75.4120138 37.3935309,69.199027 34.7247734,66.1414279 C33.7823475,65.0616894 33.8936615,63.4224012 34.9734001,62.4799754 Z M68.671319,47.508522 C68.617689,49.892462 66.636839,51.785082 64.252899,51.731452 C61.863769,51.677822 59.965959,49.696972 60.019589,47.314762 C60.073219,44.918712 62.059259,43.031282 64.448389,43.084912 C66.834059,43.138542 68.724949,45.114202 68.671319,47.508522 M45.69813,23.376233 C45.64623,25.758443 47.53885,27.742753 49.92106,27.796383 C52.30846,27.850013 54.29277,25.953933 54.3464,23.569993 C54.40003,21.177403 52.50395,19.201743 50.11655,19.149843 C47.73434,19.094483 45.75176,20.981913 45.69813,23.376233 M59.6093322,4.49282562 C60.4482811,3.33085894 62.0703437,3.06900131 63.2323104,3.90795022 C64.3942771,4.74689913 64.6561347,6.36896171 63.8171858,7.53092838 C63.0538558,8.58816075 62.0809578,9.65916166 61.143289,10.470566 C60.0595412,11.4083786 58.4207427,11.2900748 57.48293,10.206327 C56.5451174,9.12257923 56.6634212,7.4837807 57.747169,6.54596805 C58.3754437,6.00229542 59.0774318,5.22952193 59.6093322,4.49282562 Z M75.6316007,57.5687025 C76.6031687,56.5151099 78.2448858,56.4486158 79.2984785,57.4201837 C80.9464858,58.9398898 82.0324095,60.9663683 82.5255417,63.2505938 C82.8279774,64.6514986 81.9374921,66.032329 80.5365872,66.3347647 C79.1895633,66.6255682 77.8610994,65.8134493 77.4920383,64.5051491 L77.4524163,64.3458102 C77.1967766,63.1616679 76.6890711,62.1598306 75.965491,61.4160936 L75.7801195,61.2355803 C74.7265269,60.2640123 74.6600328,58.6222952 75.6316007,57.5687025 Z M17.7660184,55.2168626 C18.8431114,54.2714143 20.4827051,54.3781334 21.4281534,55.4552264 C22.3736017,56.5323194 22.2668826,58.1719131 21.1897896,59.1173614 C20.3657035,59.8407259 19.6208236,60.7698282 19.1687664,61.6491466 L19.0421475,61.9111931 C18.4524007,63.2174092 16.915419,63.7982223 15.6092029,63.2084755 C14.3029868,62.6187287 13.7221737,61.081747 14.3119205,59.7755309 C15.0651448,58.1072324 16.3298054,56.4775385 17.7660184,55.2168626 Z" fill="#00B077"></path>
    </g>
</svg>