<?xml version="1.0" encoding="UTF-8"?>
<svg width="100px" height="100px" viewBox="0 0 100 100" version="1.1" xmlns="http://www.w3.org/2000/svg" xmlns:xlink="http://www.w3.org/1999/xlink">
    <!-- Generator: Sketch 63.1 (92452) - https://sketch.com -->
    <title>List</title>
    <desc>Created with Sketch.</desc>
    <g id="List" stroke="none" stroke-width="1" fill="none" fill-rule="evenodd">
        <path d="M73.8738641,57.1150412 C74.842398,58.085205 74.8832444,59.6306795 73.9973297,60.6493791 L73.8707788,60.7849241 L65.6325188,69.0093441 C64.6629317,69.9773023 63.1185701,70.018756 62.0997475,69.1341677 L61.9641779,69.0078021 L58.2066179,65.2502421 C57.1932074,64.2368316 57.1932074,62.5937684 58.2066179,61.5803579 C59.1759671,60.6110087 60.7214068,60.5688631 61.7408508,61.453921 L61.8765021,61.5803579 L63.8,63.504 L70.2039812,57.1119559 C71.2182433,56.0993977 72.8613058,56.100779 73.8738641,57.1150412 Z M51.557294,60.367386 C52.9904729,60.367386 54.152294,61.5292071 54.152294,62.962386 C54.152294,64.3404427 53.0781251,65.4676137 51.7214059,65.5522807 L51.557294,65.557386 L28.269764,65.557386 C26.8365851,65.557386 25.674764,64.3955649 25.674764,62.962386 C25.674764,61.5843293 26.7489329,60.4571583 28.1056521,60.3724913 L28.269764,60.367386 L51.557294,60.367386 Z M73.8734785,38.740152 C74.8422164,39.7101121 74.8833878,41.255578 73.9976874,42.2744639 L73.871165,42.4100355 L65.632905,50.6379155 C64.6630617,51.6065368 63.1178211,51.6478312 62.0989102,50.7623993 L61.9633337,50.6359145 L58.2057737,46.8748945 C57.1928296,45.8610177 57.1935857,44.2179547 58.2074625,43.2050107 C59.1772577,42.2361077 60.7227166,42.1946732 61.7417532,43.0802003 L61.8773463,43.2066995 L63.801,45.132 L70.203595,38.7378385 C71.2176442,37.7250671 72.860707,37.7261028 73.8734785,38.740152 Z M51.557294,42.317258 C52.9904729,42.317258 54.152294,43.4790791 54.152294,44.912258 C54.152294,46.2903147 53.0781251,47.4174857 51.7214059,47.5021527 L51.557294,47.507258 L28.269764,47.507258 C26.8365851,47.507258 25.674764,46.3454369 25.674764,44.912258 C25.674764,43.5342013 26.7489329,42.4070303 28.1056521,42.3223633 L28.269764,42.317258 L51.557294,42.317258 Z M73.8738641,20.3793562 C74.842398,21.34952 74.8832444,22.8949945 73.9973297,23.9136941 L73.8707788,24.0492391 L65.6325188,32.2736591 C64.6632476,33.2413019 63.1194957,33.283088 62.1006063,32.3992262 L61.9650233,32.2729621 L58.2074633,28.5188621 C57.1935861,27.5059185 57.1928293,25.8628555 58.2057729,24.8489783 C59.1746755,23.8791827 60.7200956,23.8363252 61.7399472,24.7209135 L61.8756567,24.8472879 L63.799,26.769 L70.2039812,20.3762709 C71.2182433,19.3637127 72.8613058,19.365094 73.8738641,20.3793562 Z M51.557294,24.27059 C52.9904729,24.27059 54.152294,25.4324111 54.152294,26.86559 C54.152294,28.2436467 53.0781251,29.3708177 51.7214059,29.4554847 L51.557294,29.46059 L28.269764,29.46059 C26.8365851,29.46059 25.674764,28.2987689 25.674764,26.86559 C25.674764,25.4875333 26.7489329,24.3603623 28.1056521,24.2756953 L28.269764,24.27059 L51.557294,24.27059 Z M83.933898,82.691825 C83.933898,88.4394353 79.2765593,93.1013387 73.5292256,93.1029646 L11.358322,93.102273 C5.70509529,93.102965 1.10071587,88.5912671 0.951271981,82.9736135 L0.947528,82.691825 L0.947528,78.707635 C0.947528,77.3295783 2.02169689,76.2024073 3.37841612,76.1177403 L3.542528,76.112635 L65.718728,76.112635 C67.0967847,76.112635 68.2239557,77.1868039 68.3086227,78.5435231 L68.313728,78.707635 L68.313728,82.691825 C68.313728,85.5758053 70.6473151,87.912965 73.526218,87.912965 C76.4076878,87.912965 78.743898,85.5749679 78.743898,82.691825 L78.743528,16.654218 L78.7476383,16.376088 C78.7953537,14.5805516 79.2976793,12.8984135 80.1437589,11.4405962 L26.982471,11.44091 C24.1742442,11.44091 21.8849223,13.657887 21.7693675,16.43797 L21.76531,16.657033 L21.76531,70.683203 C21.76531,72.1163819 20.6034889,73.278203 19.17031,73.278203 C17.7922533,73.278203 16.6650823,72.2040341 16.5804153,70.8473149 L16.57531,70.683203 L16.574528,16.654218 L16.5785318,16.3767461 C16.72785,10.7580787 21.3283979,6.25091 26.982471,6.25091 L89.151578,6.250218 L89.151578,6.250218 C94.805001,6.250218 99.404504,10.758421 99.553788,16.376105 L99.557528,16.657898 L99.557528,19.645608 C99.557528,21.0236647 98.4833591,22.1508357 97.1266399,22.2355027 L96.962528,22.240608 L89.386858,22.240608 C87.9536791,22.240608 86.791858,21.0787869 86.791858,19.645608 C86.791858,18.2675513 87.8660269,17.1403803 89.2227461,17.0557133 L89.386858,17.050608 L94.367,17.05 L94.367528,16.657898 C94.367528,13.8498453 92.1507206,11.5603582 89.3720813,11.4447948 L89.151578,11.440218 C86.3430031,11.440218 84.0540114,13.6575341 83.9384738,16.4373041 L83.933528,16.654218 L83.933898,82.691825 L83.933898,82.691825 Z M63.123,81.302 L6.137,81.302 L6.137528,82.691825 C6.137528,85.50123 8.36170429,87.7956415 11.1436038,87.9086062 L11.358668,87.912965 L64.5241647,87.912657 C63.6777126,86.4537735 63.175176,84.7703354 63.1274657,82.9736499 L63.123728,82.691825 L63.123,81.302 Z" fill="#00B077"></path>
    </g>
</svg>