<?xml version="1.0" encoding="UTF-8"?>
<svg width="100px" height="100px" viewBox="0 0 100 100" version="1.1" xmlns="http://www.w3.org/2000/svg" xmlns:xlink="http://www.w3.org/1999/xlink">
    <!-- Generator: Sketch 63.1 (92452) - https://sketch.com -->
    <title>Ornament</title>
    <desc>Created with Sketch.</desc>
    <g id="Ornament" stroke="none" stroke-width="1" fill="none" fill-rule="evenodd">
        <path d="M53.018081,22.480492 C31.7968708,22.480492 14.596511,39.6797043 14.596511,60.900332 C14.596511,82.1169215 31.7980228,99.316712 53.018081,99.316712 C74.2387087,99.316712 91.436191,82.1180823 91.436191,60.900332 C91.436191,39.6785436 74.2398605,22.480492 53.018081,22.480492 Z M53.018081,27.670492 C71.3733864,27.670492 86.246191,42.5447851 86.246191,60.900332 C86.246191,79.2518019 71.3722734,94.126712 53.018081,94.126712 C34.6642644,94.126712 19.786511,79.2504474 19.786511,60.900332 C19.786511,42.5461397 34.6631511,27.670492 53.018081,27.670492 Z M53.0186,0.70602 C57.0305907,0.70602 60.24827,4.03073397 60.24827,8.08793 C60.24827,9.52110893 59.0864489,10.68293 57.65327,10.68293 C56.2752133,10.68293 55.1480423,9.60876111 55.0633753,8.25204188 L55.05827,8.08793 C55.05827,6.85977573 54.1255411,5.89602 53.0186,5.89602 C51.9613339,5.89602 51.0620835,6.77791369 50.9858865,7.92930865 L50.98066,8.08793 C50.98066,9.52110893 49.8188389,10.68293 48.38566,10.68293 C46.9524811,10.68293 45.79066,9.52110893 45.79066,8.08793 C45.79066,4.03115458 49.0079165,0.70602 53.0186,0.70602 Z M66.328009,12.41466 C67.7060657,12.41466 68.8332367,13.4888289 68.9179037,14.8455481 L68.923009,15.00966 L68.923009,19.91075 C68.923009,21.3439289 67.7611879,22.50575 66.328009,22.50575 C64.9499523,22.50575 63.8227813,21.4315811 63.7381143,20.0748619 L63.733009,19.91075 L63.733,17.604 L42.303,17.604 L42.303499,19.91075 C42.303499,21.2888067 41.2293301,22.4159777 39.8726109,22.5006447 L39.708499,22.50575 C38.3304423,22.50575 37.2032713,21.4315811 37.1186043,20.0748619 L37.113499,19.91075 L37.113499,15.00966 C37.113499,13.6316033 38.1876679,12.5044323 39.5443871,12.4197653 L39.708499,12.41466 L66.328009,12.41466 Z" fill="#00B077"></path>
    </g>
</svg>