<?xml version="1.0" encoding="UTF-8"?>
<svg width="100px" height="100px" viewBox="0 0 100 100" version="1.1" xmlns="http://www.w3.org/2000/svg" xmlns:xlink="http://www.w3.org/1999/xlink">
    <!-- Generator: Sketch 63.1 (92452) - https://sketch.com -->
    <title>Santa</title>
    <desc>Created with Sketch.</desc>
    <g id="Santa" stroke="none" stroke-width="1" fill="none" fill-rule="evenodd">
        <path d="M83.8581503,44.5851539 C86.835275,52.8160279 86.2278516,60.1791161 83.385893,66.310675 C82.8530887,67.4602065 82.2787355,68.4726675 81.6982425,69.3431939 L81.4377356,69.7240318 L81.4214158,69.7484467 C82.956625,74.4802601 83.176768,80.1953584 81.8652576,86.7087703 C80.4961173,93.5103811 76.2221467,99.0198155 70.5452744,99.1843932 C67.9398128,99.2611319 65.556985,98.2380785 63.8446722,96.5521976 L63.74,96.447 L63.706495,96.481106 C62.0715475,98.0949658 59.8134171,99.1135232 57.3206854,99.1818496 L57.052727,99.185518 C54.4514863,99.185518 52.0888077,98.1530298 50.395272,96.481734 L50.334,96.419 L50.2734169,96.4816604 C48.6374637,98.0953482 46.3776742,99.1135489 43.8823291,99.1818509 L43.614087,99.185518 C41.014861,99.185518 38.6530426,98.1527227 36.959866,96.4812814 L36.926,96.447 L36.8224168,96.5524914 C35.1692028,98.1801375 32.8907508,99.1897874 30.3897992,99.1884585 L30.121007,99.1844282 C24.4419665,99.0197873 20.167277,93.5078487 18.8033571,86.7091214 C17.4912057,80.1952666 17.7111623,74.4798178 19.2465314,69.7477521 C19.1595749,69.6248112 19.0666543,69.4895038 18.9690905,69.3431939 C18.3885975,68.4726675 17.8142443,67.4602065 17.28144,66.310675 C14.4394814,60.1791161 13.832058,52.8160279 16.8091827,44.5851539 C17.2966586,43.2374265 18.7843847,42.5400548 20.1321121,43.0275307 C21.4798395,43.5150066 22.1772112,45.0027327 21.6897353,46.3504601 C19.2049449,53.2201747 19.6965681,59.179552 21.9902342,64.1281635 C22.2466301,63.7571617 22.5145956,63.3946009 22.7938652,63.0422347 C26.5256359,58.3337028 32.1113564,55.925976 36.5926501,56.8291824 C37.9975772,57.112346 38.9069462,58.4808139 38.6237826,59.8857411 C38.3515099,61.2366325 37.0758123,62.1293526 35.7291094,61.9442937 L35.5672239,61.9168736 C33.1189007,61.4234131 29.4436717,63.0076219 26.8613038,66.2659038 C23.4518038,70.5678131 22.1664515,77.1223559 23.8915629,85.6862543 C24.8367492,90.3977185 27.5670018,93.9182045 30.2725331,93.9966407 C32.4155188,94.0596992 34.2022822,92.4056678 34.308603,90.3977823 L34.3188806,90.0198854 C34.5005556,86.8114355 39.3166584,86.8114355 39.4983334,90.0198854 L39.5088761,90.4008174 C39.6138528,92.3127994 41.2752642,93.8906961 43.4000992,93.9905063 L43.614087,93.995518 C45.8454619,93.995518 47.6176313,92.3764427 47.7262128,90.4008091 L47.731487,90.208548 C47.731487,88.8304913 48.8056559,87.7033203 50.1623751,87.6186533 L50.343787,87.613548 C51.7218437,87.613548 52.8490147,88.6877169 52.9336817,90.0444361 L52.938787,90.208548 C52.938787,92.2713656 54.7504221,93.995518 57.052727,93.995518 C59.2780571,93.995518 61.0493993,92.3758963 61.157935,90.4007578 L61.1684806,90.0198854 C61.3501556,86.8114355 66.1662584,86.8114355 66.3479334,90.0198854 L66.3582133,90.3977102 C66.4612579,92.3421497 68.1420331,93.9559134 70.193983,93.9975299 L70.393677,93.9966078 C73.0978689,93.9182107 75.8284642,90.3982906 76.7773454,85.6844417 C78.5013673,77.1223555 77.2157972,70.5677148 73.8063752,66.2659038 C71.3021822,63.1062583 67.7704278,61.5209383 65.3254244,61.877749 L65.0994537,61.9169011 C63.6945114,62.1999893 62.3260922,61.290547 62.0430039,59.8856047 C61.7599157,58.4806624 62.669358,57.1122432 64.0743003,56.8291549 C68.5563225,55.9260517 74.1419772,58.3336197 77.8738138,63.0422347 C78.1530737,63.3945885 78.4210309,63.7571375 78.6774875,64.1297124 L78.6770988,64.1281635 C80.9707649,59.179552 81.4623881,53.2201747 78.9775977,46.3504601 C78.4901218,45.0027327 79.1874935,43.5150066 80.5352209,43.0275307 C81.8829483,42.5400548 83.3706744,43.2374265 83.8581503,44.5851539 Z M35.2615063,65.9439564 C38.2918688,69.0045923 43.9893146,71.013506 50.333407,71.013506 C56.6758195,71.013506 62.3736244,69.0046155 65.4079494,65.9430361 C66.416819,64.9251048 68.0598657,64.9177589 69.0777969,65.9266284 C70.0957282,66.935498 70.1030741,68.5785447 69.0942046,69.5964759 C65.0027991,73.7246305 57.9719785,76.203506 50.333407,76.203506 C42.6925603,76.203506 35.6613378,73.724304 31.5734277,69.5955556 C30.5650664,68.5771208 30.5732327,66.9340779 31.5916674,65.9257167 C32.6101022,64.9173554 34.2531451,64.9255217 35.2615063,65.9439564 Z M50.332888,46.448025 C55.7919163,46.448025 60.211188,50.8658458 60.211188,56.321135 C60.211188,61.7765639 55.7917769,66.195975 50.332888,66.195975 C44.8819233,66.195975 40.461508,61.774108 40.461508,56.321135 C40.461508,50.8683011 44.8817841,46.448025 50.332888,46.448025 Z M50.332888,51.638025 C47.7481419,51.638025 45.651508,53.7346589 45.651508,56.321135 C45.651508,58.9081316 47.7486627,61.005975 50.332888,61.005975 C52.9254191,61.005975 55.021188,58.9102061 55.021188,56.321135 C55.021188,53.7325853 52.9259399,51.638025 50.332888,51.638025 Z M67.859345,39.373536 C72.4298362,39.373536 76.146045,43.0827302 76.146045,47.656776 C76.146045,49.0899549 74.9842239,50.251776 73.551045,50.251776 C72.1729883,50.251776 71.0458173,49.1776071 70.9611503,47.8208879 L70.956045,47.656776 C70.956045,45.9512854 69.5656711,44.563536 67.859345,44.563536 C66.2058707,44.563536 64.8552702,45.8549493 64.7640914,47.4812875 L64.759185,47.656776 C64.759185,49.0899549 63.5973639,50.251776 62.164185,50.251776 C60.7310061,50.251776 59.569185,49.0899549 59.569185,47.656776 C59.569185,43.0805293 63.2824098,39.373536 67.859345,39.373536 Z M32.808161,39.373536 C37.3837552,39.373536 41.096591,43.0809186 41.096591,47.656776 C41.096591,49.0899549 39.9347699,50.251776 38.501591,50.251776 C37.1235343,50.251776 35.9963633,49.1776071 35.9116963,47.8208879 L35.906591,47.656776 C35.906591,45.9489855 34.5191036,44.563536 32.808161,44.563536 C31.1599636,44.563536 29.8141266,45.8530806 29.72327,47.4810941 L29.718381,47.656776 C29.718381,49.0899549 28.5565599,50.251776 27.123381,50.251776 C25.6902021,50.251776 24.528381,49.0899549 24.528381,47.656776 C24.528381,43.0809662 28.2342531,39.373536 32.808161,39.373536 Z M50.333061,30.002126 C62.6454578,30.002126 73.8672792,31.855527 80.3435444,34.9289125 C81.6383227,35.5433643 82.1898363,37.0911011 81.5753845,38.3858794 C80.9609327,39.6806577 79.4131959,40.2321713 78.1184176,39.6177195 C72.5542403,36.9771757 62.3304022,35.2567213 50.9768951,35.1939063 L50.333061,35.192126 C38.7275415,35.192126 28.2179744,36.927512 22.5414532,39.6182228 C21.246397,40.2320885 19.69891,39.6798745 19.0850442,38.3848182 C18.4711785,37.089762 19.0233925,35.542275 20.3184488,34.9284092 C26.8011208,31.8555772 38.0256959,30.002126 50.333061,30.002126 Z M55.9729146,7.45044841 C56.0535326,8.82614493 55.0471442,10.0142257 53.6977017,10.1781173 L53.2442322,10.2156812 C52.9997375,10.2382739 52.6545561,10.2763232 52.2190068,10.33439 C51.1008207,10.4834648 49.8474016,10.7082005 48.4936998,11.0235331 C44.6219646,11.925419 40.752266,13.3665432 37.1594205,15.4562136 C31.1950382,18.9252168 26.5938628,23.8319562 23.8229649,30.4507954 C23.2695223,31.7728026 21.7491699,32.3958474 20.4271626,31.8424049 C19.1051554,31.2889623 18.4821106,29.7686099 19.0355531,28.4466026 C22.268208,20.7247654 27.655143,14.9800841 34.5500676,10.969859 C38.6255536,8.59947535 42.9719245,6.98083231 47.3162589,5.96885875 L48.1244266,5.78720034 C50.3599075,5.30320225 52.126062,5.07642798 53.2305484,5.01170336 C54.6612728,4.92786068 55.889072,6.01972404 55.9729146,7.45044841 Z M68.652031,0.578805 C74.6956599,0.578805 79.594281,5.47742607 79.594281,11.521055 C79.594281,15.5703061 77.3963838,19.1046739 74.128409,20.9969711 C76.9026493,22.9556925 79.3294568,25.2705945 81.3025306,27.8857827 C82.1657054,29.0298679 81.9379825,30.6570737 80.7938973,31.5202486 C79.6498121,32.3834234 78.0226063,32.1557005 77.1594314,31.0116153 C74.1703213,27.0497334 69.879114,23.8700549 64.8191419,21.7738833 C64.6357747,21.7053326 64.4551797,21.6322139 64.2770568,21.5544932 C60.0421391,19.8828382 55.293259,18.961439 50.333061,18.961439 C48.8998821,18.961439 47.738061,17.7996179 47.738061,16.366439 C47.738061,14.9332601 48.8998821,13.771439 50.333061,13.771439 C52.9835117,13.771439 55.5865448,14.0044964 58.1064827,14.4522627 C57.8462876,13.5197116 57.708051,12.5365838 57.708051,11.521055 C57.708051,5.47707546 62.6070227,0.578805 68.652031,0.578805 Z M68.652031,5.768805 C65.4732143,5.768805 62.898051,8.34359964 62.898051,11.521055 C62.898051,13.8833414 64.3200829,15.9115852 66.3556507,16.7974878 C66.4398216,16.8303548 66.5232084,16.8640502 66.6064278,16.898004 L66.3556507,16.7974878 C67.058981,17.1035852 67.8355578,17.273305 68.652031,17.273305 C71.8299828,17.273305 74.404281,14.6993754 74.404281,11.521055 C74.404281,8.34378393 71.8293021,5.768805 68.652031,5.768805 Z" fill="#00B077"></path>
    </g>
</svg>