<?xml version="1.0" encoding="UTF-8"?>
<svg width="100px" height="100px" viewBox="0 0 100 100" version="1.1" xmlns="http://www.w3.org/2000/svg" xmlns:xlink="http://www.w3.org/1999/xlink">
    <!-- Generator: Sketch 63.1 (92452) - https://sketch.com -->
    <title>Stocking</title>
    <desc>Created with Sketch.</desc>
    <g id="Stocking" stroke="none" stroke-width="1" fill="none" fill-rule="evenodd">
        <path d="M19.764233,38.433973 C21.1422897,38.433973 22.2694607,39.5081419 22.3541277,40.8648611 L22.359233,41.028973 L22.3593436,61.5965624 C35.2330212,63.8363517 44.9284491,75.3473279 44.991813,88.4494567 L70.5534955,93.7177016 C77.548026,95.1601136 84.9817026,90.9073443 86.9851651,84.3773266 C88.9839397,77.865469 85.4177252,70.5818414 79.1133669,68.2637883 L65.2948833,63.1795966 C64.3306647,62.8250216 63.6719516,61.9380264 63.6017372,60.924198 L63.595513,60.744053 L63.595513,43.149953 C63.595513,41.7167741 64.7573341,40.554953 66.190513,40.554953 C67.5685697,40.554953 68.6957407,41.6291219 68.7804077,42.9858411 L68.785513,43.149953 L68.785,58.933 L80.9052917,63.392946 C89.8066786,66.6659019 94.7509758,76.7641219 91.9467953,85.8999317 C89.1805573,94.9161137 79.3216939,100.642758 69.8400971,98.8666259 L69.5056213,98.8008167 L34.3142242,91.5487109 C24.9296064,89.6157773 17.349457,80.4276148 17.1723995,70.8537106 L17.169233,70.511633 L17.169233,41.028973 C17.169233,39.5957941 18.3310541,38.433973 19.764233,38.433973 Z M22.3587323,66.8846429 L22.359233,70.511633 C22.359233,77.6371036 28.1017506,84.7895602 35.0450682,86.3962755 L35.3614847,86.4654693 L39.7677973,87.3735375 C39.2134545,77.5385282 31.9563849,68.9824334 22.3587323,66.8846429 Z M43.1357489,45.7115655 L42.1367993,45.6657422 C40.2279014,45.578178 38.6094491,47.0546608 38.521885,48.9635588 C38.4343208,50.8724567 39.9108036,52.490909 41.8197016,52.5784731 L42.8186511,52.6242965 C44.7275491,52.7118606 46.3460013,51.2353778 46.4335655,49.3264799 C46.5211296,47.4175819 45.0446468,45.7991297 43.1357489,45.7115655 Z M34.7709125,0.592582598 C40.4253846,0.903600161 44.8796482,6.03086505 45.3787558,12.1929006 L66.5708841,13.1615666 C73.2417273,13.467268 78.657239,19.1348985 78.657239,25.812066 L78.657239,25.812066 L78.6535373,26.169581 C78.4909831,32.7949345 72.995699,37.9444002 66.3334561,37.6390929 L66.3334561,37.6390929 L19.7988706,35.5094941 C13.1274928,35.2059519 7.711669,29.5379947 7.711669,22.858956 L7.711669,22.858956 L7.711669,22.805326 C7.711669,16.033904 13.2717465,10.7237021 20.0353557,11.0336547 L20.0353557,11.0336547 L23.8899688,11.2093902 C24.4385685,5.04377161 29.0239144,0.282823198 34.7709125,0.592582598 Z M19.7980239,16.2182254 C15.9904724,16.0437386 12.901669,18.9937281 12.901669,22.805326 L12.901669,22.805326 L12.9056874,23.0973298 C13.0339266,26.9001759 16.2147732,30.1510513 20.0354519,30.3248891 L20.0354519,30.3248891 L66.5708841,32.4545266 C70.377763,32.6289825 73.467239,29.6779672 73.467239,25.867426 L73.467239,25.867426 L73.4632202,25.5737871 C73.334969,21.7724212 70.1538312,18.5212073 66.3335523,18.3461373 L66.3335523,18.3461373 Z M29.0808438,11.4476562 L40.128656,11.9523525 C39.600949,8.54012947 37.1865954,5.92329924 34.4887276,5.77490481 C31.8162102,5.63085857 29.4682345,8.01102182 29.0808438,11.4476562 Z" fill="#00B077"></path>
    </g>
</svg>