<?xml version="1.0" encoding="UTF-8"?>
<svg width="100px" height="100px" viewBox="0 0 100 100" version="1.1" xmlns="http://www.w3.org/2000/svg" xmlns:xlink="http://www.w3.org/1999/xlink">
    <!-- Generator: Sketch 63.1 (92452) - https://sketch.com -->
    <title>DrinkMenu</title>
    <desc>Created with Sketch.</desc>
    <g id="DrinkMenu" stroke="none" stroke-width="1" fill="none" fill-rule="evenodd">
        <path d="M74.664116,2.83595364 L74.6691756,3 L74.6682978,12.9704078 L83.3562978,12.9709444 C84.7836943,12.9709444 85.9408278,14.1280779 85.9408278,15.5554744 C85.9408278,16.9279711 84.8709929,18.0505944 83.5197476,18.1349197 L83.3562978,18.1400044 L18.584,18.14 L18.584,93.458 L80.771,93.458 L80.7717678,23.958643 C80.7717678,22.5861463 81.8416028,21.463523 83.1928481,21.3791977 L83.3562978,21.374113 C84.7287945,21.374113 85.8514178,22.4439479 85.9357431,23.7951932 L85.9408278,23.958643 L85.9408278,96.0429077 C85.9408278,97.4154043 84.8709929,98.5380276 83.5197476,98.6223529 L83.3562978,98.6274377 L16,98.6274377 C14.6275034,98.6274377 13.5048801,97.5576027 13.4205547,96.2063574 L13.41547,96.0429077 L13.41547,15.5554744 L13.4152978,15.5387963 C13.4155332,15.4969676 13.4167899,15.4552875 13.4190489,15.4137862 L13.41547,15.5554744 C13.41547,15.4825349 13.4184915,15.410301 13.4244161,15.3388912 C13.4272519,15.3027889 13.4310476,15.2667441 13.4355922,15.2308712 C13.4377125,15.2144723 13.4399276,15.1980739 13.4422957,15.181725 C13.4463636,15.1539721 13.4508836,15.1262774 13.4558479,15.0987021 C13.4612819,15.06744 13.4674157,15.0363882 13.4741001,15.0055417 C13.478801,14.9854009 13.4835006,14.96507 13.4884422,14.9448159 C13.4962743,14.9108188 13.5050691,14.8775007 13.5145052,14.8444531 C13.5198582,14.8278102 13.5249405,14.8107654 13.5301952,14.7937842 C13.5405558,14.7580197 13.55227,14.7227481 13.5647142,14.6878229 C13.5700716,14.6750749 13.5745974,14.662719 13.5792157,14.6504021 C13.6291057,14.5146695 13.691104,14.3840287 13.7631329,14.2599325 C13.7740533,14.2426713 13.7848051,14.2246159 13.7957738,14.206694 C13.8119595,14.1788786 13.8289562,14.1522823 13.8464204,14.1260238 C13.8590527,14.1081678 13.8716361,14.0897167 13.8844567,14.0714287 C13.9014432,14.0462442 13.9193799,14.0216539 13.9377346,13.9973976 C13.9520105,13.9792717 13.9657808,13.9615179 13.979783,13.9439413 C13.9977921,13.9207715 14.0168102,13.897777 14.0362135,13.8751221 C14.050646,13.8586438 14.0649651,13.8423044 14.0794933,13.8261412 C14.1013563,13.8015993 14.1237271,13.7776977 14.1465398,13.7542279 C14.1649301,13.7353706 14.1837911,13.7165115 14.2029537,13.6979358 C14.2175614,13.6838113 14.231961,13.6701982 14.2465157,13.6567502 C14.2698898,13.635045 14.2939084,13.6136331 14.3183481,13.5926553 C14.3384783,13.5755385 14.3588352,13.5586134 14.3794525,13.5419984 C14.397787,13.527042 14.4163434,13.5124984 14.4351163,13.4981982 C14.4581689,13.4808144 14.4814915,13.4636543 14.505108,13.446881 C14.5253009,13.432396 14.5458986,13.418223 14.5667281,13.4043359 C14.5950807,13.3855132 14.6237479,13.3671802 14.6527934,13.3494047 C14.6642899,13.3423787 14.6756059,13.3355893 14.6869834,13.3288821 C14.719814,13.3094368 14.7532977,13.2906375 14.7872319,13.2725728 C14.8049622,13.2633619 14.8229553,13.254083 14.8410847,13.2450047 C14.8695453,13.2304162 14.8979434,13.2167962 14.926623,13.2036854 C14.9477162,13.1945191 14.9693933,13.1850011 14.9912455,13.1757651 C15.0214511,13.1623953 15.0517795,13.1502039 15.082386,13.1385772 C15.0998713,13.1326563 15.1175825,13.1261725 15.1353979,13.1198713 C15.1733472,13.1056373 15.2116543,13.0930471 15.2503449,13.0813396 C15.2575152,13.0800431 15.2642965,13.0780258 15.2710916,13.0760346 L15.288258,13.0701855 C15.3618756,13.0491421 15.4368364,13.0312814 15.5129821,13.0167615 L71.5200204,0.477898951 C73.0813163,0.128370136 74.5668174,1.26474952 74.664116,2.83595364 Z M69.5,6.227 L39.3752978,12.9704078 L69.4992978,12.9704078 L69.5,6.227 Z M60.5512666,81.5554109 C61.9786631,81.5554109 63.1357966,82.7125444 63.1357966,84.1399409 C63.1357966,85.5124376 62.0659617,86.6350609 60.7147164,86.7193862 L60.5512666,86.7244709 L38.8033082,86.7244709 C37.3759117,86.7244709 36.2187782,85.5673374 36.2187782,84.1399409 C36.2187782,82.7674443 37.2886132,81.644821 38.6398584,81.5604957 L38.8033082,81.5554109 L60.5512666,81.5554109 Z M61.0795446,24.8737389 C62.5069411,24.8737389 63.6640746,26.0308724 63.6640746,27.4582689 C63.6640746,28.8307655 62.5942396,29.9533888 61.2429943,30.0377142 L61.0795446,30.0427989 L40.229,30.042 L40.1590283,30.3044954 C39.917046,31.2239588 39.6763455,32.214507 39.4454248,33.2621744 L39.308114,33.8975174 C38.7481113,36.5409272 38.3272645,39.1791358 38.0886276,41.7345565 L56.2018472,41.7340065 C57.6292437,41.7340065 58.7863772,42.89114 58.7863772,44.3185365 C58.7863772,45.6910331 57.7165423,46.8136564 56.365297,46.8979818 L56.2018472,46.9030665 L37.8688887,46.9027753 C38.0001143,56.7496354 41.5080554,62.0830245 49.6578609,62.0926808 L49.6798719,62.0923493 L49.6798719,62.0923493 L49.7022978,62.0924078 L50.0223145,62.0897172 C56.0174085,61.9845635 59.279148,59.0945944 60.708292,53.6063921 C61.9143853,48.9747494 61.6740323,42.8967493 60.4200162,36.2788631 C60.1542693,34.8764226 61.0757415,33.5240895 62.478182,33.2583425 C63.8806225,32.9925956 65.2329556,33.9140678 65.4987025,35.3165083 C66.8826455,42.6200647 67.1500094,49.3811109 65.7105334,54.9089904 C63.8968095,61.8740575 59.4320855,66.2801967 52.2654542,67.1164274 L52.2644019,76.2572967 C52.2644019,77.6846932 51.1072684,78.8418267 49.6798719,78.8418267 C48.3073753,78.8418267 47.184752,77.7719918 47.1004267,76.4207465 L47.0953419,76.2572967 L47.0952968,67.1206576 C37.0257646,65.976961 32.6338597,57.9617761 32.6967028,46.0541067 C32.7190723,41.8154808 33.2994617,37.3191684 34.2512835,32.8262348 C34.5414517,31.4565388 34.8495082,30.169257 35.1606358,28.9871976 L35.4429363,27.945513 C35.6037282,27.3692513 35.7317578,26.94033 35.8150331,26.6775353 C36.1374528,25.6600646 37.0490805,24.9515134 38.1020875,24.8797475 L38.2788209,24.8737389 L61.0795446,24.8737389 Z" id="Drink-Menu" fill="#00B077"></path>
    </g>
</svg>