<?xml version="1.0" encoding="UTF-8"?>
<svg width="100px" height="100px" viewBox="0 0 100 100" version="1.1" xmlns="http://www.w3.org/2000/svg" xmlns:xlink="http://www.w3.org/1999/xlink">
    <!-- Generator: Sketch 63.1 (92452) - https://sketch.com -->
    <title>FoodCover</title>
    <desc>Created with Sketch.</desc>
    <g id="FoodCover" stroke="none" stroke-width="1" fill="none" fill-rule="evenodd">
        <path d="M50.0975102,27.5052992 C75.4194943,27.5052992 96.3209678,47.9428914 96.3209678,72.2659128 C96.3209678,73.6933093 95.1638343,74.8504428 93.7364378,74.8504428 C92.3090413,74.8504428 91.1519078,73.6933093 91.1519078,72.2659128 C91.1519078,50.8239724 72.5903447,32.6743592 50.0975102,32.6743592 C27.6043291,32.6743592 9.04138968,50.8243272 9.04138968,72.2659128 C9.04138968,73.6933093 7.88425619,74.8504428 6.45685968,74.8504428 C5.02946318,74.8504428 3.87232968,73.6933093 3.87232968,72.2659128 C3.87232968,47.9431815 24.775241,27.5052992 50.0975102,27.5052992 Z M50.1126728,38.3649774 C53.5316757,38.3649774 56.8891814,38.8529679 60.109839,39.8023338 C61.4789905,40.2059239 62.2617326,41.643015 61.8581424,43.0121665 C61.4545523,44.3813179 60.0174612,45.16406 58.6483098,44.7604699 C55.9005576,43.9505042 53.0351542,43.5340374 50.1126728,43.5340374 C39.847587,43.5340374 30.416361,48.7390146 24.9254067,57.0584929 C24.1391266,58.2498049 22.5359714,58.5781482 21.3446594,57.7918681 C20.1533473,57.005588 19.825004,55.4024328 20.6112841,54.2111208 C27.0478388,44.4589404 38.0898741,38.3649774 50.1126728,38.3649774 Z M96.6174995,78.128316 C98.044896,78.128316 99.2020295,79.2854495 99.2020295,80.712846 C99.2020295,82.0853427 98.1321946,83.207966 96.7809493,83.2922913 L96.6174995,83.297376 L3.57441952,83.297376 C2.14702302,83.297376 0.989889524,82.1402425 0.989889524,80.712846 C0.989889524,79.3403494 2.05972449,78.2177261 3.41096978,78.1334008 L3.57441952,78.128316 L96.6174995,78.128316 Z M50.0947534,12.7135171 C55.4606106,12.7135171 59.8108632,17.0630437 59.8108632,22.4279039 C59.8108632,23.8553004 58.6537297,25.0124339 57.2263332,25.0124339 C55.8538366,25.0124339 54.7312133,23.9425989 54.6468879,22.5913536 L54.6418032,22.4279039 C54.6418032,19.9180298 52.6060107,17.8825771 50.0947534,17.8825771 C47.6572619,17.8825771 45.6677899,19.8030477 45.5560955,22.2139416 L45.5511497,22.4279039 C45.5511497,23.8553004 44.3940162,25.0124339 42.9666197,25.0124339 C41.5392232,25.0124339 40.3820897,23.8553004 40.3820897,22.4279039 C40.3820897,17.0632711 44.7303916,12.7135171 50.0947534,12.7135171 Z" id="Food-Cover" fill="#00B077"></path>
    </g>
</svg>