<?xml version="1.0" encoding="UTF-8"?>
<svg width="100px" height="100px" viewBox="0 0 100 100" version="1.1" xmlns="http://www.w3.org/2000/svg" xmlns:xlink="http://www.w3.org/1999/xlink">
    <!-- Generator: Sketch 63.1 (92452) - https://sketch.com -->
    <title>Menu</title>
    <desc>Created with Sketch.</desc>
    <g id="Menu" stroke="none" stroke-width="1" fill="none" fill-rule="evenodd">
        <path d="M74.664116,2.83595364 L74.6691756,3 L74.6682978,12.9704078 L83.3562978,12.9709444 C84.7836943,12.9709444 85.9408278,14.1280779 85.9408278,15.5554744 C85.9408278,16.9279711 84.8709929,18.0505944 83.5197476,18.1349197 L83.3562978,18.1400044 L18.584,18.14 L18.584,93.458 L80.771,93.458 L80.7717678,23.958643 C80.7717678,22.5861463 81.8416028,21.463523 83.1928481,21.3791977 L83.3562978,21.374113 C84.7287945,21.374113 85.8514178,22.4439479 85.9357431,23.7951932 L85.9408278,23.958643 L85.9408278,96.0429077 C85.9408278,97.4154043 84.8709929,98.5380276 83.5197476,98.6223529 L83.3562978,98.6274377 L16,98.6274377 C14.6275034,98.6274377 13.5048801,97.5576027 13.4205547,96.2063574 L13.41547,96.0429077 L13.41547,15.5554744 L13.4152978,15.5387963 C13.4155332,15.4969676 13.4167899,15.4552875 13.4190489,15.4137862 L13.41547,15.5554744 C13.41547,15.4825349 13.4184915,15.410301 13.4244161,15.3388912 C13.4272519,15.3027889 13.4310476,15.2667441 13.4355922,15.2308712 C13.4377125,15.2144723 13.4399276,15.1980739 13.4422957,15.181725 C13.4463636,15.1539721 13.4508836,15.1262774 13.4558479,15.0987021 C13.4612819,15.06744 13.4674157,15.0363882 13.4741001,15.0055417 C13.478801,14.9854009 13.4835006,14.96507 13.4884422,14.9448159 C13.4962743,14.9108188 13.5050691,14.8775007 13.5145052,14.8444531 C13.5198582,14.8278102 13.5249405,14.8107654 13.5301952,14.7937842 C13.5405558,14.7580197 13.55227,14.7227481 13.5647142,14.6878229 C13.5700716,14.6750749 13.5745974,14.662719 13.5792157,14.6504021 C13.6291057,14.5146695 13.691104,14.3840287 13.7631329,14.2599325 C13.7740533,14.2426713 13.7848051,14.2246159 13.7957738,14.206694 C13.8119595,14.1788786 13.8289562,14.1522823 13.8464204,14.1260238 C13.8590527,14.1081678 13.8716361,14.0897167 13.8844567,14.0714287 C13.9014432,14.0462442 13.9193799,14.0216539 13.9377346,13.9973976 C13.9520105,13.9792717 13.9657808,13.9615179 13.979783,13.9439413 C13.9977921,13.9207715 14.0168102,13.897777 14.0362135,13.8751221 C14.050646,13.8586438 14.0649651,13.8423044 14.0794933,13.8261412 C14.1013563,13.8015993 14.1237271,13.7776977 14.1465398,13.7542279 C14.1649301,13.7353706 14.1837911,13.7165115 14.2029537,13.6979358 C14.2175614,13.6838113 14.231961,13.6701982 14.2465157,13.6567502 C14.2698898,13.635045 14.2939084,13.6136331 14.3183481,13.5926553 C14.3384783,13.5755385 14.3588352,13.5586134 14.3794525,13.5419984 C14.397787,13.527042 14.4163434,13.5124984 14.4351163,13.4981982 C14.4581689,13.4808144 14.4814915,13.4636543 14.505108,13.446881 C14.5253009,13.432396 14.5458986,13.418223 14.5667281,13.4043359 C14.5950807,13.3855132 14.6237479,13.3671802 14.6527934,13.3494047 C14.6642899,13.3423787 14.6756059,13.3355893 14.6869834,13.3288821 C14.719814,13.3094368 14.7532977,13.2906375 14.7872319,13.2725728 C14.8049622,13.2633619 14.8229553,13.254083 14.8410847,13.2450047 C14.8695453,13.2304162 14.8979434,13.2167962 14.926623,13.2036854 C14.9477162,13.1945191 14.9693933,13.1850011 14.9912455,13.1757651 C15.0214511,13.1623953 15.0517795,13.1502039 15.082386,13.1385772 C15.0998713,13.1326563 15.1175825,13.1261725 15.1353979,13.1198713 C15.1733472,13.1056373 15.2116543,13.0930471 15.2503449,13.0813396 C15.2575152,13.0800431 15.2642965,13.0780258 15.2710916,13.0760346 L15.288258,13.0701855 C15.3618756,13.0491421 15.4368364,13.0312814 15.5129821,13.0167615 L71.5200204,0.477898951 C73.0813163,0.128370136 74.5668174,1.26474952 74.664116,2.83595364 Z M69.5,6.227 L39.3752978,12.9704078 L69.4992978,12.9704078 L69.5,6.227 Z M32.8431479,59.8831285 L32.9461532,60.0082791 L42.664,72.517 L42.6647683,61.5938796 C42.6647683,60.221383 43.7346033,59.0987597 45.0858486,59.0144344 L45.2492983,59.0093496 C46.621795,59.0093496 47.7444182,60.0791846 47.8287436,61.4304299 L47.8338283,61.5938796 L47.8338283,80.0577619 C47.8338283,82.4646649 44.8554096,83.5391343 43.3113072,81.7685131 L43.2083019,81.6433625 L33.489,69.132 L33.4896868,80.0577619 C33.4896868,81.4302586 32.4198518,82.5528819 31.0686066,82.6372072 L30.9051568,82.6422919 C29.5326602,82.6422919 28.4100369,81.572457 28.3257116,80.2212117 L28.3206268,80.0577619 L28.3206268,61.5938796 C28.3206268,59.1869767 31.2990455,58.1125073 32.8431479,59.8831285 Z M68.4540702,59.0096942 C69.8265668,59.0096942 70.9491901,60.0795292 71.0335154,61.4307745 L71.0386002,61.5942242 L71.0386002,72.5801998 C71.0386002,78.8763587 67.271653,82.6426366 61.7584144,82.6426366 C56.3368076,82.6426366 52.6085245,79.0065371 52.4815747,72.9036744 L52.4782287,72.5801998 L52.4782287,61.5942242 C52.4782287,60.1668277 53.6353622,59.0096942 55.0627587,59.0096942 C56.4352554,59.0096942 57.5578787,60.0795292 57.642204,61.4307745 L57.6472887,61.5942242 L57.6472887,72.5801998 C57.6472887,76.0234537 59.0968961,77.4735766 61.7584144,77.4735766 C64.3452102,77.4735766 65.790147,76.0987975 65.8663621,72.8548648 L65.8695402,72.5801998 L65.8695402,61.5942242 C65.8695402,60.1668277 67.0266737,59.0096942 68.4540702,59.0096942 Z M35.6894823,30.5111171 L35.7527346,30.6734514 L39.89,42.296 L44.0279166,30.6736531 C44.8969431,28.231994 48.3805086,28.464041 48.9712336,30.9146323 L49.0069629,31.0851506 L52.3099923,49.5490329 C52.5613508,50.9541235 51.6260663,52.2969409 50.2209756,52.5482995 C48.869927,52.7899905 47.5764534,51.9345631 47.2554971,50.619283 L47.221709,50.4592829 L45.632,41.579 L42.3261277,50.8707804 C41.5318243,53.1024938 38.4363018,53.1598445 37.5238117,51.042647 L37.4563901,50.870982 L34.148,41.579 L32.5607782,50.4590528 C32.3192094,51.8101234 31.0684863,52.7269231 29.7234935,52.5721036 L29.5617005,52.5483407 C28.2106299,52.3067719 27.2938302,51.0560488 27.4486497,49.711056 L27.4724126,49.549263 L30.773719,31.0853806 C31.2298776,28.5341302 34.7042616,28.190828 35.6894823,30.5111171 Z M69.3415978,28.9557456 C70.7689943,28.9557456 71.9261278,30.1128791 71.9261278,31.5402756 C71.9261278,32.9127722 70.8562928,34.0353955 69.5050475,34.1197208 L69.3415978,34.1248056 L61.953,34.124 L61.9522978,37.5874078 L67.0780256,37.5875589 C68.8346749,37.5875589 70.2587205,39.0116045 70.2587205,40.7682538 C70.2587205,42.464329 68.9311916,43.8503432 67.2585167,43.9439136 L67.0780256,43.9489487 L61.9522978,43.9484078 L61.953,47.419 L69.3415978,47.4196279 C70.7140944,47.4196279 71.8367177,48.4894629 71.921043,49.8407082 L71.9261278,50.0041579 C71.9261278,51.3766545 70.8562928,52.4992778 69.5050475,52.5836032 L69.3415978,52.5886879 L59.368758,52.5886879 C57.9962614,52.5886879 56.8736381,51.5188529 56.7893128,50.1676076 L56.784228,50.0041579 L56.784228,31.5402756 C56.784228,30.1677789 57.854063,29.0451556 59.2053083,28.9608303 L59.368758,28.9557456 L69.3415978,28.9557456 Z" fill="#00B077"></path>
    </g>
</svg>