<?xml version="1.0" encoding="UTF-8"?>
<svg width="100px" height="100px" viewBox="0 0 100 100" version="1.1" xmlns="http://www.w3.org/2000/svg" xmlns:xlink="http://www.w3.org/1999/xlink">
    <!-- Generator: Sketch 63.1 (92452) - https://sketch.com -->
    <title>Open24Hrs</title>
    <desc>Created with Sketch.</desc>
    <g id="Open24Hrs" stroke="none" stroke-width="1" fill="none" fill-rule="evenodd">
        <path d="M23.4061964,0.716457462 L23.5696968,0.71950631 L42.0163489,1.63787597 C44.1997583,1.74657737 45.2481885,4.33063623 43.8270912,5.92834102 L43.7158577,6.04626538 L30.6588121,19.110203 C29.6497567,20.119791 28.0133229,20.1202228 27.0037349,19.1111674 C26.038042,18.145984 25.9956603,16.6067908 26.8768794,15.5912274 L27.0027705,15.4560902 L32.9039324,9.55071629 C17.8489398,15.9495233 7.28268877,30.4681089 6.29718904,47.3311661 L11.8647303,47.3308924 C13.2921268,47.3308924 14.4492603,48.4880259 14.4492603,49.9154224 C14.4492603,51.287919 13.3794253,52.4105423 12.02818,52.4948676 L11.8647303,52.4999524 L6.29670035,52.5004161 C7.58401597,74.6616528 25.3189964,92.3970025 47.478613,93.6848151 L47.4795537,88.1178772 C47.4795537,86.6904807 48.6366871,85.5333472 50.0640837,85.5333472 C51.4365803,85.5333472 52.5592036,86.6031822 52.6435289,87.9544275 L52.6486137,88.1178772 L52.6485542,93.6848732 C74.8086373,92.3975362 92.544132,74.6619862 93.831467,52.5004161 L88.2674,52.4999524 C86.8400035,52.4999524 85.68287,51.3428189 85.68287,49.9154224 C85.68287,48.5429257 86.752705,47.4203024 88.1039503,47.3359771 L88.2674,47.3308924 L93.8314021,47.3304513 C92.5434763,25.1720153 74.8066593,7.43420097 52.6483714,6.14667312 L52.6486137,11.7119337 C52.6486137,13.1393302 51.4914802,14.2964637 50.0640837,14.2964637 C48.691587,14.2964637 47.5689637,13.2266288 47.4846384,11.8753835 L47.4795537,11.7119337 L47.4795537,3.48795926 C47.4795537,3.26145187 47.5086916,3.04175001 47.5634237,2.83239752 C47.8529889,1.72226646 48.862831,0.902740056 50.0640837,0.902740056 C77.1213429,0.902740056 99.0515801,22.8199831 99.0753682,49.8717086 C99.0757853,49.8864846 99.0759045,49.9009396 99.0759045,49.9154224 L99.0747798,49.9504575 L99.0688231,50.7264712 C98.6361216,77.4277363 76.8670345,98.9287939 50.0640837,98.9287939 C22.990396,98.9287939 1.05277975,76.9911777 1.05277975,49.915767 C1.05277975,30.9445694 11.901886,14.2371823 28.0289406,6.1160111 L23.3126726,5.88217227 C21.9418737,5.81392682 20.8738351,4.68959437 20.8568029,3.33582759 L20.8598517,3.1723272 C20.9280972,1.80152831 22.0524296,0.733489712 23.4061964,0.716457462 Z M79.2926445,30.3126695 L79.2768645,30.4721906 L74.7780593,65.8337301 C74.6048421,67.1952523 73.4018799,68.1738798 72.0507967,68.0869958 L71.8880122,68.0714115 C70.5264899,67.8981944 69.5478624,66.6952322 69.6347464,65.344149 L69.6503307,65.1813645 L70.652,57.309 L50.9728044,57.3094181 C48.6955873,57.3094181 47.555396,54.5964925 49.0748431,52.9699519 L49.1879188,52.8556693 L74.9281146,28.276789 C76.6492076,26.6333463 79.4558877,27.9944278 79.2926445,30.3126695 Z M37.0106564,27.5611332 C44.1746059,27.5611332 49.3344254,33.4755235 48.4186832,40.6125977 C47.5769026,47.2131479 43.5538146,51.841357 36.0234348,56.9512888 L35.5850962,57.2466444 C35.2517391,57.4697133 34.9155011,57.6919118 34.5511385,57.9300831 L31.2263923,60.0746345 C29.8485409,60.9681728 28.8603125,61.6413141 28.0340309,62.2628187 L27.5133897,62.6645076 L27.194,62.922 L42.6363167,62.9226727 C44.0088134,62.9226727 45.1314367,63.9925076 45.215762,65.3437529 L45.2208467,65.5072027 C45.2208467,66.8796993 44.1510118,68.0023226 42.7997665,68.0866479 L42.6363167,68.0917327 L22.3546483,68.0917327 C20.7974311,68.0917327 19.5938336,66.7248326 19.7908968,65.1801347 C20.1082576,62.6924734 21.6928869,60.6539135 24.4488212,58.4984311 L24.9104223,58.1441617 C25.7754508,57.4924456 26.7558261,56.8193074 28.0523108,55.9729384 L31.7181963,53.6064615 C32.069212,53.3770361 32.3920757,53.1636904 32.71041,52.9506742 C39.385143,48.4842181 42.6754865,44.7862236 43.2914034,39.9567172 C43.812149,35.8981483 41.0483684,32.7301932 37.0106564,32.7301932 C32.7975936,32.7301932 28.8471163,36.160068 28.1733346,40.3608291 L28.1368639,40.6137785 C27.9556357,42.0296235 26.6609521,43.0304783 25.2451071,42.8492501 C23.829262,42.6680219 22.8284073,41.3733383 23.0096355,39.9574933 C23.8911781,33.0704418 30.1040228,27.5611332 37.0106564,27.5611332 Z M73.23,37.045 L57.421,52.14 L71.309,52.14 L73.23,37.045 Z" fill="#00B077"></path>
    </g>
</svg>