<?xml version="1.0" encoding="UTF-8"?>
<svg width="100px" height="100px" viewBox="0 0 100 100" version="1.1" xmlns="http://www.w3.org/2000/svg" xmlns:xlink="http://www.w3.org/1999/xlink">
    <!-- Generator: Sketch 63.1 (92452) - https://sketch.com -->
    <title>PlaceSetting</title>
    <desc>Created with Sketch.</desc>
    <g id="PlaceSetting" stroke="none" stroke-width="1" fill="none" fill-rule="evenodd">
        <path d="M54.111113,20.8939935 C38.1000593,20.8939935 25.1230245,33.8727831 25.1230245,49.885528 C25.1230245,65.8954118 38.1006442,78.8736165 54.111113,78.8736165 C70.1218583,78.8736165 83.1009245,65.8951352 83.1009245,49.885528 C83.1009245,33.8730597 70.1224433,20.8939935 54.111113,20.8939935 Z M54.111113,26.0630535 C67.2675981,26.0630535 77.9318645,36.7278005 77.9318645,49.885528 C77.9318645,63.0402901 67.2671175,73.7045565 54.111113,73.7045565 C40.9554894,73.7045565 30.2920845,63.0406709 30.2920845,49.885528 C30.2920845,36.7274197 40.9550088,26.0630535 54.111113,26.0630535 Z M43.6042057,39.3760361 C49.4062149,33.5740269 58.8146863,33.5727371 64.6214991,39.3753798 C65.6311833,40.3843389 65.6317711,42.0207727 64.6228119,43.0304569 C63.6138528,44.0401412 61.977419,44.040729 60.9677348,43.0317698 C57.179708,39.2464633 51.0430919,39.2473047 47.2592831,43.0311135 C43.4753822,46.8150144 43.4753822,52.9518313 47.2614153,56.7324267 C48.2714621,57.7410228 48.2726381,59.3774563 47.264042,60.3875031 C46.2554459,61.39755 44.6190124,61.398726 43.6089656,60.3901299 C37.8012233,54.5907291 37.8012233,45.1790185 43.6042057,39.3760361 Z M96.6176718,20.0457507 C97.9901685,20.0457507 99.1127918,21.1155857 99.1971171,22.466831 L99.2022018,22.6302807 L99.2022018,77.1380184 C99.2022018,78.5654149 98.0450683,79.7225484 96.6176718,79.7225484 C95.2451752,79.7225484 94.1225519,78.6527135 94.0382266,77.3014682 L94.0331418,77.1380184 L94.033,51.593 L93.9477389,51.6962664 C93.5081369,52.1907683 92.8815827,52.5153733 92.1789352,52.5592224 L92.0154854,52.5643072 C90.6429888,52.5643072 89.5203655,51.4944722 89.4360402,50.1432269 L89.4309554,49.9797772 L89.4309554,29.7980439 C89.4309554,27.1302956 89.7103716,25.1936145 90.5331154,23.5688638 C91.6850773,21.2939747 93.7973215,20.0457507 96.6176718,20.0457507 Z M19.8828038,20.0457507 C21.2553005,20.0457507 22.3779238,21.1155857 22.4622491,22.466831 L22.4673338,22.6302807 L22.4673338,36.4747464 C22.4673338,40.9879178 20.8897308,43.8635316 16.6108037,43.9767509 L16.3454438,43.9802215 L14.3108895,43.9792338 L14.3114187,77.1375015 C14.3114187,78.564898 13.1542852,79.7220315 11.7268887,79.7220315 C10.354392,79.7220315 9.23176872,78.6521965 9.1474434,77.3009513 L9.14235865,77.1375015 L9.14188952,43.9792338 L7.11005656,43.9802215 C2.7215181,43.9802215 1.0567066,41.1946767 0.991869556,36.7489957 L0.989889524,36.4747464 L0.989889524,22.6302807 C0.989889524,21.2028842 2.14702302,20.0457507 3.57441952,20.0457507 C4.94691616,20.0457507 6.06953946,21.1155857 6.15386478,22.466831 L6.15894952,22.6302807 L6.16096272,36.9022286 C6.17794196,38.499473 6.31252248,38.7745049 6.94212465,38.8073664 L7.11005656,38.8111615 L9.14188952,38.8102338 L9.14235865,22.6297638 C9.14235865,21.2023673 10.2994921,20.0452338 11.7268887,20.0452338 C13.0993853,20.0452338 14.2220086,21.1150688 14.3063339,22.4663141 L14.3114187,22.6297638 L14.3108895,38.8102338 L16.3454438,38.8111615 C17.121378,38.8111615 17.2778644,38.6327297 17.2962607,36.9022614 L17.2982738,36.4747464 L17.2982738,22.6302807 C17.2982738,21.2028842 18.4554073,20.0457507 19.8828038,20.0457507 Z" id="Placesetting" fill="#00B077"></path>
    </g>
</svg>