<?xml version="1.0" encoding="UTF-8"?>
<svg width="100px" height="100px" viewBox="0 0 100 100" version="1.1" xmlns="http://www.w3.org/2000/svg" xmlns:xlink="http://www.w3.org/1999/xlink">
    <!-- Generator: Sketch 63.1 (92452) - https://sketch.com -->
    <title>Restaurant03</title>
    <desc>Created with Sketch.</desc>
    <g id="Restaurant03" stroke="none" stroke-width="1" fill="none" fill-rule="evenodd">
        <path d="M10.5915757,98.6291607 C9.21907906,98.6291607 8.09645577,97.5593258 8.01213045,96.2080805 L8.0070457,96.0446307 L8.0070457,59.971484 C8.0070457,58.5440875 9.1641792,57.386954 10.5915757,57.386954 C11.9640723,57.386954 13.0866956,58.456789 13.171021,59.8080343 L13.1761057,59.971484 L13.176,93.46 L54.2580424,93.45947 L54.2585885,69.877126 C54.2585885,62.9732127 59.8163226,57.9969031 66.8986632,57.9969031 C73.8748458,57.9969031 79.3700066,62.8231147 79.5349251,69.5646298 L79.5387379,69.877126 L79.538,93.46 L86.599,93.46 L86.5996739,59.971484 C86.5996739,58.5989874 87.6695088,57.4763641 89.0207541,57.3920387 L89.1842039,57.386954 C90.5567005,57.386954 91.6793238,58.456789 91.7636491,59.8080343 L91.7687339,59.971484 L91.7687339,96.0446307 C91.7687339,97.4171274 90.6988989,98.5397507 89.3476536,98.624076 L89.1842039,98.6291607 L76.9542079,98.6291607 C75.5817113,98.6291607 74.459088,97.5593258 74.3747627,96.2080805 L74.3696779,96.0446307 L74.3696779,69.877126 C74.3696779,65.9625104 71.2467559,63.1659631 66.8986632,63.1659631 C62.6403352,63.1659631 59.5556669,65.8501145 59.4315357,69.6389027 L59.4276485,69.877126 L59.4270424,93.45947 L68.168012,93.4601007 C69.5405087,93.4601007 70.663132,94.5299357 70.7474573,95.881181 L70.752542,96.0446307 C70.752542,97.4171274 69.6827071,98.5397507 68.3314618,98.624076 L68.168012,98.6291607 L10.5915757,98.6291607 Z M45.7792624,59.9978462 C47.206659,59.9978462 48.3637924,61.1549797 48.3637924,62.5823762 L48.3637924,62.5823762 L48.3637924,82.8002929 C48.3637924,84.2276894 47.206659,85.3848229 45.7792624,85.3848229 L45.7792624,85.3848229 L21.6569824,85.3848229 C20.2295859,85.3848229 19.0724524,84.2276894 19.0724524,82.8002929 L19.0724524,82.8002929 L19.0724524,62.5823762 C19.0724524,61.1549797 20.2295859,59.9978462 21.6569824,59.9978462 L21.6569824,59.9978462 Z M43.194,65.166 L24.241,65.166 L24.241,80.215 L43.194,80.215 L43.194,65.166 Z M49.8193997,0.41547 C62.5871143,0.41547 73.0961405,10.0065947 74.5048424,22.3813565 L74.531,22.635 L89.1783456,22.6355359 C90.5508422,22.6355359 91.6734655,23.7053709 91.7577909,25.0566162 L91.7628756,25.2200659 C91.7628756,26.5925626 90.6930406,27.7151859 89.3417953,27.7995112 L89.1783456,27.8045959 L72.0808181,27.8045959 C70.6534216,27.8045959 69.4962881,26.6474624 69.4962881,25.2200659 C69.4962881,14.3624658 60.6962393,5.58453 49.8193997,5.58453 C38.9410723,5.58453 30.1407883,14.3622311 30.1407883,25.2200659 C30.1407883,26.5925626 29.0709534,27.7151859 27.7197081,27.7995112 L27.5562583,27.8045959 L12.4320424,27.80447 L7.74506676,45.1551178 C7.13199254,47.4236889 8.2991727,49.0353194 10.584976,49.1255607 L10.7895507,49.129553 L88.8458027,49.129553 C91.1960758,49.129553 92.4464877,47.5838719 91.9365902,45.355824 L91.8870142,45.1574826 L88.6959811,33.3616877 C88.3232361,31.9838191 89.1380497,30.5646663 90.5159183,30.1919213 C91.8386722,29.834086 93.1994735,30.5707049 93.6360022,31.8492569 L93.6856848,32.0118585 L96.8765452,43.8070158 C98.3750397,49.3406561 94.7826952,54.1485436 89.1130761,54.2951689 L88.8458027,54.298613 L10.7895507,54.298613 C5.05600197,54.298613 1.35117468,49.5765282 2.68857482,44.0656288 L2.75496998,43.8067427 L7.95849038,24.5468251 C8.20717466,23.6263639 8.9228364,22.9569796 9.78135767,22.7249066 C9.7920631,22.722772 9.80246998,22.720017 9.81290237,22.7173256 C9.86178374,22.7040353 9.91134887,22.692845 9.9613051,22.6831164 C9.96348262,22.6832705 9.96548692,22.6828809 9.96749204,22.6824937 C10.1190116,22.6527866 10.2742761,22.6370936 10.4314443,22.6358349 L10.4604539,22.6355359 L25.105,22.635 L25.1322387,22.3813026 C26.5258352,10.1394021 36.825403,0.622047124 49.4082875,0.418788235 L49.8193997,0.41547 Z M45.1691411,14.1532808 C49.364948,14.1532808 52.5837447,14.5390673 55.0059986,15.4986426 C58.4065361,16.8457647 60.2697303,19.4479926 59.8125377,22.9972843 C59.2811096,27.118183 56.0514814,29.2161036 50.2563391,29.9999137 L49.803,30.057 L50.3440159,30.5123724 C52.0223698,31.8949377 53.6451791,32.998679 55.1248374,33.721727 L55.4637161,33.88178 C56.1207085,34.1811123 56.7318973,34.3938276 57.2869746,34.5169824 C58.6804846,34.8261599 59.5595097,36.2064608 59.2503322,37.5999708 C58.9411548,38.9934808 57.5608538,39.8725059 56.1673439,39.5633284 C55.2377023,39.3570693 54.2893846,39.0270211 53.3205946,38.5856307 C51.2820707,37.6568588 49.1844367,36.2541996 47.0574524,34.5020693 C46.7647207,34.2609278 46.4752471,34.0162888 46.1894153,33.7689231 L45.7200231,37.4448989 C45.4966798,39.1872923 43.9031354,40.4187256 42.160742,40.1953822 C40.4784312,39.9797404 39.2724494,38.4867648 39.392305,36.8157677 L39.4102587,36.6361011 L41.1194946,23.3016493 C41.3428379,21.559256 42.9363824,20.3278227 44.6787757,20.551166 C46.3610865,20.7668079 47.5670683,22.2597835 47.4472127,23.9307806 L47.429259,24.1104472 L47.3039549,25.0991526 C52.2465666,24.7808692 54.5030991,23.7539091 54.6858831,22.3365313 C54.921811,20.5049692 52.3271765,19.4058082 45.9248274,19.3269013 L45.1691411,19.3223408 L40.9649723,19.3223408 C39.5375758,19.3223408 38.3804423,18.1652073 38.3804423,16.7378108 C38.3804423,15.3653141 39.4502772,14.2426908 40.8015225,14.1583655 L40.9649723,14.1532808 L45.1691411,14.1532808 Z" fill="#00B077"></path>
    </g>
</svg>