<?xml version="1.0" encoding="UTF-8"?>
<svg width="100px" height="100px" viewBox="0 0 100 100" version="1.1" xmlns="http://www.w3.org/2000/svg" xmlns:xlink="http://www.w3.org/1999/xlink">
    <!-- Generator: Sketch 63.1 (92452) - https://sketch.com -->
    <title>TakeoutBag</title>
    <desc>Created with Sketch.</desc>
    <g id="TakeoutBag" stroke="none" stroke-width="1" fill="none" fill-rule="evenodd">
        <path d="M86.174959,28.7295016 C87.40366,28.7295016 88.4539926,29.5930141 88.7038473,30.7806852 L88.7328983,30.9446013 L96.5891191,85.2891591 C97.6980975,92.6213363 92.5105707,98.7638272 85.1523265,98.9242023 L84.8568487,98.9274155 L14.5920931,98.9274155 C7.17477716,98.9274155 1.87715448,92.8830497 2.81721037,85.5815519 L2.85814913,85.2888329 L11.0872926,30.9275519 C11.3009362,29.5162343 12.6182274,28.5453277 14.0295449,28.7589712 C15.386581,28.9643976 16.3364325,30.1902084 16.2175622,31.5388538 L16.1981256,31.7012234 L7.96914233,86.0614444 C7.33142604,90.2860047 10.1312394,93.6323894 14.3516957,93.7548809 L14.5920931,93.7583555 L84.8568487,93.7583555 C89.1281981,93.7583555 92.0202664,90.4890618 91.50834,86.284436 L91.475714,86.0454551 L84.545,38.101 L79.9732592,70.2976023 L78.6720755,79.1857983 C78.1385696,82.6481916 79.0333546,84.2446133 80.9430334,85.0557252 C81.8149696,85.4260691 82.7684599,85.5716683 83.5150278,85.5781791 L83.756,85.575 L83.9183992,85.5704758 C85.2181178,85.5695321 86.3192972,86.5399237 86.4818238,87.8294409 L86.4971973,87.9922455 C86.5836771,89.3620149 85.5867034,90.5498168 84.2434564,90.7191154 L83.9886399,90.7391096 L83.9288168,90.7414798 C83.4254754,90.7583346 82.7982243,90.736158 82.0847762,90.6467482 C81.0119924,90.5123062 79.9449278,90.2477848 78.9222626,89.8134207 C74.9247587,88.1155316 72.7582826,84.3611371 73.5122583,78.7523069 L74.2870814,73.505068 L76.8966664,55.2664577 L80.3315325,30.9544979 C80.5031319,29.7341713 81.5093377,28.8129839 82.7240121,28.7351875 L82.8908829,28.7295016 L86.174959,28.7295016 Z M36.1432827,29.3081032 C38.046478,29.3081032 39.5893227,30.8509478 39.5893227,32.7541432 C39.5893227,34.6573385 38.046478,36.2001832 36.1432827,36.2001832 L36.1432827,36.2001832 L35.1432827,36.2001832 C33.2400874,36.2001832 31.6972427,34.6573385 31.6972427,32.7541432 C31.6972427,30.8509478 33.2400874,29.3081032 35.1432827,29.3081032 L35.1432827,29.3081032 Z M48.0820883,29.3081032 C49.9852836,29.3081032 51.5281283,30.8509478 51.5281283,32.7541432 C51.5281283,34.6573385 49.9852836,36.2001832 48.0820883,36.2001832 L48.0820883,36.2001832 L47.0820883,36.2001832 C45.1788929,36.2001832 43.6360483,34.6573385 43.6360483,32.7541432 C43.6360483,30.8509478 45.1788929,29.3081032 47.0820883,29.3081032 L47.0820883,29.3081032 Z M60.0208939,29.3081032 C61.9240892,29.3081032 63.4669339,30.8509478 63.4669339,32.7541432 C63.4669339,34.6573385 61.9240892,36.2001832 60.0208939,36.2001832 L60.0208939,36.2001832 L59.0208939,36.2001832 C57.1176985,36.2001832 55.5748539,34.6573385 55.5748539,32.7541432 C55.5748539,30.8509478 57.1176985,29.3081032 59.0208939,29.3081032 L59.0208939,29.3081032 Z M85.676834,0.716653896 C87.0493306,0.716653896 88.1719539,1.78648886 88.2562792,3.13773415 L88.261364,3.3011839 L88.261364,23.0469931 C88.261364,24.4743896 87.1042305,25.6315231 85.676834,25.6315231 C84.3043373,25.6315231 83.181714,24.5616881 83.0973887,23.2104428 L83.092304,23.0469931 L83.092,5.885 L17.505,5.885 L9.045,20.462 L70.819,20.462 L76.4496141,10.7336954 C77.1348027,9.54975025 78.6154499,9.11294386 79.8249861,9.70787791 L79.9811266,9.79135247 C81.1650718,10.4765411 81.6018782,11.9571883 81.0069441,13.1667245 L80.9234695,13.3228649 L74.5465725,24.3415778 C74.1153435,25.0867034 73.3439812,25.5646136 72.4930989,25.6250232 L72.3096448,25.6315231 L4.55705237,25.6315231 C2.62022229,25.6315231 1.39137178,23.5909576 2.24353775,21.8942124 L2.32170894,21.7496747 L13.781515,2.00386547 C14.2131259,1.26017863 14.9837602,0.783402921 15.8336262,0.7231381 L16.0168584,0.716653896 L85.676834,0.716653896 Z" id="Takeout-Bag" fill="#00B077"></path>
    </g>
</svg>