<?xml version="1.0" encoding="UTF-8"?>
<svg width="100px" height="100px" viewBox="0 0 100 100" version="1.1" xmlns="http://www.w3.org/2000/svg" xmlns:xlink="http://www.w3.org/1999/xlink">
    <!-- Generator: Sketch 63.1 (92452) - https://sketch.com -->
    <title>Firework02</title>
    <desc>Created with Sketch.</desc>
    <g id="Firework02" stroke="none" stroke-width="1" fill="none" fill-rule="evenodd">
        <path d="M83.9702758,17.0374323 C84.98482,16.0251567 86.6278821,16.0269956 87.6401577,17.0415398 C88.6084214,18.0119734 88.6488372,19.5574592 87.7626388,20.575912 L87.6360502,20.7114217 L70.6145802,37.6948317 C69.600036,38.7071073 67.9569739,38.7052684 66.9446983,37.6907242 C65.9764346,36.7202906 65.9360188,35.1748048 66.8222172,34.156352 L66.9488058,34.0208423 L83.9702758,17.0374323 Z M47.694,42.559 L40.2175587,43.7727024 L40.0487418,43.805483 C38.057835,44.2570618 37.3321748,46.7751416 38.8443457,48.2140898 L44.203,53.314 L42.93225,60.8494576 L42.9105084,61.0047251 C42.6817992,63.0616737 44.8771681,64.5707996 46.7323688,63.5602464 L53.345,59.957 L59.9639514,63.5605907 L60.1036845,63.6316396 C61.9741287,64.5168038 64.1150246,62.9322436 63.763438,60.8494576 L62.491,53.314 L67.8513423,48.2140898 L67.9722012,48.0917426 C69.3608422,46.5952177 68.5385102,44.1069059 66.4779699,43.7726765 L58.997,42.559 L55.6633008,35.9347143 C54.7047354,34.029824 51.9852196,34.0300645 51.026991,35.9351242 L47.694,42.559 Z M71.2031062,71.4190466 L71.3114133,71.5600144 L82.3764933,87.0123744 C83.2108932,88.177612 82.9426962,89.7986384 81.7774586,90.6330383 C80.6607726,91.4326715 79.1254888,91.2196767 78.2651018,90.1749714 L78.1567947,90.0340036 L67.0917147,74.5816436 C66.2573148,73.416406 66.5255118,71.7953796 67.6907494,70.9609797 C68.8074354,70.1613465 70.3427192,70.3743413 71.2031062,71.4190466 Z M58.3492547,70.662873 L58.3641721,70.8263852 L59.0509821,82.2824452 C59.1367495,83.7130555 58.046539,84.9423226 56.6159288,85.0280901 C55.240342,85.1105588 54.0509083,84.1057698 53.8852013,82.756549 L53.8702839,82.5930368 L53.1834739,71.1369768 C53.0977065,69.7063665 54.187917,68.4770994 55.6185272,68.3913319 C56.994114,68.3088632 58.1835477,69.3136522 58.3492547,70.662873 Z M46.2029994,68.0415899 C47.5036147,68.4903304 48.218597,69.8696878 47.8601553,71.1779654 L47.8097241,71.3410574 L44.0988741,82.0964674 C43.6314361,83.451275 42.1542141,84.1706301 40.7994066,83.7031921 C39.4987913,83.2544516 38.783809,81.8750942 39.1422507,80.5668166 L39.1926819,80.4037246 L42.9035319,69.6483146 C43.3709699,68.293507 44.8481919,67.5741519 46.2029994,68.0415899 Z M90.739545,55.279855 C92.1176017,55.279855 93.2447727,56.3540239 93.3294397,57.7107431 L93.334545,57.874855 L93.334,60.963 L96.419481,60.963078 C97.8526599,60.963078 99.014481,62.1248991 99.014481,63.558078 C99.014481,64.9361347 97.9403121,66.0633057 96.5835929,66.1479727 L96.419481,66.153078 L93.334,66.153 L93.334545,69.239225 C93.334545,70.6724039 92.1727239,71.834225 90.739545,71.834225 C89.3614883,71.834225 88.2343173,70.7600561 88.1496503,69.4033369 L88.144545,69.239225 L88.144,66.153 L85.053381,66.153078 C83.6202021,66.153078 82.458381,64.9912569 82.458381,63.558078 C82.458381,62.1800213 83.5325499,61.0528503 84.8892691,60.9681833 L85.053381,60.963078 L88.144,60.963 L88.144545,57.874855 C88.144545,56.4416761 89.3063661,55.279855 90.739545,55.279855 Z M8.691354,54.271265 C10.0694107,54.271265 11.1965817,55.3454339 11.2812487,56.7021531 L11.286354,56.866265 L11.286,59.952 L14.36783,59.952758 C15.8010089,59.952758 16.96283,61.1145791 16.96283,62.547758 C16.96283,63.9258147 15.8886611,65.0529857 14.5319419,65.1376527 L14.36783,65.142758 L11.286,65.142 L11.286354,68.228905 C11.286354,69.6620839 10.1245329,70.823905 8.691354,70.823905 C7.31329734,70.823905 6.18612627,69.7497361 6.10145935,68.3930169 L6.096354,68.228905 L6.096,65.142 L3,65.142758 C1.56682107,65.142758 0.405,63.9809369 0.405,62.547758 C0.405,61.1697013 1.47916889,60.0425303 2.83588812,59.9578633 L3,59.952758 L6.096,59.952 L6.096354,56.866265 C6.096354,55.4330861 7.25817507,54.271265 8.691354,54.271265 Z M71.3163613,59.4905902 L71.4611532,59.5937292 L78.0835932,64.6557092 C79.2222358,65.5260509 79.4397366,67.1546546 78.5693948,68.2932972 C77.7353173,69.3844964 76.20485,69.6297164 75.0765987,68.8822378 L74.9318068,68.7790988 L68.3093668,63.7171188 C67.1707242,62.8467771 66.9532234,61.2181734 67.8235652,60.0795308 C68.6576427,58.9883316 70.18811,58.7431116 71.3163613,59.4905902 Z M37.3779282,54.6408198 C37.8085556,55.947544 37.1439726,57.3518786 35.8858399,57.8590009 L35.7255182,57.9176462 L24.9112882,61.4814462 C23.5501172,61.9300164 22.083032,61.1902072 21.6344618,59.8290362 C21.2038344,58.522312 21.8684174,57.1179774 23.1265501,56.6108551 L23.2868718,56.5522098 L34.1011018,52.9884098 C35.4622728,52.5398396 36.929358,53.2796488 37.3779282,54.6408198 Z M72.3216031,50.3764611 L72.4851619,50.3908591 L81.9413419,51.5205491 C83.3644017,51.6905561 84.3802018,52.981992 84.2101949,54.4050519 C84.0467266,55.7733787 82.8464343,56.7651709 81.4892509,56.6883029 L81.3256921,56.6739049 L71.8695121,55.5442149 C70.4464523,55.3742079 69.4306522,54.082772 69.6006591,52.6597121 C69.7641274,51.2913853 70.9644197,50.2995931 72.3216031,50.3764611 Z M53.345,42.874 L54.9560272,46.0751517 L55.0481397,46.242577 C55.4394747,46.8957638 56.1006223,47.3472539 56.8585881,47.4701995 L60.485,48.058 L57.9141357,50.5058462 L57.7853958,50.6373396 C57.2501387,51.2242582 57.0108564,52.0277561 57.1442,52.8176784 L57.757,56.45 L54.5859366,54.7239153 L54.4046681,54.6341948 C53.6693447,54.3052295 52.81806,54.3352628 52.1039292,54.7242596 L48.938,56.448 L49.551488,52.8176784 L49.5756798,52.6352524 C49.6521499,51.8446034 49.3618903,51.058083 48.7815523,50.5058462 L46.209,48.058 L49.8337993,47.4701736 C50.6550241,47.3369146 51.3625627,46.8179837 51.736407,46.0747418 L53.345,42.874 Z M8.56913485,39.7929841 L8.73139865,39.8180687 L27.4223186,43.3057487 C28.8311801,43.5686388 29.7601734,44.9238612 29.4972833,46.3327226 C29.2445044,47.6873971 27.9818028,48.5984066 26.6325732,48.4327719 L26.4703094,48.4076873 L7.77938935,44.9200073 C6.37052789,44.6571172 5.44153455,43.3018948 5.70442466,41.8930334 C5.95720361,40.5383589 7.21990518,39.6273494 8.56913485,39.7929841 Z M98.6825639,35.2218172 C99.0887534,36.5363431 98.398103,37.9280429 97.130734,38.4116199 L96.9693468,38.4672659 L76.7300768,44.7212159 C75.360779,45.14433 73.9077422,44.3772965 73.4846281,43.0079988 C73.0784386,41.6934729 73.769089,40.3017731 75.036458,39.8181961 L75.1978452,39.7625501 L95.4371152,33.5086001 C96.806413,33.085486 98.2594498,33.8525195 98.6825639,35.2218172 Z M28.7925665,29.9116065 L28.9377547,30.0141867 L37.7123147,36.6677667 C38.8543028,37.5337143 39.0780778,39.1614677 38.2121303,40.3034557 C37.3822638,41.3978609 35.8527528,41.6489768 34.7216295,40.9058515 L34.5764413,40.8032713 L25.8018813,34.1496913 C24.6598932,33.2837437 24.4361182,31.6559903 25.3020657,30.5140023 C26.1319322,29.4195971 27.6614432,29.1684812 28.7925665,29.9116065 Z M66.62651,18.98047 C67.8875272,19.530746 68.4910907,20.9623666 68.0302237,22.2381693 L67.967042,22.396758 L63.019242,33.735178 C62.4460378,35.0487376 60.9165135,35.6489142 59.602954,35.07571 C58.3419368,34.525434 57.7383733,33.0938134 58.1992403,31.8180107 L58.262422,31.659422 L63.210222,20.321002 C63.7834262,19.0074424 65.3129505,18.4072658 66.62651,18.98047 Z M41.6775615,19.9887362 L41.7541887,20.1412833 L46.3992387,30.1856633 C47.0008042,31.4864787 46.4339501,33.0286632 45.1331347,33.6302287 C43.8843519,34.2077316 42.4131234,33.708419 41.7651965,32.5166718 L41.6885693,32.3641247 L37.0435193,22.3197447 C36.4419538,21.0189293 37.0088079,19.4767448 38.3096233,18.8751793 C39.5584061,18.2976764 41.0296346,18.796989 41.6775615,19.9887362 Z M53.345249,2.405 C54.7233057,2.405 55.8504767,3.47916889 55.9351437,4.83588812 L55.940249,5 L55.940249,24.00751 C55.940249,25.4406889 54.7784279,26.60251 53.345249,26.60251 C51.9671923,26.60251 50.8400213,25.5283411 50.7553543,24.1716219 L50.750249,24.00751 L50.750249,5 C50.750249,3.56682107 51.9120701,2.405 53.345249,2.405 Z M40.5856329,62.9842007 C41.5550377,63.9534943 41.5972719,65.4989315 40.7122724,66.5184263 L40.5858433,66.6540849 L10.4232933,96.8200949 C9.40994092,97.8335635 7.7668778,97.8336577 6.75340914,96.8203053 C5.78400434,95.8510117 5.74177009,94.3055745 6.62676959,93.2860797 L6.75319867,93.1504211 L36.9157487,62.9844111 C37.9291011,61.9709425 39.5721642,61.9708483 40.5856329,62.9842007 Z M24.861145,6.172421 C26.2392017,6.172421 27.3663727,7.24658989 27.4510397,8.60330912 L27.456145,8.767421 L27.456,11.852 L30.541081,11.852357 C31.9742599,11.852357 33.136081,13.0141781 33.136081,14.447357 C33.136081,15.8254137 32.0619121,16.9525847 30.7051929,17.0372517 L30.541081,17.042357 L27.456,17.042 L27.456145,20.130061 C27.456145,21.5632399 26.2943239,22.725061 24.861145,22.725061 C23.4830883,22.725061 22.3559173,21.6508921 22.2712503,20.2941729 L22.266145,20.130061 L22.266,17.042 L19.174981,17.042357 C17.7418021,17.042357 16.579981,15.8805359 16.579981,14.447357 C16.579981,13.0693003 17.6541499,11.9421293 19.0108691,11.8574623 L19.174981,11.852357 L22.266,11.852 L22.266145,8.767421 C22.266145,7.33424207 23.4279661,6.172421 24.861145,6.172421 Z" id="Firework-02" fill="#00B077"></path>
    </g>
</svg>