<?xml version="1.0" encoding="UTF-8"?>
<svg width="100px" height="100px" viewBox="0 0 100 100" version="1.1" xmlns="http://www.w3.org/2000/svg" xmlns:xlink="http://www.w3.org/1999/xlink">
    <!-- Generator: Sketch 63.1 (92452) - https://sketch.com -->
    <title>Firework01</title>
    <desc>Created with Sketch.</desc>
    <g id="Firework01" stroke="none" stroke-width="1" fill="none" fill-rule="evenodd">
        <path d="M58.1785412,52.0425408 C66.6290905,49.3658636 75.8145587,49.7863681 84.4390001,55.4663733 C86.0714504,56.5414952 87.6524337,57.794624 89.1768439,59.2315308 C90.2197443,60.2145672 90.2682736,61.8569134 89.2852372,62.8998139 C88.3022008,63.9427143 86.6598546,63.9912436 85.6169541,63.0082072 C84.3096787,61.7759714 82.9644253,60.7096883 81.5843755,59.8007958 C74.4372048,55.0937122 66.8324721,54.7455727 59.7457156,56.990274 C58.8556365,57.272203 58.0621692,57.5726077 57.3790971,57.869922 L56.8958393,58.0882303 C56.7699563,58.1476642 56.6798409,58.1928484 56.6271865,58.2210411 C55.363718,58.8975388 53.7910646,58.421705 53.1145669,57.1582365 C52.4380692,55.894768 52.913903,54.3221146 54.1773715,53.6456169 C54.9725217,53.2198704 56.3380601,52.6255057 58.1785412,52.0425408 Z M67.1830417,12.9250269 C67.4073726,11.5095138 68.7367289,10.5438698 70.1522421,10.7682007 C71.5677552,10.9925316 72.5333992,12.3218879 72.3090683,13.7374011 C70.8228144,23.1155636 67.1004411,31.7039381 61.8343684,39.4018524 C59.4012225,42.9586109 56.7946545,46.0921022 54.1833569,48.7792776 L53.6392635,49.3330175 C52.3151141,50.6654247 51.2666981,51.607503 50.6088323,52.1421434 C49.496625,53.0460222 47.8622643,52.8771385 46.9583856,51.7649313 C46.0545068,50.652724 46.2233905,49.0183633 47.3355977,48.1144846 L47.6415887,47.8550802 C47.7784943,47.7361086 47.9494335,47.5847874 48.1517817,47.4015776 C48.8445316,46.774349 49.6213583,46.0266669 50.4612991,45.1623195 C52.875171,42.6783066 55.2937725,39.7707796 57.5507848,36.4714921 C62.4082541,29.3708718 65.8266311,21.483887 67.1830417,12.9250269 Z M28.643109,18.8487999 C29.3523835,17.6034359 30.9369311,17.1688495 32.1822951,17.878124 C36.5318318,20.3553238 39.8497835,23.2640532 42.213872,26.5271828 C46.4335653,32.3515866 47.2655499,38.5394097 46.1514314,44.0500446 L46.0423533,44.5560567 C45.9149684,45.1105637 45.7892641,45.5383003 45.6875559,45.8253168 C45.2088565,47.1761865 43.7256978,47.8832202 42.3748282,47.4045209 C41.0779933,46.9449695 40.3745176,45.5597084 40.7438371,44.2544598 L40.8377529,43.9609758 C40.8947446,43.7711502 40.9772035,43.4526404 41.0643576,43.02156 C41.9142396,38.8178876 41.2772868,34.0805988 38.0109655,29.5721256 C36.0929865,26.9247569 33.3363274,24.5080926 29.6137849,22.387986 C28.3684209,21.6787115 27.9338345,20.0941639 28.643109,18.8487999 Z M51.3495355,20.7113225 C52.6895017,20.2029011 54.187916,20.8770013 54.6963375,22.2169675 C55.4066712,24.089082 55.5590294,26.0966349 55.3390557,28.5051524 L55.2960934,28.9412757 C55.2501452,29.375023 55.1941621,29.8110489 55.1184529,30.3340091 L54.7189607,32.9389779 C54.7057427,33.0309312 54.6931858,33.1211099 54.6782497,33.2296085 C54.4828003,34.6493977 53.1733907,35.6419212 51.7536015,35.4464717 C50.3338123,35.2510223 49.3412888,33.9416127 49.5367383,32.5218235 L49.9762093,29.6296596 C50.0677889,28.999437 50.1255062,28.5264849 50.1705673,28.0331061 C50.3140908,26.4616513 50.2413721,25.256144 49.9219873,24.2795029 L49.8438905,24.0581245 C49.3354691,22.7181583 50.0095693,21.219744 51.3495355,20.7113225 Z M61.0739887,61.2424346 C65.809411,61.6794531 71.9646408,64.0619671 74.6215225,66.8068118 C75.6182983,67.8365884 75.5915458,69.4794337 74.5617692,70.4762095 C73.5767655,71.4296472 72.0308444,71.4466243 71.0259461,70.545085 L70.8923715,70.4164562 C69.2151929,68.6837503 64.2015864,66.7431261 60.5970453,66.4104734 C59.1699308,66.2787691 58.1197933,65.0150968 58.2514976,63.5879823 C58.3781363,62.2157568 59.5513431,61.1920678 60.9101021,61.232437 L61.0739887,61.2424346 Z M28.2389255,34.1953611 C28.9359276,32.9430872 30.516128,32.4929504 31.7684019,33.1899525 C33.2974179,34.0409862 34.5547415,35.2892164 35.4312388,36.8201336 C36.143328,38.0638903 35.7123262,39.6494167 34.4685694,40.3615058 C33.2766359,41.0439246 31.7708201,40.6765255 31.0206695,39.550049 L30.9271972,39.3988364 C30.56359,38.763749 30.0693448,38.2426217 29.4727848,37.8612503 L29.2443341,37.7248375 C27.9920602,37.0278354 27.5419234,35.447635 28.2389255,34.1953611 Z M18.176831,34.029453 C19.5548877,34.029453 20.6820587,35.1036219 20.7667257,36.4603411 L20.771831,36.624453 L20.7714601,39.926758 L24.073017,39.927369 C25.5061959,39.927369 26.668017,41.0891901 26.668017,42.522369 C26.668017,43.9004257 25.5938481,45.0275967 24.2371289,45.1122637 L24.073017,45.117369 L20.7714601,45.116758 L20.771831,48.421323 C20.771831,49.8545019 19.6100099,51.016323 18.176831,51.016323 C16.7987743,51.016323 15.6716033,49.9421541 15.5869363,48.5854349 L15.581831,48.421323 L15.5814601,45.116758 L12.270957,45.117369 C10.8377781,45.117369 9.675957,43.9555479 9.675957,42.522369 C9.675957,41.1443123 10.7501259,40.0171413 12.1068451,39.9324743 L12.270957,39.927369 L15.5814601,39.926758 L15.581831,36.624453 C15.581831,35.1912741 16.7436521,34.029453 18.176831,34.029453 Z M42.935899,1.554758 C44.3139557,1.554758 45.4411267,2.62892689 45.5257937,3.98564612 L45.530899,4.149758 L45.5304601,7.451758 L48.832085,7.452674 C50.2652639,7.452674 51.427085,8.61449507 51.427085,10.047674 C51.427085,11.4257307 50.3529161,12.5529017 48.9961969,12.6375687 L48.832085,12.642674 L45.5304601,12.641758 L45.530899,15.946628 C45.530899,17.3798069 44.3690779,18.541628 42.935899,18.541628 C41.5578423,18.541628 40.4306713,17.4674591 40.3460043,16.1107399 L40.340899,15.946628 L40.3404601,12.641758 L37.030025,12.642674 C35.5968461,12.642674 34.435025,11.4808529 34.435025,10.047674 C34.435025,8.66961734 35.5091939,7.54244627 36.8659131,7.45777935 L37.030025,7.452674 L40.3404601,7.451758 L40.340899,4.149758 C40.340899,2.71657907 41.5027201,1.554758 42.935899,1.554758 Z M61.168369,73.46809 C62.5464257,73.46809 63.6735967,74.5422589 63.7582637,75.8989781 L63.763369,76.06309 L63.7624601,79.365758 L67.064555,79.366006 C68.4977339,79.366006 69.659555,80.5278271 69.659555,81.961006 C69.659555,83.3390627 68.5853861,84.4662337 67.2286669,84.5509007 L67.064555,84.556006 L63.7624601,84.555758 L63.763369,87.85996 C63.763369,89.2931389 62.6015479,90.45496 61.168369,90.45496 C59.7903123,90.45496 58.6631413,89.3807911 58.5784743,88.0240719 L58.573369,87.85996 L58.5724601,84.555758 L55.262495,84.556006 C53.8293161,84.556006 52.667495,83.3941849 52.667495,81.961006 C52.667495,80.5829493 53.7416639,79.4557783 55.0983831,79.3711113 L55.262495,79.366006 L58.5724601,79.365758 L58.573369,76.06309 C58.573369,74.6299111 59.7351901,73.46809 61.168369,73.46809 Z M90.53287,35.91152 C91.9109267,35.91152 93.0380977,36.9856889 93.1227647,38.3424081 L93.12787,38.50652 L93.1274601,41.808758 L96.429056,41.809436 C97.8622349,41.809436 99.024056,42.9712571 99.024056,44.404436 C99.024056,45.7824927 97.9498871,46.9096637 96.5931679,46.9943307 L96.429056,46.999436 L93.1274601,46.998758 L93.12787,50.30339 C93.12787,51.7365689 91.9660489,52.89839 90.53287,52.89839 C89.1548133,52.89839 88.0276423,51.8242211 87.9429753,50.4675019 L87.93787,50.30339 L87.9374601,46.998758 L84.626996,46.999436 C83.1938171,46.999436 82.031996,45.8376149 82.031996,44.404436 C82.031996,43.0263793 83.1061649,41.8992083 84.4628841,41.8145413 L84.626996,41.809436 L87.9374601,41.808758 L87.93787,38.50652 C87.93787,37.0733411 89.0996911,35.91152 90.53287,35.91152 Z M81.2005791,37.2202751 C81.5091847,38.6198338 80.6247925,40.0045745 79.2252339,40.3131801 C75.4106076,41.1543132 71.1883322,43.0801515 68.9376764,44.9930615 C67.8456457,45.921216 66.2079621,45.7883681 65.2798075,44.6963374 C64.351653,43.6043067 64.4845009,41.9666231 65.5765316,41.0384685 C68.522683,38.5344328 73.5139122,36.257864 78.1076741,35.2449299 C79.5072328,34.9363243 80.8919735,35.8207165 81.2005791,37.2202751 Z M31.4456717,45.8666497 L2.16715166,94.8239197 C0.77484298,97.1520303 3.43760123,99.7859031 5.75038771,98.368285 L54.2509377,68.639965 C55.6815005,67.7631043 55.9163399,65.7795749 54.7300893,64.5928972 L35.5080593,45.3639472 C34.3132865,44.1687442 32.3130644,44.4162629 31.4456717,45.8666497 Z M23.8834601,68.619758 L31.6624601,76.396758 L12.04,88.425 L23.8834601,68.619758 Z M29.0834601,59.924758 L40.2764601,71.116758 L36.2124601,73.607758 L26.6294601,64.027758 L29.0834601,59.924758 Z M34.19,51.387 L48.732,65.935 L44.8274601,68.327758 L31.8304601,55.331758 L34.19,51.387 Z" id="Firework-01" fill="#00B077"></path>
    </g>
</svg>