<?xml version="1.0" encoding="UTF-8"?>
<svg width="100px" height="100px" viewBox="0 0 100 100" version="1.1" xmlns="http://www.w3.org/2000/svg" xmlns:xlink="http://www.w3.org/1999/xlink">
    <!-- Generator: Sketch 63.1 (92452) - https://sketch.com -->
    <title>Flag</title>
    <desc>Created with Sketch.</desc>
    <g id="Flag" stroke="none" stroke-width="1" fill="none" fill-rule="evenodd">
        <path d="M42.9455028,5.3839608 L44.627757,5.95093752 C45.7788917,6.34660688 46.8534294,6.73391466 48.468209,7.33598083 L49.7253698,7.80820174 C49.8124252,7.83590764 49.8974877,7.86808261 49.9802875,7.90445705 L54.4956335,9.60572297 C63.016445,12.7894295 67.7121796,14.1914636 73.3133125,14.9735175 C81.0345971,16.0515959 88.3455317,15.2444476 95.9891444,12.1162284 C97.3155405,11.5733885 98.8308557,12.2085863 99.3736956,13.5349824 C99.9165355,14.8613785 99.2813377,16.3766937 97.9549416,16.9195336 C89.4363128,20.4058613 81.2005547,21.3151127 72.5956247,20.113656 C66.258898,19.2288954 61.1282457,17.6544323 51.5329216,14.0372206 L51.532043,19.5069533 L52.7451784,19.9651345 C69.2039597,26.1942577 77.4740503,27.8774566 88.4250927,25.5031378 C89.8257295,25.1994628 91.2073471,26.088726 91.5110222,27.4893627 C91.8146972,28.8899995 90.925434,30.2716171 89.5247973,30.5752922 C82.715765,32.0515729 76.0440311,31.9475036 68.9714174,30.5080253 L68.2160628,30.3504901 C63.5908501,29.362037 59.5123404,28.0427241 52.6373326,25.4701075 L51.532043,25.0529533 L51.532043,30.5259533 L52.7391335,30.9826359 C69.2007923,37.2148746 77.472059,38.8990264 88.4250927,36.5242758 C89.8257295,36.2206008 91.2073471,37.109864 91.5110222,38.5105007 C91.8146972,39.9111375 90.925434,41.2927551 89.5247973,41.5964302 C82.7145052,43.0729841 76.0416172,42.9685918 68.9678276,41.528264 L68.2123514,41.3706375 C63.3454514,40.3301039 59.083881,38.9232629 51.5333701,36.0752087 L51.5316435,41.5448153 C51.540444,41.5481419 51.5492566,41.5514731 51.5580814,41.554809 L52.7400509,42.0019661 C69.1991574,48.2325526 77.4729101,49.9167441 88.4261309,47.5419538 C89.8267677,47.2382788 91.2083853,48.1275421 91.5120602,49.5281789 C91.8157352,50.9288157 90.9264719,52.3104333 89.5258351,52.6141082 C82.7156194,54.0906451 76.0425402,53.9864394 68.9686413,52.5464882 L68.2131086,52.3888917 C63.4617244,51.3733135 59.2863133,50.0083421 52.0681483,47.2955145 L46.4480093,45.1785596 C44.5120119,44.4582789 43.3841868,44.060575 41.8473254,43.5447377 L40.7895842,43.1965628 C27.0683003,38.7709164 17.2442311,39.2258634 6.14651996,46.5934556 L6.14661815,51.5058811 C17.7792388,44.795081 28.715892,44.7743584 42.9522746,49.4614068 L44.4515238,49.9657456 C46.0390528,50.5089809 47.4224845,51.0145355 50.1814242,52.0538492 L52.739737,53.0205155 C69.1985565,59.2511262 77.471804,60.9352774 88.4243731,58.5605028 C89.8250066,58.2568125 91.2066339,59.1460607 91.5103242,60.5466941 C91.8140145,61.9473276 90.9247663,63.3289549 89.5241329,63.6326452 C82.7142405,65.10919 76.041438,65.004984 68.9677758,63.5650275 L68.2122731,63.4074315 C63.4610802,62.3918582 59.2858916,61.0269202 52.0677912,58.3140572 L46.4492597,56.1976565 C44.5139421,55.4776052 43.3864874,55.0800033 41.8501557,54.5642881 C27.5699147,49.7707031 17.5282629,50.0559327 6.14679911,57.6118126 L6.14635385,62.525622 C17.7782547,55.8151786 28.7144776,55.7939423 42.949343,60.4799663 L44.6312942,61.0469091 L45.379514,61.3067913 C46.8796791,61.8334165 48.4789118,62.4289574 51.5580814,63.592933 L52.7400509,64.0400901 C69.1991574,70.2706766 77.4729101,71.9548681 88.4261309,69.5800778 C89.8267677,69.2764028 91.2083853,70.1656661 91.5120602,71.5663029 C91.8157352,72.9669397 90.9264719,74.3485573 89.5258351,74.6522322 C82.7156194,76.1287691 76.0425402,76.0245634 68.9686413,74.5846122 L68.2131086,74.4270157 C63.5867609,73.4381632 59.5064706,72.1180647 52.6317478,69.5450271 L46.4480093,67.2166836 C44.5120119,66.4964029 43.3841868,66.098699 41.8473254,65.5828617 L40.7895842,65.2346868 C27.0683003,60.8090404 17.2442311,61.2639874 6.14651996,68.6315796 L6.14687727,73.5438363 C17.7772934,66.8344431 28.7126228,66.8129865 42.9455388,71.4980144 L44.6277049,72.0649916 C45.8393267,72.4814728 46.9660846,72.8886864 48.7273661,73.5468567 L54.4949445,75.7196817 C63.0159154,78.9035583 67.7116867,80.3056389 73.3128908,81.087677 C80.3908261,82.0758958 87.1239527,81.4798627 94.0846153,78.9638228 L94.377,78.855 L94.377043,23.155598 C94.377043,21.7775413 95.4512119,20.6503703 96.8079311,20.5657033 L96.972043,20.560598 C98.3500997,20.560598 99.4772707,21.6347669 99.5619377,22.9914861 L99.567043,23.155598 L99.567043,80.631388 C99.567043,81.6849328 98.9300686,82.6339157 97.9550368,83.0330017 C89.4362392,86.5197929 81.2003196,87.4292588 72.595226,86.2278188 C66.6603697,85.3991963 61.783476,83.9655361 53.3058007,80.8152387 L46.6916998,78.3268222 C44.6022034,77.5475656 43.4448308,77.1383263 41.8435687,76.6009125 L40.7859549,76.2528059 C27.0665291,71.8281067 17.2432075,72.2832371 6.1469487,79.6498239 L6.147043,90.411251 C6.147043,91.7893077 5.07287411,92.9164787 3.71615488,93.0011457 L3.552043,93.006251 C2.17398634,93.006251 1.04681527,91.9320821 0.962148347,90.5753629 L0.957043,90.411251 L0.957043,12.165081 C0.957043,11.3180973 1.37038896,10.5244128 2.06437073,10.0388505 C15.2841932,0.789259197 27.0613677,0.155696387 42.9455028,5.3839608 Z M6.75773948,13.1369846 L6.147,13.536 L6.14635385,40.487498 C17.7782547,33.7770546 28.7144776,33.7558183 42.949343,38.4418423 L44.6312942,39.0087851 L45.379514,39.2686673 C45.6920484,39.3783809 46.0088826,39.4910856 46.3425028,39.6112982 L46.3416088,32.9119637 C46.2429613,32.5132806 46.2379155,32.0878791 46.341707,31.6693408 L46.341685,21.8928649 C46.2429886,21.4941938 46.2378906,21.068793 46.3416307,20.6502419 L46.342043,12.0819533 L46.2862186,12.0617738 C44.4461618,11.3784179 43.3382408,10.9884736 41.8436094,10.4868745 C27.822994,5.78154856 17.8877224,5.97313304 6.75773948,13.1369846 Z" fill="#00B077"></path>
    </g>
</svg>