<?xml version="1.0" encoding="UTF-8"?>
<svg width="100px" height="100px" viewBox="0 0 100 100" version="1.1" xmlns="http://www.w3.org/2000/svg" xmlns:xlink="http://www.w3.org/1999/xlink">
    <!-- Generator: Sketch 63.1 (92452) - https://sketch.com -->
    <title>Acorn</title>
    <desc>Created with Sketch.</desc>
    <g id="Acorn" stroke="none" stroke-width="1" fill="none" fill-rule="evenodd">
        <path d="M30.7879992,20.5670276 C32.0510586,19.8897664 33.6239992,20.3646497 34.3012604,21.6277092 C34.9785216,22.8907686 34.5036383,24.4637092 33.2405788,25.1409704 C24.8928686,29.6170702 19.3248632,36.6177619 18.0633791,45.4380589 C17.8604698,46.8568012 16.5458614,47.8424285 15.1271191,47.6395191 C13.7083768,47.4366098 12.7227495,46.1220014 12.9256589,44.7032591 C14.4394836,34.1185965 21.0757087,25.7748247 30.7879992,20.5670276 Z M80.0052827,11.2782752 L80.1841187,11.1608552 C83.4044717,9.08521718 87.0589623,7.6077728 90.3924762,6.9774697 C91.610121,6.74723657 92.8117559,7.40976817 93.2755123,8.54242206 L93.3341104,8.69974915 L96.2457004,17.3532091 C96.722864,18.7713746 95.9050274,20.2981594 94.4600721,20.6867239 C93.11389,21.0487271 91.8580444,21.5071077 90.6898775,22.0476403 C98.0319832,32.2728169 100.928486,46.0756478 98.7079335,58.6487034 C98.5273786,59.6710286 97.7549016,60.4873637 96.7440938,60.7240419 C83.0161336,63.9384105 66.6970801,57.3928056 54.5758295,45.2735417 C44.8086658,35.5047771 38.662477,23.0162349 38.3261772,11.3525731 C30.5240045,13.2623529 23.4257063,17.2722033 17.5523593,23.1498588 C4.7759476,35.9200789 2.57759741,54.7393679 11.0579859,71.4394618 L11.3182362,71.9448682 C13.9448813,76.9790311 15.3255856,80.764756 15.5120065,84.1093183 L15.521,84.326 L15.7369959,84.336115 C18.864538,84.510242 22.3786107,85.7300605 26.9399324,88.0368332 L27.9010587,88.5307908 C44.7279888,97.3174854 63.7928828,95.2064574 76.7044099,82.3027499 C80.9320571,78.0751027 84.2245043,73.0198226 86.459754,67.5167445 C86.9990918,66.1889205 88.5127255,65.5497262 89.8405495,66.089064 C91.1683735,66.6284018 91.8075678,68.1420355 91.26823,69.4698595 C88.7772686,75.6024878 85.103177,81.2437512 80.3737382,85.9731898 C65.9385612,100.399625 44.6923478,102.880467 26.063163,93.421978 L25.499453,93.1317026 C19.7154252,90.1136606 16.2043955,89.1128037 13.4533831,89.6507026 L13.2581544,89.6917345 C11.3998766,90.1097608 9.73944254,88.4500596 10.1566483,86.5915975 C10.7671029,83.8722998 9.85157821,80.4325019 6.92936241,74.7555809 L6.71721348,74.3462615 C-3.07783991,55.5849522 -0.69198496,34.0473715 13.8822471,19.4802029 C20.8015814,12.5557921 29.2830666,7.9393922 38.6014516,5.9666865 C38.731776,5.00219378 38.9066939,4.04820524 39.1275732,3.10639884 C39.3645442,2.09597901 40.1807511,1.32392496 41.2027756,1.14345493 C54.6240791,-1.2264912 68.8179724,2.39936159 80.0052827,11.2782752 Z M44.3227076,5.9249873 L43.846,5.985 C43.7240088,6.73858056 43.6352812,7.50216256 43.5789508,8.27414396 C43.5787526,8.31582534 43.5758675,8.35689813 43.5720175,8.39775491 C42.8332835,19.1651927 48.3763075,31.5472953 57.8563204,41.2104886 L58.2457137,41.6036575 C68.548649,51.9049041 82.0680645,57.6986194 93.4111535,56.0744687 L93.866,56.004 L93.9325473,55.4877389 C95.2310693,44.7590071 92.4820952,33.2705508 86.2662689,24.7878276 C85.7186005,25.2300323 85.2277329,25.6784929 84.7908041,26.1243329 L84.5250024,26.4018181 C84.2412098,26.7053523 84.04933,26.9360612 83.9475692,27.071575 L83.9094696,27.1237589 C83.0836057,28.2950618 81.4645821,28.5750955 80.2932791,27.7492316 C79.1219762,26.9233677 78.8419425,25.3043441 79.6678064,24.1330411 L79.8507193,23.885693 C80.127598,23.5260698 80.5369073,23.0499945 81.0840629,22.4916797 C82.1815551,21.3718041 83.5136378,20.2616959 85.0904632,19.2310069 C86.6436347,18.2157793 88.3487583,17.3346317 90.2078762,16.6193429 L90.487,16.514 L89.179,12.626 L88.8483936,12.7316281 C84.5793773,14.1326811 80.0368972,17.0180405 77.7544579,20.3880542 L77.5644141,20.6780761 C76.7976241,21.8888754 75.1944712,22.2488161 73.9836719,21.4820261 C72.7728726,20.7152361 72.4129319,19.1120832 73.1797219,17.9012839 C73.8956268,16.7708347 74.7745677,15.6962984 75.7735818,14.6918389 L75.8448557,14.6216409 C66.5985093,7.66334905 55.2437947,4.60552436 44.3227076,5.9249873 Z" fill="#00B077"></path>
    </g>
</svg>