<?xml version="1.0" encoding="UTF-8"?>
<svg width="100px" height="100px" viewBox="0 0 100 100" version="1.1" xmlns="http://www.w3.org/2000/svg" xmlns:xlink="http://www.w3.org/1999/xlink">
    <!-- Generator: Sketch 63.1 (92452) - https://sketch.com -->
    <title>Cornucopia</title>
    <desc>Created with Sketch.</desc>
    <g id="Cornucopia" stroke="none" stroke-width="1" fill="none" fill-rule="evenodd">
        <path d="M60.9602263,39.4359807 C71.0555765,46.0791698 73.6364983,62.571764 69.1392307,78.5548735 C64.5189618,94.9751252 54.0390932,104.457569 42.9764034,97.8319471 C41.746875,97.0955629 41.3471027,95.5018758 42.0834869,94.2723474 C42.8198711,93.042819 44.4135582,92.6430467 45.6430866,93.3794309 C52.7390074,97.6292913 60.3075161,90.7811177 64.1432368,77.1491195 C68.0983748,63.0927166 65.8746678,48.8827944 58.1072637,43.7714973 C56.9100438,42.9836734 56.5781628,41.3744775 57.3659867,40.1772577 C58.1538106,38.9800378 59.7630065,38.6481568 60.9602263,39.4359807 Z M51.1711515,57.2221464 C51.1711515,57.4798674 51.1321791,57.7361103 51.0563994,57.9824385 C46.6303633,72.3696402 36.7911896,83.6191213 22.1172649,84.9340347 C20.6898056,85.0619477 19.4289272,84.0084572 19.3010143,82.5809979 C19.1731013,81.1535386 20.2265918,79.8926602 21.6540511,79.7647473 C33.5184314,78.7015939 41.8285047,69.4911281 45.8182083,57.3299846 L45.979,56.828 L45.9725483,56.4729265 C45.7461555,47.1040764 41.0647769,39.7560947 34.6778664,39.6662866 L34.4248719,39.6665233 C31.2988554,39.7146707 28.5587329,41.2895638 26.1959323,43.9834777 C25.3163945,44.9862704 24.5577006,46.0705018 23.9280631,47.1532296 C23.7639543,47.435432 23.6184365,47.7009065 23.4916927,47.9452433 L23.2309928,48.4739336 L23.2162435,48.5069457 C22.8411568,49.3717006 22.029407,49.9603688 21.1013294,50.0557025 L20.6369219,50.085347 C20.5686916,50.0906689 20.489851,50.097363 20.4009901,50.1056491 C19.9322384,50.1493591 19.4037821,50.2190925 18.8317954,50.3204014 C17.2005041,50.6093317 15.5734121,51.0885677 14.0803818,51.7912804 C11.463211,53.0230834 9.56009851,54.7941052 8.55032284,57.2136793 C7.08033014,60.7433576 8.20512164,64.685415 11.2089898,68.123204 L11.2613685,68.1821775 C11.4805563,68.3539315 11.6704486,68.559669 11.8239499,68.7904421 C13.6197446,70.6556194 15.9788419,72.3473 18.7781127,73.7104743 C20.0666298,74.3379497 20.6025101,75.8911685 19.9750347,77.1796857 C19.3475593,78.4682028 17.7943405,79.0040831 16.5058233,78.3766077 C14.9502389,77.6190773 13.4915861,76.765132 12.148292,75.830979 C12.6781624,81.4757435 15.370385,85.7819744 20.2452262,88.3045592 C39.8375674,98.4392584 62.5767758,67.4375233 51.162809,46.11906 C50.486337,44.8555777 50.9622028,43.2829341 52.225685,42.606462 C53.4891673,41.92999 55.0618109,42.4058558 55.738283,43.669338 C69.3354237,69.0654295 42.4957744,105.657543 17.8603376,92.9141586 C9.79937365,88.7428504 6.19618129,80.859001 6.96418086,71.1647755 C2.97764833,66.4295036 1.46638175,60.7237839 3.75995269,55.2165688 C5.31313119,51.4949171 8.16865868,48.8375853 11.8702114,47.0954049 C13.8160411,46.1795767 15.873442,45.5735995 17.9266435,45.2099415 C18.2362132,45.1551113 18.5297937,45.1082629 18.8055545,45.0685434 L19.171,45.019 L19.4415312,44.5441817 C20.2299071,43.1884864 21.1775063,41.8342949 22.2941002,40.561226 C25.5412943,36.8589834 29.5571104,34.5508818 34.343715,34.477158 C44.6005044,34.3143214 51.1841558,44.8488691 51.1711515,57.2221464 Z M65.3359525,35.0216118 C77.2672672,38.9404837 85.8670278,53.2336241 87.4258657,68.4479545 C89.0558658,84.356831 82.0498484,95.2577484 68.7592498,91.3999581 C67.3828805,91.0004469 66.5909806,89.5608112 66.9904919,88.1844418 C67.3900031,86.8080725 68.8296388,86.0161726 70.2060082,86.4156839 C74.8211561,87.7552979 77.9480547,86.6677986 79.9822717,83.5026864 C82.0479115,80.2886822 82.8830505,75.0296934 82.2628948,68.976945 C80.8922253,55.5991479 73.3897103,43.1296728 63.7164055,39.9524502 C62.3547921,39.5052247 61.6135342,38.038871 62.0607598,36.6772575 C62.5079853,35.3156441 63.974339,34.5743862 65.3359525,35.0216118 Z M95.0156694,46.0283494 C101.600107,56.5630195 101.222662,67.0973013 91.8517164,70.6642411 C90.5122883,71.1740786 89.0131624,70.5015625 88.5033249,69.1621344 C87.9934874,67.8227063 88.6660035,66.3235804 90.0054316,65.8137429 C95.472537,63.7327539 95.7158918,56.9408449 90.6146086,48.7791246 C85.1913228,40.1022211 75.9959512,33.8887041 67.7802079,34.0828775 C66.3474291,34.1167403 65.1584812,32.9826948 65.1246185,31.5499159 C65.0907557,30.1171371 66.2248012,28.9281892 67.6575801,28.8943265 C77.9337591,28.651456 88.7029797,35.9284578 95.0156694,46.0283494 Z M41.7016445,51.2894839 C41.9531229,52.700427 41.0131912,54.048086 39.6022481,54.2995645 C38.245572,54.5413707 36.9474057,53.6816512 36.6259902,52.3608379 L36.5921675,52.2001681 C35.9780166,48.7544181 33.1165377,48.3625232 31.2762748,51.1045484 C30.4776145,52.2945667 28.865472,52.611825 27.6754536,51.8131648 C26.4854353,51.0145045 26.168177,49.402362 26.9668372,48.2123436 C31.2844093,41.7790829 40.2248009,43.0035174 41.7016445,51.2894839 Z M74.264495,7.97109064 C87.5353002,12.7454498 94.6308721,19.8262647 97.5346824,31.372579 L97.612,31.687 L97.7046589,31.9261718 C98.7423887,34.7115926 98.4932189,37.6678151 96.6082921,40.4338255 L96.4377211,40.6773825 C95.6008079,41.8408162 93.9792063,42.1055134 92.8157725,41.2686001 C91.7008152,40.4665583 91.41126,38.9438564 92.1256636,37.7943771 L92.2245549,37.6466515 C92.8549371,36.7703265 93.1202799,35.8153301 93.0349418,34.8287727 L93.024,34.736 L93.0077066,34.6984558 C92.9672728,34.6000831 92.9325289,34.4982757 92.9039536,34.3933484 L92.8657772,34.233657 L92.7736608,33.7994765 L92.696,33.456 L92.6457189,33.3311545 C91.9430214,31.6958505 90.3332653,30.0394059 87.8780642,28.5639719 L87.5910233,28.3945444 C82.1442667,25.2364469 75.0490058,24.4901185 69.8286436,26.8907891 C67.9878276,27.737319 65.9303303,26.2419492 66.1672381,24.2297139 C66.4481451,21.84376 66.271708,19.9184205 65.4259545,18.0012527 L65.2697128,17.6629217 C62.3301437,11.5813338 67.7223232,5.62079221 74.264495,7.97109064 Z M59.5281269,32.6157188 C60.242774,33.7886129 59.9165468,35.3038815 58.8109314,36.0844515 L58.6623222,36.1820099 L56.0586722,37.7684199 C54.8347827,38.5141386 53.2380998,38.1265046 52.4923811,36.9026152 C51.777734,35.7297211 52.1039612,34.2144525 53.2095766,33.4338825 L53.3581858,33.3363241 L55.9618358,31.7499141 C57.1857253,31.0041954 58.7824082,31.3918294 59.5281269,32.6157188 Z M53.7902591,11.8776818 C59.9086216,15.5154848 63.1601545,20.7104295 61.4744281,27.0870822 C61.2045667,28.107896 60.3458835,28.857101 59.3113099,28.9957672 L58.7490885,29.0488482 C58.5842745,29.0673545 58.3832733,29.0931192 58.1540579,29.1274162 C57.3886318,29.2419453 56.6269827,29.4091132 55.9402376,29.6317987 C55.3287203,29.8300907 54.8206993,30.0596584 54.4518992,30.3013362 L54.3024699,30.4055979 C53.1534558,31.2622009 51.527582,31.0251549 50.6709791,29.8761409 C49.8143761,28.7271268 50.0514221,27.101253 51.2004361,26.2446501 C52.0863548,25.5841877 53.1431187,25.0827632 54.3393757,24.6948623 C55.1157675,24.4431078 55.8805554,24.2556671 56.5926168,24.1197263 L56.702,24.099 L56.7044641,24.0327758 C56.7542116,21.1466515 54.8958121,18.6492742 51.430356,16.5156769 L51.1378544,16.3387187 C49.3940985,15.3019314 47.392233,14.455768 45.5232552,13.9061443 C45.2395129,13.8227021 44.9665275,13.7486362 44.7097168,13.6847552 L44.336,13.596 L44.2903452,13.7333536 C44.2109043,13.9755751 44.1310203,14.2387364 44.0528163,14.5177475 L43.9752509,14.8018533 C43.4695982,16.7035223 43.1467505,18.8744144 43.120107,20.9216238 C43.0538156,26.0152677 44.6867979,29.3249193 48.3208524,30.3984524 C49.6953133,30.8044807 50.480383,32.2478525 50.0743546,33.6223134 C49.6683263,34.9967743 48.2249545,35.781844 46.8504936,35.3758156 C40.5514539,33.5150215 37.8373606,28.0142249 37.9305465,20.8540842 C37.9976616,15.69715 39.586761,9.7208329 41.5228221,8.6258095 C43.4721633,7.51719299 49.3769538,9.25365705 53.7902591,11.8776818 Z M69.8773739,15.2615217 L69.943311,15.4060264 C70.7706892,17.1209744 71.2320206,18.8150908 71.403909,20.582947 L71.429,20.887 L71.652495,20.8354552 C76.7650864,19.6847502 82.4600727,20.3606401 87.4479871,22.5212585 L87.778,22.667 L87.7311172,22.6075414 C84.4765732,18.5464593 79.7329035,15.5176473 73.004534,13.0356975 L72.5086651,12.8550603 C70.3896431,12.0937942 69.0970114,13.4430951 69.8773739,15.2615217 Z M24.3123104,1.5394507 C26.0805075,1.23098579 27.9428858,1.18855739 29.7644315,1.60057839 C34.2015776,2.60423006 37.0334638,6.05752949 37.1243931,11.8845808 C37.1467547,13.3175852 36.0032027,14.4973925 34.5701982,14.5197541 C33.1371938,14.5421157 31.9573865,13.3985637 31.9350249,11.9655592 C31.8816273,8.54366601 30.7307691,7.1402699 28.6194155,6.66269637 C28.0334306,6.53015064 27.3992615,6.47975571 26.7542021,6.49552717 L26.403,6.51 L26.4332207,6.70140549 C26.6402995,7.87703324 27.2437555,8.64938998 28.1874428,9.17593908 L28.3478647,9.26144827 C29.6249855,9.91180536 30.1330778,11.4743349 29.4827207,12.7514557 C28.8323636,14.0285765 27.2698341,14.5366688 25.9927133,13.8863117 C22.5110466,12.1133184 20.689152,8.6503906 21.2773944,3.96879231 C21.4069268,2.93789306 22.1388749,2.08363423 23.1377294,1.79758964 C23.3932895,1.72440424 23.7939617,1.62987749 24.3123104,1.5394507 Z M32.7013408,16.6603351 C34.1050464,16.949493 35.0085658,18.3218301 34.7194079,19.7255358 C34.4413714,21.0752527 33.1618749,21.9625194 31.8159742,21.7717137 L31.6542072,21.7436029 C30.1971435,21.4434534 28.685877,21.4637342 27.1980744,21.8180375 C21.5968574,23.1521884 18.1167842,28.8294793 19.4408989,34.492404 C19.5621732,35.0046099 19.7123265,35.4904204 19.890098,35.9457889 C20.4112891,37.2808401 19.7515252,38.7856218 18.4164741,39.306813 C17.0814229,39.8280041 15.5766412,39.1682402 15.05545,37.8331891 C14.7880652,37.1482725 14.5665218,36.4314841 14.3888704,35.6811245 C14.169636,34.7435179 14.0387418,33.80561 13.9907578,32.8762911 C11.7471175,31.7248218 8.92028593,32.2803933 7.2621304,34.3520615 C5.4079707,36.6671811 5.70791362,40.0426397 7.89399909,41.9914317 L8.08053321,42.1504752 C9.19131136,43.0561097 9.35761319,44.6907351 8.45197876,45.8015132 C7.54634432,46.9122914 5.91171894,47.0785932 4.80094079,46.1729588 C0.237928557,42.452665 -0.474560294,35.7097438 3.21069409,31.1083039 C6.02347354,27.5940702 10.5910535,26.3216154 14.631378,27.5545239 C16.1849096,22.3558371 20.3716391,18.1088281 25.9956349,16.7692516 C28.2251339,16.2383216 30.5042211,16.2077369 32.7013408,16.6603351 Z" fill="#00B077"></path>
    </g>
</svg>