<?xml version="1.0" encoding="UTF-8"?>
<svg width="100px" height="100px" viewBox="0 0 100 100" version="1.1" xmlns="http://www.w3.org/2000/svg" xmlns:xlink="http://www.w3.org/1999/xlink">
    <!-- Generator: Sketch 63.1 (92452) - https://sketch.com -->
    <title>NativeAmerican</title>
    <desc>Created with Sketch.</desc>
    <g id="NativeAmerican" stroke="none" stroke-width="1" fill="none" fill-rule="evenodd">
        <path d="M52.5906976,61.3316279 C52.7855193,59.9674121 54.0082524,59.0034219 55.3633148,59.1114105 L55.5265001,59.1295576 L60.6144301,59.8561576 C62.0332145,60.0587722 63.019115,61.3731757 62.8165004,62.7919601 C62.6216787,64.1561759 61.3989456,65.1201661 60.0438832,65.0121775 L59.8806979,64.9940304 L54.7927679,64.2674304 C53.3739835,64.0648158 52.388083,62.7504123 52.5906976,61.3316279 Z M38.5707309,59.1295576 C39.9895153,58.926943 41.3039188,59.9128435 41.5065334,61.3316279 C41.7013551,62.6958436 40.7973279,63.9635535 39.4662049,64.2391751 L39.3044631,64.2674304 L34.2165331,64.9940304 C32.7977487,65.196645 31.4833452,64.2107445 31.2807306,62.7919601 C31.0859089,61.4277444 31.9899361,60.1600345 33.3210591,59.8844129 L33.4828009,59.8561576 L38.5707309,59.1295576 Z M72.7170424,1.46059251 C73.7460492,-0.0620468353 75.9881548,-0.0620468353 77.0171616,1.46059251 C78.8842705,4.22338589 80.3537933,6.74098709 81.40869,9.1319158 C83.4446678,7.71900796 85.9361291,6.40023523 89.2273847,4.90259797 C90.8999282,4.14153176 92.8118648,5.31211828 92.8945345,7.14781687 C93.5157168,20.9413004 90.5201269,27.5885852 78.4817678,33.6366487 C79.1513783,36.4563131 79.5457493,39.4726782 79.6766593,42.7082361 C79.7479625,44.4705598 78.3771195,45.9570081 76.6147959,46.0283113 C75.8748344,46.0582499 75.1835092,45.8339414 74.625153,45.4331598 L65.3268285,45.431785 C65.7691201,49.8578331 67.3113203,54.2971808 69.6399783,58.5734399 C70.2386094,59.6727432 70.8634532,60.7121591 71.497883,61.6833669 C72.3317464,59.2491711 72.9518083,56.5927195 73.3386388,53.7091535 C73.463574,52.7805808 73.5682402,51.8736132 73.6523295,50.9882025 C73.7878317,49.5614436 75.0542946,48.5146732 76.4810535,48.6501755 C77.9078124,48.7856777 78.9545828,50.0521406 78.8190805,51.4788995 C78.7284883,52.4327822 78.6160849,53.4067955 78.4824254,54.4002095 C77.5135452,61.6225739 75.1959832,67.6936626 71.7745413,72.5861462 L71.4062241,72.3507522 C73.2034298,73.4656559 74.9942206,74.8732648 76.6667376,76.6035422 C79.4744987,79.5082694 81.6609101,83.0276633 82.9741512,87.1985437 C83.4045701,88.5655628 82.6453055,90.0226743 81.2782863,90.4530932 C79.9112672,90.8835121 78.4541557,90.1242475 78.0237368,88.7572283 C76.9633378,85.3893793 75.2047664,82.5586654 72.9350968,80.2106127 C71.5768268,78.8054347 70.1203458,77.6606022 68.6702797,76.761048 L68.4476394,76.6251918 C67.4379168,77.6690573 66.3642261,78.639317 65.2303488,79.5355486 C59.6389485,83.9550657 52.8216651,86.274701 47.048875,86.274701 C41.2735495,86.274701 34.455163,83.9552788 28.8629721,79.5356372 C27.7297379,78.6400153 26.6566218,77.6704545 25.6473969,76.6273734 L25.4275753,76.7612887 L25.4275753,76.7612887 C23.977435,77.6609044 22.520881,78.8057969 21.1625445,80.2110282 C17.8647512,83.6226734 15.6947213,87.9492185 15.1179126,93.3644227 L15.081,93.738 L81.728109,93.738959 C83.1061657,93.738959 84.2333367,94.8131279 84.3180037,96.1698471 L84.323109,96.333959 C84.323109,97.7120157 83.2489401,98.8391867 81.8922209,98.9238537 L81.728109,98.928959 L12.368949,98.928959 C10.9357701,98.928959 9.773949,97.7671379 9.773949,96.333959 C9.773949,88.0998656 12.650949,81.548934 17.4309235,76.6039373 C18.9880577,74.9930451 20.6477051,73.6618101 22.3196029,72.5860582 C18.8969937,67.6946584 16.5790745,61.6230184 15.6100502,54.39958 C12.0402203,27.7393362 23.2789515,10.675431 47.048875,10.675431 C54.8024282,10.675431 61.319088,12.4936309 66.4245032,16.0086972 C66.8494193,11.5081764 68.9921261,6.97241568 72.7170424,1.46059251 Z M60.114342,45.4322102 L33.982889,45.4322102 C33.8763807,46.7131304 33.6927157,47.9883715 33.4376081,49.2558667 L37.09359,49.255642 C38.5267689,49.255642 39.68859,50.4174631 39.68859,51.850642 C39.68859,53.2286987 38.6144211,54.3558697 37.2577019,54.4405367 L37.09359,54.445642 L31.9908794,54.4463896 C31.1948042,56.6879794 30.191737,58.8950717 29.0152533,61.0555216 C27.9172087,63.0719291 26.7413072,64.9057841 25.5623458,66.5268292 L25.2165259,66.9964 L25.0568828,67.2074864 C25.9493958,68.7883399 26.956888,70.2414737 28.0706223,71.5687612 C28.1573296,71.6554663 28.2377355,71.7492222 28.3116079,71.8492941 C29.4608387,73.1850556 30.72074,74.3886881 32.0810579,75.4637798 C36.7474056,79.1517054 42.4298171,81.084701 47.048875,81.084701 C51.6652121,81.084701 57.3464442,79.1516163 62.0120387,75.4638684 C63.3845187,74.3790419 64.6547794,73.1633577 65.8133249,71.8147685 C65.8650385,71.7456177 65.9200238,71.6807671 65.9777744,71.6190495 C67.1102743,70.2784828 68.1329794,68.8070016 69.0375401,67.204262 C68.8799384,66.9966985 68.7119315,66.7702639 68.5348852,66.5268292 C67.3559238,64.9057841 66.1800223,63.0719291 65.0819777,61.0555216 C63.905494,58.8950717 62.9024268,56.6879794 62.1063516,54.4463896 L57.003814,54.445642 C55.5706351,54.445642 54.408814,53.2838209 54.408814,51.850642 C54.408814,50.4725853 55.4829829,49.3454143 56.8397021,49.2607473 L57.003814,49.255642 L60.6596229,49.2558667 C60.4045153,47.9883715 60.2208503,46.7131304 60.114342,45.4322102 Z M28.7704025,45.431785 L20.1384182,45.4316451 C20.1602813,48.0399013 20.3646449,50.8019526 20.7540554,53.7101525 C21.141065,56.5950542 21.7615799,59.2526582 22.5958988,61.6871888 C23.2316546,60.7156907 23.8576046,59.6746108 24.4572527,58.5734399 C26.7859107,54.2971808 28.3281109,49.8578331 28.7704025,45.431785 Z M72.2598906,35.078025 L21.1868793,35.0782135 C20.8061355,36.705683 20.528217,38.4279704 20.3542343,40.2417412 L73.1081111,40.2418389 C72.9296827,38.4226177 72.6472995,36.7040084 72.2598906,35.078025 Z M47.048875,15.865431 C46.1090812,15.865431 45.1930182,15.8956104 44.300826,15.955549 C44.8516651,21.0790511 47.944919,27.6465799 52.1213492,29.8889568 L70.1717465,29.8880617 C68.9316254,27.7173524 67.9993009,25.6929573 67.3655799,23.7509705 C62.8735948,18.5993016 56.0964657,15.865431 47.048875,15.865431 Z M39.1558898,16.6870492 L38.6834626,16.7973707 C31.14826,18.6283969 25.8418494,23.1156646 22.8880421,29.8874133 L44.4610562,29.8886471 C41.5295893,26.1055414 39.6534691,21.1097743 39.1558898,16.6870492 Z M74.867,7.743 L74.5700578,8.25420336 C70.56086,15.2620688 70.4615866,20.0438591 74.7011479,27.374775 L74.7011479,27.374775 L74.867,27.657 L75.0326431,27.3747087 C79.3460691,19.9146361 79.1677134,15.094063 74.9492515,7.88291617 L74.9492515,7.88291617 L74.867,7.743 Z M87.78,11.369 L87.6050877,11.4613283 C85.7334908,12.4518979 84.2798688,13.3823062 83.078687,14.3686098 C83.7651651,18.0657452 83.3148298,21.662818 81.6544924,25.6740416 C86.0254353,22.3015564 87.5831559,18.3696262 87.7683448,11.9390717 L87.78,11.369 Z" fill="#00B077"></path>
    </g>
</svg>