<?xml version="1.0" encoding="UTF-8"?>
<svg width="100px" height="100px" viewBox="0 0 100 100" version="1.1" xmlns="http://www.w3.org/2000/svg" xmlns:xlink="http://www.w3.org/1999/xlink">
    <!-- Generator: Sketch 63.1 (92452) - https://sketch.com -->
    <title>PilgrimHat</title>
    <desc>Created with Sketch.</desc>
    <g id="PilgrimHat" stroke="none" stroke-width="1" fill="none" fill-rule="evenodd">
        <path d="M45.820208,53.699634 L54.470208,53.699634 C56.8430291,53.699634 58.795208,55.6518129 58.795208,58.024634 L58.795208,66.674634 C58.795208,69.0474551 56.8430291,70.999634 54.470208,70.999634 L45.820208,70.999634 C43.4473869,70.999634 41.495208,69.0474551 41.495208,66.674634 L41.495208,58.024634 C41.495208,55.6518129 43.4473869,53.699634 45.820208,53.699634 Z M72.729666,11.102709 C74.1628449,11.102709 75.324666,12.2645301 75.324666,13.697709 C75.324666,15.0757657 74.2504971,16.2029367 72.8937779,16.2876037 L72.729666,16.292709 L30.031,16.292 L28.340748,51.223709 L39.1777335,51.2236473 C40.834705,49.6048231 43.0772304,48.5830115 45.5500921,48.5134302 L45.820208,48.509634 L54.470208,48.509634 C57.0496505,48.509634 59.395579,49.5460754 61.1126825,51.2236473 L71.947748,51.223709 L70.5364594,22.0161479 C70.4672405,20.5846415 71.5715927,19.3680633 73.0030991,19.2988444 C74.3795476,19.2322877 75.5572829,20.2507636 75.7073771,21.6018103 L75.7204026,21.7654841 L78.4181434,77.5662205 C84.4080199,74.5847893 90.0247601,70.5977593 95.0166828,65.605167 C96.0300254,64.5916885 97.6730885,64.5915783 98.686567,65.6049208 C99.7000455,66.6182634 99.7001557,68.2613265 98.6868132,69.274805 C92.287275,75.6752016 84.9384895,80.5479221 77.0935835,83.8929026 C77.0690409,83.90359 77.0444209,83.914417 77.0195986,83.9248707 C52.0152598,94.5510592 21.9895258,89.6697406 1.59686742,69.2784496 C0.583422911,68.2650731 0.583367824,66.6220099 1.59674438,65.6085654 C2.61012094,64.5951209 4.25318406,64.5950658 5.26662858,65.6084424 C10.2602454,70.6017243 15.8787141,74.5889288 21.8702277,77.5700921 L24.9674007,13.5722455 C25.0316569,12.2447708 26.0854286,11.1901227 27.3944606,11.1078748 L27.559366,11.102709 L72.729666,11.102709 Z M39.1777335,73.4756207 L27.263748,73.474709 L26.9565023,79.8263712 C41.8301949,85.6531349 58.4587388,85.6520383 73.3312673,79.8235872 L73.023748,73.474709 L61.1126825,73.4756207 C59.455711,75.0944449 57.2131856,76.1162565 54.7403239,76.1858378 L54.470208,76.189634 L45.820208,76.189634 C43.2407655,76.189634 40.894837,75.1531926 39.1777335,73.4756207 Z M72.198748,56.413709 L63.8483476,56.4142211 C63.93832,56.9379255 63.985208,57.4759977 63.985208,58.024634 L63.985208,58.024634 L63.985208,66.674634 C63.985208,67.2232962 63.9383155,67.7613933 63.8483349,68.2851211 L72.772748,68.284709 L72.198748,56.413709 Z M36.4420684,56.4142211 L28.089748,56.413709 L27.514748,68.284709 L36.4420811,68.2851211 C36.3669147,67.8476188 36.3218165,67.4000892 36.3090042,66.9447499 L36.305208,66.674634 L36.305208,58.024634 C36.305208,57.4759977 36.352096,56.9379255 36.4420684,56.4142211 Z M52.978429,59.156054 L47.312679,59.156054 L47.1314567,59.1611095 C45.4520057,59.255059 44.119099,60.646688 44.119099,62.349634 C44.119099,64.1133995 45.5489135,65.543214 47.312679,65.543214 L47.312679,65.543214 L52.978429,65.543214 L53.1596513,65.5381585 C54.8391023,65.444209 56.172009,64.05258 56.172009,62.349634 C56.172009,60.5858685 54.7421945,59.156054 52.978429,59.156054 L52.978429,59.156054 Z" id="Pilgrim-Hat" fill="#00B077"></path>
    </g>
</svg>