<?xml version="1.0" encoding="UTF-8"?>
<svg width="100px" height="100px" viewBox="0 0 100 100" version="1.1" xmlns="http://www.w3.org/2000/svg" xmlns:xlink="http://www.w3.org/1999/xlink">
    <!-- Generator: Sketch 63.1 (92452) - https://sketch.com -->
    <title>Pilgrim</title>
    <desc>Created with Sketch.</desc>
    <g id="Pilgrim" stroke="none" stroke-width="1" fill="none" fill-rule="evenodd">
        <path d="M50.3730892,59.9061709 L50.7,60.067 L50.7584296,60.0370373 C54.0753494,58.3588901 56.9277958,59.0576985 60.8796456,61.4034802 L62.1638475,62.1760233 C62.9535596,62.644786 63.2910541,62.8174675 63.7403716,62.9989881 C64.9167538,63.4742371 65.523259,63.3262844 66.7174292,61.8936194 C67.6350562,60.7927277 69.2713889,60.6441623 70.3722806,61.5617892 C71.4731723,62.4794162 71.6217377,64.1157489 70.7041108,65.2166406 C68.0572197,68.3921579 65.0502349,69.1256912 61.796305,67.8111296 L61.4047902,67.6474707 C60.8661228,67.4131082 60.4108869,67.1704169 59.6109053,66.6965549 L58.5104945,66.034522 C55.3527072,64.1187402 54.1278726,63.8807413 52.1734015,65.2291851 C51.2862846,65.8412316 50.1131954,65.8412316 49.2260785,65.2291851 C47.2715757,63.8807194 46.0463791,64.1187689 42.8882892,66.0345724 L41.9770885,66.5840211 C40.8561206,67.2531089 40.3820017,67.4968009 39.5956171,67.8138701 C36.3441187,69.1248699 33.3393136,68.3895242 30.6951371,65.2163621 C29.7776639,64.1153422 29.926458,62.4790302 31.0274779,61.5615571 C32.1284978,60.6440839 33.7648098,60.792878 34.6822829,61.8938979 C35.8253924,63.2656943 36.4295945,63.4590587 37.5109922,63.0562737 L37.6548338,63.0004036 C38.1945907,62.7827743 38.5735155,62.5773644 39.7670794,61.8571021 L40.196444,61.5972231 C44.2091131,59.1630031 47.080085,58.3559819 50.3730892,59.9061709 Z M66.039131,49.256507 C67.4723099,49.256507 68.634131,50.4183281 68.634131,51.851507 C68.634131,53.2295637 67.5599621,54.3567347 66.2032429,54.4414017 L66.039131,54.446507 L59.722901,54.446507 C58.2897221,54.446507 57.127901,53.2846859 57.127901,51.851507 C57.127901,50.4734503 58.2020699,49.3462793 59.5587891,49.2616123 L59.722901,49.256507 L66.039131,49.256507 Z M41.67606,49.256507 C43.1092389,49.256507 44.27106,50.4183281 44.27106,51.851507 C44.27106,53.2295637 43.1968911,54.3567347 41.8401719,54.4414017 L41.67606,54.446507 L35.35983,54.446507 C33.9266511,54.446507 32.76483,53.2846859 32.76483,51.851507 C32.76483,50.4734503 33.8389989,49.3462793 35.1957181,49.2616123 L35.35983,49.256507 L41.67606,49.256507 Z M53.075722,32.459072 C54.5089009,32.459072 55.670722,33.6208931 55.670722,35.054072 C55.670722,36.4321287 54.5965531,37.5592997 53.2398339,37.6439667 L53.075722,37.649072 L48.319952,37.649072 C46.8867731,37.649072 45.724952,36.4872509 45.724952,35.054072 C45.724952,33.6760153 46.7991209,32.5488443 48.1558401,32.4641773 L48.319952,32.459072 L53.075722,32.459072 Z M54.8791728,68.8015679 C55.7534854,67.6659715 57.3828386,67.4541591 58.5184351,68.3284718 C59.6540315,69.2027844 59.8658439,70.8321376 58.9915312,71.9677341 C54.5086848,77.7902558 46.891099,77.7895226 42.4092443,71.9676192 C41.5349951,70.8319739 41.7468986,69.2026325 42.8825438,68.3283833 C44.0181891,67.4541341 45.6475305,67.6660376 46.5217797,68.8016828 C48.926245,71.9250713 52.4740792,71.9254112 54.8791728,68.8015679 Z M60.7916975,0.319502223 L61.8538891,0.328827284 C62.1576197,0.334542419 62.4267164,0.343312039 62.7082772,0.356451307 L62.9225208,0.367145616 C67.2048047,0.594066209 70.3912641,1.88856892 73.0460103,5.17173506 C74.4821519,6.94445545 76.0091547,10.297359 77.7552551,15.1621568 L78.196255,16.410441 C78.9364041,18.5377077 79.7018759,20.8965133 80.4863131,23.4504562 C81.5723968,26.9864893 82.647422,30.7383702 83.6757753,34.5166156 L84.1135369,36.1369253 C84.403202,37.2169772 84.6738299,38.2420559 84.9229569,39.1991732 L85.189837,40.2435022 L94.812837,40.244072 C96.2460159,40.244072 97.407837,41.4058931 97.407837,42.839072 C97.407837,44.2171287 96.3336681,45.3442997 94.9769489,45.4289667 L94.812837,45.434072 L23.8041488,45.4335081 C23.8190935,48.0666166 24.0195418,50.8322356 24.4056124,53.7113635 C25.4041132,61.1545293 27.9569591,67.0844453 31.7258208,71.5737841 C31.8089214,71.6572633 31.8865406,71.7477193 31.9580894,71.8440657 C33.1085333,73.1819254 34.3701668,74.3874534 35.7325203,75.464051 C40.3987607,79.1515396 46.0810752,81.084182 50.700432,81.084182 C55.3170679,81.084182 60.998203,79.1514505 65.6636903,75.4641396 C67.0341219,74.3810357 68.3026366,73.1674595 69.4597742,71.8214252 C69.5138603,71.7487241 69.5718691,71.6802766 69.6329488,71.6153203 C73.4225053,67.1222571 75.9882852,61.178952 76.9895818,53.714959 C77.1170455,52.7546161 77.2223059,51.8497097 77.3060736,50.984647 C77.4442083,49.5581406 78.7126006,48.5137089 80.139107,48.6518436 C81.5656134,48.7899783 82.6100451,50.0583706 82.4719104,51.484877 C82.3819554,52.413835 82.2696688,53.3791448 82.1339824,54.4014205 C81.165101,61.6237932 78.8475351,67.694743 75.4260677,72.5870018 L75.0570891,72.3516172 C76.8542948,73.4665209 78.6450856,74.8741298 80.3176026,76.6044072 C83.1253637,79.5091344 85.3117751,83.0285283 86.6250162,87.1994087 C87.0554351,88.5664278 86.2961705,90.0235393 84.9291513,90.4539582 C83.5621322,90.8843771 82.1050207,90.1251125 81.6746018,88.7580933 C80.6142028,85.3902443 78.8556314,82.5595304 76.5859618,80.2114777 C75.2276918,78.8062997 73.7712108,77.6614672 72.3211447,76.761913 L72.0982988,76.6266928 C71.0888102,77.6701614 70.0153883,78.6400605 68.8818112,79.5359694 C63.2905085,83.9549873 56.4733903,86.274182 50.700432,86.274182 C44.9249381,86.274182 38.1067169,83.9552003 32.5146237,79.536058 C31.3810114,78.6402228 30.3075579,77.6703979 29.2980398,76.6270034 L29.0784403,76.7619807 L29.0784403,76.7619807 C27.6283,77.6615964 26.171746,78.8064889 24.8134095,80.2117202 C21.5156162,83.6233654 19.3455863,87.9499105 18.7687776,93.3651147 L18.732,93.739 L85.378974,93.739651 C86.7570307,93.739651 87.8842017,94.8138199 87.9688687,96.1705391 L87.973974,96.334651 C87.973974,97.7127077 86.8998051,98.8398787 85.5430859,98.9245457 L85.378974,98.929651 L16.019814,98.929651 C14.5866351,98.929651 13.424814,97.7678299 13.424814,96.334651 C13.424814,88.1005576 16.301814,81.549626 21.0817885,76.6046293 C22.639233,74.9934161 24.2992316,73.6619715 25.9714674,72.5861071 C22.5484345,67.6954604 20.2306285,61.6242074 19.2616722,54.4012762 C18.8455007,51.29767 18.6289749,48.3020626 18.6140729,45.4333825 L6.582837,45.434072 C5.14965807,45.434072 3.987837,44.2722509 3.987837,42.839072 C3.987837,41.4610153 5.06200589,40.3338443 6.41872512,40.2491773 L6.582837,40.244072 L16.200837,40.2435022 L16.7808206,38.0193684 C16.9402455,37.4137213 17.1070515,36.7854783 17.2807072,36.1374449 C18.4389417,31.8152447 19.6648081,27.4921237 20.9052192,23.4509237 L21.3741226,21.9394696 C22.1516602,19.4605356 22.9089324,17.1848218 23.6395603,15.148917 L23.9971614,14.1654524 C25.592728,9.83697357 27.0067271,6.82086481 28.3425085,5.17202542 C31.0130529,1.87463298 34.2079122,0.585295154 38.5158285,0.364676199 L38.9321004,0.345930653 C39.35066,0.329891355 39.767766,0.322848331 40.3497076,0.320321641 L60.7916975,0.319502223 Z M77.8857018,33.044384 L64.4682785,33.0446262 C64.5030485,33.3323889 64.5248821,33.6240309 64.5331772,33.9189497 L64.536972,34.189072 L64.536837,40.2435022 L79.8323815,40.2458974 C79.6552933,39.5674381 79.4675773,38.8555736 79.2701241,38.1149686 L79.1006908,37.4813484 C78.7029148,35.9981919 78.2971371,34.5151466 77.8857018,33.044384 Z M55.023702,29.864072 L46.373702,29.864072 C44.880677,29.864072 43.554864,30.6360245 42.776528,31.7994132 C42.7523784,31.8432256 42.7251695,31.8849941 42.6968145,31.925908 C42.3205935,32.5291307 42.0899575,33.2311397 42.0537266,33.9807781 L42.048702,34.189072 L42.047837,40.2435022 L59.346837,40.2435022 L59.346972,34.189072 C59.346972,33.3716583 59.1155458,32.6042669 58.715187,31.9494032 C58.6729363,31.8926312 58.634163,31.83303 58.5978357,31.771807 C57.8560069,30.6774766 56.6263051,29.9365425 55.2318896,29.8690979 L55.023702,29.864072 Z M36.9274018,33.0445561 L23.5075604,33.0448838 C23.0965425,34.5153121 22.6911866,35.9980148 22.293832,37.4808288 L21.6450324,39.9304249 L21.563837,40.2435022 L36.857837,40.2435022 L36.858702,34.189072 C36.858702,33.8018546 36.8820471,33.4199039 36.9274018,33.0445561 Z M60.753841,5.50947533 L40.126608,5.51178862 C39.5767192,5.51606964 39.2026305,5.52630487 38.7812732,5.54788361 C35.8201061,5.69953224 33.9985657,6.43464469 32.3754403,8.43876094 C31.4336689,9.60124896 30.0701394,12.595101 28.5245206,16.9019893 C27.6778167,19.2613415 26.7871268,21.9753089 25.8667585,24.9738249 C25.5767465,25.9186701 25.2873287,26.8799382 24.9992536,27.8537377 L39.2842911,27.8544013 C40.9727673,25.9672625 43.400253,24.7539069 46.1035245,24.6778677 L46.373702,24.674072 L55.023702,24.674072 C57.834399,24.674072 60.3673967,25.9047071 62.1116826,27.8545488 L76.3931705,27.8542186 C76.1048888,26.8804147 75.8152692,25.9191422 75.5250609,24.9742924 L75.0679578,23.5017602 C74.3862052,21.3293601 73.7224577,19.3229305 73.0827254,17.5118733 L72.870379,16.9154639 C71.321976,12.6014692 69.9562489,9.60268546 69.0117941,8.43688339 C67.3994427,6.44286428 65.584345,5.7054788 62.6478851,5.54987417 L62.1064215,5.52684691 C61.7392486,5.51527644 61.3359172,5.510674 60.753841,5.50947533 Z" fill="#00B077"></path>
    </g>
</svg>