<?xml version="1.0" encoding="UTF-8"?>
<svg width="100px" height="100px" viewBox="0 0 100 100" version="1.1" xmlns="http://www.w3.org/2000/svg" xmlns:xlink="http://www.w3.org/1999/xlink">
    <!-- Generator: Sketch 63.1 (92452) - https://sketch.com -->
    <title>ThankYou</title>
    <desc>Created with Sketch.</desc>
    <g id="ThankYou" stroke="none" stroke-width="1" fill="none" fill-rule="evenodd">
        <path d="M3.463061,50.373402 C4.84111766,50.373402 5.96828873,51.4475709 6.05295565,52.8042901 L6.058061,52.968402 L6.058061,76.397792 C6.058061,81.263895 9.98094893,85.2708583 14.8187042,85.4124124 L15.083471,85.416282 L21.408351,85.416282 C22.8415299,85.416282 24.003351,86.5781031 24.003351,88.011282 C24.003351,89.3893387 22.9291821,90.5165097 21.5724629,90.6011767 L21.408351,90.606282 L15.083471,90.606282 C7.36369463,90.606282 1.03875071,84.3887401 0.871457946,76.7098857 L0.868061,76.397792 L0.868061,52.968402 C0.868061,51.5352231 2.02988207,50.373402 3.463061,50.373402 Z M37.7333632,53.9640512 C38.873228,54.7302818 39.2109923,56.2430205 38.533452,57.4146067 L38.4393018,57.5653982 L32.029061,67.099878 L32.030032,74.248959 C32.030032,75.6821379 30.8682109,76.843959 29.435032,76.843959 C28.0569753,76.843959 26.9298043,75.7697901 26.8451373,74.4130709 L26.840032,74.248959 L26.839061,67.099878 L20.4319769,57.5651464 C19.632571,56.3756288 19.948819,54.7632878 21.1383366,53.9638819 C22.2782909,53.1977846 23.8065675,53.4563069 24.6355307,54.5261177 L24.7396011,54.6702416 L29.435,61.657 L34.1320162,54.6699898 C34.9315611,53.4805657 36.5439391,53.1645062 37.7333632,53.9640512 Z M48.416073,53.523559 C54.0352134,53.523559 57.661193,57.9474234 57.661193,65.183759 C57.661193,72.4165071 54.0338752,76.843959 48.416073,76.843959 C42.7956758,76.843959 39.169223,72.4175629 39.169223,65.183759 C39.169223,57.9463681 42.7943376,53.523559 48.416073,53.523559 Z M75.960095,53.522694 C77.3381517,53.522694 78.4653227,54.5968629 78.5499897,55.9535821 L78.555095,56.117694 L78.555095,65.182894 C78.555095,72.4205334 74.9314864,76.843094 69.309975,76.843094 C63.7829516,76.843094 60.1842752,72.5630854 60.0677712,65.5365047 L60.064855,65.182894 L60.064855,56.117694 C60.064855,54.6845151 61.2266761,53.522694 62.659855,53.522694 C64.0379117,53.522694 65.1650827,54.5968629 65.2497497,55.9535821 L65.254855,56.117694 L65.254855,65.182894 C65.254855,69.7552954 66.810368,71.653094 69.309975,71.653094 C71.7546096,71.653094 73.2939857,69.8421183 73.3626946,65.4906182 L73.365095,65.182894 L73.365095,56.117694 C73.365095,54.6845151 74.5269161,53.522694 75.960095,53.522694 Z M48.416073,58.713559 C45.913871,58.713559 44.359223,60.6103022 44.359223,65.183759 C44.359223,69.7540074 45.9158132,71.653959 48.416073,71.653959 C50.9137378,71.653959 52.471193,69.7529516 52.471193,65.183759 C52.471193,60.6113576 50.91568,58.713559 48.416073,58.713559 Z M65.9890285,24.2475478 L66.0854724,24.3806467 L73.721,35.568 L73.721821,25.843559 C73.721821,24.4655023 74.7959899,23.3383313 76.1527091,23.2536643 L76.316821,23.248559 C77.6948777,23.248559 78.8220487,24.3227279 78.9067157,25.6794471 L78.911821,25.843559 L78.911821,43.973959 C78.911821,46.4713736 75.7545479,47.5004396 74.2699235,45.5699702 L74.1734796,45.4368713 L66.537,34.249 L66.537131,43.973959 C66.537131,45.3520157 65.4629621,46.4791867 64.1062429,46.5638537 L63.942131,46.568959 C62.5640743,46.568959 61.4369033,45.4947901 61.3522363,44.1380709 L61.347131,43.973959 L61.347131,25.843559 C61.347131,23.3461444 64.5044041,22.3170784 65.9890285,24.2475478 Z M99.1623176,24.6005359 C99.8209016,25.808524 99.4196801,27.3094729 98.2732468,28.0345671 L98.1260841,28.1210856 L89.286,32.94 L98.6956789,42.1152522 C99.6771254,43.0723512 99.7386764,44.6171397 98.8664911,45.6476185 L98.7417678,45.7848469 C97.7846688,46.7662934 96.2398803,46.8278444 95.2094015,45.9556591 L95.0721731,45.8309358 L87.554061,38.498878 L87.554728,43.973959 C87.554728,45.4071379 86.3929069,46.568959 84.959728,46.568959 C83.5816713,46.568959 82.4545003,45.4947901 82.3698333,44.1380709 L82.364728,43.973959 L82.364728,25.843559 C82.364728,24.4103801 83.5265491,23.248559 84.959728,23.248559 C86.3377847,23.248559 87.4649557,24.3227279 87.5496227,25.6794471 L87.554728,25.843559 L87.554061,27.972878 L95.6417679,23.5643024 C96.9000889,22.8782774 98.4762926,23.342215 99.1623176,24.6005359 Z M51.7784056,24.738398 L51.8505489,24.9085421 L58.8535889,43.0389421 C59.3699844,44.3758555 58.7048233,45.8782593 57.3679099,46.3946549 C56.084473,46.8903946 54.6485202,46.2972117 54.0788238,45.0661484 L54.0121971,44.9089759 L53.557061,43.729878 L45.304061,43.729878 L44.8493165,44.9087749 C44.3536833,46.1922529 42.9492936,46.8567195 41.6548821,46.4510477 L41.4937271,46.3947325 C40.2102491,45.8990993 39.5457825,44.4947096 39.9514543,43.2002981 L40.0077695,43.0391431 L47.0090795,24.9087431 C47.8413523,22.7535123 50.8323462,22.6966724 51.7784056,24.738398 Z M34.896123,23.248559 C36.2741797,23.248559 37.4013507,24.3227279 37.4860177,25.6794471 L37.491123,25.843559 L37.491123,43.973959 C37.491123,45.4071379 36.3293019,46.568959 34.896123,46.568959 C33.5180663,46.568959 32.3908953,45.4947901 32.3062283,44.1380709 L32.301123,43.973959 L32.301061,37.502878 L25.116061,37.502878 L25.116779,43.973959 C25.116779,45.4071379 23.9549579,46.568959 22.521779,46.568959 C21.1437223,46.568959 20.0165513,45.4947901 19.9318843,44.1380709 L19.926779,43.973959 L19.926779,25.843559 C19.926779,24.4103801 21.0886001,23.248559 22.521779,23.248559 C23.8998357,23.248559 25.0270067,24.3227279 25.1116737,25.6794471 L25.116779,25.843559 L25.116061,32.312878 L32.301061,32.312878 L32.301123,25.843559 C32.301123,24.4103801 33.4629441,23.248559 34.896123,23.248559 Z M15.433796,23.247694 C16.8669749,23.247694 18.028796,24.4095151 18.028796,25.842694 C18.028796,27.2207507 16.9546271,28.3479217 15.5979079,28.4325887 L15.433796,28.437694 L12.042061,28.436878 L12.042131,43.973094 C12.042131,45.4062729 10.8803099,46.568094 9.447131,46.568094 C8.06907434,46.568094 6.94190327,45.4939251 6.85723635,44.1372059 L6.852131,43.973094 L6.852061,28.436878 L3.463926,28.437694 C2.03074707,28.437694 0.868926,27.2758729 0.868926,25.842694 C0.868926,24.4646373 1.94309489,23.3374663 3.29981412,23.2527993 L3.463926,23.247694 L15.433796,23.247694 Z M49.43,33.045 L47.308061,38.539878 L51.552061,38.539878 L49.43,33.045 Z M96.883926,50.373575 C98.2619827,50.373575 99.3891537,51.4477439 99.4738207,52.8044631 L99.478926,52.968575 L99.478926,76.397965 C99.478926,84.1151221 93.2572317,90.4358787 85.5773785,90.6030603 L85.265246,90.606455 L48.656,90.606 L31.2196644,101.500497 C29.5379678,102.551155 27.3704865,101.403182 27.2545537,99.4631755 L27.249696,99.299705 L27.249696,88.011455 C27.249696,86.5782761 28.4115171,85.416455 29.844696,85.416455 C31.2227527,85.416455 32.3499237,86.4906239 32.4345907,87.8473431 L32.439696,88.011455 L32.439,94.618 L46.5378476,85.8106627 C46.8912845,85.5898492 47.2918006,85.4579511 47.7052006,85.4247724 L47.912816,85.416455 L85.265246,85.416455 C90.1337808,85.416455 94.1434054,81.4961852 94.2850538,76.6625079 L94.288926,76.397965 L94.288926,52.968575 C94.288926,51.5353961 95.4507471,50.373575 96.883926,50.373575 Z M85.265246,3.284878 C93.088598,3.284878 99.478926,9.67258139 99.478926,17.496828 C99.478926,18.9300069 98.3171049,20.091828 96.883926,20.091828 C95.4507471,20.091828 94.288926,18.9300069 94.288926,17.496828 C94.288926,12.6279418 90.3666424,8.62032481 85.5299541,8.47874821 L85.265246,8.474878 L15.082606,8.474878 C10.1251347,8.474878 6.058926,12.5394166 6.058926,17.496828 C6.058926,18.9300069 4.89710493,20.091828 3.463926,20.091828 C2.03074707,20.091828 0.868926,18.9300069 0.868926,17.496828 C0.868926,9.77690468 7.08998134,3.45547214 14.770448,3.28827304 L15.082606,3.284878 L85.265246,3.284878 Z" fill="#00B077"></path>
    </g>
</svg>