<?xml version="1.0" encoding="UTF-8"?>
<svg width="100px" height="100px" viewBox="0 0 100 100" version="1.1" xmlns="http://www.w3.org/2000/svg" xmlns:xlink="http://www.w3.org/1999/xlink">
    <!-- Generator: Sketch 63.1 (92452) - https://sketch.com -->
    <title>Chinese</title>
    <desc>Created with Sketch.</desc>
    <g id="Chinese" stroke="none" stroke-width="1" fill="none" fill-rule="evenodd">
        <path d="M55.4209564,6.65710995 C55.9956704,6.65710995 56.5518313,6.84858437 57.0030911,7.19794942 L57.1672276,7.33629684 L87.009934,34.6875163 C88.0622259,35.6519553 88.1334449,37.2868386 87.1690059,38.3391306 C86.2464991,39.3456707 84.71058,39.4545939 83.6578481,38.6181301 L83.5173917,38.4982025 L54.416,11.826 L38.851,11.826 L10.789,37.542 L20.592,93.774 L72.674,93.774 L80.9738069,46.1512947 C81.2094284,44.7991744 82.4561054,43.8768802 83.8017663,44.02578 L83.9636624,44.0488308 C85.3157828,44.2844524 86.2380769,45.5311293 86.0891771,46.8767903 L86.0661263,47.0386863 L77.3941667,96.80295 C77.1883108,97.9842594 76.2001077,98.8609779 75.0181174,98.9382388 L74.8480069,98.9437842 L18.4191019,98.9437842 C17.2200534,98.9437842 16.1867383,98.1208459 15.9076479,96.9697442 L15.8729722,96.8031221 L5.45387027,37.0367273 C5.31331477,36.2304683 5.56327891,35.4093105 6.11996562,34.8193456 L6.25383843,34.6874159 L36.0999909,7.33619641 C36.5236649,6.94793862 37.0630075,6.71335476 37.6316899,6.66601832 L37.8461524,6.65710995 L55.4209564,6.65710995 Z M21.7358453,45.7236116 L21.8763568,45.8313352 L68.8562201,84.4287062 C69.9591289,85.3348259 70.118658,86.9634653 69.2125383,88.0663741 C68.3441736,89.1233284 66.8122447,89.3138801 65.7153818,88.5304159 L65.5748704,88.4226923 L43.177,70.021 L29.3267306,87.586026 C28.4428618,88.7068457 26.8177407,88.8989323 25.696921,88.0150634 C24.6228022,87.1680225 24.4016344,85.6402134 25.1629933,84.5278928 L25.2678836,84.3852539 L39.182,66.739 L18.595007,49.8253213 C17.4920982,48.9192016 17.3325692,47.2905622 18.2386889,46.1876534 C19.0692986,45.1766536 20.5070256,44.9583549 21.5903993,45.6269355 L21.7358453,45.7236116 Z M70.5371832,33.6128963 C71.9645797,33.6128963 73.1217132,34.7700298 73.1217132,36.1974263 C73.1217132,37.569923 72.0518782,38.6925463 70.7006329,38.7768716 L70.5371832,38.7819563 L22.7337163,38.7819563 C21.3063198,38.7819563 20.1491863,37.6248228 20.1491863,36.1974263 C20.1491863,34.8249297 21.2190213,33.7023064 22.5702666,33.6179811 L22.7337163,33.6128963 L70.5371832,33.6128963 Z M96.4269712,8.90990506 C97.4076747,9.8598327 97.474178,11.3981724 96.6089861,12.4274242 L96.4852287,12.5645181 L85.3700267,24.0398313 C84.3769205,25.0651122 82.7406945,25.091195 81.7154136,24.0980888 C80.7347102,23.1481612 80.6682069,21.6098215 81.5333988,20.5805697 L81.6571561,20.4434758 L92.7723582,8.96816256 C93.7654643,7.94288167 95.4016903,7.91679889 96.4269712,8.90990506 Z M88.8711161,1.45865578 C89.8521187,2.40827452 89.9191064,3.94659324 89.0542387,4.97611742 L88.9305245,5.11325032 L77.8256606,16.5851175 C76.8328774,17.6107111 75.1966597,17.6373091 74.1710661,16.6445259 C73.1900635,15.6949072 73.1230758,14.1565884 73.9879435,13.1270643 L74.1116577,12.9899314 L85.2165216,1.51806421 C86.2093048,0.492470605 87.8455225,0.465872546 88.8711161,1.45865578 Z" fill="#00B077"></path>
    </g>
</svg>