<svg version="1.1" id="Layer_1" xmlns="http://www.w3.org/2000/svg" x="0" y="0" viewBox="0 0 100 100" xml:space="preserve">
  <title>Kabab</title>
  <g id="Kabab" stroke="none" stroke-width="1" fill="#00B077" fill-rule="evenodd">
    <path class="st0" d="M98.6 43.4l-4.3 3.3-1.9-3.8 3.7-2.8c.9-.7 2.3-.5 3 .4.6.9.4 2.2-.5 2.9zM73.6 62.6l-4.2 3.2-1.9-3.9 4.2-3.2zM62.1 71.4L58.7 74l-2-3.8 3.5-2.7zM38 89.8l-8 6.1c-2.9 2.2-8.6 3.7-12.4-1.3-3.1-4-1.5-8.5 1.5-10.9 3.1-2.4 8-2.9 11.1.9.7.9.6 2.3-.3 3-.9.7-2.2.6-3-.3-1.7-2.1-4.1-1.1-5.2-.2-.5.4-2.8 2.4-.8 5 2.5 3.2 5.8 1 6.5.5L36 86l2 3.8z"/>
    <path class="st0" d="M94.4 52.3l-2.1-4.1-1.9-3.8-1.1-2.3c-.2-.4-.5-.8-.8-1.2-2.5-3.3-7-3.9-10.3-1.3l-4.9 3.7c-1.8 1.4-4.3 4.5-1.6 10.2l1.9 3.8 1.9 3.9 1.1 2.3v.2c.2.4.4.7.7 1 1.2 1.6 3 2.6 4.9 2.9 2 .2 4-.3 5.7-1.6l4.4-3.3c2.1-1.7 4.9-5 2.1-10.4zm-9 10.1c-1.6 1.2-3.5 1-4.7-.5-.1-.1-.2-.3-.3-.5l-1.5-3-1.9-3.8-1.5-3c-.9-1.9-1.3-3.8.3-5.1l4.9-3.7c1.4-1.1 3.2-1 4.4.5.1.2.3.4.4.6l1.5 3 1.9 3.9 1.7 3.4c1.1 2.1.9 3.5-.8 4.8l-4.4 3.4z"/>
    <path class="st0" d="M58.8 79.6l-2.1-4.1-1.9-3.8-1.1-2.3c-.2-.4-.5-.8-.8-1.2-2.5-3.3-7-3.9-10.3-1.3l-4.9 3.7c-1.8 1.3-4.3 4.5-1.6 10.2l1.9 3.8 1.9 3.9 1.1 2.3v.2c.2.4.4.7.7 1 1.2 1.6 3 2.6 4.9 2.9 2 .2 4-.3 5.7-1.6l4.4-3.3c2.1-1.8 4.9-5 2.1-10.4zm-8.9 10.1c-1.6 1.2-3.5 1-4.7-.5-.1-.1-.2-.3-.3-.5l-1.5-3-1.9-3.9-1.5-3c-.9-1.9-1.3-3.8.3-5.1l4.9-3.7c1.4-1.1 3.2-1 4.4.5.1.2.3.4.4.6l1.5 3 1.9 3.8 1.7 3.4c1.1 2.1.9 3.5-.8 4.8l-4.4 3.6z"/>
    <path class="st0" d="M70.1 77.5c-.9.4-2 .2-2.6-.6-.1-.1-.2-.2-.2-.4L64 69.9 62.1 66l-3.6-7.3c-.5-1.1-.1-2.3 1-2.8 1-.5 2.3-.1 2.8 1l3.2 6.6 1.9 3.9 3.6 7.4c.6.9.1 2.2-.9 2.7z"/>
    <path class="st0" d="M68.1 5.8l-3.2 4.4L62 7.1l2.7-3.7c.7-.9 2-1.1 3-.5.9.7 1.1 2 .4 2.9zM49.5 31.2l-3.2 4.3-2.9-3.2 3.2-4.3zM40.9 42.8l-2.5 3.5-3-3.1 2.6-3.6zM23 67.3l-6 8.1c-2.2 2.9-7.2 6-12.3 2.3-4-3-3.8-7.7-1.6-10.9 2.3-3.2 6.9-5 10.9-2.2 1 .6 1.2 2 .5 3s-2 1.2-3 .5c-2.2-1.5-4.3.1-5.1 1.2-.4.5-2 3.1.6 5 3.3 2.4 5.9-.7 6.3-1.4l6.5-8.8 3.2 3.2z"/>
    <path class="st0" d="M66.6 15.5l-3.1-3.4L60.6 9l-1.7-1.9c-.3-.4-.7-.7-1.1-.9-3.4-2.5-7.8-1.8-10.3 1.6l-3.6 4.9c-1.3 1.8-2.9 5.5 1.3 10.3l2.8 3 2.9 3.2 1.7 1.9.1.1.1.1c.3.3.6.6.9.8 1.6 1.2 3.6 1.7 5.5 1.4 2-.3 3.8-1.4 5-3.1l3.3-4.4c1.5-2.2 3.3-6.1-.9-10.5zm-5.8 12.3c-1.2 1.6-3.1 2-4.6.9-.2-.1-.3-.2-.4-.4l-2.3-2.5-2.9-3.2-2.3-2.5c-1.4-1.6-2.3-3.2-1.1-4.9l3.6-4.9c1-1.4 2.8-1.8 4.3-.7.2.1.4.3.5.5l2.3 2.5 2.9 3.2 2.6 2.8c1.6 1.7 1.9 3.1.6 4.9l-3.2 4.3z"/>
    <path class="st0" d="M40.1 51.6L37 48.2l-3-3.1-1.7-1.9c-.3-.3-.7-.7-1.1-.9-3.4-2.5-7.8-1.8-10.3 1.6l-3.6 4.9c-1.3 1.8-2.9 5.5 1.3 10.3l2.8 3.1 2.9 3.2 1.7 1.9.1.1.1.1c.3.3.6.6.9.8 1.6 1.2 3.6 1.7 5.5 1.4 2-.3 3.8-1.4 5-3.1l3.3-4.4c1.5-2.2 3.3-6.2-.8-10.6zm-5.8 12.3c-1.2 1.6-3.1 2-4.6.9-.2-.1-.3-.2-.4-.4L27 61.9l-3-3.2-2.3-2.5c-1.4-1.6-2.3-3.2-1.1-4.9l3.6-4.9c1-1.4 2.8-1.8 4.3-.7.2.1.4.3.6.5l2.3 2.5 2.9 3.2 2.6 2.8c1.6 1.7 1.9 3.1.6 4.9l-3.2 4.3z"/>
    <path class="st0" d="M50.3 46.5c-.8.7-1.9.7-2.7.1l-.3-.3-4.9-5.4-2.9-3.2-5.5-6.1c-.8-.9-.7-2.2.1-3 .9-.8 2.2-.7 3 .2l4.9 5.4 2.9 3.2 5.5 6.1c.8.8.7 2.2-.1 3z"/>
    <path d="M-29.8 242.7l-.2.3.2-.3-.1.3.1-.3-.1.3.1-.3-.1.3.1-.3-.1.3.1-.3-.1.3.1-.3-.1.3.1-.3-.1.3.1-.3-.1.3.1-.3-.1.3.2-.3-.2.3.2-.3-.2.3.2-.3-.2.3.2-.3-.2.3.2-.3-.2.3.2-.3-.2.3.2-.3-.2.3.2-.3-.2.3.2-.3-.2.3.2-.3-.2.3.2-.3-.2.3.2-.3-.2.3.2-.3-.2.3.2-.3-.2.3.2-.3-.2.3.2-.3-.2.4.2-.3-.2.3.2-.3-.2.3.2-.3-.2.3.2-.3-.2.3.2-.3-.2.3.2-.3-.2.3.2-.3-.2.3.2-.3-.2.3.2-.3-.2.3.2-.3-.2.3.3-.3-.3.3.3-.3-.3.3.3-.3-.3.3.3-.3-.3.3.3-.3-.3.3.3-.3-.3.3.3-.3-.3.3.3-.3-.3.3.3-.3-.3.3.3-.3-.3.3.3-.3-.3.3.3-.3-.3.3.3-.3-.3.3.3-.3-.3.3.3-.3-.3.3.3-.3-.3.3.3-.3-.3.3.3-.3-.3.3.3-.3-.3.3.3-.3-.2.3.2-.3-.2.3.2-.3-.2.3.2-.2-.2.2.2-.2-.2.2.2-.2-.2.2.2-.2-.2.2.2-.2-.2.2.2-.2-.2.2.2-.2-.2.2.2-.2-.2.2.3-.2-.3.2.3-.2-.3.2.3-.2-.3.2.3-.2-.3.2.3-.2-.3.2.3-.2-.3.2.3-.2-.3.2.3-.2-.3.2.3-.2-.3.2.3-.2-.3.2.3-.2-.3.2.3-.2-.3.2.3-.2-.3.2.3-.2-.3.2.3-.2-.3.2.3-.2-.3.2.3-.2-.3.2.3-.2-.3.2.3-.2-.3.2.3-.2-.3.3.3-.2-.3.2.3-.2-.3.2.3-.2-.3.2.3-.2-.3.2.3-.2-.3.2.3-.2-.3.2.3-.2-.3.2.3-.2-.3.2.3-.2-.3.2.3-.2-.3.2.3-.2-.3.2.3-.2-.3.2.3-.2-.3.2.3-.2-.3.2.3-.2-.3.2.3-.2-.3.2.3-.2-.3.2.3-.2-.3.2.3-.2-.3.2.3-.2-.3.2.4-.2-.4.2.4-.2-.4.2.4-.2-.4.2.4-.2-.4.2.4-.1-.4.1.4-.1-.4.1.4-.1-.4.1.4-.1-.4.1.4-.1-.4.1.4-.1-.4.1.4-.1-.4.1.4-.1-.4.1.4-.1-.4.1.4-.1-.4.1.4-.1-.4.1.4-.1-.4.1.4-.1-.4.1.4-.1-.4.1.4-.1-.4.1.4-.1-.4.1.4-.1-.4.1.4-.1-.4.1.4-.1-.4.1.4-.1-.4.1.4-.1-.4.1.4-.1-.4.1.4-.1-.4.1h.4l-.4.1.4-.1-.4.1.4-.1-.4.1.4-.1-.4.1.4-.1-.4.1.4-.1-.4.1.4-.1-.4.1.4-.1-.4.1.4-.1-.4.1.4-.1-.4.1.4-.1-.4.1.4-.1-.4.1.4-.1-.4.1.4-.1-.4.1.4-.1-.4.1.4-.1-.4.1.4-.1-.4.1.4-.1-.4.1.4-.1-.4.1.4-.1-.4.1.4-.1-.4.1.4-.1-.4.1h.4-.4.4-.4.4-.4.4-.4.4-.4.4-.3.3-.3.3-.3.3-.3.3-.3.3-.3.3-.3.3-.3.3-.3.3-.3.3-.3.3-.3.3-.3.3-.3.3-.3.3-.3.3l-.3.1h.3-.3.3-.3.3-.3.3-.3.3-.3.3-.3.3-.3.3-.3.3-.3.3-.3.3-.3.3-.3.3-.3.3-.3.3-.3.3-.3.3-.4.4-.4.4-.4.4-.4.4-.4l.4.1-.4-.1.4.1-.4-.1.4.1-.4-.1.4.1-.4-.1.4.1-.4-.1.4.1-.4-.1.4.1-.4-.1.4.1-.4-.1.4.1-.4-.1.4.1-.4-.1.4.1-.4-.1.4.1-.4-.1.4.1-.4-.1.4.1-.4-.1.4.1-.4-.1.4.1-.4-.1.4.1-.4-.1.4.1-.4-.1.4.1-.4-.1.4.1-.4-.1.4.1-.4-.1.4.1-.4-.1.4.2-.4-.1.4.1-.4-.1.4.1-.4-.1.4.1-.4-.1.4.1-.4-.1.4.1-.4-.1.4.1-.4-.1.4.1-.4-.1.4.1-.4-.1.4.1-.4-.1.4.1-.4-.1.4.1-.4-.1.4.1-.4-.1.4.1-.4-.1.4.1-.4-.1.4.1-.4-.1.4.1-.4-.1.4.1-.4-.1.4.1-.4-.1.4.1-.4-.1.4.1-.4-.1.4.1-.4-.1.4.1-.4-.1.4.2-.4-.2.4.2-.4-.2.4.2-.4-.2.4.2-.4-.2.3.2-.3-.2.3.2-.3-.2.3.2-.3-.2.3.2-.3-.2.3.2-.3-.2.3.2-.3-.2.3.2-.3-.2.3.2-.3-.2.3.2-.3-.2.3.2-.3-.2.3.2-.3-.2.3.2-.3-.2.3.2-.3-.2.3.2-.3-.2.3.2-.3-.2.3.2-.3-.2.3.2-.3-.2.3.2-.3-.2.3.2-.3-.2.3.2-.3-.2.3.2-.3-.1.3.2-.3-.2.3.2-.3-.2.3.2-.3-.2.3.2-.3-.2.3.2-.3-.2.3.2-.3-.2.3.2-.3-.2.3.2-.3-.2.3.2-.3-.2.3.2-.3-.2.3.2-.3-.2.3.2-.3-.2.3.2-.3-.2.3.2-.3-.2.3.2-.3-.2.3.2-.3-.2.3.2-.3-.2.3.2-.3-.2.3.2-.3-.2.2.2-.2-.2.2.2-.2-.2.2.2-.2-.2.2.2-.2-.2.2.2-.2-.2.2.2-.2-.2.2.2-.2-.2.2.2-.2-.2.2.3-.2-.3.2.3-.2-.3.2.3-.3-.3.3.3-.3-.3.3.3-.3-.3.3.3-.3-.3.3.3-.3-.3.3.3-.3-.3.3.3-.3-.3.3.3-.3-.3.3.3-.3-.3.3.3-.3-.3.3.3-.3-.3.3.3-.3-.3.3.3-.3-.3.3.3-.3-.3.3.3-.3-.3.3.3-.3-.3.3.3-.3-.3.3.3-.3-.3.3.3-.3-.3.3.3-.3-.3.3.3-.3-.3.2.3-.2-.3.2.3-.2-.3.2.3-.2-.3.2.3-.2-.3.2.3-.2-.3.2.3-.2-.3.2.3-.2-.3.2.3-.2-.3.2.3-.2-.3.2.3-.2-.2.2.3-.2-.3.2.3-.2-.3.2.3-.2-.3.2.3-.2-.3.2.3-.2-.3.2.3-.2-.3.2.3-.2-.3.2.3-.2-.3.2.3-.2-.3.2.3-.2-.3.2.3-.2-.3.2.3-.2-.3.2.3-.2-.3.2.3-.2-.3.2.3-.2-.3.2.3-.2-.3.1.3-.1-.3.1.3-.1-.3.1.3-.1-.3.1.3-.1-.3.1.3-.1-.3.1.3-.1-.3.1.3-.1-.3.1.3-.2-.3.2.3-.2-.3.2.3-.2-.3.2.3-.2-.3.2.3-.2-.3.2.3-.2-.3.2.3-.2-.3.2.3-.2-.3.2.3-.2-.3.2.3-.2-.3.2.3-.2-.3.2.3-.2-.3.2.3-.2-.3.2.3-.2-.3.2.3-.2-.3.2.3-.2-.3.2.3-.2-.3.1.3-.1-.3.1.3-.1-.3.1.3-.1-.3.1.3-.1-.3.1.3-.1-.3.1.3-.1-.3.1.3-.1-.3.1.4-.1-.4.1.4-.1-.4.1.4-.1-.4.1.4-.1-.4.1.4-.1-.4.1.4-.1-.4.1.4-.1-.4.1.4-.1-.4.1.4-.1-.4.1.4-.1-.4.1.4-.1-.4.1.4-.1-.4.1.4-.1-.4.1.4-.1-.4.1.4-.1-.4v.4-.4.4-.4.4-.4.4-.4.4-.4.4-.4.4-.4.4l-.1-.4.1.4-.1-.4.1.4-.1-.4.1.4-.1-.4.1.4-.1-.4.1.4-.1-.4.1.4-.1-.4.1.4-.1-.4.1.4-.1-.4.1.4-.1-.4.1.4-.1-.4.1.4-.1-.4.1.4-.1-.4.1.4-.1-.4.1.4-.1-.4v.4-.4.4-.4.4-.4.4-.4.4-.4.4-.4.4-.4.4-.4.4-.4.4-.4.4-.4.4-.4.4-.4.4-.4.4-.4.4-.4.4-.4.4-.4.4-.4.4-.4.4-.4.4-.4l-.1.4.1-.4-.1.4.1-.4-.1.4.1-.4-.1.4.1-.4-.1.4.1-.4-.1.4.1-.4-.1.4v-.4.4-.4.4-.4.4-.4.4-.4.4-.4.4-.4.4-.4.4-.4.4-.4.4-.4.4-.4.4-.4.4-.4.4-.4l-.1.4.1-.4-.1.4.1-.4-.1.4.1-.4-.1.4.1-.4-.1.4.1-.4-.1.4.1-.4-.1.4.1-.4-.1.4.1-.4-.1.4.1-.4-.1.4.1-.4-.1.4.1-.4-.1.4.1-.4-.1.4.1-.4-.1.4.1-.4-.1.4.1-.4-.1.4.1-.4-.1.4.1-.4-.1.4.1-.4-.1.4.1-.4-.1.4.1-.4-.1.4.1-.4-.1.4.1-.4-.1.4.1-.4-.2.3.2-.3-.2.3.2-.3-.2.3.2-.3-.2.3.2-.3-.2.3.2-.3-.2.3.2-.3-.2.3.2-.3-.2.3.1-.3-.1.3.1-.3-.1.3.1-.3-.1.3.1-.3-.1.3.1-.3-.1.3.1-.3-.1.3.1-.3-.1.3.1-.3-.1.3.1-.3-.1.3.1-.3-.1.3.1-.3-.1.3.1-.3-.1.3.1-.3-.1.3.1-.3-.1.3.1-.3-.1.3.1-.3-.2.3.2-.3-.2.3.2-.3-.2.3.2-.3-.2.3.2-.3-.2.3.2-.3-.2.3.2-.3-.2.3.2-.3-.2.3.2-.3-.2.3.2-.3-.2.3.2-.3-.2.3.2-.3-.2.3.2-.3-.2.3.2-.3-.2.3.2-.3-.2.3.2-.3-.2.3.2-.3-.2.3.2-.3-.2.3.2-.3-.2.3.2-.3-.2.3.2-.3-.2.3.2-.3-.2.3.2-.3-.2.3.2-.3-.2.3.2-.3-.2.3.2-.4-.3.3.3-.3-.3.3.3-.3-.3.3.3-.3-.3.3.3-.3-.3.3.3-.3-.3.3.3-.3-.3.3.3-.3-.3.3.3-.3-.3.3.3-.3-.3.3.2-.3-.2.3.2-.3-.2.3.2-.3-.2.3.2-.3-.2.3.2-.3-.2.3.2-.3-.2.3.2-.3-.2.3.2-.3-.2.3.2-.3-.2.3.2-.3-.2.3.2-.3-.2.3.2-.3-.2.3.2-.3-.2.3.2-.3-.2.3.2-.3-.2.3.2-.3-.2.3.2-.3-.2.3.2-.3-.2.3.2-.3-.2.3.2-.3-.3.3.3-.3-.3.3.3-.3-.3.3.3-.3-.3.2.3-.2-.3.2.3-.2-.3.2.3-.2-.3.2.3-.2-.3.2.3-.2-.3.2.3-.2-.3.2.3-.2-.3.2.3-.2-.3.2.3-.2-.3.2.3-.2-.3.2.3-.2-.3.2.3-.2-.3.2.3-.2-.3.2.3-.2-.3.2.3-.2-.3.2.3-.2-.3.2.3-.2-.3.2.3-.2-.3.2.3-.2-.3.2.3-.2-.3.2.3-.2-.3.2.3-.2-.3.2.3-.2-.3.2.3-.2-.3.2.3-.2-.3.2.3-.2-.3.2.3-.2-.3.2.3-.3-.3.2.3-.2-.3.2.3-.2-.3.2.3-.2-.3.2.3-.2-.4.2.4-.2-.4.2.4-.2-.4.2.4-.2-.4.2.4-.2-.4.2.4-.2-.4.2.4-.2-.4.2.4-.2-.4.2.4-.2-.4.2.4-.2-.4.2.4-.2-.4.2.4-.2-.4.2.4-.2-.4.2.4-.2-.4.2.4-.2-.4.2.4-.2-.4.2.3-.2-.3.2.3-.2-.3.2.3-.2-.3.2.3-.2-.3.2.3-.2-.3.1.3-.1-.3.1.3-.1-.3.1.3-.1-.3.1.3-.1-.3.1.3-.1-.3.1.3-.1-.3.1.3-.1-.3.1.3-.1-.3.1.3-.1-.3.1.3-.1-.3.1.3-.1-.3.1.3-.1-.3.1.3-.1-.3.1.3-.1-.3.1.3-.1-.3.1.3-.1-.3.1.3-.1-.3.1.3-.1-.3.1.3-.1-.3.1.3-.1-.3.1.3-.1-.3.1.3-.1-.3.1.3-.1h-.3l.3-.1-.3.1.3-.1-.3.1.3-.1-.3.1.3-.1-.3.1.3-.1-.3.1.3-.1-.3.1.3-.1-.3.1.3-.1-.3.1.3-.1-.3.1.3-.1-.3.1.3-.1-.3.1.3-.1-.3.1.3-.1-.3.1.3-.1-.3.1.3-.1-.3.1.3-.1-.3.1.3-.1-.3.1.3-.1-.3.1.3-.1-.3.1.3-.1-.3.1.3-.1-.3.1.3-.1h-.3.3-.3.3-.4.4-.4.4-.4.4-.4.4-.4.4-.4.4-.4.4-.4.4-.4.4-.4.4-.4.4-.4.4-.4.4-.4.4-.4.4-.4.4-.4.4-.4.4-.4.4-.4l.4-.1h-.4.4-.4.4-.4.4-.4.4-.4.4-.4.4-.4.4-.4.4-.4.4-.4.4-.4.4-.4.4-.4.4-.4.4-.4.4-.4.4-.4.4-.4.4-.4.4-.4.4-.3.3l-.3-.1.3.1-.3-.1.3.1-.3-.1.3.1-.3-.1.3.1-.3-.1.3.1-.3-.1.3.1-.3-.1.3.1-.3-.1.3.1-.3-.1.3.1-.3-.1.3.1-.3-.1.3.1-.3-.1.3.1-.3-.1.3.1-.3-.1.3.1-.3-.1.3.1-.3-.1.3.1-.3-.1.3.1-.3-.1.3.1-.3-.1.3.1-.3-.1.3.1-.3-.1.3.1-.3-.1.3.1-.3-.2.3.1-.3-.1.3.1-.3-.1.3.1-.3-.1.3.1-.3-.1.3.1-.3-.1.3.1-.3-.1.3.1-.3-.1.3.1-.3-.1.3.1-.3-.1.3.1-.3-.1.3.1-.3-.1.3.1-.3-.1.3.1-.3-.1.3.1-.3-.1.3.1-.3-.1.3.1-.3-.1.3.1-.3-.1.3.1-.3-.1.3.1-.3-.1.3.1-.3-.1.3.1-.3-.1.3.1-.3-.1.3.1-.3-.2.3.2-.3-.2.3.2-.3-.2.3.2-.3-.2.3.2-.3-.2.3.2-.3-.2.4.2-.4-.2.4.2-.4-.2.4.2-.4-.2.4.2-.4-.2.4.2-.4-.2.4.2-.4-.2.4.2-.4-.2.4.2-.4-.2.4.2-.4-.2.4.2-.4-.2.4.2-.4-.2.4.2-.4-.2.4.2-.4-.2.4.2-.4-.2.4.2-.3-.2.3.2-.3-.2.3.2-.3-.2.3.2-.3-.2.3.2-.3-.2.3.1-.3-.2.3.2-.3-.2.3.2-.3-.2.3.2-.3-.2.3.2-.3-.2.3.2-.3-.2.3.2-.3-.2.3.2-.3-.2.3.2-.3-.2.3.2-.3-.2.3.2-.3-.2.3.2-.3-.2.3.2-.3-.2.3.2-.3-.2.3.2-.3-.2.3.2-.3-.2.3.2-.3-.2.3.2-.3-.2.3.2-.3-.2.3.2-.3-.2.3.2-.3-.2.3.2-.3-.2.3.2-.3-.2.3.2-.3-.2.3.2-.3-.2.3.2-.3-.2.3.2-.3-.2.3.2-.3-.3.3.3-.3-.3.3.3-.3-.3.3.3-.2-.3.2.3-.2-.3.2.3-.2-.3.2.3-.2-.3.2.3-.2-.3.2.3-.2-.3.2.3-.2-.3.2.3-.2-.3.2.3-.2-.3.2.3-.2-.3.2.3-.2-.3.2.3-.2-.3.2.3-.2-.3.2.3-.2-.3.2.3-.2-.3.2.3-.2-.3.2.3-.2-.3.2.3-.2-.3.2.3-.2-.3.2.3-.2-.3.2.3-.2-.3.3.3-.3-.3.3.3-.3-.3.3.3-.3-.3.3.3-.3-.3.3.3-.3-.3.3.3-.3-.3.3.3-.3-.3.3.3-.3-.3.3.3-.2-.3.2.2-.2-.3.2.3-.2-.3.2.3-.2-.3.2.3-.2-.3.2.3-.2-.3.2.3-.2-.3.2.3-.2-.3.2.3-.2-.3.2.3-.2-.3.2.3-.2-.3.2.3-.2-.3.2.3-.2-.3.2.3-.2-.3.2.3-.2-.3.2.3-.2-.3.2.3-.2-.3.2.3-.2-.3.2.3-.2-.3.2.3-.2-.3.2.3-.2-.3.2.3-.2-.3.2.3-.2-.3.2.3-.2-.3.2.3-.2-.3.2.3-.1-.3.1.3-.1-.3.1.3-.1-.3.1.3-.1-.3.1.3-.1-.3.1.3-.1-.3.1.3-.1-.3.1.3-.1-.3.1.3-.1-.3.1.3-.1-.3.1.3-.1-.3.1.3-.1-.3.1.3-.1-.3.1.3-.1-.3.1.3-.1-.3.1.3-.1-.3.1.3-.1-.3.2.3-.2-.3.2.3-.2-.3.2.3-.2-.3.2.3-.2-.3.2.3-.2-.3.2.3-.2-.3.2.3-.2-.4.2.4-.1-.4.1.4-.1-.4.1.4-.1-.4.1.4-.1-.4.1.4-.1-.4.1.4-.1-.4.1.4-.1-.4.1.4-.1-.4.1.4-.1-.4.1.4-.1-.4.1.4-.1-.4.1.4-.1-.4.1.4-.1-.4.1.4-.1-.4.1.4-.1-.4.1.4-.1-.4.1.4-.1-.4.1.4-.1-.4.1.4-.1-.4.1.4-.1-.4.1.4-.1-.4.1.4-.1-.4.1.4v-.4.4-.4.4-.4.4-.4.4-.4.4-.4.4-.4.4-.4.4-.4.4-.4.4-.4.4-.4.4-.4.4-.4.4-.4l.1.4-.1-.4.1.4-.1-.4.1.4-.1-.4.1.4-.1-.4.1.4-.1-.4.1.4-.1-.4.1.4-.1-.4.1.4v-.4.4-.4.4-.4.4-.4.4-.4.4-.4.4-.4.4-.4.4-.4.4-.4.4-.4.4-.4.4-.4.4-.4.4-.4.4-.4.4-.4.4-.4.4-.4.4-.4.4-.4.4l.1-.4-.1.4.1-.4-.1.4.1-.4-.1.4.1-.4-.1.4.1-.4-.1.4.1-.4-.1.4.1-.4-.1.4.1-.4-.1.4.1-.4-.1.4.1-.4-.1.4.1-.4-.1.4.1-.4-.1.4.1-.4-.1.4.1-.4-.1.4.1-.4v.4-.4.4-.4.4-.4.4-.4.4-.4.4-.4.4-.4.4l.1-.4-.1.4.1-.4-.1.4.1-.4-.1.4.1-.4-.1.4.1-.4-.1.4.1-.4-.1.4.1-.4-.1.4.1-.4-.1.4.1-.4-.1.4.1-.4-.1.4.1-.4-.1.4.1-.4-.1.4.1-.4-.1.4.1-.4-.1.4.1-.4-.1.4.1-.3-.1.3.1-.3-.1.3.1-.3-.1.3.1-.3-.1.3.1-.3-.1.3.1-.3-.1.3.1-.3-.1.3.1-.3-.1.3.2-.3-.2.3.2-.3-.2.3.2-.3-.2.3.2-.3-.2.3.2-.3-.2.3.2-.3-.2.3.2-.3-.2.3.2-.3-.2.3.2-.3-.2.3.2-.3-.2.3.2-.3-.2.3.2-.3-.2.3.2-.3-.2.3.2-.3-.2.3z"/>
  </g>
</svg>
