<?xml version="1.0" encoding="UTF-8"?>
<svg width="100px" height="100px" viewBox="0 0 100 100" version="1.1" xmlns="http://www.w3.org/2000/svg" xmlns:xlink="http://www.w3.org/1999/xlink">
    <!-- Generator: Sketch 63.1 (92452) - https://sketch.com -->
    <title>Pizza</title>
    <desc>Created with Sketch.</desc>
    <g id="Pizza" stroke="none" stroke-width="1" fill="none" fill-rule="evenodd">
        <path d="M43.1690745,2.00643052 C74.0985781,2.00643052 99.1706706,27.0796402 99.1706706,58.0080266 C99.1706706,60.724685 97.7551968,63.768859 95.3037131,66.3354731 C94.3178077,67.3676801 92.6818044,67.405215 91.6495974,66.4193096 C90.6173903,65.4334042 90.5798554,63.7974009 91.5657608,62.7651939 C93.1570063,61.0992178 94.0016106,59.2827784 94.0016106,58.0080266 C94.0016106,29.9343817 71.2437336,7.17549052 43.1690745,7.17549052 C40.6236107,7.17549052 37.1956705,9.6151733 35.3002898,13.7499513 L29.5560916,27.0834447 L27.8028063,31.1797515 C26.1074664,35.1515636 24.5738434,38.7792972 23.0928609,42.3276031 L22.0283774,44.88666 C21.5043019,46.1509887 20.9923213,47.3929511 20.4917412,48.6144974 L19.1033657,52.0224883 C14.810141,62.6262415 11.5014049,71.4394082 9.26721075,78.3903686 L9.09306107,78.9352584 C7.70419267,83.3060689 6.78491371,86.830791 6.37182525,89.4139711 C6.16915611,90.681329 6.09492498,91.6875688 6.140852,92.3918728 L6.15330858,92.5458656 L6.166,92.66 L6.26857953,92.6775134 C6.60873007,92.7246052 7.05574357,92.7427869 7.59839793,92.7262872 L7.87764323,92.7151206 C9.43754827,92.6384584 11.5524673,92.3084735 14.1652142,91.73408 L14.6609242,91.6235192 C20.0275715,90.4098227 27.2443123,88.2506124 36.0215234,85.2746977 L37.9663274,84.6108463 C51.7082079,79.889328 68.1170627,73.6148559 85.5348013,66.5918209 C86.8586345,66.058036 88.3645316,66.6984966 88.8983166,68.0223298 C89.4321015,69.3461631 88.7916409,70.8520601 87.4678077,71.3858451 L84.9753601,72.3884782 C67.5788454,79.3699391 51.2711669,85.5623882 37.6812893,90.1700382 L34.6263855,91.196172 C15.7394997,97.4762035 5.57795503,99.5793156 2.39860206,96.3988134 C-1.53343759,92.4626449 3.08509737,77.6017688 14.9718772,48.4567158 L15.7087098,46.6544484 C16.3796489,45.0171817 17.0707765,43.3438769 17.7837619,41.6298467 L19.070746,38.5480702 C20.7032652,34.6535082 22.4182648,30.6156428 24.3549311,26.0967278 L30.4043142,12.0400896 C33.0465877,5.88493581 38.3924225,2.00643052 43.1690745,2.00643052 Z M25.8405744,50.647617 C32.5163626,52.4434061 37.2355105,58.5153563 37.2355105,65.5267689 C37.2355105,74.0407495 30.3409179,80.9391828 21.8299887,80.9391828 C19.2920668,80.9391828 16.8359844,80.324766 14.6468054,79.1655395 C13.385349,78.497566 12.9042361,76.9334541 13.5722096,75.6719977 C14.2134641,74.4609996 15.6805999,73.969166 16.9130006,74.5227371 L17.0657514,74.5974019 C18.5122511,75.3633606 20.1382507,75.7701228 21.8299887,75.7701228 C27.4854803,75.7701228 32.0664505,71.1866007 32.0664505,65.5267689 C32.0664505,60.8673 28.9297445,56.8314182 24.4978286,55.6392314 C23.1194323,55.2684424 22.3026052,53.8504475 22.6733943,52.4720513 C23.0441833,51.093655 24.4621781,50.2768279 25.8405744,50.647617 Z M71.5399772,51.2935899 C77.3799861,51.2935899 82.6391644,54.5747459 85.2594658,59.6795599 C85.9112928,60.9494349 85.4102658,62.5072821 84.1403909,63.159109 C82.8705159,63.8109359 81.3126687,63.309909 80.6608418,62.040034 C78.9170952,58.6429051 75.4224882,56.4626499 71.5399772,56.4626499 C65.8840385,56.4626499 61.2966233,61.0500651 61.2966233,66.7060038 C61.2966233,67.8194461 61.4786016,68.9158221 61.8291464,69.9604173 C62.2832635,71.3136499 61.5543865,72.7787963 60.2011539,73.2329135 C58.8479213,73.6870306 57.3827749,72.9581535 56.9286577,71.6049209 C56.4016625,70.0345175 56.1275633,68.3831352 56.1275633,66.7060038 C56.1275633,58.1952721 63.0292455,51.2935899 71.5399772,51.2935899 Z M69.5571258,30.6645607 C73.9629349,30.6645607 77.5329854,34.2401266 77.5329854,38.6524814 C77.5329854,40.0798779 76.3758519,41.2370114 74.9484554,41.2370114 C73.5759588,41.2370114 72.4533355,40.1671764 72.3690101,38.8159311 L72.3639254,38.6524814 C72.3639254,37.0931348 71.1063541,35.8336207 69.5571258,35.8336207 C67.9946374,35.8336207 66.7348191,37.0926067 66.7348191,38.6524814 C66.7348191,40.1423751 67.9040799,41.3639848 69.3849251,41.4524307 L69.5571258,41.4575579 C70.9845223,41.4575579 72.1416558,42.6146914 72.1416558,44.0420879 C72.1416558,45.4694845 70.9845223,46.6266179 69.5571258,46.6266179 C65.1437624,46.6266179 61.5657591,43.0572819 61.5657591,38.6524814 C61.5657591,34.2370487 65.1406088,30.6645607 69.5571258,30.6645607 Z M42.6828383,13.3323579 C51.1923884,13.3323579 58.0935292,20.2328584 58.0935292,28.7430488 C58.0935292,37.252797 51.1928312,44.1502936 42.6828383,44.1502936 C37.4990761,44.1502936 32.7549053,41.5746295 29.9055292,37.3601046 C29.1060586,36.177604 29.4165657,34.5708989 30.5990662,33.7714283 C31.7815668,32.9719577 33.3882719,33.2824649 34.1877425,34.4649654 C36.0856125,37.2721135 39.2336774,38.9812336 42.6828383,38.9812336 C48.338575,38.9812336 52.9244692,34.3974669 52.9244692,28.7430488 C52.9244692,23.0877587 48.3377027,18.5014179 42.6828383,18.5014179 C42.0624505,18.5014179 41.4393359,18.5594141 40.8149463,18.6731981 C39.4106763,18.9291015 38.0648399,17.9981665 37.8089365,16.5938965 C37.553033,15.1896265 38.4839681,13.84379 39.8882381,13.5878866 C40.8139622,13.4191897 41.7468877,13.3323579 42.6828383,13.3323579 Z" id="Pizza-outline-2" fill="#00B077"></path>
    </g>
</svg>