<?xml version="1.0" encoding="UTF-8"?>
<svg width="100px" height="100px" viewBox="0 0 100 100" version="1.1" xmlns="http://www.w3.org/2000/svg" xmlns:xlink="http://www.w3.org/1999/xlink">
    <!-- Generator: Sketch 63.1 (92452) - https://sketch.com -->
    <title>Pretzel</title>
    <desc>Created with Sketch.</desc>
    <defs>
        <path d="M79.0440829,5.0035314 C93.3476696,12.9920277 102.136666,30.5238231 98.1922129,47.6226877 C96.6096323,54.4749339 93.9037801,60.3023617 90.0310211,65.7422138 L89.6200483,66.3139013 C87.0941191,69.7925699 84.6792194,72.4596774 79.9097424,77.2616264 L78.2883283,78.8865474 C72.7061814,84.4586879 69.9318547,86.9834898 65.9690282,89.8041487 C60.5285786,93.6765496 54.7000673,96.3815793 47.8475049,97.9623579 C30.7518156,101.911964 13.2161298,93.1212893 5.22972931,78.8156831 C-1.79056705,66.2416591 -0.0951488315,52.0922914 9.63622793,41.970069 L9.97179501,41.625971 C18.3646627,33.2669532 29.1978803,30.2298148 39.6814527,33.4482903 C49.9814277,36.6107369 58.0059161,45.2991363 60.5292157,55.8494894 C68.2623484,56.7506168 75.6518438,53.9358887 81.8743049,47.7104415 C82.8719742,46.7143866 83.8246028,45.6379564 84.7258064,44.4858868 C87.2910425,41.2110081 86.7174384,36.4777825 83.4440652,33.9134478 C80.242279,31.4064479 75.6386303,31.9062203 73.0369193,34.9930633 L72.8701157,35.1980427 C69.7016565,39.2387339 65.845184,41.5795812 61.3027786,40.7381745 C53.7048283,39.3317129 50.0721938,30.1320851 56.0828129,24.123685 L56.5196233,23.701849 C56.8637563,23.3798418 57.1751323,23.1187466 57.5807452,22.8218494 C58.4210114,22.2067985 59.3429316,21.7162982 60.3740013,21.3871279 C63.031907,20.5385881 66.0098151,20.8937168 69.1790302,22.6632917 C69.4440157,22.8109553 69.7098544,22.9690353 69.9752252,23.1364231 C71.1825143,23.8979439 71.5438809,25.4939796 70.7823601,26.7012687 C70.0208393,27.9085577 68.4248036,28.2699243 67.2175145,27.5084035 C67.0300665,27.3901671 66.8446382,27.2799029 66.6609484,27.1775403 C63.3609606,25.3349478 61.6609977,25.8776631 59.7270715,27.7895213 C56.8378011,30.677752 58.5320411,34.968406 62.2439451,35.655519 C64.3702104,36.049375 66.5446158,34.7856781 68.5924772,32.2712399 L68.8038663,32.0066806 C73.1330327,26.4956518 81.1122865,25.5225721 86.6312822,29.8439479 C92.1529106,34.1695479 93.1202442,42.1517224 88.7961344,47.6720456 C87.766597,48.9881741 86.6740529,50.2227029 85.5283405,51.3665594 C78.5799824,58.318254 70.1563651,61.729617 61.3122126,61.1132066 C61.843405,69.9411968 58.4276979,78.4641821 51.590408,85.3031088 C50.4307736,86.4589963 49.2006654,87.5479823 47.8998602,88.5655323 C42.3769827,92.8921108 34.3959858,91.9240888 30.0722599,86.4020913 C25.8183174,80.9734734 26.6927236,73.1588394 31.9829865,68.7767607 L32.2382387,68.570708 C34.9228592,66.4765195 36.2926449,64.2192043 35.8838305,62.0173778 C35.1840791,58.249486 31.0360569,56.4808805 28.0274673,59.489392 L27.7405125,59.7859271 C27.5296495,60.0100647 27.3795043,60.1889074 27.2154724,60.4135243 C26.1187862,61.9152696 25.9164785,63.6263156 27.2618554,66.1688825 L27.40658,66.4348984 C27.4913537,66.5869925 27.5904071,66.7528811 27.7128915,66.9488562 C28.4694102,68.159286 28.1014424,69.7538128 26.8910126,70.5103314 C25.6805828,71.2668501 24.086056,70.8988824 23.3295374,69.6884525 C23.1646126,69.4245728 23.0229321,69.1872948 22.8927405,68.9537132 C20.3654929,64.4299808 20.7586213,60.4904599 23.0410353,57.3650399 C23.4581862,56.7938151 23.8024133,56.4116338 24.3604845,55.8462981 C30.5553648,49.6514179 39.557566,53.4897154 40.966012,61.0736551 C41.8102651,65.6207029 39.4609035,69.4922936 35.4258352,72.639897 C32.1560366,75.2120529 31.579874,79.9455541 34.1415403,83.2145943 C36.7051831,86.4887214 41.4364448,87.0625802 44.7135944,84.4952881 C45.8518677,83.6048773 46.9270594,82.6530353 47.9380708,81.645296 C54.5563904,75.0253874 57.3327956,66.742589 55.7724488,58.3273053 C54.0397254,48.9749818 47.111288,41.1367228 38.164349,38.3897049 C29.7061687,35.7930284 20.9859227,38.1576578 13.9634684,44.950771 L13.7878221,45.123278 L13.6780598,45.2365926 L13.582,45.325 L13.3348271,45.5813669 C5.31471706,53.9467745 3.86501485,65.421689 9.52997626,75.9080042 L9.74304383,76.2959265 C16.6533636,88.6740077 31.9331918,96.3338162 46.6847737,92.9257681 C52.8566719,91.5020079 58.0670661,89.0838482 62.9715657,85.5929257 L63.7600312,85.0231484 C67.0314281,82.6214895 69.6518446,80.2041484 74.6472041,75.2175357 L76.5807125,73.2777691 C81.1795702,68.6356572 83.405185,66.1364257 85.8200846,62.7443488 C89.3114875,57.8401666 91.7304798,52.6305313 93.1555841,46.4601254 C96.5591573,31.7059289 88.9005133,16.4288973 76.5238269,9.51656708 C65.8036927,3.53063332 53.9946524,5.02342785 45.5071528,13.4041767 C41.218748,17.6580609 38.6004724,22.6025813 37.8207434,27.7929464 C37.6086904,29.2045038 36.2924941,30.1768943 34.8809367,29.9648413 C33.4693793,29.7527883 32.4969888,28.4365921 32.7090418,27.0250347 C33.6591052,20.7008172 36.8099292,14.750598 41.8710765,9.73020125 C52.0132162,-0.284387951 66.3323348,-2.09448441 79.0440829,5.0035314 Z M13.4498077,61.4216128 C15.3465456,61.2649679 17.0111414,62.675592 17.1677863,64.5723299 L17.1677863,64.5723299 L17.2500926,65.568937 C17.4067376,67.465675 15.9961135,69.1302707 14.0993755,69.2869157 C12.2026376,69.4435606 10.5380418,68.0329365 10.3813969,66.1361986 L10.3813969,66.1361986 L10.2990906,65.1395915 C10.1424456,63.2428535 11.5530697,61.5782578 13.4498077,61.4216128 Z M14.3378594,51.1576598 C15.4565713,49.6179727 17.6116294,49.2767049 19.1513165,50.3954167 C20.6910036,51.5141285 21.0322715,53.6691866 19.9135596,55.2088737 L19.9135596,55.2088737 L19.3257525,56.0178748 C18.2070407,57.5575619 16.0519826,57.8988298 14.5122955,56.780118 C12.9726084,55.6614062 12.6313405,53.506348 13.7500523,51.9666609 L13.7500523,51.9666609 Z M35.2890054,44.945396 C36.1396285,43.2428706 38.2093644,42.5522673 39.9118898,43.4028905 L39.9118898,43.4028905 L40.8064514,43.8498352 C42.5089768,44.7004583 43.19958,46.7701942 42.3489569,48.4727196 C41.4983337,50.175245 39.4285979,50.8658482 37.7260725,50.0152251 L37.7260725,50.0152251 L36.8315109,49.5682804 C35.1289855,48.7176572 34.4383823,46.6479214 35.2890054,44.945396 Z M26.079838,42.7139286 C27.8990232,42.154717 29.8270948,43.1761275 30.3863063,44.9953127 C30.9455179,46.814498 29.9241075,48.7425695 28.1049222,49.3017811 L28.1049222,49.3017811 L27.1490638,49.5956088 C25.3298786,50.1548204 23.401807,49.13341 22.8425955,47.3142247 C22.2833839,45.4950395 23.3047943,43.5669679 25.1239796,43.0077563 L25.1239796,43.0077563 Z M51.6245475,13.4109505 C53.1464911,12.2682168 55.3066388,12.5756272 56.4493724,14.0975708 C57.5921061,15.6195144 57.2846957,17.7796621 55.7627521,18.9223958 L55.7627521,18.9223958 L54.963074,19.5228248 C53.4411304,20.6655584 51.2809827,20.358148 50.138249,18.8362044 C48.9955154,17.3142608 49.3029258,15.1541131 50.8248694,14.0113794 L50.8248694,14.0113794 Z M61.4033006,13.1137222 C61.6097451,11.2217568 63.3108424,9.85537208 65.2028078,10.0618166 L65.2028078,10.0618166 L66.1969073,10.1702891 C68.0888727,10.3767336 69.4552574,12.0778309 69.2488129,13.9697964 C69.0423685,15.8617618 67.3412711,17.2281465 65.4493057,17.021702 L65.4493057,17.021702 L64.4552063,16.9132295 C62.5632408,16.706785 61.1968561,15.0056876 61.4033006,13.1137222 Z" id="path-1"></path>
    </defs>
    <g id="Pretzel" stroke="none" stroke-width="1" fill="none" fill-rule="evenodd">
        <mask id="mask-2" fill="white">
            <use xlink:href="#path-1"></use>
        </mask>
        <use fill="#00B077" xlink:href="#path-1"></use>
    </g>
</svg>