<?xml version="1.0" encoding="UTF-8"?>
<svg width="100px" height="100px" viewBox="0 0 100 100" version="1.1" xmlns="http://www.w3.org/2000/svg" xmlns:xlink="http://www.w3.org/1999/xlink">
    <!-- Generator: Sketch 63.1 (92452) - https://sketch.com -->
    <title>Taco</title>
    <desc>Created with Sketch.</desc>
    <g id="Taco" stroke="none" stroke-width="1" fill="none" fill-rule="evenodd">
        <path d="M67.7779354,16.2527489 C82.7134416,16.2527489 95.1762548,29.3762015 98.8425969,48.6467108 C100.11313,55.2767619 98.0867112,60.4804266 91.4699541,63.8546355 L90.0977164,64.5232774 C87.4780985,65.7811378 81.2172296,68.7525858 72.1654571,73.0370246 L39.7657765,88.3515242 C38.4750089,88.9609335 36.9346111,88.4085834 36.3252018,87.1178158 C35.7401689,85.8786788 36.2258135,84.4094828 37.4075897,83.7547634 L87.2454759,60.1582777 C87.9952085,59.7994688 88.5352313,59.5393643 88.8529062,59.3839222 C93.4802556,57.1226372 94.6476093,54.2205502 93.7652686,49.6161987 C90.5221552,32.570215 79.9349639,21.4218089 67.7779354,21.4218089 C48.8650776,21.4218089 33.6132191,44.5603517 33.3100732,74.2808599 L33.3054742,75.1834789 C33.3054742,86.2864349 26.2455976,93.7245859 17.1763143,93.8244602 C8.06909301,93.9247524 0.990234128,86.5874661 0.990234128,75.3816262 C0.990234128,49.6430399 9.23525047,29.6276404 24.4705885,20.07954 C25.6800892,19.3215368 27.2750662,19.6875479 28.0330694,20.8970486 C28.7910725,22.1065493 28.4250615,23.7015264 27.2155607,24.4595295 C13.712381,32.9220734 6.15929413,51.2577618 6.15929413,75.3816262 C6.15929413,83.7634367 10.944861,88.7237099 17.1193941,88.6557136 C23.2139889,88.5885977 27.989779,83.6531898 28.1331008,75.5592805 L28.1364142,75.1834789 C28.1364142,42.5225926 45.2375587,16.2527489 67.7779354,16.2527489 Z M60.2023536,5.51061034 C63.1123899,5.474934 65.1676761,7.11083307 66.8106472,10.0182224 C67.5128992,11.2609222 67.0747797,12.8376172 65.8320798,13.5398692 C64.58938,14.2421212 63.012685,13.8040017 62.310433,12.5613018 C61.4992431,11.1258263 60.9280192,10.6711623 60.2667936,10.6792685 C59.6269026,10.6873793 59.2533315,10.9170831 58.457656,11.8768557 L57.3788828,13.2220357 C56.7789689,13.9527002 56.239127,14.5287062 55.6154318,15.0645253 C53.8437945,16.5865411 51.6038797,17.1766799 48.8691534,17.191889 C48.0151554,17.1966385 47.2254378,17.1527929 46.1638678,17.0538731 L45.0416454,16.9411618 C42.1870191,16.6440079 40.8755359,17.1349845 40.2148179,18.19718 C39.5837168,19.2117624 39.3444377,20.7066963 39.2127731,23.9747527 C38.9864157,29.530102 35.343927,32.8024991 30.141976,34.0684735 L29.8341942,34.1406304 C27.4777566,34.6731693 27.0836628,35.682777 27.7778953,38.8658282 L27.8349483,39.1216681 C27.9035719,39.4231207 27.9776554,39.7252038 28.0719623,40.0893287 L28.5411097,41.8561234 C29.3811303,45.0604231 29.4793583,46.0326987 28.9410258,47.6223132 C28.0452137,50.2772851 26.339005,51.5594822 22.8531675,53.1111751 L21.488636,53.7098217 C19.5301917,54.5904068 18.9223194,55.0682382 18.8160027,55.6002532 C18.6374642,56.4942558 19.1590615,57.5829864 20.9193252,59.8693324 L21.8055868,61.0038549 C24.1466254,64.017697 24.8811732,65.3536881 24.9514796,67.5603814 C24.9623779,67.9024429 24.9449704,68.2434385 24.8977263,68.5854216 C24.2025959,73.5733275 19.1657905,77.2548245 14.1689776,76.9207282 C12.7447611,76.8255024 11.6674012,75.593751 11.762627,74.1695344 C11.8541903,72.8000954 12.9965353,71.7513449 14.3503959,71.757353 L14.5138208,71.7631838 C16.9144454,71.923694 19.4742259,70.0527016 19.7777181,67.875008 C19.7842248,67.8279064 19.7867465,67.7785097 19.7850412,67.7249871 C19.7610698,66.9726023 19.1821769,66.0227258 17.2552439,63.576716 C14.2000498,59.6985145 13.1362409,57.6464084 13.7471006,54.5876266 C14.2949267,51.8462737 15.81858,50.5991527 19.2739837,49.0379516 L20.4438375,48.5241809 C22.8627073,47.4692416 23.7516342,46.8340266 24.044172,45.9670198 C24.1318744,45.7080472 23.998151,44.9021666 23.4171553,42.7006305 L23.0627151,41.3650066 C22.9587689,40.9631654 22.8749112,40.6207923 22.7948318,40.2690158 C21.494536,34.5570227 22.7764271,30.5654048 28.395835,29.1695899 L28.6956078,29.0985275 C32.0229513,28.3477512 33.9288113,26.6894511 34.0479509,23.7654893 L34.0840847,22.9549121 C34.2647729,19.2998295 34.6297537,17.3894765 35.8256159,15.4669626 C37.5979998,12.6176105 40.7322298,11.3835394 45.1918476,11.7634218 L46.5498326,11.8982401 C47.5007086,11.9882851 48.1664247,12.0266573 48.8404063,12.022909 C50.4639685,12.0138796 51.57476,11.721225 52.2470246,11.1436817 C52.5584497,10.8761352 52.8584248,10.5653133 53.2059055,10.1553996 L53.6085738,9.66302934 C53.8617296,9.34639324 54.2107931,8.90583522 54.283273,8.81616286 C56.059237,6.6189357 57.6358068,5.54314147 60.2023536,5.51061034 Z" fill="#00B077"></path>
    </g>
</svg>