<?xml version="1.0" encoding="UTF-8"?>
<svg width="100px" height="100px" viewBox="0 0 100 100" version="1.1" xmlns="http://www.w3.org/2000/svg" xmlns:xlink="http://www.w3.org/1999/xlink">
    <!-- Generator: Sketch 63.1 (92452) - https://sketch.com -->
    <title>Calculator</title>
    <desc>Created with Sketch.</desc>
    <g id="Calculator" stroke="none" stroke-width="1" fill="none" fill-rule="evenodd">
        <path d="M79.844228,0.735104 L19.824828,0.735104 C12.7251266,0.735104 6.924828,6.53473599 6.924828,13.635104 L6.924828,85.875104 C6.924828,92.975472 12.7251266,98.775104 19.824828,98.775104 L79.844228,98.775104 C86.9451227,98.775104 92.744228,92.9759987 92.744228,85.875104 L92.744228,13.635104 C92.744228,6.53420935 86.9451227,0.735104 79.844228,0.735104 Z M19.824828,5.895104 L79.844228,5.895104 C84.0953333,5.895104 87.584228,9.38399865 87.584228,13.635104 L87.584228,85.875104 C87.584228,90.1262093 84.0953333,93.615104 79.844228,93.615104 L19.824828,93.615104 C15.5747832,93.615104 12.084828,90.1255499 12.084828,85.875104 L12.084828,13.635104 C12.084828,9.38465808 15.5747832,5.895104 19.824828,5.895104 Z M80.453452,28.834572 C81.8783467,28.834572 83.033452,29.9896773 83.033452,31.414572 C83.033452,32.784663 81.9654922,33.9053186 80.6166153,33.9894962 L80.453452,33.994572 L19.484612,33.994572 C18.0597173,33.994572 16.904612,32.8394667 16.904612,31.414572 C16.904612,30.044481 17.9725718,28.9238254 19.3214487,28.8396478 L19.484612,28.834572 L80.453452,28.834572 Z M28.34846,45.39284 C23.4831892,45.39284 19.53518,49.3416015 19.53518,54.20784 C19.53518,59.0726271 23.4834576,63.0194 28.34846,63.0194 C33.2146985,63.0194 37.16174,59.0731108 37.16174,54.20784 C37.16174,49.3411174 33.214967,45.39284 28.34846,45.39284 Z M28.34846,50.55284 C30.3647373,50.55284 32.00174,52.1904666 32.00174,54.20784 C32.00174,56.2231013 30.3651294,57.8594 28.34846,57.8594 C26.3328067,57.8594 24.69518,56.2223974 24.69518,54.20784 C24.69518,52.1911708 26.3331986,50.55284 28.34846,50.55284 Z M49.835044,45.39284 C44.9673008,45.39284 41.021764,49.3406331 41.021764,54.20784 C41.021764,59.0735947 44.9675693,63.0194 49.835044,63.0194 C54.7011748,63.0194 58.646604,59.0732186 58.646604,54.20784 C58.646604,49.3410093 54.7014434,45.39284 49.835044,45.39284 Z M49.835044,50.55284 C51.8507732,50.55284 53.486604,52.1899184 53.486604,54.20784 C53.486604,56.2236495 51.8511653,57.8594 49.835044,57.8594 C47.8173587,57.8594 46.181764,56.2238053 46.181764,54.20784 C46.181764,52.1897623 47.8177507,50.55284 49.835044,50.55284 Z M71.321628,45.39284 C66.4537772,45.39284 62.506628,49.3407413 62.506628,54.20784 C62.506628,59.0734868 66.4540456,63.0194 71.321628,63.0194 C76.1865227,63.0194 80.133188,59.0727347 80.133188,54.20784 C80.133188,49.3414936 76.1867912,45.39284 71.321628,45.39284 Z M71.321628,50.55284 C73.3363413,50.55284 74.973188,52.1906228 74.973188,54.20784 C74.973188,56.2229453 73.3367333,57.8594 71.321628,57.8594 C69.3033947,57.8594 67.666628,56.2232571 67.666628,54.20784 C67.666628,52.1903106 69.3037866,50.55284 71.321628,50.55284 Z M28.34846,65.764176 C23.4834576,65.764176 19.53518,69.7109489 19.53518,74.575736 C19.53518,79.4419745 23.4831892,83.390736 28.34846,83.390736 C33.214967,83.390736 37.16174,79.4424586 37.16174,74.575736 C37.16174,69.7104652 33.2146985,65.764176 28.34846,65.764176 Z M28.34846,70.924176 C30.3651294,70.924176 32.00174,72.5604747 32.00174,74.575736 C32.00174,76.5931094 30.3647373,78.230736 28.34846,78.230736 C26.3331986,78.230736 24.69518,76.5924052 24.69518,74.575736 C24.69518,72.5611786 26.3328067,70.924176 28.34846,70.924176 Z M49.835044,65.764176 C44.9675693,65.764176 41.021764,69.7099813 41.021764,74.575736 C41.021764,79.4429429 44.9673008,83.390736 49.835044,83.390736 C54.7014434,83.390736 58.646604,79.4425667 58.646604,74.575736 C58.646604,69.7103574 54.7011748,65.764176 49.835044,65.764176 Z M49.835044,70.924176 C51.8511653,70.924176 53.486604,72.5599265 53.486604,74.575736 C53.486604,76.5936576 51.8507732,78.230736 49.835044,78.230736 C47.8177507,78.230736 46.181764,76.5938137 46.181764,74.575736 C46.181764,72.5597707 47.8173587,70.924176 49.835044,70.924176 Z M71.321628,70.924176 C73.3367333,70.924176 74.973188,72.5606307 74.973188,74.575736 C74.973188,76.5929532 73.3363413,78.230736 71.321628,78.230736 C69.3037866,78.230736 67.666628,76.5932654 67.666628,74.575736 C67.666628,72.5603189 69.3033947,70.924176 71.321628,70.924176 Z M71.321628,65.764176 C66.4540456,65.764176 62.506628,69.7100892 62.506628,74.575736 C62.506628,79.4428347 66.4537772,83.390736 71.321628,83.390736 C76.1867912,83.390736 80.133188,79.4420824 80.133188,74.575736 C80.133188,69.7108413 76.1865227,65.764176 71.321628,65.764176 Z" fill="#00B077"></path>
    </g>
</svg>