<?xml version="1.0" encoding="UTF-8"?>
<svg width="100px" height="100px" viewBox="0 0 100 100" version="1.1" xmlns="http://www.w3.org/2000/svg" xmlns:xlink="http://www.w3.org/1999/xlink">
    <!-- Generator: Sketch 63.1 (92452) - https://sketch.com -->
    <title>Keyboard</title>
    <desc>Created with Sketch.</desc>
    <g id="Keyboard" stroke="none" stroke-width="1" fill="none" fill-rule="evenodd">
        <path d="M87.813028,24.060872 L12.243108,24.060872 C6.05776724,24.060872 1.008068,29.1112634 1.008068,35.295912 L1.008068,75.750312 C1.008068,81.9349606 6.05776724,86.985352 12.243108,86.985352 L87.813028,86.985352 C93.9971627,86.985352 99.048068,81.9344467 99.048068,75.750312 L99.048068,35.295912 C99.048068,29.1117773 93.9971627,24.060872 87.813028,24.060872 Z M12.243108,29.220872 L87.813028,29.220872 C91.1473733,29.220872 93.888068,31.9615667 93.888068,35.295912 L93.888068,75.750312 C93.888068,79.0846573 91.1473733,81.825352 87.813028,81.825352 L12.243108,81.825352 C8.90771487,81.825352 6.168068,79.0853296 6.168068,75.750312 L6.168068,35.295912 C6.168068,31.9608944 8.90771487,29.220872 12.243108,29.220872 Z M50.698008,69.734956 C52.1229027,69.734956 53.278008,70.8900613 53.278008,72.314956 C53.278008,73.685047 52.2100482,74.8057026 50.8611713,74.8898802 L50.698008,74.894956 L25.503448,74.894956 C24.0785533,74.894956 22.923448,73.7398507 22.923448,72.314956 C22.923448,70.944865 23.9914078,69.8242094 25.3402847,69.7400318 L25.503448,69.734956 L50.698008,69.734956 Z M17.618968,69.734956 C19.0438627,69.734956 20.198968,70.8900613 20.198968,72.314956 C20.198968,73.685047 19.1310082,74.8057026 17.7821313,74.8898802 L17.618968,74.894956 L13.666408,74.894956 C12.2415133,74.894956 11.086408,73.7398507 11.086408,72.314956 C11.086408,70.944865 12.1543678,69.8242094 13.5032447,69.7400318 L13.666408,69.734956 L17.618968,69.734956 Z M62.533844,69.734956 C63.9587387,69.734956 65.113844,70.8900613 65.113844,72.314956 C65.113844,73.685047 64.0458842,74.8057026 62.6970073,74.8898802 L62.533844,74.894956 L58.581284,74.894956 C57.1563893,74.894956 56.001284,73.7398507 56.001284,72.314956 C56.001284,70.944865 57.0692438,69.8242094 58.4181207,69.7400318 L58.581284,69.734956 L62.533844,69.734956 Z M74.461356,69.734956 C75.8862507,69.734956 77.041356,70.8900613 77.041356,72.314956 C77.041356,73.685047 75.9733962,74.8057026 74.6245193,74.8898802 L74.461356,74.894956 L70.508796,74.894956 C69.0839013,74.894956 67.928796,73.7398507 67.928796,72.314956 C67.928796,70.944865 68.9967558,69.8242094 70.3456327,69.7400318 L70.508796,69.734956 L74.461356,69.734956 Z M86.388868,69.734956 C87.8137627,69.734956 88.968868,70.8900613 88.968868,72.314956 C88.968868,73.685047 87.9009082,74.8057026 86.5520313,74.8898802 L86.388868,74.894956 L82.436308,74.894956 C81.0114133,74.894956 79.856308,73.7398507 79.856308,72.314956 C79.856308,70.944865 80.9242678,69.8242094 82.2731447,69.7400318 L82.436308,69.734956 L86.388868,69.734956 Z M57.761876,60.537084 C59.1867707,60.537084 60.341876,61.6921893 60.341876,63.117084 C60.341876,64.487175 59.2739162,65.6078306 57.9250393,65.6920082 L57.761876,65.697084 L53.809316,65.697084 C52.3844213,65.697084 51.229316,64.5419787 51.229316,63.117084 C51.229316,61.746993 52.2972758,60.6263374 53.6461527,60.5421598 L53.809316,60.537084 L57.761876,60.537084 Z M46.24596,60.537084 C47.6708547,60.537084 48.82596,61.6921893 48.82596,63.117084 C48.82596,64.487175 47.7580002,65.6078306 46.4091233,65.6920082 L46.24596,65.697084 L42.2934,65.697084 C40.8685053,65.697084 39.7134,64.5419787 39.7134,63.117084 C39.7134,61.746993 40.7813598,60.6263374 42.1302367,60.5421598 L42.2934,60.537084 L46.24596,60.537084 Z M34.730904,60.537084 C36.1557987,60.537084 37.310904,61.6921893 37.310904,63.117084 C37.310904,64.487175 36.2429442,65.6078306 34.8940673,65.6920082 L34.730904,65.697084 L30.778344,65.697084 C29.3534493,65.697084 28.198344,64.5419787 28.198344,63.117084 C28.198344,61.746993 29.2663038,60.6263374 30.6151807,60.5421598 L30.778344,60.537084 L34.730904,60.537084 Z M69.276932,60.537084 C70.7018267,60.537084 71.856932,61.6921893 71.856932,63.117084 C71.856932,64.487175 70.7889722,65.6078306 69.4400953,65.6920082 L69.276932,65.697084 L65.324372,65.697084 C63.8994773,65.697084 62.744372,64.5419787 62.744372,63.117084 C62.744372,61.746993 63.8123318,60.6263374 65.1612087,60.5421598 L65.324372,60.537084 L69.276932,60.537084 Z M86.388868,60.537084 C87.8137627,60.537084 88.968868,61.6921893 88.968868,63.117084 C88.968868,64.487175 87.9009082,65.6078306 86.5520313,65.6920082 L86.388868,65.697084 L77.472388,65.697084 C76.0474933,65.697084 74.892388,64.5419787 74.892388,63.117084 C74.892388,61.746993 75.9603478,60.6263374 77.3092247,60.5421598 L77.472388,60.537084 L86.388868,60.537084 Z M22.583404,60.537084 C24.0082987,60.537084 25.163404,61.6921893 25.163404,63.117084 C25.163404,64.487175 24.0954442,65.6078306 22.7465673,65.6920082 L22.583404,65.697084 L13.666924,65.697084 C12.2420293,65.697084 11.086924,64.5419787 11.086924,63.117084 C11.086924,61.746993 12.1548838,60.6263374 13.5037607,60.5421598 L13.666924,60.537084 L22.583404,60.537084 Z M52.003832,51.335772 C53.4287267,51.335772 54.583832,52.4908773 54.583832,53.915772 C54.583832,55.285863 53.5158722,56.4065186 52.1669953,56.4906962 L52.003832,56.495772 L48.051272,56.495772 C46.6263773,56.495772 45.471272,55.3406667 45.471272,53.915772 C45.471272,52.545681 46.5392318,51.4250254 47.8881087,51.3408478 L48.051272,51.335772 L52.003832,51.335772 Z M40.542612,51.335772 C41.9675067,51.335772 43.122612,52.4908773 43.122612,53.915772 C43.122612,55.285863 42.0546522,56.4065186 40.7057753,56.4906962 L40.542612,56.495772 L36.590052,56.495772 C35.1651573,56.495772 34.010052,55.3406667 34.010052,53.915772 C34.010052,52.545681 35.0780118,51.4250254 36.4268887,51.3408478 L36.590052,51.335772 L40.542612,51.335772 Z M29.08036,51.335772 C30.5052547,51.335772 31.66036,52.4908773 31.66036,53.915772 C31.66036,55.285863 30.5924002,56.4065186 29.2435233,56.4906962 L29.08036,56.495772 L25.1278,56.495772 C23.7029053,56.495772 22.5478,55.3406667 22.5478,53.915772 C22.5478,52.545681 23.6157598,51.4250254 24.9646367,51.3408478 L25.1278,51.335772 L29.08036,51.335772 Z M17.618968,51.335772 C19.0438627,51.335772 20.198968,52.4908773 20.198968,53.915772 C20.198968,55.285863 19.1310082,56.4065186 17.7821313,56.4906962 L17.618968,56.495772 L13.666408,56.495772 C12.2415133,56.495772 11.086408,55.3406667 11.086408,53.915772 C11.086408,52.545681 12.1543678,51.4250254 13.5032447,51.3408478 L13.666408,51.335772 L17.618968,51.335772 Z M63.465224,51.335772 C64.8901187,51.335772 66.045224,52.4908773 66.045224,53.915772 C66.045224,55.285863 64.9772642,56.4065186 63.6283873,56.4906962 L63.465224,56.495772 L59.512664,56.495772 C58.0877693,56.495772 56.932664,55.3406667 56.932664,53.915772 C56.932664,52.545681 58.0006238,51.4250254 59.3495007,51.3408478 L59.512664,51.335772 L63.465224,51.335772 Z M74.927476,51.335772 C76.3523707,51.335772 77.507476,52.4908773 77.507476,53.915772 C77.507476,55.285863 76.4395162,56.4065186 75.0906393,56.4906962 L74.927476,56.495772 L70.974916,56.495772 C69.5500213,56.495772 68.394916,55.3406667 68.394916,53.915772 C68.394916,52.545681 69.4628758,51.4250254 70.8117527,51.3408478 L70.974916,51.335772 L74.927476,51.335772 Z M86.388868,51.335772 C87.8137627,51.335772 88.968868,52.4908773 88.968868,53.915772 C88.968868,55.285863 87.9009082,56.4065186 86.5520313,56.4906962 L86.388868,56.495772 L82.436308,56.495772 C81.0114133,56.495772 79.856308,55.3406667 79.856308,53.915772 C79.856308,52.545681 80.9242678,51.4250254 82.2731447,51.3408478 L82.436308,51.335772 L86.388868,51.335772 Z M52.003832,35.052876 C53.4287267,35.052876 54.583832,36.2079813 54.583832,37.632876 C54.583832,39.002967 53.5158722,40.1236226 52.1669953,40.2078002 L52.003832,40.212876 L48.051272,40.212876 C46.6263773,40.212876 45.471272,39.0577707 45.471272,37.632876 C45.471272,36.262785 46.5392318,35.1421294 47.8881087,35.0579518 L48.051272,35.052876 L52.003832,35.052876 Z M40.542612,35.052876 C41.9675067,35.052876 43.122612,36.2079813 43.122612,37.632876 C43.122612,39.002967 42.0546522,40.1236226 40.7057753,40.2078002 L40.542612,40.212876 L36.590052,40.212876 C35.1651573,40.212876 34.010052,39.0577707 34.010052,37.632876 C34.010052,36.262785 35.0780118,35.1421294 36.4268887,35.0579518 L36.590052,35.052876 L40.542612,35.052876 Z M29.08036,35.052876 C30.5052547,35.052876 31.66036,36.2079813 31.66036,37.632876 C31.66036,39.002967 30.5924002,40.1236226 29.2435233,40.2078002 L29.08036,40.212876 L25.1278,40.212876 C23.7029053,40.212876 22.5478,39.0577707 22.5478,37.632876 C22.5478,36.262785 23.6157598,35.1421294 24.9646367,35.0579518 L25.1278,35.052876 L29.08036,35.052876 Z M17.618968,35.052876 C19.0438627,35.052876 20.198968,36.2079813 20.198968,37.632876 C20.198968,39.002967 19.1310082,40.1236226 17.7821313,40.2078002 L17.618968,40.212876 L13.666408,40.212876 C12.2415133,40.212876 11.086408,39.0577707 11.086408,37.632876 C11.086408,36.262785 12.1543678,35.1421294 13.5032447,35.0579518 L13.666408,35.052876 L17.618968,35.052876 Z M63.465224,35.052876 C64.8901187,35.052876 66.045224,36.2079813 66.045224,37.632876 C66.045224,39.002967 64.9772642,40.1236226 63.6283873,40.2078002 L63.465224,40.212876 L59.512664,40.212876 C58.0877693,40.212876 56.932664,39.0577707 56.932664,37.632876 C56.932664,36.262785 58.0006238,35.1421294 59.3495007,35.0579518 L59.512664,35.052876 L63.465224,35.052876 Z M86.388868,35.052876 C87.8137627,35.052876 88.968868,36.2079813 88.968868,37.632876 C88.968868,39.002967 87.9009082,40.1236226 86.5520313,40.2078002 L86.388868,40.212876 L82.436308,40.212876 C81.0114133,40.212876 79.856308,39.0577707 79.856308,37.632876 C79.856308,36.262785 80.9242678,35.1421294 82.2731447,35.0579518 L82.436308,35.052876 L86.388868,35.052876 Z M74.927476,35.052876 C76.3523707,35.052876 77.507476,36.2079813 77.507476,37.632876 C77.507476,39.002967 76.4395162,40.1236226 75.0906393,40.2078002 L74.927476,40.212876 L70.974916,40.212876 C69.5500213,40.212876 68.394916,39.0577707 68.394916,37.632876 C68.394916,36.262785 69.4628758,35.1421294 70.8117527,35.0579518 L70.974916,35.052876 L74.927476,35.052876 Z" fill="#00B077"></path>
    </g>
</svg>