<?xml version="1.0" encoding="UTF-8"?>
<svg width="100px" height="100px" viewBox="0 0 100 100" version="1.1" xmlns="http://www.w3.org/2000/svg" xmlns:xlink="http://www.w3.org/1999/xlink">
    <!-- Generator: Sketch 63.1 (92452) - https://sketch.com -->
    <title>Monitor</title>
    <desc>Created with Sketch.</desc>
    <g id="Monitor" stroke="none" stroke-width="1" fill="none" fill-rule="evenodd">
        <path d="M96.88,7.42 C98.3048947,7.42 99.46,8.57510535 99.46,10 C99.46,11.370091 98.3920402,12.4907466 97.0431633,12.5749242 L96.88,12.58 L6.58,12.579 L6.58,77.436 L60.9189734,77.436246 C60.9802598,77.434073 61.0412323,77.4340968 61.1018034,77.436254 L94.3,77.436 L94.3,19.86592 C94.3,18.495829 95.3679598,17.3751734 96.7168367,17.2909958 L96.88,17.28592 C98.250091,17.28592 99.3707466,18.3538798 99.4549242,19.7027567 L99.46,19.86592 L99.46,80.01604 C99.46,81.386131 98.3920402,82.5067866 97.0431633,82.5909642 L96.88,82.59604 L64.032,82.596 L64.7622515,87.1602293 C64.9871964,88.5672562 64.0289296,89.8902306 62.6219027,90.1151755 C61.2689922,90.3314686 59.993793,89.4538161 59.6977269,88.1351426 L59.6669565,87.9748267 L58.806,82.596 L42.072,82.596 L40.485,92.525 L71.092728,92.525084 C72.5176227,92.525084 73.672728,93.6801893 73.672728,95.105084 C73.672728,96.475175 72.6047682,97.5958306 71.2558913,97.6800082 L71.092728,97.685084 L29.783488,97.685084 C28.3585933,97.685084 27.203488,96.5299787 27.203488,95.105084 C27.203488,93.734993 28.2714478,92.6143374 29.6203247,92.5301598 L29.783488,92.525084 L35.259,92.525 L36.847,82.596 L4,82.59604 C2.62990899,82.59604 1.50925335,81.5280802 1.42507584,80.1792033 L1.42,80.01604 L1.42,10 C1.42,8.62990899 2.48795982,7.50925335 3.83683674,7.42507584 L4,7.42 L96.88,7.42 Z" fill="#00B077"></path>
    </g>
</svg>