<?xml version="1.0" encoding="UTF-8"?>
<svg width="100px" height="100px" viewBox="0 0 100 100" version="1.1" xmlns="http://www.w3.org/2000/svg" xmlns:xlink="http://www.w3.org/1999/xlink">
    <!-- Generator: Sketch 63.1 (92452) - https://sketch.com -->
    <title>4LeafClover</title>
    <desc>Created with Sketch.</desc>
    <g id="4LeafClover" stroke="none" stroke-width="1" fill="none" fill-rule="evenodd">
        <path d="M51.6503522,8.57220128 C51.1543704,9.21490016 50.6827852,9.87229067 50.2361175,10.537005 L50.141,10.681 L50.0467634,10.5371269 C49.4512721,9.65082987 48.8114773,8.77755288 48.1286109,7.93476039 C42.66395,1.19028572 36.1805206,-1.61154618 29.4227905,2.73906834 L29.0882601,2.96059348 C21.9258632,7.83998206 21.9764299,16.8278617 27.9931335,27.6214811 L28.33,28.216 L28.1212126,28.095647 C16.9892659,21.7692937 7.73365539,21.7240997 2.85105128,29.3109371 C-1.4994929,36.0674721 1.30329171,42.5503945 8.0490765,48.0147507 L8.68676269,48.518798 C9.32962009,49.014732 9.98717231,49.4862681 10.6520497,49.9328864 L10.796,50.027 L10.652137,50.1213285 C9.76561724,50.7167783 8.8921203,51.3565388 8.04911495,52.0393803 C1.30339098,57.5034742 -1.49930647,63.9869399 2.85118263,70.745561 L3.07273242,71.0800667 C7.95265892,78.2419387 16.9412148,78.1915693 27.7351924,72.1750935 L28.331,71.836 L28.2106307,72.0471781 C21.8843126,83.1791195 21.8378257,92.434917 29.422969,97.3173406 C36.1805618,101.667867 42.6639562,98.8656003 48.1285708,92.1205088 L48.6326353,91.4828953 C49.1285853,90.8401111 49.600134,90.1826336 50.0467615,89.5178315 L50.141,89.373 L50.2361194,89.5179534 C50.8316884,90.4043449 51.4715558,91.2777149 52.1544872,92.1205967 C57.6195763,98.8656727 64.1028645,101.667942 70.8598271,97.3171229 L71.1943952,97.0956133 C78.3576014,92.2165493 78.3070402,83.2282071 72.2900167,72.4340014 L71.952,71.838 L72.1599778,71.9575426 C83.2917558,78.2836982 92.5483051,78.3301398 97.4311685,70.745727 C101.781738,63.986981 98.979475,57.5034804 92.2343679,52.0393402 L91.5967458,51.5353159 C90.9539531,51.0394076 90.2964671,50.5679049 89.6316566,50.1213266 L89.487,50.027 L89.6317439,49.9328883 C90.5181414,49.3374093 91.3915177,48.6976326 92.2344063,48.0147908 C98.9795742,42.5503883 101.781924,36.067431 97.4310699,29.3104139 L97.209538,28.9758117 C92.2718912,21.726577 83.1259811,21.8637483 72.1602124,28.0957764 L71.953,28.214 L72.0726434,28.0071631 C78.3265249,17.0035531 78.4435527,7.83398775 71.1183773,2.90923905 L70.8598271,2.73917108 C64.1029056,-1.61162185 57.6195824,1.19021334 52.1544471,7.93467249 L51.6503522,8.57220128 Z M68.0500709,7.10281292 C75.3411279,11.795064 70.7809341,25.4660282 54.6170417,41.8816947 C52.2079989,44.3282615 55.8406773,47.9605749 58.2870021,45.5512863 C74.700197,29.3865793 88.3741033,24.8274447 93.0670913,32.1196469 C95.6054202,36.0617535 93.9139678,39.9747596 88.9674127,43.982068 C87.7085607,45.0018905 86.3477982,45.924223 84.9867946,46.7266643 L84.4340558,47.0457255 C84.3450633,47.0959733 84.2577029,47.1447447 84.1720748,47.1920222 L83.2303117,47.6872206 C81.2657822,48.6288833 81.2658925,51.4259242 83.2304963,52.3674319 L83.6800528,52.5969802 L84.1722194,52.862527 C84.4290972,53.0043345 84.7015655,53.1595875 84.9869194,53.3278093 C86.3478936,54.130131 87.7086272,55.0523652 88.9674512,56.0721253 C93.9140671,60.0793267 95.6056066,63.9929841 93.0672226,67.936443 C88.3743568,75.2257381 74.699769,70.6659391 58.2869092,54.5031862 C55.8405249,52.094081 52.2080594,55.726364 54.6170417,58.1728693 C70.7807579,74.5883568 75.3412669,88.2611406 68.0505941,92.9531443 C64.108433,95.4915082 60.1949283,93.7999753 56.1869874,88.8533284 C55.1670132,87.5944644 54.2445287,86.2336915 53.4419423,84.8726779 L53.1228228,84.3199355 C53.0223086,84.1419493 52.9277005,83.9704916 52.8391398,83.8063638 L52.5289282,83.2130644 C52.508165,83.1716329 52.492231,83.1391847 52.4812019,83.1161801 C51.5671647,81.2096698 48.9056561,81.1536999 47.8889682,82.9481365 L47.5715684,83.5659377 C47.3654138,83.9574247 47.1210248,84.3972283 46.8406087,84.8728252 C46.0381547,86.233819 45.1157953,87.5945723 44.0959282,88.8534163 C40.088357,93.8000477 36.1747759,95.4915839 32.2322275,92.9533783 C24.9422601,88.2609542 29.5025616,74.5874819 45.6654163,58.1728693 C48.074339,55.7264245 44.4420832,52.0941715 41.9956402,54.5030961 C25.5807931,70.6662068 11.9079853,75.2255581 7.21512847,67.936277 C4.67694291,63.9931262 6.36873126,60.0795208 11.3158345,56.072325 C12.5748339,55.0525248 13.935757,54.1302535 15.2969213,53.3278988 L15.849725,53.0088743 C15.9387279,52.9586327 16.0260986,52.9098675 16.1117367,52.8625962 L16.8059149,52.491853 C16.9238013,52.4311836 17.0075918,52.3895224 17.0536032,52.3674743 C18.9605391,51.4536918 19.0167294,48.7917417 17.2220402,47.774984 L16.6041313,47.4575607 C16.2125841,47.2513968 15.772714,47.0069989 15.297046,46.7265749 C13.9358523,45.9241004 12.5749004,45.0017309 11.315873,43.9818683 C6.36883053,39.9745655 4.67712934,36.0616114 7.21502992,32.1201701 C11.9082388,24.8276248 25.580365,29.3863117 41.9955474,45.5513764 C44.4419308,47.9604844 48.0743995,44.328201 45.6654163,41.8816947 C29.5023854,25.4669032 24.9423991,11.7952503 32.232049,7.10303062 C36.1749181,4.56461859 40.0885512,6.25590597 44.096128,11.20205 C45.1159549,12.4607186 46.0382773,13.8212824 46.8406981,15.1820862 L47.1597494,15.734742 C47.2099955,15.8237211 47.2587652,15.9110683 47.3060409,15.9966834 L47.5716256,16.4887878 C47.6909263,16.7153173 47.7681355,16.8692932 47.80121,16.9382878 C48.7428251,18.9025275 51.5393894,18.9026378 52.4811595,16.9384725 L52.7107948,16.4889558 L52.9764295,15.9968432 C53.1182824,15.7399937 53.2735825,15.4675556 53.4418528,15.1822334 C54.2444061,13.82141 55.1668535,12.4608265 56.1867876,11.2021379 C60.1947341,6.25597835 64.1082909,4.56469426 68.0500709,7.10281292 Z M50.141575,69.012475 C51.844521,69.012475 53.23615,70.3453817 53.3300995,72.0248327 L53.335155,72.206055 L53.335155,77.031025 C53.335155,78.7947905 51.9053405,80.224605 50.141575,80.224605 C48.438629,80.224605 47.047,78.8916983 46.9530505,77.2122473 L46.947995,77.031025 L46.947995,72.206055 C46.947995,70.4422895 48.3778095,69.012475 50.141575,69.012475 Z M50.141575,19.829267 C51.844521,19.829267 53.23615,21.1621737 53.3300995,22.8416247 L53.335155,23.022847 L53.335155,27.847817 C53.335155,29.6115825 51.9053405,31.041397 50.141575,31.041397 C48.438629,31.041397 47.047,29.7084903 46.9530505,28.0290393 L46.947995,27.847817 L46.947995,23.022847 C46.947995,21.2590815 48.3778095,19.829267 50.141575,19.829267 Z M77.145837,46.833356 C78.9096025,46.833356 80.339417,48.2631705 80.339417,50.026936 C80.339417,51.729882 79.0065103,53.121511 77.3270593,53.2154605 L77.145837,53.220516 L72.320867,53.220516 C70.5571015,53.220516 69.127287,51.7907015 69.127287,50.026936 C69.127287,48.32399 70.4601937,46.932361 72.1396447,46.8384115 L72.320867,46.833356 L77.145837,46.833356 Z M27.962456,46.833356 C29.7262215,46.833356 31.156036,48.2631705 31.156036,50.026936 C31.156036,51.729882 29.8231293,53.121511 28.1436783,53.2154605 L27.962456,53.220516 L23.137486,53.220516 C21.3737205,53.220516 19.943906,51.7907015 19.943906,50.026936 C19.943906,48.32399 21.2768127,46.932361 22.9562637,46.8384115 L23.137486,46.833356 L27.962456,46.833356 Z" fill="#00B077"></path>
    </g>
</svg>