<?xml version="1.0" encoding="UTF-8"?>
<svg width="100px" height="100px" viewBox="0 0 100 100" version="1.1" xmlns="http://www.w3.org/2000/svg" xmlns:xlink="http://www.w3.org/1999/xlink">
    <!-- Generator: Sketch 63.1 (92452) - https://sketch.com -->
    <title>PotofGold</title>
    <desc>Created with Sketch.</desc>
    <g id="PotofGold" stroke="none" stroke-width="1" fill="none" fill-rule="evenodd">
        <path d="M47.45748,27.946713 C30.610374,27.946713 16.62196,34.838225 16.62196,44.454373 C16.62196,54.0734995 30.6046021,60.956843 47.45748,60.956843 C64.3069808,60.956843 78.293,54.0727109 78.293,44.454373 C78.293,34.8390143 64.3012081,27.946713 47.45748,27.946713 Z M47.45748,33.136713 C61.7983001,33.136713 73.103,38.7053634 73.103,44.454373 C73.103,50.1446849 62.0404575,55.6497352 47.9095002,55.7650005 L47.45748,55.766843 C33.1077111,55.766843 21.81196,50.2061961 21.81196,44.454373 C21.81196,38.7043868 33.1132426,33.136713 47.45748,33.136713 Z M82.362825,50.965055 C86.8124467,50.965055 90.633955,53.9561155 90.633955,58.002695 C90.633955,62.0492745 86.8124467,65.040335 82.362825,65.040335 C80.9296461,65.040335 79.767825,63.8785139 79.767825,62.445335 C79.767825,61.0672783 80.8419939,59.9401073 82.1987131,59.8554403 L82.362825,59.850335 C84.1861623,59.850335 85.443955,58.8658719 85.443955,58.002695 C85.443955,57.1395181 84.1861623,56.155055 82.362825,56.155055 C81.3157752,56.155055 80.2928654,56.6512866 79.0668807,57.6835833 L78.7857725,57.9293511 L78.265,58.398 L78.2550153,58.6438501 C77.4662183,73.618635 64.2050088,85.4842716 47.9650719,85.7273324 L47.456615,85.731135 C30.9847299,85.731135 17.4551611,73.7751127 16.6582117,58.6438942 L16.647,58.398 L15.926025,57.750757 L15.8472181,57.6832677 C14.6221598,56.6513558 13.5991827,56.155055 12.552135,56.155055 C10.7277468,56.155055 9.471005,57.1389028 9.471005,58.002695 C9.471005,58.8319355 10.6292182,59.7718193 12.3359772,59.8456832 L12.552135,59.850335 C13.9853139,59.850335 15.147135,61.0121561 15.147135,62.445335 C15.147135,63.8785139 13.9853139,65.040335 12.552135,65.040335 C8.10129938,65.040335 4.281005,62.0495949 4.281005,58.002695 C4.281005,53.9557951 8.10129938,50.965055 12.552135,50.965055 C14.9376343,50.965055 16.9290591,51.8785954 18.908138,53.4803521 L19.1908208,53.7138319 C19.6790328,54.1250709 20.8971604,55.2538802 20.9254467,55.2786443 C21.4882805,55.7713948 21.811095,56.4830609 21.811095,57.231115 C21.811095,70.0528211 33.2462941,80.541135 47.456615,80.541135 C61.6658254,80.541135 73.102135,70.0522464 73.102135,57.231115 C73.102135,56.5448711 73.3738049,55.8892754 73.8531835,55.4052155 L74.685816,54.6388889 C75.0546525,54.3026667 75.4803924,53.9186605 75.7240275,53.7135163 C77.7978449,51.9673324 79.8638948,50.965055 82.362825,50.965055 Z M69.1264088,0.926665239 C73.4996188,0.363723063 77.8800603,0.486625868 82.1521317,1.26780465 C83.5619349,1.52559722 84.4958239,2.87745062 84.2380314,4.28725374 C83.9802388,5.69705685 82.6283854,6.63094592 81.2185823,6.37315335 C77.4704262,5.68777625 73.6283282,5.57997784 69.7892662,6.07416172 C58.1840895,7.56914494 48.4117019,14.4167647 42.5520691,24.6787298 C41.8414107,25.9233046 40.256381,26.3561295 39.0118062,25.6454711 C37.7672314,24.9348127 37.3344065,23.349783 38.0450649,22.1052082 C44.6923595,10.4638124 55.8650264,2.63500149 69.1264088,0.926665239 Z M70.2723624,10.5846969 C74.3042355,10.0640427 78.3520374,10.3122436 82.3004858,11.2756572 C83.6928176,11.6153835 84.546123,13.0194939 84.2063968,14.4118258 C83.8666705,15.8041576 82.4625601,16.657463 81.0702282,16.3177368 C77.7320133,15.5032189 74.3257684,15.2943566 70.9357858,15.7321203 C64.3684812,16.5769027 58.5767695,19.7020265 54.1971792,24.5872067 C53.2404952,25.6543325 51.5998731,25.7438632 50.5327473,24.7871792 C49.4656215,23.8304952 49.3760908,22.1898731 50.3327748,21.1227473 C55.5303889,15.3251088 62.4511292,11.5907775 70.2723624,10.5846969 Z M73.6274377,20.0458426 C76.7041705,19.9026055 79.734022,20.3713936 82.5734166,21.405531 C83.9200603,21.8959928 84.6141328,23.385261 84.123671,24.7319046 C83.6332092,26.0785483 82.143941,26.7726208 80.7972974,26.282159 C78.5999107,25.4818476 76.2555074,25.1191142 73.8710461,25.2301217 C70.9665452,25.367867 68.2000703,26.1905919 65.7465371,27.6142279 C64.5069213,28.3335015 62.9189277,27.9116809 62.1996541,26.6720651 C61.4803805,25.4324493 61.9022011,23.8444557 63.1418169,23.1251821 C66.3108086,21.286409 69.8856023,20.2232973 73.6274377,20.0458426 Z M53.674235,35.365991 C55.1074139,35.365991 56.269235,36.5278121 56.269235,37.960991 C56.269235,41.5085593 52.1600713,43.367241 47.458345,43.367241 C42.7561826,43.367241 38.645725,41.5086886 38.645725,37.960991 C38.645725,36.5278121 39.8075461,35.365991 41.240725,35.365991 C42.4534149,35.365991 43.4718189,36.1978274 43.7564713,37.3220343 L43.772,37.393 L43.8338745,37.4317913 C43.8869995,37.4629434 43.9489806,37.4964287 44.01947,37.5311485 L44.1315416,37.5840166 C44.9337931,37.9467564 46.1383543,38.177241 47.458345,38.177241 C48.7781948,38.177241 49.9822278,37.9468072 50.7839422,37.5841709 C50.9021764,37.5306905 51.0016674,37.4787571 51.0812462,37.4320767 L51.142,37.394 L51.1584887,37.3220343 C51.4302023,36.2489277 52.370479,35.4422166 53.5101231,35.3710963 L53.674235,35.365991 Z M66.022456,43.625703 C67.4556349,43.625703 68.617456,44.7875241 68.617456,46.220703 C68.617456,49.7684023 64.5093718,51.626953 59.806566,51.626953 C55.1033242,51.626953 50.993946,49.7685315 50.993946,46.220703 C50.993946,44.7875241 52.1557671,43.625703 53.588946,43.625703 C54.8016359,43.625703 55.8200399,44.4575394 56.1046923,45.5817463 L56.12,45.653 L56.1819155,45.6917059 C56.2349781,45.7228269 56.2968934,45.756283 56.3673152,45.7909759 L56.4792844,45.8438057 C57.2812685,46.2064943 58.4858255,46.436953 59.806566,46.436953 C61.1271656,46.436953 62.3311943,46.2065451 63.1326412,45.8439601 C63.2113953,45.8083308 63.2818198,45.7733917 63.3435701,45.7402404 L63.49,45.654 L63.5067097,45.5817463 C63.7784233,44.5086397 64.7187,43.7019286 65.8583441,43.6308083 L66.022456,43.625703 Z M82.370437,74.655848 C76.8064004,74.655848 71.955837,77.2056932 71.955837,81.359598 C71.955837,85.5146459 76.8065763,88.066808 82.370437,88.066808 C87.9284084,88.066808 92.778117,85.5136271 92.778117,81.359598 C92.778117,77.2067115 87.9285835,74.655848 82.370437,74.655848 Z M82.370437,79.845848 C84.0679705,79.845848 85.6231573,80.1919398 86.6867122,80.7513716 L86.8573077,80.8455008 C87.128794,81.0027732 87.3357438,81.1609115 87.4730871,81.3036159 L87.523,81.36 L87.546445,81.3340248 C87.3933087,81.5245605 87.101827,81.7516613 86.685887,81.9706374 C85.622499,82.5304693 84.0676173,82.876808 82.370437,82.876808 C80.6697228,82.876808 79.1127864,82.5303723 78.0483532,81.9703327 L77.8776497,81.8761176 C77.6059934,81.7186992 77.3989211,81.5604007 77.2614734,81.41751 L77.21,81.359 L77.1867451,81.3875261 C77.3397808,81.1973246 77.6313273,80.9704645 78.0475281,80.7516759 C79.1121285,80.1920366 80.6693698,79.845848 82.370437,79.845848 Z M64.867854,85.778364 C59.3023105,85.778364 54.451524,88.3268059 54.451524,92.482114 C54.451524,96.637216 59.3036434,99.189324 64.867854,99.189324 C70.4258254,99.189324 75.275534,96.6361431 75.275534,92.482114 C75.275534,88.3278783 70.4271557,85.778364 64.867854,85.778364 Z M64.867854,90.968364 C66.5658461,90.968364 68.1210988,91.3142456 69.1844044,91.8733836 L69.3549442,91.9674565 C69.6263343,92.1246339 69.8331744,92.2826724 69.9704258,92.4252897 L70.02,92.482 L70.043862,92.4565408 C69.8907257,92.6470765 69.599244,92.8741773 69.183304,93.0931534 C68.119916,93.6529853 66.5650343,93.999324 64.867854,93.999324 C63.1670116,93.999324 61.6095602,93.6528338 60.5446159,93.0926965 L60.3737968,92.9984467 C60.1019534,92.840969 59.8947227,92.6826051 59.7571651,92.5396555 L59.706,92.481 L59.6825077,92.5095542 C59.835552,92.3193885 60.127163,92.0925777 60.5435159,91.8738397 C61.6083778,91.3143967 63.1661998,90.968364 64.867854,90.968364 Z M10.99946,73.079645 C5.43538939,73.079645 0.58486,75.6283413 0.58486,79.783395 C0.58486,83.9382424 5.43672185,86.490605 10.99946,86.490605 C16.5585541,86.490605 21.40714,83.9376247 21.40714,79.783395 C21.40714,75.6289591 16.559884,73.079645 10.99946,73.079645 Z M41.326879,43.625703 C42.7600579,43.625703 43.921879,44.7875241 43.921879,46.220703 C43.921879,49.7685299 39.8101277,51.626953 35.107529,51.626953 C30.4062386,51.626953 26.298369,49.768142 26.298369,46.220703 C26.298369,44.7875241 27.4601901,43.625703 28.893369,43.625703 C30.1060589,43.625703 31.1244629,44.4575394 31.4091153,45.5817463 L31.425,45.654 L31.4861974,45.6920743 C31.5391774,45.7231628 31.601001,45.7565874 31.6713235,45.7912506 L31.7831383,45.8440374 C32.5843155,46.2065701 33.7878201,46.436953 35.107529,46.436953 C36.4276605,46.436953 37.6327499,46.2064176 38.4355385,45.8435744 C38.5540356,45.7900163 38.6537725,45.7379939 38.7335687,45.6912182 L38.795,45.653 L38.8111327,45.5817463 C39.0828463,44.5086397 40.023123,43.7019286 41.1627671,43.6308083 L41.326879,43.625703 Z M10.99946,78.269645 C12.6982073,78.269645 14.2534585,78.6154962 15.3165144,79.1745885 L15.4869646,79.2686269 C15.7582072,79.4257451 15.9649102,79.5837163 16.1020601,79.7262703 L16.152,79.783 L16.1754399,79.7581595 C16.0224245,79.9486099 15.7311429,80.1756121 15.3154139,80.3945106 C14.2522757,80.9542967 12.6973955,81.300605 10.99946,81.300605 C9.299501,81.300605 7.74256323,80.954139 6.67788029,80.3940536 L6.5070872,80.2998041 C6.2352834,80.1423265 6.02807411,79.9839606 5.89052482,79.8410067 L5.839,79.783 L5.81587094,79.8107677 C5.96891066,79.6205948 6.26049324,79.3937815 6.67678019,79.1750448 C7.74138075,78.6156535 9.2986892,78.269645 10.99946,78.269645 Z" id="Pot-of-Gold" fill="#00B077"></path>
    </g>
</svg>