<?xml version="1.0" encoding="UTF-8"?>
<svg width="100px" height="100px" viewBox="0 0 100 100" version="1.1" xmlns="http://www.w3.org/2000/svg" xmlns:xlink="http://www.w3.org/1999/xlink">
    <!-- Generator: Sketch 63.1 (92452) - https://sketch.com -->
    <title>Shamrock02</title>
    <desc>Created with Sketch.</desc>
    <g id="Shamrock02" stroke="none" stroke-width="1" fill="none" fill-rule="evenodd">
        <path d="M69.5910508,12.2948355 C77.7516766,17.4599662 75.3138833,28.8959269 60.9102132,43.4044255 C59.048474,45.2797142 60.8536054,48.4129033 63.4097516,47.7429056 C83.1120667,42.5786843 94.1070044,46.2373142 94.3989331,55.9406644 C94.5381946,60.5827121 92.2976988,63.8167274 88.2706562,66.0814098 C86.8332692,66.8897512 85.2719788,67.506247 83.7086576,67.948968 C83.271206,68.072851 82.8605227,68.1752723 82.4843855,68.2579441 L82.0885868,68.3403244 L81.7164469,68.4069676 C80.123806,68.6356781 79.134432,70.2361408 79.6074107,71.746852 L79.7521787,72.1617712 C79.773476,72.2256404 79.7976136,72.2995769 79.8242023,72.3831573 C79.9641439,72.8230589 80.1056816,73.3279052 80.2384909,73.8859663 C80.8843475,76.5998389 81.0707766,79.4041231 80.5412315,81.9355611 C79.8807495,85.0929307 78.168668,87.5248856 75.0571007,89.1540752 C66.561102,93.5998637 58.1584002,85.7693044 53.0123326,65.8722708 C52.3415291,63.27864 48.6584709,63.27864 47.9876674,65.8722708 C42.8415998,85.7693044 34.438898,93.5998637 25.942338,89.1537814 C22.831332,87.5248856 21.1192505,85.0929307 20.4587685,81.9355611 C19.9292234,79.4041231 20.1156525,76.5998389 20.7615091,73.8859663 C20.8677565,73.4395174 20.9795901,73.027126 21.0917238,72.6547978 L21.2478213,72.1617712 L21.3384088,71.9027523 C21.9132609,70.3999688 20.9961366,68.7570369 19.4461219,68.4354606 L18.9114132,68.3403244 L18.7911185,68.3162718 C18.343146,68.2251416 17.8381569,68.1038218 17.2913424,67.948968 C15.7280212,67.506247 14.1667308,66.8897512 12.7293438,66.0814098 C8.70230122,63.8167274 6.46180544,60.5827121 6.60107354,55.9404432 C6.8929956,46.2373142 17.8879333,42.5786843 37.5902484,47.7429056 C40.1463946,48.4129033 41.951526,45.2797142 40.0897868,43.4044255 C25.6863903,28.8962025 23.2481202,17.4599239 31.4074984,12.2946638 C35.946615,9.4224375 40.5223184,10.327154 45.0346848,13.7673964 C45.9857281,14.4924749 46.8466817,15.2730405 47.5965103,16.0509653 L47.8680237,16.3374243 C48.1593309,16.6502682 48.3607284,16.885724 48.4637544,17.016136 C49.4656173,18.2843106 51.3560274,18.3296026 52.421358,17.1520119 L52.7222502,16.792753 C52.881501,16.6081461 53.1103588,16.3550723 53.4034941,16.0509475 C54.153314,15.2730169 55.0142472,14.4924463 55.9652549,13.7673645 C60.4773606,10.3271762 65.0524744,9.42249557 69.5910508,12.2948355 Z M52.3226421,10.0273538 C51.8342045,10.4179311 51.3681323,10.8180636 50.9252149,11.2232161 L50.5,11.62 L50.0747175,11.2231914 C49.4841406,10.6829851 48.8523947,10.1517039 48.1813505,9.64009765 C42.1222258,5.02060176 35.3218298,3.67601499 28.6319066,7.90921171 L28.2810443,8.13647137 C18.3525197,14.7166053 19.5587038,26.9020027 30.6850923,40.7045852 L30.951,41.031 L30.5623883,40.9694376 C12.896938,38.2594576 1.78195975,43.5345894 1.41341411,55.784592 C1.20998781,62.5654667 4.60611092,67.4675577 10.1853395,70.6051408 L10.7360625,70.9052383 C12.2127953,71.6847331 13.7522619,72.2990879 15.2975436,72.7718819 L15.667,72.88 L15.7125176,72.6843902 C14.9047359,76.0786676 14.6699673,79.6100805 15.3787281,82.9982418 C16.3446927,87.6159405 18.9882854,91.3710762 23.5354903,93.7519532 L23.9078172,93.9419036 C34.4637719,99.1887816 44.1004124,92.1942175 50.2801187,75.8720897 L50.5,75.282 L50.533677,75.3746283 C56.7767519,92.2455882 66.6561632,99.4077478 77.4639484,93.752247 C82.0117146,91.3710762 84.6553073,87.6159405 85.6212719,82.9982418 L85.7205558,82.4889782 C86.2743566,79.4273713 86.0789044,76.2610863 85.4043057,73.1945252 L85.332,72.88 L85.1228143,72.94259 C87.055122,72.3953748 88.9894605,71.6315761 90.8146605,70.6051408 C96.3938891,67.4675577 99.7900122,62.5654667 99.5865925,55.7848132 L99.5696309,55.3651588 C98.9616589,43.4144052 87.900011,38.2906105 70.4376118,40.9694381 L70.049,41.031 L70.3150035,40.7044619 C81.5708816,26.7411527 82.6738417,14.4331515 72.3665284,7.90931116 C65.6774172,3.67595692 58.8774464,5.02057956 52.8185055,9.64012955 L52.3226421,10.0273538 Z" id="Shamrock-02" fill="#00B077"></path>
    </g>
</svg>