<?xml version="1.0" encoding="UTF-8"?>
<svg width="100px" height="100px" viewBox="0 0 100 100" version="1.1" xmlns="http://www.w3.org/2000/svg" xmlns:xlink="http://www.w3.org/1999/xlink">
    <!-- Generator: Sketch 63.1 (92452) - https://sketch.com -->
    <title>Asparagus</title>
    <desc>Created with Sketch.</desc>
    <g id="Asparagus" stroke="none" stroke-width="1" fill="none" fill-rule="evenodd">
        <path d="M36.8214365,87.8480004 L37.2257976,88.2855908 C37.379951,88.4487075 37.5780758,88.6525949 37.8154901,88.8881445 C38.536744,89.6037331 39.3332814,90.3200263 40.1743542,90.9832326 C41.9297181,92.3673797 43.6235937,93.3137342 45.0552232,93.6381932 C46.3316226,93.9274716 47.2494956,93.714294 48.0662661,92.898029 L50.5172374,90.4470572 C51.5259301,89.4371068 53.1623637,89.4360872 54.1723141,90.4447799 C55.1383536,91.4096163 55.1812882,92.9487942 54.3004339,93.9646741 L54.1062749,94.1682556 L51.7193074,96.555141 C49.5687349,98.704384 46.8297568,99.3405163 43.9127018,98.679406 C41.595269,98.1541918 39.2796683,96.8604847 36.9737502,95.0422122 C35.9668446,94.2482427 35.027219,93.4032761 34.1748526,92.5576049 L33.8508104,92.2319615 C33.4969879,91.8715981 33.2290084,91.5819565 33.057893,91.3870154 C32.1162582,90.3142691 32.2225451,88.6812905 33.2952914,87.7396557 C34.3233399,86.8372557 35.8659073,86.8972699 36.8214365,87.8480004 Z M73.6859654,70.9313382 C74.6952871,71.94066 74.6952871,73.5770939 73.6859654,74.5864156 L60.472125,87.801979 C59.4628032,88.8113008 57.8263694,88.8113008 56.8170476,87.801979 C55.8077259,86.7926573 55.8077259,85.1562234 56.8170476,84.1469016 L70.030888,70.9313382 C71.0402097,69.9220165 72.6766436,69.9220165 73.6859654,70.9313382 Z M88.5616585,11.3530973 C91.3433699,14.1348087 91.754593,21.6606023 89.6334371,28.1752927 C89.622769,28.320317 89.5989407,28.4664673 89.5619005,28.6123643 C89.4836233,28.9206885 89.3529467,29.201861 89.1818007,29.4487831 C88.23657,31.8931787 86.9159964,34.1321508 85.210068,35.838079 C84.6735982,36.3753754 84.0509821,36.7389056 83.1851747,37.117801 L82.867297,37.2531124 L81.3944969,37.8392163 L80.8339705,38.0718752 C80.3955726,38.2601054 80.0224923,38.4375891 79.6663475,38.6297057 C79.3010918,38.8267371 78.9668386,39.0334388 78.6603213,39.2541123 C78.6566517,39.2598702 78.6506261,39.264292 78.6445817,39.2686877 C78.3379246,39.4875813 78.0609791,39.7220461 77.8082907,39.9747345 L66.0684772,51.7171035 C66.3642174,51.8902652 66.6321028,52.0625559 66.8660193,52.2318733 C68.022293,53.0688272 68.2811528,54.6846575 67.4441989,55.8409312 C66.642118,56.9490269 65.124715,57.2329351 63.9819791,56.518037 L63.835141,56.4191108 C63.2270585,55.9789581 62.0826729,55.4410262 60.7886038,54.9475054 C60.7340159,54.9303608 60.6806133,54.910099 60.6277953,54.8880062 C59.0655978,54.3009137 57.3118097,53.7870556 56.0287706,53.5887154 C54.6181295,53.3706497 53.6513562,52.0503219 53.869422,50.6396809 C54.0874877,49.2290399 55.4078154,48.2622666 56.8184565,48.4803323 C58.034511,48.6683177 59.496375,49.0443205 60.9534638,49.5221794 L71.6954173,38.7782627 C71.6646276,38.7677951 71.6339824,38.7571931 71.6034678,38.7464513 C70.2570582,38.272487 69.5498016,36.7967825 70.0237658,35.4503729 C70.4787715,34.1578198 71.856981,33.4543099 73.1577268,33.8194304 L73.3198442,33.870671 C73.6385205,33.9828517 74.0880305,34.0871945 74.7054524,34.1936603 L75.3458447,34.296121 L76.5191191,34.4649504 L76.5361975,34.4669129 C76.7560581,34.3335854 76.9813661,34.2049022 77.2122678,34.080346 C77.8075186,33.7592474 78.4027025,33.4828748 79.1027939,33.1919242 L81.0500225,32.4092008 L81.5569621,32.1786142 L81.5569456,32.1804488 C82.2571358,31.4808575 82.8745444,30.6679363 83.4040382,29.766798 C81.5910897,29.3812954 80.2333424,29.2081831 78.7178568,29.1659866 C77.2910133,29.1262581 76.1665343,27.9373666 76.2062628,26.5105231 C76.2459913,25.0836796 77.4348828,23.9592006 78.8617263,23.9989291 L79.5341596,24.0249635 C81.3606284,24.1163361 83.0275311,24.3741431 85.2540005,24.8799842 C85.4750472,23.8760581 85.621618,22.8269732 85.6948403,21.7495114 C85.9144906,18.5173706 85.3312201,15.4328136 84.9065812,15.0081747 C84.5366621,14.6382556 82.1386237,14.1470252 79.3852249,14.1745467 C79.4818971,15.4677163 79.3604322,16.6830319 79.0122974,18.1419916 C78.6809955,19.5304079 77.2868885,20.3873685 75.8984722,20.0560666 C74.5100559,19.7247648 73.6530953,18.3306577 73.9843971,16.9422414 C74.1742661,16.1465404 74.2623992,15.5134803 74.2453691,14.849763 C71.7833721,15.4930152 69.6197644,16.587902 67.9889524,18.1144336 L67.730692,18.3642713 C67.7527302,18.3422663 67.6645273,18.4887942 67.5259811,18.7929068 L67.3858549,19.1131649 L66.8126328,20.5158978 C66.57518,21.0892248 66.3530781,21.5905551 66.1199337,22.0655102 C65.8104839,23.6557503 65.4545376,27.0272676 65.4706548,28.3825364 L65.4756722,28.5650442 C65.5415739,29.9909186 64.4390983,31.2002421 63.0132239,31.2661439 C61.6627563,31.3285604 60.5065409,30.3429103 60.3320365,29.0270777 L55.4088637,33.9498658 C57.7457255,35.3956418 59.305351,38.0610337 58.3843443,40.9795291 C57.9547749,42.3407531 56.5030499,43.0960084 55.1418259,42.666439 C53.7806019,42.2368695 53.0253466,40.7851446 53.454916,39.4239206 C53.535655,39.1680739 53.24256,38.6433436 52.5258982,38.2528865 C51.9890366,37.9603894 51.5755438,37.9184681 51.3051532,38.0527046 L19.3169308,70.0431565 C18.2404752,71.1196121 19.3257417,74.3572424 22.4424891,77.4739898 C25.5592364,80.5907371 28.7968667,81.6760037 29.8739024,80.5989682 L44.3480401,66.1267898 C44.8792872,65.1339398 44.9833123,63.6015011 44.5176564,62.5234287 C44.0005906,61.3263338 42.8621353,60.747803 40.5640883,61.085223 C39.1518339,61.292583 37.838877,60.315823 37.631517,58.9035686 C37.424157,57.4913141 38.400917,56.1783572 39.8131714,55.9709973 C44.3494009,55.304947 47.7843479,57.0504902 49.262976,60.4737646 C49.3382515,60.6480401 49.4074753,60.8252753 49.4707168,61.0050088 L53.6838829,56.7907106 C54.6932858,55.7814701 56.3297197,55.7816018 57.3389602,56.7910048 C58.3482007,57.8004078 58.348069,59.4368417 57.338666,60.4460822 L33.5283997,84.2546254 C29.7401956,88.0428296 23.6646156,86.0062711 18.7874117,81.1290672 C14.0701161,76.4117716 12.0102477,70.5733937 15.3079225,66.7679431 L15.6119319,66.4379912 L47.0806591,34.9684607 L47.0878405,34.960328 C47.3804627,34.5955727 47.6977511,34.2816362 48.034081,34.0153273 L59.7797805,22.270152 C60.3061276,21.7438049 60.7586767,21.1213086 61.1715941,20.3779599 L61.2858614,20.1602098 C61.7891805,19.1603014 62.805759,16.7188615 62.8331264,16.6290813 L62.9467474,16.3837479 C63.2377503,15.7807282 63.5330455,15.3011244 63.9101443,14.883288 L64.0769924,14.7078172 C66.9432817,11.8415279 71.3137815,10.0628264 75.6362232,9.32798262 C75.6593194,9.3202574 75.6832455,9.31376832 75.7073382,9.30759919 C75.8938454,9.25984249 76.0808115,9.23369813 76.2655883,9.22759782 C81.4268192,8.47023104 86.4120033,9.20344204 88.5616585,11.3530973 Z M62.6486681,68.6244141 C63.5502122,70.5407497 63.458124,72.9889218 62.5134273,74.956256 C61.8955485,76.2429909 60.351554,76.7852058 59.0648192,76.167327 C57.8295537,75.5741633 57.2804378,74.1274915 57.7851446,72.8742862 L57.8537482,72.7187189 C58.1510166,72.0996564 58.182117,71.2728502 57.9713606,70.8248633 C57.8660845,70.6010868 57.7704815,70.5575824 57.0577595,70.7208012 C55.6663818,71.0394373 54.2801418,70.1698084 53.9615057,68.7784307 C53.6428695,67.3870531 54.5124984,66.000813 55.9038761,65.6821769 C58.9333966,64.9883936 61.4841639,66.1491269 62.6486681,68.6244141 Z M92.767123,31.1141838 L92.9325253,31.1535504 L96.9419928,32.2459451 C97.9342074,32.5162777 98.6717455,33.3491303 98.8200913,34.3667566 L98.8774504,34.8019668 C98.919255,35.1470292 98.9670859,35.5996464 99.0143192,36.1460795 C99.3313324,39.8135463 99.2908031,43.7576381 98.6388461,47.517869 C97.867279,51.9679638 96.3080854,55.6431156 93.7150394,58.2361606 C93.0412063,58.9110115 92.3075952,59.2728002 91.1193952,59.6675763 L89.6225874,60.13555 L89.1274234,60.2973281 C88.8980688,60.3753281 88.6927816,60.4502703 88.4968293,60.527897 C87.6570582,60.8605732 87.0445118,61.2266568 86.594142,61.6766883 L82.3598644,65.9094023 C82.4815236,65.9670393 82.6068335,66.0265204 82.7363333,66.088072 C84.0294377,66.6925073 84.5877143,68.230767 83.9832791,69.5238713 C83.3788439,70.8169757 81.8405841,71.3752523 80.5474798,70.7708171 L78.8998805,69.9968086 C78.5850137,69.8517738 78.2923836,69.7195478 77.9981085,69.589792 L77.7767205,69.4927768 C77.1771825,69.2316743 76.6166565,69.002427 76.090009,68.8052911 L75.6061337,68.6305602 C74.4324352,68.2226149 73.5401085,68.0312521 73.1867628,68.055747 L73.1233564,68.0635238 C71.7210552,68.3300047 70.36824,67.4092405 70.1017591,66.0069392 C69.8352782,64.604638 70.7560425,63.2518228 72.1583437,62.9853419 C73.5719401,62.7167145 75.2035941,63.0153141 77.2365713,63.7234735 L82.939751,58.0209247 C83.951423,57.0100123 85.1491799,56.294182 86.5930451,55.7221934 C86.9587898,55.5773033 87.3273628,55.4461504 87.7439119,55.30988 L89.2666908,54.8346393 C89.5127161,54.7561948 89.7041379,54.6902149 89.854281,54.6321329 L90.0997567,54.5289576 C90.1040773,54.52763 90.1064391,54.5275312 90.1068578,54.5288245 L90.2709594,54.3619131 C91.3498048,53.1989584 92.1952399,51.6217721 92.8099403,49.6966433 C91.0140671,49.7908968 89.1487983,50.0380147 87.378113,50.4180341 C85.9824961,50.7175575 84.6083134,49.8289981 84.3087901,48.4333812 C84.0092667,47.0377643 84.8978261,45.6635816 86.293443,45.3640582 C88.755801,44.8355939 91.368319,44.5305744 93.8407737,44.4860763 C94.0862466,42.1036289 94.0875367,39.6412816 93.9199292,37.2940028 L93.878,36.768 L91.5737251,36.1408185 C90.2516169,35.7806051 89.4501536,34.4569571 89.7201245,33.1331866 L89.7594911,32.9677844 C90.1197046,31.6456761 91.4433526,30.8442128 92.767123,31.1141838 Z M9.47152668,45.7441648 C10.4802194,46.7541152 10.4791998,48.3905488 9.46924937,49.3992414 L7.01737292,51.8511184 C6.20201255,52.6669832 5.98883498,53.5848562 6.27811331,54.8612557 C6.60257237,56.2928851 7.5489268,57.9867607 8.9330739,59.7421247 C9.59628023,60.5831975 10.3125735,61.3797348 11.0281621,62.1009887 L11.4159887,62.4848905 C11.6491197,62.7111882 11.8287875,62.8768639 11.9392524,62.9738278 C13.0119987,63.9154626 13.1182856,65.5484411 12.1766508,66.6211874 C11.235016,67.6939338 9.60203744,67.8002206 8.52929112,66.8585858 L8.2283582,66.5860738 C7.99546504,66.3699731 7.70054616,66.0861771 7.35870168,65.7416262 C6.51303042,64.8892598 5.66806383,63.9496343 4.8740943,62.9427286 C3.05582185,60.6368105 1.76211471,58.3212099 1.23690053,56.003777 C0.598587166,53.1873102 1.16959388,50.5368507 3.14340446,48.4225417 L3.97575002,47.5819521 L5.81645001,45.7418875 C6.82640042,44.7331948 8.46283399,44.7342144 9.47152668,45.7441648 Z M79.0410873,50.2531711 C79.5870515,51.9517677 79.3826475,54.0390894 78.4608834,55.5426227 C77.7148368,56.7595348 76.1235442,57.1412467 74.9066321,56.3952001 C73.6897199,55.6491534 73.308008,54.0578609 74.0540547,52.8409488 C74.0959204,52.7726596 74.129282,52.6565005 74.1495211,52.5220821 L74.16,52.429 L74.1028418,52.4266792 C73.1965432,52.3462983 72.367293,51.7882551 71.9740851,50.9157973 L71.9092949,50.7586036 C71.4083145,49.4220111 72.0857119,47.932364 73.4223044,47.4313836 C76.0200591,46.4576955 78.26685,47.8443741 79.0410873,50.2531711 Z M31.2918924,37.2678108 C33.7671797,38.4323149 34.927913,40.9830823 34.2341296,44.0126028 C33.9154935,45.4039804 32.5292535,46.2736093 31.1378758,45.9549732 C29.7464981,45.6363371 28.8768693,44.250097 29.1955054,42.8587193 C29.3587242,42.1459973 29.3152198,42.0503943 29.0914432,41.9451182 C28.6434564,41.7343618 27.8166501,41.7654622 27.1975877,42.0627306 C25.9108528,42.6806094 24.3668584,42.1383945 23.7489796,40.8516596 C23.1311007,39.5649248 23.6733157,38.0209304 24.9600505,37.4030516 C26.9273847,36.4583549 29.3755569,36.3662667 31.2918924,37.2678108 Z M28.9851406,26.2303412 C29.9944623,27.2396629 29.9944623,28.8760968 28.9851406,29.8854185 L15.7695772,43.0992589 C14.7602555,44.1085807 13.1238216,44.1085807 12.1144998,43.0992589 C11.1051781,42.0899372 11.1051781,40.4535033 12.1144998,39.4441816 L25.3300632,26.2303412 C26.339385,25.2210194 27.9758189,25.2210194 28.9851406,26.2303412 Z M63.0333541,0.843599439 L63.7703993,0.902159613 C64.590049,0.973009537 65.1986127,1.04520414 65.5497223,1.09638757 C66.5074881,1.23600709 67.3015791,1.89754094 67.6170656,2.8021011 L67.6705338,2.97448601 L68.7629285,6.98395355 C69.1381508,8.36114961 68.3258905,9.78176539 66.9486945,10.1569877 C65.6265863,10.5172011 64.2644624,9.78303063 63.8256352,8.50526571 L63.7756603,8.34275371 L63.147,6.038 L62.622476,5.9965496 C60.2751868,5.82894135 57.812828,5.83023227 55.4292943,6.07620871 C55.3856497,8.54869348 55.0806412,11.1608382 54.5522483,13.6228635 C54.252725,15.0184804 52.8785423,15.9070398 51.4829254,15.6075165 C50.0873085,15.3079931 49.1987491,13.9338104 49.4982724,12.5381935 C49.8783439,10.7672659 50.1254774,8.90172887 50.221584,7.10621578 C48.2948805,7.72120639 46.7172343,8.56696804 45.5533513,9.64673289 L45.379,9.814 C45.3864557,9.81167723 45.3876326,9.81471257 45.3854464,9.82188161 L45.3661165,9.86627652 C45.3019591,10.0065211 45.2290292,10.2008535 45.1384072,10.475299 L45.0189111,10.8512903 C44.9223919,11.1628537 44.7615523,11.6873817 44.7100559,11.8504542 L44.505061,12.4766887 C44.4038934,12.7732258 44.302953,13.0491252 44.1942854,13.3234337 C43.6222968,14.7672989 42.9064666,15.9650558 41.8948679,16.9774142 L36.1931795,22.6809022 C36.9010898,24.713417 37.1995482,26.3447693 36.9309646,27.7581352 C36.6644837,29.1604364 35.3116685,30.0812007 33.9093673,29.8147197 C32.5631581,29.5588981 31.6607334,28.3019107 31.8264586,26.9610947 L31.8527827,26.7931224 C31.9167099,26.4567185 31.6698717,25.3194514 31.1110154,23.8264698 C30.9631635,23.4314842 30.7972489,23.0174419 30.6133798,22.5821773 L30.4235298,22.1397583 C30.0683209,21.324135 29.7139774,20.566104 29.1454894,19.3689991 C28.5410542,18.0758947 29.0993308,16.537635 30.3924352,15.9331998 C31.6855395,15.3287645 33.2237993,15.8870412 33.8282345,17.1801455 L34.0046591,17.5564607 L38.2391044,13.3230232 C38.689822,12.871967 39.0559057,12.2594207 39.3885818,11.4196496 C39.4920841,11.1583798 39.590814,10.8805146 39.6983825,10.5511328 L40.1570572,9.07953302 C40.5898713,7.72210065 40.9535557,6.92710584 41.6789385,6.2028182 C44.2733633,3.60839342 47.9485151,2.04919987 52.3986098,1.27763276 C55.9081587,0.669139551 59.5778708,0.593267817 63.0333541,0.843599439 Z M49.6631354,20.8753916 C52.0719324,21.6496289 53.458611,23.8964197 52.484923,26.4941744 C51.9839426,27.8307669 50.4942954,28.5081643 49.157703,28.0071839 C48.1953564,27.646478 47.5747365,26.7732473 47.4896273,25.813637 L47.486,25.756 L47.3942245,25.7669577 C47.3046122,25.7804505 47.2231152,25.7997754 47.1585069,25.8235642 L47.0753578,25.8624242 C45.8584456,26.6084708 44.2671531,26.2267589 43.5211065,25.0098467 C42.7750598,23.7929346 43.1567717,22.2016421 44.3736839,21.4555954 C45.8772171,20.5338313 47.9645388,20.3294274 49.6631354,20.8753916 Z" fill="#00B077"></path>
    </g>
</svg>