<?xml version="1.0" encoding="UTF-8"?>
<svg width="100px" height="100px" viewBox="0 0 100 100" version="1.1" xmlns="http://www.w3.org/2000/svg" xmlns:xlink="http://www.w3.org/1999/xlink">
    <!-- Generator: Sketch 63.1 (92452) - https://sketch.com -->
    <title>Avocado</title>
    <desc>Created with Sketch.</desc>
    <g id="Avocado" stroke="none" stroke-width="1" fill="none" fill-rule="evenodd">
        <path d="M15.0598657,81.2537798 C9.04948823,71.348646 7.67632789,58.336423 10.9036298,46.2951495 C17.7010609,20.947232 33.5960186,0.68081508 50.3346159,0.68081508 C67.0761278,0.68081508 82.9699819,20.9465033 89.7656432,46.2953032 C92.9937924,58.3361754 91.6211136,71.3485179 85.6106584,81.2537798 C78.7958957,92.4845449 66.7341273,98.9094215 50.4137566,98.8926425 L50.8332564,98.8893728 C34.2204456,99.0599304 21.9548059,92.6166777 15.0598657,81.2537798 Z M15.8963793,47.6336688 C13.0181855,58.372397 14.2384584,69.9358413 19.4789971,78.5722767 C25.2730798,88.1209557 35.4922515,93.6303746 49.8204218,93.7224706 L49.8890401,93.7205852 L49.8890401,93.7205852 L50.3342596,93.7234532 C50.48247,93.7230712 50.6311137,93.7221158 50.7801904,93.7205852 L50.8485342,93.7224727 C65.1776804,93.6304581 75.3974207,88.1209946 81.1915271,78.5722767 C86.4320736,69.9358283 87.6519037,58.3724187 84.7728939,47.6338228 C78.5140466,24.2874171 64.0539602,5.84987508 50.3346159,5.84987508 C36.618102,5.84987508 22.1567743,24.2883826 15.8963793,47.6336688 Z M50.805345,44.3667811 C61.2873925,44.3667811 69.7861333,52.8624375 69.7861333,63.3424003 C69.7861333,64.7697968 68.6289998,65.9269303 67.2016033,65.9269303 C65.7742068,65.9269303 64.6170733,64.7697968 64.6170733,63.3424003 C64.6170733,55.7176506 58.4330195,49.5358411 50.805345,49.5358411 C43.181493,49.5358411 37.0005088,55.7172742 37.0005088,63.3424003 C37.0005088,70.9671138 43.1810803,77.1472366 50.805345,77.1472366 C55.7255844,77.1472366 60.1947444,74.5565982 62.6725665,70.4109827 C63.4048801,69.1857571 64.9917791,68.7861731 66.2170046,69.5184867 C67.4422301,70.2508004 67.8418141,71.8376994 67.1095005,73.0629249 C63.7077554,78.7543455 57.5629652,82.3162966 50.805345,82.3162966 C40.3263713,82.3162966 31.8314488,73.8219909 31.8314488,63.3424003 C31.8314488,52.8625652 40.326616,44.3667811 50.805345,44.3667811 Z" fill="#00B077"></path>
    </g>
</svg>