<?xml version="1.0" encoding="UTF-8"?>
<svg width="100px" height="100px" viewBox="0 0 100 100" version="1.1" xmlns="http://www.w3.org/2000/svg" xmlns:xlink="http://www.w3.org/1999/xlink">
    <!-- Generator: Sketch 63.1 (92452) - https://sketch.com -->
    <title>Bananas</title>
    <desc>Created with Sketch.</desc>
    <g id="Bananas" stroke="none" stroke-width="1" fill="none" fill-rule="evenodd">
        <path d="M84.8482526,7.94809935 C85.4095074,9.19818612 84.8958853,10.6578367 83.7018176,11.2898611 L83.5490436,11.3644785 L75.834,14.828 L76.0729762,15.341911 C76.1971956,15.6142331 76.3204181,15.8887704 76.4421477,16.1648106 L76.8023613,16.9967277 C77.1433886,17.7994469 77.4556059,18.5805965 77.7328108,19.332117 C79.0782477,22.9796844 79.5659173,25.4926138 78.6243511,27.3979713 L78.3808655,27.8603639 C77.834839,28.9563934 77.6678361,30.0966122 77.6366426,32.6216147 L77.6261232,34.6309456 C77.5857189,38.8056353 77.2704322,41.270646 76.0906706,44.6308084 C74.3907023,49.4726076 71.1043798,54.39776 65.7351209,59.7439676 C58.4633316,66.9875746 51.956112,72.1879508 45.5745581,76.2850156 L44.5535401,76.9204648 C41.9981664,78.4814978 37.2567655,81.2429281 36.9150591,81.5956399 C36.126734,82.4105777 35.4396472,83.2154938 34.8542616,83.9818503 L34.561,84.374 L34.766,84.86 L35.1503537,85.0350098 C36.1357933,85.4775213 37.1981305,85.9204994 38.2924585,86.3326692 C38.8728576,86.5512719 39.4474576,86.7554191 40.0106203,86.941927 C44.0503211,88.2770471 50.249173,88.4660094 56.8418372,86.7505757 C65.9568496,84.3788183 75.0209271,78.6995791 83.5097247,69.0444217 C91.7786437,59.64081 94.8862424,49.4682037 93.8214079,39.6328578 C93.0511885,32.5187251 89.8270874,26.0531757 87.585129,24.8225626 C87.0899176,24.5500512 86.6289917,24.2634222 86.201545,23.963503 C84.6781207,22.8945879 83.6160391,21.6858035 82.9653694,20.42054 C82.5184272,19.5514361 82.3240879,18.786275 82.2898727,18.2041998 C82.206113,16.779263 83.2933519,15.5562227 84.7182888,15.472463 C86.0336151,15.3951463 87.1769112,16.3156036 87.4108992,17.5784214 L87.436,17.749 L87.4526933,17.8035874 C87.4675373,17.8483213 87.4881684,17.9009483 87.5156688,17.9610001 L87.5622065,18.0565878 C87.8264175,18.570361 88.3274619,19.1406134 89.1704985,19.7321325 C89.3520914,19.8595477 89.5467073,19.9854008 89.7541152,20.1089873 L90.074792,20.292579 C94.0502109,22.4746871 98.0262918,30.4482423 98.9604369,39.0764751 C100.179266,50.3341944 96.6304901,61.9509784 87.3916201,72.4576416 C78.2298092,82.8782841 68.2717669,89.1176509 58.1435008,91.7530604 C50.5906702,93.7183327 43.3765567,93.4984217 38.3870406,91.8493874 C37.7539179,91.6397108 37.1140181,91.4123635 36.4705187,91.1699946 C35.2694011,90.7176033 34.1102753,90.2342659 33.0328805,89.7504619 L32.6238142,89.5650281 C32.1763696,89.3601917 31.8350736,89.1969873 31.6193549,89.0898173 C31.1270164,88.8452215 30.7271517,88.4509003 30.4754667,87.9661076 L30.3881395,87.7801852 L29.2543923,85.093997 C28.9369795,84.3419505 28.9935018,83.4841546 29.4068501,82.7802597 L29.5508903,82.5438314 C29.7443887,82.2356325 30.0270934,81.8161794 30.4003289,81.3067461 C31.1778976,80.2454341 32.109848,79.128499 33.2011696,78.0003371 C34.16129,77.0092915 41.1609571,72.9529734 42.6763771,72.0021617 L42.7819366,71.9352517 C48.858843,68.0337756 55.0788763,63.0629103 62.0875308,56.0814182 C66.9337454,51.2560094 69.7880475,46.9783183 71.2134892,42.9184174 C72.2043462,40.0962876 72.4429988,38.0466868 72.460686,34.0983189 L72.4617764,33.6341595 C72.4632484,29.5461048 72.6655822,27.6816026 73.7672192,25.5249273 L73.925,25.225 L73.9181374,25.0897542 C73.9123583,24.883164 73.8805912,24.6097037 73.8199027,24.2825023 C73.6647176,23.4458243 73.3428171,22.3671508 72.8831478,21.1209574 C72.6365404,20.4523887 72.354869,19.7476631 72.0448418,19.017913 C71.7170814,18.2464217 71.3706613,17.4768866 71.0196054,16.7308393 L70.5465975,15.7449738 L70.0512949,14.7561505 C69.3911126,13.4884895 69.8874182,11.9378797 71.1320829,11.2792359 L71.2850087,11.2045552 L81.4318735,6.64889035 C82.7340472,6.06424995 84.2636122,6.64592563 84.8482526,7.94809935 Z M69.6266164,21.8660415 C70.6382699,22.7829379 70.7557308,24.3182277 69.9251328,25.3755939 L69.805988,25.5167149 C68.8786839,26.5398517 68.4318395,27.666653 67.8558329,30.261839 L67.5834054,31.5066581 C66.6080869,35.9005952 65.9482197,37.8313878 64.1181028,40.8256832 C61.4581824,45.1776384 57.1386244,49.2697022 50.5408264,53.3581945 C42.7168447,58.2088991 35.8067596,61.6243362 29.2940951,64.1143785 L28.5978068,64.3776509 C25.2580741,65.6263128 18.4209613,67.7093032 17.9716595,67.8976271 L17.7429533,67.9991754 C17.6451721,68.0456012 17.572305,68.0851123 17.5246057,68.1159443 C16.5706981,68.7339105 15.7177925,69.3634089 14.9727737,69.977163 L14.602,70.288 L14.71,70.911 L15.8336665,71.9475129 C16.7269844,72.7611304 17.5452487,73.4685543 18.3832683,74.1374401 C20.2810355,75.6521893 22.0433474,76.7699819 23.6130892,77.3888323 C23.9543857,77.5233841 24.2819509,77.6321951 24.5944196,77.7148778 C25.9743237,78.0800155 26.7969543,79.4946514 26.4318166,80.8745555 C26.0666788,82.2544595 24.6520429,83.0770901 23.2721389,82.7119524 C22.7586151,82.5760684 22.2404989,82.4039599 21.7172627,82.1976808 C19.5888027,81.3585629 17.4238015,79.985354 15.1586813,78.177393 C14.4096677,77.5795495 13.6842339,76.9623236 12.9274084,76.2870414 L12.0428268,75.4842717 C11.538114,75.0190279 10.7463811,74.2843295 10.5956702,74.1500542 C10.2084509,73.8050625 9.93511584,73.3526339 9.80896564,72.8526423 L9.76862364,72.6630328 L9.26894784,69.7890355 C9.1284888,68.9811538 9.37973754,68.1545512 9.94601929,67.5614858 C10.1946782,67.301066 10.6301453,66.8853701 11.2448298,66.358368 C12.2409908,65.5043056 13.3997491,64.6291852 14.7163394,63.7762652 C15.0103347,63.5862261 15.3323098,63.4152375 15.6943009,63.2517689 L15.9734852,63.1303972 C16.7033167,62.8244899 23.3896175,60.7856293 26.5801602,59.6128066 L26.7875804,59.53593 C33.187925,57.1429641 40.0048632,53.8083846 47.8175922,48.9646564 C53.7669126,45.2780097 57.5005601,41.7409988 59.7076146,38.1299874 L59.9960363,37.6481349 C61.2838457,35.4464397 61.7845722,33.8334763 62.6378757,29.9292649 L62.7307021,29.5020578 C63.5234438,25.8339904 64.2233856,23.9790894 65.9759429,22.0454132 C66.9345164,20.9877754 68.5689786,20.907468 69.6266164,21.8660415 Z M58.694239,31.4765826 C59.4986276,32.6557432 59.1948149,34.2637276 58.0156543,35.0681162 C54.6911271,37.3360107 50.5190926,39.2739968 45.298933,40.8960418 L43.7122795,41.382425 C32.0136083,44.9203743 24.737165,46.0125163 14.7655879,46.5151892 L11.9789833,46.6426462 C10.5959363,46.7114985 9.94389148,46.7841377 9.6330202,46.886789 C9.3568776,46.9785836 9.08504845,47.0735171 8.8176991,47.171295 C7.92536923,47.4976473 7.11567141,47.8426769 6.3986661,48.1881167 L6.256,48.258 L6.204,48.906 L7.04055459,50.2732018 C7.6311168,51.2215042 8.16300756,51.9959171 8.74699825,52.7284057 C10.0922981,54.4157903 11.5630065,55.6664227 13.2734598,56.4524756 L13.618781,56.6034836 C14.936977,57.1510419 15.5617022,58.6635346 15.0141439,59.9817306 C14.4665855,61.2999266 12.9540928,61.9246518 11.6358968,61.3770935 C8.88636349,60.2349796 6.6454082,58.3842465 4.7052623,55.9507576 C4.08336617,55.1707249 3.52497635,54.3756482 2.94497759,53.4688657 L2.25876158,52.3610508 C2.09869522,52.098878 1.91572946,51.7996674 1.75806552,51.5439463 L1.40918035,50.9877789 C1.12222854,50.5577117 0.971680312,50.0527831 0.974551747,49.5387056 L0.982912382,49.345626 L1.2172431,46.4388913 C1.28322714,45.6203981 1.73423233,44.8819641 2.43227703,44.4495075 C3.34114287,43.8864419 4.91393884,43.095102 7.0422324,42.3167199 C7.35727419,42.2014995 7.67739705,42.0896999 8.00732186,41.9800324 C8.93528749,41.6735998 9.86677527,41.5657787 11.9045006,41.470796 L13.858616,41.3842759 C24.2188972,40.8940559 31.3381974,39.8185171 43.765587,35.9596432 C48.5173415,34.4831443 52.2259853,32.7604117 55.1027054,30.7979979 C56.281866,29.9936093 57.8898504,30.297422 58.694239,31.4765826 Z" fill="#00B077"></path>
    </g>
</svg>