<?xml version="1.0" encoding="UTF-8"?>
<svg width="100px" height="100px" viewBox="0 0 100 100" version="1.1" xmlns="http://www.w3.org/2000/svg" xmlns:xlink="http://www.w3.org/1999/xlink">
    <!-- Generator: Sketch 63.1 (92452) - https://sketch.com -->
    <title>Barn</title>
    <desc>Created with Sketch.</desc>
    <g id="Barn" stroke="none" stroke-width="1" fill="none" fill-rule="evenodd">
        <path d="M73.4125907,46.8846801 C74.7850874,46.8846801 75.9077106,47.954515 75.992036,49.3057603 L75.9971207,49.4692101 L75.997,90.744 L82.778,90.744 L82.7789274,50.8683023 C82.7789274,49.4958057 83.8487624,48.3731824 85.2000077,48.2888571 L85.3634574,48.2837723 C86.7359541,48.2837723 87.8585774,49.3536073 87.9429027,50.7048526 L87.9479874,50.8683023 L87.9479874,93.3286842 C87.9479874,94.7011808 86.8781525,95.8238041 85.5269072,95.9081294 L85.3634574,95.9132142 L73.4125907,95.9149372 C72.1681874,95.9149372 70.923784,95.116061 70.833313,93.5183085 L70.8280607,93.3286842 L70.828,52.053 L28.212,52.053 L28.2118838,90.74347 L63.9194397,90.7448434 C65.2919364,90.7448434 66.4145597,91.8146783 66.498885,93.1659236 L66.5039697,93.3293734 C66.5039697,94.70187 65.4341348,95.8244933 64.0828895,95.9088186 L63.9194397,95.9139034 L25.6608838,95.91347 L25.6280771,95.9149372 L25.5988838,95.91347 L13.6796226,95.9139034 C12.3071259,95.9139034 11.1845026,94.8440684 11.1001773,93.4928231 L11.0950926,93.3293734 L11.0950926,50.8689915 C11.0950926,49.441595 12.2522261,48.2844615 13.6796226,48.2844615 C15.0521192,48.2844615 16.1747425,49.3542965 16.2590678,50.7055418 L16.2641526,50.8689915 L16.264,90.744 L23.0428838,90.74347 L23.0435471,49.4692101 C23.0435471,48.0967134 24.113382,46.9740901 25.4646273,46.8897648 L25.6280771,46.8846801 L73.4125907,46.8846801 Z M66.5950507,56.7664592 C67.4741223,57.8145254 67.3794612,59.3553548 66.4074997,60.2892794 L66.2757548,60.4075635 L53.5418838,71.08747 L66.274721,81.7669421 C67.3683553,82.6842342 67.511309,84.3144121 66.5940169,85.4080464 C65.7149454,86.4561127 64.1811575,86.6310712 63.092321,85.8364897 L62.9529126,85.7273424 L49.5198838,74.46047 L36.0884444,85.7273424 C34.99481,86.6446345 33.3646321,86.5016808 32.44734,85.4080464 C31.5682685,84.3599802 31.6629296,82.8191508 32.6348911,81.8852262 L32.766636,81.7669421 L45.4978838,71.08747 L32.7656022,60.4075635 C31.6719679,59.4902715 31.5290142,57.8600935 32.4463062,56.7664592 C33.3253778,55.7183929 34.8591657,55.5434344 35.9480022,56.3380159 L36.0874106,56.4471632 L49.5198838,67.71347 L62.9539464,56.4471632 C64.0475808,55.5298712 65.6777587,55.6728248 66.5950507,56.7664592 Z M50.4170126,3.57618344 L50.6076433,3.65555354 L81.1206045,17.8136089 C81.5997161,18.0359173 81.9977314,18.3989352 82.2630474,18.852027 L82.3562198,19.0260597 L98.3665217,51.8874972 C98.9917056,53.1706986 98.458277,54.7177506 97.1750756,55.3429345 C95.9432022,55.943111 94.4681642,55.4755103 93.7990095,54.3018475 L93.7196383,54.1514884 L78.111,22.116 L49.519,8.849 L20.931,22.116 L5.32344169,54.1514884 C4.72326513,55.3833617 3.27349498,55.9242445 2.02317916,55.4124214 L1.8680044,55.3429345 C0.636131042,54.7427579 0.095248327,53.2929878 0.607071418,52.0426719 L0.676558313,51.8874972 L16.6868602,19.0260597 C16.9181801,18.5512713 17.2886324,18.1602155 17.7466246,17.9035197 L17.9223744,17.8136558 L48.4318895,3.65560046 C49.0590848,3.36454815 49.7738798,3.33807466 50.4170126,3.57618344 Z M59.1580463,21.4515265 C60.5854428,21.4515265 61.7425763,22.6086599 61.7425763,24.0360565 C61.7425763,25.4085531 60.6727413,26.5311764 59.321496,26.6155017 L59.1580463,26.6205865 L42.468,26.62 L42.468,33.979 L56.573,33.979 L56.5735163,32.6511565 C56.5735163,31.2786598 57.6433512,30.1560365 58.9945965,30.0717112 L59.1580463,30.0666265 C60.5305429,30.0666265 61.6531662,31.1364614 61.7374915,32.4877067 L61.7425763,32.6511565 L61.7425763,36.5641349 C61.7425763,37.9366315 60.6727413,39.0592548 59.321496,39.1435801 L59.1580463,39.1486649 L39.8843445,39.1486649 C38.5118479,39.1486649 37.3892246,38.0788299 37.3048993,36.7275846 L37.2998145,36.5641349 L37.2998145,24.0360565 C37.2998145,22.6635598 38.3696495,21.5409365 39.7208948,21.4566112 L39.8843445,21.4515265 L59.1580463,21.4515265 Z" fill="#00B077"></path>
    </g>
</svg>