<?xml version="1.0" encoding="UTF-8"?>
<svg width="100px" height="100px" viewBox="0 0 100 100" version="1.1" xmlns="http://www.w3.org/2000/svg" xmlns:xlink="http://www.w3.org/1999/xlink">
    <!-- Generator: Sketch 63.1 (92452) - https://sketch.com -->
    <title>Carrot</title>
    <desc>Created with Sketch.</desc>
    <g id="Carrot" stroke="none" stroke-width="1" fill="none" fill-rule="evenodd">
        <path d="M61.5179779,13.077259 C62.9047193,13.4155028 63.7546945,14.8138797 63.4164507,16.2006212 C63.0782068,17.5873626 61.6798299,18.4373379 60.2930884,18.099094 C45.73732,14.548757 31.737111,27.8560554 19.8855728,52.6277151 C15.4096837,61.9830579 11.5688132,72.4087205 8.89919687,81.8794231 C7.78718222,85.8243945 6.95565333,89.3557286 6.50190192,91.986662 L6.39785473,92.6166721 C6.36607913,92.8186194 6.33721663,93.0123636 6.31128617,93.1974635 L6.254,93.629 L6.41452414,93.6090398 C6.76717426,93.5630414 7.15528443,93.5052758 7.57532522,93.4358946 L7.89628765,93.3816831 C10.5270067,92.9278441 14.0581461,92.0961956 18.0029413,90.9840538 C27.4732594,88.3141212 37.8986327,84.4729487 47.2537795,79.9968687 C72.0250191,68.1447778 85.3324914,54.144805 81.7828752,39.5905608 C81.4446628,38.2038117 82.2946696,36.8054541 83.6814187,36.4672416 C85.0681679,36.1290291 86.4665255,36.979036 86.804738,38.3657851 C91.1502283,56.1832968 76.259351,71.8490726 49.4847612,84.6596899 C39.850256,89.2694322 29.149104,93.2122139 19.4055596,95.9591762 L17.9552018,96.3631728 C8.96238247,98.8356391 3.63180399,99.6554537 1.93059011,97.953116 C0.138923549,96.1614494 1.14154084,90.3480916 3.92401618,80.4770115 C6.67065815,70.7330534 10.6131382,60.0315819 15.2226963,50.3968489 C28.0327217,23.6217936 43.698917,8.73096339 61.5179779,13.077259 Z M28.0008744,61.3313493 C29.3751203,61.7172368 30.176343,63.1441068 29.7904555,64.5183527 C28.8778631,67.7683315 30.4849757,69.7725361 32.9829443,69.3078443 L33.1507775,69.2731938 C34.5428577,68.9576413 35.9271676,69.8303395 36.2427201,71.2224197 C36.5582726,72.6145 35.6855744,73.9988098 34.2934942,74.3143623 C27.7042894,75.8079831 22.8659779,70.0578848 24.8138711,63.1209304 C25.1997586,61.7466845 26.6266286,60.9454618 28.0008744,61.3313493 Z M49.9522966,53.8990351 C51.3715903,54.050911 52.3990354,55.3245956 52.2471595,56.7438892 C51.8060997,60.8656318 54.8043215,62.5154838 57.9027758,59.8927122 C58.9922569,58.9704911 60.6230638,59.1060821 61.5452849,60.1955632 C62.467506,61.2850443 62.331915,62.9158511 61.2424339,63.8380722 C54.5441726,69.5079989 46.1755071,64.902916 47.1074425,56.193898 C47.2593184,54.7746043 48.533003,53.7471592 49.9522966,53.8990351 Z M58.2505166,22.9863074 C68.5506812,22.9883075 76.8942598,31.3312678 76.8982602,41.6318262 C76.8988143,43.0592226 75.7421303,44.2168054 74.3147339,44.2173599 C72.8873375,44.217914 71.7297547,43.06123 71.7292004,41.6338336 C71.7263083,34.1867532 65.6959215,28.1568133 58.2495129,28.1553674 C56.8221164,28.1550902 55.6652076,26.9977321 55.6654847,25.5703356 C55.6657619,24.1429391 56.8231201,22.9860303 58.2505166,22.9863074 Z M46.9093234,29.3920406 C47.9989638,30.3140734 48.1348366,31.9448568 47.2128038,33.0344972 C44.6358212,36.0799252 46.1825403,39.0268967 50.1456175,38.7121138 L50.360227,38.6921121 C51.7795568,38.5405741 53.0529968,39.5683223 53.2045348,40.9876521 C53.3560728,42.4069819 52.3283246,43.6804218 50.9089948,43.8319599 C42.2013181,44.7616552 37.5981215,36.3947339 43.2668668,29.695521 C44.1888996,28.6058806 45.819683,28.4700078 46.9093234,29.3920406 Z M79.0512273,2.23061249 L79.1176022,2.39443125 L81.369,8.519 L81.6454333,8.37751675 C82.5937261,7.89404545 83.5729513,7.41436238 84.5690897,6.94961767 L85.5703467,6.49026538 C87.0639736,5.81677973 88.5162643,5.21595712 89.9059783,4.70628289 C90.9890012,4.30908693 92.0232091,3.97132434 93.0032997,3.69925905 C94.9400112,3.16164349 96.7222571,4.94342826 96.1851428,6.8802788 C95.9133428,7.86039779 95.5758509,8.89463261 95.1789306,9.9776814 C94.6694129,11.3679671 94.0686822,12.8208702 93.3952436,14.3151238 C92.7909327,15.6559938 92.1534798,16.9750765 91.5092965,18.2391571 L91.367,18.514 L97.4912535,20.7648017 C99.2240898,21.4017162 99.7346031,23.5812893 98.5194299,24.921424 L98.3964284,25.0484139 C96.5395377,26.8443897 94.3030069,28.3576764 91.7722784,29.6236332 C89.2544709,30.8831264 86.579934,31.8351685 83.9081556,32.529259 L83.2834031,32.6871153 C81.9709371,33.0092345 80.9314809,33.203324 80.2711294,33.2954839 C78.8574341,33.4927819 77.5514661,32.5066971 77.3541681,31.0930018 C77.1644585,29.7336795 78.0688528,28.4739569 79.3954722,28.2036688 L80.1868337,28.069114 L80.3485113,28.0386511 C81.0265735,27.9090825 81.7870635,27.73965 82.6084482,27.5262657 C84.953288,26.9171093 87.2953692,26.0834098 89.4597387,25.0007183 C89.9415788,24.7596855 90.4084377,24.509176 90.8593701,24.2491832 L91.292,23.993 L86.796518,22.3410525 C85.3510966,21.8097791 84.6992176,20.1496264 85.3626385,18.7871463 L85.9875121,17.6431841 C86.1321159,17.3743703 86.2851721,17.0860463 86.4452549,16.7800803 C87.208572,15.3211534 87.9720883,13.7679201 88.6826765,12.1912375 C88.8910753,11.7288337 89.0915677,11.2716782 89.2834405,10.8207963 L89.441,10.443 L89.0649988,10.6016054 L88.3843665,10.8958306 L87.695097,11.202443 C86.1180607,11.9135385 84.5644303,12.6776006 83.1050948,13.441464 L82.2417416,13.8995361 L81.2475535,14.4456573 C79.9091546,15.2074868 78.2200049,14.6346364 77.6068898,13.2487223 L77.5432666,13.0914124 L75.889,8.592 L75.6299972,9.03167053 C75.456513,9.33278251 75.2872509,9.64100667 75.1222092,9.95606108 L74.8778118,10.4337302 C73.7968367,12.5968297 72.9642526,14.9375569 72.3557229,17.2810462 C72.1425562,18.1019655 71.9732637,18.8620282 71.8437728,19.5397146 L71.763563,19.9774642 L71.7064338,20.3312028 C71.5090342,21.7448839 70.2029953,22.7308749 68.7893142,22.5334753 C67.3756332,22.3360757 66.3896422,21.0300368 66.5870418,19.6163557 L66.6368916,19.28529 C66.7609734,18.511367 66.9908683,17.3748911 67.3525863,15.9818907 C68.0458944,13.3119137 68.9965734,10.6391747 70.2539727,8.12303906 C71.521064,5.58750919 73.0360698,3.3475185 74.834569,1.48901843 C76.1181389,0.162626589 78.3172639,0.577581991 79.0512273,2.23061249 Z" fill="#00B077"></path>
    </g>
</svg>