<?xml version="1.0" encoding="UTF-8"?>
<svg width="100px" height="100px" viewBox="0 0 100 100" version="1.1" xmlns="http://www.w3.org/2000/svg" xmlns:xlink="http://www.w3.org/1999/xlink">
    <!-- Generator: Sketch 63.1 (92452) - https://sketch.com -->
    <title>Cauliflower(?)</title>
    <desc>Created with Sketch.</desc>
    <g id="Cauliflower(?)" stroke="none" stroke-width="1" fill="none" fill-rule="evenodd">
        <path d="M10.092362,79.7014691 C11.2554456,80.4215013 11.6481063,81.9144626 11.0175292,83.1058051 L10.9294564,83.2593988 C7.97533956,88.0312475 15.5119572,96.0783586 20.607907,93.0157253 L20.7731976,92.9119006 C21.9668459,92.1291717 23.5690162,92.4622877 24.351745,93.6559361 C25.1344739,94.8495844 24.8013579,96.4517546 23.6077096,97.2344835 C13.748052,103.699904 0.717993323,89.933983 6.53443234,80.5385635 C7.28577027,79.3249111 8.87870965,78.9501312 10.092362,79.7014691 Z M87.4234877,64.0123513 L87.4719095,63.9891994 C87.5010669,63.9757136 87.5305141,63.9627563 87.5602383,63.9503395 C87.5753157,63.9441574 87.5905327,63.9379619 87.6058099,63.9319102 C87.6385145,63.9188845 87.6713005,63.9066893 87.7043873,63.8951494 C87.725595,63.8877269 87.7475208,63.8803754 87.7695511,63.8733157 C87.7962759,63.8648735 87.8229345,63.8568463 87.8497669,63.8492428 C87.8855165,63.8388416 87.9214921,63.8294163 87.9576939,63.8207642 C87.9689882,63.8185036 87.9803879,63.8158844 87.9918153,63.8133411 C88.0357879,63.8029729 88.0800633,63.7942331 88.1246155,63.7866528 C88.1323458,63.7861404 88.1397245,63.7849359 88.1471133,63.7837629 C88.3186314,63.7552724 88.4946212,63.744807 88.6721564,63.7528994 L88.624119,63.7527056 C92.2458895,63.8491417 94.5243746,60.8849675 94.3973574,56.7341523 C94.2709796,52.6042372 91.8367578,49.7494272 88.0104599,49.8510115 L87.7643464,49.8615268 C85.4433619,49.997824 84.1366902,47.2394058 85.7124046,45.529824 C91.6136234,39.1272579 92.3475462,32.2114253 88.9157253,26.8116737 C85.8597225,22.003248 80.2943239,19.8572154 75.9530321,21.8429126 C74.6549765,22.4366403 73.1213832,21.8656698 72.5276555,20.5676143 C71.9339278,19.2695587 72.5048983,17.7359654 73.8029538,17.1422377 C80.6678303,14.0022585 88.9222873,17.1851991 93.2782659,24.0390538 C97.256652,30.2987909 97.1540879,38.0431986 92.5210358,45.1811939 L92.365,45.417 L92.4074297,45.4333762 C96.6437888,47.0800266 99.2986043,51.2514498 99.5515222,56.2678802 L99.5639989,56.5760502 C99.7533579,62.7641385 96.2317613,67.978433 90.4555666,68.8090368 C82.6132721,90.8904777 58.657105,103.024623 36.0768223,96.0102389 C13.1921397,88.9049141 0.280916499,64.7948892 6.92007488,41.87869 C2.79300613,29.3159321 6.28814569,18.1785037 14.5267416,14.5695907 C22.5777318,11.0428582 30.7403439,16.4155631 34.1240532,27.9868354 L34.18,28.182 L34.4110818,28.1186663 C41.0004962,26.3634152 47.330123,29.2239743 51.0094555,35.4190481 L51.1854093,35.7214067 C54.407466,41.372717 54.9643102,48.7060163 52.6376795,56.052865 L52.558,56.297 L52.6658003,56.278457 C57.8261442,55.4011727 62.9335721,57.4560372 66.6288773,61.7676375 L66.8533445,62.034427 C71.9341978,68.185805 72.5623455,76.762811 67.4121685,82.6529056 C66.4725991,83.7274614 64.839828,83.8368895 63.7652722,82.8973201 C62.6907164,81.9577507 62.5812883,80.3249796 63.5208577,79.2504239 C66.8652974,75.425494 66.4426185,69.6540498 62.8679679,65.3262282 C59.2986506,61.0048635 54.1277128,59.8984458 49.3587371,63.1120971 L49.0990219,63.2916782 C46.8526681,64.8846922 44.0048388,62.327959 45.3473543,59.9234942 C54.1321075,44.1898726 45.0421798,28.2466391 33.5084026,33.9647484 C31.984084,34.7204609 30.1580505,33.8226632 29.8256754,32.1540783 C27.6696293,21.3303263 21.8933772,16.985888 16.6007819,19.3043069 C11.758484,21.4254733 9.16099817,28.0476027 10.8408275,36.5207732 C15.6379962,32.2751508 21.2390655,32.2033434 26.0227763,36.1202664 C31.0160503,40.2087805 34.0703242,47.9647396 33.4089508,55.0735473 C33.2767229,56.4948061 32.0173731,57.5397722 30.5961143,57.4075443 C29.1748555,57.2753164 28.1298895,56.0159666 28.2621174,54.5947078 C28.7678749,49.1585454 26.3792534,43.0929299 22.7480412,40.1196777 C19.2820869,37.2817395 15.609449,37.8732479 11.987688,42.9715872 L12.101568,42.5952554 C5.75867211,63.0259379 17.1793687,84.7304065 37.6099096,91.07376 C58.0361825,97.4190182 79.7383899,86.0037944 86.0850667,65.5781907 C86.1323255,65.4199312 86.1950741,65.2692268 86.2707633,65.1265568 C86.2772642,65.1152332 86.2834954,65.1036365 86.2898079,65.0921014 C86.3077478,65.0587304 86.3265655,65.0262484 86.3460579,64.9942283 C86.354956,64.9797654 86.3641996,64.9648476 86.3735829,64.9500451 C86.3916816,64.9216155 86.4099265,64.8941548 86.4286741,64.8670729 C86.4450361,64.8430344 86.4622435,64.8189806 86.479829,64.7952724 C86.4832851,64.7911416 86.4865977,64.7867173 86.4899241,64.7823041 L86.479829,64.7952724 C86.6440368,64.5738926 86.8412143,64.3826499 87.0619319,64.2265059 C87.1293604,64.1789217 87.1991403,64.1342841 87.2710704,64.0930145 C87.2965468,64.0784696 87.3224945,64.0641864 87.3486785,64.0503505 C87.3662422,64.0409496 87.3838084,64.0319144 87.4014887,64.0230764 L87.4234877,64.0123513 L87.4234877,64.0123513 Z M71.0404166,23.5606359 C80.3051956,32.2185889 83.6909255,45.6629853 79.5579762,60.727974 C79.1803357,62.1045089 77.7582956,62.9142729 76.3817606,62.5366324 C75.0052257,62.158992 74.1954617,60.7369519 74.5731021,59.3604169 C78.2124818,46.094536 75.3285435,34.6427039 67.5111148,27.3373024 C60.1079797,20.4190589 49.1372873,18.1481465 38.5317485,21.6136315 C37.1749502,22.0569814 35.7156417,21.3164851 35.2722919,19.9596868 C34.828942,18.6028885 35.5694383,17.14358 36.9262366,16.7002302 C49.2973815,12.6578125 62.2403844,15.3369895 71.0404166,23.5606359 Z M49.2764705,0.762212183 C56.4653512,1.23919953 62.8587489,5.21131505 64.4515907,10.7953539 C64.8431362,12.1679984 64.0477984,13.598157 62.6751539,13.9897025 C61.3574152,14.3655862 59.9866715,13.6476382 59.5327059,12.375173 L59.4808053,12.2132657 C58.5680497,9.01341083 54.1454097,6.26569544 48.9342522,5.91993144 C43.125609,5.53452383 38.0760204,8.11459994 35.5153473,13.4762165 C34.900189,14.7642542 33.3573438,15.3097306 32.0693061,14.6945722 C30.7812685,14.0794139 30.2357921,12.5365687 30.8509504,11.248531 C34.3780245,3.8634339 41.4623045,0.243736717 49.2764705,0.762212183 Z" id="Cauliflower?" fill="#00B077"></path>
    </g>
</svg>