<?xml version="1.0" encoding="UTF-8"?>
<svg width="100px" height="100px" viewBox="0 0 100 100" version="1.1" xmlns="http://www.w3.org/2000/svg" xmlns:xlink="http://www.w3.org/1999/xlink">
    <!-- Generator: Sketch 63.1 (92452) - https://sketch.com -->
    <title>Cherries</title>
    <desc>Created with Sketch.</desc>
    <g id="Cherries" stroke="none" stroke-width="1" fill="none" fill-rule="evenodd">
        <path d="M78.0979095,39.2393481 C80.2004797,39.6847161 80.8524032,42.3312051 79.2682174,43.7099285 L78.8889871,44.0208232 C78.8011817,44.0955025 78.6941856,44.1883695 78.569266,44.2995235 C78.0570569,44.7552896 77.4790848,45.3133668 76.8513443,45.9749925 C75.031826,47.8927281 73.2026719,50.2410415 71.4898886,53.0304671 C69.6856025,55.9689135 68.119746,59.2274177 66.8635631,62.8141503 C66.3917456,64.1613137 64.9171702,64.8709216 63.5700069,64.399104 C62.2228436,63.9272865 61.5132357,62.4527111 61.9850532,61.1055478 C63.3656015,57.1637193 65.0913724,53.5724376 67.084949,50.3257142 C68.6109433,47.8404917 70.2279586,45.6593047 71.8681116,43.7749366 L72.153,43.452 L71.6060875,43.3816415 C63.2408224,42.3400207 55.9144664,43.1848367 49.7115148,45.2867932 L49.2241436,45.4553375 C47.6967225,45.9942527 46.3771724,46.5677325 45.2727212,47.135451 L44.7632636,47.4047856 C44.4651625,47.5672992 44.2504056,47.6942599 44.1206118,47.7768634 L44.0628026,47.814428 C42.8748922,48.6058379 41.2703361,48.2844107 40.4789261,47.0965003 C39.6875162,45.9085899 40.0089434,44.3040338 41.1968538,43.5126239 L41.4226766,43.3676361 C41.7629544,43.1558976 42.2596835,42.8722618 42.9096001,42.5381866 C44.2175883,41.8658445 45.7513592,41.1992637 47.5042719,40.580789 C55.9698877,37.5938922 66.2509845,36.7299238 78.0979095,39.2393481 Z M85.6614132,33.5957019 L85.7481037,33.7419633 L90.9016565,43.1151921 C91.5893691,44.3659967 91.1328929,45.9374754 89.8820883,46.625188 C88.6813158,47.2853921 87.1850102,46.8911117 86.4587829,45.7518811 L86.3720924,45.6056197 L81.2185395,36.2323909 C80.5308269,34.9815863 80.9873032,33.4101076 82.2381078,32.722395 C83.4388802,32.0621909 84.9351859,32.4564713 85.6614132,33.5957019 Z M47.9732974,0.730691248 L48.4658156,0.741713007 C48.780668,0.752336308 49.1631183,0.771031091 49.607563,0.800653913 C50.8906407,0.886172724 52.3076805,1.04066435 53.826231,1.28122594 C58.140987,1.9647492 62.4553676,3.20129803 66.508031,5.13971896 C75.1450003,9.27084963 81.4026275,16.0102133 84.0955034,25.7821049 C84.4747207,27.1582063 83.6665864,28.5811732 82.290485,28.9603905 C80.9143836,29.3396078 79.4914167,28.5314735 79.1121994,27.1553721 C76.8456457,18.9305155 71.6402985,13.3244405 64.2776331,9.80281951 C60.7150936,8.0988287 56.8710975,6.99709723 53.0174583,6.38662191 C52.2411529,6.26364328 51.4961676,6.16598932 50.7888823,6.09078955 L50.148,6.028 L50.1339497,6.30155203 C49.9142634,11.47726 51.5183464,16.813295 54.7064087,20.9893164 L54.975742,21.3346047 C59.35803,26.8334836 66.1484268,29.8381474 74.8517477,29.4504012 C76.2777297,29.3868715 77.4852176,30.4913574 77.5487472,31.9173394 C77.6122769,33.3433215 76.507791,34.5508093 75.081809,34.614339 C64.7445598,35.0748792 56.359193,31.3644615 50.9333614,24.5561479 C46.0993276,18.4904198 44.0657064,10.3961014 45.2960033,2.89639256 C45.490932,1.7081358 46.4774985,0.819913612 47.6639323,0.736643845 L47.8347186,0.730278551 L47.9732974,0.730691248 Z M62.591359,73.383198 C67.564926,77.2306214 68.4783147,84.3826758 64.6319703,89.3552591 C60.7852035,94.3279773 53.6335562,95.2391424 48.6603335,91.3908989 C43.6871791,87.545517 42.7738916,80.395123 46.6213186,75.4201472 C50.4043512,70.5325799 57.3818633,69.5688074 62.3410438,73.1949235 L62.591359,73.383198 Z M42.5330114,72.2570911 C36.93856,79.4910839 38.266536,89.8881954 45.4977206,95.4795491 C52.7278864,101.074199 63.1265394,99.7493447 68.7205571,92.5179539 C74.3136108,85.2872117 72.9856261,74.8887692 65.7540538,69.2946111 C58.5242198,63.7022599 48.1277165,65.0288954 42.5330114,72.2570911 Z M30.6855647,48.7056749 L30.9358379,48.8939341 C35.9070126,52.7402752 36.8205309,59.892476 32.97514,64.8624227 C29.1283051,69.8366327 21.9769094,70.7486898 17.0049284,66.9017248 C12.0306038,63.0537153 11.1183776,55.9052664 14.9672229,50.9316765 C18.7496196,46.0417654 25.7249906,45.0781186 30.6855647,48.7056749 Z M10.8789153,47.7686207 C5.28299343,54.9998338 6.60957927,65.3953165 13.8419541,70.9900955 C21.0716982,76.5839568 31.4703173,75.2577634 37.0637267,68.0251176 C42.5833135,60.8913692 41.3610924,50.6683708 34.3774716,45.0258961 L34.0988121,44.8055634 C26.8671656,39.2113478 16.4718838,40.5379886 10.8789153,47.7686207 Z" fill="#00B077"></path>
    </g>
</svg>