<?xml version="1.0" encoding="UTF-8"?>
<svg width="99px" height="99px" viewBox="0 0 99 99" version="1.1" xmlns="http://www.w3.org/2000/svg" xmlns:xlink="http://www.w3.org/1999/xlink">
    <!-- Generator: Sketch 63.1 (92452) - https://sketch.com -->
    <title>Farmer</title>
    <desc>Created with Sketch.</desc>
    <g id="Farmer" stroke="none" stroke-width="1" fill="none" fill-rule="evenodd">
        <path d="M67.3173033,56.4117675 L67.8871136,56.6313046 L68.2190292,56.7642093 C68.9075695,57.0426431 69.6718356,57.3686536 70.4934275,57.7403814 C72.8421476,58.8030556 75.1923086,60.0245283 77.3998709,61.3947128 C82.4392543,64.5225455 86.0274623,67.9521612 87.5145362,71.8417509 C89.6038908,77.2869626 90.1344826,84.7383332 90.1344826,96.2971901 C90.1344826,97.6696867 89.0646476,98.79231 87.7134024,98.8766354 L87.5499526,98.8817201 L11.4114218,98.8817201 C9.98402533,98.8817201 8.82689183,97.7245866 8.82689183,96.2971901 C8.82689183,94.9246935 9.89672679,93.8020702 11.2479721,93.7177449 L11.4114218,93.7126601 L27.0888918,93.7124094 L27.0888918,82.0664094 L27.0886639,82.0335136 L27.0886639,73.8147082 C27.0886639,72.3873117 28.2457974,71.2301782 29.6731939,71.2301782 C31.0456905,71.2301782 32.1683138,72.3000132 32.2526392,73.6512585 L32.2577239,73.8147082 L32.2568918,79.4494094 L66.7008918,79.4494094 L66.7012383,73.8147082 C66.7012383,72.3873117 67.8583718,71.2301782 69.2857683,71.2301782 C70.6582649,71.2301782 71.7808882,72.3000132 71.8652136,73.6512585 L71.8702983,73.8147082 L71.8698918,93.7114094 L84.954,93.712 L84.9493338,93.1593863 C84.8527653,84.2689332 84.302509,78.1124019 82.7919201,73.9699255 L82.6874313,73.6905965 C81.6993898,71.1062792 78.8372827,68.370672 74.6739387,65.7865775 C72.675857,64.5464129 70.519971,63.4259127 68.362644,62.4498339 L67.9161215,62.2499309 L67.646,62.131 L67.3925284,62.5783272 C58.5858332,77.7161308 40.5711141,77.9372059 31.6623326,62.6145371 L31.388,62.132 L30.6723114,62.4506125 C28.5133857,63.4272816 26.3559014,64.5484437 24.3563285,65.7893277 C20.1927701,68.3731259 17.3293711,71.1083721 16.3385252,73.692928 C15.3068968,76.3834563 14.8504178,78.4448227 14.713044,80.7214611 L14.6909634,81.1510597 C14.6590753,81.8979801 14.6539916,82.4938161 14.6727333,83.6401146 L14.7263981,86.424475 C14.7336534,86.9146328 14.7368504,87.3378744 14.7368504,87.8044245 C14.7368504,89.231821 13.5797169,90.3889545 12.1523204,90.3889545 C10.7249239,90.3889545 9.56779043,89.231821 9.56779043,87.8044245 L9.56344429,86.9417993 C9.55896682,86.5043838 9.55083574,86.0341076 9.53816457,85.4242922 L9.49697496,83.2114163 C9.48682096,82.3437737 9.49352803,81.7700616 9.51966678,81.1002574 L9.52660778,80.9305787 C9.65512252,77.9203606 10.2164125,75.2215111 11.5120442,71.8424516 C13.0034685,67.9521701 16.5922442,64.5240118 21.6307233,61.3972601 C23.8397504,60.0263942 26.1914803,58.8042901 28.5417688,57.741051 C29.1994809,57.4435108 29.8204792,57.1752442 30.3953361,56.9372042 L30.8176799,56.7643566 C31.2380856,56.5943728 31.5450315,56.4761644 31.7199712,56.4117354 C32.986026,55.9454566 34.3977373,56.5314816 34.9613757,57.7572966 C41.8101027,72.6520805 57.3186969,72.4425949 64.0760975,57.756675 C64.6399654,56.5312157 66.0514786,55.9455218 67.3173033,56.4117675 Z M66.701,84.618 L32.258,84.618 L32.2578918,93.7124094 L66.7008918,93.7114094 L66.701,84.618 Z M67.5455177,40.0223062 C68.8849959,40.5155191 69.5710295,42.0012087 69.0778167,43.3406869 C65.8372754,52.1414197 58.7915287,59.213453 49.3178076,64.6285532 C48.0785675,65.3368926 46.4997423,64.9065125 45.791403,63.6672723 C45.0830636,62.4280322 45.5134437,60.8492071 46.7526839,60.1408677 C55.2626267,55.2766551 61.4678827,49.0482482 64.227137,41.5546052 C64.7203498,40.215127 66.2060395,39.5290934 67.5455177,40.0223062 Z M34.2438302,41.4468735 C36.1867368,46.5032153 39.8488939,50.6887107 44.603466,52.7789388 C45.9101641,53.3533958 46.5037628,54.8783733 45.9293059,56.1850714 C45.3548489,57.4917695 43.8298714,58.0853682 42.5231733,57.5109113 C36.4264374,54.8306346 31.8307941,49.5782537 29.4187227,43.300928 C28.9067396,41.9685114 29.5718325,40.47333 30.9042492,39.961347 C32.2366659,39.449364 33.7318472,40.1144569 34.2438302,41.4468735 Z M57.4153666,0.668409377 L58.9442423,0.67355066 C59.3227738,0.67827872 59.6323718,0.686837057 59.9820027,0.701646999 C63.7557759,0.861499452 66.5577776,1.78113209 68.9775787,4.20093328 C73.0560677,8.27768384 75.3618235,19.8042911 75.4783134,30.6488277 L80.5780968,30.6490943 C82.0054933,30.6490943 83.1626268,31.8062278 83.1626268,33.2336243 C83.1626268,34.6061209 82.0927918,35.7287442 80.7415465,35.8130695 L80.5780968,35.8181543 L17.966996,35.8181543 C16.5395995,35.8181543 15.382466,34.6610208 15.382466,33.2336243 C15.382466,31.8611277 16.452301,30.7385044 17.8035463,30.654179 L17.966996,30.6490943 L23.0095812,30.6492077 C23.1262206,19.8092008 25.4348558,8.2780948 29.5122583,4.20243143 C31.8445848,1.86727444 34.5359232,0.928427561 38.1115515,0.721506329 L38.4980622,0.702106667 C38.9353223,0.683425663 39.3102668,0.674557228 39.8338558,0.670771107 L41.075968,0.668409377 C42.2384,0.668409377 43.4097803,1.0055954 44.6151143,1.60093957 C45.7569933,2.16494177 46.9125534,2.95402056 48.0796007,3.91331335 C48.390145,4.16857545 48.6944378,4.43012775 48.9912773,4.69545955 L49.134,4.825 L49.2219365,4.74031642 C49.3990565,4.56955446 49.5838481,4.39684038 49.7759844,4.22333192 L50.0696565,3.96261818 C52.3021885,2.01431426 54.6298487,0.774849005 57.0932766,0.674942706 L57.4153666,0.668409377 Z M58.3684187,5.83834997 L57.4153666,5.83746938 C56.3558352,5.83746938 54.9445255,6.56899734 53.4684037,7.85719117 C52.8925652,8.3597185 52.353303,8.90486321 51.8717261,9.4491662 L51.558344,9.81263145 C51.4422257,9.95129316 51.3577947,10.0574533 51.3082665,10.1231235 C50.328306,11.4224684 48.4057697,11.5036086 47.319812,10.2914552 L46.9607373,9.90941813 C46.8626328,9.80810628 46.7495036,9.69309998 46.6226975,9.56664597 C46.0532168,8.99874657 45.435081,8.43076306 44.7972732,7.906496 C43.9111158,7.17808986 43.0660192,6.60101231 42.325993,6.2354951 C41.8355745,5.99326531 41.4365539,5.8671768 41.1697444,5.84214762 L41.075968,5.83746938 L39.9039886,5.83952371 C39.4232782,5.8428268 39.0918422,5.85051393 38.718698,5.86645572 C36.1242004,5.9773001 34.5178164,6.50539052 33.168054,7.85678975 C30.3926856,10.6309752 28.3001853,21.1407732 28.1794979,30.6492033 L70.3083975,30.6488241 C70.1878602,21.1364545 68.0979167,10.6302432 65.3228909,7.8564002 C64.029208,6.56271722 62.5017931,6.02362464 60.0967102,5.88283861 L59.7632438,5.86607589 C59.3386518,5.84809069 58.9683409,5.84075 58.3684187,5.83834997 Z" fill="#00B077"></path>
    </g>
</svg>