<?xml version="1.0" encoding="UTF-8"?>
<svg width="100px" height="100px" viewBox="0 0 100 100" version="1.1" xmlns="http://www.w3.org/2000/svg" xmlns:xlink="http://www.w3.org/1999/xlink">
    <!-- Generator: Sketch 63.1 (92452) - https://sketch.com -->
    <title>Garlic</title>
    <desc>Created with Sketch.</desc>
    <g id="Garlic" stroke="none" stroke-width="1" fill="none" fill-rule="evenodd">
        <path d="M75.185678,8.14385477 L76.6799662,9.6720669 L78.3215867,11.329508 C80.0354945,13.0515389 81.9963127,14.9974097 84.1947687,17.1508022 C85.2144873,18.1496188 85.2314317,19.785965 84.2326151,20.8056836 C83.2337985,21.8254022 81.5974523,21.8423466 80.5777337,20.84353 L78.442761,18.7441037 C76.9015304,17.2223426 75.4958749,15.8204197 74.2296931,14.5452118 L73.342,13.649 L72.3890212,14.6599973 C68.6681337,18.5716945 66.6027233,20.2471711 63.3218222,21.5338732 C58.8026744,23.3061902 53.5766903,23.0339463 47.1288838,20.4786114 L46.6429994,20.2826767 C31.1688233,13.9446855 15.7130916,16.9508893 9.25837687,26.7669332 C3.95066518,34.8386656 5.25945993,46.2719475 13.9822137,59.3125362 C15.3599814,37.9232803 31.0120092,26.5486957 51.8040133,28.3840238 C53.2258811,28.5095333 54.2767872,29.7639304 54.1512777,31.1857983 C54.0257682,32.6076661 52.7713711,33.6585722 51.3495032,33.5330627 C42.2245567,32.7275958 33.7603759,34.980423 27.9097847,40.0304563 C21.4531703,45.6035884 18.269543,54.378152 19.2051095,66.2461738 C21.1513547,68.5752283 23.3207909,70.94208 25.7174085,73.338504 C28.1141118,75.7355946 30.4812852,77.9054006 32.8100059,79.8519717 C44.677669,80.7878138 53.4516262,77.6037322 59.0246705,71.1464254 C64.0748916,65.2948971 66.3278734,56.8294402 65.5223823,47.7042187 C65.3968728,46.2823509 66.4477788,45.0279537 67.8696467,44.9024442 C69.2915145,44.7769347 70.5459117,45.8278408 70.6714212,47.2497086 C72.5067909,68.0421844 61.1324586,83.6965784 39.7447565,85.074696 C52.7823875,93.7949322 64.2151957,95.1032547 72.2870408,89.7958957 C82.0063516,83.4053033 85.0496231,68.1924706 78.9571776,52.8723643 L78.7697592,52.4080948 C74.4444692,41.856047 76.5340984,34.5919372 83.2067165,27.7942209 L83.7219193,27.2807387 C84.6874817,26.3421387 86.8842038,24.2986013 87.2884608,23.8949432 C88.2985305,22.88637 89.9349639,22.887583 90.9435372,23.8976527 C91.9521105,24.9077224 91.9508974,26.5441558 90.9408277,27.5527291 L90.5000734,27.9785077 C89.5735495,28.8612719 87.716241,30.5939208 87.142093,31.1667 C81.6960348,36.5997745 80.0910244,41.7139036 83.389345,50.0424822 L83.5527723,50.4480014 C90.7562712,68.030137 87.2312163,86.1561982 75.1268966,94.1149697 C63.6523167,101.659678 47.5714705,98.5486391 30.3298418,84.4964713 C30.2009595,84.4095155 30.0813775,84.3113161 29.97156,84.2035427 C27.3576292,82.0516878 24.7170009,79.6486801 22.0622573,76.9935076 C19.4004493,74.3319146 16.9920553,71.6845695 14.8360729,69.0635327 C14.7402279,68.9644832 14.6524995,68.8575064 14.5735861,68.7436702 C0.507711313,51.4924038 -2.60810836,35.4048455 4.93940769,23.9269179 C12.8181037,11.9453466 30.6611078,8.370317 48.0757451,15.2869482 L48.6033195,15.4997566 C54.1231044,17.7635962 58.1453142,18.0116319 61.4345685,16.7216539 C63.882949,15.7614493 65.5646666,14.3600631 68.9983348,10.7231257 L70.5105493,9.12062437 C70.8720364,8.74231333 71.1649966,8.44253013 71.4968327,8.11050602 C72.5191988,7.08756048 74.1819731,7.10259267 75.185678,8.14385477 Z M84.5393714,2.49945014 L84.6744675,2.62538531 L98.4431203,16.3957612 C99.4523789,17.405146 99.4522765,19.0415799 98.4428916,20.0508385 C97.477393,21.0162163 95.9381861,21.0580956 94.9229103,20.176545 L94.7878142,20.0506098 L81.0191614,6.280234 C80.0099028,5.2708491 80.0100052,3.63441522 81.0193901,2.62515663 C81.9848887,1.65977884 83.5240956,1.61789957 84.5393714,2.49945014 Z" fill="#00B077"></path>
    </g>
</svg>