<?xml version="1.0" encoding="UTF-8"?>
<svg width="100px" height="100px" viewBox="0 0 100 100" version="1.1" xmlns="http://www.w3.org/2000/svg" xmlns:xlink="http://www.w3.org/1999/xlink">
    <!-- Generator: Sketch 63.1 (92452) - https://sketch.com -->
    <title>Grapes</title>
    <desc>Created with Sketch.</desc>
    <g id="Grapes" stroke="none" stroke-width="1" fill="none" fill-rule="evenodd">
        <path d="M18.1491235,83.3153719 C20.535277,85.7015255 20.5349028,89.5670517 18.1486598,91.954506 C15.7629177,94.3390372 11.8953102,94.3394117 9.50998911,91.9553013 C7.1253482,89.5694495 7.1253482,85.7021998 9.51045313,83.3170949 C11.8348762,80.9926718 15.5659486,80.9323603 17.9631552,83.1370735 L18.1491235,83.3153719 Z M5.85537575,79.6620175 C1.45178188,84.0656114 1.45178188,91.2050135 5.85491209,95.6103788 C10.2597505,100.012982 17.3987949,100.012291 21.803737,95.6095833 C26.1323698,91.2787537 26.2076689,84.3104106 22.0276664,79.8900981 L21.803737,79.6598309 C17.3985421,75.2568709 10.25914,75.2582533 5.85537575,79.6620175 Z M41.9201986,77.1675831 C44.3074571,79.553631 44.3070829,83.4184421 41.9197351,85.80579 C39.5322409,88.1908622 35.667722,88.1912365 33.2823238,85.8070491 C30.8957399,83.4216754 30.8964886,79.5551419 33.2827878,77.1688426 C35.6078088,74.8450013 39.3376003,74.7850603 41.7338425,76.9888936 L41.9201986,77.1675831 Z M29.6281742,73.5133016 C25.2229299,77.9185458 25.2215474,85.0586618 29.6281739,89.4630538 C34.0320078,93.8646522 41.1672489,93.8639612 45.573885,89.4617943 C49.9807999,85.0548799 49.9814911,77.9164861 45.5743484,73.5115783 C41.1704378,69.1099032 34.0331164,69.1105943 29.6281742,73.5133016 Z M24.3395897,59.588525 C26.7294774,61.9759906 26.7294774,65.8397297 24.3405167,68.2262688 C21.9532292,70.612345 18.0900763,70.6127191 15.7012507,68.2275277 C13.316566,65.8428419 13.3169404,61.97595 15.7026424,59.590248 C18.0907342,57.2045787 21.954895,57.2038302 24.3395897,59.588525 Z M12.0484925,55.9342436 C7.64337792,60.3393577 7.64268669,67.4791174 12.047565,71.8839957 C16.4562553,76.2859801 23.5894156,76.2852893 27.9942033,71.8827364 C32.4038163,67.4775934 32.4038163,60.3381269 27.9946671,55.9334476 C23.5913207,51.5301012 16.4557227,51.5314833 12.0484925,55.9342436 Z M65.6925335,71.0182972 C68.0787431,73.4045069 68.0787431,77.2710413 65.6925335,79.6560402 C63.305319,82.0432545 59.4401501,82.0432545 57.0533994,79.6565039 C54.6682945,77.2713989 54.6682945,73.4041493 57.0538631,71.0173698 C59.4400324,68.6336227 63.306274,68.6332484 65.6925335,71.0182972 Z M53.3992499,67.3618287 C48.9947281,71.7685853 48.9947281,78.9079874 53.398322,83.3115813 C57.8037162,87.7169754 64.9417529,87.7169754 69.3471471,83.3115813 C73.6766621,78.9842629 73.751309,72.013625 69.5706473,67.592596 L69.3466833,67.3622925 C64.9419888,62.9598328 57.8050254,62.9605238 53.3992499,67.3618287 Z M47.9279284,53.2624829 L48.1134751,53.4402727 C50.5002583,55.827056 50.499884,59.6932326 48.1126795,62.0780161 C45.7266471,64.464048 41.8611205,64.464048 39.474341,62.0784794 C37.0895899,59.6937282 37.0899643,55.8268362 39.4765278,53.4402727 C41.8001276,51.1178525 45.5302222,51.0583033 47.9279284,53.2624829 Z M35.8219144,49.7847314 C31.4164019,54.1902439 31.4157106,61.3300037 35.8197274,65.7340204 C40.2255564,70.1376143 47.3632356,70.1376143 51.7668294,65.7340204 C56.097774,61.4074688 56.1731131,54.436499 51.991633,50.0146168 L51.7676245,49.7842679 C47.3623657,45.3834791 40.225402,45.3834791 35.8219144,49.7847314 Z M30.5355165,35.8621417 C32.9217261,38.2471407 32.9217261,42.113675 30.5350527,44.5003484 C28.1487696,46.8854207 24.2825278,46.8857951 21.8954545,44.501144 C19.5113548,42.115833 19.5113548,38.2472181 21.8959184,35.863865 C24.2218154,33.5379681 27.9512896,33.4779744 30.3490372,35.6833285 L30.5355165,35.8621417 Z M18.241305,32.2083237 C13.8376338,36.6097594 13.8376338,43.7512423 18.2408414,48.156685 C22.6478377,52.5592105 29.7848014,52.5585195 34.1896663,48.1558894 C38.5956016,43.7499543 38.5956016,36.6098369 34.1896663,32.206137 C29.7839553,27.8026613 22.6462763,27.8033524 18.241305,32.2083237 Z M89.2785956,64.6916999 L89.464232,64.8695813 C91.8503084,67.2556577 91.8499341,71.1225496 89.464232,73.5082516 C87.0760303,75.8940308 83.2105047,75.8944051 80.8260254,73.5087154 C78.4389656,71.1228663 78.4389656,67.2566896 80.8250979,64.871768 C83.1513038,62.5467424 86.879829,62.4864158 89.2785956,64.6916999 Z M77.1709481,61.2157633 C72.7649356,65.6195404 72.7649356,72.7600155 77.1709481,77.1637927 C81.5730506,81.5681302 88.7107286,81.5674391 93.118382,77.164256 C97.4475463,72.8350921 97.5228546,65.8647679 93.3423388,61.4438735 L93.118382,61.2135769 C88.7115707,56.8112351 81.5763295,56.8126169 77.1709481,61.2157633 Z M71.8840867,47.2909866 C74.2710573,49.6755368 74.2703084,53.5434352 71.8840867,55.929657 C69.497251,58.3152815 65.6307177,58.3156559 63.2480668,55.9305849 C60.8610631,53.5447911 60.8614374,49.6778997 63.247603,47.2905229 C65.633695,44.9068531 69.4995788,44.9064788 71.8840867,47.2909866 Z M59.5929899,43.6349818 C55.1878748,48.042332 55.1871836,55.1820909 59.5925258,59.585198 C63.9925476,63.9896902 71.132664,63.9889989 75.5387003,59.585198 C79.9440218,55.1798766 79.9454046,48.0376805 75.5391641,43.6359093 C71.1361633,39.2329085 63.9988428,39.2335996 59.5929899,43.6349818 Z M54.3056643,29.7132535 C56.692415,32.1000042 56.692415,35.9651732 54.3056643,38.3519238 C51.919426,40.7369514 48.0525341,40.7369514 45.6691809,38.3523878 C43.2826407,35.967058 43.2830151,32.1001666 45.6691807,29.7127897 C48.0539842,27.3291973 51.9212336,27.3288228 54.3056643,29.7132535 Z M42.0141037,26.0577122 C37.6094525,30.4645988 37.6087612,37.6043577 42.0141034,42.0074649 C46.4150754,46.4106724 53.5548353,46.4106724 57.9602779,42.0074649 C62.3661359,37.601607 62.3661359,30.4635703 57.9607417,26.0581761 C53.5576637,21.6550981 46.4182622,21.6557893 42.0141037,26.0577122 Z M36.7270697,12.1348312 C39.1141174,14.5194584 39.1133687,18.385991 36.726606,20.7739653 C34.3408313,23.1585291 30.4739394,23.1585291 28.0905863,20.7739655 C25.704046,18.3874251 25.7044204,14.5205332 28.0901224,12.1348312 C30.47515,9.74980351 34.342042,9.74980351 36.7270697,12.1348312 Z M66.6811179,36.9523475 L66.6367845,36.9322461 C66.6132039,36.9214714 66.5897725,36.9103371 66.5664996,36.8988453 C66.5458987,36.8886851 66.5249413,36.8779268 66.5040846,36.8668559 C66.46915,36.8485121 66.4351598,36.8295644 66.4015725,36.8098298 C66.3874986,36.8011191 66.3731862,36.7924859 66.3589301,36.7836981 C66.3212855,36.7611102 66.2842192,36.7370278 66.2477289,36.7119536 C66.2401454,36.705974 66.2325698,36.7006986 66.2250128,36.6953769 L66.213893,36.6883013 C66.1788012,36.6633491 66.1442656,36.6374646 66.1103266,36.6106579 L66.2250128,36.6953769 C66.1730699,36.6587984 66.1228845,36.620654 66.0744755,36.5810526 C66.0417295,36.5549841 66.0095336,36.5272461 65.9779598,36.4986386 C65.9661192,36.4873744 65.9542855,36.4764823 65.9425731,36.4654987 C65.9201779,36.4448898 65.89836,36.4236143 65.8768782,36.4019032 C65.8561839,36.3808293 65.8357551,36.3595401 65.815747,36.3379613 C65.8126203,36.3345668 65.8094475,36.3311125 65.806283,36.3276481 L65.7164112,36.2242999 C65.7129132,36.2200514 65.7094302,36.2157933 65.7059623,36.2115258 C65.6916221,36.1932831 65.6776205,36.175511 65.6638223,36.1575146 C65.6042511,36.0808007 65.5497396,36.0008678 65.5000743,35.918518 C65.4982673,35.9142654 65.4962001,35.9108217 65.4941397,35.9073716 L65.4782987,35.8817234 C65.4581536,35.8470289 65.4388562,35.8119245 65.4204122,35.7764433 L65.4941397,35.9073716 C65.4517551,35.8363979 65.4131673,35.7642126 65.3783168,35.6910519 C65.3697319,35.6735802 65.361558,35.6558098 65.3535913,35.637959 C65.3381452,35.6031989 65.323247,35.5679386 65.3091865,35.5324955 C65.3022123,35.514517 65.2955863,35.4971493 65.2891502,35.4797189 C65.2757449,35.4442983 65.263152,35.4079436 65.2514135,35.3714399 C65.2468136,35.3556332 65.2420735,35.3403129 65.2374767,35.3249532 C65.2247522,35.2844241 65.2134877,35.2432821 65.2032794,35.2020051 C65.2016176,35.192571 65.1992929,35.1829076 65.1970238,35.1732317 C65.1748931,35.0819491 65.1586307,34.9904202 65.1473661,34.8986786 C65.1447117,34.872099 65.1418241,34.8453609 65.1393517,34.8185783 C65.1357606,34.785237 65.1333558,34.7515363 65.1316147,34.7178421 C65.131177,34.7018873 65.1304876,34.6862274 65.1299401,34.6705589 C65.1283063,34.6315547 65.1278944,34.5924493 65.1283673,34.553396 C65.1286934,34.5337626 65.1291272,34.5137723 65.129793,34.4937805 C65.1307713,34.4656376 65.1321962,34.4379504 65.1340634,34.4103085 C65.1364002,34.3725057 65.139766,34.3342106 65.1439933,34.295961 C65.1458774,34.2822534 65.1474385,34.2692595 65.1490974,34.2562805 C65.1544064,34.2108843 65.1614817,34.1647865 65.1698264,34.1188222 C65.1722164,34.1090018 65.1740404,34.0993307 65.1759191,34.0896708 C65.1822919,34.0534942 65.1900907,34.0173653 65.1986854,33.981352 C65.2046849,33.9591955 65.2104206,33.9365407 65.2164607,33.9139665 C65.2229909,33.8868705 65.2304892,33.8605562 65.2384218,33.8343236 C65.2476717,33.8060323 65.2568989,33.7772722 65.2666273,33.7486742 C65.2758876,33.719603 65.286347,33.6906504 65.2973524,33.6618279 C65.3056392,33.6414995 65.3134101,33.6218087 65.3214236,33.6022095 C65.3343535,33.5696105 65.3487436,33.5365372 65.3638765,33.5036748 C65.3731321,33.4839843 65.3824583,33.4642822 65.3920371,33.4446911 C65.4051455,33.4178595 65.4186676,33.3915125 65.4326838,33.3653259 C65.447461,33.337307 65.4631107,33.3091775 65.4792996,33.2813215 C65.4913442,33.2613313 65.5035274,33.2410966 65.5160195,33.2209752 C65.5364575,33.1870701 65.5578153,33.1542405 65.5799521,33.1218616 C65.5866123,33.1132277 65.5932488,33.1036696 65.5999587,33.0941413 C68.6302653,28.7909919 69.4009841,20.9601242 67.5237836,14.4219445 C65.6501081,7.89604213 61.9835952,4.82021561 57.4064847,6.22345126 C55.7453151,6.73224006 55.1952971,7.54720677 55.3121377,8.76543345 C55.4461736,10.1629445 56.4860992,11.7849943 57.9034468,12.7098434 C59.0988594,13.4898752 59.435592,15.0912893 58.6555602,16.2867018 C57.8755284,17.4821144 56.2741143,17.818847 55.0787018,17.0388152 C48.7399927,12.9026744 47.8612839,3.74090886 55.8920369,1.28122215 C63.7691589,-1.13372048 69.9159419,4.022797 72.492118,12.995468 C74.0194424,18.3150497 74.1062234,24.306444 72.7884322,29.3967362 C77.1832762,27.8358412 82.0918918,26.9263759 87.0001918,26.7246548 C85.9199888,23.2862958 84.6661431,20.0418019 83.487458,17.8226078 C82.8179034,16.5619899 83.2970548,14.9972759 84.5576727,14.3277214 C85.8182906,13.6581668 87.3830045,14.1373182 88.0525591,15.3979361 C91.5291259,21.9435148 95.3561737,35.5551607 94.9992128,41.6234963 C94.9153932,43.0484297 93.6923072,44.1356172 92.2673739,44.0517976 C90.8972457,43.9712018 89.8393825,42.8372903 89.8345505,41.483425 L89.8390727,41.3199587 C89.9643471,39.1902926 89.3864345,35.6571432 88.4444506,31.8564604 C81.3996774,31.9559664 74.2566406,33.6989909 69.0818093,36.7752381 C69.0210859,36.8132458 68.9588235,36.8485276 68.8953739,36.8810911 L69.0382431,36.8011959 C68.9794243,36.8363218 68.9197733,36.86884 68.8594245,36.8987843 C68.8226894,36.9173211 68.7856154,36.9345356 68.7481973,36.9508451 C68.7273414,36.9598813 68.7063526,36.9687557 68.6852971,36.9773327 C68.6557846,36.9892302 68.6258381,37.0007125 68.5957081,37.0116289 C68.5713616,37.0207655 68.5473549,37.0291091 68.5232809,37.0370794 C68.496614,37.0454516 68.4692267,37.053974 68.4417156,37.0620379 C68.408667,37.0723113 68.3760104,37.0812204 68.3432667,37.0894636 C68.3279408,37.0926525 68.3125572,37.0963639 68.2971424,37.0999341 C68.2581253,37.1096837 68.2188058,37.1178421 68.1794064,37.1250615 C68.1629034,37.1273742 68.1465781,37.1302054 68.130227,37.1328805 C68.092102,37.1398048 68.0537024,37.1451815 68.015269,37.1496824 C67.9944479,37.151521 67.9734604,37.1537411 67.9524452,37.1557056 C67.92572,37.1587208 67.8993524,37.1607399 67.872986,37.1623518 C67.8384045,37.1640771 67.8032988,37.1655678 67.7681569,37.1663445 C67.749607,37.1670007 67.7309556,37.167179 67.7123143,37.1671557 C67.6745067,37.1669924 67.6370838,37.1661979 67.5996616,37.1645893 C67.580871,37.1637202 67.561516,37.1626381 67.542183,37.1613397 C67.5097067,37.15935 67.4777366,37.1566584 67.4457946,37.153367 C67.4223973,37.1506084 67.3987427,37.1478031 67.3751382,37.1446741 C67.3399772,37.1404915 67.3050272,37.135179 67.2701494,37.1291376 C67.2543846,37.1258178 67.2383882,37.1228744 67.2224224,37.1197814 C67.1256381,37.1017466 67.0296749,37.0774941 66.9348372,37.047528 C66.9259781,37.0440359 66.9169744,37.0411428 66.9079862,37.0382005 C66.8631334,37.0241601 66.8187471,37.0082326 66.774673,36.9910222 C66.7721725,36.9895285 66.7692062,36.9883694 66.766242,36.9872048 L66.6811179,36.9523475 L66.6811179,36.9523475 Z M24.435045,8.47975379 C28.8387162,4.07608264 35.9784759,4.07608264 40.3821471,8.47975379 C44.7883103,12.8814478 44.7869277,20.0215624 40.3816833,24.4290425 C35.9762406,28.8322501 28.8364807,28.8322501 24.435045,24.4285789 C20.0301667,20.0237005 20.0308579,12.8839409 24.435045,8.47975379 Z" fill="#00B077"></path>
    </g>
</svg>