<?xml version="1.0" encoding="UTF-8"?>
<svg width="100px" height="100px" viewBox="0 0 100 100" version="1.1" xmlns="http://www.w3.org/2000/svg" xmlns:xlink="http://www.w3.org/1999/xlink">
    <!-- Generator: Sketch 63.1 (92452) - https://sketch.com -->
    <title>Leaf</title>
    <desc>Created with Sketch.</desc>
    <g id="Leaf" stroke="none" stroke-width="1" fill="none" fill-rule="evenodd">
        <path d="M96.1236006,11.9129115 C96.2012929,13.338192 95.1088568,14.5565923 93.6835763,14.6342847 C52.4223473,16.8834431 30.8110063,28.5229685 23.9703353,46.2298414 C20.711725,54.6646572 21.0792083,63.7766707 23.6869904,72.4588169 C24.0631663,73.7112278 24.4612768,74.8593958 24.8612296,75.8878199 C30.9582475,71.9970271 36.8981745,67.324616 42.6503117,61.9971396 C49.0434218,56.0760112 54.793308,49.7250734 59.8037579,43.3757072 C61.5556018,41.1557272 63.0884918,39.0965551 64.3908446,37.2521281 L65.0245139,36.3449256 L65.9451054,34.979216 C66.7178097,33.7790539 68.3171338,33.4325309 69.5172958,34.2052352 C70.7174579,34.9779394 71.0639809,36.5772636 70.2912766,37.7774256 L69.9401809,38.3091407 L69.2805421,39.2784228 C69.1427826,39.4779927 68.9979964,39.686156 68.846234,39.9026648 L68.6133644,40.233656 C67.2594916,42.151047 65.6719642,44.2836149 63.8615501,46.5778165 C58.6941199,53.1261119 52.766977,59.6728356 46.1627178,65.7895247 C40.9416286,70.6251586 35.5599284,74.9511474 30.0323799,78.6793085 C54.5057426,87.1417883 70.7051525,83.1760868 80.4930427,69.5976612 L80.8098897,69.1515589 C88.5538361,58.0862924 91.6765616,41.7935176 91.568368,23.8649775 C91.5597542,22.437607 92.7098838,21.2735117 94.1372543,21.2648979 C95.5646248,21.2562841 96.7287201,22.4064137 96.7373338,23.8337842 C96.8514353,42.7412844 93.5510636,59.9609253 85.0448615,72.1153731 C73.3459251,88.831895 53.4162618,93.2255171 24.520619,82.1687966 C18.2866098,85.8535671 11.8798403,88.7689635 5.31987997,90.7935201 C3.95596177,91.214457 2.50905079,90.4500197 2.08811385,89.0861015 C1.66717692,87.7221833 2.43161428,86.2752723 3.79553249,85.8543354 C9.42256425,84.1177023 14.9566873,81.6684136 20.3763878,78.5922504 C20.3472059,78.5214474 20.3176456,78.4492072 20.2875222,78.3750281 C19.7567448,77.0679866 19.228424,75.5838112 18.7364216,73.9457769 C15.8272149,64.2600911 15.4147232,54.0320632 19.148589,44.367063 C26.837919,24.4634614 50.3098291,11.821863 93.4022274,9.47288718 C94.8275079,9.39519483 96.0459082,10.4876309 96.1236006,11.9129115 Z" fill="#00B077"></path>
    </g>
</svg>