<?xml version="1.0" encoding="UTF-8"?>
<svg width="100px" height="100px" viewBox="0 0 100 100" version="1.1" xmlns="http://www.w3.org/2000/svg" xmlns:xlink="http://www.w3.org/1999/xlink">
    <!-- Generator: Sketch 63.1 (92452) - https://sketch.com -->
    <title>Lemon</title>
    <desc>Created with Sketch.</desc>
    <g id="Lemon" stroke="none" stroke-width="1" fill="none" fill-rule="evenodd">
        <path d="M96.3112934,31.2715211 C103.202155,48.4317232 97.1718427,68.6694487 82.6694933,83.171798 C69.2499969,96.5894442 48.9911482,102.068395 31.6501212,96.5234866 C30.2905383,96.0887509 29.5408015,94.6341683 29.9755372,93.2745854 C30.4102729,91.9150025 31.8648555,91.1652657 33.2244384,91.6000013 C48.6705509,96.5389986 66.928205,91.6012652 79.014542,79.5165946 C92.1594843,66.3716523 97.5591219,48.2504705 91.5145274,33.1977135 C90.982624,31.8731231 91.6252238,30.3681376 92.9498142,29.8362343 C94.2744046,29.304331 95.7793901,29.9469308 96.3112934,31.2715211 Z M74.6732632,6.39401859 L75.06,6.616 L75.3422835,6.4893142 C80.0862767,4.40817612 85.5061112,5.22898187 89.730041,9.27656396 L89.9871388,9.52840966 C94.7813161,14.3245311 95.4421671,20.611885 92.2907488,25.7674637 C91.5462975,26.9853525 89.9555066,27.3691495 88.7376178,26.6246982 C87.519729,25.880247 87.1359321,24.289456 87.8803833,23.0715672 C89.8014721,19.9287523 89.4168593,16.269536 86.330579,13.1820039 C83.2985574,10.1462892 79.5503304,9.82138183 76.3331627,11.791768 C75.4952189,12.304975 74.4387378,12.2986233 73.6070254,11.7753779 C57.2517582,1.485984 34.9732722,5.75094809 20.108511,20.6139599 C5.81872623,34.9122202 1.79217652,57.3043534 11.3043334,73.8410409 C11.7756106,74.6603465 11.7620625,75.6715653 11.2690047,76.4779509 C9.36053727,79.5992095 9.79366019,83.5245447 12.891591,86.6224756 C15.979026,89.7086591 19.6369469,90.0938683 22.7808614,88.1729869 C23.9989018,87.4287837 25.5896145,87.8129047 26.3338177,89.0309451 C27.0780209,90.2489855 26.6938999,91.8396982 25.4758595,92.5839013 C20.3190955,95.7346015 14.0335913,95.0726863 9.23688412,90.2779234 C4.96251693,86.0035562 3.92119068,80.3386144 5.96554597,75.5170571 L6.126,75.154 L5.89903071,74.7232158 C-3.52782568,56.4695861 0.957481643,32.8614329 15.9801158,17.4386006 L16.4529994,16.9593169 C32.4262965,0.987899451 56.3228414,-3.97422904 74.6732632,6.39401859 Z M22.60762,83.8532702 C22.0304346,85.1587654 20.5042203,85.7491771 19.1987251,85.1719916 C17.9454497,84.6178935 17.3511953,83.1891706 17.8163169,81.9207407 L17.9184457,81.6702009 L17.933,81.627 L17.789466,81.6798089 C16.6278491,82.0633516 15.3397144,81.5743514 14.7316963,80.4954477 L14.6530761,80.3446946 C14.0343003,79.0583909 14.5754385,77.5140188 15.8617422,76.8952429 C20.4885986,74.6694957 24.6326222,79.2730601 22.60762,83.8532702 Z M63.7930191,14.0070866 C65.1334654,14.4976623 65.8224217,15.9819989 65.331846,17.3224452 C64.8412703,18.6628915 63.3569336,19.3518477 62.0164874,18.861272 C49.1885518,14.1665121 30.6517423,21.8396315 22.4319493,36.4609649 C21.7324564,37.7052199 20.1567374,38.1468369 18.9124824,37.447344 C17.6682274,36.7478511 17.2266105,35.1721322 17.9261033,33.9278772 C27.3485638,17.167244 48.5021415,8.41094065 63.7930191,14.0070866 Z" fill="#00B077"></path>
    </g>
</svg>