<?xml version="1.0" encoding="UTF-8"?>
<svg width="100px" height="100px" viewBox="0 0 100 100" version="1.1" xmlns="http://www.w3.org/2000/svg" xmlns:xlink="http://www.w3.org/1999/xlink">
    <!-- Generator: Sketch 63.1 (92452) - https://sketch.com -->
    <title>Mushroom</title>
    <desc>Created with Sketch.</desc>
    <g id="Mushroom" stroke="none" stroke-width="1" fill="none" fill-rule="evenodd">
        <path d="M65.3903819,27.2593245 C66.7628785,27.2593245 67.8855018,28.3291595 67.9698271,29.6804048 L67.9749119,29.8438545 L67.9749119,80.5127036 C67.9749119,96.6409462 32.8931954,96.8022286 32.191561,80.9965509 L32.1808944,80.5127036 L32.1808944,29.8438545 C32.1808944,28.416458 33.3380279,27.2593245 34.7654244,27.2593245 C36.1379211,27.2593245 37.2605444,28.3291595 37.3448697,29.6804048 L37.3499544,29.8438545 L37.3499544,80.5127036 C37.3499544,89.817787 62.2992795,89.9108378 62.798266,80.7918561 L62.8058519,80.5127036 L62.8058519,29.8438545 C62.8058519,28.416458 63.9629854,27.2593245 65.3903819,27.2593245 Z M50.0775586,6.73453796 C77.2568537,6.73453796 99.1836286,24.7727772 99.1836286,49.7686855 C99.1836286,58.183199 93.4584642,63.5711721 85.9389784,63.9431831 C78.6816086,64.3022264 72.4389121,59.780401 72.4389121,52.742618 C72.4389121,48.6231752 75.3604299,44.8151267 79.093419,43.3750337 C83.535676,41.6613231 87.6452682,43.948121 88.1203093,49.2935098 C88.2466631,50.7153029 87.1965021,51.9703239 85.7747091,52.0966777 C84.352916,52.2230315 83.097895,51.1728705 82.9715412,49.7510774 C82.8124722,47.9611571 82.3025318,47.6773989 80.9538733,48.1976773 C79.1215314,48.9045486 77.6079721,50.8773954 77.6079721,52.742618 C77.6079721,56.4680384 81.1126011,59.0065761 85.6835623,58.7804373 C90.5676633,58.5388065 94.0145686,55.2949114 94.0145686,49.7686855 C94.0145686,27.8747252 74.6005168,11.903598 50.0775586,11.903598 C25.5556943,11.903598 6.14054855,27.8752235 6.14054855,49.7686855 C6.14054855,55.2948592 9.58777673,58.5387992 14.4724062,58.7804368 C19.0438743,59.0065826 22.548868,56.4679835 22.5488681,52.7433113 C22.5483677,50.8777735 21.0341957,48.904641 19.2015278,48.1977038 L18.9251387,48.0987677 C17.7815553,47.7255953 17.3312842,48.0889932 17.1835759,49.7510774 C17.0572221,51.1728705 15.8022011,52.2230315 14.3804081,52.0966777 C12.958615,51.9703239 11.908454,50.7153029 12.0348078,49.2935098 C12.5098512,43.9480958 16.619414,41.6613746 21.0618449,43.3750073 C24.794803,44.8149664 27.716823,48.6226796 27.717928,52.742618 C27.717928,59.7804559 21.4748178,64.3022199 14.2170104,63.9431836 C6.69706239,63.5711794 0.971488554,58.1832512 0.971488554,49.7686855 C0.971488554,24.7732413 22.899379,6.73453796 50.0775586,6.73453796 Z" fill="#00B077"></path>
    </g>
</svg>