<?xml version="1.0" encoding="UTF-8"?>
<svg width="100px" height="100px" viewBox="0 0 100 100" version="1.1" xmlns="http://www.w3.org/2000/svg" xmlns:xlink="http://www.w3.org/1999/xlink">
    <!-- Generator: Sketch 63.1 (92452) - https://sketch.com -->
    <title>Orange</title>
    <desc>Created with Sketch.</desc>
    <g id="Orange" stroke="none" stroke-width="1" fill="none" fill-rule="evenodd">
        <path d="M75.0486321,41.503818 C85.8731696,57.4966684 84.1214271,76.0936617 71.4618562,88.7551623 C63.570817,96.6443338 51.4297765,100.6619 42.4979171,98.1809357 C41.1225907,97.7989172 40.3173556,96.3743076 40.6993742,94.9989813 C41.0813928,93.6236549 42.5060023,92.8184198 43.8813287,93.2004384 C50.8871808,95.1464242 61.1573442,91.7479457 67.8068559,85.1000079 C78.7124675,74.1927339 80.2052875,58.3445349 70.7679116,44.4011639 C69.9678316,43.2190755 70.2775106,41.6122106 71.4595989,40.8121307 C72.6416872,40.0120507 74.2485521,40.3217296 75.0486321,41.503818 Z M62.1743215,28.5024261 C63.3680774,29.284991 63.7014135,30.8871155 62.9188487,32.0808713 C62.1362838,33.2746271 60.5341593,33.6079633 59.3404035,32.8253984 C46.7855185,24.5950623 30.8691222,26.1870706 20.355404,36.7007888 C7.85207826,49.2041145 7.02391377,67.2592351 18.9045472,79.1398685 C27.7348421,87.9694484 39.4416785,87.8709419 49.9409174,80.2733933 C59.9835214,73.0062786 66.0131163,60.7534821 64.1974615,50.4013273 C63.9508757,48.9953912 64.8907148,47.6557576 66.2966508,47.4091718 C67.7025869,47.1625859 69.0422206,48.102425 69.2888064,49.5083611 C71.4738065,61.9663783 64.5148434,76.1077523 52.9712222,84.4610458 C40.5524143,93.4476493 26.0252835,93.5698871 15.2495438,82.7950199 C1.27149516,68.8169712 2.24943212,47.4966059 16.7003266,33.0457114 C28.9501302,20.7959078 47.5764912,18.9328402 62.1743215,28.5024261 Z M48.0472527,34.2523012 C49.4387589,34.5703758 50.308947,35.9562649 49.9908723,37.347771 C49.6727976,38.7392771 48.2869085,39.6094653 46.8954024,39.2913906 C36.6664243,36.9532198 26.5560067,43.5814363 24.9046144,51.8301076 C24.6244084,53.2297309 23.2626377,54.1371979 21.8630144,53.8569919 C20.4633911,53.5767859 19.5559241,52.2150152 19.83613,50.8153919 C22.0559606,39.7273826 34.9678473,31.262571 48.0472527,34.2523012 Z M83.1122048,1.88038889 C83.6841697,2.76449111 84.4929362,4.26625522 85.2926653,6.24887638 C87.5594125,11.8684057 88.2539669,17.7449078 86.3506372,23.3562953 C85.5815915,25.623592 84.4158005,27.7365119 82.8377315,29.6799198 C83.6130099,29.5465449 84.3896067,29.423948 85.1660932,29.3103873 C86.5096412,29.113894 87.7718959,28.9568877 88.9303646,28.8348648 L89.500846,28.7767478 C90.2953308,28.6985994 90.8707269,28.6530226 91.1910788,28.6330169 C92.6157001,28.5440503 93.8427055,29.6268123 93.9316721,31.0514335 C94.0206387,32.4760548 92.9378767,33.7030602 91.5132554,33.7920268 L91.1385046,33.8196358 L90.2579015,33.8967272 L90.0068518,33.9209814 C88.7745294,34.0421972 87.3979704,34.2080241 85.9141084,34.4250382 C81.6809276,35.0441388 77.4514306,35.9462469 73.5274875,37.177776 C72.9439923,37.3609059 72.3709961,37.5503308 71.8091589,37.7461169 C69.7051749,38.7091736 67.3778047,39.57335 64.8232639,40.3337702 C63.4551933,40.7410092 62.0160205,39.9621012 61.6087815,38.5940306 C61.2015426,37.22596 61.9804505,35.7867872 63.3485212,35.3795483 C65.6579581,34.6920891 67.732763,33.9264693 69.5853745,33.0880694 C69.6970619,33.0248108 69.8154836,32.9703267 69.9394745,32.9244076 C76.275865,29.9807579 79.9404767,26.1625141 81.4555058,21.6959129 C82.8983333,17.4421758 82.3447826,12.758682 80.4989037,8.18253397 C80.2388518,7.53783506 79.9667244,6.93243601 79.6914126,6.37246958 L79.607,6.205 L79.5942461,6.20845026 C68.7373235,8.91711914 64.9146623,17.8634954 70.5923886,24.8720662 L70.7768212,25.0950762 C71.6975115,26.1858512 71.5596305,27.8164661 70.4688555,28.7371564 C69.3780805,29.6578467 67.7474657,29.5199658 66.8267754,28.4291907 C57.8228837,17.7619553 64.459976,3.53413419 80.498325,0.738133974 C81.5198696,0.560045879 82.5489497,1.00974973 83.1122048,1.88038889 Z" fill="#00B077"></path>
    </g>
</svg>