<?xml version="1.0" encoding="UTF-8"?>
<svg width="100px" height="100px" viewBox="0 0 100 100" version="1.1" xmlns="http://www.w3.org/2000/svg" xmlns:xlink="http://www.w3.org/1999/xlink">
    <!-- Generator: Sketch 63.1 (92452) - https://sketch.com -->
    <title>Pear</title>
    <desc>Created with Sketch.</desc>
    <g id="Pear" stroke="none" stroke-width="1" fill="none" fill-rule="evenodd">
        <path d="M19.8434243,68.6877113 C20.4399014,67.3909169 21.9747013,66.8231976 23.2714957,67.4196747 C25.5744284,68.478938 27.7847413,70.410268 29.1012908,72.5184824 C29.8573615,73.729192 29.4888039,75.3235826 28.2780942,76.0796533 C27.0673846,76.835724 25.4729941,76.4671664 24.7169234,75.2564567 C23.9870387,74.0876794 22.6804642,72.9128304 21.3728311,72.2428878 L21.1114609,72.1157828 C19.8146665,71.5193056 19.2469472,69.9845058 19.8434243,68.6877113 Z M96.0711619,3.85256243 C97.4699166,3.5680524 98.8344723,4.47132622 99.1189824,5.87008096 C99.4034924,7.2688357 98.5002186,8.6333914 97.1014638,8.91790143 C94.9257664,9.36044343 92.5687191,10.3666933 91.5185093,11.3252183 L91.3835389,11.4555731 C90.387496,12.4780012 88.7512019,12.4993907 87.7287738,11.5033478 C86.7063456,10.5073049 86.6849562,8.87101078 87.6809991,7.84858263 C89.5115665,5.96952334 92.8730025,4.50307561 96.0711619,3.85256243 Z M56.8710509,23.2968918 C61.5408791,15.3868242 72.9711196,12.7457081 77.7986751,20.9107815 C78.5251391,22.1394845 78.117994,23.7244604 76.889291,24.4509244 C75.711784,25.147119 74.207075,24.8022039 73.4443397,23.6908266 L73.3491482,23.5415403 C70.9115796,19.418765 64.2551857,20.9568175 61.3222919,25.9247493 C60.5966291,27.1539256 59.0119189,27.5621039 57.7827426,26.8364411 C56.5535664,26.1107783 56.1453881,24.5260681 56.8710509,23.2968918 Z M81.1384711,16.4739599 C89.3745531,24.7053655 88.9405491,35.026772 79.3424142,43.8645322 L79.0329787,44.1460803 C72.0828704,50.4025048 70.4164437,57.2774662 71.0153606,69.4079095 C71.446334,78.1291033 65.4994519,86.800048 56.497697,90.0789721 C45.9160246,93.9333872 32.9974657,90.1122061 20.2515151,77.3655077 C7.5061501,64.6208905 3.6845255,51.70195 7.53762914,41.1195449 C10.8155394,32.1168868 19.4849158,26.1698322 28.205218,26.601538 C40.1622555,27.1916621 47.0088212,25.5867162 53.1839545,18.9002865 L53.4685001,18.5880634 C62.3773924,8.68728121 72.8232988,8.15406129 81.1384711,16.4739599 Z M49.6256914,15.1308966 C44.8258989,20.467114 39.5509021,21.8789912 29.4833066,21.4842038 L28.4604119,21.4387813 C17.4439062,20.8934 6.72335459,28.2475283 2.68051158,39.3510455 C-1.91282987,51.966486 2.51721794,66.9421913 16.5964377,81.020585 C30.6762895,95.1012629 45.6518948,99.5308979 58.266836,94.9358567 C69.3690997,90.8918142 76.7225558,80.1699922 76.1781262,69.1528952 C75.657097,58.5999844 76.9312847,53.1349957 82.2223163,48.2334457 L82.4902255,47.9888168 C94.5480329,37.1467224 95.2538542,23.2732485 84.7935485,12.8188829 C74.447399,2.46685197 60.7552271,3.05697862 49.9524835,14.7721232 L49.6256914,15.1308966 Z" fill="#00B077"></path>
    </g>
</svg>