<?xml version="1.0" encoding="UTF-8"?>
<svg width="100px" height="100px" viewBox="0 0 100 100" version="1.1" xmlns="http://www.w3.org/2000/svg" xmlns:xlink="http://www.w3.org/1999/xlink">
    <!-- Generator: Sketch 63.1 (92452) - https://sketch.com -->
    <title>Pineapple</title>
    <desc>Created with Sketch.</desc>
    <g id="Pineapple" stroke="none" stroke-width="1" fill="none" fill-rule="evenodd">
        <path d="M21.4438477,67.4607703 C22.7834495,67.1723424 24.1040213,67.9788645 24.4733388,69.2784248 L24.5144816,69.4433942 L25.665,74.79 L31.0115639,75.9433539 C32.351083,76.232166 33.2223594,77.5109408 33.0237491,78.8472815 L32.9933069,79.0145565 C32.7044948,80.3540756 31.42572,81.225352 30.0893793,81.0267417 L29.9221044,80.9962995 L22.9455964,79.4921031 C22.0112419,79.290648 21.2694325,78.5917533 21.0071797,77.6825128 L20.9636972,77.5096353 L19.4612238,70.5314043 C19.1607781,69.1359857 20.048429,67.761216 21.4438477,67.4607703 Z M41.6856039,72.7305323 L41.7266299,72.8955308 L42.872,78.239 L48.2173677,79.3862687 C49.5571735,79.673748 50.4297217,80.9516554 50.232441,82.288193 L50.2021653,82.4554982 C49.9146859,83.7953039 48.6367786,84.6678521 47.300241,84.4705714 L47.1329358,84.4402957 L40.1547048,82.9429913 C39.2186828,82.742151 38.475451,82.0421651 38.2133438,81.1313683 L38.1699073,80.9581938 L36.6726029,73.9799628 C36.3731453,72.5843318 37.2617694,71.2101909 38.6574004,70.9107333 C39.9972062,70.623254 41.3172066,71.4307108 41.6856039,72.7305323 Z M55.4459197,58.9682773 L55.4870014,59.1332619 L56.635,64.475 L61.9792434,65.6251364 C63.3188987,65.9133161 64.1907787,67.1916795 63.9927992,68.5281138 L63.9624361,68.6954031 C63.6742563,70.0350584 62.3958929,70.9069384 61.0594587,70.7089589 L60.8921693,70.6785957 L53.9156614,69.1778453 C52.9804858,68.9766752 52.2379869,68.2772256 51.9758244,67.3672097 L51.9323681,67.1941844 L50.4333407,60.2193994 C50.1334121,58.8238696 51.0215724,57.4494289 52.4171022,57.1495003 C53.7568109,56.8615689 55.0770838,57.6685801 55.4459197,58.9682773 Z M38.2339295,55.5162734 L38.2750639,55.6812449 L39.426,61.029 L44.7741154,62.1790412 C46.1137999,62.467085 46.9858096,63.7453598 46.7879658,65.0818142 L46.7576196,65.2491066 C46.4695759,66.5887912 45.191301,67.4608009 43.8548466,67.2629571 L43.6875542,67.2326109 L36.7076002,65.7318605 C35.7725923,65.5308257 35.0301155,64.831686 34.767726,63.9219296 L34.7242242,63.7489523 L33.2217508,56.7689983 C32.9213759,55.3735644 33.8090967,53.9988398 35.2045306,53.698465 C36.5441472,53.4101052 37.864678,54.2166943 38.2339295,55.5162734 Z M20.4687678,51.510895 L20.5098938,51.6758686 L21.661,57.025 L27.0035368,58.1734911 C28.3432455,58.4614226 29.2153624,59.7396243 29.0176305,61.0760953 L28.9872984,61.2433902 C28.6993669,62.5830989 27.4211651,63.4552158 26.0846942,63.257484 L25.9173992,63.2271518 L18.9426143,61.7281244 C18.0074736,61.5271431 17.2648807,60.827921 17.002498,59.918043 L16.9589989,59.7450425 L15.4565254,52.7633654 C15.1562215,51.3679163 16.0440121,49.9932368 17.4394612,49.6929328 C18.7790924,49.404641 20.0995823,50.2112972 20.4687678,51.510895 Z M51.9959988,41.753008 L52.0371416,41.9179774 L53.188,47.264 L58.5406022,48.4178264 C59.88018,48.7063661 60.7517164,49.9849637 60.5533778,51.3213448 L60.5229697,51.4886259 C60.23443,52.8282037 58.9558324,53.6997402 57.6194513,53.5014016 L57.4521702,53.4709934 L50.4687701,51.966797 C49.5341995,51.7654942 48.7921612,51.0665319 48.5298488,50.1571278 L48.4863572,49.9842185 L46.9838837,43.0059875 C46.683438,41.6105689 47.571089,40.2357992 48.9665076,39.9353535 C50.3061095,39.6469256 51.6266813,40.4534477 51.9959988,41.753008 Z M34.2311766,37.7499391 L34.2722721,37.9149203 L35.422,43.262 L40.7662827,44.4121757 C42.105938,44.7003554 42.977818,45.9787188 42.7798385,47.3151531 L42.7494753,47.4824424 C42.4612956,48.8220977 41.1829322,49.6939777 39.8464979,49.4959982 L39.6792086,49.465635 L32.7027006,47.9648846 C31.7675973,47.76373 31.0251342,47.0643705 30.7629199,46.154444 L30.7194529,45.9814355 L29.2187024,39.0014815 C28.9186569,37.6059767 29.806702,36.2314616 31.2022067,35.9314161 C32.5418912,35.6433723 33.8622317,36.4502729 34.2311766,37.7499391 Z M70.340155,24.6477687 L70.3527226,24.8108139 L70.537,28.841 L74.678966,29.0969313 C76.0488632,29.181362 77.1035483,30.3182303 77.1045905,31.6721038 L77.0996108,31.8355568 C77.0151801,33.205454 75.8783119,34.2601391 74.5244383,34.2611813 L74.3609854,34.2562016 L67.9031064,33.858184 C66.6427195,33.7805027 65.632119,32.8061743 65.4936923,31.5674513 L65.4802804,31.3969551 L65.1890901,25.0476264 C65.1236961,23.6217286 66.2266023,22.4127978 67.6525001,22.3474039 C69.0235556,22.2845251 70.194013,23.3018055 70.340155,24.6477687 Z M45.2290608,28.2364736 C50.0043397,29.6634679 54.4826435,32.9575642 60.3001407,38.7203204 L60.7389895,39.1571652 C66.7745638,45.1916269 70.2000171,49.7757672 71.6632904,54.671447 C73.4657276,60.7018686 71.8021703,66.6205726 65.593762,72.9765573 L64.9301316,73.6441607 L52.4963278,86.0745189 C41.8528202,96.7180266 28.5947525,96.6517093 15.9223444,83.9778087 C3.24750343,71.3044601 3.18078733,58.0499203 13.8224631,47.4013966 L26.5841716,34.6448573 C33.0697944,28.1592345 39.09178,26.402473 45.2290608,28.2364736 Z M22.9292072,30.989667 L10.16809,43.745616 C-2.50104914,56.4229058 -2.41786339,72.9494847 12.267267,87.632886 C26.9499766,102.317325 43.480988,102.400013 56.1513077,89.7296938 L68.9119939,76.9724537 C76.6924943,69.1910879 79.0163357,61.2224462 76.6158614,53.1911694 C74.8386936,47.2452914 70.9960827,42.1028865 64.3940669,35.5020879 C57.7950387,28.9018424 52.6540834,25.0603679 46.7090601,23.2838194 C38.6784998,20.884051 30.7103042,23.20857 22.9292072,30.989667 Z M71.5392451,2.11300199 C73.4145049,5.6794301 75.0759125,9.61800591 76.3281359,13.4850023 L76.397,13.702 L76.649462,13.5307038 C79.6571673,11.5220796 83.0903518,10.2541184 86.8420932,9.74399738 L87.2748831,9.68848222 C87.3486316,9.67759935 87.4232625,9.66987148 87.4986145,9.66542605 L87.3556588,9.67913439 C87.4213655,9.67146626 87.4867837,9.66633403 87.5518156,9.66366023 C87.5922363,9.66129001 87.6329716,9.66068688 87.6738783,9.66105374 C87.6827085,9.6615655 87.6913872,9.6616614 87.7000576,9.66180081 C87.7378696,9.66213701 87.7761364,9.66370236 87.8145271,9.66612661 C87.8483249,9.66823395 87.8817473,9.67092136 87.9150117,9.67424883 C87.9274785,9.67568348 87.940514,9.67710665 87.953561,9.6786298 L87.9670169,9.67998664 C88.0570159,9.69084569 88.1457908,9.70639447 88.2330548,9.72640615 C88.2529937,9.7312628 88.2722601,9.73590651 88.2914321,9.74076047 C88.3147505,9.74643337 88.3386065,9.7528576 88.3623357,9.75961542 C88.3886766,9.76726398 88.4145227,9.77504212 88.4401792,9.7832036 C88.4679715,9.79200071 88.4953102,9.80124537 88.522455,9.81093475 C88.5435164,9.81840443 88.5646711,9.82624421 88.585683,9.83434673 C88.605672,9.84217412 88.6254543,9.85011003 88.6451218,9.8582838 C88.72215,9.89007036 88.796832,9.92540825 88.8693384,9.96405745 C88.8795094,9.9697823 88.8898969,9.97541098 88.9002433,9.98110913 C88.9353361,10.0001404 88.9694861,10.0200021 89.0031043,10.0406013 C89.6565084,10.4406401 90.1266108,11.1262479 90.2223542,11.9466547 C90.2501084,12.1844749 90.2446419,12.418516 90.2096271,12.6441351 L90.2209634,12.5454184 C89.7592956,16.4999493 88.4684277,20.1128863 86.368887,23.2563572 L86.199,23.503 L86.4173424,23.5724672 C90.0093637,24.7355586 93.6632636,26.2525677 97.0194651,27.9654976 L97.7885249,28.364195 C99.5854486,29.3104548 99.6391502,31.8642476 97.8835936,32.8852096 C95.7231974,34.1416102 93.5631116,34.9731928 90.6767135,35.6553813 L90.476,35.701 L90.7832596,35.9453329 C93.7044187,38.3017047 96.4326923,41.3257706 98.1533114,44.1726168 L98.3403032,44.4881609 C99.2297437,46.0198371 98.3498898,47.972048 96.6132384,48.3201547 C91.5108107,49.3429215 83.1643665,48.4041279 77.3021367,46.2095304 C75.9653436,45.7090856 75.2873494,44.21971 75.7877943,42.8829169 C76.2882392,41.5461238 77.7776148,40.8681296 79.1144079,41.3685745 C82.5006956,42.6362728 86.9741841,43.4263536 90.7821469,43.550764 L91.27,43.563 L91.0558761,43.3216854 C88.3783337,40.3501691 84.9077349,37.6656305 82.484712,36.9975263 L82.2535579,36.9392239 C79.4573845,36.3021608 79.6244981,32.2643221 82.4637508,31.8604918 L83.5766407,31.6987965 C86.0970801,31.3241374 88.0930428,30.9646147 89.7671676,30.5514844 L90.122,30.462 L89.9205567,30.376597 C87.2399544,29.2607486 84.4887241,28.3125154 81.8591756,27.614748 L81.0741538,27.4130146 C79.1284397,26.9295581 78.4501935,24.510979 79.8608065,23.0863021 C81.9761702,20.949848 83.4721876,18.4217855 84.3418167,15.5593203 C81.4823267,16.4281887 78.9553937,17.92457 76.8133104,20.0423714 C75.3883937,21.4511357 72.9717579,20.7727832 72.4881069,18.8282817 C71.77575,15.9642769 70.7515331,12.9311855 69.5245931,9.98195171 L69.44,9.783 C69.0159564,11.4251486 68.6507003,13.3763844 68.2749405,15.8427064 L68.0403767,17.4370841 C67.6444963,20.214798 63.7701436,20.4341944 63.0072722,17.8220288 L62.9619988,17.6476529 C62.4076702,15.2195117 59.6776683,11.6425376 56.6125435,8.87748706 L56.171,8.487 L56.1658203,8.81706692 C56.1407208,12.4164834 56.9008203,16.2631065 58.3241257,20.2172074 L58.5319535,20.782795 C59.0330524,22.1193431 58.3557871,23.6090503 57.019239,24.1101492 C55.682691,24.6112481 54.1929838,23.9339827 53.6918849,22.5974347 C51.1791766,15.8954537 50.2885527,9.30717382 51.5860772,3.25319757 C51.9549209,1.53225054 53.8985499,0.675307026 55.4178758,1.56376253 C58.3785813,3.29509291 61.5356219,6.1125511 63.9707612,9.13292099 L64.201,9.423 L64.2833069,9.07739 C64.9299766,6.38919058 65.7125688,4.32780083 66.8579206,2.29544339 L67.0163748,2.01842756 C68.0366945,0.260517951 70.5933018,0.313977295 71.5392451,2.11300199 Z" fill="#00B077"></path>
    </g>
</svg>