<?xml version="1.0" encoding="UTF-8"?>
<svg width="100px" height="100px" viewBox="0 0 100 100" version="1.1" xmlns="http://www.w3.org/2000/svg" xmlns:xlink="http://www.w3.org/1999/xlink">
    <!-- Generator: Sketch 63.1 (92452) - https://sketch.com -->
    <title>Plant</title>
    <desc>Created with Sketch.</desc>
    <g id="Plant" stroke="none" stroke-width="1" fill="none" fill-rule="evenodd">
        <path d="M49.3639426,81.2357907 C62.7176716,81.2357907 75.356995,85.9296044 85.388989,94.3459938 C86.4825162,95.2634137 86.6252794,96.8936083 85.7078596,97.9871354 C84.7904397,99.0806626 83.1602451,99.2234258 82.0667179,98.3060059 C72.9565927,90.6630228 61.4903486,86.4048507 49.3639426,86.4048507 C37.2360377,86.4048507 25.7697301,90.662888 16.6594443,98.3060059 C15.5659171,99.2234258 13.9357225,99.0806626 13.0183027,97.9871354 C12.1008828,96.8936083 12.243646,95.2634137 13.3371732,94.3459938 C23.3693443,85.9294559 36.0087376,81.2357907 49.3639426,81.2357907 Z M12.2804779,1.48939286 L12.63193,1.84420284 C15.5745879,4.73159021 18.9168168,5.91089782 26.5817256,7.33072831 L29.0481841,7.78076755 C33.6841264,8.64197735 36.0219149,9.24241681 38.7329832,10.3943959 C49.3153945,14.8904002 55.1616397,23.620046 55.7607843,35.4098757 L55.771,35.658 L56.0051394,35.4290091 C60.1444583,31.4457694 65.3669905,29.2212112 71.8199416,28.1752936 L72.7966467,28.026417 C74.9707022,27.7123843 76.7626048,27.5649575 80.6583909,27.3229701 L82.6103143,27.1991844 C85.2808296,27.0203539 86.7353299,26.8681204 88.2330612,26.5942788 C89.9640048,26.2777971 91.4803245,27.7412848 91.262838,29.4560004 L91.215525,29.7597355 C91.1642898,30.1248052 91.0405845,31.0940903 91.0016358,31.372007 C90.8462543,32.4807243 90.6616382,33.5193431 90.4076324,34.6160729 C89.6954206,37.6912139 88.5647092,40.6296635 86.8520931,43.4073259 C83.7801958,48.389583 79.1385234,52.3253617 72.6813408,54.8374445 C72.2767894,54.9946689 71.8605065,55.1490142 71.4242915,55.304101 L70.9811287,55.4595691 C70.6560891,55.5721339 70.3238305,55.6842104 69.9660482,55.8022265 L68.7304978,56.2020361 L67.5072023,56.5910112 C59.7356818,59.068669 57.6370231,60.8984827 57.6370231,67.0396566 C57.6370231,68.4670531 56.4798897,69.6241866 55.0524931,69.6241866 C53.6250966,69.6241866 52.4679631,68.4670531 52.4679631,67.0396566 C52.4679631,62.1434502 53.9371856,58.5713637 56.8461824,56.0350188 C58.9438586,54.2060618 61.1482576,53.211979 65.4811937,51.8124544 L67.6266067,51.1278395 C68.2601384,50.923829 68.7878882,50.7488613 69.289589,50.5751168 C69.8323201,50.387163 70.332935,50.2044206 70.8080478,50.0197735 C76.2008918,47.9217577 79.9627165,44.7320216 82.4521447,40.6944611 C83.8469356,38.4322739 84.7787426,36.0107295 85.3718672,33.4497748 C85.4583912,33.0761872 85.5357051,32.7091418 85.6060164,32.3412187 L85.641,32.149 L84.9431715,32.2104482 C84.1759452,32.2739067 83.3081751,32.3350865 82.2875355,32.4004507 L79.1003125,32.6028649 C76.4795883,32.779175 75.0348606,32.9201043 73.3077908,33.1757398 L73.0807998,33.2097464 C64.5089597,34.5088954 58.8489648,37.9426997 54.9686817,45.5817149 C53.6370013,48.2033604 49.6593832,46.9204465 50.1104467,44.0147728 C52.3365395,29.6746678 47.6282394,19.7898345 36.7116105,15.1518357 L36.2578803,14.963864 C33.994255,14.0507478 31.7528177,13.5233026 27.1398647,12.6859561 L26.6073349,12.5897861 C20.1862773,11.4346925 16.1917263,10.4154272 13.0173151,8.60832935 L12.809,8.488 L12.7769179,9.10460467 L12.7059385,10.6598008 C12.520694,15.2308545 12.5895613,18.9817334 13.0439685,22.7396773 L13.119354,23.3363582 C13.6838801,27.6206639 14.7342545,31.2748938 16.3369646,34.1807838 C18.9605845,38.9369891 22.1309986,41.1556897 30.0792793,44.7195605 L31.4418218,45.3265827 C39.2123775,48.7919461 43.0861323,51.278569 46.616419,56.1048943 C48.1233245,58.1660743 48.695406,61.5365646 48.7552485,66.1207518 C48.7848221,68.3862157 48.6771687,70.7937051 48.4798592,73.1822328 L48.4046157,74.0429342 C48.3790069,74.32027 48.3529614,74.5877068 48.326752,74.8442425 L48.234298,75.6998452 C48.2190654,75.832409 48.2064609,75.937178 48.1970151,76.0121764 C48.0186496,77.4283849 46.7259919,78.4318549 45.3097834,78.2534894 C43.8935749,78.0751238 42.8901049,76.7824662 43.0684705,75.3662577 L43.1477362,74.6697832 L43.2212737,73.9494726 C43.2578137,73.573556 43.293808,73.174782 43.3283462,72.7566809 C43.5131545,70.5194859 43.6137906,68.2689265 43.5866289,66.1882236 C43.5405726,62.6601189 43.0975689,60.0501068 42.4439748,59.1561056 C39.6586284,55.3482031 36.4867693,53.26623 29.8081693,50.2588228 L28.4427895,49.6497811 C19.1825503,45.5317211 15.1942691,42.8110756 11.810774,36.6773374 C9.85951768,33.1394948 8.63684949,28.8858586 7.99459141,24.0116279 C7.36863069,19.2610814 7.32023452,14.6860158 7.61353238,8.86147127 L7.87346723,3.87837029 C7.87696146,3.67277567 7.86258499,3.68992473 7.84751922,3.53830901 C7.60505583,1.0982584 10.5790363,-0.27631713 12.2804779,1.48939286 Z" fill="#00B077"></path>
    </g>
</svg>