<?xml version="1.0" encoding="UTF-8"?>
<svg width="100px" height="100px" viewBox="0 0 100 100" version="1.1" xmlns="http://www.w3.org/2000/svg" xmlns:xlink="http://www.w3.org/1999/xlink">
    <!-- Generator: Sketch 63.1 (92452) - https://sketch.com -->
    <title>Squash</title>
    <desc>Created with Sketch.</desc>
    <g id="Squash" stroke="none" stroke-width="1" fill="none" fill-rule="evenodd">
        <path d="M98.4210228,20.4578544 C100.12576,27.7798899 98.8268401,36.8490869 95.3211493,43.284631 C88.3913562,56.0046362 75.1014839,69.3779531 60.5708152,78.9962866 C42.9071857,90.688241 23.5349976,96.4330296 12.6655161,90.9948151 C11.4516403,90.3874893 10.922902,88.9523096 11.4264608,87.7128902 L11.5532538,87.4276604 C11.6089235,87.2935227 11.6862538,87.0866275 11.7668391,86.8269869 C12.0216101,86.0061314 12.127729,85.1884823 12.0257829,84.5238502 C11.9615804,84.105286 11.820918,83.7731645 11.5832411,83.494978 L11.47538,83.3789626 C10.4615395,82.37418 10.4541966,80.7377626 11.4589792,79.723922 C12.4637618,78.7100815 14.1001792,78.7027386 15.1140198,79.7075212 C16.2443274,80.8277303 16.9007657,82.212501 17.1350873,83.7401477 C17.3000765,84.8157851 17.2538475,85.8940984 17.0546716,86.9555851 L17.011,87.168 L17.2335416,87.2328887 C26.299481,89.7821806 42.0443196,84.8126161 56.7125198,75.3430723 L57.7176929,74.6859648 C71.5925055,65.5017643 84.2943228,52.7201947 90.7819427,40.8118219 C93.6874516,35.4780569 94.800841,27.7042547 93.386611,21.6299806 C91.8477507,15.0204055 87.773361,11.3926805 81.0418802,11.6385914 C76.1033291,11.8193281 72.1428268,13.9115058 67.4026704,18.5044967 C66.323929,19.549747 65.1996969,20.7239543 63.8586781,22.1954683 L62.8379459,23.3267503 C61.6266887,24.6835128 58.8731785,27.800353 58.524703,28.1916159 L57.4188578,29.4262552 C53.6182682,33.6438502 50.5136367,36.807676 46.9187191,40.0038257 C44.2308723,42.3935218 41.4413548,44.6238131 38.4777584,46.7254772 L34.2658444,49.7243254 C23.5637394,57.3816805 18.4004105,61.4204369 14.1283711,65.6351218 C8.57727856,71.1116878 6.67777019,75.220001 7.92501102,78.5862938 C8.24039431,79.4375107 8.08608564,80.3917836 7.51850156,81.1002222 C7.37604921,81.2780262 7.1038958,81.6829058 6.8249794,82.2314609 C6.20245946,83.4557937 5.9670793,84.6323599 6.23530744,85.5705843 C6.43218684,86.2592407 6.91217861,86.9078797 7.82419479,87.5439232 C8.99498982,88.3604401 9.28218902,89.9714747 8.46567217,91.1422697 C7.64915531,92.3130647 6.03812071,92.600264 4.86732568,91.7837471 C3.00411995,90.4843404 1.79796024,88.8543912 1.26536207,86.9914376 C0.575932449,84.5799097 1.05849717,82.1677722 2.2173225,79.8886679 C2.30858864,79.7091715 2.4001253,79.5380167 2.49095533,79.3755748 L2.673,79.059 L2.63696846,78.9077162 C1.44606798,73.6874237 4.13092901,68.3376995 10.1536105,62.2980353 L10.4980782,61.9554269 C15.5730267,56.9486124 21.6070353,52.351776 35.4877154,42.5089829 C38.2928191,40.5197155 40.9346351,38.4075154 43.4841819,36.1407782 C46.9176818,33.0881408 49.9026298,30.0459936 53.5907771,25.9527237 L55.0362005,24.3345472 C56.0233937,23.2194627 58.5306712,20.3836968 59.3275127,19.4984896 L60.1018541,18.6438197 C61.4822701,17.1309142 62.6577774,15.9045054 63.8056736,14.7922474 C69.3837228,9.38737735 74.4576221,6.70703584 80.8530034,6.47298337 C90.23339,6.13030402 96.3540482,11.5799704 98.4210228,20.4578544 Z M84.7873411,16.4167586 C86.149428,16.8435841 86.9076071,18.2937842 86.4807816,19.6558711 C86.053956,21.017958 84.603756,21.7761371 83.2416691,21.3493116 C79.3224163,20.1211688 75.5082508,22.4316568 71.4470903,27.7139635 C70.577081,28.845575 68.9544467,29.0576455 67.8228352,28.1876362 C66.6912237,27.3176269 66.4791532,25.6949926 67.3491625,24.5633811 C72.59054,17.7459792 78.1950223,14.3509799 84.7873411,16.4167586 Z" fill="#00B077"></path>
    </g>
</svg>