<?xml version="1.0" encoding="UTF-8"?>
<svg width="100px" height="100px" viewBox="0 0 100 100" version="1.1" xmlns="http://www.w3.org/2000/svg" xmlns:xlink="http://www.w3.org/1999/xlink">
    <!-- Generator: Sketch 63.1 (92452) - https://sketch.com -->
    <title>Rewind</title>
    <desc>Created with Sketch.</desc>
    <g id="Rewind" stroke="none" stroke-width="1" fill="none" fill-rule="evenodd">
        <path d="M54.9550144,5.39280812 C55.6673844,6.62684776 55.2444875,8.20472449 54.0104479,8.91709443 L16.7862385,30.4033167 C-1.96849551,41.2301424 -1.96849551,58.0870336 16.786179,68.9138249 L54.0104479,90.4018016 C55.2444875,91.1141715 55.6673844,92.6920482 54.9550144,93.9260879 C54.2426445,95.1601275 52.6647678,95.5830244 51.4307281,94.8706544 L14.2064575,73.3826767 C-7.98856849,60.5698224 -7.98856849,38.7473536 14.2066578,25.9343836 L51.4307281,4.44824157 C52.6647678,3.73587162 54.2426445,4.15876847 54.9550144,5.39280812 Z M89.239972,16.803148 L89.239972,82.515748 C89.239972,89.567016 84.9893359,92.021419 78.8819401,88.4960117 L21.9603087,55.6371597 C15.856217,52.1134524 15.856217,47.2054436 21.960317,43.6817315 L78.8820393,10.821107 C84.9892234,7.29716396 89.239972,9.75198636 89.239972,16.803148 Z M76.3026922,6.35203912 L19.3805447,39.212909 C9.83612701,44.7226124 9.83612701,54.5962836 19.380587,60.1060115 L76.3022753,92.9648963 C85.8497431,98.4760362 94.399972,93.5389617 94.399972,82.515748 L94.399972,16.803148 C94.399972,5.78036162 85.8503178,0.842906011 76.3026922,6.35203912 Z" fill="#00B077"></path>
    </g>
</svg>