<?xml version="1.0" encoding="UTF-8"?>
<svg width="100px" height="100px" viewBox="0 0 100 100" version="1.1" xmlns="http://www.w3.org/2000/svg" xmlns:xlink="http://www.w3.org/1999/xlink">
    <!-- Generator: Sketch 63.1 (92452) - https://sketch.com -->
    <title>RightArrow</title>
    <desc>Created with Sketch.</desc>
    <g id="RightArrow" stroke="none" stroke-width="1" fill="none" fill-rule="evenodd">
        <path d="M47.1048921,1.04989593 L47.2397639,1.17559694 L93.6836155,47.6156645 C93.7645703,47.6966193 93.8401701,47.7829289 93.9098382,47.8740166 C93.9201478,47.8876677 93.9301172,47.90096 93.9399416,47.9143255 C93.963672,47.9464772 93.9867443,47.9794658 94.0090526,48.0130062 C94.0213699,48.0316304 94.0336423,48.0506154 94.0456401,48.0697235 C94.0587667,48.0905049 94.0714894,48.1114178 94.0839203,48.1325231 C94.1001944,48.1603375 94.1158756,48.1881695 94.1309996,48.2162224 C94.1451604,48.2421894 94.1588966,48.2687207 94.172181,48.2955158 C94.1820164,48.3158055 94.1915,48.3356184 94.2007161,48.3555245 C94.2937912,48.555479 94.3618836,48.7700092 94.4009591,48.994502 C94.4033048,49.0111517 94.4059907,49.0274911 94.408519,49.04385 C94.4148844,49.0816152 94.4199637,49.1202845 94.424177,49.1592135 C94.4256567,49.1771996 94.4273623,49.194534 94.4288929,49.2118809 C94.4328591,49.252022 94.4354896,49.2930105 94.4371521,49.3342482 C94.4373448,49.3481488 94.4377817,49.3614557 94.4381163,49.3747646 C94.4390033,49.3959544 94.43928,49.4179449 94.43928,49.44 L94.438327,49.4962285 C94.4378439,49.5185325 94.4370731,49.5408314 94.4360149,49.5631192 L94.43928,49.44 C94.43928,49.5111025 94.4364038,49.5815333 94.4307613,49.6511822 C94.4280613,49.6791384 94.4252129,49.708147 94.4218746,49.7371099 C94.4188449,49.7676392 94.4149557,49.7969673 94.4105783,49.8261355 C94.4064333,49.8502032 94.402298,49.8752365 94.3977927,49.9002163 C94.3914898,49.93827 94.3839568,49.9753083 94.3756397,50.0120491 C94.3718578,50.0262239 94.3683993,50.0409182 94.3648105,50.0555872 C94.356045,50.0937096 94.345974,50.1311091 94.3350938,50.1681625 C94.3290572,50.1869259 94.3232559,50.2059073 94.317231,50.224833 C94.3067104,50.2593965 94.2950456,50.2934483 94.282697,50.3271705 C94.2750211,50.3470076 94.2673358,50.3672579 94.2593866,50.3874282 C94.223595,50.4789606 94.1825266,50.5675783 94.136759,50.6533086 C94.0658937,50.7860205 93.9824065,50.9143059 93.8864104,51.0359455 C93.8636205,51.0650412 93.8406029,51.0929943 93.8170179,51.1204458 C93.814615,51.1229586 93.8117878,51.1262316 93.8089509,51.1294991 L93.7898124,51.1516052 C93.7636163,51.1811302 93.7367533,51.2100501 93.7092468,51.2383412 L93.6832377,51.2643693 L47.2415177,97.7043693 C46.2339464,98.7119033 44.6003807,98.711873 43.5928467,97.7043017 C42.6291185,96.7405378 42.587245,95.2040306 43.4672058,94.1904956 L43.5929143,94.0556307 L85.629,52.02 L9,52.02 C7.57510535,52.02 6.42,50.8648947 6.42,49.44 C6.42,48.069909 7.48795982,46.9492534 8.83683674,46.8650758 L9,46.86 L85.629,46.86 L43.5912281,4.82440306 C42.6274463,3.86069272 42.5854874,2.32418779 43.4653919,1.31060391 L43.5910929,1.17573207 C44.5548033,0.211950344 46.0913082,0.169991437 47.1048921,1.04989593 Z" id="Right-Arrow" fill="#00B077"></path>
    </g>
</svg>