<?xml version="1.0" encoding="UTF-8"?>
<svg width="100px" height="100px" viewBox="0 0 100 100" version="1.1" xmlns="http://www.w3.org/2000/svg" xmlns:xlink="http://www.w3.org/1999/xlink">
    <!-- Generator: Sketch 63.1 (92452) - https://sketch.com -->
    <title>Stop</title>
    <desc>Created with Sketch.</desc>
    <g id="Stop" stroke="none" stroke-width="1" fill="none" fill-rule="evenodd">
        <path d="M13.88,9.58 L86.12,9.58 C88.4791053,9.58 90.42,11.5208947 90.42,13.88 L90.42,86.12 C90.42,88.4791053 88.4791053,90.42 86.12,90.42 L13.88,90.42 C11.5208947,90.42 9.58,88.4791053 9.58,86.12 L9.58,13.88 C9.58,11.5208947 11.5208947,9.58 13.88,9.58 Z M86.12,4.42 L13.88,4.42 C8.67110535,4.42 4.42,8.67110535 4.42,13.88 L4.42,86.12 C4.42,91.3288947 8.67110535,95.58 13.88,95.58 L86.12,95.58 C91.3288947,95.58 95.58,91.3288947 95.58,86.12 L95.58,13.88 C95.58,8.67110535 91.3288947,4.42 86.12,4.42 Z" fill="#00B077"></path>
    </g>
</svg>