<?xml version="1.0" encoding="UTF-8"?>
<svg width="100px" height="100px" viewBox="0 0 100 100" version="1.1" xmlns="http://www.w3.org/2000/svg" xmlns:xlink="http://www.w3.org/1999/xlink">
    <!-- Generator: Sketch 63.1 (92452) - https://sketch.com -->
    <title>Alert</title>
    <desc>Created with Sketch.</desc>
    <g id="Alert" stroke="none" stroke-width="1" fill="none" fill-rule="evenodd">
        <path d="M41.3637613,12.8710181 C45.8883267,5.0428368 54.1388282,5.0428368 58.6595303,12.8719612 C59.3720433,14.1059183 58.9493293,15.683844 57.7153722,16.3963569 C56.4814151,17.1088699 54.9034894,16.6861559 54.1909764,15.4521988 C51.7007077,11.1394565 48.4840909,11.0637943 45.9661044,15.225018 L45.8318887,15.4519938 L7.31451984,82.1719747 C4.82277267,86.490598 6.36663979,89.3118022 11.238834,89.4061956 L11.4938086,89.40864 L88.5324934,89.41208 C93.5189292,89.41208 95.1921521,86.6604171 92.842443,82.3947994 L92.717315,82.1728202 L58.797195,23.4348202 C58.0846261,22.2008955 58.5072684,20.6229506 59.7411932,19.9103816 C60.9237044,19.227503 62.4221647,19.5872057 63.172141,20.704388 L63.2656318,20.8543798 L97.1867843,79.5941694 C101.653194,87.342779 97.664159,94.4183429 88.8224114,94.5696097 L88.5323782,94.57208 L11.4936934,94.56864 C2.54604207,94.56864 -1.58479003,87.5784336 2.70262276,79.845115 L2.84541811,79.5926862 L41.3637613,12.8710181 Z M52.4468232,75.0411212 C53.789732,76.3853388 53.789732,78.5619531 52.4468232,79.9047948 C51.1025385,81.2490124 48.9216876,81.2490124 47.5801548,79.9047948 C46.237246,78.5619531 46.2399978,76.3880905 47.5801548,75.0411212 C48.9230636,73.6969036 51.1025385,73.6969036 52.4468232,75.0411212 Z M50.0127494,29.49502 C51.3828404,29.49502 52.503496,30.5629798 52.5876736,31.9118567 L52.5927494,32.07502 L52.5927494,65.00098 C52.5927494,66.4258747 51.437644,67.58098 50.0127494,67.58098 C48.6426584,67.58098 47.5220027,66.5130202 47.4378252,65.1641433 L47.4327494,65.00098 L47.4327494,32.07502 C47.4327494,30.6501254 48.5878547,29.49502 50.0127494,29.49502 Z" fill="#00B077"></path>
    </g>
</svg>