<?xml version="1.0" encoding="UTF-8"?>
<svg width="100px" height="100px" viewBox="0 0 100 100" version="1.1" xmlns="http://www.w3.org/2000/svg" xmlns:xlink="http://www.w3.org/1999/xlink">
    <!-- Generator: Sketch 63.1 (92452) - https://sketch.com -->
    <title>Apple</title>
    <desc>Created with Sketch.</desc>
    <g id="Apple" stroke="none" stroke-width="1" fill="none" fill-rule="evenodd">
        <path d="M17.0240036,32.9755437 C20.6967916,16.20321 39.1350902,10.6128513 48.9295875,23.5216627 C49.7923765,24.6587889 49.5699822,26.2800405 48.432856,27.1428294 C47.2957297,28.0056183 45.6744782,27.783224 44.8116892,26.6460978 C37.8385583,17.4557505 24.8518274,21.3932334 22.0734169,34.0812589 C21.7680821,35.4756159 20.3902096,36.3584428 18.9958526,36.0531079 C17.6014956,35.7477731 16.7186687,34.3699007 17.0240036,32.9755437 Z M79.8940843,12.9781883 C84.5642659,11.6649742 89.4076098,12.5422961 94.0641393,14.7491415 C95.9170766,15.6272947 97.3289524,16.51294 98.1670849,17.1401688 C99.0214114,17.7795166 99.3949902,18.8781724 99.1074832,19.9057808 C95.7197315,32.0142936 86.3499789,35.8740707 76.1141981,33.0173285 C74.7393436,32.6336153 73.9358648,31.2080144 74.3195781,29.8331599 C74.7032914,28.4583054 76.1288922,27.6548267 77.5037467,28.03854 C84.5967369,30.0181489 90.553959,27.9615487 93.4389857,20.5895032 L93.546,20.308 L93.5119383,20.2887581 C93.1249517,20.0664622 92.7154793,19.8462083 92.2861997,19.6320955 L91.8504169,19.4201815 C88.217717,17.6985544 84.5593614,17.035881 81.2933134,17.954265 C77.6288974,18.9846667 74.4869872,21.9970894 72.0339782,27.6416274 C71.46506,28.9507465 69.9426099,29.5507978 68.6334908,28.9818796 C67.3243717,28.4129613 66.7243204,26.8905112 67.2932387,25.5813921 C70.3338072,18.5848399 74.6407784,14.4553719 79.8940843,12.9781883 Z M39.4208976,11.0708448 C45.8027958,12.4008976 50.845003,16.4282759 54.7213823,22.4020073 C56.4502543,25.0663019 57.8253495,27.9379139 58.8751441,30.8101726 C59.1809263,31.6467989 59.4396331,32.4316163 59.653851,33.1496539 L59.7770637,33.5723431 C59.9147367,34.0562209 59.9986857,34.3891794 60.0336615,34.5454682 C60.2521985,35.5219972 61.0148089,36.2846205 61.9913342,36.5031739 L62.3550541,36.5929696 C62.5183166,36.635542 62.7225287,36.6909529 62.9644713,36.7597963 C63.7933583,36.9956513 64.7227223,37.2948328 65.7266927,37.6618109 C68.5990088,38.7117193 71.4706791,40.0869691 74.1350307,41.8160422 C80.1081559,45.6923962 84.1354209,50.7344968 85.4660803,57.1163319 C88.2452784,70.4562003 76.8194343,82.7876656 58.8133796,88.1178002 C41.0788043,93.3675718 24.6669533,89.4866883 20.1868288,77.8363958 C19.9243136,77.1537409 19.3848532,76.614274 18.7022015,76.3517505 C7.05038458,71.8708774 3.16916725,55.4588081 8.41925414,37.7237011 C13.7495389,19.7176808 26.081302,8.29155653 39.4208976,11.0708448 Z M3.28834829,36.8561602 C-2.19381634,56.0387345 1.97254251,74.4124286 15.5466998,80.6294666 L15.797,80.741 L15.9090238,80.9917137 C22.1901224,94.7059492 40.8829261,98.8163356 60.2805858,93.0742594 C80.5541623,87.0728951 93.9705313,72.5931344 90.5263987,56.0616475 C88.8820569,48.1753933 83.9880855,42.048184 76.948955,37.4800289 C73.9318501,35.522031 70.7162454,33.9820702 67.5012866,32.8069167 L67.1426201,32.6772347 C66.3172283,32.3820926 65.5731065,32.1389163 64.9269436,31.9439613 L64.669,31.867 L64.5929469,31.6099938 C64.370166,30.8715416 64.0844096,30.0051458 63.730089,29.0357174 C62.5550677,25.8208358 61.0152851,22.6053074 59.0575176,19.588271 C54.4892708,12.5483305 48.3617639,7.6540873 40.4753733,6.01048292 C23.9443938,2.56627376 9.46433925,15.98292 3.462807,36.2564543 L3.28834829,36.8561602 Z" fill="#00B077"></path>
    </g>
</svg>