<?xml version="1.0" encoding="UTF-8"?>
<svg width="100px" height="100px" viewBox="0 0 100 100" version="1.1" xmlns="http://www.w3.org/2000/svg" xmlns:xlink="http://www.w3.org/1999/xlink">
    <!-- Generator: Sketch 63.1 (92452) - https://sketch.com -->
    <title>AppleWatch</title>
    <desc>Created with Sketch.</desc>
    <g id="AppleWatch" stroke="none" stroke-width="1" fill="none" fill-rule="evenodd">
        <path d="M66.876372,0.552448 C67.9649772,0.552448 68.9292768,1.2344948 69.2989626,2.24492737 L69.3549906,2.41631276 L72.0966706,11.9055528 C72.4921812,13.274456 71.7030905,14.7047961 70.3341872,15.1003066 C69.0200401,15.4799968 67.6492728,14.7679584 67.1917917,13.4992698 L67.1394334,13.3378232 L64.936,5.712 L34.085,5.712 L30.389036,18.505448 L72.165716,18.50598 C77.8952128,18.50598 82.575156,23.1830873 82.575156,28.91026 C82.575156,30.3351547 81.4200507,31.49026 79.995156,31.49026 C78.625065,31.49026 77.5044094,30.4223002 77.4202318,29.0734233 L77.415156,28.91026 C77.415156,26.1054941 75.1630944,23.784678 72.3807587,23.6703902 L72.165716,23.66598 L26.854036,23.66598 C24.0466158,23.66598 21.7266862,25.915724 21.6124444,28.6954209 L21.608036,28.91026 L21.608036,70.23842 C21.608036,73.0436743 23.8573036,75.3623913 26.6390353,75.4765739 L26.854036,75.48098 L72.165716,75.48098 C74.974602,75.48098 77.2964092,73.2314415 77.410744,70.4531487 L77.415156,70.23842 L77.415156,37.97982 C77.415156,36.5549253 78.5702613,35.39982 79.995156,35.39982 C81.365247,35.39982 82.4859026,36.4677798 82.5700802,37.8166567 L82.575156,37.97982 L82.575156,70.23842 C82.575156,75.8715562 78.0475422,80.4874011 72.4466395,80.6372264 L72.165716,80.64098 L30.389036,80.640448 L34.085,93.433 L64.936,93.433 L67.1394334,85.8084488 C67.5191235,84.4943016 68.8525125,83.7145098 70.1696941,84.0041515 L70.3341872,84.0459654 C71.6483344,84.4256555 72.4281262,85.7590445 72.1384845,87.0762261 L72.0966706,87.2407192 L69.3549906,96.7299592 C69.0528245,97.7757876 68.1299165,98.512878 67.0565746,98.5875694 L66.876372,98.593824 L32.146132,98.593824 C31.0575428,98.593824 30.0932535,97.9117968 29.7235561,96.9013849 L29.667526,96.7300029 L24.9687424,80.4692222 C20.222572,79.5940974 16.5845416,75.4785653 16.4517905,70.5192275 L16.448036,70.23842 L16.448036,28.91026 C16.448036,23.8261511 20.1331645,19.5699259 24.9683334,18.6778758 L29.667526,2.41626907 C29.9697061,1.3704614 30.8926054,0.633391735 31.965932,0.558702428 L32.146132,0.552448 L66.876372,0.552448 Z M49.512284,33.459832 C50.882375,33.459832 52.0030306,34.5277918 52.0872082,35.8766687 L52.092284,36.039832 L52.092,48.504 L64.4706589,60.884216 C65.4343419,61.8480251 65.4761433,63.3845343 64.5961349,64.398028 L64.47042,64.5328869 C63.5066109,65.4965699 61.9701017,65.5383713 60.956608,64.6583629 L60.8217491,64.532648 L47.6878291,51.397008 C47.2524354,50.9615573 46.9887588,50.3865049 46.9403775,49.7770671 L46.932284,49.572792 L46.932284,36.039832 C46.932284,34.6149373 48.0873893,33.459832 49.512284,33.459832 Z M88.947928,40.628792 C90.318019,40.628792 91.4386746,41.6967518 91.5228522,43.0456287 L91.527928,43.208792 L91.527928,55.936792 C91.527928,57.3616867 90.3728227,58.516792 88.947928,58.516792 C87.577837,58.516792 86.4571814,57.4488322 86.3730038,56.0999553 L86.367928,55.936792 L86.367928,43.208792 C86.367928,41.7838973 87.5230333,40.628792 88.947928,40.628792 Z" id="Apple-Watch" fill="#00B077"></path>
    </g>
</svg>