<?xml version="1.0" encoding="UTF-8"?>
<svg width="100px" height="100px" viewBox="0 0 100 100" version="1.1" xmlns="http://www.w3.org/2000/svg" xmlns:xlink="http://www.w3.org/1999/xlink">
    <!-- Generator: Sketch 63.1 (92452) - https://sketch.com -->
    <title>@</title>
    <desc>Created with Sketch.</desc>
    <g id="@" stroke="none" stroke-width="1" fill="none" fill-rule="evenodd">
        <path d="M50.288812,2.669056 C71.2402661,2.669056 89.5192923,16.4082758 95.5499498,36.1436256 C100.555779,52.5380708 94.8174429,65.6853087 82.931648,70.9231741 C73.5700982,75.0486482 63.5583123,72.6267505 59.4575982,64.9866314 C45.19047,80.1428856 22.543523,67.0559346 27.9493324,44.4381297 C30.4717572,33.8896486 37.4035195,26.8510227 46.0195638,25.0146933 C52.5276549,23.6276301 58.9654761,25.5005404 63.1986107,29.9451206 C63.4140147,29.4801126 63.6347911,29.0236444 63.8601595,28.57617 C64.5011003,27.3035665 66.0523345,26.7915027 67.324938,27.4324435 C68.5975415,28.0733843 69.1096053,29.6246185 68.4686645,30.897222 C64.147995,39.4760161 61.6504568,51.9422668 62.8973766,59.2403697 C64.2035651,66.8829068 72.5047321,69.8793135 80.850816,66.2013379 C90.3075661,62.0339107 94.8690095,51.58308 90.6150393,37.6510269 C85.2431176,20.0713922 68.9555853,7.829056 50.288812,7.829056 C27.0079854,7.829056 8.131612,26.7064319 8.131612,49.987976 C8.131612,73.2684439 27.0069091,92.141736 50.288812,92.141736 C60.6748389,92.141736 70.4654536,88.3787154 78.1079699,81.663778 C79.178385,80.7232801 80.8085521,80.8285988 81.74905,81.8990139 C82.6895479,82.969429 82.5842292,84.5995961 81.5138141,85.540094 C72.9384261,93.0746796 61.9404845,97.301736 50.288812,97.301736 C24.1572425,97.301736 2.971612,76.1183559 2.971612,49.987976 C2.971612,23.856704 24.1581347,2.669056 50.288812,2.669056 Z M47.0951522,30.0613467 C40.4656674,31.4742824 35.0365525,36.9870954 32.9679117,45.6379054 C28.5257469,64.2238396 47.0867346,73.8564607 57.656325,59.0518416 C56.8356419,52.5240303 58.2199201,43.4601119 60.9758577,35.479815 C58.2049842,30.957021 52.7735031,28.8511251 47.0951522,30.0613467 Z" fill="#00B077"></path>
    </g>
</svg>