<?xml version="1.0" encoding="UTF-8"?>
<svg width="100px" height="100px" viewBox="0 0 100 100" version="1.1" xmlns="http://www.w3.org/2000/svg" xmlns:xlink="http://www.w3.org/1999/xlink">
    <!-- Generator: Sketch 63.1 (92452) - https://sketch.com -->
    <title>Balloon</title>
    <desc>Created with Sketch.</desc>
    <g id="Balloon" stroke="none" stroke-width="1" fill="none" fill-rule="evenodd">
        <path d="M32.0521989,13.5897449 C16.3122975,29.3296463 14.7473955,53.4550757 28.7928789,67.5005591 C42.8340453,81.5417255 66.9595682,79.974984 82.6985031,64.2360491 C98.4340173,48.5005349 100.000895,24.3717668 85.9596754,10.3305473 C71.9185808,-3.71242 47.7880181,-2.14607431 32.0521989,13.5897449 Z M82.2896689,14.0003091 C94.1903119,25.9009521 92.8358319,46.7589519 79.0286189,60.5661649 C65.2179809,74.3768029 44.3632249,75.7311367 32.4627631,63.8306749 C20.5578432,51.925755 21.9105838,31.0711284 35.7220831,17.2596291 C49.3914431,3.59026908 69.9726315,2.12649717 81.929862,13.6471023 L82.2896689,14.0003091 Z M41.4976454,20.4213494 C52.0530155,9.86788357 68.2928145,8.81180578 77.7832425,18.3041834 C78.796549,19.317698 78.7963802,20.9607611 77.7828656,21.9740675 C76.769351,22.987374 75.1262879,22.9872052 74.1129815,21.9736906 C66.7634017,14.6226011 53.7943373,15.4659823 45.1671986,24.0915646 C44.1536966,25.1048837 42.5106335,25.1047355 41.4973144,24.0912336 C40.4839953,23.0777316 40.4841435,21.4346685 41.4976454,20.4213494 Z M36.0514923,76.0072569 C37.4767156,75.8564579 38.7543341,76.889583 38.9051331,78.3148063 C39.4960896,83.9000228 37.7654859,87.851634 33.9520822,90.1385053 C31.3049733,91.7259579 28.2853,92.3428648 23.2411297,92.715829 L19.9732276,92.9351454 C13.0792471,93.4354392 11.3107346,94.231733 11.3052719,96.741201 C11.302152,98.1743765 10.1378046,99.3336657 8.70462903,99.3305584 C7.2714535,99.327426 6.11216431,98.1630786 6.11527161,96.729903 C6.12350363,92.954079 8.10072515,90.4058235 11.5322388,89.1040034 C13.5646142,88.3329772 15.4702545,88.0447391 19.500547,87.7634955 L22.3885485,87.5735513 L23.1353143,87.5185259 C31.8005388,86.8383678 34.4036261,85.0956607 33.7439429,78.8608977 C33.5931439,77.4356744 34.626269,76.1580559 36.0514923,76.0072569 Z M20.8919553,64.6318588 C22.2521837,64.1804379 23.7208154,64.917172 24.1722362,66.2774003 C24.5514297,67.4199921 24.0922611,68.6390734 23.1294071,69.267488 L23.011,69.339 L23.0500927,69.4586381 C23.2585776,70.0441806 23.7361163,70.792309 24.4049176,71.5035902 L24.5920016,71.6965126 C25.3588451,72.4628169 26.1906565,73.0098769 26.8292502,73.2371824 L26.95,73.276 L27.0221458,73.1580159 C27.6216412,72.241669 28.7563874,71.7827669 29.8497529,72.0697837 L30.0133753,72.1184667 C31.3731077,72.571379 32.1082307,74.0408179 31.6553183,75.4005503 C30.8290115,77.8812869 28.5528103,78.9204431 26.0744422,78.4049889 C24.323306,78.0407853 22.4820851,76.9252679 20.9227629,75.3670421 C19.3632299,73.8075091 18.2464679,71.9651736 17.8821833,70.2130183 C17.3665785,67.7330352 18.4084034,65.4560785 20.8919553,64.6318588 Z" fill="#00B077"></path>
    </g>
</svg>