<?xml version="1.0" encoding="UTF-8"?>
<svg width="100px" height="100px" viewBox="0 0 100 100" version="1.1" xmlns="http://www.w3.org/2000/svg" xmlns:xlink="http://www.w3.org/1999/xlink">
    <!-- Generator: Sketch 63.1 (92452) - https://sketch.com -->
    <title>Balloons</title>
    <desc>Created with Sketch.</desc>
    <g id="Balloons" stroke="none" stroke-width="1" fill="none" fill-rule="evenodd">
        <path d="M32.0288106,10.1405313 C33.4530324,9.98054967 34.737283,11.0054188 34.8972647,12.4296406 C35.0572463,13.8538624 34.0323772,15.138113 32.6081554,15.2980947 C22.6211256,16.4199295 15.4844107,27.0955975 16.9109082,39.3182645 C17.0770457,40.7417813 16.0577384,42.0304507 14.6342215,42.1965882 C13.2107047,42.3627257 11.9220353,41.3434184 11.7558978,39.9199015 C10.0161228,25.0129769 18.9784099,11.6064721 32.0288106,10.1405313 Z M42.7923567,82.4424298 C42.1563221,80.3253373 44.5927659,78.1564496 46.7390957,79.574384 C53.369706,83.9547779 53.8098724,92.3942002 48.8658532,98.3881527 C47.9539114,99.4937584 46.318366,99.650754 45.2127603,98.7388122 C44.1071546,97.8268704 43.950159,96.191325 44.8621008,95.0857193 C47.0953626,92.3781923 47.5969901,89.111187 46.2849306,86.5426184 L46.232,86.444 L46.0313558,86.5898801 C44.5213621,87.6405277 42.3115916,88.3513536 39.9131543,88.620713 C37.515946,88.891199 35.2013327,88.6890801 33.491492,88.0013311 C30.9175272,86.9660057 29.5266831,84.6462753 30.7344486,82.0241001 C31.3340232,80.7223658 32.8753386,80.153153 34.1770729,80.7527276 C35.1663909,81.2084043 35.7326046,82.2080305 35.6842036,83.2330342 L35.681,83.274 L35.7898649,83.3071451 C36.5781271,83.5264839 37.7418277,83.6079754 39.0127685,83.4954844 L39.3325827,83.4632878 C40.7398652,83.305241 41.9930655,82.9389489 42.7661444,82.5146334 L42.808,82.49 L42.7923567,82.4424298 Z M68.6952072,19.8378506 C68.8554733,18.4136608 70.1399285,17.3890482 71.5641184,17.5493142 C80.143472,18.5147608 86.9716108,25.3479166 89.1223172,34.5927737 C89.4470575,35.9886768 88.5787085,37.3835339 87.1828053,37.7082742 C85.7869022,38.0330145 84.3920451,37.1646655 84.0673048,35.7687623 C82.3895655,28.5569644 77.2480744,23.4116956 70.9837436,22.7067618 C69.5595538,22.5464957 68.5349412,21.2620405 68.6952072,19.8378506 Z M61.4904103,78.829049 C62.2438674,79.4165796 62.584693,80.3371466 62.467068,81.2204466 L62.443,81.361 L62.4614536,81.3707175 C63.0529214,81.6547948 63.9229186,81.9040327 64.9037776,82.0379362 L65.1739073,82.0715354 C66.263724,82.1940528 67.2783929,82.1488553 67.9813008,81.9889435 L68.021,81.978 L68.0256235,81.8828662 C68.0907156,81.028941 68.5774482,80.2310676 69.3719373,79.7990997 L69.5244827,79.7224693 C70.8252855,79.1208764 72.3674818,79.6876979 72.9690747,80.9885007 C74.121286,83.4798859 72.7935441,85.6944289 70.3821191,86.6638057 C68.8276086,87.2887086 66.7452865,87.4708836 64.5943795,87.2290782 C62.4402805,86.9871514 60.4524776,86.3479341 59.0792532,85.3926475 C56.9456542,83.9084047 56.1592646,81.4457465 57.848301,79.2797037 C58.7295968,78.1495181 60.3602247,77.9477531 61.4904103,78.829049 Z M29.8815899,0.903497284 C40.2356659,-0.257935908 50.0683589,4.20860232 57.1233526,12.1180385 C62.2735406,9.02779081 68.0783329,7.66891686 73.9204508,8.32336646 C90.2393323,10.1579997 101.489583,26.9870887 99.3000501,45.7443945 C97.1096454,64.4950784 82.276718,78.3832778 65.9644686,76.549819 C64.5988101,76.3965895 63.2605299,76.1375054 61.9531982,75.7739279 C60.5724218,75.389925 59.7643772,73.9592887 60.1483801,72.5785122 C60.532383,71.1977358 61.9630193,70.3896912 63.3437958,70.7736941 C64.3846686,71.0631676 65.4514427,71.2696895 66.5436638,71.3922389 C79.8134716,72.8837343 92.2664875,61.2238668 94.1450778,45.1424306 C96.0212575,29.0695586 86.5964677,14.9711501 73.3416453,13.4809902 C68.8661666,12.9796353 64.396634,13.9574039 60.3411196,16.2498355 C64.0690535,21.7426686 66.6180881,28.3919582 67.4711735,35.6966607 C69.9517681,56.8879197 57.2545178,75.8801788 38.8652562,77.9408326 C20.4874995,80.0079531 3.74932974,64.3353585 1.27140565,43.1492915 C-1.20198934,21.9564157 11.4927748,2.96787529 29.8815899,0.903497284 Z M62.3162085,36.2986873 C60.1539796,17.7841985 45.797016,4.34078802 30.4603641,6.06112468 C15.1353138,7.78155618 4.2663123,24.0391623 6.42634169,42.5470175 C8.59206787,61.0638149 22.9505181,74.5081862 38.2862206,72.7832347 C53.6120081,71.0658658 64.4826111,54.8058642 62.3162085,36.2986873 Z" fill="#00B077"></path>
    </g>
</svg>