<?xml version="1.0" encoding="UTF-8"?>
<svg width="100px" height="100px" viewBox="0 0 100 100" version="1.1" xmlns="http://www.w3.org/2000/svg" xmlns:xlink="http://www.w3.org/1999/xlink">
    <!-- Generator: Sketch 63.1 (92452) - https://sketch.com -->
    <title>Banner</title>
    <desc>Created with Sketch.</desc>
    <g id="Banner" stroke="none" stroke-width="1" fill="none" fill-rule="evenodd">
        <path d="M99.3335604,55.7173757 C99.7519041,57.0881385 98.979816,58.5384957 97.6090533,58.9568394 C90.7179851,61.0599276 82.7239248,62.6119845 74.2050959,63.6129552 L78.929,77.29 L84.1165685,66.0825419 C84.6944475,64.8339331 86.1389972,64.2620042 87.4043544,64.7508209 L87.5615151,64.8174755 C88.8101239,65.3953545 89.3820528,66.8399042 88.8932361,68.1052614 L88.8265815,68.2624221 L80.9343215,85.3150321 C79.9789249,87.3793339 77.049147,87.2870742 76.1914654,85.2424599 L76.1265443,85.072406 L68.9029505,64.1592415 C61.3850733,64.8281397 53.5645674,65.0864481 45.8132809,64.9341315 L50.609,80.254 L55.6780522,69.299486 C56.2558347,68.0508325 57.7003401,67.4787919 58.9657351,67.9675108 L59.122901,68.0341532 C60.3715545,68.6119357 60.9435951,70.0564411 60.4548762,71.3218361 L60.3882338,71.479002 L52.4959738,88.535072 C51.524872,90.6337331 48.5321912,90.4942971 47.7235819,88.390616 L47.6643585,88.2204601 L40.318821,64.7566449 C32.4400846,64.4015287 24.7261868,63.6162252 17.5758501,62.4006966 L22.32,77.525 L27.3023419,68.1389001 C27.94732,66.923593 29.4208558,66.4311313 30.6577338,66.9880907 L30.8110339,67.0631999 C32.026341,67.708178 32.5188027,69.1817138 31.9618433,70.4185918 L31.8867341,70.5718919 L23.9944741,85.4429719 C22.9428766,87.4244563 20.0721318,87.2142864 19.2853442,85.1725797 L19.2261945,85.0030295 L11.7897827,61.2953305 C8.5884812,60.6120993 5.53610463,59.8337569 2.67409675,58.9602994 C1.30333404,58.5419557 0.531245878,57.0915985 0.949589566,55.7208357 C1.36793325,54.350073 2.81829055,53.5779849 4.18905325,53.9963286 C14.8359803,57.245669 28.3151806,59.1273224 42.2433585,59.6415032 C42.3176344,59.6398504 42.391483,59.6428385 42.4647937,59.6489417 C51.8125259,59.9848234 61.3570121,59.7045235 70.378117,58.8087148 C70.425545,58.8012453 70.4735389,58.7967711 70.5214524,58.7936478 C79.8830203,57.8574337 88.6756455,56.256909 96.0940967,53.9928686 C97.4648595,53.5745249 98.9152167,54.346613 99.3335604,55.7173757 Z M87.7878906,17.5999535 C88.2062267,18.9707185 87.4341305,20.4210715 86.0633655,20.8394076 C78.6387774,23.105276 69.5329425,24.5267773 59.9996365,25.1037515 L64.767,39.573 L69.8981332,28.485672 C70.4759157,27.2370185 71.9204211,26.6649779 73.1858161,27.1536968 L73.342982,27.2203392 C74.5916355,27.7981217 75.1636761,29.2426271 74.6749572,30.5080221 L74.6083148,30.665188 L66.7160548,47.721258 C65.752721,49.8031317 62.7904032,49.6872903 61.957566,47.611556 L61.896315,47.4436147 L54.6120953,25.3389096 C46.889613,25.5477562 39.0435808,25.2156683 31.7166765,24.3425642 L36.472,39.653 L41.4874716,29.4882186 C42.0962505,28.2543805 43.5545884,27.7185848 44.8073865,28.2387458 L44.9628394,28.3092916 C46.1966775,28.9180705 46.7324732,30.3764084 46.2123122,31.6292065 L46.1417664,31.7846594 L38.2495064,47.7802394 C37.2387619,49.8287583 34.2958209,49.6515488 33.5022662,47.5700635 L33.4441571,47.4017853 L26.0306978,23.5373755 C21.7949466,22.8368696 17.8108791,21.9387001 14.2204148,20.8428488 C12.8496602,20.4244786 12.0776,18.9741064 12.4959702,17.6033518 C12.9143404,16.2325972 14.3647126,15.460537 15.7354672,15.8789072 C19.5032072,17.0288651 23.7481328,17.9497758 28.2802716,18.6416616 C28.3819147,18.6498517 28.4813261,18.6655239 28.5791933,18.6868026 C37.2276068,19.9844382 46.9014684,20.4525784 56.2910915,20.091424 C56.3291626,20.0874634 56.3677867,20.0856544 56.4063311,20.0847137 C66.7145167,19.6828634 76.6727501,18.2789649 84.5484365,15.8754284 C85.9192015,15.4570923 87.3695545,16.2291885 87.7878906,17.5999535 Z" fill="#00B077"></path>
    </g>
</svg>