<?xml version="1.0" encoding="UTF-8"?>
<svg width="100px" height="100px" viewBox="0 0 100 100" version="1.1" xmlns="http://www.w3.org/2000/svg" xmlns:xlink="http://www.w3.org/1999/xlink">
    <!-- Generator: Sketch 63.1 (92452) - https://sketch.com -->
    <title>Bell</title>
    <desc>Created with Sketch.</desc>
    <g id="Bell" stroke="none" stroke-width="1" fill="none" fill-rule="evenodd">
        <path d="M98.5274235,46.9552233 C99.4967376,47.9246076 99.5388273,49.4700488 98.6537325,50.4894608 L98.5272907,50.6251075 L50.7204707,98.4284675 C49.7070235,99.4418414 48.0639604,99.4417819 47.0505865,98.4283347 C46.0812724,97.4589504 46.0391827,95.9135092 46.9242775,94.8940972 L47.0507193,94.7584505 L94.8575393,46.9550905 C95.8709865,45.9417166 97.5140496,45.9417761 98.5274235,46.9552233 Z M59.2226625,31.3013938 C64.6530547,32.1308325 69.7146462,34.3926151 76.1641224,38.3167619 L76.7728804,38.6895278 C84.3958453,43.3927064 87.471028,43.6826044 89.5306305,41.6257191 C90.5447097,40.6129777 92.1877725,40.6140623 93.2005139,41.6281415 C94.2132553,42.6422207 94.2121707,44.2852835 93.1980915,45.2980249 C89.1037138,49.3870011 83.6389686,48.9376466 74.4624392,43.3604752 L74.0490614,43.1073223 C67.8547637,39.2907813 63.1812407,37.1562186 58.4390295,36.4318927 C52.4594561,35.518572 47.1507413,37.1704259 42.2076849,42.1134823 C37.266109,47.0557681 35.6150674,52.3643616 36.5288319,58.3440466 C37.2315815,62.9428482 39.260682,67.4778423 42.8613234,73.3927911 L43.2034951,73.9514044 C49.0722511,83.4573059 49.6166635,88.8785075 45.3965246,93.1013224 C44.3834353,94.1150541 42.7403723,94.1155749 41.7266406,93.1024856 C40.7129089,92.0893963 40.7123881,90.4463333 41.7254774,89.4326016 C43.769256,87.387527 43.5586927,84.5682818 39.2326069,77.4068045 L38.786211,76.6760505 C34.6335819,69.9374994 32.2541761,64.7283266 31.3983876,59.1280374 C30.2395044,51.5442927 32.4069391,44.5753404 38.5376689,38.4437299 C44.6698775,32.3115213 51.6388975,30.1430486 59.2226625,31.3013938 Z M89.9265678,66.0039214 C93.5552921,69.6254411 93.5567777,75.5010205 89.9324598,79.1277402 C86.3083404,82.7542613 80.4310296,82.7542613 76.8069102,79.1277402 C75.7938354,78.113994 75.7943796,76.470931 76.8081258,75.4578562 C77.777796,74.4888281 79.3232496,74.4471944 80.3424004,75.33259 L80.4780098,75.4590718 C82.0750304,77.0571507 84.6643396,77.0571507 86.2613602,75.4590718 C87.8059889,73.9134195 87.8568652,71.4439496 86.4148333,69.8401947 L86.2603322,69.6774506 C85.2459151,68.6650476 85.2442824,67.0219853 86.2566854,66.0075682 C87.2690884,64.9931511 88.9121507,64.9915184 89.9265678,66.0039214 Z M23.283293,41.1818741 C23.533932,42.5369462 22.6826874,43.8406854 21.363996,44.1706984 L20.9125132,44.2591906 L18.1059611,44.7694677 L14.435678,45.4151518 C13.8123003,45.5215466 13.260772,45.6132356 12.7896952,45.6884872 L11.9573589,45.8165605 C7.64530311,46.447593 6.11772021,47.7211635 6.22335518,48.75602 C6.31895057,49.6925233 7.61048058,50.7433783 9.16141713,50.8171179 L9.35656753,50.8211673 C12.0711904,50.8046099 12.9563526,54.4085041 10.641681,55.6803671 L10.4928352,55.7567682 C8.88462892,56.5265969 8.89616047,57.8441382 10.4550064,59.3960316 C11.9645806,60.8988731 13.2652974,60.9602856 14.0366447,59.5295424 L14.1145377,59.3762097 C15.1706406,57.170833 18.3777598,57.5307792 18.9660118,59.8397083 L19.0035115,60.0079381 C19.348567,61.8059855 20.5306805,62.8392422 21.607426,62.8220281 C22.4026155,62.8093152 22.9386566,62.1409869 22.8033319,60.2546004 L22.7674294,59.8169582 C22.7053223,58.889637 22.6549043,56.4091518 22.6958468,54.3287932 L22.7017118,54.0598718 C22.7980707,50.0475834 23.1432322,47.3209311 24.1085076,45.7499927 C24.8588119,44.5289091 26.4569377,44.1472672 27.6780213,44.8975716 C28.8482264,45.6166133 29.247486,47.1142964 28.6183561,48.3125747 L28.5304424,48.4670853 C28.2739114,48.8845769 28.001447,50.9259822 27.9079642,53.5840545 L27.880729,54.6631429 C27.8510445,56.5279618 27.89596,58.6860011 27.9384833,59.3748286 L27.9494715,59.5200358 C28.4187784,64.4299651 25.757392,67.9463449 21.690389,68.0113649 C19.4513253,68.0471613 17.35272,66.9926548 15.8713918,65.2146455 L15.725,65.033 L15.5329739,65.1346229 C12.8677704,66.4687504 9.54108891,65.6870541 6.97938911,63.2550024 L6.79333359,63.0741089 C4.32709076,60.6188656 3.43142109,57.399561 4.53779565,54.7387997 L4.583,54.634 L4.39119273,54.5097314 C2.63170616,53.3313167 1.37389394,51.5533821 1.08874345,49.5189245 L1.06018482,49.2830605 C0.619943678,44.9702238 4.34521796,41.7808335 10.8491501,40.7359978 L11.7747316,40.5945879 C12.1968825,40.5281823 12.7040597,40.4447145 13.2852024,40.3462645 L15.5886942,39.9464596 L18.0038514,39.5141399 L20.2596001,39.102131 C21.668875,38.8414665 23.0226285,39.7725992 23.283293,41.1818741 Z M24.5229554,12.4859765 L24.7198481,12.6760719 L28.7438281,16.7000519 C29.7572386,17.7134624 29.7572386,19.3565256 28.7438281,20.3699361 C27.7744789,21.3392853 26.2290392,21.3814309 25.2095952,20.496373 L25.0739439,20.3699361 L21.0499639,16.3459561 C20.0528346,15.3488268 18.3235584,15.3522392 17.1278309,16.4138837 L16.9812354,16.5521051 L16.6345558,16.8953681 C15.4944068,18.036422 15.4057162,19.7735924 16.3177852,20.8296137 L16.4370024,20.9579763 L20.4609824,24.9836863 C21.4741751,25.9973146 21.473822,27.6403777 20.4601937,28.6535704 C19.4906362,29.6227113 17.9451875,29.6645247 16.9259337,28.7792477 L16.7903096,28.6527817 L12.7651929,24.6259338 C9.72593791,21.5816007 9.78754925,16.613383 12.7780571,13.4187513 L12.9729166,13.2172829 L13.3195962,12.8740199 C16.426748,9.76440209 21.398441,9.57385715 24.5229554,12.4859765 Z M41.0780433,11.1219705 L41.1328052,10.7578064 C42.1139908,4.03360346 45.339499,0.162322713 49.7311116,0.610646797 C51.863883,0.828373836 53.734191,2.1147975 54.9579514,3.94241623 L55.083,4.134 L55.1867043,4.08976632 C57.7808672,3.01043303 60.9061278,3.83417819 63.3367286,6.16154382 L63.5223071,6.34353093 C66.0960538,8.92807113 66.9501779,12.35224 65.584177,15.0827634 L65.482,15.275 L65.6642613,15.4231557 C67.3782628,16.8516578 68.4196263,18.8537468 68.4595246,21.0020555 L68.4598198,21.2413365 C68.3956187,25.230975 65.0094284,27.8670307 60.2455181,27.5219456 L59.8137789,27.4873654 C59.0778466,27.4434451 56.7848759,27.3973716 54.8793642,27.4346843 L54.0326145,27.4577362 C51.4724575,27.5475634 49.4849266,27.8033076 48.967691,28.0514698 L48.914586,28.0800604 C47.6932506,28.8299548 46.095253,28.4477764 45.3453586,27.226441 C44.5954642,26.0051056 44.9776426,24.407108 46.198978,23.6572136 C47.7704152,22.6923583 50.4965345,22.3475796 54.5089577,22.2515179 L55.049548,22.240886 C57.1535678,22.2079103 59.5670548,22.2621035 60.3670643,22.3240616 L60.4621052,22.3321805 C62.5349938,22.530314 63.2571977,21.9839576 63.2704917,21.15783 C63.2870849,20.1266817 62.3390933,18.9981364 60.6778358,18.6017368 L60.4571257,18.5542527 C58.0566107,18.0928132 57.5897781,14.9008101 59.6724439,13.7447796 L59.8255499,13.6657328 C61.4118498,12.905564 61.3995087,11.567005 59.8447519,10.0057281 C58.3445228,8.49920751 57.0633294,8.43853835 56.2839341,9.88973429 L56.2051086,10.0452538 C55.0331598,12.4940529 51.4047662,11.7143822 51.2730365,9.0764751 L51.2694102,8.90919872 C51.2793944,7.27131998 50.1794958,5.87339481 49.2040224,5.7738122 C48.1965751,5.6709655 46.9626711,7.11826621 46.3180688,11.1809958 L46.1402344,12.3404604 C46.0523701,12.8904532 45.9421194,13.5497233 45.812221,14.3047229 L45.3657367,16.8463771 L44.6554212,20.7568137 C44.3944022,22.166023 43.0404146,23.0968152 41.6312053,22.8357962 C40.2761963,22.5848164 39.3635109,21.3233257 39.5273537,19.9738773 L39.6049795,19.5256367 L40.1117504,16.7418937 L40.6391484,13.7618522 C40.8274467,12.6748584 40.9769593,11.7778279 41.0780433,11.1219705 Z M33.6291017,26.2553404 C35.170641,26.3360502 36.459987,27.373131 36.9140639,28.7835755 L36.963,28.952 L29.4,36.511 L29.2309645,36.4625227 C27.7608216,35.9899432 26.696788,34.6117057 26.696788,32.985165 C26.696788,30.9676507 31.4163101,26.250275 33.435138,26.250275 L33.6291017,26.2553404 Z M33.435138,21.060275 C28.5504807,21.060275 21.506788,28.1007642 21.506788,32.985165 C21.506788,37.8691002 25.4671546,41.827195 30.350548,41.827195 C31.0386181,41.827195 31.6985207,41.5539261 32.1851499,41.0674772 L41.5184999,31.7375872 C42.0053649,31.2509027 42.278898,30.5907085 42.278898,29.902305 C42.278898,25.0196136 38.3180447,21.060275 33.435138,21.060275 Z" fill="#00B077"></path>
    </g>
</svg>