<?xml version="1.0" encoding="UTF-8"?>
<svg width="100px" height="100px" viewBox="0 0 100 100" version="1.1" xmlns="http://www.w3.org/2000/svg" xmlns:xlink="http://www.w3.org/1999/xlink">
    <!-- Generator: Sketch 63.1 (92452) - https://sketch.com -->
    <title>BellPepper</title>
    <desc>Created with Sketch.</desc>
    <g id="BellPepper" stroke="none" stroke-width="1" fill="none" fill-rule="evenodd">
        <path d="M50.8624844,5.73344224 C53.6970609,8.07300958 55.6206851,11.3305549 56.0255501,14.344528 L56.033,14.414 L56.4203339,14.4768261 C62.2213789,15.4709251 68.3464109,19.3450494 73.8944233,24.7953953 L74.2717922,25.1694369 L75.1506832,26.055931 C78.8628372,29.8346835 81.3356899,32.8207849 83.0980125,35.9007638 C85.6082958,40.28794 86.3542909,44.5304265 84.9377789,48.6906239 C84.4777008,50.0418415 83.0093555,50.7642527 81.6581379,50.3041746 C80.3069204,49.8440965 79.5845091,48.3757512 80.0445873,47.0245336 C81.7058068,42.1456471 78.7205247,36.9283242 70.6167148,28.8245143 C64.8655217,23.0733213 58.4456643,19.3101152 53.3816955,19.3963597 C51.6250767,19.4262767 50.3511611,17.7325722 50.8671251,16.0531718 C51.2942257,14.6630107 50.005139,11.7281399 47.572111,9.71999767 C44.54489,7.2214277 40.5820267,6.59013942 36.1445324,8.51292408 C30.5076145,10.9560284 19.8961581,22.8703227 12.956633,34.8440839 L12.4728016,35.6888702 C5.26917224,48.4201307 4.18743769,57.4277494 9.64724145,59.5619524 C9.73540729,59.5964159 9.82161313,59.6356971 9.90546928,59.6796186 C11.8283919,60.6867906 13.4973567,60.8928521 14.8211962,60.6600782 L15.0273421,60.6197304 C15.1866151,60.5853379 15.2630539,60.5616727 15.2460664,60.5683885 C17.0391856,59.8595035 18.9490939,61.2927657 18.7695686,63.2125484 C18.3688813,67.4973629 20.0792322,71.2898953 24.1922402,75.115302 C24.9358654,75.8070696 25.82682,76.4318957 26.8363809,76.9865524 C28.0848719,77.6724781 29.4436198,78.2149916 30.8044814,78.6221456 C31.16178,78.7290452 31.4985929,78.8202887 31.8093128,78.8967185 L32.2352856,78.9960492 L32.5395448,79.0584112 C33.6083945,79.2444773 34.4472633,80.0782805 34.6397999,81.1459835 C35.5910681,86.4211981 37.5190074,89.3313774 40.5361147,91.1790369 C45.9131909,94.4713623 56.5187165,91.6614864 68.7574579,84.132163 L69.7674359,83.5020451 C80.1815825,76.9145787 89.8389976,68.0260539 92.6320069,62.6606595 C95.3790904,57.3837513 94.0388779,51.2590431 89.5455095,48.7340374 C88.3011283,48.0347691 87.8592269,46.4591299 88.5584951,45.2147486 C89.2577633,43.9703674 90.8334026,43.528466 92.0777838,44.2277342 C99.1631841,48.2093077 101.181365,57.4323016 97.2170082,65.0474868 C93.871824,71.4736137 83.3207299,81.1411559 72.0053518,88.2006205 L71.4659724,88.5347907 C57.6834267,97.0138688 45.4571329,100.253158 37.8367595,95.5872863 C34.0460405,93.2658713 31.4387495,89.7322338 30.0469495,84.3357718 L29.9,83.74 L29.5955981,83.6545202 L29.3228507,83.574312 C27.6347702,83.0692579 25.9445761,82.3944063 24.3473878,81.5169049 C22.9833619,80.7675039 21.746973,79.9004248 20.6717011,78.9001382 C16.4989746,75.019189 14.1318596,70.8446785 13.6395692,66.2541168 L13.606,65.913 L13.3789066,65.9082027 C11.665785,65.8451203 9.80632904,65.3981887 7.87089339,64.4435761 L7.638,64.325 L7.47595929,64.2590771 C2.42088681,62.1393047 0.414819066,57.4126406 1.1551779,51.1630014 L1.20001615,50.8076289 C1.90298255,45.5540818 4.4888148,39.146271 8.48438304,32.2521422 C15.930371,19.4045077 27.1932087,6.75885787 34.0891781,3.77006627 C40.342098,1.06065017 46.3631085,2.01980347 50.8624844,5.73344224 Z M79.6845783,53.7096938 C80.6823961,54.7303899 80.6638495,56.3667187 79.6431534,57.3645365 C67.5204248,69.2155405 55.2931993,78.3880607 44.3652634,82.296257 C43.0212333,82.7769273 41.5420214,82.0770358 41.0613512,80.7330057 C40.5806809,79.3889756 41.2805724,77.9097637 42.6246025,77.4290935 C52.6705846,73.8363134 64.4004128,65.0369267 76.0297357,53.6682689 C77.0504318,52.6704512 78.6867606,52.6889977 79.6845783,53.7096938 Z M47.557855,19.2012314 C48.2789427,20.4330972 47.8648753,22.0162788 46.6330095,22.7373665 C36.8274379,28.477178 26.2756719,42.7829283 20.9691597,55.7384131 C20.4281292,57.0593017 18.9187456,57.6915017 17.5978569,57.1504713 C16.2769683,56.6094408 15.6447683,55.1000572 16.1857987,53.7791685 C21.884286,39.8667036 33.088636,24.6762005 44.0217199,18.2763859 C45.2535857,17.5552982 46.8367673,17.9693656 47.557855,19.2012314 Z M64.7487446,29.0018555 C65.7676347,30.0015174 65.7832223,31.637877 64.7835604,32.6567671 C63.7838986,33.6756572 62.1475389,33.6912447 61.1286489,32.6915829 C58.2616862,29.8787149 55.274382,29.9273431 51.6503525,32.380161 C48.6241163,34.42838 45.5585556,38.0005102 43.2650607,41.6896258 C42.5114275,42.9018543 40.9177818,43.2736192 39.7055533,42.519986 C38.4933249,41.7663529 38.1215599,40.1727072 38.8751931,38.9604787 C41.5181641,34.7092265 45.0255532,30.6222578 48.7530518,28.0994099 C54.2522517,24.377438 59.9410124,24.2848537 64.7487446,29.0018555 Z M89.8011827,18.016617 C90.4242829,18.5810683 90.7311301,19.4103118 90.6324093,20.237853 L90.6050146,20.4150601 L89.5453573,25.9855837 C89.3355824,27.0883514 88.4406873,27.922556 87.3405427,28.0654834 L87.1651999,28.0822446 L82.1563808,28.3906652 C80.7316826,28.4783917 79.5056202,27.394562 79.4178937,25.9698639 C79.3335412,24.5999618 80.3323584,23.4137096 81.6758667,23.2464974 L81.838695,23.2313768 L84.843,23.046 L85.213,21.1 L85.1008681,21.045228 C82.8648224,19.9998306 79.5414293,20.1582259 77.1943766,21.6500695 L76.9551455,21.8091601 C75.7833341,22.6242177 74.1726585,22.3350116 73.357601,21.1632002 C72.5425434,19.9913888 72.8317495,18.3807132 74.0035609,17.5656557 C78.7355664,14.2742925 85.8385678,14.4269807 89.8011827,18.016617 Z" fill="#00B077"></path>
    </g>
</svg>