<?xml version="1.0" encoding="UTF-8"?>
<svg width="100px" height="100px" viewBox="0 0 100 100" version="1.1" xmlns="http://www.w3.org/2000/svg" xmlns:xlink="http://www.w3.org/1999/xlink">
    <!-- Generator: Sketch 63.1 (92452) - https://sketch.com -->
    <title>Bike</title>
    <desc>Created with Sketch.</desc>
    <g id="Bike" stroke="none" stroke-width="1" fill="none" fill-rule="evenodd">
        <path d="M81.1134333,43.9910181 C91.3119425,44.3325757 99.428583,52.7118171 99.428583,62.941714 C99.428583,73.4145688 90.9432466,81.904244 80.472973,81.904244 C70.0010343,81.904244 61.513903,73.4146334 61.513903,62.941714 C61.513903,58.3694382 63.1445325,54.0345158 66.0552283,50.6311456 C66.986733,49.5419712 68.624817,49.4141546 69.7139914,50.3456593 C70.8031658,51.277164 70.9309824,52.915248 69.9994777,54.0044224 C67.8856596,56.4760327 66.703903,59.6176556 66.703903,62.941714 C66.703903,70.5486149 72.8677316,76.714244 80.472973,76.714244 C88.0762946,76.714244 94.238583,70.5488047 94.238583,62.941714 C94.238583,55.5124406 88.3429373,49.4260508 80.9397127,49.1781099 C79.5073369,49.1301383 78.3850555,47.9300796 78.4330271,46.4977037 C78.4791537,45.1204193 79.5904495,44.0298346 80.9492425,43.9906274 L81.1134333,43.9910181 Z M19.780767,43.982471 C20.0094194,43.982471 20.2381794,43.9864408 20.4687766,43.9943924 C21.9011042,44.043783 23.0221962,45.244953 22.9728056,46.6772806 C22.923415,48.1096082 21.722245,49.2307002 20.2899174,49.1813096 C20.1187164,49.1754061 19.9495821,49.172471 19.780767,49.172471 C12.1751462,49.172471 6.008237,55.3384797 6.008237,62.941541 C6.008237,70.5476121 12.1746959,76.714071 19.780767,76.714071 C25.0859389,76.714071 29.8479392,73.6896177 32.1424796,69.0155541 C32.7740431,67.7290358 34.3289556,67.19809 35.6154739,67.8296536 C36.9019922,68.4612171 37.432938,70.0161296 36.8013744,71.3026479 C33.6420685,77.7382711 27.0830186,81.904071 19.780767,81.904071 C9.30833807,81.904071 0.818237,73.4139699 0.818237,62.941541 C0.818237,52.4719522 9.308958,43.982471 19.780767,43.982471 Z M34.180778,33.0820139 L34.203237,33.082031 L68.592198,33.082433 L68.609668,33.0814965 C68.6534491,33.0818124 68.6971338,33.0832419 68.7406819,33.0857691 L68.592198,33.082433 C68.6527983,33.082433 68.7129133,33.0845102 68.7724759,33.0885974 C68.8160359,33.0908829 68.85913,33.0950142 68.9020396,33.1002118 C68.9155592,33.1023463 68.9292859,33.1040898 68.9429786,33.1059401 C68.9798601,33.1105665 69.0165352,33.1164091 69.0530389,33.1230277 C69.0699971,33.1262701 69.0867025,33.1294365 69.1033505,33.1327621 C69.1368434,33.1394152 69.1704724,33.146894 69.203923,33.1550315 C69.2278488,33.1607355 69.2511773,33.1667261 69.2743766,33.1730304 C69.2937395,33.1784978 69.3136904,33.1841965 69.3335668,33.1901313 C69.366801,33.1997765 69.3991448,33.2101145 69.4312059,33.2210625 C69.4552513,33.2296062 69.4792641,33.2382102 69.5031446,33.2471638 C69.5278385,33.2560866 69.5521836,33.2656435 69.5763461,33.2755543 C69.594848,33.2834487 69.6137611,33.2914541 69.6325787,33.2996823 C69.6644215,33.3133595 69.6954843,33.3277213 69.7262079,33.3426717 C69.7442123,33.3515786 69.762239,33.3605827 69.7801628,33.3697966 C69.8043338,33.3821809 69.8280815,33.3949076 69.8516045,33.4079894 C69.877777,33.4224344 69.9037565,33.4374171 69.9294833,33.4528532 C69.9447893,33.4623081 69.9601611,33.4717883 69.9754254,33.4814232 C70.0050988,33.4997235 70.0342898,33.5189033 70.0631075,33.5386831 C70.0748407,33.5473664 70.0865854,33.555605 70.0982582,33.5639378 C70.130976,33.5864991 70.1632439,33.6105861 70.1949751,33.6354488 C70.199533,33.6400123 70.2039097,33.6434775 70.2082749,33.6469564 C70.3738723,33.777441 70.5246498,33.9302939 70.6559239,34.1026304 C70.744625,34.2200333 70.8242879,34.3448058 70.8930261,34.4761962 C70.8946047,34.4794668 70.8963723,34.4828793 70.8981333,34.4862973 L70.9098218,34.5088631 C70.9278011,34.5444512 70.9449848,34.5805096 70.9613495,34.6170151 L70.9713487,34.6405109 L82.8512587,61.9053109 C83.4237439,63.219184 82.8227302,64.7483795 81.5088571,65.3208647 C80.247539,65.8704505 78.7877796,65.3385397 78.1665187,64.1326767 L78.0933033,63.9784631 L66.892237,38.272031 L38.704237,38.272031 L48.3868422,54.8291822 C48.8575133,54.7307113 49.3428169,54.6721667 49.8390414,54.6572586 L50.092443,54.653457 C50.8920074,54.653457 51.6652088,54.7665781 52.3968852,54.9776714 L61.4363324,41.7541035 C62.2450979,40.5709297 63.8598837,40.2674119 65.0430575,41.0761774 C66.1769324,41.8512443 66.5029288,43.3665625 65.816303,44.5328473 L65.7209836,44.6829025 L56.6817278,57.9070814 C57.751818,59.3029184 58.387793,61.0484162 58.387793,62.941887 C58.387793,67.5263475 54.6750002,71.240697 50.092443,71.240697 C46.4182174,71.240697 43.302558,68.8495952 42.2140167,65.5371942 L19.7647463,65.5373732 C19.7171251,65.5371255 19.6694278,65.5355625 19.6217084,65.5326677 L19.779556,65.536887 C19.7210311,65.536887 19.6629588,65.5349496 19.6053995,65.5311354 C19.559635,65.5285644 19.5135651,65.5242408 19.4675287,65.51866 C19.4632632,65.5178094 19.4586521,65.5172449 19.4540447,65.5166683 L19.3555322,65.5025799 C19.3432123,65.5005339 19.3308976,65.4983966 19.318589,65.4961678 C19.2956697,65.4919584 19.2729249,65.4875624 19.2502881,65.4828716 C19.2234646,65.47724 19.1961741,65.4710742 19.1689329,65.4644495 C19.1364611,65.4567974 19.1048007,65.4485092 19.0733823,65.4396442 C19.0566279,65.4345037 19.0396182,65.4294822 19.0226354,65.4242773 C18.9784113,65.4112977 18.9346196,65.3966601 18.8913652,65.3809048 C18.8854106,65.3779894 18.8790955,65.375651 18.8727852,65.3732863 C18.6583,65.2940199 18.4575701,65.1866544 18.2745127,65.0561078 C18.2612149,65.0461602 18.2480424,65.0366121 18.2349815,65.0269565 C18.2077796,65.0071754 18.1808479,64.9863675 18.1543439,64.9650496 C18.1311208,64.946228 18.1083526,64.9273111 18.0859691,64.908056 C18.0685761,64.893118 18.0509414,64.8775007 18.0335234,64.8616497 C18.0061769,64.8368264 17.9798628,64.8118645 17.954148,64.7864229 C17.9406623,64.7729705 17.9270731,64.7592222 17.9136377,64.7453243 C17.8956494,64.726822 17.8780488,64.7080526 17.8607583,64.6890528 C17.8395954,64.6657491 17.8188825,64.642173 17.798596,64.6182241 C17.7845179,64.6015221 17.7709258,64.5850239 17.757554,64.5683767 C17.4255203,64.156575 17.2167193,63.6401412 17.1879706,63.0761722 C17.1870988,63.0495728 17.1861124,63.0231879 17.1855296,62.9967712 C17.1847493,62.9788141 17.184556,62.9603731 17.184556,62.941887 L17.1851689,62.9023547 C17.1854195,62.8849873 17.1858451,62.867611 17.1864468,62.8502284 L17.184556,62.941887 C17.184556,62.8707149 17.1874212,62.800212 17.1930426,62.7304874 C17.1948428,62.712491 17.196459,62.6948723 17.1982584,62.677256 C17.2023359,62.6333248 17.2078585,62.5898851 17.2144409,62.5467942 C17.2164771,62.536908 17.2182472,62.5258624 17.2200906,62.514821 C17.2268842,62.4705117 17.2351455,62.4275634 17.2444512,62.3850058 C17.2484167,62.3704186 17.2518589,62.3554183 17.2554398,62.3404325 C17.2630981,62.304705 17.272194,62.2697173 17.2819932,62.2350248 C17.2881911,62.2167133 17.2938342,62.1976655 17.2997074,62.1786517 C17.3528873,62.0022019 17.4251047,61.834417 17.5132931,61.6767781 L31.8863366,34.4651399 L31.9020833,34.4359607 L31.9020833,34.4359607 L31.9145051,34.4123241 C31.9283503,34.3875754 31.9425891,34.3630769 31.9572132,34.3388369 L31.9709033,34.3168469 L31.9709033,34.3168469 L31.9834548,34.2962727 C32.0052692,34.2616406 32.0278797,34.2275604 32.0512607,34.1940578 C32.0553873,34.1879531 32.0595098,34.1820704 32.0636536,34.1762091 L32.0701682,34.1673251 C32.088141,34.1422501 32.1065495,34.1175086 32.1253828,34.0931118 C32.1484635,34.0624976 32.1720221,34.0332178 32.1961292,34.0045531 C32.2055531,33.9938703 32.2150032,33.9828437 32.2245547,33.9718881 C32.2514494,33.9404258 32.2790957,33.9101572 32.3073627,33.880647 C32.312524,33.8759772 32.317551,33.8707825 32.3226024,33.8656064 L32.3863861,33.8016533 C32.3987151,33.7898526 32.4111481,33.7781872 32.423683,33.7666577 C32.4392779,33.7532213 32.4549194,33.7392043 32.4707599,33.7253549 C32.6890154,33.5333185 32.936206,33.3820707 33.2003388,33.2744298 C33.228736,33.2624379 33.2572599,33.2513779 33.2860228,33.2408127 C33.3039126,33.2346933 33.3217275,33.2283746 33.3396078,33.2222504 L33.3493828,33.2188504 L33.3493828,33.2188504 L33.3624675,33.2140894 C33.3953986,33.2031555 33.4286224,33.1928635 33.4621243,33.1832282 C33.4723532,33.1806791 33.4821102,33.1779286 33.4918832,33.1752349 L33.5024274,33.1719907 C33.5377531,33.1624495 33.5733774,33.1536356 33.6092832,33.1455659 C33.6219798,33.1429153 33.6343784,33.1402058 33.6467976,33.1375866 C33.6727739,33.1320568 33.6921174,33.1282941 33.7115362,33.1247476 L33.7506434,33.1178748 C33.7746279,33.1138242 33.7986774,33.1101079 33.8227848,33.1067283 C33.8440226,33.1036772 33.8650117,33.1010241 33.8860096,33.0986312 C33.9248149,33.0941729 33.9641605,33.0905349 34.0036098,33.0877955 C34.017554,33.0870014 34.0315658,33.0861651 34.0455761,33.0854432 C34.0798995,33.0833978 34.1142697,33.0822537 34.1486892,33.0817953 L34.180778,33.0820139 L34.180778,33.0820139 Z M50.092443,59.843457 C48.3807737,59.843457 46.990553,61.2330945 46.990553,62.941887 C46.990553,64.6601846 48.3798998,66.050697 50.092443,66.050697 C51.8081552,66.050697 53.197793,64.6604766 53.197793,62.941887 C53.197793,61.2328036 51.8072804,59.843457 50.092443,59.843457 Z M34.296237,41.015031 L24.085237,60.346031 L42.2157786,60.3460295 C42.5746563,59.2582572 43.1528776,58.2699019 43.8980397,57.4333438 L34.296237,41.015031 Z M35.384907,52.1716497 C35.9302515,52.9584752 36.4181531,53.7938679 36.8378472,54.6593613 C37.4631786,55.9489204 36.9247157,57.5012458 35.6351567,58.1265772 C34.3455976,58.7519086 32.7932722,58.2134457 32.1679408,56.9238867 C31.8648326,56.2988166 31.5120552,55.6947858 31.119301,55.1281183 C30.3028948,53.9502037 30.5959552,52.3334873 31.7738697,51.517081 C32.9517843,50.7006748 34.5685007,50.9937352 35.384907,52.1716497 Z M36.431671,25.560912 C37.8648499,25.560912 39.026671,26.7227331 39.026671,28.155912 C39.026671,29.5339687 37.9525021,30.6611397 36.5957829,30.7458067 L36.431671,30.750912 L27.338791,30.750912 C25.9056121,30.750912 24.743791,29.5890909 24.743791,28.155912 C24.743791,26.7778553 25.8179599,25.6506843 27.1746791,25.5660173 L27.338791,25.560912 L36.431671,25.560912 Z M63.3407806,19.2599544 L63.3902443,19.2720462 C63.4023049,19.2750543 63.4143322,19.2781467 63.4263253,19.2813229 C63.4578049,19.2895418 63.4891258,19.2985056 63.5202591,19.3080496 C63.5496615,19.3171061 63.579084,19.3266878 63.6082704,19.3367756 C63.6280344,19.3435792 63.6479609,19.3507401 63.6677963,19.3581419 C63.6962308,19.3687956 63.7239048,19.3796868 63.7513418,19.3910349 C63.7730964,19.3999419 63.7950761,19.4093678 63.8169244,19.4190949 C63.83976,19.4294222 63.862525,19.439985 63.8851083,19.4508652 C64.0042089,19.50783 64.118948,19.5740345 64.2283242,19.6488608 C64.2408864,19.6585966 64.253613,19.6675109 64.2662552,19.6765358 C64.5976396,19.9109017 64.8770268,20.2264462 65.0720257,20.6091911 L65.1003349,20.6671418 C65.1102499,20.6877676 65.1199003,20.7085446 65.1292817,20.7294686 L65.1445411,20.7637351 L67.8537211,27.0592051 C68.420242,28.3756609 67.8122997,29.9021151 66.4958439,30.4686361 C65.2320464,31.0124962 63.7747142,30.473971 63.1589283,29.2653029 L63.0864129,29.1107589 L61.051237,24.384031 L54.188045,24.385031 C52.7548661,24.385031 51.593045,23.2232099 51.593045,21.790031 C51.593045,20.4119743 52.6672139,19.2848033 54.0239331,19.2001363 L54.188045,19.195031 L62.8646422,19.1959856 C63.0257221,19.2025433 63.1851088,19.2241346 63.3407806,19.2599544 Z" fill="#00B077"></path>
    </g>
</svg>