<?xml version="1.0" encoding="UTF-8"?>
<svg width="100px" height="100px" viewBox="0 0 100 100" version="1.1" xmlns="http://www.w3.org/2000/svg" xmlns:xlink="http://www.w3.org/1999/xlink">
    <!-- Generator: Sketch 63.1 (92452) - https://sketch.com -->
    <title>BirthdayHat</title>
    <desc>Created with Sketch.</desc>
    <g id="BirthdayHat" stroke="none" stroke-width="1" fill="none" fill-rule="evenodd">
        <path d="M46.8573505,20.5044127 C47.7630556,18.4737676 50.6362592,18.4481468 51.5780325,20.4623176 L51.5780325,20.4623176 L57.3899597,32.8889696 C57.3992361,32.9081761 57.4082619,32.9274733 57.4170372,32.9468561 L66.6571723,52.709455 C66.6784577,52.7520367 66.6984986,52.7950819 66.717295,52.8385363 L75.9534075,72.5918738 C75.9651531,72.6160798 75.9765002,72.6404306 75.9874487,72.6649163 L81.8997425,85.3113676 C82.7042486,87.0319651 81.4484059,89.005506 79.549015,89.005506 L79.549015,89.005506 L20.303435,89.005506 C18.4240703,89.005506 17.1679429,87.0698438 17.9334805,85.3534627 L17.9334805,85.3534627 Z M54.268,38.471109 L36.681,56.058109 L24.302,83.815 L30.722,83.814109 L61.212,53.322109 L54.268,38.471109 Z M72.834,78.177109 L67.197,83.814109 L75.471,83.815 L72.834,78.177109 Z M63.551,58.323109 L38.061,83.814109 L59.858,83.814109 L70.496,73.176109 L63.551,58.323109 Z M49.283,27.807 L42.591,42.808109 L51.93,33.469109 L49.283,27.807 Z M82.85418,93.141936 C84.2873589,93.141936 85.44918,94.3037571 85.44918,95.736936 C85.44918,97.1149927 84.3750111,98.2421637 83.0182919,98.3268307 L82.85418,98.331936 L17,98.331936 C15.5668211,98.331936 14.405,97.1701149 14.405,95.736936 C14.405,94.3588793 15.4791689,93.2317083 16.8358881,93.1470413 L17,93.141936 L82.85418,93.141936 Z M49.19703,-0.277891 C53.6728076,-0.277891 57.30208,3.35216854 57.30208,7.827159 C57.30208,9.26033793 56.1402589,10.422159 54.70708,10.422159 C53.3290233,10.422159 52.2018523,9.34799011 52.1171853,7.99127088 L52.11208,7.827159 C52.11208,6.21827448 50.8061977,4.912109 49.19703,4.912109 C47.5862739,4.912109 46.28025,6.21813293 46.28025,7.827159 C46.28025,9.38122218 47.493848,10.6503225 49.0255745,10.7389903 L49.19703,10.743939 C50.6302089,10.743939 51.79203,11.9057601 51.79203,13.338939 C51.79203,14.7721179 50.6302089,15.933939 49.19703,15.933939 C44.7190511,15.933939 41.09025,12.3051379 41.09025,7.827159 C41.09025,3.35177507 44.7199161,-0.277891 49.19703,-0.277891 Z M41.4798695,67.0494075 L42.1869762,66.3423007 C43.5381903,64.9910866 43.5381903,62.8003358 42.1869762,61.4491218 C40.8357622,60.0979077 38.6450114,60.0979077 37.2937973,61.4491218 L36.5866905,62.1562285 C35.2354765,63.5074426 35.2354765,65.6981934 36.5866905,67.0494075 C37.9379046,68.4006215 40.1286554,68.4006215 41.4798695,67.0494075 Z M50.2704653,58.2588116 L50.9775721,57.5517048 C52.3287861,56.2004908 52.3287861,54.00974 50.9775721,52.6585259 C49.626358,51.3073119 47.4356072,51.3073119 46.0843932,52.6585259 L45.3772864,53.3656327 C44.0260723,54.7168467 44.0260723,56.9075976 45.3772864,58.2588116 C46.7285004,59.6100257 48.9192513,59.6100257 50.2704653,58.2588116 Z M60.1178515,77.5518915 L60.8249582,76.8447847 C62.1761723,75.4935706 62.1761723,73.3028198 60.8249582,71.9516058 C59.4737442,70.6003917 57.2829934,70.6003917 55.9317793,71.9516058 L55.2246725,72.6587125 C53.8734585,74.0099266 53.8734585,76.2006774 55.2246725,77.5518915 C56.5758866,78.9031055 58.7666374,78.9031055 60.1178515,77.5518915 Z" fill="#00B077"></path>
    </g>
</svg>