<?xml version="1.0" encoding="UTF-8"?>
<svg width="100px" height="100px" viewBox="0 0 100 100" version="1.1" xmlns="http://www.w3.org/2000/svg" xmlns:xlink="http://www.w3.org/1999/xlink">
    <!-- Generator: Sketch 63.1 (92452) - https://sketch.com -->
    <title>Bookmark01</title>
    <desc>Created with Sketch.</desc>
    <g id="Bookmark01" stroke="none" stroke-width="1" fill="none" fill-rule="evenodd">
        <path d="M52.547,32.335 L55.8008436,38.9369814 L55.886621,39.0966778 C56.2808715,39.7726414 56.963382,40.2363622 57.7442542,40.349789 L65.038,41.409 L59.7626377,46.5530919 L59.628235,46.6944064 C59.1144315,47.2772006 58.8882935,48.0643451 59.0209218,48.8369125 L60.267,56.096 L53.7458445,52.663707 L53.5697558,52.5793441 C52.8560453,52.2700163 52.0364826,52.2981746 51.3420492,52.6638092 L44.824,56.095 L46.0722475,48.8373704 L46.0980123,48.6439926 C46.1714842,47.8702764 45.8918839,47.1001868 45.3303746,46.5528621 L40.053,41.409 L47.3423821,40.34975 C48.1822509,40.2276634 48.9083597,39.7003349 49.2843071,38.9394483 L52.547,32.335 Z M81.679468,6.808204 C88.6769321,6.808204 94.4110895,12.4415963 94.5758272,19.4003538 L94.579468,19.708204 L94.579468,46.330364 C94.579468,47.7552587 93.4243627,48.910364 91.999468,48.910364 C90.629377,48.910364 89.5087214,47.8424042 89.4245438,46.4935273 L89.419468,46.330364 L89.419468,19.708204 C89.419468,15.5398908 86.062837,12.1027141 81.9238224,11.9720566 L81.679468,11.968204 L80.2430337,11.968204 L80.243268,90.065492 C80.243268,91.957315 78.2850328,93.186578 76.5977313,92.4154725 L76.4496116,92.3422085 L52.543,79.599 L28.6409491,92.342174 C26.9715109,93.2321676 24.9655187,92.0823877 24.8522534,90.2306668 L24.847228,90.065492 L24.8477505,12.0403398 C20.7778209,12.564618 16.725172,15.8794104 15.5644698,19.7707911 L15.4926707,20.0262457 L10.7471907,38.0002457 C10.383455,39.3779326 8.97175312,40.1999024 7.59406625,39.8361667 C6.27148686,39.4869805 5.46105628,38.1719885 5.72014804,36.8484587 L5.75814525,36.6830423 L10.5035317,18.7093968 C12.2228429,12.1935747 18.8892495,6.97616961 25.6271264,6.81217938 L25.953188,6.808204 L81.679468,6.808204 Z M75.0830337,11.968204 L30.0070337,11.968204 L30.007,85.765 L51.3306669,74.39861 C52.030904,74.0253068 52.8603112,73.9965802 53.5804296,74.3124334 L53.7580444,74.3985755 L75.083,85.766 L75.0830337,11.968204 Z M48.8290505,28.2122235 C50.5481641,24.73188 54.544469,24.7335647 56.2678363,28.210869 L56.2678363,28.210869 L59.829,35.438 L67.8046354,36.5969728 C71.5819496,37.1451715 72.8404595,40.8187808 70.2515644,43.5277938 L70.2515644,43.5277938 L70.1037703,43.6772761 L64.335,49.3 L65.6996028,57.2436183 C66.3417399,61.0025609 63.2331992,63.3398153 59.8615136,61.7102554 L59.8615136,61.7102554 L59.6773635,61.617421 L52.544,57.862 L45.41206,61.6176234 C42.0369894,63.3935803 38.8573585,61.1544504 39.361204,57.4448618 L39.361204,57.4448618 L39.3923605,57.2410776 L40.756,49.3 L34.9886519,43.6781475 C32.2481211,41.0087507 33.3957854,37.292998 37.0807063,36.6306857 L37.0807063,36.6306857 L37.2880259,36.597058 L45.258,35.438 Z" fill="#00B077"></path>
    </g>
</svg>