<?xml version="1.0" encoding="UTF-8"?>
<svg width="100px" height="100px" viewBox="0 0 100 100" version="1.1" xmlns="http://www.w3.org/2000/svg" xmlns:xlink="http://www.w3.org/1999/xlink">
    <!-- Generator: Sketch 63.1 (92452) - https://sketch.com -->
    <title>Bookmark02</title>
    <desc>Created with Sketch.</desc>
    <g id="Bookmark02" stroke="none" stroke-width="1" fill="none" fill-rule="evenodd">
        <path d="M15.40424,7.187512 C16.8291347,7.187512 17.98424,8.34261735 17.98424,9.767512 C17.98424,11.137603 16.9162802,12.2582586 15.5674033,12.3424362 L15.40424,12.347512 L12.579,12.347 L12.579,93.299 L87.651,93.299 L87.65112,19.547432 C87.65112,18.177341 88.7190798,17.0566854 90.0679567,16.9725078 L90.23112,16.967432 C91.601211,16.967432 92.7218666,18.0353918 92.8060442,19.3842687 L92.81112,19.547432 L92.81112,95.879312 C92.81112,97.249403 91.7431602,98.3700586 90.3942833,98.4542362 L90.23112,98.459312 L10,98.459312 C8.62990899,98.459312 7.50925335,97.3913522 7.42507584,96.0424753 L7.42,95.879312 L7.42,9.767512 C7.42,8.39742099 8.48795982,7.27676535 9.83683674,7.19258784 L10,7.187512 L15.40424,7.187512 Z M51.688156,0.42 C53.1130507,0.42 54.268156,1.57510535 54.268156,3 L54.268156,3 L54.268,7.188 L90.230776,7.1882 C91.6556707,7.1882 92.810776,8.34330535 92.810776,9.7682 C92.810776,11.138291 91.7428162,12.2589466 90.3939393,12.3431242 L90.230776,12.3482 L54.268,12.348 L54.268156,71.62112 C54.268156,73.5198224 52.297017,74.7486894 50.6085314,73.9646671 L50.4603382,73.8902307 L37.501,66.878 L24.5428538,73.8902307 C22.8729445,74.7938201 20.8540938,73.6450186 20.7400941,71.7868801 L20.7400941,71.7868801 L20.735036,71.62112 L20.735036,3 C20.735036,1.57510535 21.8901413,0.42 23.315036,0.42 L23.315036,0.42 Z M49.108,5.58 L25.895,5.58 L25.895,67.291 L36.2737782,61.6756493 C36.9809161,61.2930163 37.8222018,61.263583 38.5499779,61.5873494 L38.5499779,61.5873494 L38.7294138,61.6756493 L49.108,67.292 L49.108,5.58 Z" fill="#00B077"></path>
    </g>
</svg>