<?xml version="1.0" encoding="UTF-8"?>
<svg width="100px" height="100px" viewBox="0 0 100 100" version="1.1" xmlns="http://www.w3.org/2000/svg" xmlns:xlink="http://www.w3.org/1999/xlink">
    <!-- Generator: Sketch 63.1 (92452) - https://sketch.com -->
    <title>Bow</title>
    <desc>Created with Sketch.</desc>
    <g id="Bow" stroke="none" stroke-width="1" fill="none" fill-rule="evenodd">
        <path d="M36.6066786,51.2642632 C37.0733822,49.9092025 38.5502141,49.1890469 39.9052748,49.6557506 C41.2603355,50.1224542 41.9804911,51.5992861 41.5137874,52.9543468 C40.952843,54.5830327 40.0700215,56.2504044 38.8962441,57.9630347 C36.62727,61.27364 33.3050645,64.713994 29.1963695,68.2219686 C26.7806785,70.2844684 24.2192405,72.2626839 21.642135,74.1074775 L21.323,74.333 L28.9116658,76.6899388 C30.0169341,77.0331032 30.754438,78.0629754 30.7369723,79.2065366 L30.7286418,79.3788519 L30.212,85.713 L30.2836237,85.6708559 C37.6294859,81.1758718 43.7440217,75.6530603 48.405503,69.5993583 L48.8382531,69.0302835 C53.4090678,62.943399 56.1569517,56.7176814 56.4877962,52.5641177 C56.7111286,49.7603065 60.611713,49.2655178 61.5280337,51.924764 C61.8150264,52.757643 62.2516503,53.6486045 62.8335345,54.5879819 C64.7513078,57.6839807 68.110718,61.1114513 72.4853207,64.6406199 C75.1102454,66.7582525 77.9330605,68.7797305 80.7567247,70.6312313 L81.5859103,71.1698854 C82.1262548,71.5175723 82.6409508,71.8421547 83.1254569,72.1419951 L84.0686556,72.7174143 L84.489625,72.9671568 C86.3920475,74.0709284 86.1317373,76.8634057 84.1277379,77.6308631 L83.9567106,77.6900507 L73.198,81.029 L73.9474047,90.1737494 C74.1097891,92.1566128 72.0825939,93.5557915 70.3045096,92.7560571 L70.1569648,92.6842878 C64.9307864,89.9467658 58.3984965,85.3195032 53.1878767,80.9275095 C52.0920474,80.0038429 51.9524819,78.366718 52.8761485,77.2708887 C53.7998151,76.1750594 55.43694,76.0354939 56.5327693,76.9591605 C59.9566064,79.8450881 64.0010196,82.8517401 67.773894,85.2711304 L68.369,85.648 L67.8560913,79.3800406 C67.7615928,78.2261269 68.4420723,77.1570285 69.5100163,76.7464806 L69.6730654,76.6899093 L77.048,74.4 L76.9255086,74.3186058 C74.6275329,72.7803359 72.3417012,71.1378416 70.1566169,69.4205093 L69.2265788,68.6800135 C65.5009321,65.6743839 62.4167595,62.7045044 60.1547408,59.7971183 L60.097,59.722 L59.9927554,60.0062896 C55.8279081,71.0932165 44.423704,84.1212202 29.0071661,92.3798241 L28.4343546,92.6835049 C26.6724005,93.6078928 24.5921622,92.2882252 24.6338832,90.3388124 L24.6423242,90.1749381 L25.386,81.03 L14.6295602,77.6900212 C12.5675833,77.0498174 12.1622593,74.3421666 13.8741598,73.111452 L15.0123957,72.3712778 L15.7268537,71.8960778 C16.3405421,71.4841023 16.9988364,71.0326588 17.6930292,70.5452764 C20.4693331,68.5960748 23.2448871,66.4789704 25.826391,64.2749007 C29.6180635,61.0375977 32.646472,57.901489 34.6152047,55.0289587 C35.5420855,53.6765694 36.2109053,52.4133794 36.6066786,51.2642632 Z M15.1762154,27.9506811 C15.7544606,26.7022419 17.199178,26.1307367 18.4643918,26.6199247 L18.6215329,26.6866254 L28.4635029,31.2451754 C30.4121745,32.1477504 30.4676561,34.8644974 28.6302028,35.8704733 L28.4631621,35.9547065 L18.6211921,40.5115265 C17.3206474,41.1136771 15.7782081,40.5475168 15.1760575,39.2469721 C14.597993,37.9984492 15.0966437,36.5269962 16.2880994,35.8785333 L16.4406119,35.8018375 L21.197,33.599 L16.4402711,31.3959986 C15.1918319,30.8177534 14.6203267,29.373036 15.1095147,28.1078222 L15.1762154,27.9506811 Z M98.605795,23.976391 C98.605795,26.6650045 97.8525169,29.3180501 96.6111204,31.8517402 C96.3598274,32.3646293 96.1077351,32.836222 95.8635505,33.2623509 L95.665,33.601 L95.6819563,33.6271551 C95.931617,34.0470046 96.1922221,34.5172934 96.4539309,35.0333066 L96.6110099,35.3483637 C97.8524639,37.8815506 98.605795,40.5336527 98.605795,43.220911 C98.605795,53.8615734 91.805059,57.4266768 83.1140665,54.6378052 L82.8236734,54.5424905 C81.6134144,54.1369221 79.5856439,53.3692244 76.9078815,52.3135174 L74.4470113,51.3356657 L72.1352622,50.4061067 C71.3527451,50.0899808 70.5609668,49.7687245 69.7679464,49.4457653 L65.9472008,47.8803651 C64.6226319,47.3330817 63.9925175,45.8156456 64.5398009,44.4910768 C65.0870843,43.1665079 66.6045204,42.5363935 67.9290892,43.0836769 L70.5420316,44.1562514 L72.9055505,45.1187607 C73.6906843,45.4372789 74.47041,45.752325 75.2366211,46.0604382 L77.974544,47.1542479 C80.7349766,48.2487649 82.8702645,49.0664329 84.1469615,49.5101075 L84.4736889,49.6217641 C90.2701889,51.5666653 93.415795,49.9717505 93.415795,43.220911 C93.415795,41.4274693 92.8716261,39.5117226 91.9505801,37.6323283 C91.619514,36.956788 91.2644311,36.3373458 90.912024,35.7921132 L90.6830788,35.4474325 C90.5966013,35.3212244 90.5317619,35.2317734 90.4936418,35.1821982 C89.8163532,34.3013845 89.7787261,33.0943259 90.3807603,32.1772627 L90.6223256,31.8410805 C90.6788212,31.7603636 90.7482032,31.6585292 90.8283282,31.5368916 L90.9119548,31.4087018 C91.2643432,30.8634394 91.6194117,30.2439159 91.9504696,29.5682268 C92.8715731,27.6882544 93.415795,25.771505 93.415795,23.976391 C93.415795,17.3316055 90.3673343,15.6839972 84.7394335,17.4884167 L84.2556844,17.6499953 C82.879064,18.1271189 79.6806983,19.3475765 75.1567041,21.112895 L71.5525129,22.524314 C69.0947265,23.4897652 66.4993838,24.5145057 63.891982,25.5477372 L61.9106957,26.3353803 C63.2670271,28.4529893 64.050948,30.9388065 64.050948,33.600208 C64.050948,41.3573619 57.3858469,47.625318 49.300968,47.625318 C46.0027396,47.625318 42.9407954,46.5821834 40.4712535,44.8203558 L40.3331897,44.877164 L33.9715958,47.43686 L25.1864755,50.9383336 C20.5259856,52.7809362 17.2955012,54.0252599 15.8940448,54.5040317 L15.7784085,54.5431906 C6.94918675,57.5039036 -0.004205,53.9786514 -0.004205,43.221776 C-0.004205,40.5345888 0.749084643,37.8822559 1.99046957,35.3485893 C2.24173767,34.8357511 2.49380151,34.3641816 2.73795456,33.9380567 L2.935,33.6 L2.91974276,33.5732522 C2.67004787,33.1534079 2.40941144,32.6831058 2.14767514,32.1670512 L1.99058011,31.8519658 C0.749114552,29.3187553 -0.004205,26.6659405 -0.004205,23.977256 C-0.004205,13.3378458 6.79473343,9.77522348 15.4880954,12.560696 L15.778569,12.6558952 C17.0465566,13.081183 19.2113894,13.9035418 22.0803953,15.0377811 L24.1522422,15.8620018 L26.4644886,16.791677 L32.6542269,19.3177348 C33.9788328,19.8649285 34.6090499,21.382322 34.0618562,22.7069279 C33.5146625,24.0315338 31.997269,24.6617509 30.6726631,24.1145572 L28.0588848,23.0418187 L25.6946875,22.0791653 C24.9093394,21.7605994 24.1294121,21.4455058 23.3630159,21.137346 L19.8895438,19.7526853 C17.2450693,18.7094515 15.2468692,17.9517089 14.1290044,17.5767728 C8.33067816,15.634151 5.185795,17.2279796 5.185795,23.977256 C5.185795,25.772299 5.72997545,27.6886304 6.65100989,29.5680012 C6.98203852,30.2434651 7.33707437,30.8627541 7.68942765,31.407786 L7.91830877,31.7522887 L8.10765425,32.0173166 C8.78510649,32.8980045 8.82295789,34.1050561 8.22109395,35.0222312 L7.97948898,35.358585 C7.90413161,35.4662804 7.80586611,35.6115248 7.68977351,35.7911975 C7.33733129,36.3366606 6.98221573,36.9563372 6.65112043,37.6321027 C5.73000536,39.5120986 5.185795,41.4282632 5.185795,43.221776 C5.185795,49.8667719 8.23651666,51.5156669 13.8625751,49.7097138 L14.3453286,49.5482767 C15.6378113,49.0991189 18.5416738,47.981242 22.6394244,46.3640957 L27.0070985,44.6316483 C29.4517037,43.6578863 32.0320245,42.6243069 34.6235313,41.5821589 L36.6332574,40.7717858 C35.312617,38.6744957 34.550988,36.222438 34.550988,33.600208 C34.550988,25.8404591 41.2151693,19.573368 49.300968,19.573368 C52.5483547,19.573368 55.566441,20.5842214 58.0156196,22.2966459 L60.6739395,21.2406135 C62.8508244,20.3769743 65.0339567,19.513318 67.1509492,18.6789498 L74.0879835,15.958992 C78.5208609,14.2325229 81.5598314,13.0788969 82.8240664,12.6546798 C91.6558196,9.69665105 98.605795,13.2198584 98.605795,23.976391 Z M49.300968,24.763368 C44.012672,24.763368 39.740988,28.7805205 39.740988,33.600208 C39.740988,35.9938953 40.7960002,38.1902711 42.5062861,39.7943686 C42.6096039,39.8723057 42.7061386,39.9593449 42.7961156,40.0538728 C44.5005282,41.5262128 46.7859483,42.435318 49.300968,42.435318 C54.5883442,42.435318 58.860948,38.4173005 58.860948,33.600208 C58.860948,31.1759619 57.780224,28.9547548 56.032999,27.3456617 C55.9126271,27.2590894 55.800581,27.1602565 55.6972153,27.0515483 C54.005056,25.6342242 51.7632049,24.763368 49.300968,24.763368 Z M83.4258936,27.9506811 C84.0041389,29.1991203 83.5057012,30.6706454 82.3143394,31.3192808 L82.1618379,31.3959986 L77.404,33.599 L82.1614971,35.8018375 C83.41002,36.3799021 83.9817342,37.8245367 83.4927294,39.0898213 L83.4260515,39.2469721 C82.8479869,40.495495 81.4033523,41.0672092 80.1380677,40.5782044 L79.9809169,40.5115265 L70.1389469,35.9547065 C68.1901447,35.0524135 68.1342699,32.3356745 69.9715776,31.3294327 L70.1386061,31.2451754 L79.9805761,26.6866254 C81.2810336,26.0842865 82.8235548,26.6502236 83.4258936,27.9506811 Z" fill="#00B077"></path>
    </g>
</svg>