<svg viewBox="0 0 36 33" xmlns="http://www.w3.org/2000/svg">
  <title>Breakfast</title>
  <g id="Breakfast" stroke="none" stroke-width="1" fill="#00B077" fill-rule="evenodd">
    <path d="M20.048 22.54q-2.873 0-4.921-2.064t-2.048-4.936 2.048-4.921 4.921-2.048 4.936 2.048 2.064 4.921-2.064 4.936-4.936 2.064zm.016-11.937q-2.032 0-3.492 1.46t-1.46 3.492 1.46 3.492 3.492 1.46 3.492-1.46 1.46-3.492q0-1.333-.667-2.476t-1.81-1.81-2.476-.667zm-2.953 5.619h-.444q-.349-.349-.476-.794t.032-.794q.508-1.016 1.476-1.794t2.143-1.127q.317-.159.714.095t.397.571q.571.857-.444 1.365-.698.159-1.317.651t-.952 1.159-1.127.667zm18-6.159q.381 1.048.46 1.905t-.048 1.714q-.254 1.206-.825 2.762-.444.921-.444 1.365v2.254q0 4.095-.762 5.619-.413.794-.873 1.222t-.73.635-.571.365-.508.254-.54.175-.524.111l-.571.095-.54.095q-1.143 0-1.81.222-.444 0-.746.175t-.619.397-.429.302-.825.444-1.064.508-1.048.397q-1.302.476-2.873.476t-2.508-.254-1.508-.746-.857-.889-.603-1.032q-.127-.159-.54-.73-.857-1.206-3.302-2.444 0-.19-.222-.222v1.81q0 1.111.444 3.841 0 .349-.286.73T9.236 32h-.222q-.349 0-.619-.286t-.27-.603q-.476-2.73-.476-4.064-.317-3.714-.159-5.936.222-2.857.635-5.556.698-4.381.444-9.937 0-1.333-.444-4.508 0-.413.222-.762t.667-.349q.825 0 1.111.889.476 2.254.476 3.397 1.651-1.683 3.81-2.476 2.127-.889 4.254-.698 2.254.222 3.587.762 1.873.73 2.73 1.159t1.079.492q.381.159.54.317l1.333.667q6 2.19 7.175 5.556zm-2.54 6.159q.222-.571.302-.825t.222-.635.206-.587.159-.556.095-.619v-.619q-.032-.667-.444-1.556-.476-1.619-2.476-2.794-1.556-.889-3.587-1.714l-1.365-.698q-.127-.127-.429-.238t-.46-.206q-4.064-2.032-6.762-2.032-2.984 0-5.46 2.095-1.016.857-1.746 1.968 0 5.333-.921 9.238-.032.54-.254 1.905-.413 2.889-.413 5.079l1.365.698q.127.064.444.206t.508.238.492.27.524.302q.54.381 1.079.921t1.206 1.556.952 1.333q.73.794 2.889.794 1.143 0 2.206-.302t1.46-.524 1.286-.762q1.238-.794 2.762-1.175t1.825-.397.556-.064.381-.079.333-.079.349-.095l.333-.111.349-.159q.984-.571 1.254-1.095t.333-1.27.095-1.095.016-1.381-.016-1.095q-.349-1.841 0-2.952.127-.317.349-.889zM2.698 30.889Q2.698 32 1.714 32q-.476 0-.762-.286t-.286-.603q-.444-2.73-.444-4.064-.317-3.873-.159-6.064.222-2.952.556-5.111t.429-2.905.19-1.984q.19-2.286-.127-5.365 0-1.333-.444-4.508 0-.413.222-.762t.667-.349.794.222.349.667q.444 3.175.444 4.73.349 3.397.159 5.397-.222 2.667-.524 4.556t-.413 2.73-.206 2.302q-.222 2.73.095 6.444 0 1.587.444 3.841zm3.508.794q-.27.317-.698.317t-.714-.286-.286-.603q-.444-2.73-.444-4.064-.603-4.635-.127-8.222.19-1.46.397-2.444t.317-1.683.19-1.27.175-1.603.127-1.857q.032-2.095-.19-4.349 0-1.333-.444-4.508-.159-.317.079-.714T5.207 0t.746.222.365.667l.667 4.73q.317 3.397.159 5.397-.222 2.667-.603 4.984-1.302 5.556-.667 11.048 0 1.587.444 3.841.159.476-.111.794z"/>
  </g>
</svg>
