<?xml version="1.0" encoding="UTF-8"?>
<svg width="100px" height="100px" viewBox="0 0 100 100" version="1.1" xmlns="http://www.w3.org/2000/svg" xmlns:xlink="http://www.w3.org/1999/xlink">
    <!-- Generator: Sketch 63.1 (92452) - https://sketch.com -->
    <title>Broccoli</title>
    <desc>Created with Sketch.</desc>
    <g id="Broccoli" stroke="none" stroke-width="1" fill="none" fill-rule="evenodd">
        <path d="M40.2352434,8.71484667 L40.57,8.985 L40.693083,8.91273878 C45.5285931,6.13523147 51.9230387,7.08225438 56.257559,11.5304308 L56.342,11.619 L56.4666572,11.5405098 C66.184572,5.49026857 78.3734386,8.16672396 86.69001,17.0047752 L86.9657862,17.3016555 C94.9095176,25.9644205 96.5363891,37.427197 90.207594,46.6775909 L89.943,47.056 L89.9599077,47.0612757 C94.8032471,48.7354805 98.2397354,52.7756052 99.0248379,57.6939744 L99.0704433,58.0025026 C99.8427103,63.678402 96.8976938,68.7038377 91.2306558,71.0344965 L91.139,71.07 L91.2687589,71.3069286 C94.5621097,77.5144988 92.9850553,85.4258948 87.7282819,91.1708405 L87.47918,91.4385333 C81.0095523,98.2753054 71.7843291,99.2242136 64.5228712,92.4949356 L64.448,92.424 L64.3911915,92.4416812 C53.5896755,95.4187805 45.9478219,83.0417368 51.801513,73.3890914 L51.9929274,73.081975 C52.2352112,72.703574 52.5596157,72.4095526 52.9279283,72.2082908 C51.2628412,67.9057078 51.702134,63.4931114 53.6179571,59.2850334 L53.798,58.898 L53.7845744,58.8991126 C44.6186539,59.4460036 37.9304277,54.7450544 33.6085987,46.5726408 L33.4640686,46.71375 C28.5372633,51.4264623 22.8836821,52.3378509 18.1067484,49.4260106 C13.7228224,46.7537332 11.2991737,41.4159887 12.1116206,36.3929599 L12.177,36.023 L12.0166937,35.9013658 C3.50342098,29.3250956 3.3481877,18.2282997 10.4248739,10.2159209 L10.6607897,9.95290401 C18.1979328,1.67805913 29.9973598,0.571354353 40.2352434,8.71484667 Z M19.4089681,54.522032 C20.7071239,55.1155406 21.2783532,56.6490376 20.6848446,57.9471933 C19.710881,60.077502 18.2005137,62.5612317 16.2393213,65.3520028 C15.4043456,66.5401707 14.4958289,67.7716952 13.5249085,69.0371826 C11.7622388,71.3346279 9.87828717,73.6367647 7.99471576,75.8362003 L7.103,76.867 L11.6155062,81.3802167 C14.0828869,78.8191073 16.9513721,76.1613775 20.1464545,73.4384718 C23.9912769,70.1618462 28.102223,66.9633777 32.2123524,63.9688058 L33.2713338,63.2018833 C33.963865,62.7034069 34.6287829,62.2308762 35.2618829,61.7863018 L36.4343808,60.9695808 L37.7147922,60.0964624 C38.9024034,59.3046035 40.5070809,59.625424 41.2989398,60.8130352 C42.0907988,62.0006463 41.7699782,63.6053239 40.5823671,64.3971828 L39.5987399,65.0664733 L39.1321562,65.3887268 C37.9638661,66.1986547 36.6605426,67.1234444 35.2562274,68.1466051 C31.2449222,71.0691752 27.2344337,74.1894839 23.4992505,77.3726731 C20.3950863,80.0180967 17.6244073,82.5876171 15.2708637,85.0364048 L20.793,90.557 L22.290111,89.4407735 C24.7986234,87.5795466 27.3772059,85.7179948 29.8853274,83.9777995 L31.2957951,83.0073009 L32.8957078,81.9277402 C37.9756335,78.5380537 41.731143,76.4154598 44.078487,75.8288035 C45.4632899,75.4827088 46.8664597,76.3247482 47.2125544,77.7095512 C47.5448053,79.038962 46.7820718,80.3852997 45.4953365,80.7970821 L45.3318067,80.8436186 C43.6728705,81.2582257 39.8598628,83.4565623 34.8796579,86.8219081 L33.5250877,87.7458008 C33.2957535,87.903604 33.064685,88.0632737 32.8319601,88.2247439 C30.3734412,89.9305238 27.8377814,91.7610884 25.370157,93.5919779 L23.3676629,95.0897599 L22.1337863,96.0269422 C21.1049099,96.8177671 19.6491352,96.7230365 18.7314231,95.8055425 L1.73000612,78.8041255 C0.754578971,77.828526 0.717349997,76.2588177 1.64542958,75.2380725 L2.30337711,74.5021654 L2.85528358,73.8754325 C3.23615839,73.4404693 3.6421385,72.9719163 4.06860988,72.4739281 C5.89597335,70.3401263 7.72295662,68.1076032 9.4238261,65.8907077 C10.3527784,64.679921 11.2188892,63.5058791 12.0101177,62.3799633 C13.8048281,59.8260956 15.1640678,57.5908883 15.9838069,55.7979085 C16.5773155,54.4997528 18.1108124,53.9285234 19.4089681,54.522032 Z M14.4822365,13.4336691 C8.73035584,19.748518 9.13045183,28.171256 16.5279661,32.7442528 C17.5884591,33.3998286 18.029774,34.7190435 17.5772222,35.8807758 C16.3158193,39.1188857 17.803077,43.1872161 20.7971769,45.0123075 C23.8443902,46.8697748 27.6177382,45.9661725 31.3590289,41.3975689 C30.8019887,39.8231062 30.3426581,38.2218076 29.9694013,36.6214055 C29.5492587,34.8199728 29.3201522,33.4024373 29.2283946,32.5522028 C29.0752388,31.1330467 30.1015348,29.858436 31.5206909,29.7052802 C32.8852641,29.558015 34.1161969,30.5012194 34.3450204,31.835616 L34.4279509,32.453526 C34.4465461,32.5806855 34.4692338,32.7287248 34.4963308,32.8963803 C34.6200844,33.6620727 34.7871864,34.5204543 35.0033635,35.4473501 C35.4242634,37.25203 35.968072,39.0552506 36.6464953,40.7948477 C36.6730113,40.8528241 36.6966016,40.9123132 36.7179371,40.9725116 C37.0134022,41.7221469 37.335663,42.4595096 37.6840666,43.1795898 C41.8394812,51.7679955 48.3534365,55.6674826 58.4851677,52.8686858 C60.9510733,52.1875022 62.7695921,55.101364 61.1628091,57.010619 L60.9118852,57.2937323 C60.8072175,57.416558 60.665085,57.5904338 60.4943989,57.811576 C60.0210276,58.4248797 59.5441495,59.1305093 59.0994067,59.9113895 C56.4546104,64.555128 56.1889003,69.2316283 59.703955,73.691956 C60.6845215,74.9362177 61.9565495,76.1533116 63.5439605,77.3348151 C64.6890051,78.1870671 64.9263604,79.806196 64.0741083,80.9512406 C63.2218563,82.0962853 61.6027274,82.3336406 60.4576828,81.4813885 C58.5621408,80.0705443 56.9913787,78.5771374 55.7347727,77.0056688 C54.5639199,79.6440232 54.8039191,82.7143616 56.3014151,84.9961247 C57.9910401,87.5706384 60.7901982,88.4728959 64.1398821,87.0671932 C65.1465719,86.6447334 66.3101386,86.9003894 67.0470129,87.7059407 C72.3278524,93.4789574 78.8205032,93.0681433 83.7246822,87.8856574 C88.1114904,83.2499026 89.1238208,76.9094215 85.955389,72.5520755 L84.9224901,72.5650547 C84.7750848,72.5660253 84.6310528,72.5666576 84.4793192,72.5670431 C80.7775723,72.5764481 78.1227166,72.3422081 75.4541424,71.6076529 C73.7604849,71.1414545 72.7654326,69.3905453 73.2316311,67.6968878 C73.6978295,66.0032302 75.4487386,65.008178 77.1423962,65.4743764 C79.0346111,65.99523 81.0625954,66.1927871 83.9702714,66.2052813 L85.4939845,66.1980487 L86.8933617,66.1790663 C87.454845,66.1712001 87.9843828,66.3093124 88.4458273,66.5582541 C92.5434354,65.2485767 94.4293768,62.2331153 93.9485752,58.6993877 C93.3927032,54.6139181 89.8740428,51.4428178 84.9987453,51.3991017 C82.6874622,51.3783767 81.5635307,48.5660774 83.2239,46.958087 C91.1186507,39.3123886 90.5184074,28.8240015 83.1560195,20.7952009 C75.894098,12.8759604 65.2659898,10.9270324 57.4726405,17.1509022 L57.4601722,17.1596995 L57.1413681,17.4212462 C56.1641934,18.2434966 55.174446,19.286353 54.1974611,20.4992521 C53.2125555,21.7219845 52.2980287,23.0436048 51.4831493,24.3658326 L51.1574364,24.9035957 C51.0543898,25.0768241 50.9569343,25.2437698 50.8652697,25.4036628 L50.5398675,25.9859475 C50.5175752,26.0272197 50.5002333,26.0598472 50.4879523,26.0833881 C49.8277347,27.348921 48.2666055,27.839626 47.0010726,27.1794084 C45.7355397,26.5191908 45.2448347,24.9580615 45.9050523,23.6925286 L46.1263957,23.2816399 C46.3573958,22.8636126 46.6787542,22.3092249 47.0826611,21.6538434 C48.0039897,20.1588906 49.0388784,18.6633304 50.1719176,17.2566944 C50.8633883,16.3982531 51.5690562,15.6012665 52.2893989,14.8750408 C49.2197522,11.9583131 44.8787672,11.7548199 42.1465214,14.2080278 C41.150444,15.1023781 39.6363179,15.0881315 38.6572456,14.1751966 C30.1290028,6.22304664 20.5837811,6.73493267 14.4822365,13.4336691 Z M78.5990035,40.627413 C79.2483674,41.8985492 78.7443213,43.4554222 77.4731851,44.104786 C73.483865,46.1427426 68.7873494,46.8490731 64.582589,45.9698781 C63.1854087,45.6777344 62.2895995,44.3082667 62.5817431,42.9110864 C62.8738868,41.5139061 64.2433545,40.6180969 65.6405348,40.9102405 C68.6598274,41.54156 72.1583345,41.0154035 75.1216304,39.5015945 C76.3927667,38.8522307 77.9496396,39.3562767 78.5990035,40.627413 Z M29.5534198,13.9497931 C30.9229135,14.3522204 31.7068757,15.7886462 31.3044485,17.1581399 C30.9181183,18.4728539 29.5788551,19.2479421 28.2606917,18.9518037 L28.0961017,18.9091686 C26.5667579,18.4597692 25.1197774,18.9716799 24.3869627,20.1913227 L24.2954802,20.3543993 C23.6341867,21.6193703 22.0726408,22.1087477 20.8076698,21.4474542 C19.5426987,20.7861607 19.0533214,19.2246148 19.7146149,17.9596437 C21.5931389,14.3662642 25.6606734,12.8059052 29.5534198,13.9497931 Z" fill="#00B077"></path>
    </g>
</svg>