<?xml version="1.0" encoding="UTF-8"?>
<svg width="100px" height="100px" viewBox="0 0 100 100" version="1.1" xmlns="http://www.w3.org/2000/svg" xmlns:xlink="http://www.w3.org/1999/xlink">
    <!-- Generator: Sketch 63.1 (92452) - https://sketch.com -->
    <title>Bunny</title>
    <desc>Created with Sketch.</desc>
    <g id="Bunny" stroke="none" stroke-width="1" fill="none" fill-rule="evenodd">
        <path d="M15.669545,51.4298672 C16.4785929,52.6128479 16.1754605,54.2277061 14.9924798,55.036754 C5.84991453,61.2894116 4.09247603,67.8332569 8.38854518,73.2052564 C9.28365051,74.3245367 9.10192081,75.9575189 7.98264056,76.8526242 C6.8633603,77.7477295 5.23037814,77.5659998 4.33527282,76.4467196 C-2.03589585,68.4799215 0.623997591,58.5757734 12.0626582,50.752802 C13.2456389,49.9437541 14.8604971,50.2468865 15.669545,51.4298672 Z M22.9133381,52.633202 C24.8236402,52.633202 26.372646,54.187434 26.372646,56.094586 C26.372646,58.000354 24.8236402,59.553202 22.9133381,59.553202 C21.0030361,59.553202 19.452646,58.000354 19.452646,56.094586 C19.452646,54.187434 21.0030361,52.633202 22.9133381,52.633202 Z M48.578777,11.4158358 C59.2060116,15.3762959 52.9318496,38.3292587 40.5349918,46.1895011 C39.3246078,46.9569465 37.7212603,46.5978738 36.9538149,45.3874898 C36.1863695,44.1771058 36.5454422,42.5737583 37.7558262,41.8063129 C42.359727,38.8872041 46.2831654,32.9277994 47.9875822,26.6924784 C49.5173943,21.0959187 48.7898683,17.0331928 46.7660678,16.2789814 C43.6605555,15.121192 37.6141015,19.1541574 31.36366,26.7214742 C25.6847352,33.5968642 21.1039542,41.9439969 20.9570403,45.2179759 C20.8927936,46.649714 19.6800583,47.7582849 18.2483201,47.6940383 C16.816582,47.6297916 15.7080111,46.4170563 15.7722577,44.9853181 C15.9801499,40.3524367 20.8418562,31.4187671 27.029429,23.8219772 L27.3621555,23.4163173 C34.9723382,14.2027821 42.5310581,9.16114018 48.578777,11.4158358 Z M90.8899231,19.1686684 C96.3157159,19.8275482 100.179857,24.7649407 99.5159454,30.1864913 C99.2742823,32.1676725 98.4521199,33.9952358 97.1708997,35.4763456 C96.233274,36.5602551 94.5944959,36.6788415 93.5105864,35.7412157 C92.4718398,34.8426577 92.3196486,33.3001594 93.1340076,32.2191901 L93.2457163,32.0809024 C93.8585714,31.3724326 94.2485601,30.5055369 94.3642791,29.5568622 C94.6796834,26.9812463 92.8425988,24.6339179 90.262534,24.3206078 C88.4417892,24.0982588 86.6876004,24.9486229 85.7221826,26.4569129 L85.6056658,26.6488458 C84.8912347,27.8912589 83.3048992,28.3192728 82.0624862,27.6048418 C80.8200731,26.8904107 80.3920592,25.3040752 81.1064902,24.0616622 C83.0727996,20.6422022 86.9077284,18.6823629 90.8899231,19.1686684 Z M25.9787659,71.4998416 L26.3966576,71.5031276 C27.8296727,71.5247968 28.9737946,72.7040515 28.9521254,74.1370666 C28.9304562,75.5700817 27.7512015,76.7142036 26.3181864,76.6925344 C20.0823031,76.598239 15.1417554,78.9820866 13.8690323,81.6940623 C13.52861,82.4194495 13.5944028,82.8509944 14.0470192,83.2714242 C14.8956377,84.0596956 16.7790851,84.6216909 19.6235446,84.6653893 L19.984102,84.668131 L35.152742,84.668131 C36.5859209,84.668131 37.747742,85.8299521 37.747742,87.263131 C37.747742,88.6411877 36.6735731,89.7683587 35.3168539,89.8530257 L35.152742,89.858131 L19.984102,89.858131 C11.2965101,89.858131 6.42720143,85.3350895 9.17068923,79.4891422 C11.3799456,74.7815592 18.060217,71.495497 25.9787659,71.4998416 Z M97.2457133,59.9028552 C96.5429685,79.0516563 87.6894288,89.6446579 69.6397548,89.8546031 L69.089979,89.857785 L51.187939,89.857785 C42.500317,89.857785 37.6313641,85.3346207 40.3752338,79.4886708 C42.0420445,75.9374484 46.2530796,73.1951126 51.6203741,72.0641015 L51.983,71.99 L51.8381769,71.7556461 C46.4003701,62.6624152 54.1780515,50.1548836 67.593216,49.5454476 L68.0747131,49.5287666 C69.5074824,49.4945051 70.6967459,50.6282197 70.7310074,52.0609891 C70.7652689,53.4937584 69.6315543,54.6830219 68.1987849,54.7172834 C56.6026816,54.9945784 51.2135563,66.4064936 59.0638425,71.9817658 C61.1414308,73.4572687 60.0699589,76.730721 57.5220191,76.6921883 C51.2868699,76.5978936 46.3463991,78.9817804 45.0734592,81.6938417 C44.7329599,82.4192922 44.7987106,82.8508176 45.2511945,83.2711665 C46.0996557,84.0593707 47.9829742,84.6213464 50.827387,84.6650434 L51.187939,84.667785 L69.089979,84.667785 C84.4665886,84.667785 91.4444626,76.4633708 92.0592173,59.7121734 C92.3971128,50.5379463 89.3814125,42.6172262 83.8876711,38.1601614 C77.9692884,33.3585857 69.4686121,32.7015888 59.1548925,37.0801973 C57.8356763,37.6402601 56.3122196,37.0248447 55.7521567,35.7056285 C55.1920939,34.3864123 55.8075093,32.8629556 57.1267255,32.3028927 C80.7743902,22.2634629 98.113888,36.3309735 97.2457133,59.9028552 Z" fill="#00B077"></path>
    </g>
</svg>