<?xml version="1.0" encoding="UTF-8"?>
<svg width="100px" height="100px" viewBox="0 0 100 100" version="1.1" xmlns="http://www.w3.org/2000/svg" xmlns:xlink="http://www.w3.org/1999/xlink">
    <!-- Generator: Sketch 63.1 (92452) - https://sketch.com -->
    <title>Burger</title>
    <desc>Created with Sketch.</desc>
    <g id="Burger" stroke="none" stroke-width="1" fill="none" fill-rule="evenodd">
        <path d="M49.71615,2.89335 C24.7233887,2.89335 5.7404,14.996136 5.7404,33.0091 C5.7404,39.5760335 11.5393639,44.23885 19.88215,44.23885 L80.12415,44.23885 C88.627775,44.23885 93.68665,39.588888 93.68665,33.0091 C93.68665,15.8129936 74.0499631,2.89335 49.71615,2.89335 Z M49.71615,8.14335 C71.4987847,8.14335 88.43665,19.2873471 88.43665,33.0091 C88.43665,36.5859747 85.8224683,38.98885 80.12415,38.98885 L19.88215,38.98885 C14.2177925,38.98885 10.9904,36.3937763 10.9904,33.0091 C10.9904,18.5177478 27.2624449,8.14335 49.71615,8.14335 Z M80.12415,61.9695 L19.88215,61.9695 C11.6112228,61.9695 5.7404,65.7332189 5.7404,71.451 C5.7404,86.333155 24.7333242,95.98425 49.71615,95.98425 C74.0373606,95.98425 93.68665,85.6836123 93.68665,71.451 C93.68665,65.7496037 88.5277379,61.9695 80.12415,61.9695 Z M80.12415,67.2195 C85.9184986,67.2195 88.43665,69.064632 88.43665,71.451 C88.43665,81.8659592 71.5196767,90.73425 49.71615,90.73425 C27.2567679,90.73425 10.9904,82.4686317 10.9904,71.451 C10.9904,69.2465213 14.1522415,67.2195 19.88215,67.2195 L80.12415,67.2195 Z M40.9648936,55.7477587 L38.8628062,54.7982455 L38.6760748,54.7178533 C36.7968468,53.9098247 35.4869438,53.554275 34.182275,53.554275 C31.9720099,53.554275 30.6533237,53.9592026 28.240956,55.2012127 L27.5282109,55.5735515 C24.4721227,57.1747251 22.5549236,57.815525 19.583775,57.815525 C17.2087724,57.815525 15.3465854,57.3036228 12.5851411,56.1332438 L10.5241721,55.2500733 C9.60560797,54.867311 9.2391255,54.7514401 8.68022342,54.6248393 C7.14513807,54.2771165 6.0038629,54.6344236 4.35000137,56.3404125 C3.34090119,57.3813181 1.67904312,57.4071016 0.638137487,56.3980014 C-0.402768148,55.3889012 -0.428551559,53.7270431 0.580548625,52.6861375 C3.4018012,49.7759629 6.3083765,48.8045596 9.53647102,49.4402616 L9.84005405,49.5045568 C10.8282644,49.7284032 11.3435094,49.8950538 12.7614397,50.494746 L14.2299595,51.1262529 C16.6290672,52.1665027 17.9880575,52.565525 19.583775,52.565525 C21.3384392,52.565525 22.4865752,52.2376296 24.4447782,51.2554546 L25.4494973,50.7354162 C28.7764528,48.9898578 30.83902,48.304275 34.182275,48.304275 C36.201953,48.304275 38.0305522,48.7663527 40.2917028,49.7014695 L40.9816366,49.9952435 L42.0905375,50.4921718 L42.7037912,50.7720944 L43.4491861,51.1071733 C46.0746781,52.2682845 47.622069,52.7248866 49.451815,52.7639969 L49.715275,52.766775 L49.715275,52.766775 C51.6619075,52.766775 53.2273999,52.3238997 55.9777169,51.1073084 L57.6755479,50.3381258 C57.9516566,50.2132207 58.1966102,50.1039315 58.4295027,50.0021271 L58.6590821,49.9025163 C61.1453446,48.8321136 63.0856556,48.304275 65.246525,48.304275 C68.443774,48.304275 70.4693261,48.9314765 73.5509044,50.5137544 L74.3345692,50.9226797 C76.7053231,52.1649305 77.9036292,52.565525 79.843275,52.565525 C81.357552,52.565525 82.6587002,52.2055999 84.8426551,51.2775091 L86.8551097,50.4141082 C88.0597993,49.9091779 88.5820104,49.7380823 89.4359481,49.5390909 L89.5736849,49.5073867 C92.9296913,48.7436097 95.9347751,49.6807494 98.8494782,52.6855979 C99.8588763,53.7262146 99.8335687,55.38808 98.7929521,56.3974782 C97.7523354,57.4068763 96.09047,57.3815687 95.0810718,56.3409521 C93.4901403,54.7008164 92.3722432,54.3064385 90.9218104,54.5878354 L90.5586417,54.6688308 C90.0044563,54.8040382 89.5721349,54.9613367 88.3891373,55.4662365 L87.2833329,55.9429901 C84.2718999,57.2486184 82.3417568,57.815525 79.843275,57.815525 C77.0067505,57.815525 75.1310642,57.2315842 72.3078439,55.7854384 L71.538488,55.3843297 C68.8975926,53.9985781 67.5611861,53.554275 65.246525,53.554275 C64.0188009,53.554275 62.7878072,53.868278 61.082621,54.5774746 L60.2838855,54.9210065 L58.901515,55.548882 C55.0335548,57.3128628 52.7928596,58.016775 49.715275,58.016775 C46.754696,58.016775 44.5671188,57.3656155 40.9648936,55.7477587 Z" fill="#00B077"></path>
    </g>
</svg>