<?xml version="1.0" encoding="UTF-8"?>
<svg width="100px" height="100px" viewBox="0 0 100 100" version="1.1" xmlns="http://www.w3.org/2000/svg" xmlns:xlink="http://www.w3.org/1999/xlink">
    <!-- Generator: Sketch 63.1 (92452) - https://sketch.com -->
    <title>Burrito</title>
    <desc>Created with Sketch.</desc>
    <defs>
        <path d="M63.030853,1.45907643 C68.0937741,2.94403377 71.0639525,7.57289733 72.5470911,14.1189991 C73.0348024,16.2716019 73.3292969,18.4567896 73.4797449,20.548466 L74.9211466,19.1612426 C76.5311072,17.6145708 79.2094925,18.7555792 79.2094925,20.988104 L79.2094925,20.988104 L79.2094925,84.919874 C79.2094925,92.921727 72.6730455,99.458174 64.6711925,99.458174 L64.6711925,99.458174 L35.3258275,99.458174 C27.3239745,99.458174 20.7875275,92.921727 20.7875275,84.919874 L20.7875275,84.919874 L20.7875275,72.246024 C20.7875275,71.5565354 21.0685644,70.8968337 21.5657816,70.4191626 L21.5657816,70.4191626 L68.5208415,25.31 L68.5334197,24.7669326 C68.5789348,21.885711 68.3380571,18.4708052 67.6057317,15.238554 C66.4860946,10.2968322 64.4750225,7.16268424 61.604788,6.32084299 C58.85871,5.51529669 56.3088627,6.85644545 53.9163947,9.8973817 C53.1891371,10.8217593 52.5461902,11.8245025 52.000548,12.8272553 C51.8577785,13.0896296 51.7300835,13.3367526 51.6178816,13.5645437 L51.4326143,13.9530145 C51.4005506,14.0227775 51.3791141,14.0712689 51.3684796,14.0964192 C50.6129427,15.8832363 48.2115735,16.1924767 47.0279931,14.6553727 L46.9422453,14.5489719 C46.8343706,14.4192365 46.6607114,14.2215968 46.4266281,13.9749493 C45.8887149,13.4081641 45.2664338,12.8384678 44.5753921,12.3098117 C41.9143123,10.2740505 39.1328734,9.46843423 36.3200693,10.4070897 C34.2798155,11.0885 32.9798994,13.5045592 32.4786515,17.3986406 C32.1775971,19.7374629 32.2056222,22.2875854 32.4371211,24.7008642 L32.4961452,25.2689842 C32.5162102,25.4476685 32.5365453,25.6153787 32.5567896,25.7712592 L32.6056511,26.122848 L32.6078415,26.147 L45.7034981,38.2939961 C46.7292822,39.2454455 46.7895424,40.84831 45.8380929,41.8740941 C44.9280108,42.8552789 43.4219271,42.9530732 42.3949645,42.1270573 L42.2579949,42.0086889 L25.853,26.792 L25.8534415,59.2530125 C25.8534415,60.5961513 24.8081655,61.6951529 23.4867067,61.780924 L23.3201415,61.7863125 C21.9770027,61.7863125 20.8780011,60.7410365 20.79223,59.4195777 L20.7868415,59.2530125 L20.7868415,20.9879325 C20.7868415,18.8305516 23.2946588,17.6835179 24.9225074,19.0252654 L25.0428931,19.1305861 L27.1906461,21.1222098 C27.1886069,19.6549541 27.2690319,18.1849791 27.4535111,16.7518021 C28.1761729,11.1376072 30.3749164,7.05096301 34.7156542,5.60123001 C39.3718694,4.04741318 43.7842874,5.32542648 47.653879,8.28571508 C47.8640281,8.4464819 48.0665428,8.60729272 48.2613008,8.76732707 L48.428,8.90710259 L48.4823026,8.8203305 C48.8152949,8.2956311 49.1706731,7.7765175 49.5487673,7.26857727 L49.9344458,6.76456844 C53.4667237,2.27488183 57.886735,-0.0499212161 63.030853,1.45907643 Z M74.142,26.934 L25.854,73.324 L25.854,84.919874 C25.854,90.033803 29.976275,94.2441216 35.0575248,94.3877848 L35.0575248,94.3877848 L35.3258275,94.391574 L64.6711925,94.391574 C69.8748395,94.391574 74.1428925,90.123521 74.1428925,84.919874 L74.1428925,84.919874 L74.142,26.934 Z M59.3027195,12.42339 C60.7012158,12.4645871 61.8015242,13.6316893 61.760327,15.0301855 L61.7432627,15.373963 C61.7134565,15.8186694 61.647299,16.4124485 61.5268462,17.1170642 C61.2702769,18.6179232 60.842614,20.1230348 60.1933193,21.5534245 C58.51846,25.243123 55.6593202,27.802209 51.4943768,28.440864 C47.5908855,29.0384329 44.0006707,27.2464605 40.774178,24.0493498 C39.8467237,23.1303414 39.0148724,22.1537887 38.2848103,21.1763505 L38.0076686,20.7987284 C37.706249,20.3803893 37.4819996,20.0423853 37.339921,19.8116541 C36.6063169,18.6203044 36.9773931,17.059821 38.1687429,16.326217 C39.310453,15.6231798 40.7911765,15.934684 41.5582594,17.010413 L41.8716051,17.4861124 C41.9926444,17.6630401 42.1510297,17.8859292 42.3440958,18.1444143 C42.9327503,18.9325301 43.6048407,19.7215312 44.3403807,20.4503731 C46.5423688,22.6323088 48.7517903,23.7350902 50.7270606,23.4327045 C53.0249936,23.080338 54.5595122,21.7068603 55.5797849,19.4592097 C56.0328295,18.4611569 56.3444721,17.3643659 56.5326936,16.2633223 C56.6447001,15.6081151 56.6889833,15.1166088 56.695924,14.8809975 C56.7371211,13.4825012 57.9042233,12.3821928 59.3027195,12.42339 Z" id="path-1"></path>
    </defs>
    <g id="Burrito" stroke="none" stroke-width="1" fill="none" fill-rule="evenodd">
        <mask id="mask-2" fill="white">
            <use xlink:href="#path-1"></use>
        </mask>
        <use fill="#00B077" xlink:href="#path-1"></use>
    </g>
</svg>