<?xml version="1.0" encoding="UTF-8"?>
<svg width="100px" height="100px" viewBox="0 0 100 100" version="1.1" xmlns="http://www.w3.org/2000/svg" xmlns:xlink="http://www.w3.org/1999/xlink">
    <!-- Generator: Sketch 63.1 (92452) - https://sketch.com -->
    <title>Butterfly</title>
    <desc>Created with Sketch.</desc>
    <g id="Butterfly" stroke="none" stroke-width="1" fill="none" fill-rule="evenodd">
        <path d="M73.1825699,2.79447247 C74.2125829,3.79100397 74.239725,5.43384289 73.2431935,6.4638559 C71.8505526,7.90328681 70.5365445,9.4207222 69.2991857,11.0071153 C66.6519456,14.401089 64.4385793,17.9899698 62.6258618,21.6211675 L62.392,22.096 L62.6591959,21.9388078 C67.8303297,18.9379337 73.2446835,17.7519746 78.542969,18.3756086 L78.9722983,18.4301389 C86.4291154,19.4467575 92.9682293,24.0584813 96.5795376,30.5855951 C100.319984,37.3461134 100.46229,45.2830937 96.5302329,52.175907 C92.9276135,58.4912227 86.2071721,63.5521397 76.5720205,66.9081405 L76.189,67.039 L76.4841249,67.240515 C85.828346,73.689709 88.3813659,83.4524305 83.4056334,91.2560002 L83.2225077,91.5371946 C76.9945829,100.902887 64.1222191,100.804411 54.0585376,89.2441905 C53.1175138,88.1632298 53.2309549,86.5240875 54.3119155,85.5830636 C55.3928762,84.6420398 57.0320185,84.7554809 57.9730424,85.8364415 C65.9017751,94.9442316 74.6795392,95.0113834 78.9007898,88.6633724 C83.1993362,82.1991221 79.8549408,73.5126075 68.3313157,68.7084017 C66.0124393,67.7416608 66.2833932,64.3729119 68.7269732,63.789223 C80.6632107,60.9380586 88.426199,55.9079016 92.0221665,49.6042466 C95.0320964,44.3279031 94.9242761,38.3143566 92.0382774,33.0981744 C89.2076989,27.9821595 84.0776535,24.3641842 78.2712098,23.5725678 C71.6833009,22.674411 64.6970268,25.3663609 58.2734864,32.0055936 C56.4529406,33.8872704 53.3461872,32.1947535 53.8628039,29.6946098 L53.8990026,29.5405542 C53.9899392,29.1951245 54.1618332,28.6140939 54.4227585,27.8277091 L54.5037151,27.5856633 C55.0057525,26.0962677 55.6378648,24.4436911 56.4111001,22.6681737 C58.6154135,17.6065878 61.5159677,12.5471181 65.2068239,7.81514486 C66.5554652,6.08607864 67.9899899,4.42946911 69.5131865,2.8550961 C70.509718,1.82508309 72.1525569,1.79794096 73.1825699,2.79447247 Z M69.7362464,77.8191 C71.6483153,77.8191 73.197631,79.367796 73.197631,81.283252 C73.197631,83.190404 71.6483153,84.7391 69.7362464,84.7391 C67.8269467,84.7391 66.277631,83.190404 66.277631,81.283252 C66.277631,79.367796 67.8269467,77.8191 69.7362464,77.8191 Z M50.126351,48.248729 C51.5044077,48.248729 52.6315787,49.3228979 52.7162457,50.6796171 L52.721351,50.843729 L52.721351,79.255519 C52.721351,80.6886979 51.5595299,81.850519 50.126351,81.850519 C48.7482943,81.850519 47.6211233,80.7763501 47.5364563,79.4196309 L47.531351,79.255519 L47.531351,50.843729 C47.531351,49.4105501 48.6931721,48.248729 50.126351,48.248729 Z M76.194856,31.70422 C81.8428216,31.70422 86.419156,36.2798376 86.419156,41.92852 C86.419156,47.5723087 81.8407962,52.15282 76.194856,52.15282 C70.5487206,52.15282 65.982666,47.5738609 65.982666,41.92852 C65.982666,36.2782882 70.5467018,31.70422 76.194856,31.70422 Z M50.4379236,36.87 C52.3482256,36.87 53.9,38.414544 53.9,40.332768 C53.9,42.241304 52.3482256,43.79 50.4379236,43.79 C48.5290058,43.79 46.98,42.241304 46.98,40.332768 C46.98,38.414544 48.5290058,36.87 50.4379236,36.87 Z M30.7380962,2.85523845 C32.2610599,4.42961117 33.6953738,6.08621916 35.0438256,7.81528279 C38.7341567,12.5472406 41.6343683,17.6066868 43.8384872,22.668246 C44.5257457,24.2464727 45.101518,25.7275607 45.5735603,27.0832481 L45.745729,27.5856975 C46.0524047,28.4955546 46.2503851,29.1605929 46.3504124,29.5405542 C47.0305697,32.1241825 43.8336284,33.925672 41.9759286,32.0055936 C35.5523854,25.366358 28.5663018,22.6744163 21.9787338,23.5725657 C16.1726189,24.3641718 11.0429672,27.9821022 8.21270673,33.0980744 C5.32700778,38.3142571 5.21940524,44.3278398 8.22942576,49.604225 C11.8254879,55.9079061 19.5883452,60.9380653 31.5241901,63.7892274 C33.9677292,64.3729252 34.2387013,67.7416049 31.9198801,68.7083805 C20.3969937,73.5125653 17.0526788,82.1991506 21.3508523,88.6634695 C25.5716064,95.0113522 34.3483488,94.9442024 42.2762999,85.8365251 C43.2172776,84.7555243 44.8564151,84.6420132 45.9374159,85.5829909 C47.0184167,86.5239686 47.1319278,88.1631061 46.1909501,89.2441069 C36.1280383,100.80444 23.2564091,100.902919 17.0290052,91.5370975 C11.8101334,83.6880769 14.3110521,73.7674061 23.7673237,67.2405314 L24.062,67.039 L23.6793023,66.9081353 C14.2333363,63.6179382 7.58873438,58.689034 3.93690108,52.5459662 L3.72138393,52.1759285 C-0.210737615,45.2831556 -0.0687198766,37.3462109 3.67133577,30.5856951 C7.28229296,24.0585373 13.8210483,19.4467697 21.2776153,18.4301409 C26.712183,17.6891917 32.2794715,18.8568279 37.5902852,21.9388078 L37.857,22.096 L37.6237879,21.621078 C35.9407083,18.2492334 33.9122451,14.9138787 31.5118103,11.7371878 L30.9512487,11.0069773 C29.7140599,9.42058169 28.4002423,7.90314476 27.0078138,6.46371355 C26.0113609,5.43362448 26.0386284,3.79078764 27.0687175,2.79433475 C28.0988065,1.79788187 29.7416434,1.82514938 30.7380962,2.85523845 Z M76.194856,36.89422 C78.9766457,36.89422 81.229156,39.1463775 81.229156,41.92852 C81.229156,44.7064965 78.9738923,46.96282 76.194856,46.96282 C73.4183625,46.96282 71.172666,44.7107768 71.172666,41.92852 C71.172666,39.1420981 73.4156138,36.89422 76.194856,36.89422 Z M25.325244,81.283252 C25.325244,83.190404 26.8773288,84.7391 28.7866286,84.7391 C30.6959283,84.7391 32.245244,83.190404 32.245244,81.283252 C32.245244,79.367796 30.6959283,77.8191 28.7866286,77.8191 C26.8773288,77.8191 25.325244,79.367796 25.325244,81.283252 M24.054559,36.89422 C26.8353553,36.89422 29.078479,39.1419215 29.078479,41.92852 C29.078479,44.7109536 26.8326063,46.96282 24.054559,46.96282 C21.2765644,46.96282 19.020259,44.7058079 19.020259,41.92852 C19.020259,39.1470658 21.2738107,36.89422 24.054559,36.89422 Z M24.054559,31.70422 C18.4078168,31.70422 13.830259,36.2803439 13.830259,41.92852 C13.830259,47.5718019 18.4098426,52.15282 24.054559,52.15282 C29.7020652,52.15282 34.268479,47.5742195 34.268479,41.92852 C34.268479,36.2779297 29.7040844,31.70422 24.054559,31.70422 Z" fill="#00B077"></path>
    </g>
</svg>