<?xml version="1.0" encoding="UTF-8"?>
<svg width="100px" height="100px" viewBox="0 0 100 100" version="1.1" xmlns="http://www.w3.org/2000/svg" xmlns:xlink="http://www.w3.org/1999/xlink">
    <!-- Generator: Sketch 63.1 (92452) - https://sketch.com -->
    <title>CSS</title>
    <desc>Created with Sketch.</desc>
    <g id="CSS" stroke="none" stroke-width="1" fill="none" fill-rule="evenodd">
        <path d="M39.803,10.267 L17.189,33.083 L39.803,33.083 L39.803,10.267 Z M32.3623369,56.8237754 C35.8623394,56.8213594 38.8383706,58.3277542 40.5024316,61.2509159 C41.207359,62.4892221 40.7749702,64.0645241 39.5366641,64.7694516 C38.349954,65.4450071 36.853746,65.0760481 36.1106902,63.9542509 L36.0181284,63.8036841 C35.3337711,62.6015123 34.1109917,61.982571 32.36412,61.9837777 C29.5464804,61.9837777 27.99704,63.5289803 27.99704,67.14378 C27.99704,70.755999 29.5473419,72.30206 32.36412,72.30206 C33.941481,72.30206 35.0888026,71.7987886 35.7942469,70.8306448 L35.9141477,70.6549781 C36.6813164,69.4542379 38.2766218,69.1027589 39.4773619,69.8699277 C40.6781021,70.6370964 41.0295811,72.2324018 40.2624123,73.4331419 C38.5560834,76.1038158 35.6961585,77.46206 32.36412,77.46206 C26.7007119,77.46206 22.83704,73.6089572 22.83704,67.14378 C22.83704,60.6760226 26.6998499,56.8237754 32.3623369,56.8237754 Z M64.0759854,58.434242 C67.1686831,55.7773109 72.0889353,56.6048473 74.8537169,59.4011445 C75.8555435,60.4143909 75.8462859,62.0479303 74.8330395,63.0497569 C73.8638473,64.0080258 72.3271281,64.0412196 71.3185798,63.1555478 L71.1844271,63.0290795 C70.15821,61.9911646 68.2313318,61.6670832 67.4385707,62.3481428 C66.7283965,62.9583104 66.8851062,63.6460751 69.0682284,64.3868394 L69.2858632,64.4586909 C74.7945274,66.2272733 77.1488488,69.0088726 75.8667614,73.2729573 C74.4519228,77.984875 67.8865025,78.6867445 62.245119,75.5556718 C60.999253,74.8641931 60.5498334,73.2936649 61.2413122,72.047799 C61.9327909,70.801933 63.5033191,70.3525134 64.749185,71.0439922 C66.5024008,72.0170595 68.2611229,72.4204413 69.6182924,72.2753545 C70.5005313,72.1810397 70.8816625,71.9324988 70.925017,71.7881133 L70.9691687,71.6242548 C71.1727063,70.7515406 70.6911511,70.3292805 67.7076597,69.3714165 C61.6403864,67.4211434 60.1406345,61.815417 64.0759854,58.434242 Z M82.866932,1.42 C84.237023,1.42 85.3576786,2.48795982 85.4418562,3.83683674 L85.446932,4 L85.4460054,46.768 L88.02676,46.768144 C89.396851,46.768144 90.5175066,47.8361038 90.6016842,49.1849807 L90.60676,49.348144 L90.60676,84.933224 C90.60676,86.303315 89.5388002,87.4239706 88.1899233,87.5081482 L88.02676,87.513224 L13.5790054,87.513 L13.58,94.299 L80.287,94.299 L80.287104,93.29896 C80.287104,91.928869 81.3550638,90.8082134 82.7039407,90.7240358 L82.867104,90.71896 C84.237195,90.71896 85.3578506,91.7869198 85.4420282,93.1357967 L85.447104,93.29896 L85.447104,96.88 C85.447104,98.250091 84.3791442,99.3707466 83.0302673,99.4549242 L82.867104,99.46 L11.000344,99.46 C9.63025299,99.46 8.50959735,98.3920402 8.42541984,97.0431633 L8.420344,96.88 L8.42014042,84.9604246 C8.42004688,84.9513689 8.42,84.9423019 8.42,84.933224 L8.42000541,84.905 L8.42000541,49.375 L8.42,49.348144 L8.42000541,49.32 L8.420344,44.68316 C8.420344,43.2582653 9.57544935,42.10316 11.000344,42.10316 C12.370435,42.10316 13.4910906,43.1711198 13.5752682,44.5199967 L13.580344,44.68316 L13.5800054,46.768 L80.2860054,46.768 L80.286,6.579 L44.963,6.579 L44.963292,35.66348 C44.963292,37.033571 43.8953322,38.1542266 42.5464553,38.2384042 L42.383292,38.24348 L11.000172,38.24348 C8.76049081,38.24348 7.60783934,35.6030991 9.05959543,33.9626969 L9.16774204,33.847275 L40.554,2.179 L40.6851689,2.05749055 L40.8260094,1.94258494 L40.9727662,1.83908094 L41.1248218,1.74698132 L41.3083599,1.65390699 C41.4018562,1.61099872 41.4983592,1.57351501 41.597466,1.54185884 L41.7736844,1.49268142 L41.942973,1.45764482 L42.1138559,1.43402906 L42.2857158,1.42183689 L42.383292,1.42 L82.866932,1.42 Z M13.5790054,82.353 L85.446,82.353 L85.446,51.928 L13.5800054,51.928 L13.5790054,82.353 Z M57.3496209,59.4011445 C58.3514475,60.4143909 58.3421899,62.0479303 57.3289435,63.0497569 C56.3597513,64.0080258 54.8230321,64.0412196 53.8144838,63.1555478 L53.6803311,63.0290795 C52.654114,61.9911646 50.7272358,61.6670832 49.9344747,62.3481428 C49.2243005,62.9583104 49.3810102,63.6460751 51.5641324,64.3868394 L51.7817672,64.4586909 C57.2904314,66.2272733 59.6447528,69.0088726 58.3626654,73.2729573 C56.9478268,77.984875 50.3824065,78.6867445 44.741023,75.5556718 C43.495157,74.8641931 43.0457374,73.2936649 43.7372162,72.047799 C44.4286949,70.801933 45.9992231,70.3525134 47.245089,71.0439922 C48.9983048,72.0170595 50.7570269,72.4204413 52.1141964,72.2753545 C52.9964353,72.1810397 53.3775665,71.9324988 53.420921,71.7881133 L53.4650727,71.6242548 C53.6686103,70.7515406 53.1870551,70.3292805 50.2035637,69.3714165 C44.1362904,67.4211434 42.6365385,61.815417 46.5718894,58.434242 C49.6645871,55.7773109 54.5848393,56.6048473 57.3496209,59.4011445 Z" fill="#00B077"></path>
    </g>
</svg>