<?xml version="1.0" encoding="UTF-8"?>
<svg width="100px" height="100px" viewBox="0 0 100 100" version="1.1" xmlns="http://www.w3.org/2000/svg" xmlns:xlink="http://www.w3.org/1999/xlink">
    <!-- Generator: Sketch 63.1 (92452) - https://sketch.com -->
    <title>Cake</title>
    <desc>Created with Sketch.</desc>
    <g id="Cake" stroke="none" stroke-width="1" fill="none" fill-rule="evenodd">
        <path d="M75.287471,42.259974 C76.6655277,42.259974 77.7926987,43.3341429 77.8773657,44.6908621 L77.882471,44.854974 L77.881753,52.263387 L90.440541,52.263872 C91.8185977,52.263872 92.9457687,53.3380409 93.0304357,54.6947601 L93.035541,54.858872 L93.0360932,63.4093043 C93.0366466,63.4313543 93.036925,63.4534726 93.036925,63.475656 L93.034753,63.617387 L93.035541,82.625372 C93.035541,84.0585509 91.8737199,85.220372 90.440541,85.220372 C89.0624843,85.220372 87.9353133,84.1462031 87.8506463,82.7894839 L87.845541,82.625372 L87.845135,72.6211558 C86.2493807,73.5753755 84.3830745,74.123806 82.388775,74.123806 C79.2594814,74.123806 76.4447648,72.7727913 74.4962776,70.6224141 L74.336,70.441 L74.175824,70.6228207 C72.286733,72.7079216 69.5828542,74.0412097 66.5661885,74.1201003 L66.282475,74.123806 C63.1532652,74.123806 60.3390333,72.7728359 58.3909812,70.6224768 L58.23,70.44 L58.0708282,70.6226174 C56.1815616,72.707775 53.4776381,74.041201 50.4615614,74.1200999 L50.177905,74.123806 C47.0486114,74.123806 44.2338948,72.7727913 42.2854076,70.6224141 L42.124,70.44 L41.9641024,70.6224141 C40.0746603,72.7076283 37.3706921,74.0411923 34.3552043,74.1200995 L34.071605,74.123806 C30.9409302,74.123806 28.1258126,72.7730363 26.1772524,70.622758 L26.016,70.441 L25.8567988,70.6224768 C23.9677786,72.7076735 21.264279,74.041195 18.2488956,74.1200997 L17.965305,74.123806 C15.9689071,74.123806 14.100772,73.5742208 12.5039088,72.6181424 L12.503753,88.043387 L96.883753,88.043732 C98.3169319,88.043732 99.478753,89.2055531 99.478753,90.638732 C99.478753,92.0167887 98.4045841,93.1439597 97.0478649,93.2286267 L96.883753,93.233732 L3.463753,93.233732 C2.03057407,93.233732 0.868753,92.0719109 0.868753,90.638732 C0.868753,89.2606753 1.94292189,88.1335043 3.29964112,88.0488373 L3.463753,88.043732 L7.313753,88.043387 L7.314041,54.858872 C7.314041,53.4808153 8.38820989,52.3536443 9.74492912,52.2689773 L9.909041,52.263872 L22.464753,52.263387 L22.465035,44.854974 C22.465035,43.4217951 23.6268561,42.259974 25.060035,42.259974 C26.4380917,42.259974 27.5652627,43.3341429 27.6499297,44.6908621 L27.655035,44.854974 L27.654753,52.263387 L72.691753,52.263387 L72.692471,44.854974 C72.692471,43.4217951 73.8542921,42.259974 75.287471,42.259974 Z M25.002753,57.452387 L12.504,57.453 L12.503753,63.377387 L12.507155,63.475656 C12.507155,66.4892608 14.9513375,68.933806 17.965305,68.933806 C20.9042502,68.933806 23.3021673,66.60688 23.4173905,63.6951082 L23.4269986,63.2869934 C23.6086736,60.0785435 28.4247764,60.0785435 28.6064514,63.2869934 L28.6160602,63.6951335 C28.728421,66.5344229 31.0111482,68.817111 33.852004,68.9294709 L34.071605,68.933806 C37.0110402,68.933806 39.4101378,66.6064019 39.5254184,63.6950733 L39.5350286,63.2869934 C39.7167036,60.0785435 44.5328064,60.0785435 44.7144814,63.2869934 L44.7240916,63.6950733 C44.8364902,66.5336187 47.1199423,68.8170708 49.9584877,68.9294694 L50.177905,68.933806 C53.1183611,68.933806 55.5164876,66.6070527 55.6317202,63.6951209 L55.6413286,63.2869934 C55.8230036,60.0785435 60.6391064,60.0785435 60.8207814,63.2869934 L60.8303895,63.6951082 C60.9427321,66.5340857 63.2250606,68.8170942 66.0630958,68.9294702 L66.282475,68.933806 C69.2239519,68.933806 71.6211074,66.6077036 71.736292,63.6951685 L71.7458986,63.2869934 C71.9275736,60.0785435 76.7436764,60.0785435 76.9253514,63.2869934 L76.9349616,63.6950733 C77.0473602,66.5336187 79.3308123,68.8170708 82.1693577,68.9294694 L82.388775,68.933806 C85.3732036,68.933806 87.7989611,66.5369422 87.8462225,63.5640961 L87.845,57.453 L75.3538227,57.4537322 C75.3317727,57.4542856 75.3096544,57.454564 75.287471,57.454564 L75.229753,57.452387 L25.1263867,57.4537322 C25.1043367,57.4542856 25.0822184,57.454564 25.060035,57.454564 L25.002753,57.452387 Z M62.86486,7.293387 C64.2429167,7.293387 65.3700877,8.36755589 65.4547547,9.72427512 L65.45986,9.888387 L65.459753,18.589387 L78.217053,18.589595 C79.5951097,18.589595 80.7222807,19.6637639 80.8069477,21.0204831 L80.812053,21.184595 L80.812053,30.152915 C80.812053,35.4575993 76.5122467,39.759605 71.208823,39.759605 C68.4635572,39.759605 65.9875979,38.6089464 64.2368168,36.7637404 L64.2368168,36.7637404 L64.195,36.719 L64.1554163,36.7635077 C62.4639099,38.5472764 60.0951297,39.6821121 57.4606376,39.7557858 L57.4606376,39.7557858 L57.187173,39.759605 C54.4426124,39.759605 51.9670916,38.6088484 50.2165696,36.7635984 L50.2165696,36.7635984 L50.175,36.719 L49.9193763,36.9831563 C48.2442938,38.6400625 45.9627808,39.6851858 43.4373354,39.755786 L43.4373354,39.755786 L43.163793,39.759605 C40.4199376,39.759605 37.9448553,38.6087503 36.1945924,36.7634564 L36.1945924,36.7634564 L36.153,36.719 L35.89798,36.9826977 C34.2232591,38.6397536 31.9425662,39.6851649 29.4189446,39.755785 L29.4189446,39.755785 L29.145603,39.759605 C24.0297646,39.759605 19.535453,34.9499031 19.535453,30.152915 L19.535453,30.152915 L19.535453,21.184595 C19.535453,19.7514161 20.6972741,18.589595 22.130453,18.589595 L22.130453,18.589595 L34.886753,18.589387 L34.887646,9.888387 C34.887646,8.45520807 36.0494671,7.293387 37.482646,7.293387 C38.8607027,7.293387 39.9878737,8.36755589 40.0725407,9.72427512 L40.077646,9.888387 L40.076753,18.589387 L47.579753,18.589387 L47.580483,9.888387 C47.580483,8.45520807 48.7423041,7.293387 50.175483,7.293387 C51.5535397,7.293387 52.6807107,8.36755589 52.7653777,9.72427512 L52.770483,9.888387 L52.769753,18.589387 L60.269753,18.589387 L60.26986,9.888387 C60.26986,8.45520807 61.4316811,7.293387 62.86486,7.293387 Z M24.725,23.779 L75.622053,23.779 L75.622053,30.152915 C75.622053,32.5918354 73.6452946,34.569605 71.208823,34.569605 C68.8394656,34.569605 66.9071139,32.7069403 66.7954958,30.3669205 L66.790403,30.152915 C66.790403,26.7569891 61.7908454,26.6941016 61.6056766,29.9642524 L61.600403,30.152915 C61.600403,32.5925323 59.624678,34.569605 57.187173,34.569605 C54.8193312,34.569605 52.8871828,32.7067816 52.7755753,30.3669065 L52.770483,30.152915 C52.770483,26.7569891 47.7709254,26.6941016 47.5857566,29.9642524 L47.580483,30.152915 C47.580483,32.5921726 45.6033876,34.569605 43.163793,34.569605 C40.7974667,34.569605 38.8655217,32.7066228 38.7539249,30.3668925 L38.748833,30.152915 C38.748833,26.7569891 33.7492754,26.6941016 33.5641066,29.9642524 L33.558833,30.152915 C33.558833,32.5911388 31.5810411,34.569605 29.145603,34.569605 L28.9541617,34.5634214 C26.8472049,34.4281694 24.725,32.1002481 24.725,30.152915 L24.725,23.779 Z" fill="#00B077"></path>
    </g>
</svg>