<?xml version="1.0" encoding="UTF-8"?>
<svg width="100px" height="100px" viewBox="0 0 100 100" version="1.1" xmlns="http://www.w3.org/2000/svg" xmlns:xlink="http://www.w3.org/1999/xlink">
    <!-- Generator: Sketch 63.1 (92452) - https://sketch.com -->
    <title>Camera</title>
    <desc>Created with Sketch.</desc>
    <g id="Camera" stroke="none" stroke-width="1" fill="none" fill-rule="evenodd">
        <path d="M96.961317,17.393787 C98.3944959,17.393787 99.556317,18.5556081 99.556317,19.988787 C99.556317,21.3668437 98.4821481,22.4940147 97.1254289,22.5786817 L96.961317,22.583787 L6.136,22.583 L6.136,87.963 L94.366,87.963 L94.366317,29.164707 C94.366317,27.7866503 95.4404859,26.6594793 96.7972051,26.5748123 L96.961317,26.569707 C98.3393737,26.569707 99.4665447,27.6438759 99.5512117,29.0005951 L99.556317,29.164707 L99.556317,90.558947 C99.556317,91.9370037 98.4821481,93.0641747 97.1254289,93.1488417 L96.961317,93.153947 L3.541317,93.153947 C2.16326034,93.153947 1.03608927,92.0797781 0.951422347,90.7230589 L0.946317,90.558947 L0.946317,19.988787 C0.946317,18.6107303 2.02048589,17.4835593 3.37720512,17.3988923 L3.541317,17.393787 L96.961317,17.393787 Z M41.612216,32.524021 C29.047132,32.524021 18.859256,42.7088773 18.859256,55.270061 C18.859256,67.8378628 29.0450995,78.021291 41.612216,78.021291 C54.1759537,78.021291 64.358256,67.837781 64.358256,55.270061 C64.358256,42.708959 54.1739219,32.524021 41.612216,32.524021 Z M41.612216,37.714021 C51.3074952,37.714021 59.168256,45.575248 59.168256,55.270061 C59.168256,64.9715609 51.309458,72.831291 41.612216,72.831291 C31.9111819,72.831291 24.049256,64.9712294 24.049256,55.270061 C24.049256,45.5755796 31.9131455,37.714021 41.612216,37.714021 Z M22.646053,8.489131 C24.0792319,8.489131 25.241053,9.65095207 25.241053,11.084131 C25.241053,12.4621877 24.1668841,13.5893587 22.8101649,13.6740257 L22.646053,13.679131 L12.968433,13.679131 C11.5352541,13.679131 10.373433,12.5173099 10.373433,11.084131 C10.373433,9.70607434 11.4476019,8.57890327 12.8043211,8.49423635 L12.968433,8.489131 L22.646053,8.489131 Z M81.863088,31.261294 C83.2962669,31.261294 84.458088,32.4231151 84.458088,33.856294 C84.458088,35.2343507 83.3839191,36.3615217 82.0271999,36.4461887 L81.863088,36.451294 L72.187198,36.451294 C70.7540191,36.451294 69.592198,35.2894729 69.592198,33.856294 C69.592198,32.4782373 70.6663669,31.3510663 72.0230861,31.2663993 L72.187198,31.261294 L81.863088,31.261294 Z" fill="#00B077"></path>
    </g>
</svg>