<?xml version="1.0" encoding="UTF-8"?>
<svg width="100px" height="100px" viewBox="0 0 100 100" version="1.1" xmlns="http://www.w3.org/2000/svg" xmlns:xlink="http://www.w3.org/1999/xlink">
    <!-- Generator: Sketch 63.1 (92452) - https://sketch.com -->
    <title>Candle/50</title>
    <desc>Created with Sketch.</desc>
    <g id="Candle/50" stroke="none" stroke-width="1" fill="none" fill-rule="evenodd">
        <path d="M34.9487503,1.1405344 C35.8936614,0.390221082 37.2310573,0.390173182 38.1760221,1.14041882 C46.473896,7.72843517 48.6393953,14.4631995 46.9988696,20.0626481 C46.8108275,20.7044742 46.6063018,21.1908926 46.4343438,21.5108742 C45.7559132,22.7733059 44.1825335,23.2467324 42.9201018,22.5683018 C41.7081674,21.9170084 41.2233802,20.4409299 41.7867682,19.206967 L41.8626742,19.0540598 C41.8707369,19.0390566 41.9362424,18.8832665 42.0182314,18.6034214 C42.9525327,15.4144605 41.8800732,11.435441 36.8853775,6.85320643 L36.562,6.561 L36.54367,6.57796047 C31.3878561,11.1878082 30.1950966,15.1976619 31.0479164,18.4191106 L31.1004272,18.6076968 L31.1653107,18.8160648 C31.2144406,18.9637943 31.2492418,19.0459385 31.2548664,19.0564308 C31.9319875,20.3195653 31.4569297,21.8924533 30.1937952,22.5695744 C28.9306607,23.2466955 27.3577727,22.7716377 26.6806516,21.5085032 L26.5469419,21.238019 C26.4086906,20.9367566 26.259102,20.5436755 26.1187628,20.0634164 C24.4827213,14.4646668 26.6505737,7.7297603 34.9487503,1.1405344 Z M63.9160433,1.1405344 C64.8609544,0.390221082 66.1983503,0.390173182 67.1433151,1.14041882 C75.441189,7.72843517 77.6066883,14.4631995 75.9661626,20.0626481 C75.7781205,20.7044742 75.5735948,21.1908926 75.4016368,21.5108742 C74.7232062,22.7733059 73.1498265,23.2467324 71.8873948,22.5683018 C70.6754604,21.9170084 70.1906732,20.4409299 70.7540612,19.206967 L70.8299672,19.0540598 C70.8380299,19.0390566 70.9035354,18.8832665 70.9855244,18.6034214 C71.9198257,15.4144605 70.8473662,11.435441 65.8526705,6.85320643 L65.529,6.56 L65.510963,6.57796047 C60.3551491,11.1878082 59.1623896,15.1976619 60.0152094,18.4191106 L60.0677202,18.6076968 L60.1326037,18.8160648 C60.1817336,18.9637943 60.2165348,19.0459385 60.2221594,19.0564308 C60.8992805,20.3195653 60.4242227,21.8924533 59.1610882,22.5695744 C57.8979537,23.2466955 56.3250657,22.7716377 55.6479446,21.5085032 C55.476737,21.1891242 55.2731747,20.7037619 55.0860558,20.0634164 C53.4500143,14.4646668 55.6178667,7.7297603 63.9160433,1.1405344 Z M90.7193686,17.2343623 C91.8492011,15.8799815 93.8630539,15.6979491 95.2174347,16.8277816 C96.5718155,17.9576141 96.7538479,19.9714669 95.6240154,21.3258477 C92.7678857,24.7496182 88.7628423,27.1716804 83.5724444,27.6042136 C81.8147713,27.7506864 80.2711562,26.4445504 80.1246834,24.6868774 C79.9782106,22.9292043 81.2843466,21.3855892 83.0420196,21.2391164 C86.3606765,20.9625617 88.8805097,19.4386849 90.7193686,17.2343623 Z M61.388305,44.695189 C56.5142929,44.695189 53.0353045,47.3478716 51.0606917,51.8634751 C49.597755,55.2089622 48.977285,59.463915 48.977285,64.354909 C48.977285,69.2468418 49.5977338,73.5025268 51.0606165,76.8485498 C53.0351703,81.3649078 56.5141487,84.018089 61.388305,84.018089 C66.2106471,84.018089 69.6737806,81.4215084 71.6606579,76.9891219 C73.1384527,73.6924123 73.7813225,69.4919106 73.8071869,64.6508533 L73.8079658,64.3618184 C73.8079658,59.4637578 73.186867,55.2084453 71.7224944,51.8626888 C69.7462061,47.3473222 66.2649016,44.695189 61.388305,44.695189 Z M61.388305,49.885189 C66.2342737,49.885189 68.5463415,54.9973976 68.6163351,63.9332455 L68.6172331,64.6300798 C68.5689031,73.6742813 66.2586389,78.828089 61.388305,78.828089 C56.5489561,78.828089 54.2388581,73.7145386 54.1689235,64.7766678 L54.167285,64.354909 C54.167285,55.1584731 56.4732214,49.885189 61.388305,49.885189 Z M36.595,17 C37.9730567,17 39.1002277,18.0741689 39.1848947,19.4308881 L39.19,19.595 L39.1893737,29.522767 L46.488161,29.523089 C48.5646333,29.523089 50.5459358,30.1504555 52.2095206,31.2831584 C55.0158314,30.1181516 58.0979113,29.523089 61.388305,29.523089 L61.388305,29.523089 L62.9323737,29.522767 L62.932503,19.885951 C62.932503,18.4527721 64.0943241,17.290951 65.527503,17.290951 C66.9055597,17.290951 68.0327307,18.3651199 68.1173977,19.7218391 L68.122503,19.885951 L68.1223737,29.522767 L72.847825,29.523089 C87.7224578,29.523089 98.343228,41.6824818 98.5541559,63.6851509 L98.557355,64.354909 C98.557355,86.7795073 87.8717662,99.188459 72.847825,99.188459 L72.847825,99.188459 L61.388305,99.188459 C46.3656826,99.188459 35.683965,86.7803287 35.683965,64.354909 C35.683965,60.4501067 36.0077698,56.8491041 36.6219235,53.5644884 L23.924463,53.564899 C22.3736646,53.564899 20.830956,53.6964047 19.3196897,53.9469 C17.7931624,54.1999248 16.3997152,53.0717894 16.3054305,51.5512054 L16.300353,51.386829 L16.300353,47.290189 C16.300353,45.9121323 17.3745219,44.7849613 18.7312411,44.7002943 L18.895353,44.695189 L39.2922354,44.6945448 C41.1186501,40.5360029 43.5821897,37.192971 46.5522541,34.7145846 L46.488161,34.713089 L11.310341,34.713089 C8.62550978,34.713089 6.43721453,36.8300636 6.3239004,39.4859196 L6.319291,39.702409 L6.319291,61.922529 C6.319291,65.3390272 10.2840269,67.6696504 14.7142986,65.7631514 L14.95206,65.6569463 C17.6313282,64.4122985 20.7153269,63.543539 23.925501,63.543539 C30.2311533,63.543539 33.243281,69.0020348 33.243281,74.485789 C33.243281,77.0961326 32.4577258,79.5468435 30.9890433,81.2380533 C29.3430224,83.1351183 26.9540588,84.018089 23.925501,84.018089 C19.4623173,84.018089 15.9305052,82.4354615 13.1359966,80.1487357 L12.8495317,79.9097022 C8.79177108,76.4555754 2.81378196,81.9534966 6.20474765,86.3213393 C9.58537042,90.685075 15.139008,93.8738603 23.4343718,93.9948921 L23.925501,93.998459 L40.685741,93.998459 C42.1189199,93.998459 43.280741,95.1602801 43.280741,96.593459 C43.280741,97.9715157 42.2065721,99.0986867 40.8498529,99.1833537 L40.685741,99.188459 L23.925501,99.188459 C13.6271454,99.188459 6.47210307,95.1409144 2.10354287,89.5019386 C-5.09616885,80.2281226 7.21690862,68.7449047 15.9495508,75.7394989 L16.2130566,75.9571335 C18.1958038,77.643865 20.7272122,78.828089 23.925501,78.828089 C25.562929,78.828089 26.5136858,78.4766854 27.0696901,77.8358821 C27.6554667,77.1613515 28.053281,75.9202828 28.053281,74.485789 C28.053281,71.4871743 26.5337596,68.733539 23.925501,68.733539 C21.7385863,68.733539 19.4924544,69.327769 17.5254186,70.189367 L17.135833,70.3651546 C9.37310151,73.9600578 1.3125244,69.4339477 1.13236785,62.1711758 L1.129291,61.922529 L1.129291,39.702409 C1.129291,34.1730352 5.53629884,29.6752596 11.030076,29.5268697 L11.310341,29.523089 L33.9993737,29.522767 L34,19.595 C34,18.1618211 35.1618211,17 36.595,17 Z M65.4983737,34.712767 L61.388305,34.713089 C58.4675502,34.713089 55.750782,35.3039053 53.312345,36.4836607 C53.1280829,36.6122405 52.9294436,36.7124482 52.7233853,36.7858074 C48.7820501,38.8842227 45.612865,42.5820959 43.5471537,47.868619 C43.4955841,48.1023832 43.4111658,48.323318 43.300094,48.5276658 C42.9481241,49.4884583 42.6328563,50.4998532 42.3546318,51.5612303 L42.3766042,51.4146983 C42.3552297,51.5986716 42.3151047,51.7759041 42.2583601,51.9447086 C41.3578076,55.5249471 40.873965,59.6626015 40.873965,64.354909 C40.873965,84.0722235 49.4191077,93.998459 61.388305,93.998459 L61.388305,93.998459 L72.847825,93.998459 C84.8187338,93.998459 93.367355,84.0711232 93.367355,64.354909 C93.367355,44.637871 84.8198432,34.713089 72.847825,34.713089 L72.847825,34.713089 L65.5546952,34.7136415 C65.5456421,34.7137344 65.536578,34.713781 65.527503,34.713781 L65.4983737,34.712767 Z M11.015549,9.662689 C12.3936057,9.662689 13.5207767,10.7368579 13.6054437,12.0935771 L13.610549,12.257689 L13.6103737,15.559767 L16.911735,15.560432 C18.3449139,15.560432 19.506735,16.7222531 19.506735,18.155432 C19.506735,19.5334887 18.4325661,20.6606597 17.0758469,20.7453267 L16.911735,20.750432 L13.6103737,20.749767 L13.610549,24.054559 C13.610549,25.4877379 12.4487279,26.649559 11.015549,26.649559 C9.63749234,26.649559 8.51032127,25.5753901 8.42565435,24.2186709 L8.420549,24.054559 L8.42037366,20.749767 L5.109675,20.750432 C3.67649607,20.750432 2.514675,19.5886109 2.514675,18.155432 C2.514675,16.7773753 3.58884389,15.6502043 4.94556312,15.5655373 L5.109675,15.560432 L8.42037366,15.559767 L8.420549,12.257689 C8.420549,10.8245101 9.58237007,9.662689 11.015549,9.662689 Z" id="Candle_50" fill="#00B077"></path>
    </g>
</svg>