<?xml version="1.0" encoding="UTF-8"?>
<svg width="100px" height="100px" viewBox="0 0 100 100" version="1.1" xmlns="http://www.w3.org/2000/svg" xmlns:xlink="http://www.w3.org/1999/xlink">
    <!-- Generator: Sketch 63.1 (92452) - https://sketch.com -->
    <title>Candle/5</title>
    <desc>Created with Sketch.</desc>
    <g id="Candle/5" stroke="none" stroke-width="1" fill="none" fill-rule="evenodd">
        <path d="M87.434553,18.214598 C88.8126097,18.214598 89.9397807,19.2887669 90.0244477,20.6454861 L90.029553,20.809598 L90.028807,24.111767 L93.330739,24.112514 C94.7639179,24.112514 95.925739,25.2743351 95.925739,26.707514 C95.925739,28.0855707 94.8515701,29.2127417 93.4948509,29.2974087 L93.330739,29.302514 L90.028807,29.301767 L90.029553,32.606468 C90.029553,34.0396469 88.8677319,35.201468 87.434553,35.201468 C86.0564963,35.201468 84.9293253,34.1272991 84.8446583,32.7705799 L84.839553,32.606468 L84.838807,29.301767 L81.528679,29.302514 C80.0955001,29.302514 78.933679,28.1406929 78.933679,26.707514 C78.933679,25.3294573 80.0078479,24.2022863 81.3645671,24.1176193 L81.528679,24.112514 L84.838807,24.111767 L84.839553,20.809598 C84.839553,19.3764191 86.0013741,18.214598 87.434553,18.214598 Z M52.1695331,1.14041882 C60.467407,7.72843517 62.6329063,14.4631995 60.9923806,20.0626481 C60.8043385,20.7044742 60.5998128,21.1908926 60.4278548,21.5108742 C59.7494242,22.7733059 58.1760445,23.2467324 56.9136128,22.5683018 C55.7016784,21.9170084 55.2168912,20.4409299 55.7802792,19.206967 L55.8561852,19.0540598 C55.8642479,19.0390566 55.9297534,18.8832665 56.0117424,18.6034214 C56.9460437,15.4144605 55.8735842,11.435441 50.8788885,6.85320643 L50.556,6.561 L50.537181,6.57796047 C45.3813671,11.1878082 44.1886076,15.1976619 45.0414274,18.4191106 L45.0939382,18.6076968 L45.1588217,18.8160648 C45.2079516,18.9637943 45.2427528,19.0459385 45.2483774,19.0564308 C45.9254985,20.3195653 45.4504407,21.8924533 44.1873062,22.5695744 C42.9241717,23.2466955 41.3512837,22.7716377 40.6741626,21.5085032 C40.502955,21.1891242 40.2993927,20.7037619 40.1122738,20.0634164 C38.4762323,14.4646668 40.6440847,7.7297603 48.9422613,1.1405344 C49.8871724,0.390221082 51.2245683,0.390173182 52.1695331,1.14041882 Z M50.553721,17.290951 C51.9317777,17.290951 53.0589487,18.3651199 53.1436157,19.7218391 L53.148721,19.885951 L53.147807,29.522767 L69.957055,29.523089 C75.4867179,29.523089 79.9858868,33.9287084 80.1343231,39.4221596 L80.138105,39.702409 C80.138105,45.3245711 75.5796414,49.885189 69.957055,49.885189 L69.957055,49.885189 L69.086,49.885 L69.4206936,50.0152329 C78.7420526,53.7187656 84.8044303,63.2529372 84.9583438,74.0639448 L84.9583438,74.0639448 L84.961345,74.485789 C84.961345,80.8036743 82.8516426,86.7368019 78.9949764,91.1815756 C74.6521527,96.1894194 68.8798736,99.188459 60.694635,99.188459 L60.694635,99.188459 L47.394395,99.188459 C37.0972865,99.188459 29.9403997,95.1401433 25.5721912,89.5016221 C18.3019851,80.1340183 30.9367603,68.5128804 39.6819506,75.9571335 L39.6819506,75.9571335 L39.9224172,76.1569924 C41.8674533,77.7359314 44.3251479,78.828089 47.394395,78.828089 C49.0328561,78.828089 49.9822066,78.4771155 50.5400018,77.8342509 C51.1260898,77.160496 51.523905,75.920395 51.523905,74.485789 C51.523905,71.4882627 50.0031198,68.733539 47.394395,68.733539 C45.0621421,68.733539 42.6667048,69.408438 40.6049603,70.3650465 L40.6049603,70.3650465 L40.3402625,70.4844725 C32.5730801,73.8958055 24.598185,69.2465681 24.598185,61.922529 L24.598185,61.922529 L24.598185,39.702409 C24.598185,34.079317 29.155849,29.523089 34.779235,29.523089 L34.779235,29.523089 L47.957807,29.522767 L47.958721,19.885951 C47.958721,18.4527721 49.1205421,17.290951 50.553721,17.290951 Z M69.957055,34.713089 L34.779235,34.713089 C32.0218408,34.713089 29.788185,36.946041 29.788185,39.702409 L29.788185,39.702409 L29.788185,61.922529 C29.788185,65.3995944 33.8969538,67.7525433 38.4220523,65.6564364 L38.4220523,65.6564364 L38.8492026,65.4629619 C41.4312466,64.3218437 44.3537393,63.543539 47.394395,63.543539 C53.6998608,63.543539 56.713905,69.0031258 56.713905,74.485789 C56.713905,77.0974636 55.9276172,79.5485421 54.4579373,81.2380533 C52.8116739,83.1353978 50.4240765,84.018089 47.394395,84.018089 C42.7785948,84.018089 39.1559654,82.3236094 36.3184257,79.9097022 L36.3184257,79.9097022 L36.1761241,79.7928323 C32.1231888,76.5834982 26.3231501,82.0042555 29.6736417,86.3213393 C33.1199299,90.7698365 38.8277075,93.998459 47.394395,93.998459 L47.394395,93.998459 L60.694635,93.998459 C67.2688561,93.998459 71.6616778,91.7161289 75.0744606,87.7807441 C78.0928419,84.3020861 79.771345,79.5816228 79.771345,74.485789 C79.771345,63.081797 71.8409055,53.564899 60.694635,53.564899 L60.694635,53.564899 L47.394395,53.564899 C45.8425166,53.564899 44.3016112,53.6962848 42.7896217,53.9469 C41.2085755,54.2089614 39.770285,52.9894466 39.770285,51.386829 L39.770285,51.386829 L39.770285,47.290189 C39.770285,45.8570101 40.9321061,44.695189 42.365285,44.695189 L42.365285,44.695189 L69.957055,44.695189 C72.7127344,44.695189 74.948105,42.458762 74.948105,39.702409 C74.948105,36.946041 72.7144492,34.713089 69.957055,34.713089 L69.957055,34.713089 Z M12.064681,27.636697 C13.4427377,27.636697 14.5699087,28.7108659 14.6545757,30.0675851 L14.659681,30.231697 L14.658807,33.533767 L17.960867,33.534613 C19.3940459,33.534613 20.555867,34.6964341 20.555867,36.129613 C20.555867,37.5076697 19.4816981,38.6348407 18.1249789,38.7195077 L17.960867,38.724613 L14.658807,38.723767 L14.659681,42.028567 C14.659681,43.4617459 13.4978599,44.623567 12.064681,44.623567 C10.6866243,44.623567 9.55945327,43.5493981 9.47478635,42.1926789 L9.469681,42.028567 L9.468807,38.723767 L6.158807,38.724613 C4.72562807,38.724613 3.563807,37.5627919 3.563807,36.129613 C3.563807,34.7515563 4.63797589,33.6243853 5.99469512,33.5397183 L6.158807,33.534613 L9.468807,33.533767 L9.469681,30.231697 C9.469681,28.7985181 10.6315021,27.636697 12.064681,27.636697 Z M20.0062707,17.20639 C22.4873094,19.5003113 25.3475322,20.3954102 28.2556376,20.3328804 L28.5789406,20.3220142 C30.0106294,20.2566754 31.22421,21.3643209 31.2895488,22.7960096 C31.3548876,24.2276984 30.2472421,25.441279 28.8155534,25.5066178 C24.5088716,25.7031643 20.1763165,24.4320216 16.4829033,21.017162 C15.4305877,20.0442109 15.36625,18.4024079 16.339201,17.3500923 C17.3121521,16.2977767 18.9539551,16.233439 20.0062707,17.20639 Z M21.4427662,69.5601213 C22.2650352,70.7339507 21.9800391,72.3521082 20.8062097,73.1743772 C17.9419197,75.1808159 16.4617069,77.9051686 15.9559028,80.8932724 C15.7167075,82.3063497 14.3772759,83.2579691 12.9641986,83.0187738 C11.5511213,82.7795785 10.5995019,81.4401469 10.8386972,80.0270696 C11.5594963,75.7688552 13.7119616,71.8072123 17.8285103,68.9235648 C19.0023397,68.1012958 20.6204972,68.3862919 21.4427662,69.5601213 Z M87.38904,50.1015144 C89.9939114,52.4359674 92.9823,53.2597553 96.0121712,53.076743 C97.4427428,52.9903326 98.6724996,54.0799906 98.75891,55.5105622 C98.8453204,56.9411338 97.7556624,58.1708906 96.3250908,58.257301 C92.0113745,58.517861 87.6677251,57.3204779 83.925262,53.9665296 C82.8579676,53.0100337 82.7681475,51.3694275 83.7246434,50.302133 C84.6811393,49.2348386 86.3217455,49.1450185 87.38904,50.1015144 Z" id="Candle_05" fill="#00B077"></path>
    </g>
</svg>