<?xml version="1.0" encoding="UTF-8"?>
<svg width="100px" height="100px" viewBox="0 0 100 100" version="1.1" xmlns="http://www.w3.org/2000/svg" xmlns:xlink="http://www.w3.org/1999/xlink">
    <!-- Generator: Sketch 63.1 (92452) - https://sketch.com -->
    <title>Candle/3</title>
    <desc>Created with Sketch.</desc>
    <g id="Candle/3" stroke="none" stroke-width="1" fill="none" fill-rule="evenodd">
        <path d="M53.542183,17.290951 C54.9202397,17.290951 56.0474107,18.3651199 56.1320777,19.7218391 L56.137183,19.885951 L56.136516,29.522767 L69.161315,29.523089 C72.7132151,29.523089 75.9984023,31.3737773 77.8481287,34.3937693 L78.0122987,34.6715163 C79.8201098,37.853171 79.7803331,41.7621905 77.9102401,44.9076636 L77.9102401,44.9076636 L72.774,53.542 L73.1799434,53.8785647 C78.8873218,58.7271659 82.3049563,66.2624578 82.4319372,74.0368523 L82.4319372,74.0368523 L82.435605,74.485789 C82.435605,80.8044925 80.3253933,86.737632 76.4675757,91.1814956 C72.1054053,96.2120632 66.3963198,99.188459 58.177545,99.188459 L58.177545,99.188459 L44.866925,99.188459 C37.9367223,99.188459 32.2597736,97.2844756 27.7888018,94.0497752 C26.1479063,92.8626048 24.7652213,91.5610493 23.6234055,90.2163671 C22.8484674,89.3037458 22.281794,88.4906736 21.899848,87.8360605 C19.0729336,82.9736748 20.7202657,76.7439602 25.5775597,73.9173094 C30.2655434,71.1820918 36.2397842,72.6273057 39.1942554,77.1051454 L39.1942554,77.1051454 L39.312,77.29 L39.3605162,77.3324926 C39.521057,77.4698118 39.7232089,77.6138291 39.9730964,77.7583775 L39.9730964,77.7583775 L40.1695582,77.8667921 C41.2889506,78.4565398 42.8225119,78.828089 44.866925,78.828089 C46.5053861,78.828089 47.4547366,78.4771155 48.0125318,77.8342509 C48.5995912,77.1593793 48.998165,75.9188534 48.998165,74.485789 C48.998165,71.4880233 47.4771803,68.733539 44.866925,68.733539 C41.2059361,68.733539 37.8298882,66.771123 36.0159413,63.5868417 C34.1150447,60.2413614 35.2164859,56.1238306 38.1160816,52.932296 L38.1160816,52.932296 L38.033,53.025 L40.434,49.885 L32.251765,49.885189 C26.7240922,49.885189 22.2229995,45.4748353 22.0744985,39.9825918 L22.0744985,39.9825918 L22.070715,39.702409 C22.070715,34.0798227 26.6296029,29.523089 32.251765,29.523089 L32.251765,29.523089 L50.946516,29.522767 L50.947183,19.885951 C50.947183,18.4527721 52.1090041,17.290951 53.542183,17.290951 Z M53.512516,34.712767 L32.251765,34.713089 C29.4954117,34.713089 27.260715,36.9467298 27.260715,39.702409 C27.260715,42.4580728 29.4971267,44.695189 32.251765,44.695189 L32.251765,44.695189 L45.685215,44.695189 C47.8347483,44.695189 49.0523021,47.1588771 47.7466421,48.8664324 L47.7466421,48.8664324 L42.0981921,56.2535324 L41.9574484,56.422282 C40.4110639,58.1243605 39.921449,59.9546936 40.5269745,61.0203906 C41.4164433,62.5818012 43.0709717,63.543539 44.866925,63.543539 L44.866925,63.543539 L45.1795164,63.5480633 C51.2732434,63.7255238 54.188165,69.0942693 54.188165,74.485789 C54.188165,77.0965004 53.4004501,79.548194 51.9304673,81.2380533 C50.2842039,83.1353978 47.8966065,84.018089 44.866925,84.018089 C41.9878058,84.018089 39.6232655,83.4452114 37.750427,82.4585134 C37.0591141,82.0942978 36.4748666,81.6938358 35.9869785,81.2765189 C35.805953,81.1216781 35.6487391,80.9735173 35.50845,80.8296478 L35.50845,80.8296478 L35.2520642,80.5503997 C35.2080543,80.4968647 35.1661543,80.4415245 35.1264807,80.3844997 L35.1264807,80.3844997 L35.0142555,80.2084919 C33.6252142,77.8235341 30.5687336,77.0139893 28.1905176,78.4015644 C25.8074795,79.7883491 24.9999273,82.8422684 26.3846241,85.2239987 C26.6170393,85.6223287 27.0105895,86.187001 27.5795601,86.8570606 C28.4607376,87.8947969 29.540568,88.9112678 30.8309982,89.8448803 C34.4317093,92.4499563 39.0487506,93.998459 44.866925,93.998459 L44.866925,93.998459 L58.177545,93.998459 C64.7820899,93.998459 69.1135447,91.7402823 72.5474142,87.7802559 C75.566843,84.3021413 77.245605,79.5820798 77.245605,74.485789 C77.245605,67.2074636 73.6759012,60.1428301 67.927029,56.42567 C66.755206,55.6679816 66.392393,54.1192444 67.1057599,52.9199244 L67.1057599,52.9199244 L73.4494007,42.254927 C74.3663981,40.7125488 74.3859113,38.7949018 73.5016688,37.2386751 C72.6111603,35.6765795 70.9552396,34.713089 69.161315,34.713089 L69.161315,34.713089 L53.5693752,34.7136415 C53.5603221,34.7137344 53.551258,34.713781 53.542183,34.713781 L53.512516,34.712767 Z M11.16739,27.63341 C12.5454467,27.63341 13.6726177,28.7075789 13.7572847,30.0642981 L13.76239,30.22841 L13.761516,33.530767 L17.063576,33.531153 C18.4967549,33.531153 19.658576,34.6929741 19.658576,36.126153 C19.658576,37.5042097 18.5844071,38.6313807 17.2276879,38.7160477 L17.063576,38.721153 L13.761516,38.720767 L13.76239,42.02528 C13.76239,43.4584589 12.6005689,44.62028 11.16739,44.62028 C9.78933334,44.62028 8.66216227,43.5461111 8.57749535,42.1893919 L8.57239,42.02528 L8.571516,38.720767 L5.261516,38.721153 C3.82833707,38.721153 2.666516,37.5593319 2.666516,36.126153 C2.666516,34.7480963 3.74068489,33.6209253 5.09740412,33.5362583 L5.261516,33.531153 L8.571516,33.530767 L8.57239,30.22841 C8.57239,28.7952311 9.73421107,27.63341 11.16739,27.63341 Z M87.011974,21.232064 C88.3900307,21.232064 89.5172017,22.3062329 89.6018687,23.6629521 L89.606974,23.827064 L89.606516,27.129767 L92.90816,27.129807 C94.3413389,27.129807 95.50316,28.2916281 95.50316,29.724807 C95.50316,31.1028637 94.4289911,32.2300347 93.0722719,32.3147017 L92.90816,32.319807 L89.606516,32.319767 L89.606974,35.623934 C89.606974,37.0571129 88.4451529,38.218934 87.011974,38.218934 C85.6339173,38.218934 84.5067463,37.1447651 84.4220793,35.7880459 L84.416974,35.623934 L84.416516,32.319767 L81.1061,32.319807 C79.6729211,32.319807 78.5111,31.1579859 78.5111,29.724807 C78.5111,28.3467503 79.5852689,27.2195793 80.9419881,27.1349123 L81.1061,27.129807 L84.416516,27.129767 L84.416974,23.827064 C84.416974,22.3938851 85.5787951,21.232064 87.011974,21.232064 Z M23.1805347,17.091518 C25.7534637,19.4703994 28.7341847,20.344923 31.7532046,20.2071422 C33.1848934,20.1418034 34.398474,21.2494489 34.4638128,22.6811376 C34.5291516,24.1128264 33.4215061,25.326407 31.9898174,25.3917458 C27.6831356,25.5882923 23.3505805,24.3171496 19.6571673,20.90229 C18.6048517,19.9293389 18.540514,18.2875359 19.513465,17.2352203 C20.4864161,16.1829047 22.1282191,16.118567 23.1805347,17.091518 Z M55.1579951,1.14041882 C63.455869,7.72843517 65.6213683,14.4631995 63.9808426,20.0626481 C63.7928005,20.7044742 63.5882748,21.1908926 63.4163168,21.5108742 C62.7378862,22.7733059 61.1645065,23.2467324 59.9020748,22.5683018 C58.6901404,21.9170084 58.2053532,20.4409299 58.7687412,19.206967 L58.8446472,19.0540598 C58.8527099,19.0390566 58.9182154,18.8832665 59.0002044,18.6034214 C59.9345057,15.4144605 58.8620462,11.435441 53.8673505,6.85320643 L53.544,6.561 L53.525643,6.57796047 C48.3698291,11.1878082 47.1770696,15.1976619 48.0298894,18.4191106 L48.0824002,18.6076968 L48.1472837,18.8160648 C48.1964136,18.9637943 48.2312148,19.0459385 48.2368394,19.0564308 C48.9139605,20.3195653 48.4389027,21.8924533 47.1757682,22.5695744 C45.9126337,23.2466955 44.3397457,22.7716377 43.6626246,21.5085032 L43.5289149,21.238019 C43.3906636,20.9367566 43.241075,20.5436755 43.1007358,20.0634164 C41.4646943,14.4646668 43.6325467,7.7297603 51.9307233,1.1405344 C52.8756344,0.390221082 54.2130303,0.390173182 55.1579951,1.14041882 Z M87.3803539,60.0727413 C91.5541323,61.1566519 95.3169588,63.646916 97.839241,67.9968642 C98.5581461,69.2366937 98.1358534,70.8245618 96.8960238,71.543467 C95.6561943,72.2623721 94.0683262,71.8400794 93.349421,70.6002498 C91.5922556,67.5698282 89.0031227,65.8563225 86.0758081,65.0961127 C84.6886424,64.7358723 83.8561549,63.3193198 84.2163953,61.9321541 C84.5766357,60.5449884 85.9931882,59.7125009 87.3803539,60.0727413 Z M26.419816,55.1771273 C27.8024287,55.5544653 28.6173648,56.9811873 28.2400267,58.3638 C27.103471,62.5282791 24.5678208,66.2610063 20.1876337,68.7253989 C18.9385755,69.4281474 17.3563236,68.9852759 16.6535751,67.7362177 C15.9508266,66.4871595 16.3936981,64.9049076 17.6427563,64.2021591 C20.6913713,62.4869391 22.4357696,59.9190127 23.2331433,56.997338 C23.6104813,55.6147253 25.0372033,54.7997892 26.419816,55.1771273 Z" id="Candle_03" fill="#00B077"></path>
    </g>
</svg>