<?xml version="1.0" encoding="UTF-8"?>
<svg width="100px" height="100px" viewBox="0 0 100 100" version="1.1" xmlns="http://www.w3.org/2000/svg" xmlns:xlink="http://www.w3.org/1999/xlink">
    <!-- Generator: Sketch 63.1 (92452) - https://sketch.com -->
    <title>Candle/15</title>
    <desc>Created with Sketch.</desc>
    <g id="Candle/15" stroke="none" stroke-width="1" fill="none" fill-rule="evenodd">
        <path d="M92.4011814,15.5514767 C93.5215226,16.4452537 93.7051893,18.0780191 92.8114123,19.1983604 C90.1165779,22.5763107 86.3205337,25.0007224 81.3251627,25.5370457 C79.9001733,25.6900384 78.6209659,24.6588812 78.4679733,23.2338917 C78.3149806,21.8089023 79.3461378,20.5296949 80.7711273,20.3767023 C84.248734,20.0033322 86.860963,18.3349853 88.7542977,15.9617076 C89.6480747,14.8413664 91.2808401,14.6576997 92.4011814,15.5514767 Z M63.1085561,1.14041882 C71.40643,7.72843517 73.5719293,14.4631995 71.9314036,20.0626481 C71.7433615,20.7044742 71.5388358,21.1908926 71.3668778,21.5108742 C70.6884472,22.7733059 69.1150675,23.2467324 67.8526358,22.5683018 C66.6407014,21.9170084 66.1559142,20.4409299 66.7193022,19.206967 L66.7952082,19.0540598 C66.8032709,19.0390566 66.8687764,18.8832665 66.9507654,18.6034214 C67.8850667,15.4144605 66.8126072,11.435441 61.8179115,6.85320643 L61.495,6.561 L61.476204,6.57796047 C56.3203901,11.1878082 55.1276306,15.1976619 55.9804504,18.4191106 L56.0329612,18.6076968 L56.0978447,18.8160648 C56.1469746,18.9637943 56.1817758,19.0459385 56.1874004,19.0564308 C56.8645215,20.3195653 56.3894637,21.8924533 55.1263292,22.5695744 C53.8631947,23.2466955 52.2903067,22.7716377 51.6131856,21.5085032 C51.441978,21.1891242 51.2384157,20.7037619 51.0512968,20.0634164 C49.4152553,14.4646668 51.5831077,7.7297603 59.8812843,1.1405344 C60.8261954,0.390221082 62.1635913,0.390173182 63.1085561,1.14041882 Z M39.6437011,1.14041882 C47.941575,7.72843517 50.1070743,14.4631995 48.4665486,20.0626481 C48.2785065,20.7044742 48.0739808,21.1908926 47.9020228,21.5108742 C47.2235922,22.7733059 45.6502125,23.2467324 44.3877808,22.5683018 C43.1758464,21.9170084 42.6910592,20.4409299 43.2544472,19.206967 L43.3303532,19.0540598 C43.3384159,19.0390566 43.4039214,18.8832665 43.4859104,18.6034214 C44.4202117,15.4144605 43.3477522,11.435441 38.3530565,6.85320643 L38.03,6.561 L38.011349,6.57796047 C32.8555351,11.1878082 31.6627756,15.1976619 32.5155954,18.4191106 L32.5681062,18.6076968 C32.6496103,18.8866146 32.714671,19.0417416 32.7225454,19.0564308 C33.3996665,20.3195653 32.9246087,21.8924533 31.6614742,22.5695744 C30.3983397,23.2466955 28.8254517,22.7716377 28.1483306,21.5085032 C27.977123,21.1891242 27.7735607,20.7037619 27.5864418,20.0634164 C25.9504003,14.4646668 28.1182527,7.7297603 36.4164293,1.1405344 C37.3613404,0.390221082 38.6987363,0.390173182 39.6437011,1.14041882 Z M13.2285847,73.0283355 C14.6611508,72.9864312 15.8564453,74.1137855 15.8983495,75.5463517 C15.9402538,76.9789178 14.8128995,78.1742123 13.3803333,78.2161165 C10.3095272,78.3059412 7.77961659,79.5176018 5.77087933,81.3715154 C4.71769473,82.3435257 3.07594988,82.2777209 2.10393958,81.2245363 C1.13192928,80.1713517 1.19773406,78.5296069 2.25091867,77.5575966 C5.11461572,74.9146193 8.78151167,73.1584176 13.2285847,73.0283355 Z M61.492744,17.290951 C62.8708007,17.290951 63.9979717,18.3651199 64.0826387,19.7218391 L64.087744,19.885951 L64.0868654,29.522767 L80.896078,29.523089 C86.4245374,29.523089 90.9248697,33.9291973 91.0733451,39.4221841 L91.077128,39.702409 C91.077128,45.3240648 86.5174402,49.885189 80.896078,49.885189 L80.896078,49.885189 L80.024,49.885 L80.3582816,50.0152815 C89.6801387,53.7189117 95.7434295,63.2532675 95.8973663,74.0639575 L95.8973663,74.0639575 L95.900368,74.485789 C95.900368,80.8036743 93.7906656,86.7368019 89.9339994,91.1815756 C85.5916757,96.1888428 79.8173439,99.188459 71.631928,99.188459 L71.631928,99.188459 L58.333418,99.188459 C48.0368218,99.188459 40.8824838,95.1418572 36.5092386,89.5013056 C29.2411611,80.1334583 41.8761169,68.5131644 50.6209736,75.9571335 L50.6209736,75.9571335 L50.8615444,76.1570856 C52.8073005,77.7367081 55.2630607,78.828089 58.333418,78.828089 C59.9715795,78.828089 60.9202236,78.477287 61.4787119,77.8326233 C62.0651124,77.1596401 62.462928,75.9205067 62.462928,74.485789 C62.462928,71.4882627 60.9421428,68.733539 58.333418,68.733539 C56.0011651,68.733539 53.6057278,69.408438 51.5439833,70.3650465 L51.5439833,70.3650465 L51.2792855,70.4844725 C43.5121031,73.8958055 35.537208,69.2465681 35.537208,61.922529 L35.537208,61.922529 L35.537208,39.702409 C35.537208,37.8894064 36.0110243,36.1872495 36.841572,34.7129509 L30.312781,34.713089 C28.8005508,34.713089 27.5439831,35.206161 26.4358037,36.2214169 L26.2297328,36.4179039 L8.34685976,54.1398882 C6.0408302,56.4255104 6.02338537,60.1471988 8.30875562,62.4529746 C10.5332065,64.6996116 14.1201137,64.7742151 16.4372739,62.6677361 L16.6223172,62.4921607 L20.0667472,59.0806007 C21.6669658,57.495653 24.3590572,58.5659433 24.4834053,60.765321 L24.487871,60.924319 L24.487871,88.119919 C24.487871,91.292788 27.0018372,93.8785104 30.1476632,93.9944043 L30.368141,93.998459 L36.845261,93.998459 C38.2784399,93.998459 39.440261,95.1602801 39.440261,96.593459 C39.440261,97.9715157 38.3660921,99.0986867 37.0093729,99.1833537 L36.845261,99.188459 L30.368141,99.188459 C24.3509824,99.188459 19.4554981,94.3891619 19.3016019,88.4101324 L19.297871,88.119919 L19.297,67.04 L19.0733266,67.2116789 C14.8057669,70.3798009 8.78252497,70.0817102 4.85050602,66.3302169 L4.62165181,66.1055578 C0.394520991,61.8406847 0.352066224,55.001814 4.46893388,50.6825442 L4.69345916,50.4535941 L22.5761281,32.7318121 C24.6095224,30.7159661 27.110867,29.6133852 29.9554318,29.5284041 L30.312781,29.523089 L35.4328654,29.522767 L35.432889,19.885951 C35.432889,18.4527721 36.5947101,17.290951 38.027889,17.290951 C39.4059457,17.290951 40.5331167,18.3651199 40.6177837,19.7218391 L40.622889,19.885951 L40.6228654,29.522767 L41.611411,29.523089 C42.3142667,29.523089 43.0202736,29.5888113 43.7211662,29.7186249 C44.3666831,29.5902953 45.0337537,29.523089 45.716528,29.523089 L45.716528,29.523089 L58.8968654,29.522767 L58.897744,19.885951 C58.897744,18.4527721 60.0595651,17.290951 61.492744,17.290951 Z M80.896078,34.713089 L45.716528,34.713089 C42.9606878,34.713089 40.727208,36.9462169 40.727208,39.702409 L40.727208,39.702409 L40.727208,61.922529 C40.727208,65.3995944 44.8359768,67.7525433 49.3610753,65.6564364 L49.3610753,65.6564364 L49.7882256,65.4629619 C52.3702696,64.3218437 55.2927623,63.543539 58.333418,63.543539 C64.6388838,63.543539 67.652928,69.0031258 67.652928,74.485789 C67.652928,77.0987929 66.865908,79.5502373 65.3965543,81.2365262 C63.7519067,83.1349934 61.3638259,84.018089 58.333418,84.018089 C53.7163314,84.018089 50.0959564,82.3244329 47.2574487,79.9097022 L47.2574487,79.9097022 L47.1151498,79.7928349 C43.0622828,76.5835727 37.2616249,82.0044026 40.610325,86.3205526 C44.0608911,90.7710452 49.7669157,93.998459 58.333418,93.998459 L58.333418,93.998459 L71.631928,93.998459 C78.2064776,93.998459 82.6012615,91.7154823 86.0134836,87.7807441 C89.0318649,84.3020861 90.710368,79.5816228 90.710368,74.485789 C90.710368,63.0823302 82.7785575,53.564899 71.631928,53.564899 L71.631928,53.564899 L58.333418,53.564899 C56.7816834,53.564899 55.2407585,53.6962526 53.7264618,53.946975 C52.1455527,54.2087264 50.707578,52.9892607 50.707578,51.386829 L50.707578,51.386829 L50.707578,47.290189 C50.707578,45.8570101 51.8693991,44.695189 53.302578,44.695189 L53.302578,44.695189 L80.896078,44.695189 C83.6507163,44.695189 85.887128,42.4580728 85.887128,39.702409 C85.887128,36.9467298 83.6524313,34.713089 80.896078,34.713089 L80.896078,34.713089 Z M10.532134,18.751936 C11.9101907,18.751936 13.0373617,19.8261049 13.1220287,21.1828241 L13.127134,21.346936 L13.1268654,24.648767 L16.42832,24.649679 C17.8614989,24.649679 19.02332,25.8115001 19.02332,27.244679 C19.02332,28.6227357 17.9491511,29.7499067 16.5924319,29.8345737 L16.42832,29.839679 L13.1268654,29.838767 L13.127134,33.143806 C13.127134,34.5769849 11.9653129,35.738806 10.532134,35.738806 C9.15407734,35.738806 8.02690627,34.6646371 7.94223935,33.3079179 L7.937134,33.143806 L7.93686542,29.838767 L4.62626,29.839679 C3.19308107,29.839679 2.03126,28.6778579 2.03126,27.244679 C2.03126,25.8666223 3.10542889,24.7394513 4.46214812,24.6547843 L4.62626,24.649679 L7.93686542,24.648767 L7.937134,21.346936 C7.937134,19.9137571 9.09895507,18.751936 10.532134,18.751936 Z" id="Candle_15" fill="#00B077"></path>
    </g>
</svg>