<?xml version="1.0" encoding="UTF-8"?>
<svg width="100px" height="100px" viewBox="0 0 100 100" version="1.1" xmlns="http://www.w3.org/2000/svg" xmlns:xlink="http://www.w3.org/1999/xlink">
    <!-- Generator: Sketch 63.1 (92452) - https://sketch.com -->
    <title>Candle/20</title>
    <desc>Created with Sketch.</desc>
    <g id="Candle/20" stroke="none" stroke-width="1" fill="none" fill-rule="evenodd">
        <path d="M11.630564,13.578717 C13.0086207,13.578717 14.1357917,14.6528859 14.2204587,16.0096051 L14.225564,16.173717 L14.225178,19.475767 L17.52675,19.476633 C18.9599289,19.476633 20.12175,20.6384541 20.12175,22.071633 C20.12175,23.4496897 19.0475811,24.5768607 17.6908619,24.6615277 L17.52675,24.666633 L14.225178,24.665767 L14.225564,27.970587 C14.225564,29.4037659 13.0637429,30.565587 11.630564,30.565587 C10.2525073,30.565587 9.12533627,29.4914181 9.04066935,28.1346989 L9.035564,27.970587 L9.035178,24.665767 L5.72469,24.666633 C4.29151107,24.666633 3.12969,23.5048119 3.12969,22.071633 C3.12969,20.6935763 4.20385889,19.5664053 5.56057812,19.4817383 L5.72469,19.476633 L9.035178,19.475767 L9.035564,16.173717 C9.035564,14.7405381 10.1973851,13.578717 11.630564,13.578717 Z M95.7074735,17.2874262 C96.8079996,18.2054916 96.9559132,19.8418834 96.0378478,20.9424095 C93.2770528,24.251898 89.4111976,26.5897858 84.396212,27.0077012 C82.9679836,27.1267203 81.7136918,26.0653964 81.5946728,24.637168 C81.4756537,23.2089396 82.5369776,21.9546478 83.965206,21.8356288 C87.4592752,21.5444563 90.1182965,19.936405 92.0524902,17.6178005 C92.9705556,16.5172744 94.6069474,16.3693608 95.7074735,17.2874262 Z M68.0167921,1.14041882 C76.314666,7.72843517 78.4801653,14.4631995 76.8396396,20.0626481 C76.6515975,20.7044742 76.4470718,21.1908926 76.2751138,21.5108742 C75.5966832,22.7733059 74.0233035,23.2467324 72.7608718,22.5683018 C71.5489374,21.9170084 71.0641502,20.4409299 71.6275382,19.206967 L71.7034442,19.0540598 C71.7115069,19.0390566 71.7770124,18.8832665 71.8590014,18.6034214 C72.7933027,15.4144605 71.7208432,11.435441 66.7261475,6.85320643 L66.403,6.561 L66.38444,6.57796047 C61.2286261,11.1878082 60.0358666,15.1976619 60.8886864,18.4191106 L60.9411972,18.6076968 L61.0060807,18.8160648 C61.0552106,18.9637943 61.0900118,19.0459385 61.0956364,19.0564308 C61.7727575,20.3195653 61.2976997,21.8924533 60.0345652,22.5695744 C58.7714307,23.2466955 57.1985427,22.7716377 56.5214216,21.5085032 C56.350214,21.1891242 56.1466517,20.7037619 55.9595328,20.0634164 C54.3234913,14.4646668 56.4913437,7.7297603 64.7895203,1.1405344 C65.7344314,0.390221082 67.0718273,0.390173182 68.0167921,1.14041882 Z M39.0493261,1.14041882 C47.3472,7.72843517 49.5126993,14.4631995 47.8721736,20.0626481 C47.6841315,20.7044742 47.4796058,21.1908926 47.3076478,21.5108742 C46.6292172,22.7733059 45.0558375,23.2467324 43.7934058,22.5683018 C42.5814714,21.9170084 42.0966842,20.4409299 42.6600722,19.206967 L42.7560014,19.0071117 C42.7828182,18.9399068 42.8329718,18.8033108 42.8915354,18.6034214 C43.8258367,15.4144605 42.7533772,11.435441 37.7586815,6.85320643 L37.435,6.56 L37.416974,6.57796047 C32.2611601,11.1878082 31.0684006,15.1976619 31.9212204,18.4191106 L31.9737312,18.6076968 L32.0386147,18.8160648 C32.0877446,18.9637943 32.1225458,19.0459385 32.1281704,19.0564308 C32.8052915,20.3195653 32.3302337,21.8924533 31.0670992,22.5695744 C29.8039647,23.2466955 28.2310767,22.7716377 27.5539556,21.5085032 C27.382748,21.1891242 27.1791857,20.7037619 26.9920668,20.0634164 C25.3560253,14.4646668 27.5238777,7.7297603 35.8220543,1.1405344 C36.7669654,0.390221082 38.1043613,0.390173182 39.0493261,1.14041882 Z M62.261782,44.695189 C67.1383786,44.695189 70.6196831,47.3473222 72.5959714,51.8626888 C74.060344,55.2084453 74.681452,59.4637578 74.681452,64.354909 C74.681452,69.2469989 74.0603653,73.5030436 72.5960466,76.8493359 C70.6198174,81.3654572 67.1385228,84.018089 62.261782,84.018089 C57.3876257,84.018089 53.9086473,81.3649078 51.9340935,76.8485498 C50.4712108,73.5025268 49.850762,69.2468418 49.850762,64.354909 C49.850762,59.463915 50.471232,55.2089622 51.9341687,51.8634751 C53.9087815,47.3478716 57.3877699,44.695189 62.261782,44.695189 Z M62.261782,49.885189 C57.3466984,49.885189 55.040762,55.1584731 55.040762,64.354909 C55.040762,73.5534918 57.3468183,78.828089 62.261782,78.828089 C67.183349,78.828089 69.491452,73.5535629 69.491452,64.354909 C69.491452,55.1584022 67.1834689,49.885189 62.261782,49.885189 Z M66.40098,17.290951 C67.7790367,17.290951 68.9062077,18.3651199 68.9908747,19.7218391 L68.99598,19.885951 L68.995178,29.522767 L73.721302,29.523089 C88.5959348,29.523089 99.216705,41.6824818 99.4276329,63.6851509 L99.430832,64.354909 C99.430832,86.7795073 88.7452432,99.188459 73.721302,99.188459 L73.721302,99.188459 L62.261782,99.188459 C52.4644625,99.188459 44.5134474,93.9109451 40.1675895,84.0191032 L34.847164,84.018608 C32.3247339,84.018608 31.285253,80.7837109 33.3355273,79.3143476 C34.9727712,78.1409894 36.3772505,77.0842913 37.6715418,76.0369342 C36.9431254,72.5156865 36.557442,68.6161443 36.557442,64.354909 C36.557442,51.4954116 40.0692692,41.9307768 45.8979809,36.1105791 C43.8429875,35.2524338 41.6188621,34.7753414 39.2931943,34.7187825 L38.824088,34.713089 L37.0550812,34.7136415 C37.0460281,34.7137344 37.036964,34.713781 37.027889,34.713781 L36.998178,34.712767 L25.143248,34.713089 C14.5966489,34.713089 6.011178,43.297616 6.011178,53.841699 C6.011178,56.598404 8.24690089,58.834479 11.002228,58.834479 C13.6860601,58.834479 15.8753019,56.7151969 15.9886665,54.0582723 L15.993278,53.841699 C15.993278,48.7930552 20.0941331,44.695189 25.143248,44.695189 C30.1922448,44.695189 34.291488,48.7929378 34.291488,53.841699 C34.291488,57.7274004 32.6954869,61.1447494 29.6122387,64.4777113 C27.4567144,66.8078125 24.8352329,68.9274349 20.3221593,72.1266125 L17.4377336,74.1548539 C9.01799262,80.1376784 6.011178,83.67926 6.011178,89.005679 C6.011178,91.6898391 8.13077954,93.8804103 10.785813,93.9938447 L11.002228,93.998459 L43.069508,93.998459 C44.5026869,93.998459 45.664508,95.1602801 45.664508,96.593459 C45.664508,97.9715157 44.5903391,99.0986867 43.2336199,99.1833537 L43.069508,99.188459 L11.002228,99.188459 C5.38036004,99.188459 0.821178,94.6285589 0.821178,89.005679 C0.821178,84.6131266 2.51106835,80.7940006 5.66530407,77.2590229 C7.82122054,74.8428698 10.1499058,72.9499103 14.4368915,69.9188024 L16.8525405,68.2226269 C26.0714171,61.7049693 29.101488,58.2965121 29.101488,53.841699 C29.101488,51.6597193 27.3263105,49.885189 25.143248,49.885189 C23.0278818,49.885189 21.2946986,51.551052 21.1884404,53.6384214 L21.183278,53.841699 C21.183278,59.465085 16.62532,64.024479 11.002228,64.024479 C5.38036004,64.024479 0.821178,59.4645789 0.821178,53.841699 C0.821178,40.5652361 11.5133248,29.7415001 24.7416226,29.526353 L25.143248,29.523089 L34.432178,29.522767 L34.432889,19.885951 C34.432889,18.4527721 35.5947101,17.290951 37.027889,17.290951 C38.4059457,17.290951 39.5331167,18.3651199 39.6177837,19.7218391 L39.622889,19.885951 L39.6229443,29.536118 C43.5102081,29.6631809 47.1955576,30.7170384 50.4594982,32.5848635 C53.9263084,30.5630023 57.9120237,29.523089 62.261782,29.523089 L62.261782,29.523089 L63.805178,29.522767 L63.80598,19.885951 C63.80598,18.4527721 64.9678011,17.290951 66.40098,17.290951 Z M73.721302,34.713089 L66.4281722,34.7136415 C66.4191191,34.7137344 66.410055,34.713781 66.40098,34.713781 L66.371178,34.712767 L62.261782,34.713089 C58.6278177,34.713089 55.3096247,35.627673 52.450391,37.4532255 C52.1805255,37.7492562 51.8526017,37.9692255 51.496586,38.1094866 C45.4919792,42.5400679 41.747442,51.3012126 41.747442,64.354909 C41.747442,68.8190121 42.1854603,72.7812311 43.0020646,76.2399974 C43.044861,76.3647712 43.0753705,76.492817 43.0960416,76.6219599 C43.4065213,77.8867302 43.769777,79.0815715 44.1813707,80.207664 C44.2837776,80.3972294 44.3620658,80.6017052 44.4135873,80.8165651 C47.8318664,89.5917241 54.2867727,93.998459 62.261782,93.998459 L62.261782,93.998459 L73.721302,93.998459 C85.6922108,93.998459 94.240832,84.0711232 94.240832,64.354909 C94.240832,44.637871 85.6933202,34.713089 73.721302,34.713089 L73.721302,34.713089 Z" id="Candle_20" fill="#00B077"></path>
    </g>
</svg>