<?xml version="1.0" encoding="UTF-8"?>
<svg width="100px" height="100px" viewBox="0 0 100 100" version="1.1" xmlns="http://www.w3.org/2000/svg" xmlns:xlink="http://www.w3.org/1999/xlink">
    <!-- Generator: Sketch 63.1 (92452) - https://sketch.com -->
    <title>Candy</title>
    <desc>Created with Sketch.</desc>
    <g id="Candy" stroke="none" stroke-width="1" fill="none" fill-rule="evenodd">
        <path d="M16.8827092,64.0330536 C18.2675128,64.3791455 19.1095551,65.7823136 18.7634632,67.1671172 C18.4173713,68.5519209 17.0142032,69.3939631 15.6293996,69.0478712 C9.68462854,67.5621465 6.57938911,69.1670699 6.19330207,72.0461437 C5.84054717,74.6766579 7.83286945,77.0394819 10.9969871,77.0128542 L11.2249725,77.0068599 C14.064265,76.8819603 14.9957834,80.7643331 12.4089327,81.941357 C8.19931754,83.856743 7.6772274,87.2343935 10.156954,89.7114744 C12.5829855,92.1400991 15.8770213,91.6855906 17.8129126,87.6996747 L17.9274185,87.4562769 C19.0821392,84.9220643 22.8329267,85.7674807 22.8640954,88.4742976 L22.8613024,88.6423339 C22.715274,91.937796 25.1273845,94.0348046 27.8207079,93.6737985 C30.7000558,93.2878581 32.3049794,90.1825752 30.8186511,84.2372621 C30.4724566,82.8524841 31.3143949,81.4492537 32.6991729,81.1030591 C34.0839509,80.7568646 35.4871814,81.5988029 35.8333759,82.9835809 C38.0068882,91.67763 34.7605019,97.9588935 28.5074141,98.7970412 C24.7127235,99.3056717 21.150345,97.5355522 19.2089001,94.4213393 L19.119,94.273 L19.0427448,94.3352839 C15.2911021,97.2933295 10.3211245,97.0134171 6.70509481,93.5651212 L6.50187717,93.3665512 C2.86475792,89.7333157 2.51654252,84.6446017 5.53108426,80.8229555 L5.592,80.747 L5.4447754,80.6577825 C2.4033509,78.7609187 0.644314725,75.3182619 1.03828806,71.6234439 L1.07010235,71.3591169 C1.90856848,65.1066254 8.18940874,61.8604128 16.8827092,64.0330536 Z M50.0939272,18.4585555 C67.391742,18.4585555 81.4149848,32.4759906 81.4149848,49.770998 C81.4149848,67.0688705 67.3923229,81.0868865 50.0939272,81.0868865 C32.7972451,81.0868865 18.7763157,67.0688608 18.7763157,49.770998 C18.7763157,32.4760003 32.797826,18.4585555 50.0939272,18.4585555 Z M50.0939272,23.6276155 C38.1761153,23.6276155 28.120713,31.597941 24.9701202,42.49901 C28.0204256,38.569051 32.2353076,35.2899122 37.1290035,33.1437989 C47.9710504,28.3890568 59.2784122,30.4114228 65.6850347,39.7530546 C73.0075885,50.4376187 69.857103,61.1523891 60.1727932,66.2880656 C50.9309904,71.1890768 40.1098074,68.573279 36.9932334,58.7764027 C35.2168353,53.1787796 37.8947239,47.5750139 42.7603949,45.4006779 C47.9958633,43.0610895 53.5132097,45.6147375 55.8117081,52.1936788 C56.2824952,53.5412026 55.5717598,55.0152348 54.224236,55.4860219 C52.8767123,55.9568091 51.4026801,55.2460737 50.9318929,53.8985499 C49.61138,50.1188749 47.2831578,49.0412808 44.8693144,50.1199617 C42.356592,51.242829 40.9558093,54.1741152 41.9196008,57.2111289 C43.9294964,63.5291867 51.0818841,65.2581289 57.7510538,61.7214083 C64.7999252,57.9833284 66.9352903,50.7209726 61.4216884,42.6759057 C56.5586522,35.5850099 47.9455452,34.0445219 39.2050175,37.87765 C30.7498229,41.5856463 24.8452419,49.2549378 24.9463945,56.9636298 C28.0710317,67.9078421 38.146348,75.9178265 50.0939272,75.9178265 C64.5379133,75.9178265 76.2459248,64.213694 76.2459248,49.770998 C76.2459248,35.331263 64.5374283,23.6276155 50.0939272,23.6276155 Z M80.9811007,5.12324126 L81.07,5.271 L81.1478438,5.20962833 C84.8989283,2.25213989 89.8689446,2.5323354 93.4848349,5.98050042 L93.6880444,6.17906248 C97.3239358,9.81106936 97.6717494,14.9003031 94.6578765,18.7223113 L94.596,18.798 L94.7447677,18.8885673 C97.7858366,20.7856874 99.5447494,24.2282495 99.1509886,27.9227194 L99.11919,28.1870211 C98.2810483,34.4393619 92.0005362,37.6852071 83.3072129,35.5125607 C81.9224093,35.1664688 81.080367,33.7633007 81.4264589,32.378497 C81.7725508,30.9936934 83.1757189,30.1516511 84.5605226,30.497743 C90.5053089,31.9834716 93.6100665,30.378895 93.9959575,27.5002391 C94.348563,24.8698847 92.3561469,22.5066977 89.1925032,22.5328142 L88.9645526,22.5387718 C86.1256075,22.6632187 85.1943554,18.7814941 87.7807546,17.6043641 C91.9887639,15.6892018 92.5111007,12.3096269 90.0329681,9.83413986 C87.5585506,7.35707734 84.1812084,7.87917061 82.2643545,12.0873336 C81.110047,14.6214412 77.3595562,13.7769335 77.3275664,11.0703727 L77.3303077,10.9023512 C77.4752733,7.60796874 75.0620663,5.51075103 72.3686421,5.87161933 C69.4894948,6.25737105 67.8849078,9.36227537 69.3712865,15.308414 C69.7174468,16.6932006 68.8754738,18.0964103 67.4906873,18.4425706 C66.1059007,18.7887309 64.702691,17.9467579 64.3565307,16.5619714 C62.1830536,7.86715058 65.4290189,1.58615017 71.6822187,0.74833873 C75.4764292,0.239985711 79.0389308,2.00976366 80.9811007,5.12324126 Z" fill="#00B077"></path>
    </g>
</svg>