<?xml version="1.0" encoding="UTF-8"?>
<svg width="100px" height="100px" viewBox="0 0 100 100" version="1.1" xmlns="http://www.w3.org/2000/svg" xmlns:xlink="http://www.w3.org/1999/xlink">
    <!-- Generator: Sketch 63.1 (92452) - https://sketch.com -->
    <title>CapitolBuilding</title>
    <desc>Created with Sketch.</desc>
    <g id="CapitolBuilding" stroke="none" stroke-width="1" fill="none" fill-rule="evenodd">
        <path d="M51.2390148,76.0985545 L51.422154,76.1706352 L90.450954,93.2664952 C91.7637148,93.8415264 92.3617629,95.3718842 91.7867318,96.684645 C91.2347019,97.9448954 89.8022429,98.5464665 88.5270827,98.0838251 L88.368582,98.0204228 L50.381,81.38 L23.746,93.048 L68.161908,93.048459 C69.5399647,93.048459 70.6671357,94.1226279 70.7518027,95.4793471 L70.756908,95.643459 C70.756908,97.0215157 69.6827391,98.1486867 68.3260199,98.2333537 L68.161908,98.238459 L11.355628,98.238459 C8.6025423,98.238459 7.77379363,94.549546 10.1609671,93.3389112 L10.3143646,93.2665292 L49.3397046,76.1706692 C49.94307,75.9063524 50.6219181,75.8823135 51.2390148,76.0985545 Z M86.695744,63.131569 C88.1289229,63.131569 89.290744,64.2933901 89.290744,65.726569 C89.290744,67.1046257 88.2165751,68.2317967 86.8598559,68.3164637 L86.695744,68.321569 L86.3062165,68.3211193 L86.306321,84.583569 C86.306321,86.0167479 85.1444999,87.178569 83.711321,87.178569 C82.3332643,87.178569 81.2060933,86.1044001 81.1214263,84.7476809 L81.116321,84.583569 L81.1162165,68.3211193 L76.7832165,68.3211193 L76.783709,80.412539 C76.783709,81.8457179 75.6218879,83.007539 74.188709,83.007539 C72.8106523,83.007539 71.6834813,81.9333701 71.5988143,80.5766509 L71.593709,80.412539 L71.5932165,68.3211193 L67.2602165,68.3211193 L67.261097,76.241509 C67.261097,77.6746879 66.0992759,78.836509 64.666097,78.836509 C63.2880403,78.836509 62.1608693,77.7623401 62.0762023,76.4056209 L62.071097,76.241509 L62.0702165,68.3211193 L57.7382165,68.3211193 L57.738485,72.068749 C57.738485,73.5019279 56.5766639,74.663749 55.143485,74.663749 C53.7654283,74.663749 52.6382573,73.5895801 52.5535903,72.2328609 L52.548485,72.068749 L52.5482165,68.3211193 L48.2162165,68.3211193 L48.216738,72.068749 C48.216738,73.5019279 47.0549169,74.663749 45.621738,74.663749 C44.2436813,74.663749 43.1165103,73.5895801 43.0318433,72.2328609 L43.026738,72.068749 L43.0262165,68.3211193 L38.6932165,68.3211193 L38.694126,76.241509 C38.694126,77.6746879 37.5323049,78.836509 36.099126,78.836509 C34.7210693,78.836509 33.5938983,77.7623401 33.5092313,76.4056209 L33.504126,76.241509 L33.5032165,68.3211193 L29.1712165,68.3211193 L29.171514,80.412539 C29.171514,81.8457179 28.0096929,83.007539 26.576514,83.007539 C25.1984573,83.007539 24.0712863,81.9333701 23.9866193,80.5766509 L23.981514,80.412539 L23.9812165,68.3211193 L19.6482165,68.3211193 L19.648902,84.583569 C19.648902,86.0167479 18.4870809,87.178569 17.053902,87.178569 C15.6758453,87.178569 14.5486743,86.1044001 14.4640073,84.7476809 L14.458902,84.583569 L14.4582165,68.3211193 L14.068614,68.321569 C12.6354351,68.321569 11.473614,67.1597479 11.473614,65.726569 C11.473614,64.3485123 12.5477829,63.2213413 13.9045021,63.1366743 L14.068614,63.131569 L86.695744,63.131569 Z M50.383217,24.766916 C68.4693825,24.766916 83.130387,39.4296636 83.130387,57.517546 C83.130387,58.9507249 81.9685659,60.112546 80.535387,60.112546 C80.4387529,60.112546 80.3433525,60.107264 80.2494587,60.0969729 L80.1305019,60.1074407 L80.1305019,60.1074407 L79.96639,60.112546 L22.11,60.112546 C21.77811,60.112546 21.4607722,60.0502404 21.1690452,59.9366879 C20.8768148,60.0502404 20.559477,60.112546 20.227587,60.112546 C18.7944081,60.112546 17.632587,58.9507249 17.632587,57.517546 C17.632587,39.4296571 32.2953281,24.766916 50.383217,24.766916 Z M50.383217,29.956916 C36.0367533,29.956916 24.250833,40.9180755 22.943131,54.9227196 L77.8198586,54.9226994 C76.5123256,40.9179586 64.7279261,29.956916 50.383217,29.956916 Z M51.2279526,1.06700128 L51.3716558,1.08956523 L65.3716558,3.8131241 C66.2323093,3.98055556 66.8677054,4.69989764 66.9394798,5.56061738 L66.94625,5.72355887 L66.94625,11.9612099 C66.94625,13.1361902 65.9174552,14.031201 64.7721996,13.8942265 L64.6285021,13.8716754 L55.5715036,12.1105048 C54.5163827,11.9053322 53.8273634,10.8836624 54.032536,9.82854141 C54.2279385,8.82366431 55.163928,8.15085223 56.1640799,8.26628933 L56.3144994,8.28957379 L63.053,9.599 L63.053,7.327 L52.946,5.361 L52.94625,17 C52.94625,18.0236992 52.1558955,18.8628013 51.1520983,18.9403945 L51,18.94625 C49.9763008,18.94625 49.1371987,18.1558955 49.0596055,17.1520983 L49.05375,17 L49.05375,3 C49.05375,1.82495671 50.0826489,0.92992908 51.2279526,1.06700128 Z" id="Capitol" fill="#00B077"></path>
    </g>
</svg>