<?xml version="1.0" encoding="UTF-8"?>
<svg width="100px" height="100px" viewBox="0 0 100 100" version="1.1" xmlns="http://www.w3.org/2000/svg" xmlns:xlink="http://www.w3.org/1999/xlink">
    <!-- Generator: Sketch 63.1 (92452) - https://sketch.com -->
    <title>ChampagneBottle</title>
    <desc>Created with Sketch.</desc>
    <g id="ChampagneBottle" stroke="none" stroke-width="1" fill="none" fill-rule="evenodd">
        <path d="M80.1587309,39.0364464 C81.5312276,39.0364464 82.6538509,40.1062814 82.7381762,41.4575266 L82.7432609,41.6209764 L82.7432609,46.3885727 C82.7432609,47.8159692 81.5861274,48.9731027 80.1587309,48.9731027 C78.7862343,48.9731027 77.663611,47.9032678 77.5792857,46.5520225 L77.5742009,46.3885727 L77.5742009,41.6209764 C77.5742009,40.1935799 78.7313344,39.0364464 80.1587309,39.0364464 Z M88.2401238,32.6911753 L88.3752278,32.817102 L95.3448437,39.7867179 C96.3541654,40.7960397 96.3541654,42.4324736 95.3448437,43.4417953 C94.3794055,44.4072335 92.8402012,44.4492091 91.8248703,43.567722 L91.6897663,43.4417953 L84.7201504,36.4721794 C83.7108286,35.4628577 83.7108286,33.8264238 84.7201504,32.817102 C85.6855886,31.8516638 87.2247929,31.8096883 88.2401238,32.6911753 Z M96.6178795,25.6661558 C98.045276,25.6661558 99.2024095,26.8232893 99.2024095,28.2506858 C99.2024095,29.6231824 98.1325745,30.7458057 96.7813292,30.830131 L96.6178795,30.8352158 L91.9691715,30.8352158 C90.541775,30.8352158 89.3846415,29.6780823 89.3846415,28.2506858 C89.3846415,26.8781892 90.4544765,25.7555659 91.8057218,25.6712405 L91.9691715,25.6661558 L96.6178795,25.6661558 Z M58.3080805,17.1856237 C59.735477,17.1856237 60.8926105,18.3427572 60.8926105,19.7701537 C60.8926105,21.1426503 59.8227755,22.2652736 58.4715302,22.3495989 L58.3080805,22.3546837 L53.5473762,22.3546837 C52.1199797,22.3546837 50.9628462,21.1975502 50.9628462,19.7701537 C50.9628462,18.397657 52.0326812,17.2750337 53.3839265,17.1907084 L53.5473762,17.1856237 L58.3080805,17.1856237 Z M60.0137825,4.46483397 L60.1488864,4.59076069 L67.1185023,11.5603766 C68.1278241,12.5696983 68.1278241,14.2061322 67.1185023,15.215454 C66.1530641,16.1808922 64.6138598,16.2228677 63.5985289,15.3413807 L63.463425,15.215454 L56.4938091,8.24583807 C55.4844873,7.23651632 55.4844873,5.60008244 56.4938091,4.59076069 C57.4592472,3.6253225 58.9984516,3.58334692 60.0137825,4.46483397 Z M71.6781988,0.733194888 C73.0506954,0.733194888 74.1733187,1.80302985 74.257644,3.15427514 L74.2627288,3.31772489 L74.2627288,7.97160191 C74.2627288,9.39899841 73.1055953,10.5561319 71.6781988,10.5561319 C70.3057021,10.5561319 69.1830789,9.48629695 69.0987535,8.13505165 L69.0936688,7.97160191 L69.0936688,3.31772489 C69.0936688,1.89032838 70.2508023,0.733194888 71.6781988,0.733194888 Z M68.5560311,20.9493524 L68.6905334,21.0748408 L78.8546284,31.2441048 C79.8636935,32.2536831 79.8632775,33.8901169 78.8536992,34.8991821 C77.8880156,35.8643748 76.3488007,35.9059591 75.3336939,35.024214 L75.1986219,34.8982529 L66.929,26.624 L66.6653268,26.895804 C60.757777,32.9091123 55.5524489,35.5253377 45.9880081,38.5210995 L42.7180356,39.5315562 C42.1537911,39.7091166 41.6852408,39.8609282 41.1797634,40.029463 C35.0070399,42.0875547 30.7581574,44.4744718 26.3147277,48.9200414 L7.48438461,67.7521075 C5.77552574,69.459905 5.7221239,72.2407625 7.32477369,74.0162206 L7.48503863,74.1848308 L25.7484172,92.4499352 C27.4636138,94.1608784 30.242748,94.2143454 32.0227314,92.6130412 L32.3036182,92.3410061 L51.0207833,73.620481 C56.2096035,68.4266231 58.3097384,64.3312799 61.2512821,55.23204 L62.1207716,52.5218092 C64.4637073,45.3294711 66.1301415,41.7008187 69.5555905,37.2469732 C70.425796,36.1155126 72.048467,35.9037234 73.1799276,36.7739289 C74.3113883,37.6441344 74.5231774,39.2668054 73.652972,40.398266 L73.2263498,40.9623654 C70.4508154,44.6974406 69.013181,47.9851906 66.8515769,54.6908845 L66.1589782,56.8551206 C62.9861135,66.6614932 60.5740479,71.3716456 54.6761345,77.275284 L35.8447473,96.110113 C32.1252092,99.8181283 26.1134906,99.8867953 22.308513,96.3133539 L22.0955239,96.1071938 L3.83044288,77.8403896 C0.116378521,74.1286321 0.0475995511,68.1057855 3.62383681,64.3087011 L4.68886968,63.2376961 L22.6585977,45.2660169 C27.7300496,40.1921227 32.6657152,37.4193878 39.5447934,35.1257854 L40.7279884,34.7397186 C41.4092197,34.5223584 42.1838087,34.2830328 43.3193703,33.935903 C53.9761977,30.6782178 58.5870692,28.2744883 64.9364825,21.1785066 C65.8847876,20.1186992 67.499781,20.0310346 68.5560311,20.9493524 Z M28.6310253,51.5544283 C31.0792916,49.1024656 34.227094,48.9066416 37.4638721,50.4377646 C39.6505599,51.4721537 41.8172794,53.2115209 44.2706559,55.6637461 C46.7191722,58.1088134 48.4618737,60.2782931 49.4973543,62.4665671 C51.028424,65.7021661 50.8352986,68.8500089 48.3855466,71.3046876 C43.2650883,76.4148896 33.8716976,77.4158898 28.1933435,71.7356446 C22.5845634,66.1287684 23.5607608,56.6145161 28.6310253,51.5544283 Z M40.3515154,59.0568652 C36.3187098,55.0866703 33.6343822,53.8591924 32.2856449,55.2099605 C29.0880098,58.4011812 28.4440514,64.6773532 31.8484148,68.0805613 C35.3163317,71.5496329 41.4808516,70.8927152 44.7304646,67.6496185 C46.1074469,66.2698629 44.791485,63.4888498 40.6172958,59.3205398 L40.6172958,59.3205398 Z M84.3962856,4.11342135 C85.405506,3.10350909 87.0424229,3.1032286 88.0519892,4.11279494 L88.0519892,4.11279494 L95.8159173,11.8767231 C96.8250557,12.8858614 96.8252659,14.521933 95.816387,15.5313307 L95.816387,15.5313307 L85.7625653,25.5903215 C84.7532404,26.6001653 83.1162878,26.6002848 82.1068155,25.5905884 L82.1068155,25.5905884 L74.3446104,17.8266603 C73.3357244,16.8175503 73.3355348,15.1817558 74.344187,14.1724121 L74.344187,14.1724121 Z M86.225,9.596 L79.827,15.998 L83.934,20.107 L90.333,13.704 L86.225,9.596 Z" id="Champagne-Bottle" fill="#00B077"></path>
    </g>
</svg>