<?xml version="1.0" encoding="UTF-8"?>
<svg width="100px" height="100px" viewBox="0 0 100 100" version="1.1" xmlns="http://www.w3.org/2000/svg" xmlns:xlink="http://www.w3.org/1999/xlink">
    <!-- Generator: Sketch 63.1 (92452) - https://sketch.com -->
    <title>Cheese</title>
    <desc>Created with Sketch.</desc>
    <g id="Cheese" stroke="none" stroke-width="1" fill="none" fill-rule="evenodd">
        <path d="M20.5055386,60.4142421 C15.8366636,60.4142421 12.0541255,64.1960128 12.0541255,68.8656552 C12.0541255,73.5312802 15.8378151,77.3118993 20.5055386,77.3118993 C25.1720169,77.3118993 28.9569517,73.5308032 28.9569517,68.8656552 C28.9569517,64.1964903 25.1731685,60.4142421 20.5055386,60.4142421 Z M20.5055386,65.5833021 C22.3188449,65.5833021 23.7878917,67.0517529 23.7878917,68.8656552 C23.7878917,70.6748353 22.3183974,72.1428393 20.5055386,72.1428393 C18.6916691,72.1428393 17.2231855,70.6755474 17.2231855,68.8656552 C17.2231855,67.0510406 18.6912218,65.5833021 20.5055386,65.5833021 Z M69.3121477,34.1836749 C60.4789852,34.1836749 53.3190761,41.3423129 53.3190761,50.1750235 C53.3190761,59.007734 60.4789852,66.1663721 69.3121477,66.1663721 C78.1450842,66.1663721 85.3034963,59.0079599 85.3034963,50.1750235 C85.3034963,41.342087 78.1450842,34.1836749 69.3121477,34.1836749 Z M96.6158118,42.9143895 C97.9883085,42.9143895 99.1109318,43.9842245 99.1952571,45.3354698 L99.2003418,45.4989195 L99.2003418,65.0345203 C99.2003418,69.9608509 95.4392465,74.6555171 90.6495287,75.7746121 L90.3773323,75.834116 L57.4486971,82.5401098 C55.9289247,82.8496151 54.4948742,81.7623079 54.3588907,80.2416274 L54.3493434,80.0770829 C54.26215,76.8366331 52.3388323,73.5790726 49.7178361,72.4405875 C45.7705256,70.729871 41.1882366,72.5445438 39.4787597,76.4956165 C38.7322871,78.2000807 38.8671782,80.8190884 39.7356816,83.0063739 C40.3105861,84.454244 39.4830537,86.0633528 38.0011963,86.4571339 L37.8399561,86.4946116 L10.8383298,91.8894232 C5.60795926,92.934043 1.13702213,89.3554327 0.991839665,84.0773015 L0.988201848,83.8119922 L0.988201848,64.6261645 C0.988201848,63.198768 2.14533534,62.0416345 3.57273185,62.0416345 C4.94522849,62.0416345 6.06785178,63.1114695 6.1521771,64.4627148 L6.15726185,64.6261645 L6.15726185,83.8119922 C6.15726185,85.9079276 7.61404336,87.1659607 9.63470695,86.854343 L9.82576891,86.8205079 L34.084,81.973 L34.0241339,81.633918 C33.6340589,79.2614201 33.7874618,76.8224265 34.6047061,74.7556885 L34.739279,74.4325189 C37.5779557,67.8714468 45.2048045,64.8510708 51.7752719,67.6986328 C55.4067287,69.2760315 58.0534448,72.8060612 59.0672353,76.7581665 L59.108,76.927 L89.3458985,70.7690073 C91.785202,70.2723217 93.9067592,67.7467285 94.0259998,65.2543017 L94.0312818,65.0345203 L94.0312818,45.4989195 C94.0312818,44.071523 95.1884153,42.9143895 96.6158118,42.9143895 Z M69.3121477,39.3527349 C75.2902912,39.3527349 80.1344363,44.19688 80.1344363,50.1750235 C80.1344363,56.1531669 75.2902912,60.9973121 69.3121477,60.9973121 C63.3335728,60.9973121 58.4881361,56.1527355 58.4881361,50.1750235 C58.4881361,44.1973114 63.3335728,39.3527349 69.3121477,39.3527349 Z M82.7573899,19.5278196 C88.6475121,23.1455485 93.3635862,27.0207955 95.7556312,30.3804236 C99.0705661,35.0362508 98.0730169,39.4962184 92.495336,41.0144689 L91.9472117,41.1540307 L87.6771326,42.2032327 C86.2903109,42.5411472 84.8921359,41.6908399 84.5542214,40.3040181 C84.2298235,38.9726693 85.0004908,37.6308572 86.2896343,37.2266773 L86.5403733,37.1599158 L90.9693172,36.0706158 C92.9134881,35.5882779 92.9650467,35.3731736 91.5448407,33.3784937 C89.9713433,31.1685161 86.8199974,28.4177381 82.7650984,25.6789172 C81.9642502,27.5263335 80.5454993,29.0652487 78.7024822,30.0126705 C74.3755566,32.2322321 69.0593102,30.5292247 66.8273782,26.197058 C65.3988012,23.4045455 65.5745483,20.126001 67.169672,17.5360831 C60.7374711,15.0952277 55.4658313,14.3283947 53.6854873,15.8822104 L46.5983695,22.0659506 C48.6511886,24.349158 49.8434001,27.343396 49.8434001,30.5382814 C49.8434001,37.5284974 44.1762134,43.1990324 37.1860952,43.1990324 C33.3892023,43.1990324 29.8851716,41.5131314 27.5204773,38.7167886 L12.479,51.843 L21.5988594,50.0752083 C29.9059595,48.4577827 38.6251857,46.7430426 47.5256784,44.9712703 C48.9256071,44.6925942 50.2863852,45.601549 50.5650613,47.0014777 C50.8437375,48.4014064 49.9347827,49.7621845 48.534854,50.0408607 L44.4372272,50.8550848 C35.5906333,52.6098113 26.9612514,54.3012068 18.779738,55.8890337 L4.05616956,58.7255869 C1.51930674,59.2084556 -0.0478260799,56.1037886 1.75627657,54.3474029 L50.2868652,11.9875282 C55.7104911,7.25399617 69.4173595,11.334337 82.7573899,19.5278196 Z M42.7041513,25.4664801 L31.4155162,35.3169345 C32.8155103,37.0092365 34.9101522,38.0299724 37.1860952,38.0299724 C41.3207367,38.0299724 44.6743401,34.6743876 44.6743401,30.5382814 C44.6743401,28.6188969 43.9504342,26.8250931 42.7041513,25.4664801 Z M72.0130994,19.593262 L71.9960526,19.6260596 C71.9670016,19.6761055 71.9360992,19.7254689 71.903334,19.7740599 L71.7994389,19.9174253 C70.9311067,21.0344446 70.7733698,22.5608394 71.425835,23.8362698 C72.3479713,25.6261212 74.5521171,26.3321977 76.3412342,25.4144443 C77.1498004,24.9987921 77.7577877,24.313453 78.0767882,23.4903369 L78.1504666,23.2817639 C78.1940541,23.145437 78.2478955,23.0152413 78.3108668,22.8917562 C76.2002563,21.6670683 74.0795506,20.5613021 72.0130994,19.593262 Z" fill="#00B077"></path>
    </g>
</svg>