<?xml version="1.0" encoding="UTF-8"?>
<svg width="100px" height="100px" viewBox="0 0 100 100" version="1.1" xmlns="http://www.w3.org/2000/svg" xmlns:xlink="http://www.w3.org/1999/xlink">
    <!-- Generator: Sketch 63.1 (92452) - https://sketch.com -->
    <title>CheeseGrater</title>
    <desc>Created with Sketch.</desc>
    <g id="CheeseGrater" stroke="none" stroke-width="1" fill="none" fill-rule="evenodd">
        <path d="M72.6616986,1.79677433 C78.6140895,1.79677433 83.9592982,6.47533588 84.7904401,12.3493038 L84.8282174,12.6439823 L93.2968607,86.2117672 C93.4600953,87.6297994 92.4428809,88.9116694 91.0248487,89.074904 C89.6613563,89.2318603 88.4237534,88.2974252 88.1854552,86.964688 L88.1617119,86.802892 L79.6930164,13.2346526 C79.3108437,9.9095071 76.2316476,7.09639961 72.8948833,6.97024862 L72.6616986,6.96583433 L26.3796584,6.96583433 C23.0328122,6.96583433 19.8905046,9.7023165 19.3879387,13.0031541 L19.3571896,13.2343335 L10.25647,92.9687743 L96.04308,92.9695161 C97.4704765,92.9695161 98.62761,94.1266496 98.62761,95.5540461 C98.62761,96.9265428 97.557775,98.049166 96.2065297,98.1334914 L96.04308,98.1385761 L3,98.1385761 C1.5726035,98.1385761 0.41547,96.9814426 0.41547,95.5540461 C0.41547,94.1815495 1.48530496,93.0589262 2.83655025,92.9746009 L3,92.9695161 L5.05347,92.9687743 L14.221372,12.6490486 C14.8945647,6.73317884 20.1501149,1.95570716 26.0824935,1.8006586 L26.3796584,1.79677433 L72.6616986,1.79677433 Z M43,74 C44.6568542,74 46,75.3431458 46,77 C46,78.6568542 44.6568542,80 43,80 C41.3431458,80 40,78.6568542 40,77 C40,75.3431458 41.3431458,74 43,74 Z M57,74 C58.6568542,74 60,75.3431458 60,77 C60,78.6568542 58.6568542,80 57,80 C55.3431458,80 54,78.6568542 54,77 C54,75.3431458 55.3431458,74 57,74 Z M50,63 C51.6568542,63 53,64.3431458 53,66 C53,67.6568542 51.6568542,69 50,69 C48.3431458,69 47,67.6568542 47,66 C47,64.3431458 48.3431458,63 50,63 Z M43,52 C44.6568542,52 46,53.3431458 46,55 C46,56.6568542 44.6568542,58 43,58 C41.3431458,58 40,56.6568542 40,55 C40,53.3431458 41.3431458,52 43,52 Z M57,52 C58.6568542,52 60,53.3431458 60,55 C60,56.6568542 58.6568542,58 57,58 C55.3431458,58 54,56.6568542 54,55 C54,53.3431458 55.3431458,52 57,52 Z M50,41 C51.6568542,41 53,42.3431458 53,44 C53,45.6568542 51.6568542,47 50,47 C48.3431458,47 47,45.6568542 47,44 C47,42.3431458 48.3431458,41 50,41 Z M69.0259541,12.7096938 C72.1941645,12.7096938 74.9356176,15.1729752 75.3003497,18.3003399 L75.3223336,18.5248282 L76.1597213,29.0438653 C76.2729935,30.4667603 75.2113345,31.7120699 73.7884395,31.8253421 C72.4202712,31.9342577 71.2162907,30.9568833 71.0250021,29.6165911 L71.0069627,29.4540603 L70.169514,18.9342559 C70.1291387,18.4251564 69.6452628,17.9469164 69.1354456,17.8854137 L69.0259541,17.8787538 L30.0167813,17.8787538 C29.506028,17.8787538 28.9917448,18.322459 28.8901491,18.8266537 L28.8748469,18.9354816 L28.3099779,26.015257 C28.2823245,26.3679987 28.4792206,26.6159008 28.8054897,26.6580586 L28.9071564,26.6644328 L65.8039067,26.6644328 C67.2313032,26.6644328 68.3884367,27.8215663 68.3884367,29.2489628 C68.3884367,30.6214594 67.3186017,31.7440827 65.9673564,31.828408 L65.8039067,31.8336258 L28.9071564,31.8336258 C25.5797635,31.8336258 23.0048908,29.1248303 23.1437141,25.8283199 L23.1570108,25.607705 L23.7220639,18.5255954 C23.9725704,15.3669093 26.6444986,12.8301398 29.7912333,12.7138588 L30.0167813,12.7096938 L69.0259541,12.7096938 Z" id="Cheese-grater" fill="#00B077"></path>
    </g>
</svg>