<?xml version="1.0" encoding="UTF-8"?>
<svg width="100px" height="100px" viewBox="0 0 100 100" version="1.1" xmlns="http://www.w3.org/2000/svg" xmlns:xlink="http://www.w3.org/1999/xlink">
    <!-- Generator: Sketch 63.1 (92452) - https://sketch.com -->
    <title>ChefHat</title>
    <desc>Created with Sketch.</desc>
    <g id="ChefHat" stroke="none" stroke-width="1" fill="none" fill-rule="evenodd">
        <path d="M77.0007799,60.3055957 C78.3732765,60.3055957 79.4958998,61.3754307 79.5802251,62.726676 L79.5853099,62.8901257 L79.5853099,82.0656153 C79.5853099,87.1936896 75.4723217,91.3950929 70.377726,91.5384444 L70.1086999,91.5422253 L30.1087906,91.5422253 C24.9807163,91.5422253 20.779313,87.4292371 20.6359614,82.3346414 L20.6321806,82.0656153 L20.6321806,62.8901257 C20.6321806,61.4627292 21.7893141,60.3055957 23.2167106,60.3055957 C24.5892072,60.3055957 25.7118305,61.3754307 25.7961558,62.726676 L25.8012406,62.8901257 L25.8012406,82.0656153 C25.8012406,84.3593555 27.6328543,86.2584322 29.9013948,86.3681583 L30.1087906,86.3731653 L70.1086999,86.3731653 C72.4024401,86.3731653 74.3015167,84.5415516 74.4112429,82.2730111 L74.4162499,82.0656153 L74.4162499,62.8901257 C74.4162499,61.4627292 75.5733834,60.3055957 77.0007799,60.3055957 Z M34.9179309,46.2496335 C38.667829,50.7180655 44.1755085,53.3489025 50.109779,53.3489025 C55.7122609,53.3489025 60.9365216,51.007827 64.6685768,46.9630649 C65.6365313,45.9140059 67.2716439,45.8482578 68.3207029,46.8162124 C69.3697618,47.784167 69.4355099,49.4192795 68.4675554,50.4683385 C63.7675079,55.5622005 57.1715346,58.5179625 50.109779,58.5179625 C42.6296917,58.5179625 35.6793274,55.1980026 30.9583925,49.5724692 C30.0408168,48.4790729 30.1833475,46.8488579 31.2767439,45.9312822 C32.3701402,45.0137064 34.0003552,45.1562372 34.9179309,46.2496335 Z M50.1106405,8.57484935 C59.9329588,8.57484935 68.6607186,14.2940202 72.7143076,22.9040591 C75.1613978,21.7060692 77.9669248,21.039176 80.8251951,21.039176 C90.9807226,21.039176 99.2167105,29.2720638 99.2167105,39.4272455 C99.2167105,49.5812555 90.9801708,57.8153149 80.8251951,57.8153149 C77.9563594,57.8153149 75.170199,57.1508523 72.639869,55.8980304 C71.3606805,55.2646761 70.8371285,53.7142538 71.4704828,52.4350654 C72.103837,51.1558769 73.6542593,50.6323249 74.9334477,51.2656792 C76.7573517,52.1687341 78.759646,52.6462549 80.8251951,52.6462549 C88.1257263,52.6462549 94.0476505,46.726114 94.0476505,39.4272455 C94.0476505,32.1272925 88.1263651,26.208236 80.8251951,26.208236 C77.9159005,26.208236 75.0822464,27.1697707 73.0145642,28.7612056 C71.8834162,29.6318174 70.2606692,29.420611 69.3900574,28.289463 C69.1617221,27.9927969 69.0078002,27.6623159 68.9253715,27.3204574 C68.907898,27.2754045 68.8907805,27.2292261 68.8748794,27.1822916 C66.1758025,19.2155864 58.6666268,13.7439093 50.1106405,13.7439093 C41.49752,13.7439093 33.9535735,19.282503 31.2974774,27.3222419 L31.2827566,27.363378 C31.1980361,27.6899576 31.0475771,28.0052302 30.8288115,28.289463 C29.9581997,29.420611 28.3354527,29.6318174 27.2043046,28.7612056 C25.1366225,27.1697707 22.3029684,26.208236 19.3936738,26.208236 C12.0918351,26.208236 6.17294133,32.1262384 6.17294133,39.4272455 C6.17294133,46.7271681 12.0924739,52.6462549 19.3936738,52.6462549 C21.4576507,52.6462549 23.4648135,52.1678353 25.2846719,51.2660503 C26.5636554,50.6322822 28.1142469,51.1553327 28.748015,52.4343162 C29.3817831,53.7132997 28.8587326,55.2638912 27.5797491,55.8976593 C25.052636,57.1499065 22.2609802,57.8153149 19.3936738,57.8153149 C9.23776798,57.8153149 1.00388133,49.5820483 1.00388133,39.4272455 C1.00388133,29.2712711 9.2372164,21.039176 19.3936738,21.039176 C22.251944,21.039176 25.057471,21.7060692 27.5061716,22.9034483 C31.5559393,14.296681 40.2814114,8.57484935 50.1106405,8.57484935 Z" id="Chef-hat" fill="#00B077"></path>
    </g>
</svg>