<?xml version="1.0" encoding="UTF-8"?>
<svg width="100px" height="100px" viewBox="0 0 100 100" version="1.1" xmlns="http://www.w3.org/2000/svg" xmlns:xlink="http://www.w3.org/1999/xlink">
    <!-- Generator: Sketch 63.1 (92452) - https://sketch.com -->
    <title>Chick</title>
    <desc>Created with Sketch.</desc>
    <g id="Chick" stroke="none" stroke-width="1" fill="none" fill-rule="evenodd">
        <path d="M66.0722347,52.0894734 L66.2198647,52.1919916 L74.398,58.296 L76.8809922,57.1328397 L80.8741472,55.2748833 C82.8268786,54.3719523 84.3574191,53.6749974 85.3446702,53.2424227 C86.6573689,52.6672498 88.1877913,53.2651325 88.7629643,54.5778312 C89.3381372,55.8905299 88.7402545,57.4209523 87.4275558,57.9961253 L85.8728237,58.6918339 C85.1673412,59.0118165 84.3375395,59.3921912 83.4007546,59.8246992 L79.9876116,61.4099575 L75.2015524,63.6545074 C74.3917034,64.0365175 73.4468085,63.9724069 72.6993238,63.4956032 L72.5422913,63.3871264 L64.923,57.7 L64.4124904,58.1921571 C63.5965276,58.965083 62.7412986,59.7327014 61.8588976,60.4737604 L61.1921911,61.0242427 C59.4465154,62.4408018 57.735209,63.6328839 56.0831985,64.5308702 C53.948117,65.6914402 51.9570499,66.341814 50.080333,66.341814 C48.201071,66.341814 46.2067439,65.6889468 44.0672797,64.5241341 C42.4193609,63.626939 40.7121956,62.437322 38.9706402,61.0244204 C37.8514274,60.1164174 36.7698398,59.1586149 35.7495363,58.1925207 L35.342,57.802 L28.9085888,63.2557728 C28.2319411,63.8294215 27.3131223,64.0149776 26.4729207,63.7583542 L26.2941977,63.6965757 L23.9390072,62.7774544 L21.8286044,61.9450868 C21.1300548,61.6681707 20.4389024,61.3927104 19.7625849,61.1214539 L17.3931576,60.1630115 L16.245,59.691 L16.2414556,59.9706952 C16.1750842,67.810184 18.4277542,75.3812863 22.776633,81.2549001 L23.0834415,81.661915 C28.9553049,89.3135023 38.1092989,93.642944 50.139153,93.642944 C69.4419286,93.642944 81.4987973,82.2597977 83.7148268,65.4745137 C83.9024105,64.0536639 85.2063035,63.0539042 86.6271533,63.2414878 C88.0480031,63.4290715 89.0477628,64.7329645 88.8601792,66.1538143 C86.3135692,85.4430747 72.1312078,98.832944 50.139153,98.832944 C36.5261368,98.832944 25.8399183,93.7788267 18.966092,84.821588 C12.8477662,76.8488371 10.182909,66.2140744 11.2975057,55.5856325 C11.482068,53.8257051 13.3352986,52.7626576 14.9476587,53.4918369 L15.674932,53.8146019 C16.3781346,54.1217764 17.2300397,54.4820227 18.209867,54.8874436 L20.7034994,55.9056283 L22.7106861,56.7107189 C23.393648,56.9829658 24.0879899,57.2581627 24.7861521,57.53351 L26.731,58.297 L33.8148772,52.2922052 C34.8284273,51.4329371 36.3172919,51.4829236 37.270709,52.3810585 L37.3973066,52.5087828 L37.7443185,52.8723991 L38.3259388,53.4612855 C38.465397,53.6000769 38.61147,53.7438524 38.7637753,53.8920099 C39.8528873,54.9514616 41.0286946,56.0108991 42.2404708,56.9939976 C43.7546446,58.2224274 45.2123351,59.238201 46.5489621,59.965916 C47.9945423,60.7529496 49.2129618,61.151814 50.080333,61.151814 C50.9470888,61.151814 52.1627502,60.7547232 53.6045753,59.9709878 C54.9437774,59.2430354 56.404556,58.2254689 57.9219224,56.9941753 C59.1333396,56.0111496 60.3086579,54.9517868 61.3972077,53.8924116 L62.0388702,53.2573656 L62.6670155,52.6114087 C62.708673,52.5674538 62.7407395,52.5332328 62.7628393,52.5093448 C63.6233894,51.5791627 65.0216035,51.4121171 66.0722347,52.0894734 Z M50.146073,0.933282 C64.2077001,0.933282 75.7337326,11.2280132 75.9628471,24.1384635 L75.966323,24.530482 C75.966323,31.2305075 76.852539,37.0758615 78.3225681,42.0284348 C78.6613594,43.1698332 79.014654,44.2049711 79.3712512,45.1322321 L79.482,45.414 L79.8670916,45.1733424 C81.9681377,43.8430333 84.0700944,42.286301 86.0226671,40.5255105 C89.4509201,37.4339815 92.0052944,34.0915845 93.4071784,30.5645454 L93.565,30.15 L93.0781734,30.0742128 C90.7621009,29.7192946 88.6907764,29.4761179 86.85515,29.3301614 L86.3603616,29.2927545 L85.6267659,29.2446926 C84.3297812,29.1679965 83.2956645,29.1528095 82.5111098,29.1779008 L82.0219025,29.2005563 L81.8496285,29.2134233 C80.4260973,29.3794375 79.137516,28.3600187 78.9715017,26.9364875 C78.8054875,25.5129563 79.8249063,24.224375 81.2484375,24.0583607 L81.4248374,24.0408356 C81.5298583,24.0317671 81.6602283,24.0224245 81.8164767,24.0136389 L82.3399591,23.9899605 C85.4939753,23.8801695 90.4087881,24.2729321 97.3127587,25.5216867 C98.744041,25.7805696 99.6830667,27.1651148 99.3941869,28.5906455 C98.2001529,34.4828249 94.6397908,39.7433764 89.4983823,44.3797944 C87.3112593,46.3520976 84.9778277,48.0802626 82.6434855,49.5582867 L82.0958977,49.9006454 C80.9454863,50.610591 80.0341309,51.1132545 79.45676,51.4012805 C78.2239267,52.016289 76.7253879,51.5606912 76.0434981,50.3635531 L75.8353638,49.977095 C75.6515798,49.6203627 75.4186018,49.1328618 75.1498021,48.5163907 C74.5306765,47.0964741 73.9167209,45.4242643 73.3471179,43.5052542 C71.7996458,38.291773 70.8512372,32.2282601 70.7805718,25.3586959 L70.776323,24.530482 C70.776323,14.4264779 61.5934372,6.123282 50.146073,6.123282 C38.8208677,6.123282 29.7131613,14.2503974 29.520662,24.2086216 L29.517553,24.530482 C29.517553,31.741819 28.556129,38.0832337 26.9467581,43.5052542 C26.3771551,45.4242643 25.7631995,47.0964741 25.1440739,48.5163907 L24.9227587,49.013168 C24.6402004,49.6333132 24.4094198,50.0843363 24.2503779,50.3635531 C23.5686173,51.5604643 22.0704809,52.016153 20.8377211,51.4015823 L20.5477098,51.2534466 C19.8694349,50.8995812 18.8715706,50.3322123 17.6491069,49.5586958 C15.3133178,48.0807202 12.978434,46.3526076 10.7899426,44.3803577 C5.64520792,39.7439662 2.08250865,34.4833953 0.887644692,28.5909689 C0.598552191,27.1653202 1.53763376,25.7805448 2.96907867,25.5216738 L4.13337549,25.3159229 C10.8120762,24.1638538 15.5170518,23.8475822 18.474741,24.013626 L18.8666687,24.0407958 C18.9367222,24.0468337 18.9954925,24.0527485 19.043135,24.0582939 C20.4667031,24.2239915 21.4864087,25.5123459 21.3207111,26.935914 C21.1613864,28.3047295 19.9641025,29.3001513 18.6066926,29.2273928 L18.270026,29.2005764 L18.1838339,29.1954667 C17.2353156,29.1422172 15.8271442,29.1567085 13.925846,29.2927653 C12.1463286,29.4201074 10.1361004,29.6417697 7.88640445,29.9719157 L6.716,30.15 L6.8750824,30.5640904 C8.22174429,33.9499305 10.6312557,37.1657101 13.8569606,40.1527604 L14.2644069,40.5249461 C16.0012128,42.0901409 17.8561367,43.4941037 19.723549,44.7211249 L20.6065436,45.2877276 L20.811,45.415 L20.9226248,45.1322321 C21.2197891,44.3595146 21.51466,43.5118826 21.8007555,42.5902715 L21.9713079,42.0284348 C23.3825358,37.2739644 24.2557216,31.6967073 24.3233185,25.3303802 L24.327553,24.530482 C24.327553,11.4368054 35.9426868,0.933282 50.146073,0.933282 Z M56.0560343,27.1353551 C57.3439778,27.7640072 57.878439,29.3177149 57.2497869,30.6056583 C56.7791421,31.5698863 55.9748825,32.9348095 54.8770379,34.3218662 C53.8415763,35.6301061 52.7262363,36.7004195 51.494282,37.4492394 C50.665973,37.9527112 49.6261141,37.9525678 48.7979441,37.4488674 C47.5668381,36.7000977 46.4519673,35.6299592 45.4166075,34.3219229 C44.3188959,32.9351137 43.5143737,31.5704356 43.0434416,30.6064582 C42.4143478,29.3187304 42.9482761,27.7648395 44.2360038,27.1357456 C45.4722225,26.5318156 46.9537371,26.9997266 47.6268623,28.1774249 L47.8764649,28.6524857 C47.9536982,28.7938438 48.0510972,28.9663005 48.1672082,29.1632547 C48.5590939,29.8279944 49.0043379,30.4922061 49.4860611,31.1007977 C49.6915343,31.3603852 49.8976338,31.6018663 50.1025567,31.8231213 L50.147,31.869 L50.1911232,31.8230051 C50.327724,31.6755373 50.4648385,31.5190825 50.6019335,31.3542678 L50.8074946,31.1008544 C51.2890776,30.492405 51.7340924,29.82834 52.1256918,29.1637497 L52.416183,28.6531349 C52.4933393,28.5118275 52.5503384,28.401618 52.5857311,28.3291077 C53.2143832,27.0411642 54.7680909,26.506703 56.0560343,27.1353551 Z M59.0913846,17.249258 C61.0034534,17.249258 62.55,18.795186 62.55,20.70649 C62.55,22.615026 61.0034534,24.169258 59.0913846,24.169258 C57.1807003,24.169258 55.63,22.615026 55.63,20.70649 C55.63,18.795186 57.1807003,17.249258 59.0913846,17.249258 Z M40.0586154,17.249258 C41.9706843,17.249258 43.52,18.795186 43.52,20.70649 C43.52,22.615026 41.9706843,24.169258 40.0586154,24.169258 C38.1465466,24.169258 36.6,22.615026 36.6,20.70649 C36.6,18.795186 38.1465466,17.249258 40.0586154,17.249258 Z" fill="#00B077"></path>
    </g>
</svg>