<?xml version="1.0" encoding="UTF-8"?>
<svg width="100px" height="100px" viewBox="0 0 100 100" version="1.1" xmlns="http://www.w3.org/2000/svg" xmlns:xlink="http://www.w3.org/1999/xlink">
    <!-- Generator: Sketch 63.1 (92452) - https://sketch.com -->
    <title>ChiliPepper</title>
    <desc>Created with Sketch.</desc>
    <g id="ChiliPepper" stroke="none" stroke-width="1" fill="none" fill-rule="evenodd">
        <path d="M81.9223453,8.76753983 L82.0963766,8.77615926 C82.5784081,8.81622966 83.3709646,8.91267332 84.3753968,9.08653876 C86.0472743,9.37593781 87.722754,9.78655478 89.3100436,10.3469289 C92.3151699,11.4078536 94.6827668,12.8798447 96.1475712,14.9641513 C96.9683051,16.131994 96.6869178,17.7440539 95.5190751,18.5647878 C94.3998925,19.3513245 92.8727396,19.12567 92.0250624,18.0776395 L91.9184386,17.9362917 C91.1897409,16.8994097 89.6744128,15.9572943 87.5892554,15.2211538 C86.4870212,14.8320229 85.2987981,14.5238198 84.0960223,14.2903766 L83.608,14.2 L83.3370082,14.9653388 C82.8970283,16.2063222 82.4570737,17.4567533 82.027802,18.6884656 L80.9469134,21.8181367 L80.2709325,23.8120369 C79.3374567,26.591238 78.6655872,28.7134846 78.342042,29.939372 C77.9383984,31.4687464 76.2679853,32.280023 74.8163973,31.6516868 C70.2601436,29.6794614 66.4837512,30.6305808 63.6609422,33.8908336 C61.6681263,36.1913746 61.0684665,38.4637128 60.5984837,44.129185 L60.4400476,46.0557486 C60.2318031,48.4645797 60.0583983,49.7757677 59.7069187,51.4313427 C58.6563396,56.3798869 56.4112688,60.4190741 52.2579511,63.9767318 C48.9465595,66.8128549 45.4067672,68.9213681 41.6567295,70.3594258 C32.9906848,73.6826648 24.6331234,73.3743718 13.8015281,70.7531151 L9.464,69.651 L9.80403872,70.0505006 C21.3405516,83.4805445 38.0754726,88.8873495 55.0904858,85.59003 L55.6706443,85.4742484 C74.479239,81.6118828 89.5562209,67.8253772 93.6751568,49.4528474 C94.7341204,44.7280955 93.4162084,41.0762978 90.3922441,38.1518944 C89.2956198,37.0913753 88.0439112,36.2055646 86.7653074,35.507708 C86.4049098,35.3110045 86.0641263,35.141577 85.7600715,35.0035837 L85.3752636,34.8376798 L85.292,34.805 L85.1630313,34.7663733 C84.0900417,34.4175954 83.230701,33.4394554 83.4303757,32.0008459 L83.4594741,31.8260133 L83.645648,30.8909507 C84.3916733,27.2517503 85.166264,24.8041059 86.4234596,22.7903248 C87.1793652,21.5795121 88.7737054,21.210737 89.9845182,21.9666426 C91.1953309,22.7225482 91.564106,24.3168885 90.8082004,25.5277012 C90.1095315,26.646832 89.5574421,28.2155713 89.0301551,30.4659026 L88.95,30.814 L89.2417161,30.9704642 C90.7380564,31.7871604 92.2042616,32.8005428 93.543911,34.0214796 L93.9856413,34.4361606 C98.2350324,38.545645 100.198008,43.9848465 98.7190474,50.5834883 C94.1385522,71.014805 77.4446224,86.2798599 56.7104197,90.5376513 C35.3508085,94.923871 14.1559839,86.8274295 1.41433586,67.4827981 C0.367643059,65.8936876 1.33896446,63.7565938 3.22445895,63.5001793 C4.455238,63.3328016 5.86119033,63.4930706 7.87600803,63.9379895 L8.26102737,64.0247371 C9.37971058,64.2815155 13.8385026,65.4384686 14.4061217,65.5792845 C24.6140311,68.1116792 32.1845778,68.4556909 39.8059273,65.5330697 C43.0043044,64.3065619 46.0328059,62.5026042 48.8953622,60.0508972 C52.0315207,57.3645198 53.708164,54.449942 54.5621702,50.7565939 L54.650552,50.357873 C54.9783228,48.8139737 55.1312181,47.5592819 55.3522013,44.8737513 L55.4877462,43.2238674 C56.0455908,36.8219696 56.8841775,33.8192849 59.753512,30.5068759 C63.346004,26.3576639 68.2870031,24.5985304 73.7377483,25.8647701 L74.13,25.961 L74.5298324,24.709897 C74.8329523,23.7747021 75.1791346,22.731946 75.5645177,21.5912257 L76.2980636,19.4390614 C76.7119977,18.2342223 77.1434679,16.9927244 77.5819373,15.7423594 L78.7659729,12.3909036 L79.4507484,10.4757296 C79.8271041,9.43116681 80.8249089,8.7500305 81.9223453,8.76753983 Z M34.5682198,33.6863498 L34.7313645,33.6975516 L45.7259551,34.7968384 C47.1462699,34.9388476 48.1825413,36.2053615 48.0405321,37.6256763 C47.9039848,38.9913636 46.7277697,40.0019812 45.3748389,39.9514551 L45.2116942,39.9402533 L34.2171036,38.8409665 C32.7967888,38.6989573 31.7605174,37.4324434 31.9025266,36.0121286 C32.0390739,34.6464413 33.215289,33.6358237 34.5682198,33.6863498 Z M40.651271,18.6263524 L40.8021452,18.7190066 L49.6946514,24.6013969 C50.8851485,25.3889104 51.2118313,26.9924048 50.4243178,28.1829018 C49.6696174,29.3237949 48.1655179,29.6713584 46.9936871,29.0052224 L46.8428129,28.9125682 L37.9503067,23.0301779 C36.7598096,22.2426645 36.4331268,20.6391701 37.2206403,19.448673 C37.9753407,18.30778 39.4794402,17.9602164 40.651271,18.6263524 Z M55.4283447,9.79145797 L55.5044087,9.94351684 L59.4535705,18.5207104 C60.0505432,19.8172768 59.4834105,21.3522935 58.1868441,21.9492662 C56.9421404,22.52236 55.4776809,22.0226142 54.8343524,20.8345987 L54.7582883,20.6825398 L50.8091265,12.1053462 C50.2121538,10.8087799 50.7792865,9.27376315 52.0758529,8.67679044 C53.3205566,8.10369664 54.7850162,8.60344241 55.4283447,9.79145797 Z" fill="#00B077"></path>
    </g>
</svg>