<?xml version="1.0" encoding="UTF-8"?>
<svg width="100px" height="100px" viewBox="0 0 100 100" version="1.1" xmlns="http://www.w3.org/2000/svg" xmlns:xlink="http://www.w3.org/1999/xlink">
    <!-- Generator: Sketch 63.1 (92452) - https://sketch.com -->
    <title>ChristmasTree</title>
    <desc>Created with Sketch.</desc>
    <g id="ChristmasTree" stroke="none" stroke-width="1" fill="none" fill-rule="evenodd">
        <path d="M50.157664,1.397674 C47.8992921,1.397674 43.4180633,4.58563271 38.2966249,9.1578795 L37.6488871,9.73971467 C32.0323352,14.8176516 29.2140046,18.274133 30.1661771,20.9943662 C31.8811384,25.8825283 40.0740008,28.1853921 50.1806203,28.1635194 C60.2530446,28.1414081 68.4532219,25.8207988 70.1466626,20.9965296 C71.1355074,18.1715314 68.0635039,14.556105 62.0172394,9.15792415 L61.3530216,8.56954154 C56.5106351,4.31447849 52.3172085,1.397674 50.157664,1.397674 Z M83.9929129,53.6640942 L84.7964744,54.2456888 C94.4761144,61.294192 100.579265,67.3251454 99.2612655,71.0859134 C90.5615417,95.9257396 9.67138431,95.6842153 1.05309307,71.0841315 C-0.284373828,67.2564144 5.97829916,61.1654315 15.9905111,53.903458 C17.150656,53.0619915 18.7732825,53.3203313 19.614749,54.4804761 C20.4562155,55.640621 20.1978757,57.2632475 19.0377309,58.104714 C15.3482157,60.7807622 11.8100385,63.6839607 9.31987775,66.1058541 C8.03220571,67.3582248 7.06233731,68.445546 6.48198597,69.2825654 C6.37724124,69.4336348 6.2894858,69.570557 6.21882979,69.690405 L6.134,69.841 L6.18192104,69.9634993 C14.3468642,89.1524853 85.8931866,89.3635467 94.1309054,69.9696968 L94.18,69.84 L94.1526582,69.7873017 C94.0903143,69.6747442 94.0102042,69.5438122 93.9124891,69.397489 L93.8089116,69.246146 C93.2073119,68.3871664 92.2062308,67.2734802 90.8810273,65.9931022 C88.3210275,63.5196957 84.6967237,60.5642226 80.9617891,57.8769778 C79.7984334,57.039956 79.5338875,55.4183297 80.3709092,54.2549741 C81.207931,53.0916184 82.8295573,52.8270725 83.9929129,53.6640942 Z M50.1531064,64.2958329 L51.153104,64.2980366 C53.0640046,64.3022314 54.6096951,65.8547231 54.6055088,67.7656237 C54.6013054,69.6765243 53.0488138,71.2222148 51.1379132,71.2180285 L51.1379132,71.2180285 L50.1379156,71.2158247 C48.227015,71.2116299 46.6813245,69.6591383 46.6855108,67.7482377 C46.6897142,65.837337 48.2422058,64.2916466 50.1531064,64.2958329 L50.1531064,64.2958329 Z M35.4894818,66.5641603 C35.7390615,64.6696238 37.4772112,63.3361228 39.3717478,63.5857025 L39.3717478,63.5857025 L40.3631818,63.7163106 C42.2577184,63.9658904 43.5912194,65.7040401 43.3416396,67.5985766 C43.0920599,69.4931132 41.3539102,70.8266142 39.4593737,70.5770344 L39.4593737,70.5770344 L38.4679396,70.4464263 C36.573403,70.1968466 35.2399021,68.4586969 35.4894818,66.5641603 Z M61.9574189,63.4998191 C63.8527856,63.2566242 65.5864323,64.5959742 65.8296271,66.4913409 C66.072822,68.3867077 64.733472,70.1203544 62.8381052,70.3635492 L62.8381052,70.3635492 L61.8462367,70.490816 C59.95087,70.7340108 58.2172233,69.3946609 57.9740285,67.4992941 C57.7308336,65.6039274 59.0701836,63.8702807 60.9655504,63.6270859 L60.9655504,63.6270859 Z M24.5769193,63.7847192 C25.1075052,61.9489531 27.0258126,60.8908954 28.8615788,61.4214813 L28.8615788,61.4214813 L29.8222576,61.6991434 C31.6580238,62.2297293 32.7160814,64.1480367 32.1854955,65.9838029 C31.6549096,67.819569 29.7366022,68.8776267 27.900836,68.3470408 L27.900836,68.3470408 L26.9401572,68.0693787 C25.1043911,67.5387928 24.0463334,65.6204854 24.5769193,63.7847192 Z M72.4038695,61.2225008 C74.2405068,60.6949381 76.1570695,61.7561526 76.6846323,63.5927899 C77.212195,65.4294271 76.1509805,67.3459899 74.3143432,67.8735526 L74.3143432,67.8735526 L73.3532086,68.1496326 C71.5165713,68.6771954 69.6000086,67.6159808 69.0724458,65.7793436 C68.5448831,63.9427063 69.6060976,62.0261436 71.4427349,61.4985808 L71.4427349,61.4985808 Z M68.8176742,27.8153655 C71.608092,29.3408646 75.5921256,32.1397003 78.9104823,34.8925025 L79.3393835,35.2511941 C84.2365973,39.3805835 86.4677556,41.9762386 85.5332175,44.6412467 C79.1530569,62.8595804 21.1000679,62.6855746 14.7821145,44.6402695 C13.862913,42.0121599 15.9985989,39.4898778 20.7125623,35.473814 C23.9639818,32.7037655 28.0551562,29.7728529 31.0286042,28.0808413 C32.2742315,27.3720293 33.8586176,27.807204 34.5674297,29.0528312 C35.2762417,30.2984585 34.841067,31.8828446 33.5954398,32.5916567 C30.9221426,34.1128703 27.0934415,36.8557474 24.0783292,39.424474 C22.5206518,40.751538 21.2668851,41.9576558 20.4665323,42.9028865 L20.2171076,43.207841 C20.1415494,43.3038474 20.0736578,43.3939613 20.0136828,43.4774409 L19.949,43.568 L20.018186,43.7153676 C26.29044,56.0899919 73.9710667,56.2294475 80.294637,43.7229448 L80.365,43.569 C80.2508906,43.4024318 80.1041207,43.2101796 79.925626,42.9952116 L79.7858414,42.8298211 C78.9382722,41.8437875 77.6195862,40.589843 75.9937505,39.2189189 C72.8437027,36.5627608 68.9095311,33.7805258 66.3280898,32.3692725 C65.0705631,31.6817927 64.6084487,30.1050535 65.2959285,28.8475268 C65.9834083,27.5900001 67.5601475,27.1278857 68.8176742,27.8153655 Z M39.8562146,36.2488698 C40.0403305,34.346855 41.7314735,32.9542228 43.6334882,33.1383386 L43.6334882,33.1383386 L44.6288358,33.2346887 C46.5308505,33.4188045 47.9234827,35.1099476 47.7393669,37.0119623 C47.555251,38.9139771 45.864108,40.3066093 43.9620933,40.1224935 L43.9620933,40.1224935 L42.9667458,40.0261434 C41.064731,39.8420275 39.6720988,38.1508845 39.8562146,36.2488698 Z M50.157,6.688 L50.34285,6.78095026 L50.4877451,6.85830654 C51.0607955,7.17087153 51.8064419,7.65089384 52.6702102,8.26546215 C54.419073,9.50977231 56.5364474,11.2221361 58.5607136,13.0294264 C60.6525201,14.8970175 62.4963519,16.7323555 63.7452666,18.2021972 L63.9447422,18.4399988 C64.3309423,18.9066229 64.6400967,19.3184248 64.8624984,19.6583609 L64.915,19.741 L64.875606,19.7808571 C64.7053078,19.9417892 64.4768949,20.1182917 64.1838729,20.3040361 C63.377323,20.815302 62.2298023,21.2914835 60.8087086,21.6936459 C57.9225221,22.5104223 54.1166811,22.9647711 50.1693077,22.9733752 L49.7612208,22.9726237 C42.8454638,22.9320647 37.0573906,21.4825513 35.4520666,19.8569776 L35.376,19.776 L35.4510997,19.6583706 C35.710571,19.2617794 36.0881237,18.7673721 36.5683423,18.2022162 C37.8173069,16.7323443 39.6612122,14.8969935 41.7530506,13.029471 C43.7774768,11.2221319 45.8949767,9.50980595 47.6439858,8.26555595 C48.5078575,7.65099524 49.2536112,7.17098747 49.8267817,6.85843207 L50.1041245,6.71371771 L50.157,6.688 Z M54.589924,93.467755 C56.0231029,93.467755 57.184924,94.6295761 57.184924,96.062755 C57.184924,97.4408117 56.1107551,98.5679827 54.7540359,98.6526497 L54.589924,98.657755 L45.725404,98.657755 C44.2922251,98.657755 43.130404,97.4959339 43.130404,96.062755 C43.130404,94.6846983 44.2045729,93.5575273 45.5612921,93.4728603 L45.725404,93.467755 L54.589924,93.467755 Z M56.8466129,33.1612144 C58.7514488,33.0090329 60.4189908,34.42984 60.5711722,36.3346759 C60.7233537,38.2395118 59.3025466,39.9070537 57.3977107,40.0592352 L57.3977107,40.0592352 L56.4008869,40.1388736 C54.496051,40.291055 52.828509,38.8702479 52.6763276,36.9654121 C52.5241461,35.0605762 53.9449533,33.3930342 55.8497891,33.2408528 L55.8497891,33.2408528 Z" fill="#00B077"></path>
    </g>
</svg>