<?xml version="1.0" encoding="UTF-8"?>
<svg width="100px" height="100px" viewBox="0 0 100 100" version="1.1" xmlns="http://www.w3.org/2000/svg" xmlns:xlink="http://www.w3.org/1999/xlink">
    <!-- Generator: Sketch 63.1 (92452) - https://sketch.com -->
    <title>Cloud(?)</title>
    <desc>Created with Sketch.</desc>
    <g id="Cloud(?)" stroke="none" stroke-width="1" fill="none" fill-rule="evenodd">
        <path d="M27.4559432,86.6905728 C29.1351976,88.3698273 29.1351976,91.0924367 27.4559432,92.7716912 C25.7766887,94.4509456 23.0540793,94.4509456 21.3748248,92.7716912 C19.6955704,91.0924367 19.6955704,88.3698273 21.3748248,86.6905728 C23.0540793,85.0113184 25.7766887,85.0113184 27.4559432,86.6905728 Z M37.738324,86.291132 C39.6381835,86.291132 41.178324,87.8312725 41.178324,89.731132 C41.178324,91.6309915 39.6381835,93.171132 37.738324,93.171132 L37.738324,93.171132 L36.738324,93.171132 C34.8384645,93.171132 33.298324,91.6309915 33.298324,89.731132 C33.298324,87.8312725 34.8384645,86.291132 36.738324,86.291132 L36.738324,86.291132 Z M49.061436,58.401676 C55.5138907,58.401676 60.743676,63.6314613 60.743676,70.083916 C60.743676,75.6496899 56.8524624,80.3057387 51.6418148,81.4802828 L51.6410418,86.6740832 C52.7465622,87.2462262 53.5021241,88.4004436 53.5021241,89.731132 C53.5021241,91.6309915 51.9619836,93.171132 50.0621241,93.171132 L50.0621241,93.171132 L49.0621241,93.171132 C47.1622645,93.171132 45.6221241,91.6309915 45.6221241,89.731132 C45.6221241,88.8592917 45.9464572,88.0632034 46.4810501,87.4569404 L46.4810572,81.4802828 C41.2704096,80.3057387 37.379196,75.6496899 37.379196,70.083916 C37.379196,63.6314613 42.6089813,58.401676 49.061436,58.401676 Z M49.061436,63.561676 C45.4587707,63.561676 42.539196,66.4812507 42.539196,70.083916 C42.539196,73.6865813 45.4587707,76.606156 49.061436,76.606156 C52.6641013,76.606156 55.583676,73.6865813 55.583676,70.083916 C55.583676,66.4812507 52.6641013,63.561676 49.061436,63.561676 Z M65.5859587,7.62021684 C77.7488896,10.7741272 85.1742995,21.9384891 83.5267795,36.6344787 L83.502,36.839 L83.5674955,36.8527903 C92.5343324,38.7793629 98.8110714,46.3225346 98.8992534,54.8211862 L98.8992534,55.1443696 C98.8165053,65.3036418 90.1872668,72.5155305 75.8199989,72.6616541 L75.373824,72.663916 L67.116104,72.663916 C65.6912093,72.663916 64.536104,71.5088107 64.536104,70.083916 C64.536104,68.713825 65.6040638,67.5931694 66.9529407,67.5089918 L67.116104,67.503916 L75.373824,67.503916 C87.3640171,67.503916 93.6807988,62.3000403 93.7394246,55.1023424 C93.7947103,48.31472 88.2110641,42.2034154 80.3618605,41.5894185 C78.8331696,41.469838 77.7455423,40.0512813 78.0268544,38.5439463 C80.5405658,25.0749019 74.5643557,15.2790163 64.2907793,12.6150252 C54.1179809,9.97716631 43.3688728,15.3114479 38.4210572,26.9719744 C37.7993182,28.4372279 36.0120904,28.9954954 34.6668822,28.1446473 C20.6356921,19.269879 5.39457654,33.9588216 14.8415317,46.8471053 C15.883539,48.2686941 15.2249669,50.2933727 13.5460337,50.8299146 C1.01069594,54.8358716 4.39693181,67.2522225 20.7510387,67.5001489 L21.250584,67.503916 L31.006424,67.503916 C32.4313187,67.503916 33.586424,68.6590213 33.586424,70.083916 C33.586424,71.454007 32.5184642,72.5746626 31.1695873,72.6588402 L31.006424,72.663916 L21.250584,72.663916 C10.6901124,72.663916 3.16709728,68.3483853 1.27787881,61.6899989 C-0.324118756,56.0438976 2.64149146,50.4347699 8.6595659,47.2897688 L8.941,47.145 L8.70815766,46.6974013 C0.695875901,30.8096563 17.8644948,14.5142035 34.6112186,22.248375 L34.889,22.381 L35.0248917,22.1242423 C41.4763106,10.0710481 53.8181417,4.56876148 65.5859587,7.62021684 Z M76.7480472,86.6905728 C78.4273016,88.3698273 78.4273016,91.0924367 76.7480472,92.7716912 C75.0687927,94.4509456 72.3461833,94.4509456 70.6669288,92.7716912 C68.9876744,91.0924367 68.9876744,88.3698273 70.6669288,86.6905728 C72.3461833,85.0113184 75.0687927,85.0113184 76.7480472,86.6905728 Z M62.3859242,86.291132 C64.2857837,86.291132 65.8259242,87.8312725 65.8259242,89.731132 C65.8259242,91.6309915 64.2857837,93.171132 62.3859242,93.171132 L62.3859242,93.171132 L61.3859242,93.171132 C59.4860646,93.171132 57.9459242,91.6309915 57.9459242,89.731132 C57.9459242,87.8312725 59.4860646,86.291132 61.3859242,86.291132 L61.3859242,86.291132 Z" id="Cloud" fill="#00B077"></path>
    </g>
</svg>