<?xml version="1.0" encoding="UTF-8"?>
<svg width="100px" height="100px" viewBox="0 0 100 100" version="1.1" xmlns="http://www.w3.org/2000/svg" xmlns:xlink="http://www.w3.org/1999/xlink">
    <!-- Generator: Sketch 63.1 (92452) - https://sketch.com -->
    <title>Coffee</title>
    <desc>Created with Sketch.</desc>
    <g id="Coffee" stroke="none" stroke-width="1" fill="none" fill-rule="evenodd">
        <path d="M92.0193205,30.2361217 C93.446717,30.2361217 94.6038505,31.3932552 94.6038505,32.8206517 C94.6038505,34.1931484 93.5340155,35.3157717 92.1827702,35.400097 L92.0193205,35.4051817 L27.723,35.405 L27.7231061,69.4313807 C27.7231061,84.3872339 35.7601513,93.5737035 48.3690806,93.7559373 L48.7525652,93.7587001 L68.4087774,93.7587001 C81.1067072,93.7587001 89.2703314,84.721297 89.4323341,69.8828043 L89.4347905,69.4313807 L89.4347905,41.0877017 C89.4347905,39.6603052 90.591924,38.5031717 92.0193205,38.5031717 C93.3918171,38.5031717 94.5144404,39.5730067 94.5987657,40.924252 L94.6038505,41.0877017 L94.6038505,69.4313807 C94.6038505,87.0879236 84.4400654,98.693913 68.8818837,98.9242671 L68.4087774,98.9277601 L48.7525652,98.9277601 C33.0830183,98.9277601 22.7620057,87.4989292 22.5571524,69.9645877 L22.5540461,69.4313807 L22.5546084,46.5129563 C20.1968973,45.0090714 17.2129169,44.5429004 14.7347257,45.2933313 C11.9710363,46.1302149 10.2864522,48.2892637 10.1897497,51.7086928 L10.1853471,52.0230204 L10.1853471,66.6014927 C10.1853471,70.9214553 12.9022551,73.3972216 16.8346245,72.1908992 C18.1992544,71.7722753 19.6448672,72.5391647 20.0634911,73.9037946 C20.482115,75.2684245 19.7152256,76.7140374 18.3505957,77.1326613 C10.9106144,79.4150045 5.15979366,74.2864795 5.01893206,66.8802827 L5.01628707,66.6014927 L5.01628707,52.0230204 C5.01628707,41.9773674 14.4636108,37.5656352 22.553804,40.7156046 L22.5540461,32.8206517 C22.5540461,31.4481551 23.6238811,30.3255318 24.9751264,30.2412065 L25.1385761,30.2361217 L92.0193205,30.2361217 Z M78.6754661,2.01273122 C79.3866783,3.2503249 78.9599617,4.83014414 77.722368,5.54135626 C71.0338003,9.38509798 70.5839896,15.2052888 76.137616,21.575309 C77.0756349,22.6512185 76.9638525,24.2838301 75.887943,25.221849 C74.8120335,26.159868 73.1794219,26.0480855 72.241403,24.972176 C64.6794577,16.2986101 65.4254345,6.64626657 75.1468411,1.05963312 C76.3844348,0.348420994 77.964254,0.775137552 78.6754661,2.01273122 Z M62.6585655,2.01564449 C63.3681686,3.25416139 62.9393993,4.83342475 61.7008824,5.54302792 C54.9928538,9.38636539 54.5430634,15.201641 60.1102925,21.573179 C61.0494878,22.6480617 60.9394914,24.2807946 59.8646086,25.2199899 C58.7897259,26.1591852 57.156993,26.0491888 56.2177977,24.9743061 C48.6366158,16.2978555 49.38339,6.64291888 59.131182,1.05796146 C60.3696989,0.348358287 61.9489623,0.777127584 62.6585655,2.01564449 Z M46.6185483,2.01370354 C47.3292234,3.25160565 46.9018215,4.83123961 45.6639194,5.54191474 C38.9685252,9.38571637 38.523592,15.2032982 44.0945817,21.5721162 C45.0343639,22.6464859 44.9252593,24.2792786 43.8508897,25.2190608 C42.7765201,26.1588431 41.1437273,26.0497385 40.2039451,24.9753688 C32.6183744,16.3034592 33.3569078,6.64700124 43.0903371,1.05907463 C44.3282392,0.348399506 45.9078732,0.775801424 46.6185483,2.01370354 Z" fill="#00B077"></path>
    </g>
</svg>