<?xml version="1.0" encoding="UTF-8"?>
<svg width="100px" height="100px" viewBox="0 0 100 100" version="1.1" xmlns="http://www.w3.org/2000/svg" xmlns:xlink="http://www.w3.org/1999/xlink">
    <!-- Generator: Sketch 63.1 (92452) - https://sketch.com -->
    <title>Coffin</title>
    <desc>Created with Sketch.</desc>
    <g id="Coffin" stroke="none" stroke-width="1" fill="none" fill-rule="evenodd">
        <path d="M67.33053,0.405 C68.1351198,0.405 68.8904158,0.777896064 69.3797667,1.40791643 L69.4878743,1.55781739 L90.9467943,33.6579674 C91.3787218,34.3040828 91.4965121,35.1065626 91.275368,35.8446692 L91.2130065,36.027727 L67.7438265,97.347577 C67.2315398,98.6860703 65.7311863,99.3558431 64.392693,98.8435565 C63.1077395,98.3517613 62.4390787,96.9493636 62.8408802,95.6537455 L62.8967135,95.492423 L85.885,35.425 L65.944,5.595 L33.845,5.595 L13.903,35.426 L36.254,93.825 L56.82424,93.825 C58.2022967,93.825 59.3294677,94.8991689 59.4141347,96.2558881 L59.41924,96.42 C59.41924,97.7980567 58.3450711,98.9252277 56.9883519,99.0098947 L56.82424,99.0157003 L34.46918,99.0157003 C33.4571393,99.0157003 32.5437704,98.4275544 32.1193727,97.5211917 L32.0456235,97.347577 L8.57644354,36.027727 C8.29863817,35.3018821 8.36183357,34.4932694 8.74123271,33.8226261 L8.84265573,33.6579674 L30.3015757,1.55781739 C30.74873,0.888924475 31.4784949,0.468250347 32.2742191,0.411566761 L32.45892,0.405 L67.33053,0.405 Z M49.894725,21.577259 C51.2727817,21.577259 52.3999527,22.6514279 52.4846197,24.0081471 L52.489725,24.172259 L52.488988,32.774 L61.445589,32.774857 C62.8787679,32.774857 64.040589,33.9366781 64.040589,35.369857 C64.040589,36.7479137 62.9664201,37.8750847 61.6097009,37.9597517 L61.445589,37.964857 L52.488988,37.964 L52.489725,56.602839 C52.489725,58.0360179 51.3279039,59.197839 49.894725,59.197839 C48.5166683,59.197839 47.3894973,58.1236701 47.3048303,56.7669509 L47.299725,56.602839 L47.298988,37.964 L38.343169,37.964857 C36.9099901,37.964857 35.748169,36.8030359 35.748169,35.369857 C35.748169,33.9918003 36.8223379,32.8646293 38.1790571,32.7799623 L38.343169,32.774857 L47.298988,32.774 L47.299725,24.172259 C47.299725,22.7390801 48.4615461,21.577259 49.894725,21.577259 Z" fill="#00B077"></path>
    </g>
</svg>