<?xml version="1.0" encoding="UTF-8"?>
<svg width="100px" height="100px" viewBox="0 0 100 100" version="1.1" xmlns="http://www.w3.org/2000/svg" xmlns:xlink="http://www.w3.org/1999/xlink">
    <!-- Generator: Sketch 63.1 (92452) - https://sketch.com -->
    <title>Cookie</title>
    <desc>Created with Sketch.</desc>
    <g id="Cookie" stroke="none" stroke-width="1" fill="none" fill-rule="evenodd">
        <path d="M50.302871,0.671247 C48.8696921,0.671247 47.707871,1.83306807 47.707871,3.266247 C47.707871,29.0310206 29.8470409,47.381247 3.591141,47.381247 C2.15796207,47.381247 0.996141,48.5430681 0.996141,49.976247 C0.996141,77.2057205 23.0739265,99.281247 50.302871,99.281247 C77.5323623,99.281247 99.606141,77.2069036 99.606141,49.976247 C99.606141,22.7455904 77.5323623,0.671247 50.302871,0.671247 Z M52.837,5.934 L53.2033326,5.95508145 C76.2143878,7.44868258 94.416141,26.5864917 94.416141,49.976247 C94.416141,74.3405754 74.6659747,94.091247 50.302871,94.091247 L49.5733876,94.0853365 C26.5178211,93.7114869 7.75827596,75.6481019 6.27999102,52.8767048 L6.259,52.512 L7.04571504,52.4726838 C33.1885838,50.9676661 51.3350348,32.371783 52.8018522,6.6595536 L52.837,5.934 Z M72.416942,40.356409 C72.416942,42.738619 74.351082,44.677949 76.736752,44.677949 C79.124152,44.677949 81.065212,42.738619 81.065212,40.356409 C81.065212,37.963819 79.124152,36.027949 76.736752,36.027949 C74.351082,36.027949 72.416942,37.963819 72.416942,40.356409 M52.173866,41.045814 C52.173866,43.428024 54.108006,45.367354 56.493676,45.367354 C58.881076,45.367354 60.822136,43.428024 60.822136,41.045814 C60.822136,38.653224 58.881076,36.717354 56.493676,36.717354 C54.108006,36.717354 52.173866,38.653224 52.173866,41.045814 M37.446895,53.20979 C37.446895,55.592 39.381035,57.53133 41.768435,57.53133 C44.157565,57.53133 46.098625,55.592 46.098625,53.20979 C46.098625,50.81028 44.157565,48.88133 41.768435,48.88133 C39.381035,48.88133 37.446895,50.81028 37.446895,53.20979 M20.69271,64.31293 C20.69271,66.6986 22.62512,68.63793 25.01252,68.63793 C27.40165,68.63793 29.34098,66.6986 29.34098,64.31293 C29.34098,61.92034 27.40165,59.98793 25.01252,59.98793 C22.62512,59.98793 20.69271,61.92034 20.69271,64.31293 M38.470709,72.010046 C38.470709,74.395716 40.404849,76.335046 42.790519,76.335046 C45.179649,76.335046 47.118979,74.395716 47.118979,72.010046 C47.118979,69.617456 45.179649,67.685046 42.790519,67.685046 C40.404849,67.685046 38.470709,69.617456 38.470709,72.010046 M57.493097,58.224195 C57.493097,60.606405 59.427237,62.549195 61.812907,62.549195 C64.202037,62.549195 66.141367,60.606405 66.141367,58.224195 C66.141367,55.831605 64.202037,53.899195 61.812907,53.899195 C59.427237,53.899195 57.493097,55.831605 57.493097,58.224195 M59.871847,23.843732 C59.871847,26.225942 61.805987,28.165272 64.193387,28.165272 C66.582517,28.165272 68.523577,26.225942 68.523577,23.843732 C68.523577,21.444222 66.582517,19.515272 64.193387,19.515272 C61.805987,19.515272 59.871847,21.444222 59.871847,23.843732 M75.068513,61.504967 C75.068513,63.890637 77.004383,65.829967 79.393513,65.829967 C81.779183,65.829967 83.721973,63.890637 83.721973,61.504967 C83.721973,59.108917 81.779183,57.179967 79.393513,57.179967 C77.004383,57.179967 75.068513,59.108917 75.068513,61.504967 M11.359187,29.084421 C11.359187,31.466631 13.293327,33.405961 15.680727,33.405961 C18.068127,33.405961 20.009187,31.466631 20.009187,29.084421 C20.009187,26.691831 18.068127,24.755961 15.680727,24.755961 C13.293327,24.755961 11.359187,26.691831 11.359187,29.084421 M56.900918,77.946887 C56.900918,80.332557 58.836788,82.271887 61.220728,82.271887 C63.609858,82.271887 65.549188,80.332557 65.549188,77.946887 C65.549188,75.554297 63.609858,73.621887 61.220728,73.621887 C58.836788,73.621887 56.900918,75.554297 56.900918,77.946887" fill="#00B077"></path>
    </g>
</svg>