<?xml version="1.0" encoding="UTF-8"?>
<svg width="100px" height="100px" viewBox="0 0 100 100" version="1.1" xmlns="http://www.w3.org/2000/svg" xmlns:xlink="http://www.w3.org/1999/xlink">
    <!-- Generator: Sketch 63.1 (92452) - https://sketch.com -->
    <title>Corkscrew</title>
    <desc>Created with Sketch.</desc>
    <g id="Corkscrew" stroke="none" stroke-width="1" fill="none" fill-rule="evenodd">
        <path d="M9.67249863,90.1933234 C10.6379368,91.1587616 10.6799124,92.6979659 9.79842535,93.7132968 L9.67249863,93.8484008 L5.38390185,98.1369976 C4.3745801,99.1463193 2.73814622,99.1463193 1.72882447,98.1369976 C0.763386275,97.1715594 0.721410702,95.6323551 1.60289775,94.6170242 L1.72882447,94.4819202 L6.01742125,90.1933234 C7.026743,89.1840017 8.66317688,89.1840017 9.67249863,90.1933234 Z M8.02859986,78.5782156 L8.1830516,78.6492951 L24.0210514,86.568295 C25.2977537,87.2066462 25.8152395,88.7591037 25.1768884,90.0358059 C24.5640713,91.2614401 23.1088138,91.7873804 21.8638293,91.2627224 L21.7093775,91.1916429 L5.87137769,83.2726429 C4.59467545,82.6342918 4.07718962,81.0818343 4.71554074,79.8051321 C5.32835782,78.5794979 6.78361532,78.0535576 8.02859986,78.5782156 Z M15.7334284,70.2491369 L15.8878801,70.3202164 L32.5598217,78.6561872 C33.8365239,79.2945383 34.3540097,80.8469958 33.7156586,82.1236981 C33.1028415,83.3493322 31.647584,83.8752725 30.4025995,83.3506145 L30.2481477,83.279535 L13.5762062,74.9435643 C12.299504,74.3052131 11.7820181,72.7527556 12.4203693,71.4760534 C13.0331864,70.2504192 14.4884439,69.7244789 15.7334284,70.2491369 Z M44.6441367,0.775212078 C47.4448756,1.05607269 50.0128108,3.19521287 53.20053,7.16468582 L53.6730117,7.76078465 C54.5483631,8.87920748 55.4800791,10.1459084 56.5691762,11.6865473 L57.7450159,13.3692158 C58.8691565,14.9934361 60.8752896,17.9105489 61.311193,18.5379145 L62.3459216,20.0161288 C65.3645051,24.2935535 67.6392516,27.1851089 69.887965,29.4762744 L70.1377514,29.7284175 C72.4684447,32.0586742 75.4135581,34.3885867 79.8511306,37.5202066 L83.5369087,40.0780131 C84.9686057,41.0647466 86.6521,42.2253577 87.3122211,42.6869327 L88.5936146,43.5902708 C90.2207164,44.7479468 91.5356902,45.7294298 92.7012999,46.6655958 C96.6702254,49.8532605 98.8085549,52.4204363 99.0878387,55.218785 C99.7215234,61.5343312 97.6298219,65.3803019 91.7490292,71.2563786 L91.7328332,71.2713629 L91.0681754,71.9291964 C85.5708834,77.2912712 81.7832695,79.1972912 75.7161322,78.5885313 C72.9177431,78.3075116 70.3518912,76.1685071 67.1649406,72.1985966 L66.6926201,71.6025008 C65.8971037,70.5857559 65.0549532,69.4464578 64.0903132,68.0902131 L62.8826868,66.3710434 C61.8425828,64.8716376 59.5276835,61.5044327 59.0558133,60.8251828 L58.0211027,59.346718 C55.6770881,56.0245193 53.7818828,53.5382836 51.9995179,51.5201732 L48.4406209,55.0802785 C47.4312992,56.0896002 45.7948653,56.0896002 44.7855436,55.0802785 C43.8201054,54.1148403 43.7781298,52.575636 44.6596168,51.5603051 L44.7855436,51.4252011 L48.3458905,47.8655725 C46.2305497,45.9965017 43.6007967,44.0039084 40.0330406,41.5007304 L33.0534886,36.6745465 L31.7719946,35.7715352 C30.1448286,34.6143414 28.8300338,33.6335057 27.664414,32.6979056 C23.6954526,29.5121665 21.5561791,26.9467756 21.2725748,24.1445705 C20.6442653,17.8295275 22.7357881,13.9864775 28.6154118,8.11392631 C34.4850741,2.23719227 38.330255,0.144888984 44.6441367,0.775212078 Z M23.416483,61.9067367 L23.5709264,61.9778344 L41.1198851,70.7548983 C42.3965121,71.3933998 42.913815,72.9459183 42.2753135,74.2225453 C41.662352,75.4481072 40.2070325,75.9738761 38.9621098,75.4490714 L38.8076665,75.3779737 L21.2587078,66.6009098 C19.9820807,65.9624083 19.4647778,64.4098899 20.1032793,63.1332628 C20.7162408,61.9077009 22.1715603,61.381932 23.416483,61.9067367 Z M32.2704885,11.769003 L32.2682889,11.7712027 C27.3788952,16.6547149 25.978054,19.2286782 26.4158006,23.6284405 C26.5099806,24.5589915 27.9829228,26.3253259 30.900042,28.6667901 C32.161002,29.6789162 33.6452835,30.7738523 35.5906907,32.1406458 L38.4716772,34.1370118 C39.9350731,35.1459087 41.529167,36.2428511 41.9841473,36.5588955 L43.5312113,37.641659 C48.1777382,40.920713 51.3045278,43.3965201 53.8869114,45.9789039 L54.43848,46.5407501 C56.8244741,49.0145745 59.1753513,52.0174555 62.2187628,56.3298189 L63.7600767,58.540241 C64.7484131,59.973013 66.7853379,62.9338682 67.4236386,63.8470133 L68.0097292,64.681095 C69.2441226,66.4278495 70.2557227,67.791617 71.1958333,68.9626909 L71.6564183,69.5268439 C73.7692837,72.0698538 75.3656392,73.3582756 76.2324059,73.445318 C80.6349011,73.8870523 83.2104198,72.486795 88.0943182,67.6009352 L88.0954183,67.5998354 C92.9854365,62.7137385 94.3863881,60.1378362 93.9444678,55.7334833 C93.8517121,54.8040979 92.3803512,53.0376526 89.4644651,50.6957424 L88.9097275,50.2561226 C87.7701101,49.3645266 86.4413447,48.3921918 84.7741038,47.2203212 L78.3804309,42.8003204 L76.8337772,41.7175411 C72.1886052,38.4385826 69.063853,35.9641904 66.4828452,33.3836661 L65.9309831,32.8218284 C63.3601295,30.1577585 60.8306699,26.8802322 57.4335584,22.014804 L52.9430688,15.5166261 L51.8023673,13.9029346 C50.8127069,12.5208928 49.965883,11.3921079 49.1701925,10.4012829 L48.709404,9.83708828 C46.5955859,7.29391241 44.9982128,6.00570481 44.1295105,5.91859032 C39.728481,5.47922995 37.1529304,6.88068101 32.2704885,11.769003 Z M31.0762487,53.5541589 L31.2306846,53.625273 L49.701459,62.8658292 C50.9780183,63.5044661 51.4951566,65.0570394 50.8565197,66.3335987 C50.2434282,67.5590957 48.788053,68.0847102 47.543186,67.5597735 L47.3887502,67.4886594 L28.9179758,58.2481032 C27.6414164,57.6094663 27.1242782,56.056893 27.7629151,54.7803337 C28.3760065,53.5548367 29.8313817,53.0292222 31.0762487,53.5541589 Z" fill="#00B077"></path>
    </g>
</svg>