<?xml version="1.0" encoding="UTF-8"?>
<svg width="100px" height="100px" viewBox="0 0 100 100" version="1.1" xmlns="http://www.w3.org/2000/svg" xmlns:xlink="http://www.w3.org/1999/xlink">
    <!-- Generator: Sketch 63.1 (92452) - https://sketch.com -->
    <title>Corn</title>
    <desc>Created with Sketch.</desc>
    <g id="Corn" stroke="none" stroke-width="1" fill="none" fill-rule="evenodd">
        <path d="M74.9849887,27.8579399 L74.277882,28.5650467 C72.9455773,29.8973514 72.9455773,32.0574441 74.277882,33.3897488 C75.6101867,34.7220535 77.7702794,34.7220535 79.1025841,33.3897488 L79.8096909,32.682642 C81.1419956,31.3503373 81.1419956,29.1902446 79.8096909,27.8579399 C78.4773862,26.5256352 76.3172934,26.5256352 74.9849887,27.8579399 Z M4.76779359,85.2979696 L4.90154653,85.422637 L13.0944549,93.6155454 C14.0936835,94.614774 14.0936835,96.2348435 13.0944549,97.234072 C12.1386711,98.1898558 10.6148589,98.2314117 9.60968128,97.3587395 L9.47592834,97.234072 L1.28301993,89.0411636 C0.283791396,88.0419351 0.283791396,86.4218656 1.28301993,85.422637 C2.23880374,84.4668532 3.762616,84.4252974 4.76779359,85.2979696 Z M35.2695363,10.5265032 L35.4742868,10.7452897 C35.8099199,11.1141023 36.2710878,11.6654014 36.8206872,12.3943023 C37.9126369,13.84249 38.9984072,15.5363067 40.0089566,17.4671373 C45.9046224,28.7318335 46.7589924,42.4007097 39.4237587,57.7633806 C38.8148789,59.0385985 37.2875159,59.5787722 36.012298,58.9698923 C34.7370801,58.3610124 34.1969064,56.8336494 34.8057863,55.5584316 C41.3197299,41.9158436 40.6771543,30.0639841 35.6799874,20.2373549 L35.485,19.86 L35.4364102,20.1456316 C35.0814471,22.1230236 34.5563918,24.2751067 33.8247131,26.5766583 L33.6374676,27.1551456 C30.6824663,36.1249476 25.1952438,45.1893551 16.6143648,53.9222482 L16.0377169,54.5039453 C5.5830828,64.9616172 5.50133364,74.5947616 15.1710614,84.2613133 C24.7423931,93.8342171 34.2778294,93.8494745 44.6143234,83.7035537 L44.9277965,83.3929907 C53.83937,74.4806983 63.1071918,68.8143952 72.276421,65.7940745 C74.7967129,64.9638968 77.1440977,64.3797908 79.2865069,63.9953122 L79.571,63.946 L79.1486988,63.7282036 C73.0432195,60.6387204 65.9321727,59.2027477 57.9186424,60.2902763 L57.3306774,60.3743678 C45.9641835,62.0828967 33.8236293,68.7493538 21.0473587,81.5256243 C20.0481302,82.5248529 18.4280607,82.5248529 17.4288321,81.5256243 C16.4296036,80.5263958 16.4296036,78.9063263 17.4288321,77.9070977 C30.9400319,64.395898 44.0534197,57.1952516 56.5700167,55.3138476 C66.1639029,53.8717642 74.7022057,55.6214165 81.9665203,59.4232262 C83.8973693,60.4337442 85.5912053,61.5194809 87.0394119,62.6113969 L87.4989869,62.9642775 C88.1487211,63.472726 88.6197662,63.8845007 88.9072369,64.1624995 C90.6134605,65.8125041 89.3454385,68.661623 87.0305283,68.5591233 L86.6539307,68.5334714 C85.6334787,68.4800014 84.2120074,68.5180339 82.442386,68.7223581 C79.8147384,69.0257519 76.9427748,69.6448351 73.8774479,70.6545459 C65.6506113,73.3644449 57.2691309,78.4372886 49.1027273,86.4599951 L48.5462647,87.0115757 C36.1039124,99.4521208 23.2326222,99.5618459 11.5526835,87.8799885 C-0.0127224771,76.3183814 -0.0213065216,63.5858662 12.0495199,51.2590234 L12.4190005,50.8856085 C20.7617719,42.5435101 26.0052308,33.9677145 28.777056,25.5539371 C29.786852,22.4887371 30.4060186,19.6169664 30.7094987,16.9895773 C30.8981427,15.3563855 30.9451043,14.0198972 30.9092106,13.0216948 L30.8845451,12.5624887 C30.6405132,10.1474293 33.5820821,8.78163608 35.2695363,10.5265032 Z M93.1532393,6.2798888 C100.431702,13.5564019 100.519395,25.3033659 93.4166315,32.6891885 L93.1535662,32.9574398 L74.8930864,51.2196254 C73.8939045,52.2189006 72.273835,52.2189762 71.2745598,51.2197944 C70.3187313,50.2640552 70.2771043,48.7402449 71.1497296,47.7350265 L71.2743908,47.6012678 L89.5349551,29.3389977 C94.9033995,23.9705533 94.9033995,15.2656641 89.5347128,9.89841543 C84.2489144,4.61120107 75.7271963,4.52985931 70.3428919,9.65470212 L70.0928249,9.89874225 L51.8306393,28.1592221 C50.8313641,29.1584039 49.2112945,29.1583283 48.2121127,28.1590531 C47.2563735,27.2032246 47.2148888,25.6794104 48.087608,24.6742736 L48.2122817,24.5405265 L66.4738982,6.28061588 C73.8392046,-1.08863767 85.7866863,-1.08863767 93.1532393,6.2798888 Z M66.8203869,36.0225417 C68.1526916,34.690237 70.3127843,34.690237 71.645089,36.0225417 C72.9773937,37.3548464 72.9773937,39.5149392 71.645089,40.8472439 L71.645089,40.8472439 L70.9379822,41.5543507 C69.6056775,42.8866554 67.4455848,42.8866554 66.1132801,41.5543507 C64.7809754,40.2220459 64.7809754,38.0619532 66.1132801,36.7296485 L66.1132801,36.7296485 Z M58.3547227,27.5553423 C59.6870274,26.2230376 61.8471201,26.2230376 63.1794248,27.5553423 C64.5117295,28.887647 64.5117295,31.0477398 63.1794248,32.3800445 L63.1794248,32.3800445 L62.4723181,33.0871512 C61.1400133,34.419456 58.9799206,34.419456 57.6476159,33.0871512 C56.3153112,31.7548465 56.3153112,29.5947538 57.6476159,28.2624491 L57.6476159,28.2624491 Z M66.5193245,19.3907405 C67.8516292,18.0584358 70.011722,18.0584358 71.3440267,19.3907405 C72.6763314,20.7230452 72.6763314,22.8831379 71.3440267,24.2154426 L71.3440267,24.2154426 L70.6369199,24.9225494 C69.3046152,26.2548541 67.1445225,26.2548541 65.8122178,24.9225494 C64.4799131,23.5902447 64.4799131,21.430152 65.8122178,20.0978473 L65.8122178,20.0978473 Z" fill="#00B077"></path>
    </g>
</svg>