<?xml version="1.0" encoding="UTF-8"?>
<svg width="100px" height="100px" viewBox="0 0 100 100" version="1.1" xmlns="http://www.w3.org/2000/svg" xmlns:xlink="http://www.w3.org/1999/xlink">
    <!-- Generator: Sketch 63.1 (92452) - https://sketch.com -->
    <title>CreditCard</title>
    <desc>Created with Sketch.</desc>
    <g id="CreditCard" stroke="none" stroke-width="1" fill="none" fill-rule="evenodd">
        <path d="M87.298576,14.543668 C93.7489688,14.543668 99.015216,19.8092315 99.015216,26.258588 C99.015216,27.6834827 97.8601107,28.838588 96.435216,28.838588 C95.065125,28.838588 93.9444694,27.7706282 93.8602918,26.4217513 L93.855216,26.258588 C93.855216,22.737419 91.0264493,19.8324724 87.5324697,19.7078345 L87.298576,19.703668 L12.691856,19.703668 C9.16937982,19.703668 6.26403756,22.5320674 6.13938302,26.0247801 L6.135216,26.258588 L6.135216,71.960708 C6.135216,75.482906 8.96334318,78.3868683 12.4579206,78.511463 L12.691856,78.515628 L87.298576,78.515628 C90.8217059,78.515628 93.7264229,75.6882352 93.8510499,72.1945816 L93.855216,71.960708 L93.855216,35.180228 C93.855216,33.7553333 95.0103213,32.600228 96.435216,32.600228 C97.805307,32.600228 98.9259626,33.6681878 99.0101402,35.0170647 L99.015216,35.180228 L99.015216,71.960708 C99.015216,78.312027 93.9102631,83.5133669 87.5954539,83.6719048 L87.298576,83.675628 L12.691856,83.675628 C6.34018975,83.675628 1.13751895,78.5720008 0.978940121,72.257569 L0.975216,71.960708 L0.975216,26.258588 C0.975216,19.9084524 6.08067131,14.7059655 12.3950012,14.547392 L12.691856,14.543668 L87.298576,14.543668 Z M25.679748,57.446144 C27.1046427,57.446144 28.259748,58.6012493 28.259748,60.026144 C28.259748,61.396235 27.1917882,62.5168906 25.8429113,62.6010682 L25.679748,62.606144 L14.511788,62.606144 C13.0868933,62.606144 11.931788,61.4510387 11.931788,60.026144 C11.931788,58.656053 12.9997478,57.5353974 14.3486247,57.4512198 L14.511788,57.446144 L25.679748,57.446144 Z M45.612484,57.446144 C47.0373787,57.446144 48.192484,58.6012493 48.192484,60.026144 C48.192484,61.396235 47.1245242,62.5168906 45.7756473,62.6010682 L45.612484,62.606144 L34.444524,62.606144 C33.0196293,62.606144 31.864524,61.4510387 31.864524,60.026144 C31.864524,58.656053 32.9324838,57.5353974 34.2813607,57.4512198 L34.444524,57.446144 L45.612484,57.446144 Z M65.545392,57.446144 C66.9702867,57.446144 68.125392,58.6012493 68.125392,60.026144 C68.125392,61.396235 67.0574322,62.5168906 65.7085553,62.6010682 L65.545392,62.606144 L54.377432,62.606144 C52.9525373,62.606144 51.797432,61.4510387 51.797432,60.026144 C51.797432,58.656053 52.8653918,57.5353974 54.2142687,57.4512198 L54.377432,57.446144 L65.545392,57.446144 Z M85.4783,57.446144 C86.9031947,57.446144 88.0583,58.6012493 88.0583,60.026144 C88.0583,61.396235 86.9903402,62.5168906 85.6414633,62.6010682 L85.4783,62.606144 L74.31034,62.606144 C72.8854453,62.606144 71.73034,61.4510387 71.73034,60.026144 C71.73034,58.656053 72.7982998,57.5353974 74.1471767,57.4512198 L74.31034,57.446144 L85.4783,57.446144 Z M45.612828,67.045636 C47.0377227,67.045636 48.192828,68.2007413 48.192828,69.625636 C48.192828,70.995727 47.1248682,72.1163826 45.7759913,72.2005602 L45.612828,72.205636 L14.511788,72.205636 C13.0868933,72.205636 11.931788,71.0505307 11.931788,69.625636 C11.931788,68.255545 12.9997478,67.1348894 14.3486247,67.0507118 L14.511788,67.045636 L45.612828,67.045636 Z M25.911776,36.260216 C30.1746707,36.260216 33.651776,39.7373213 33.651776,44.000216 C33.651776,45.4251107 32.4966707,46.580216 31.071776,46.580216 C29.701685,46.580216 28.5810294,45.5122562 28.4968518,44.1633793 L28.491776,44.000216 C28.491776,42.6414609 27.4129163,41.5103413 26.0736816,41.4253421 L25.911776,41.420216 L19.671616,41.420216 C18.2585107,41.420216 17.091616,42.5871107 17.091616,44.000216 C17.091616,45.3589711 18.1704757,46.4900907 19.5097104,46.5750899 L19.671616,46.580216 L25.911776,46.580216 C27.3366707,46.580216 28.491776,47.7353213 28.491776,49.160216 C28.491776,50.530307 27.4238162,51.6509626 26.0749393,51.7351402 L25.911776,51.740216 L19.671616,51.740216 C15.4087213,51.740216 11.931616,48.2631107 11.931616,44.000216 C11.931616,39.8193001 15.2762724,36.3942414 19.4265707,36.2640546 L19.671616,36.260216 L25.911776,36.260216 Z" id="Credit-Card" fill="#00B077"></path>
    </g>
</svg>