<?xml version="1.0" encoding="UTF-8"?>
<svg width="100px" height="100px" viewBox="0 0 100 100" version="1.1" xmlns="http://www.w3.org/2000/svg" xmlns:xlink="http://www.w3.org/1999/xlink">
    <!-- Generator: Sketch 63.1 (92452) - https://sketch.com -->
    <title>Cupcake</title>
    <desc>Created with Sketch.</desc>
    <g id="Cupcake" stroke="none" stroke-width="1" fill="none" fill-rule="evenodd">
        <path d="M35.1697608,60.1038034 L35.1981196,60.2648544 L39.366291,89.1753993 C41.957502,89.6364536 44.6613693,89.9393883 47.4653829,90.055541 L47.4657695,64.1555488 C47.4657695,62.7281523 48.622903,61.5710188 50.0502995,61.5710188 C51.4227961,61.5710188 52.5454194,62.6408538 52.6297447,63.9920991 L52.6348295,64.1555488 L52.6351694,90.0554157 C55.4392801,89.9391247 58.1433544,89.636049 60.7348617,89.174853 L64.9024794,60.2648544 C65.1061849,58.8520682 66.4166104,57.8719147 67.8293966,58.0756202 C69.1878448,58.2714909 70.1462999,59.4905864 70.0369242,60.840035 L70.0186308,61.0025374 L66.1345973,87.9485141 C66.791021,87.766136 67.4385269,87.5736667 68.076866,87.3716756 C69.7486615,86.8426658 71.2459492,86.281925 72.5549929,85.7203359 L73.0370335,85.5097606 C73.2325985,85.4227603 73.4174056,85.3385467 73.5912986,85.257474 L73.793,85.161 L80.818633,62.8281923 C81.246915,61.4665627 82.6979251,60.7099349 84.0595547,61.1382169 C85.3667192,61.5493677 86.1163139,62.9030646 85.7952735,64.2153853 L85.7495301,64.3791387 L78.3974038,87.753628 C78.1993588,88.383269 77.7679184,88.9132786 77.1915609,89.2349642 L76.9507502,89.3653995 C76.5446083,89.5798589 75.937041,89.8771237 75.1380526,90.232567 C73.5464969,90.940597 71.7065076,91.6448148 69.6363119,92.2998913 C63.7624242,94.1585782 57.1971432,95.2735393 50.0908752,95.2779291 C50.0777244,95.2783521 50.0640245,95.2784591 50.0502995,95.2784591 L50.0155065,95.2772462 L49.1966687,95.2726104 C42.401052,95.1874911 36.1118585,94.0877418 30.4627734,92.2998485 C28.6229034,91.7175434 26.9649473,91.0964074 25.5016881,90.4682769 L24.9621172,90.2324623 C23.9857868,89.7980089 23.2953545,89.4504614 22.9090594,89.2347838 C22.3904797,88.9452485 21.9892579,88.4870509 21.7698526,87.9393874 L21.7035398,87.753628 L14.3514135,64.3791387 C13.9231315,63.017509 14.6797592,61.5664989 16.0413889,61.1382169 C17.3485533,60.7270662 18.7380908,61.4079283 19.2260789,62.6677379 L19.2823106,62.8281923 L26.307,85.162 L26.7784404,85.3815062 L27.0636069,85.5098653 C28.4826606,86.1413243 30.1421317,86.7765992 32.0224898,87.3717184 C32.6612931,87.5738949 33.3092862,87.7665321 33.96622,87.9490588 L30.0819682,61.0025374 C29.8782627,59.5897512 30.8584162,58.2793258 32.2712024,58.0756202 C33.6296507,57.8797495 34.8934607,58.7784231 35.1697608,60.1038034 Z M50.0485765,3.18424618 C77.014441,3.18424618 99.1546465,18.9376688 99.1546465,38.8679904 C99.1546465,48.8484582 91.0537424,56.9493623 81.0629365,56.9493623 C74.5149456,56.9493623 68.7771301,53.4675004 65.6012793,48.2574273 L65.6012793,48.2574273 L65.556,48.182 L65.5113281,48.2584056 C62.3903117,53.3801414 56.793376,56.8308684 50.3809713,56.9463709 L50.3809713,56.9463709 L50.0485765,56.9493623 C43.499205,56.9493623 37.7625595,53.4680769 34.5876785,48.258023 L34.5876785,48.258023 L34.542,48.182 L34.3029286,48.5687977 C31.1458569,53.5185889 25.6453439,56.833191 19.3664668,56.94637 L19.3664668,56.94637 L19.0342165,56.9493623 C9.04575583,56.9493623 0.942506474,48.8473568 0.942506474,38.8679904 C0.942506474,18.9380737 23.0838474,3.18424618 50.0485765,3.18424618 Z M50.0485765,8.35330618 C25.6348377,8.35330618 6.11156647,22.2443459 6.11156647,38.8679904 C6.11156647,45.9923861 11.9003712,51.7803023 19.0342165,51.7803023 C26.1684786,51.7803023 31.9585895,45.9919687 31.9585895,38.8679904 C31.9585895,35.4219504 37.1276495,35.4219504 37.1276495,38.8679904 C37.1276495,45.9940829 42.9129805,51.7803023 50.0485765,51.7803023 C57.186757,51.7803023 62.9712265,45.9949446 62.9712265,38.8679904 C62.9712265,35.4219504 68.1402865,35.4219504 68.1402865,38.8679904 C68.1402865,45.9923861 73.9290912,51.7803023 81.0629365,51.7803023 C88.1989494,51.7803023 93.9855865,45.9936652 93.9855865,38.8679904 C93.9855865,22.243904 74.4634358,8.35330618 50.0485765,8.35330618 Z M50.0556409,30.7737593 C52.4282394,30.7737593 54.3494067,32.7190489 54.3494067,35.0813093 C54.3494067,37.4539079 52.4282394,39.3888593 50.0556409,39.3888593 C47.6692582,39.3888593 45.7480909,37.4539079 45.7480909,35.0813093 C45.7480909,32.7190489 47.6692582,30.7737593 50.0556409,30.7737593 Z M18.4456328,30.1720807 C20.8182314,30.1720807 22.7393987,32.1173703 22.7393987,34.4796307 C22.7393987,36.8522293 20.8182314,38.7871807 18.4456328,38.7871807 C16.0592501,38.7871807 14.1380828,36.8522293 14.1380828,34.4796307 C14.1380828,32.1173703 16.0592501,30.1720807 18.4456328,30.1720807 Z M81.6549661,30.1720807 C84.0413488,30.1720807 85.9590701,32.1173703 85.9590701,34.4796307 C85.9590701,36.8522293 84.0413488,38.7871807 81.6549661,38.7871807 C79.2823676,38.7871807 77.3612003,36.8522293 77.3612003,34.4796307 C77.3612003,32.1173703 79.2823676,30.1720807 81.6549661,30.1720807 Z M31.2690369,18.8976717 C33.6416354,18.8976717 35.5628027,20.8429613 35.5628027,23.2052217 C35.5628027,25.5778202 33.6416354,27.5127717 31.2690369,27.5127717 C28.8826542,27.5127717 26.9632099,25.5778202 26.9632099,23.2052217 C26.9632099,20.8429613 28.8826542,18.8976717 31.2690369,18.8976717 Z M68.8298391,18.8976717 C71.2162218,18.8976717 73.1356661,20.8429613 73.1356661,23.2052217 C73.1356661,25.5778202 71.2162218,27.5127717 68.8298391,27.5127717 C66.4572405,27.5127717 64.5360732,25.5778202 64.5360732,23.2052217 C64.5360732,20.8429613 66.4572405,18.8976717 68.8298391,18.8976717 Z M50.0556409,15.3422199 C52.4282394,15.3422199 54.3494067,17.2875095 54.3494067,19.6497699 C54.3494067,22.0223684 52.4282394,23.9573199 50.0556409,23.9573199 C47.6692582,23.9573199 45.7480909,22.0223684 45.7480909,19.6497699 C45.7480909,17.2875095 47.6692582,15.3422199 50.0556409,15.3422199 Z" fill="#00B077"></path>
    </g>
</svg>