<?xml version="1.0" encoding="UTF-8"?>
<svg width="100px" height="100px" viewBox="0 0 100 100" version="1.1" xmlns="http://www.w3.org/2000/svg" xmlns:xlink="http://www.w3.org/1999/xlink">
    <!-- Generator: Sketch 63.1 (92452) - https://sketch.com -->
    <title>CupidsBow</title>
    <desc>Created with Sketch.</desc>
    <g id="CupidsBow" stroke="none" stroke-width="1" fill="none" fill-rule="evenodd">
        <path d="M68.2982703,10.8589546 C68.6265306,1.87179467 77.9465541,-1.42915859 96.005991,2.11702208 C97.0406841,2.32019612 97.8495586,3.12927031 98.0524773,4.16401354 C101.594176,22.2242027 98.2936218,31.5456848 89.3086649,31.8711067 C84.2331662,32.0564397 80.7828071,28.8157551 79.4304202,24.4064038 L73.0777534,30.7605924 C76.8390047,34.8924012 79.6772138,39.3040586 81.6578563,43.970768 C86.6092957,55.6371487 86.0927385,67.1917749 82.1165205,81.1681833 L81.9214313,81.8463618 C81.4943662,83.3149313 79.8011743,88.7398356 79.4075317,90.1386884 L79.3725943,90.2648578 C79.1142608,91.2174692 78.9610765,91.93276 78.9038801,92.4408376 L78.8845694,92.6558711 L78.879,92.782 L78.8977655,92.8122795 C80.2736439,95.2473813 77.0689319,97.9578956 74.8788104,95.9749998 L74.7624849,95.8642551 L46.4804449,67.5822151 C45.4670344,66.5688046 45.4670344,64.9257414 46.4804449,63.9123309 C47.4497941,62.9429817 48.9952338,62.9008361 50.0146778,63.785894 L50.1503291,63.9123309 L74.537,88.299 L75.5148476,85.0675822 C75.9877538,83.5233605 76.4851974,81.9087409 76.7740725,80.9484765 L76.9378765,80.3971269 C80.7883411,67.1563462 81.3452029,56.518365 76.880341,45.9984386 C75.1581565,41.9406972 72.6918067,38.0837817 69.4033854,34.4348724 L34.876711,68.9627238 L36.0228753,82.6866216 C36.0810947,83.3841226 35.855018,84.072678 35.4010095,84.598414 L35.2715801,84.7376441 L21.4661801,98.5395841 C20.0255875,99.9798156 17.5631981,99.2745985 17.1034292,97.2901121 L17.1034292,97.2901121 L14.427,85.74 L2.87852843,83.0620506 C0.950773085,82.6151122 0.23058031,80.2784784 1.51155059,78.8249363 L1.51155059,78.8249363 L1.6297909,78.6990449 L15.4334609,64.8971049 C15.9733638,64.3572697 16.7235991,64.0825854 17.4844361,64.1461796 L17.4844361,64.1461796 L31.206711,65.2927238 L37.698711,58.7997238 L12.4900969,33.5918671 C11.4766864,32.5784566 11.4766864,30.9353934 12.4900969,29.9219829 C13.4594461,28.9526337 15.0048858,28.9104881 16.0243298,29.795546 L16.1599811,29.9219829 L41.368711,55.1307238 L65.7321904,30.7641784 C62.0862148,27.4786815 58.2326901,25.0139639 54.1787822,23.2923126 C43.8322984,18.8982717 33.3714377,19.3637299 20.4344732,23.0441486 L19.4325449,23.33514 C17.5892237,23.885904 12.4538735,25.4874317 11.2655412,25.8099328 L10.618875,25.9805557 C7.69214246,26.7279665 6.01500359,26.7793979 4.53715191,25.6153758 C3.41127374,24.7285837 3.21745617,23.0969921 4.10424824,21.9711139 C4.8801913,20.9859705 6.22637151,20.714436 7.30504286,21.2560267 L7.376,21.294 L7.48391058,21.2914269 L7.58430689,21.2845078 C8.0977954,21.2425363 8.85840124,21.0854733 9.90619872,20.8011118 L10.7873496,20.5454139 C12.7288793,19.9663867 16.7272728,18.7220533 18.1646101,18.297624 L18.324502,18.2507231 C32.608426,14.0944867 44.3504612,13.4796845 56.2075448,18.515261 C60.8700891,20.4953936 65.2780591,23.3318798 69.4067263,27.0900294 L75.7600081,20.7366875 C71.4392275,19.4117563 68.2411012,16.0708005 68.2911928,11.1597911 L68.2911928,11.1597911 Z M18.252,69.418 L8.606,79.062 L17.1762176,81.0492234 C18.0808628,81.2589599 18.7995923,81.9343596 19.0701159,82.8130921 L19.0701159,82.8130921 L19.1181668,82.9914719 L21.104,91.562 L30.75,81.919 L29.787,70.382 L18.252,69.418 Z M92.6450283,6.7734543 C79.0111815,4.4205818 73.6489612,6.55428714 73.4848117,11.0483954 L73.4848117,11.0483954 L73.4816333,11.2511289 C73.5002553,14.5363655 76.9571629,16.5362255 81.2035672,16.1344528 C82.8242721,15.9811101 84.1842956,17.3406296 84.0315537,18.9613912 C83.6230433,23.2961401 85.7144769,26.8088904 89.1200455,26.6845354 C93.6623058,26.5200213 95.7930165,21.0356455 93.31338,7.05578719 L93.31338,7.05578719 L93.282,6.885 Z" id="Cupid's-Bow" fill="#00B077"></path>
    </g>
</svg>