<?xml version="1.0" encoding="UTF-8"?>
<svg width="100px" height="100px" viewBox="0 0 100 100" version="1.1" xmlns="http://www.w3.org/2000/svg" xmlns:xlink="http://www.w3.org/1999/xlink">
    <!-- Generator: Sketch 63.1 (92452) - https://sketch.com -->
    <title>DOC</title>
    <desc>Created with Sketch.</desc>
    <g id="DOC" stroke="none" stroke-width="1" fill="none" fill-rule="evenodd">
        <path d="M39.804,10.268 L17.189,33.083 L39.804,33.083 L39.804,10.268 Z M26.672124,56.82292 L22.422004,56.82292 C20.9971093,56.82292 19.842004,57.9780253 19.842004,59.40292 L19.842004,74.88292 C19.842004,76.3082224 20.9977458,77.4634966 22.4230481,77.46292 L26.6731681,77.4611998 C32.7012281,77.4612 36.878604,73.6664249 36.878604,67.14292 C36.878604,60.6168351 32.7021748,56.82292 26.672124,56.82292 Z M25.002,72.301 L25.002,61.982 L26.672124,61.98292 C29.9570836,61.98292 31.718604,63.5831049 31.718604,67.14292 C31.718604,70.7001551 29.9561369,72.3012 26.672124,72.3012 L25.002,72.301 Z M49.106944,56.82292 C43.440952,56.82292 39.579864,60.6734441 39.579864,67.14292 C39.579864,73.6098159 43.4418144,77.4612 49.106944,77.4612 C54.7709186,77.4612 58.634024,73.6093227 58.634024,67.14292 C58.634024,60.6739373 54.7717811,56.82292 49.106944,56.82292 Z M70.7112849,56.8222274 C74.2118706,56.819811 77.1881922,58.3266737 78.8504269,61.2507169 C79.5546094,62.4894468 79.1212731,64.0644885 77.8825431,64.7686709 C76.695427,65.4435125 75.1994411,65.0736536 74.4570603,63.9514096 L74.3645891,63.8007871 C73.6818244,62.5997333 72.4597619,61.9810231 70.713068,61.9822297 C67.8944703,61.9822297 66.345988,63.5267409 66.345988,67.142232 C66.345988,70.7561691 67.8945678,72.300512 70.713068,72.300512 C72.2867618,72.300512 73.4360872,71.7959586 74.1419684,70.8281545 L74.2619285,70.6525651 C75.029575,69.4521303 76.6250201,69.1012861 77.8254549,69.8689325 C79.0258897,70.636579 79.3767339,72.2320241 78.6090875,73.4324589 C76.9027538,76.1007996 74.0410628,77.460512 70.713068,77.460512 C65.0479384,77.460512 61.185988,73.6091279 61.185988,67.142232 C61.185988,60.6739813 65.0476429,56.8222274 70.7112849,56.8222274 Z M82.8702,1.42 C84.240291,1.42 85.3609466,2.48795982 85.4451242,3.83683674 L85.4502,4 L85.4498334,46.769 L88.029168,46.769176 C89.399259,46.769176 90.5199146,47.8371358 90.6040922,49.1860127 L90.609168,49.349176 L90.609168,84.934256 C90.609168,86.304347 89.5412082,87.4250026 88.1923313,87.5091802 L88.029168,87.514256 L13.5808334,87.514 L13.581,94.3 L80.289,94.3 L80.289512,93.29982 C80.289512,91.929729 81.3574718,90.8090734 82.7063487,90.7248958 L82.869512,90.71982 C84.239603,90.71982 85.3602586,91.7877798 85.4444362,93.1366567 L85.449512,93.29982 L85.449512,96.88086 C85.449512,98.250951 84.3815522,99.3716066 83.0326753,99.4557842 L82.869512,99.46086 L11.001032,99.46086 C9.63094099,99.46086 8.51028535,98.3929002 8.42610784,97.0440233 L8.421032,96.88086 L8.42089769,84.9674922 C8.42075804,84.9564301 8.420688,84.9453512 8.420688,84.934256 L8.42083337,84.906 L8.42083337,49.382 L8.420688,49.349176 L8.42083337,49.321 L8.421032,44.68402 C8.421032,43.2591253 9.57613735,42.10402 11.001032,42.10402 C12.371123,42.10402 13.4917786,43.1719798 13.5759562,44.5208567 L13.581032,44.68402 L13.5808334,46.769 L80.2898334,46.769 L80.29,6.579 L44.964,6.579 L44.96484,35.66348 C44.96484,37.033571 43.8968802,38.1542266 42.5480033,38.2384042 L42.38484,38.24348 L11,38.24348 C8.76028556,38.24348 7.60764784,35.6030321 9.0594685,33.9626454 L9.16761981,33.8472248 L40.556,2.179 L40.6867701,2.05744402 L40.8276138,1.94254226 L40.9108305,1.88224998 L41.0388424,1.79850251 L41.1264315,1.74694684 L41.3099079,1.65390699 L41.465,1.588 L41.599014,1.54185884 L41.7753011,1.49266471 L41.9037429,1.46477585 L42.1154743,1.43402168 L42.2873345,1.42183422 L42.38484,1.42 L82.8702,1.42 Z M13.5808334,82.354 L85.449,82.354 L85.449,51.929 L13.5808334,51.929 L13.5808334,82.354 Z M49.106944,61.98292 C51.9253486,61.98292 53.474024,63.5270942 53.474024,67.14292 C53.474024,70.7561658 51.9244861,72.3012 49.106944,72.3012 C46.2884438,72.3012 44.739864,70.7568571 44.739864,67.14292 C44.739864,63.5264029 46.2875814,61.98292 49.106944,61.98292 Z" fill="#00B077"></path>
    </g>
</svg>