<?xml version="1.0" encoding="UTF-8"?>
<svg width="100px" height="100px" viewBox="0 0 100 100" version="1.1" xmlns="http://www.w3.org/2000/svg" xmlns:xlink="http://www.w3.org/1999/xlink">
    <!-- Generator: Sketch 63.1 (92452) - https://sketch.com -->
    <title>Donut</title>
    <desc>Created with Sketch.</desc>
    <g id="Donut" stroke="none" stroke-width="1" fill="none" fill-rule="evenodd">
        <path d="M96.1161726,56.9445313 C97.5128055,57.2392808 98.4060585,58.6104172 98.111309,60.0070501 C93.3546588,82.5458285 73.3859506,98.9270709 50.063739,98.9270709 C26.9151323,98.9270709 7.0487564,82.7842367 2.11954831,60.4755116 C1.81158684,59.0817324 2.69181604,57.702199 4.08559526,57.3942376 C5.47937448,57.0862761 6.85890788,57.9665053 7.16686935,59.3602845 C11.5754868,79.3129081 29.3525288,93.7580109 50.063739,93.7580109 C70.9303184,93.7580109 88.7990726,79.0994566 93.0536538,58.9396677 C93.3484033,57.5430348 94.7195397,56.6497818 96.1161726,56.9445313 Z M99.16891,49.9115752 L99.169809,49.8216901 C99.169809,49.8817048 99.1677635,49.9412418 99.1637383,50.0002352 C99.1631978,50.0175722 99.1618661,50.0345664 99.1603652,50.0515548 C99.1566839,50.0861077 99.1529388,50.1206378 99.1485207,50.154957 C99.1445758,50.1901247 99.139369,50.2248119 99.133444,50.2594309 C99.1293766,50.2800599 99.125538,50.3010046 99.1214486,50.3218595 C99.116673,50.3487349 99.1110585,50.3750669 99.1050215,50.4013412 C99.0994287,50.423711 99.0940053,50.4459993 99.088295,50.4681723 C99.0807822,50.4989169 99.0722611,50.5295642 99.063152,50.5601043 C99.0551358,50.5858046 99.0471811,50.6110789 99.0388519,50.6361824 C99.0318937,50.6580598 99.0242399,50.6800825 99.0162721,50.7020352 C99.0059206,50.7298619 98.9954834,50.7571902 98.9846004,50.7842914 C98.9717101,50.816852 98.9579211,50.8492031 98.9434245,50.8813598 C98.9374201,50.8943881 98.9315884,50.9070634 98.9256576,50.919683 C98.9111718,50.9507095 98.8957048,50.9819365 98.8795504,51.0129486 C98.8692343,51.0326769 98.8588398,51.0520401 98.8482078,51.0712535 C98.8315645,51.1013392 98.8141943,51.1312871 98.7961562,51.1609977 C98.76662,51.2096535 98.7356411,51.2570774 98.7031819,51.3033878 L98.7133891,51.2887994 C98.629259,51.4108141 98.5365128,51.5233488 98.4365312,51.6261497 C98.4248064,51.6372319 98.4135008,51.6486155 98.4020907,51.6598936 C98.3796157,51.683171 98.3555807,51.7060825 98.3311789,51.7284614 C98.3135176,51.7435697 98.2964686,51.758776 98.2792191,51.7737575 C98.256285,51.7947632 98.2322469,51.8148888 98.2079022,51.8345264 C98.1948616,51.844015 98.1824818,51.8538199 98.1700108,51.863513 C98.1380169,51.8893572 98.1045897,51.9140356 98.0706657,51.937836 C98.0644056,51.9414038 98.0587622,51.945338 98.0531025,51.9492501 C97.9738481,52.004708 97.8912494,52.0549832 97.806415,52.1003436 C97.7307135,52.1407746 97.6527657,52.1777636 97.5727956,52.2108544 C97.5552122,52.2178358 97.5380691,52.224683 97.5208615,52.2313438 C97.3753406,52.2882564 97.222814,52.3321468 97.0652442,52.3617376 C97.0390598,52.3662685 97.0131513,52.3707512 96.9871789,52.3748403 C96.9558651,52.3800545 96.9237921,52.3844564 96.8915372,52.3882644 C96.885971,52.3887488 96.8806557,52.3893673 96.8753382,52.3899694 C96.8267518,52.3955555 96.7775338,52.3996514 96.7279437,52.4023492 C96.7143983,52.4031803 96.7003599,52.4038527 96.6863138,52.4044112 C96.652748,52.4055709 96.6190893,52.4062201 96.585279,52.4062201 L96.5587275,52.4063413 C96.5357375,52.406123 96.512739,52.4055984 96.4897385,52.4047664 L96.585279,52.4062201 C96.5252643,52.4062201 96.4657273,52.4041745 96.406734,52.4001493 C96.3767436,52.3983749 96.3467582,52.3957972 96.3167965,52.3926914 C96.2950359,52.3901964 96.2734828,52.3876958 96.2520121,52.3849317 C96.2171891,52.3806422 96.1825019,52.3754355 96.1478828,52.3695104 C96.1269093,52.3657876 96.1059645,52.361949 96.0851096,52.3578597 C96.0565718,52.3523443 96.0282403,52.3462682 95.9999764,52.3397026 C95.9762221,52.3341608 95.9529062,52.3284125 95.9297173,52.3223501 C95.9024424,52.3151873 95.8747822,52.3074425 95.8472094,52.2992184 C95.8174186,52.2904316 95.7884504,52.2812412 95.7597082,52.2715592 C95.7419794,52.2654227 95.7236046,52.25899 95.7052786,52.2523386 C95.6713737,52.2402539 95.6384121,52.22753 95.6057846,52.214158 C95.5886307,52.206825 95.5712967,52.1994844 95.5540167,52.1919411 C95.5184395,52.1767761 95.4834082,52.1605612 95.4488116,52.1435958 C95.4329476,52.1353774 95.4166535,52.1271625 95.4004178,52.1187596 C95.3677048,52.1023161 95.3358866,52.0850031 95.3044813,52.0670503 C95.2885628,52.0574122 95.2719545,52.0476711 95.2554189,52.0377239 C95.2041803,52.0074518 95.1548101,51.9753926 95.1066403,51.9417337 L95.1185144,51.9494555 C92.0996135,49.867902 91.0701365,49.9795067 88.5147505,52.2326963 L87.7775328,52.8974138 C85.3613649,55.0860214 83.7972524,56.021116 81.3575729,56.021116 C78.6284582,56.021116 77.0430916,54.9786045 74.5219685,52.3584693 L74.0831081,51.8976031 C72.693456,50.4332279 72.0432989,49.924948 71.3964925,49.7883072 C70.6879394,49.6386221 69.6765428,49.9574528 68.1759055,51.0908558 C67.5242308,60.5259211 59.6633128,67.9857669 50.0640837,67.9857669 C40.5260209,67.9857669 32.7031598,60.6159726 31.9684565,51.2630467 C29.7238335,49.9307402 28.6549436,50.2657301 26.4238176,52.2327811 L25.6829183,52.9007805 C23.2698128,55.0862845 21.7054879,56.021116 19.2682026,56.021116 C16.6317504,56.021116 15.0604837,55.0485506 12.6857089,52.6241955 L11.6071932,51.5008904 C10.4729844,50.3385202 9.88477554,49.9110388 9.30024507,49.7880257 C8.46452146,49.6121497 7.20696313,50.0886539 5.22181143,51.7860469 L5.19093842,51.8121193 C5.16116761,51.836807 5.13083389,51.8608396 5.09995938,51.8841949 L5.22181143,51.7860469 C5.17155018,51.8290225 5.12011579,51.8697334 5.06763259,51.9081895 C5.03660562,51.9309813 5.00490077,51.9531322 4.97268715,51.9745794 C4.95154167,51.9886428 4.93047315,52.0022368 4.90926404,52.0154899 C4.89328229,52.0254685 4.87666345,52.0355931 4.85992276,52.0455341 C4.82763472,52.064732 4.79557872,52.0828432 4.76325032,52.1002081 C4.6822599,52.1436606 4.5986064,52.1829973 4.51265252,52.2178433 C4.50118018,52.2225084 4.49007553,52.2269152 4.47894866,52.2312412 C4.43008873,52.2502489 4.38008665,52.2679588 4.32940483,52.2841473 C4.24732832,52.3101701 4.16858778,52.3310664 4.08926281,52.3481698 C4.06275591,52.3539277 4.03560887,52.3593281 4.00831228,52.3642997 C3.98510249,52.3685031 3.962085,52.3723762 3.93903364,52.3759351 C3.91306807,52.3799518 3.88633185,52.3836523 3.85946823,52.3869405 C3.82262854,52.3914688 3.78641444,52.3951296 3.75016245,52.3980258 C3.73120744,52.3994891 3.71148945,52.4008396 3.69171192,52.4019677 C3.65904368,52.4038964 3.62665828,52.4051365 3.59427212,52.4057706 C3.5771865,52.4060459 3.55971312,52.4062201 3.54219905,52.4062201 L3.5060306,52.4059996 C3.48531322,52.4057016 3.46460235,52.4051559 3.44390277,52.404363 L3.54219905,52.4062201 C3.47843337,52.4062201 3.41520704,52.4039108 3.35259912,52.3993714 C3.33752063,52.3981483 3.32220526,52.3968862 3.30690196,52.3954884 C3.26701489,52.3920475 3.22777621,52.3875886 3.18881405,52.3822614 C3.16901482,52.3792541 3.1486561,52.3762096 3.12833271,52.372923 C3.09868043,52.3684818 3.06976391,52.3633098 3.04101832,52.3576612 C3.01055271,52.3512724 2.97982272,52.3446428 2.94920725,52.3374525 C2.92682521,52.3326107 2.90516447,52.3272198 2.88361367,52.3215576 C2.85906806,52.3147046 2.8339713,52.3077166 2.80897044,52.3003464 C2.77524422,52.2907689 2.74227002,52.280291 2.7095899,52.2691769 C2.69630856,52.2643545 2.68294368,52.2596994 2.66961214,52.2549326 C2.63629006,52.2432609 2.60334942,52.2306714 2.57074018,52.2174354 C2.54865811,52.2083425 2.52665718,52.1990851 2.50476803,52.1895135 C2.47759991,52.1776612 2.45059236,52.1652482 2.42384034,52.1523882 C2.39846555,52.140284 2.37343373,52.1277821 2.34857737,52.1148546 C2.33069973,52.1053594 2.31261457,52.0956523 2.29465993,52.0857378 C2.26491336,52.0696048 2.23564484,52.0527227 2.20666081,52.0352292 C2.18608157,52.022413 2.1656982,52.0096941 2.14550748,51.9967017 C2.12338745,51.9829273 2.10121259,51.9681909 2.07922976,51.9530817 C2.05298132,51.9345425 2.02705214,51.9159924 2.00148632,51.896981 C1.93562928,51.8485259 1.87144308,51.7958682 1.80944705,51.739719 C1.7771118,51.7101289 1.74549825,51.6800667 1.71466036,51.6492288 L1.69737066,51.6319195 C1.68359818,51.6178555 1.66995334,51.6036033 1.65643958,51.589163 C1.63081851,51.5617739 1.60590741,51.5340298 1.58159751,51.505754 C1.58020377,51.5040614 1.57902245,51.5026827 1.57784226,51.5013025 L1.55294991,51.4718514 C1.53217065,51.4468301 1.51185448,51.4214104 1.49201457,51.3956055 L1.57784226,51.5013025 C1.52845486,51.4435424 1.48205824,51.3842331 1.43863766,51.3235631 C1.42290799,51.3016524 1.40747604,51.2793482 1.39238962,51.2567934 C1.37951138,51.2375171 1.3669237,51.2181527 1.354625,51.1986681 C1.3346446,51.1669844 1.31539973,51.1349568 1.29683884,51.1024878 C1.28907018,51.0889673 1.28136763,51.0752084 1.27380222,51.0613987 C1.25418787,51.0254969 1.23549749,50.9893631 1.21764688,50.9527447 C1.18684887,50.8896341 1.15896587,50.8258899 1.13379952,50.7613962 C1.12373805,50.735584 1.11424347,50.7100655 1.10514406,50.6843602 C1.08517322,50.6278815 1.06723193,50.5708689 1.05132668,50.5134517 C1.01718934,50.3904057 0.991966831,50.263684 0.976347212,50.1340067 C0.971444894,50.0936022 0.96750003,50.0528739 0.964521132,50.012103 C0.96328106,49.9943279 0.962155073,49.9763104 0.961214615,49.9582439 C0.959180121,49.9204472 0.958041484,49.8828807 0.957717435,49.8453203 C0.957703131,49.8371753 0.95766905,49.8294367 0.95766905,49.8216901 C0.95766905,22.7040475 22.944409,0.715620084 50.063739,0.715620084 C77.1830691,0.715620084 99.169809,22.7040475 99.169809,49.8216901 L99.1702749,49.8485863 C99.1700756,49.8695771 99.1696209,49.8905751 99.16891,49.9115752 Z M50.0640837,36.8370114 C42.8946666,36.8370114 37.081128,42.6518834 37.081128,49.8216901 C37.081128,56.9939988 42.8971663,62.8167069 50.0640837,62.8167069 C57.2340023,62.8167069 63.0504854,56.9944438 63.0504854,49.8216901 C63.0504854,42.6514389 57.2365022,36.8370114 50.0640837,36.8370114 Z M50.063739,5.88468008 C27.4378265,5.88468008 8.80457563,22.9913556 6.39120965,44.9738107 C9.74295838,43.7181162 12.474959,44.9751034 15.5236472,48.1159548 L15.9138255,48.5246472 C17.6405429,50.3447121 18.3685146,50.852056 19.2682026,50.852056 C19.9746437,50.852056 20.6402318,50.4734937 22.0121214,49.2500636 L22.5420239,48.7706292 C25.9389944,45.6840341 28.7652886,44.4673746 32.369143,45.7619079 C34.2119699,37.6912844 41.4352771,31.6679514 50.0640837,31.6679514 C58.5408959,31.6679514 65.6604773,37.4772357 67.6595558,45.3303653 C71.3991129,43.5250445 74.3251612,44.721236 77.6235565,48.1215362 L78.3897836,48.9222736 C79.8473603,50.4203505 80.5298619,50.852056 81.3575729,50.852056 C82.0657739,50.852056 82.7317171,50.4731713 84.1060801,49.2473179 L84.6328273,48.7706973 C87.8184593,45.8759031 90.5015481,44.6258748 93.7950682,45.5493304 C91.6476376,23.2910662 72.8869951,5.88468008 50.063739,5.88468008 Z" fill="#00B077"></path>
    </g>
</svg>