<?xml version="1.0" encoding="UTF-8"?>
<svg width="100px" height="100px" viewBox="0 0 100 100" version="1.1" xmlns="http://www.w3.org/2000/svg" xmlns:xlink="http://www.w3.org/1999/xlink">
    <!-- Generator: Sketch 63.1 (92452) - https://sketch.com -->
    <title>EPS</title>
    <desc>Created with Sketch.</desc>
    <g id="EPS" stroke="none" stroke-width="1" fill="none" fill-rule="evenodd">
        <path d="M39.804,10.268 L17.189,33.083 L39.804,33.083 L39.804,10.268 Z M51.083912,56.822748 C55.5650805,56.822748 58.5889725,60.0097288 58.5548524,63.9931662 C58.5216952,67.8641765 55.6092809,70.99203 51.3465686,71.1155958 L51.083912,71.119388 L47.501,71.119 L47.501152,74.882748 C47.501152,76.252839 46.4331922,77.3734946 45.0843153,77.4576722 L44.921152,77.462748 C43.551061,77.462748 42.4304054,76.3947882 42.3462278,75.0459113 L42.341152,74.882748 L42.341152,59.402748 C42.341152,58.032657 43.4091118,56.9120014 44.7579887,56.8278238 L44.921152,56.822748 L51.083912,56.822748 Z M63.3166054,58.434414 C66.4093031,55.7774829 71.3295553,56.6050193 74.0943369,59.4013165 C75.0961635,60.4145629 75.0869059,62.0481023 74.0736595,63.0499289 C73.1044673,64.0081978 71.5677481,64.0413916 70.5591998,63.1557198 L70.4250471,63.0292515 C69.39883,61.9913366 67.4719518,61.6672552 66.6791907,62.3483148 C65.9690165,62.9584824 66.1257262,63.6462471 68.3088484,64.3870114 L68.5264832,64.4588629 C74.0351474,66.2274453 76.3894688,69.0090446 75.1073814,73.2731293 C73.6925428,77.985047 67.1271225,78.6869165 61.485739,75.5558438 C60.239873,74.8643651 59.7904534,73.2938369 60.4819322,72.047971 C61.1734109,70.802105 62.7439391,70.3526854 63.989805,71.0441642 C65.7430208,72.0172315 67.5017429,72.4206133 68.8589124,72.2755265 C69.7411513,72.1812117 70.1222825,71.9326708 70.165637,71.7882853 C70.4455428,70.8573487 70.1504675,70.4366273 67.4635676,69.5400631 L66.9482797,69.3715885 C60.8810064,67.4213154 59.3812545,61.815589 63.3166054,58.434414 Z M82.8702,1.42 C84.240291,1.42 85.3609466,2.48795982 85.4451242,3.83683674 L85.4502,4 L85.4498334,46.768 L88.029168,46.768144 C89.399259,46.768144 90.5199146,47.8361038 90.6040922,49.1849807 L90.609168,49.348144 L90.609168,84.933224 C90.609168,86.303315 89.5412082,87.4239706 88.1923313,87.5081482 L88.029168,87.513224 L13.5808334,87.513 L13.581,94.3 L80.289,94.3 L80.289512,93.29896 C80.289512,91.928869 81.3574718,90.8082134 82.7063487,90.7240358 L82.869512,90.71896 C84.239603,90.71896 85.3602586,91.7869198 85.4444362,93.1357967 L85.449512,93.29896 L85.449512,96.88 C85.449512,98.250091 84.3815522,99.3707466 83.0326753,99.4549242 L82.869512,99.46 L11.001032,99.46 C9.63094099,99.46 8.51028535,98.3920402 8.42610784,97.0431633 L8.421032,96.88 L8.42089769,84.9664602 C8.42075804,84.9553981 8.420688,84.9443192 8.420688,84.933224 L8.42083337,84.905 L8.42083337,49.381 L8.420688,49.348144 L8.42083337,49.32 L8.421032,44.68316 C8.421032,43.2582653 9.57613735,42.10316 11.001032,42.10316 C12.371123,42.10316 13.4917786,43.1711198 13.5759562,44.5199967 L13.581032,44.68316 L13.5808334,46.768 L80.2898334,46.768 L80.29,6.58 L44.964,6.58 L44.96484,35.66348 C44.96484,37.033571 43.8968802,38.1542266 42.5480033,38.2384042 L42.38484,38.24348 L11,38.24348 C8.76028556,38.24348 7.60764784,35.6030321 9.0594685,33.9626454 L9.16761981,33.8472248 L40.556,2.179 L40.6867701,2.05744402 L40.8276138,1.94254226 L40.9108305,1.88224998 L41.0388424,1.79850251 L41.1264315,1.74694684 L41.3099079,1.65390699 L41.465,1.588 L41.599014,1.54185884 L41.7753011,1.49266471 L41.9037429,1.46477585 L42.1154743,1.43402168 L42.2873345,1.42183422 L82.8702,1.42 Z M85.449,51.928 L13.5808334,51.928 L13.5808334,82.353 L85.449,82.353 L85.449,51.928 Z M36.690608,56.822748 C38.1155027,56.822748 39.270608,57.9778533 39.270608,59.402748 C39.270608,60.772839 38.2026482,61.8934946 36.8537713,61.9776722 L36.690608,61.982748 L28.759,61.982 L28.7588334,64.562 L33.250092,64.562748 C34.6749867,64.562748 35.830092,65.7178533 35.830092,67.142748 C35.830092,68.512839 34.7621322,69.6334946 33.4132553,69.7176722 L33.250092,69.722748 L28.7588334,69.722 L28.759,72.302 L36.690608,72.302748 C38.060699,72.302748 39.1813546,73.3707078 39.2655322,74.7195847 L39.270608,74.882748 C39.270608,76.252839 38.2026482,77.3734946 36.8537713,77.4576722 L36.690608,77.462748 L26.179688,77.462748 C24.809597,77.462748 23.6889414,76.3947882 23.6047638,75.0459113 L23.599688,74.882748 L23.599688,59.402748 C23.599688,58.032657 24.6676478,56.9120014 26.0165247,56.8278238 L26.179688,56.822748 L36.690608,56.822748 Z M47.501,61.982 L51.083912,61.982748 L51.2830983,61.9872497 C52.7104499,62.0530123 53.4045959,62.8335311 53.3950416,63.9489698 C53.3849428,65.1279781 52.5913314,65.959388 51.083912,65.959388 L51.083912,65.959388 L47.501,65.959 L47.501,61.982 Z" fill="#00B077"></path>
    </g>
</svg>