<?xml version="1.0" encoding="UTF-8"?>
<svg width="100px" height="100px" viewBox="0 0 100 100" version="1.1" xmlns="http://www.w3.org/2000/svg" xmlns:xlink="http://www.w3.org/1999/xlink">
    <!-- Generator: Sketch 63.1 (92452) - https://sketch.com -->
    <title>Edit</title>
    <desc>Created with Sketch.</desc>
    <g id="Edit" stroke="none" stroke-width="1" fill="none" fill-rule="evenodd">
        <path d="M71.4218001,9.04576893 C72.4293821,8.03812458 74.0630673,8.03814343 75.070626,9.04581104 L75.070626,9.04581104 L90.992666,24.969571 C92.0001372,25.9771511 92.00008,27.6106632 90.9925383,28.6181727 L90.9925383,28.6181727 L34.3617584,85.2458917 C34.2408076,85.487768 34.0794652,85.7145977 33.8777315,85.9163315 C33.6759977,86.1180652 33.449168,86.2794076 33.2072917,86.4003584 L27.9105925,91.6940499 C23.2257094,96.1481355 16.7594908,95.8263294 11.6532507,92.0345921 L5.4043355,98.2839915 C4.39678282,99.2915442 2.76321718,99.2915442 1.7556645,98.2839915 C0.79191847,97.3202455 0.750016468,95.783739 1.6299585,94.7701877 L1.7556645,94.6353205 L8.00495841,88.3849966 C4.14918545,83.1887815 3.883745,76.585544 8.58354844,71.8857406 L8.58354844,71.8857406 L13.6429834,66.8239968 C13.7634799,66.5851274 13.9234789,66.3610821 14.1229805,66.1615805 C14.3224821,65.9620789 14.5465274,65.8020799 14.7853968,65.6815834 Z M16.039,71.727 L12.2320475,75.5345835 C9.17954301,78.587088 9.78589495,83.1324087 13.3460924,86.6939524 C16.9065288,90.2557353 21.4503746,90.8624191 24.5052447,87.8081243 L24.5052447,87.8081243 L28.313,84 L16.039,71.727 Z M73.245356,14.518864 L19.688,68.078 L31.961,80.351 L85.519356,26.792864 L73.245356,14.518864 Z M82.0444203,1.6299585 L82.1792875,1.7556645 L98.2836475,17.8600245 C99.2912002,18.8675772 99.2912002,20.5011428 98.2836475,21.5086955 C97.3199015,22.4724415 95.783395,22.5143435 94.7698437,21.6344015 L94.6349765,21.5086955 L78.5306165,5.4043355 C77.5230638,4.39678282 77.5230638,2.76321718 78.5306165,1.7556645 C79.4943625,0.79191847 81.030869,0.750016468 82.0444203,1.6299585 Z" fill="#00B077"></path>
    </g>
</svg>