<?xml version="1.0" encoding="UTF-8"?>
<svg width="100px" height="100px" viewBox="0 0 100 100" version="1.1" xmlns="http://www.w3.org/2000/svg" xmlns:xlink="http://www.w3.org/1999/xlink">
    <!-- Generator: Sketch 63.1 (92452) - https://sketch.com -->
    <title>Eggplant</title>
    <desc>Created with Sketch.</desc>
    <g id="Eggplant" stroke="none" stroke-width="1" fill="none" fill-rule="evenodd">
        <path d="M58.7827251,19.6513424 C59.8273464,20.6240844 59.8856161,22.2594806 58.9128741,23.3041019 L56.1900986,26.2652188 C54.9995733,27.5367343 53.9172549,28.6226731 52.7458995,29.6973683 C49.7491497,32.4468263 46.39638,34.8912058 42.2622137,37.2012451 C39.1871066,38.9195161 35.7281077,40.5304776 31.8130485,42.0416687 L30.9671005,42.363971 C18.957329,46.877441 11.5714383,53.7001771 8.90434046,61.6652805 C6.55504447,68.6812906 8.06243206,76.3052622 12.8389244,82.5247633 C17.7312026,88.8950301 25.4760627,93.0544308 34.2993603,93.6881109 C44.3749381,94.4117284 55.2608755,90.6036273 65.837029,81.9076617 C77.4282539,72.3775832 84.2114406,55.4349106 84.5075071,39.9486618 C84.5347911,38.5215261 85.7138312,37.386722 87.140967,37.414006 C88.5681027,37.4412901 89.7029067,38.6203302 89.6756227,40.0474659 C89.3527407,56.9363469 81.9946222,75.3150527 69.1198791,85.9004147 C57.5575029,95.4072762 45.3821487,99.6664389 33.9290775,98.8438913 C23.6347957,98.1045667 14.5320432,93.2159057 8.73933929,85.6731889 C2.9480191,78.1322739 1.08849461,68.7272861 4.00277119,60.0240005 C7.1541587,50.6125996 15.512392,42.79317 28.5433756,37.7560348 L29.1481216,37.5255315 C33.1762475,36.0106737 36.6772329,34.400679 39.7408272,32.6888409 C43.5181236,30.5782091 46.5456286,28.370968 49.2513553,25.8885178 C50.1643382,25.0508742 51.0242864,24.1992486 51.9487021,23.2282332 L52.8782567,22.2341394 C53.6374621,21.4101466 54.8556278,20.076101 55.1299656,19.7814914 C56.1027076,18.73687 57.7381038,18.6786004 58.7827251,19.6513424 Z M34.9610097,50.7469644 C35.3604835,52.1173226 34.5734262,53.5520548 33.203068,53.9515286 C29.0020919,55.1761571 24.2955959,58.1283883 21.6613704,61.6397929 C18.4372743,65.9374909 18.2982462,70.7483617 22.1852904,76.3777353 C22.9963374,77.5523261 22.7016269,79.1620036 21.5270361,79.9730506 C20.3524452,80.7840976 18.7427678,80.4893871 17.9317208,79.3147962 C12.7706016,71.8402561 12.9798802,64.5984666 17.5265023,58.5378504 C20.8870193,54.0583042 26.5480502,50.5073245 31.7564455,48.9890227 C33.1268037,48.5895489 34.561536,49.3766062 34.9610097,50.7469644 Z M93.4472537,0.731861448 L93.8921956,0.734939726 C95.3192946,0.764082402 96.4525621,1.94459951 96.4234194,3.37169848 C96.3953976,4.74390904 95.3028654,5.84445587 93.9501801,5.90117569 L93.7866606,5.90292228 C90.7965322,5.8418611 87.9216722,7.01376331 85.2736615,9.04949654 C84.3445596,9.7637699 83.5144802,10.5320842 82.8003624,11.2970951 L82.5435333,11.5772849 C82.3865163,11.7519179 82.2581097,11.901376 82.1595477,12.0205315 L81.9886668,12.2353325 L81.8777402,12.3733294 L81.8777402,12.3733294 C81.8051284,12.4569901 81.7310118,12.5326338 81.6525107,12.6035367 C81.6331827,12.6216257 81.6135288,12.6388592 81.5936601,12.6557537 C81.5704063,12.6748673 81.5468805,12.6941609 81.5230125,12.7130428 C81.4991826,12.7325364 81.474988,12.7509768 81.4505249,12.7689456 C81.4363157,12.7787923 81.4222731,12.7889025 81.4081255,12.7988745 C81.3809564,12.8185568 81.3529331,12.8374646 81.3246031,12.8557783 C81.3040657,12.8686477 81.283782,12.8813911 81.2633104,12.8938584 C81.2401179,12.9082689 81.2167223,12.9219706 81.1931464,12.9352828 C81.1623563,12.9525395 81.1307326,12.9696041 81.0987192,12.986021 C81.0871693,12.9919342 81.0758061,12.9976325 81.064407,13.0032437 C81.0309327,13.0198363 80.9969371,13.0357232 80.9625458,13.0508832 C80.9435895,13.0589781 80.9248088,13.0669596 80.9059474,13.0747131 C80.6218425,13.1922635 80.311664,13.2603998 79.9862381,13.2685491 C79.976414,13.2689042 79.9667146,13.2691011 79.9570132,13.2692437 L79.9531514,13.2691699 L78.4986172,13.2660115 L67.8943411,13.132474 L65.774,13.101 L71.3465486,16.9576823 C72.0101421,17.4169741 72.4181213,18.1574146 72.4571227,18.9565286 L72.4595215,19.1418798 L72.262,27.758 L78.7183873,23.5810531 C79.403165,23.1379485 80.2533912,23.0459593 81.012361,23.3244153 L81.1857711,23.3952592 L87.84,26.399 L87.648857,25.9718726 L87.1935953,24.9761857 C86.922989,24.3900601 86.6592022,23.829403 86.4035361,23.2977394 L86.0569523,22.5847836 C85.2639997,20.9721137 84.5837588,19.721045 84.0689621,18.9438465 C83.2807244,17.7538288 83.6064314,16.1501359 84.796449,15.3618982 C85.9864667,14.5736605 87.5901596,14.8993675 88.3783973,16.0893851 C89.0790249,17.1471361 89.9065071,18.6804913 90.8565164,20.6328438 L91.0619636,21.0575977 C91.3298493,21.6146724 91.6050853,22.1996636 91.8866275,22.8094762 C92.6662921,24.498208 93.4604794,26.302343 94.2285287,28.1057743 L95.2382799,30.5174438 C96.1007564,32.6314601 94.0069441,34.7153912 91.9239136,33.9089223 L91.7819404,33.8494232 L80.343,28.686 L70.971324,34.7508549 C69.275083,35.8484552 67.056306,34.6621816 66.9844579,32.6840368 L66.9833898,32.5219408 L67.259,20.415 L55.8405215,12.5119178 C53.7851515,11.0893379 54.7532536,7.90421017 57.1881682,7.80457617 L76.5561103,8.07800116 C77.4344322,8.08777889 78.1613694,8.094713 78.7215359,8.09855311 C78.8145009,7.99389377 78.9151698,7.88405253 79.021759,7.76986703 C79.9197888,6.80783728 80.9555876,5.84911095 82.123195,4.9514797 C85.5066471,2.35035503 89.3065988,0.759215773 93.4472537,0.731861448 Z" fill="#00B077"></path>
    </g>
</svg>