<?xml version="1.0" encoding="UTF-8"?>
<svg width="100px" height="100px" viewBox="0 0 100 100" version="1.1" xmlns="http://www.w3.org/2000/svg" xmlns:xlink="http://www.w3.org/1999/xlink">
    <!-- Generator: Sketch 63.1 (92452) - https://sketch.com -->
    <title>Email</title>
    <desc>Created with Sketch.</desc>
    <g id="Email" stroke="none" stroke-width="1" fill="none" fill-rule="evenodd">
        <path d="M96.46,13 C97.8848947,13 99.04,14.1551053 99.04,15.58 C99.04,16.950091 97.9720402,18.0707466 96.6231633,18.1549242 L96.46,18.16 L6.16,18.159 L6.16,83.54 L93.88,83.54 L93.88,26.4504 C93.88,25.080309 94.9479598,23.9596534 96.2968367,23.8754758 L96.46,23.8704 C97.830091,23.8704 98.9507466,24.9383598 99.0349242,26.2872367 L99.04,26.4504 L99.04,86.12064 C99.04,87.490731 97.9720402,88.6113866 96.6231633,88.6955642 L96.46,88.70064 L3.58,88.70064 C2.20990899,88.70064 1.08925335,87.6326802 1.00507584,86.2838033 L1,86.12064 L1,15.58 C1,14.209909 2.06795982,13.0892534 3.41683674,13.0050758 L3.58,13 L96.46,13 Z M67.3052508,54.1918363 L67.4416177,54.3159137 L87.0822977,73.4904737 C88.1018762,74.4858553 88.1214918,76.1193031 87.1261103,77.1388817 C86.1740062,78.1141307 84.6381136,78.1744798 83.6140692,77.3067717 L83.4777023,77.1826943 L63.8370223,58.0081343 C62.8174438,57.0127527 62.7978282,55.3793049 63.7932097,54.3597263 C64.7453138,53.3844773 66.2812064,53.3241282 67.3052508,54.1918363 Z M35.9949823,54.3597263 C36.9470863,55.3349754 36.9705352,56.8718742 36.0784861,57.8747863 L35.9511697,58.0081343 L16.3104897,77.1826943 C15.2909111,78.1780758 13.6574633,78.1584602 12.6620817,77.1388817 C11.7099777,76.1636326 11.6865288,74.6267338 12.5785779,73.6238217 L12.7058943,73.4904737 L32.3465743,54.3159137 C33.3661529,53.3205322 34.9996007,53.3401478 35.9949823,54.3597263 Z M87.5239812,24.6250173 C88.3907876,25.6801489 88.280598,27.2172329 87.300875,28.1395689 L87.1681627,28.2562972 L51.6570427,57.4292172 C50.7553185,58.1699972 49.4766401,58.2089856 48.5352365,57.5461824 L48.3815813,57.4292172 L12.8704613,28.2562972 C11.7694545,27.3518035 11.6101492,25.7260241 12.5146428,24.6250173 C13.3814493,23.5698858 14.9106865,23.3796155 16.0056538,24.1616689 L16.1459227,24.2691988 L50.019,52.096 L83.8927013,24.2691988 C84.9937081,23.3647052 86.6194875,23.5240105 87.5239812,24.6250173 Z" fill="#00B077"></path>
    </g>
</svg>