<?xml version="1.0" encoding="UTF-8"?>
<svg width="100px" height="100px" viewBox="0 0 100 100" version="1.1" xmlns="http://www.w3.org/2000/svg" xmlns:xlink="http://www.w3.org/1999/xlink">
    <!-- Generator: Sketch 63.1 (92452) - https://sketch.com -->
    <title>FastForward</title>
    <desc>Created with Sketch.</desc>
    <g id="FastForward" stroke="none" stroke-width="1" fill="none" fill-rule="evenodd">
        <path d="M6.11388,7.672528 C7.48397101,7.672528 8.60462665,8.74048782 8.68880416,10.0893647 L8.69388,10.252528 L8.69388,89.068088 C8.69388,90.4929827 7.53877465,91.648088 6.11388,91.648088 C4.74378899,91.648088 3.62313335,90.5801282 3.53895584,89.2312513 L3.53388,89.068088 L3.53388,10.252528 C3.53388,8.82763335 4.68898535,7.672528 6.11388,7.672528 Z M31.8289156,10.8212542 L88.7503407,43.681707 C94.8561321,47.205621 94.8561321,52.113275 88.7505956,55.6370418 L31.8287113,88.4960397 C25.7225892,92.0214865 21.470728,89.5665808 21.470728,82.515748 L21.470728,16.803148 C21.470728,9.75242155 25.7227017,7.29709643 31.8289156,10.8212542 Z M16.310728,16.803148 L16.310728,82.515748 C16.310728,93.5387119 24.8625786,98.4763111 34.4085887,92.9648016 L91.3301047,60.1060163 C100.876364,54.596461 100.876364,44.722435 91.3299004,39.2127618 L34.4082204,6.3521618 C24.8620039,0.842631118 16.310728,5.78061149 16.310728,16.803148 Z" id="Fast-Forward" fill="#00B077"></path>
    </g>
</svg>