<?xml version="1.0" encoding="UTF-8"?>
<svg width="100px" height="100px" viewBox="0 0 100 100" version="1.1" xmlns="http://www.w3.org/2000/svg" xmlns:xlink="http://www.w3.org/1999/xlink">
    <!-- Generator: Sketch 63.1 (92452) - https://sketch.com -->
    <title>File</title>
    <desc>Created with Sketch.</desc>
    <g id="File" stroke="none" stroke-width="1" fill="none" fill-rule="evenodd">
        <path d="M46.8835556,6 C51.4502659,6 56.8853751,8.92978553 59.4644857,12.7428554 L59.6358648,13.0041821 L60.5338179,14.4179974 C62.0399732,16.7919792 65.7867107,18.896304 68.6627403,19.0216588 L68.9297222,19.0275609 L96.58,19.0275609 C98.0048947,19.0275609 99.16,20.1826663 99.16,21.6075609 C99.16,22.9776519 98.0920402,24.0983076 96.7431633,24.1824851 L96.58,24.1875609 L68.9297222,24.1875609 C64.3612388,24.1875609 58.9245616,21.2578629 56.348572,17.4447114 L56.177413,17.1833788 L55.2803279,15.7709309 C53.7715621,13.3961312 50.0250196,11.291289 47.1504016,11.1659035 L46.8835556,11.16 L10.4688889,11.16 C8.17326963,11.16 6.27470021,12.9872805 6.16500549,15.2480248 L6.16,15.4547023 L6.16,84.7052977 C6.16,86.9910326 7.9910512,88.8855406 10.2613288,88.995005 L10.4688889,89 L89.6911111,89 C91.9867304,89 93.8852998,87.1727195 93.9949945,84.9119752 L94,84.7052977 L94,31.4332292 C94,30.0083346 95.1551053,28.8532292 96.58,28.8532292 C97.950091,28.8532292 99.0707466,29.9211891 99.1549242,31.270066 L99.16,31.4332292 L99.16,84.7052977 C99.16,89.8226917 95.0492089,94.0132482 89.9598583,94.1562289 L89.6911111,94.16 L10.4688889,94.16 C5.3461669,94.16 1.14705305,90.0576745 1.00377883,84.9737615 L1,84.7052977 L1,15.4547023 C1,10.3373083 5.11079106,6.1467518 10.2001417,6.00377108 L10.4688889,6 L46.8835556,6 Z" id="Folder" fill="#00B077"></path>
    </g>
</svg>