<?xml version="1.0" encoding="UTF-8"?>
<svg width="100px" height="100px" viewBox="0 0 100 100" version="1.1" xmlns="http://www.w3.org/2000/svg" xmlns:xlink="http://www.w3.org/1999/xlink">
    <!-- Generator: Sketch 63.1 (92452) - https://sketch.com -->
    <title>Fingerprint</title>
    <desc>Created with Sketch.</desc>
    <g id="Fingerprint" stroke="none" stroke-width="1" fill="none" fill-rule="evenodd">
        <path d="M66.032475,73.8557063 C67.3694314,74.3485271 68.0537385,75.8318546 67.5609177,77.168811 C64.7226451,84.8686618 61.0136266,92.1367815 56.4716337,98.8985984 C55.6771177,100.081421 54.0741681,100.396206 52.8913456,99.6016897 C51.708523,98.8071737 51.3937384,97.2042241 52.1882543,96.0214016 C56.5009595,89.600933 60.0227692,82.6996641 62.7193703,75.384149 C63.2121911,74.0471926 64.6955186,73.3628855 66.032475,73.8557063 Z M49.428116,23.248708 C57.1867022,23.248708 63.477076,29.540385 63.477076,37.301108 C63.477076,60.6834563 56.5129744,81.6817357 43.1579793,98.5699482 C42.2741469,99.6876087 40.6516163,99.8771638 39.5339558,98.9933313 C38.4162953,98.1094989 38.2267402,96.4869683 39.1105727,95.3693078 C51.7282032,79.413538 58.317076,59.5466552 58.317076,37.301108 C58.317076,32.389935 54.3366736,28.408708 49.428116,28.408708 C44.5165307,28.408708 40.535716,32.3895227 40.535716,37.301108 C40.535716,49.580701 38.1086841,60.9829937 33.3492923,71.0810571 C32.7418072,72.3699662 31.204476,72.9223694 29.9155669,72.3148843 C28.6266578,71.7073992 28.0742546,70.170068 28.6817397,68.8811589 C33.1086084,59.488614 35.375716,48.8376518 35.375716,37.301108 C35.375716,29.5397333 41.6667413,23.248708 49.428116,23.248708 Z M48.7873368,48.8714197 C50.1969134,49.0797905 51.1706832,50.3913961 50.9623123,51.8009728 C48.5574238,68.0694431 42.02995,82.6402432 31.5137494,94.6270471 C30.5740462,95.6981599 28.9439577,95.8046885 27.8728449,94.8649854 C26.8017321,93.9252822 26.6952035,92.2951937 27.6349066,91.2240809 C37.4811352,80.0009391 43.595034,66.3533323 45.8577837,51.0463952 C46.0661545,49.6368186 47.3777601,48.6630488 48.7873368,48.8714197 Z M75.2022014,10.0754454 C87.1028081,18.834205 93.855372,33.9040815 93.855372,51.149172 C93.855372,67.1450484 88.0454831,81.3109811 77.6376434,90.2781261 C76.6606864,91.1198489 75.2122737,91.1109609 74.2457201,90.2573121 C70.9085491,87.3099618 71.099543,82.8432906 73.2739592,75.7197089 L73.5547726,74.818004 C73.6532408,74.5075997 73.7577321,74.1835714 73.8717246,73.8345544 L75.0781638,70.1824739 C75.1548278,69.9450209 75.2252072,69.723998 75.2923124,69.5098438 C76.721338,64.9456791 77.6996797,60.4564743 78.2808958,56.0828227 C78.4686005,54.6703456 79.7658041,53.6774712 81.1782813,53.8651758 C82.5907584,54.0528805 83.5836328,55.3500841 83.3959282,56.7625613 C82.8208108,61.0903194 81.882004,65.5187423 80.5346215,70.0137194 L80.2164138,71.0521877 C80.1212894,71.3557603 80.0210099,71.669133 79.9080348,72.0163332 L78.6724587,75.7571394 C78.4996968,76.2904843 78.350401,76.7634413 78.2091656,77.2261412 C77.3616811,80.0025761 76.9324269,82.1432302 76.8955759,83.6890887 L76.892816,83.866296 L76.9109002,83.8483021 C84.3485108,75.9995196 88.5603455,64.623897 88.6921806,51.772173 L88.695372,51.149172 C88.695372,35.4640193 82.6442927,21.9596645 72.1435826,14.2312186 C70.9959975,13.3866044 70.7503911,11.7716077 71.5950054,10.6240226 C72.4396196,9.47643753 74.0546163,9.23083113 75.2022014,10.0754454 Z M27.9726819,75.7949898 C29.166493,76.5728972 29.5036495,78.1712909 28.7257422,79.3651019 C26.8193058,82.2908034 24.6856854,85.0691598 22.3304915,87.6945926 C21.3790061,88.755253 19.7478397,88.8437568 18.6871794,87.8922715 C17.626519,86.9407861 17.5380152,85.3096197 18.4895005,84.2489594 C20.6687077,81.8197064 22.6410215,79.2514001 24.4025698,76.5480501 C25.1804772,75.354239 26.7788709,75.0170825 27.9726819,75.7949898 Z M49.4276,2 C55.8869358,2 61.8974547,3.20807526 67.3123805,5.5485515 C68.6203281,6.11388152 69.2223385,7.63247302 68.6570085,8.94042055 C68.0916785,10.2483681 66.573087,10.8503785 65.2651395,10.2850485 C60.5059101,8.22798186 55.1923958,7.16 49.4276,7.16 C25.8222189,7.16 10.16,25.525041 10.16,51.149 C10.16,60.2271885 12.1924995,68.6699434 16.0318756,75.6864523 C16.7158625,76.936447 16.2570225,78.5042488 15.0070277,79.1882356 C13.757033,79.8722225 12.1892312,79.4133825 11.5052444,78.1633877 C7.23766963,70.3643404 5,61.069334 5,51.149 C5,22.8412976 22.7740396,2 49.4276,2 Z M31.1218888,24.0922914 C32.3647243,24.7892023 32.8072836,26.3616774 32.1103726,27.6045128 C30.4637943,30.5409368 29.58826,33.8519991 29.58826,37.300764 C29.58826,49.9672411 26.7793902,61.1959779 21.1914677,70.7891477 C20.4742797,72.0203935 18.8947621,72.4371197 17.6635163,71.7199317 C16.4322705,71.0027437 16.0155443,69.4232261 16.7327323,68.1919803 C21.84362,59.4177688 24.42826,49.0854131 24.42826,37.300764 C24.42826,32.9628118 25.5333754,28.7835286 27.6096674,25.0807752 C28.3065783,23.8379397 29.8790534,23.3953804 31.1218888,24.0922914 Z M49.427944,12.301252 C63.2351187,12.301252 74.428144,23.4942773 74.428144,37.301452 C74.428144,48.0996594 73.0780773,58.4788488 70.4037703,68.2946505 C70.0292116,69.6694343 68.6110893,70.480277 67.2363055,70.1057183 C65.8615217,69.7311596 65.050679,68.3130373 65.4252377,66.9382535 C67.9773946,57.5707926 69.268144,47.647629 69.268144,37.301452 C69.268144,26.3440667 60.3853293,17.461252 49.427944,17.461252 C45.7299334,17.461252 42.1877724,18.4705754 39.1005149,20.3522877 C37.8838119,21.0938796 36.2963002,20.7087259 35.5547083,19.4920229 C34.8131164,18.2753199 35.1982701,16.6878082 36.4149731,15.9462163 C40.3053642,13.5749865 44.7754606,12.301252 49.427944,12.301252 Z M49.428632,34.721452 C50.8535267,34.721452 52.008632,35.8765573 52.008632,37.301452 C52.008632,39.2355537 51.9544018,41.1653548 51.8463465,43.0926359 C51.7665834,44.5152963 50.5486285,45.6039297 49.1259681,45.5241665 C47.7033077,45.4444034 46.6146743,44.2264485 46.6944375,42.8037881 C46.7971085,40.9725406 46.848632,39.1390586 46.848632,37.301452 C46.848632,35.8765573 48.0037373,34.721452 49.428632,34.721452 Z M19.4131907,31.2256738 C20.7852019,31.6102643 21.5856647,33.0342714 21.2010742,34.4062827 L21.1229585,34.6999316 C20.871077,35.6992186 20.7007572,36.9242892 20.5076336,39.0115412 L20.1421422,43.2174705 C19.9344842,45.5006276 19.7861459,46.6868986 19.5110778,48.3087203 L19.4744653,48.5228582 C19.075301,50.839742 18.5383954,52.9214158 17.8044607,54.8460699 C17.296762,56.1774476 15.8058959,56.8451714 14.4745181,56.3374727 C13.1431404,55.829774 12.4754166,54.3389079 12.9831153,53.0075301 C13.5272808,51.5805226 13.9506353,50.0073871 14.2822144,48.2423065 L14.3893815,47.6467745 C14.6822793,45.9466974 14.8234217,44.7942657 15.0579276,42.1397283 L15.346486,38.7866207 C15.5971379,36.0097551 15.81636,34.4984122 16.2325818,33.0135573 C16.6171723,31.6415461 18.0411794,30.8410833 19.4131907,31.2256738 Z M83.308437,37.0572446 L83.3599003,37.3140195 C83.4590148,37.8350054 83.5826862,38.6311062 83.7036678,39.6831643 C83.9162113,41.5314451 84.0513206,43.6323845 84.0732733,45.9608933 C84.0867064,47.3857246 82.942542,48.5516683 81.5177107,48.5651013 C80.0928794,48.5785344 78.9269357,47.43437 78.9135027,46.0095387 C78.8932921,43.8658288 78.7697695,41.9450604 78.5774508,40.2726549 C78.5191348,39.7655376 78.4579103,39.3121977 78.396588,38.9147042 L78.2809259,38.2297807 L78.261059,38.1294274 C77.9649839,36.7356325 78.8548616,35.3657222 80.2486566,35.069647 C81.6424515,34.7735719 83.0123618,35.6634496 83.308437,37.0572446 Z" fill="#00B077"></path>
    </g>
</svg>