<?xml version="1.0" encoding="UTF-8"?>
<svg width="100px" height="100px" viewBox="0 0 100 100" version="1.1" xmlns="http://www.w3.org/2000/svg" xmlns:xlink="http://www.w3.org/1999/xlink">
    <!-- Generator: Sketch 63.1 (92452) - https://sketch.com -->
    <title>Fish</title>
    <desc>Created with Sketch.</desc>
    <g id="Fish" stroke="none" stroke-width="1" fill="none" fill-rule="evenodd">
        <path d="M92.9917367,4.42836405 C94.4834106,4.8565841 95.2523836,6.48517603 94.6685025,7.89684898 L94.6007384,8.04720505 L88.8303444,19.8567841 C88.203696,21.139271 86.656036,21.670933 85.3735492,21.0442846 C84.1423618,20.4427021 83.6031346,18.9923154 84.1163847,17.7425847 L84.1860487,17.5874894 L88.564,8.626 L88.4024589,8.58834974 C82.4876784,7.24986368 75.4590366,6.56955401 68.640618,7.00649722 L67.8839483,7.05966754 C56.8330331,7.90514966 47.3510752,11.5908778 40.2961202,18.6458328 C36.9092903,22.0323127 34.2832004,25.8870192 32.3413539,30.1313728 C28.5147522,38.4952936 27.6311754,47.3740669 28.414725,55.0786276 L28.4769221,55.6476946 C28.4980028,55.8273379 28.5193501,55.9968322 28.5407193,56.1558675 L28.6354562,56.790411 C28.924769,58.3893427 27.6874958,59.8397601 26.0895721,59.83528 L25.2272814,59.7970764 C21.9911816,59.6780364 18.2432191,59.8209515 14.7325275,60.4238813 C10.8648688,61.088117 7.94442975,62.2358493 6.38718105,63.7940314 C5.90646246,64.27475 6.15336579,65.2235407 7.88492345,67.1488871 C9.17155501,68.5795131 11.0417807,70.1576888 13.3310354,71.7953462 C15.0708148,73.039927 16.9453117,74.2440595 18.8208961,75.3576239 L19.5853314,75.8062548 C19.8318113,75.9491917 20.0696103,76.085397 20.2976809,76.2144953 L21.2960694,76.767626 C21.7492677,77.0091311 22.1202482,77.3801693 22.3616827,77.8334052 L22.7263317,78.4969641 L23.1133285,79.1807777 C23.3173897,79.5370128 23.5370142,79.9139549 23.770937,80.3080691 C24.8839536,82.1832851 26.0875568,84.0574132 27.3316674,85.7968436 C28.9707742,88.0885307 30.5503603,89.9601397 31.9820243,91.2465357 L32.3660751,91.5830763 C34.0331697,93.0045813 34.8851181,93.1866051 35.3333651,92.7384924 C36.8902744,91.1815832 38.0381576,88.2606927 38.7032583,84.3926363 C39.2672308,81.1127158 39.4301396,77.6264168 39.3532634,74.5450012 L39.3176763,73.5119472 C39.3111789,73.3706029 39.3054107,73.2661935 39.3011961,73.2015212 C39.1955581,71.5804996 40.5889639,70.2802819 42.1756843,70.4656952 L42.7444311,70.5529403 L43.2215535,70.6170048 C43.4757278,70.6489431 43.7530892,70.6805567 44.0525912,70.7110189 C51.755453,71.4944729 60.6319365,70.6115919 68.9936042,66.7871747 C73.2384032,64.8457101 77.0933597,62.2198304 80.4802161,58.8326239 C89.8097364,49.5059716 94.6397344,33.4437126 93.9786497,19.4627733 C93.911231,18.0369698 95.0124194,16.8264741 96.4382229,16.7590554 C97.8640264,16.6916367 99.0745221,17.7928251 99.1419408,19.2186286 C99.8664072,34.5399951 94.6117507,52.0144647 84.1351069,62.4878878 C80.3011875,66.3222035 75.9345407,69.2966312 71.1435937,71.4878902 C62.447205,75.4654004 53.3766286,76.5767361 45.2667171,76.0032668 L44.54,75.946 L44.5373389,76.6496256 C44.5111922,79.1763369 44.3302163,81.8533783 43.9256911,84.4817377 L43.7975584,85.268586 C42.9678204,90.0941309 41.4657627,93.9162496 38.9881687,96.3938436 C35.9880477,99.3930657 32.2298662,98.4184148 28.527225,95.0914729 C26.7710247,93.5134707 24.966405,91.3752255 23.1273292,88.8039554 C21.7892793,86.9331855 20.508728,84.9392418 19.3258874,82.9463859 L18.8496042,82.1345605 C18.7736368,82.0035149 18.6994049,81.8746833 18.626952,81.7481926 L18.176,80.951 L18.1103172,80.9148037 C17.7604086,80.7192193 17.3871428,80.5068366 16.993948,80.2788296 L16.1820024,79.8023311 C14.1888509,78.6189651 12.1946118,77.337913 10.323571,75.9994322 C7.75542915,74.1622682 5.61915274,72.3595876 4.04154685,70.6054226 C0.709164268,66.9000936 -0.269244395,63.1403021 2.73155609,60.1395018 C5.20908448,57.660488 9.03165452,56.1582184 13.8575971,55.3294061 C16.7333828,54.8355156 19.6923852,54.6202226 22.4707297,54.5921931 L23.179,54.589 L23.167414,54.4558728 C22.5120662,46.3872534 23.5153708,37.3237833 27.3613224,28.6031484 L27.6408837,27.980847 C29.8325114,23.190539 32.8070713,18.8243307 36.6411373,14.990661 C44.6580455,6.9737527 55.2963176,2.83855415 67.4896269,1.90566988 C76.4523816,1.2199485 85.7600571,2.35234053 92.9917367,4.42836405 Z M20.8757964,64.9003867 L21.0392617,64.9049413 L31.1981877,65.5045523 C32.5863877,65.5864881 33.6501755,66.7483542 33.630296,68.1194419 L33.6226603,68.2849209 L32.7697654,79.2553893 C32.6591268,80.6784915 31.4157843,81.7424535 29.9926821,81.6318149 C28.6243146,81.5254317 27.5879924,80.3718 27.6086568,79.0180838 L27.6162564,78.8547317 L28.265,70.509 L20.734698,70.065021 C19.3645858,69.9841528 18.3069482,68.8500309 18.3023854,67.4961647 L18.30694,67.3326993 C18.3878083,65.9625871 19.5219301,64.9049494 20.8757964,64.9003867 Z M49.4098905,23.0663822 C49.6167548,29.9430304 53.0169662,36.6352928 57.9166435,41.4399797 C57.9238952,41.4467879 57.9309573,41.4539173 57.9379847,41.461095 C62.8392765,46.2575836 69.2365914,49.1664028 75.4380489,48.4861753 C76.8569352,48.33054 78.1333372,49.3546073 78.2889724,50.7734937 C78.4446077,52.19238 77.4205404,53.468782 76.001654,53.6244172 C68.8331025,54.4107237 61.6399647,51.555026 55.9154053,46.6208891 L56.1032323,46.4833429 C55.2334473,47.1251887 54.3555388,47.7671481 53.499402,48.3856716 L52.2764105,49.2635937 L51.5125589,49.8052626 C51.3887189,49.8925911 51.2666589,49.9784087 51.1464477,50.0626611 C47.6525131,52.5117428 47.4497173,55.2958998 49.4241973,56.9137093 C51.427483,58.5551209 54.2097013,57.7662056 56.1756884,53.5894792 C56.7835882,52.298 58.3233392,51.7438494 59.6148184,52.3517493 C60.9062976,52.9596491 61.4604482,54.4994001 60.8525483,55.7908793 C57.5085897,62.8950971 50.8668907,64.7783921 46.1481328,60.9120317 C41.4538188,57.0656997 41.9543925,50.1933878 48.179599,45.8298145 L49.6422082,44.7928255 C50.4801162,44.1928239 51.3528389,43.5591347 52.2276335,42.9174343 C47.5386954,37.4441365 44.4603722,30.4421883 44.2431677,23.2218083 C44.200248,21.7950572 45.3220649,20.6036536 46.748816,20.5607339 C48.1755671,20.5178142 49.3669707,21.6396311 49.4098905,23.0663822 Z M62.8936213,18.7006124 L63.0605531,18.5251551 C65.043245,16.5458875 68.272118,16.5508425 70.2620819,18.5408064 C72.2541907,20.5317712 72.2594993,23.7611501 70.278786,25.7430043 C68.2994602,27.72233 65.0735261,27.7159644 63.0793635,25.7218018 C61.1465947,23.7923622 61.0850807,20.6937866 62.8936213,18.7006124 Z M59.4086362,14.86692 C55.4066649,18.8735006 55.4166438,25.376144 59.4258627,29.3784544 C63.4338702,33.3864632 69.932658,33.399287 73.9343895,29.3975554 C77.9359123,25.3937278 77.9252237,18.8914911 73.9166342,14.8852041 C69.9115868,10.8801565 63.4122881,10.8701828 59.4086362,14.86692 Z M29.5607312,7.39438268 C30.5700529,6.38506093 32.2064868,6.38506093 33.2158086,7.39438268 C34.2251303,8.40370443 34.2251303,10.0401383 33.2158086,11.0494601 C27.3083609,16.9569077 23.2697485,23.8755613 20.8088005,31.4686465 C20.3687129,32.8265064 18.9111884,33.5705079 17.5533284,33.1304203 C16.1954685,32.6903327 15.451467,31.2328082 15.8915546,29.8749482 C18.5940119,21.5367028 23.0470806,13.9080333 29.5607312,7.39438268 Z" fill="#00B077"></path>
    </g>
</svg>