<?xml version="1.0" encoding="UTF-8"?>
<svg width="100px" height="100px" viewBox="0 0 100 100" version="1.1" xmlns="http://www.w3.org/2000/svg" xmlns:xlink="http://www.w3.org/1999/xlink">
    <!-- Generator: Sketch 63.1 (92452) - https://sketch.com -->
    <title>Flag</title>
    <desc>Created with Sketch.</desc>
    <g id="Flag" stroke="none" stroke-width="1" fill="none" fill-rule="evenodd">
        <path d="M53.3314071,72.0175539 C54.3007563,72.9869031 54.3429019,74.5323428 53.457844,75.5517868 L53.3314071,75.6874381 L30.7635571,98.2552881 C29.7501466,99.2686986 28.1070834,99.2686986 27.0936729,98.2552881 C26.1243237,97.2859389 26.0821781,95.7404992 26.967236,94.7210552 L27.0936729,94.5854039 L49.6615229,72.0175539 C50.6749334,71.0041434 52.3179966,71.0041434 53.3314071,72.0175539 Z M30.145151,62.292636 C31.848097,62.292636 33.239726,63.6255427 33.3336755,65.3049937 L33.338731,65.486216 L33.338,68.7888471 L36.041337,68.789132 C37.4745159,68.789132 38.636337,69.9509531 38.636337,71.384132 C38.636337,72.7621887 37.5621681,73.8893597 36.2054489,73.9740267 L36.041337,73.979132 L33.338,73.9788471 L33.338731,77.283086 C33.338731,79.0468515 31.9089165,80.476666 30.145151,80.476666 C28.442205,80.476666 27.050576,79.1437593 26.9566265,77.4643083 L26.951571,77.283086 L26.951,73.9788471 L24.239277,73.979132 C22.8060981,73.979132 21.644277,72.8173109 21.644277,71.384132 C21.644277,70.0060753 22.7184459,68.8789043 24.0751651,68.7942373 L24.239277,68.789132 L26.951,68.7888471 L26.951571,65.486216 C26.951571,63.7224505 28.3813855,62.292636 30.145151,62.292636 Z M84.488084,54.366295 C85.8661407,54.366295 86.9933117,55.4404639 87.0779787,56.7971831 L87.083084,56.961295 L87.083,60.2638471 L90.38427,60.264211 C91.8174489,60.264211 92.97927,61.4260321 92.97927,62.859211 C92.97927,64.2372677 91.9051011,65.3644387 90.5483819,65.4491057 L90.38427,65.454211 L87.083,65.4538471 L87.083084,68.758165 C87.083084,70.1913439 85.9212629,71.353165 84.488084,71.353165 C83.1100273,71.353165 81.9828563,70.2789961 81.8981893,68.9222769 L81.893084,68.758165 L81.893,65.4538471 L78.58221,65.454211 C77.1490311,65.454211 75.98721,64.2923899 75.98721,62.859211 C75.98721,61.4811543 77.0613789,60.3539833 78.4180981,60.2693163 L78.58221,60.264211 L81.893,60.2638471 L81.893084,56.961295 C81.893084,55.5281161 83.0549051,54.366295 84.488084,54.366295 Z M24.6236872,4.08159504 C23.6207672,1.89432672 25.8768984,-0.361781862 28.0641567,0.641160028 L28.0641567,0.641160028 L93.4477767,30.62206 C95.0913998,31.3757243 95.4796885,33.5371912 94.2011449,34.8157973 L94.2011449,34.8157973 L58.7984249,70.2202473 C57.5198355,71.4988992 55.3582621,71.1106347 54.6045872,69.466945 L54.6045872,69.466945 Z M32.254,8.272 L57.767,63.911 L87.893,33.784 L32.254,8.272 Z M37.7228108,45.7426736 C38.8084459,46.6783008 38.9300515,48.3168576 37.9944244,49.4024928 C37.0587972,50.4881279 35.4202404,50.6097335 34.3346052,49.6741064 C32.0437134,47.6997594 29.1628779,46.5462261 25.6711715,46.8264248 C24.2425849,46.9410645 22.9915529,45.8759 22.8769132,44.4473135 C22.7622735,43.0187269 23.827438,41.7676949 25.2560245,41.6530552 C30.2688025,41.2507952 34.4563496,42.927557 37.7228108,45.7426736 Z M12.905874,26.93801 C14.2839307,26.93801 15.4111017,28.0121789 15.4957687,29.3688981 L15.500874,29.53301 L15.5,32.8358471 L18.80206,32.835926 C20.2352389,32.835926 21.39706,33.9977471 21.39706,35.430926 C21.39706,36.8089827 20.3228911,37.9361537 18.9661719,38.0208207 L18.80206,38.025926 L15.5,38.0258471 L15.500874,41.32988 C15.500874,42.7630589 14.3390529,43.92488 12.905874,43.92488 C11.5278173,43.92488 10.4006463,42.8507111 10.3159793,41.4939919 L10.310874,41.32988 L10.31,38.0258471 L7,38.025926 C5.56682107,38.025926 4.405,36.8641049 4.405,35.430926 C4.405,34.0528693 5.47916889,32.9256983 6.83588812,32.8410313 L7,32.835926 L10.31,32.8358471 L10.310874,29.53301 C10.310874,28.0998311 11.4726951,26.93801 12.905874,26.93801 Z M94.3502448,13.0194817 C95.2739688,14.1152625 95.1344892,15.7523947 94.0387083,16.6761188 C90.7402031,19.4567008 86.5367655,21.0880691 81.5279678,20.6325676 C80.1006786,20.5027695 79.0488543,19.2405009 79.1786524,17.8132118 C79.3084505,16.3859226 80.5707191,15.3340983 81.9980082,15.4638964 C85.4873984,15.7812225 88.3793004,14.6588656 90.6936077,12.7079452 C91.7893885,11.7842212 93.4265207,11.9237008 94.3502448,13.0194817 Z M70.925057,0.405173 C72.3031137,0.405173 73.4302847,1.47934189 73.5149517,2.83606112 L73.520057,3.000173 L73.52,6.30284708 L76.821243,6.303089 C78.2544219,6.303089 79.416243,7.46491007 79.416243,8.898089 C79.416243,10.2761457 78.3420741,11.4033167 76.9853549,11.4879837 L76.821243,11.493089 L73.52,11.4928471 L73.520057,14.797043 C73.520057,16.2302219 72.3582359,17.392043 70.925057,17.392043 C69.5470003,17.392043 68.4198293,16.3178741 68.3351623,14.9611549 L68.330057,14.797043 L68.33,11.4928471 L65.019183,11.493089 C63.5860041,11.493089 62.424183,10.3312679 62.424183,8.898089 C62.424183,7.52003234 63.4983519,6.39286127 64.8550711,6.30819435 L65.019183,6.303089 L68.33,6.30284708 L68.330057,3.000173 C68.330057,1.56699407 69.4918781,0.405173 70.925057,0.405173 Z M72.2202963,69.8760922 C75.636945,72.5080699 78.1240954,76.2703141 78.7411413,81.261683 C78.9169761,82.6840345 77.9064746,83.9796205 76.484123,84.1554553 C75.0617715,84.3312901 73.7661855,83.3207886 73.5903507,81.898437 C73.1605778,78.4219452 71.4495712,75.8337525 69.0530357,73.9876078 C67.917672,73.1129929 67.7062934,71.4835833 68.5809082,70.3482197 C69.4555231,69.212856 71.0849327,69.0014774 72.2202963,69.8760922 Z M22.2991828,52.7143963 C22.9455988,53.9935164 22.4326908,55.5544718 21.1535707,56.2008878 C18.0258942,57.78149 16.168573,60.2662608 15.2408219,63.1469584 C14.8014781,64.5111353 13.3394356,65.2608608 11.9752586,64.8215169 C10.6110817,64.3821731 9.86135625,62.9201306 10.3007001,61.5559536 C11.6231729,57.449632 14.3230502,53.8376687 18.8126913,51.5687842 C20.0918114,50.9223682 21.6527668,51.4352762 22.2991828,52.7143963 Z" fill="#00B077"></path>
    </g>
</svg>