<?xml version="1.0" encoding="UTF-8"?>
<svg width="100px" height="100px" viewBox="0 0 100 100" version="1.1" xmlns="http://www.w3.org/2000/svg" xmlns:xlink="http://www.w3.org/1999/xlink">
    <!-- Generator: Sketch 63.1 (92452) - https://sketch.com -->
    <title>Flipflops</title>
    <desc>Created with Sketch.</desc>
    <g id="Flipflops" stroke="none" stroke-width="1" fill="none" fill-rule="evenodd">
        <path d="M24.0589026,23.0503116 L24.0757769,23.0507221 C24.107532,23.0514784 24.1392286,23.0528197 24.1708512,23.0547398 C24.2014569,23.0564868 24.2318431,23.0588657 24.2622497,23.0617922 C24.2827735,23.0638933 24.3034808,23.0661399 24.3241451,23.0686339 C24.3522026,23.0718919 24.3802043,23.0757378 24.4082062,23.0800554 C24.4408473,23.0852019 24.4735301,23.0908774 24.5060699,23.0971706 C24.5275241,23.101233 24.5488428,23.1056428 24.5701509,23.1103317 C24.5970821,23.1163138 24.6241683,23.122717 24.6511342,23.1295493 C24.6809656,23.1370854 24.7109048,23.14525 24.7407997,23.1539794 C24.7605489,23.1597392 24.7799175,23.1656366 24.7992118,23.1717575 C24.8247509,23.1798764 24.8506771,23.1885435 24.8765558,23.1976451 L24.8896452,23.2022773 C24.9226644,23.2140974 24.955441,23.2265812 24.9879535,23.2397201 L24.8765558,23.1976451 C24.9320496,23.2171625 24.9864627,23.2383748 25.0397574,23.2612033 C25.0615948,23.2706802 25.083414,23.2804036 25.1050987,23.2904261 C25.1333892,23.3033056 25.16108,23.3166818 25.1884405,23.3304994 C25.244311,23.3591784 25.294048,23.3865635 25.3428837,23.4155753 C25.491385,23.5033577 25.6288471,23.6051229 25.7541506,23.7182443 C25.7839327,23.7451387 25.813169,23.7727363 25.8418008,23.8010638 L25.8494083,23.8087485 C25.8529813,23.8123205 25.8565431,23.8159023 25.8600935,23.8194937 C26.028404,23.9892736 26.1750791,24.1845803 26.2938211,24.4028587 C26.3309569,24.4713414 26.3648807,24.5407801 26.3956712,24.6116067 C26.3969683,24.614621 26.3981494,24.6173536 26.3993263,24.6200892 C29.0026598,30.6710805 37.0903996,40.6067592 44.0910966,46.220093 L44.1012771,46.2272235 C44.1400001,46.2586195 44.1778063,46.2911114 44.2146475,46.3246533 L44.0910966,46.220093 C44.1399215,46.2592421 44.186957,46.2997958 44.2321914,46.34165 C44.3949307,46.4917452 44.5380292,46.6629038 44.6577055,46.850617 C44.6696541,46.8699148 44.6815566,46.8891671 44.6931891,46.9085476 C44.7116594,46.938614 44.7293341,46.9694161 44.7463881,47.0006108 C44.7512969,47.0105067 44.7564622,47.020123 44.7615637,47.0297666 C44.8845594,47.2606927 44.9733284,47.5129033 45.0214713,47.7796183 C45.0225946,47.7895207 45.0243535,47.7995304 45.0260537,47.8095493 C45.0424795,47.9033029 45.0532505,47.9987196 45.0587308,48.0956046 C45.0592829,48.1091392 45.0599659,48.1227961 45.0605416,48.1364588 C45.0614159,48.1533648 45.061943,48.1701255 45.0623112,48.1869271 L45.1762787,53.7395778 L45.2870338,59.7375492 L45.3862985,66.1266779 C45.426409,69.1224454 45.4478464,71.5827246 45.4472161,73.3827547 C45.4325955,91.4114088 18.9788717,94.8165009 14.1459595,77.806503 L13.7660875,76.4796822 C13.5428885,75.7065643 13.2998732,74.8748555 13.0392848,73.9915599 L12.714262,72.8937465 L12.0016059,70.5095522 L10.6393393,66.0184515 L10.0648085,64.1474509 C9.64166339,62.7781627 10.4086639,61.3251085 11.7779521,60.9019635 C13.1472403,60.4788184 14.6002945,61.2458189 15.0234395,62.6151071 L15.8568217,65.3336313 L16.6037053,67.7938781 C16.8509104,68.611986 17.0954774,69.4253824 17.3347605,70.225856 L18.3251695,73.5708963 C18.6241216,74.5921179 18.8965635,75.5354857 19.1386959,76.3892234 C22.3376764,87.6484074 40.2474478,85.3430827 40.2570173,73.3794823 L40.2420928,70.2348792 C40.2330169,69.1645479 40.2199214,67.975345 40.2031187,66.6788063 L40.1131256,60.7248539 L39.987268,53.8409148 L39.8975731,49.4914575 C34.2552294,44.7486137 28.2238885,37.7792635 24.4266133,31.8075499 C20.9492272,40.2175766 15.9898919,49.5106475 11.4201544,55.2116347 C10.5237848,56.3299027 8.89059837,56.509787 7.77233032,55.6134174 C6.65406227,54.7170478 6.47417801,53.0838614 7.37054758,51.9655933 C12.508779,45.5553802 18.3996872,33.7919232 21.5675721,24.7846792 L21.5718207,24.7726622 C21.5988242,24.6971245 21.6293008,24.6228545 21.6631479,24.5501098 C21.7312389,24.4030935 21.8118528,24.265274 21.90319,24.1372378 C21.9573976,24.0616588 22.0157482,23.988428 22.0781745,23.9183173 C22.1244996,23.8663009 22.1728543,23.8163512 22.2229983,23.7685423 C22.3807928,23.6176174 22.5597244,23.4850698 22.7578067,23.3756261 C22.7794357,23.363846 22.8006703,23.3524771 22.8220565,23.3414049 L22.8354657,23.3344102 C22.8541067,23.3249152 22.8729071,23.3156203 22.8918653,23.3065294 C22.9182787,23.2938935 22.944382,23.2818863 22.970679,23.270312 C22.9770393,23.2675225 22.9835191,23.2647039 22.9900162,23.2619087 L23.0711466,23.2285692 C23.0891287,23.2215337 23.1071916,23.2146967 23.125332,23.2080599 L22.9900162,23.2619087 C23.068843,23.2279948 23.1484223,23.1982916 23.228503,23.172699 C23.2440296,23.1677862 23.2597914,23.1629195 23.2756026,23.1582018 C23.3103815,23.1477405 23.3454383,23.1380637 23.3805603,23.1291551 C23.4003486,23.1242493 23.4200875,23.1194948 23.4398897,23.1149704 C23.4688642,23.1082225 23.4979409,23.1021009 23.5270424,23.0964949 C23.5547379,23.0912873 23.582794,23.0863572 23.6109515,23.0818877 C23.6298532,23.0787692 23.6485033,23.076024 23.6671558,23.0734868 C23.6998818,23.0691352 23.7329097,23.0652768 23.7660479,23.0620546 C23.7958741,23.0590877 23.8258929,23.0567116 23.8558914,23.0548639 C23.8781173,23.0535165 23.9007559,23.0524064 23.9234327,23.0515949 C23.9353282,23.0511758 23.9466655,23.0508533 23.9579977,23.0506057 L24.0589026,23.0503116 L24.0589026,23.0503116 Z M91.3976819,24.1097739 C97.6808395,31.5037646 99.7861383,42.3275127 96.318692,53.2183349 C95.8838982,54.5839689 94.4243631,55.3385639 93.0587291,54.90377 C91.6930951,54.4689762 90.9385001,53.0094411 91.373294,51.6438071 C94.3011405,42.4478011 92.5590452,33.4913523 87.4427591,27.4705306 C82.7542707,21.9531392 76.2533147,20.1663838 70.8456868,23.0384561 C65.5516934,25.8472662 61.9625954,33.1016849 60.7236163,42.4942396 C60.5361882,43.9151099 59.2324048,44.9150124 57.8115344,44.7275843 C56.3906641,44.5401562 55.3907616,43.2363728 55.5781897,41.8155024 C57.0143555,30.928098 61.3254779,22.2142966 68.4122364,18.4543076 C76.1370622,14.3515362 85.228903,16.8503836 91.3976819,24.1097739 Z M34.4296445,9.65599012 C41.1729676,14.0331083 44.7498419,23.0941916 45.2794474,34.0555489 C45.3486117,35.4870579 44.2442132,36.7035941 42.8127041,36.7727584 C41.3811951,36.8419227 40.1646589,35.7375242 40.0954946,34.3060151 C39.6382701,24.8427426 36.6563711,17.2888749 31.6037505,14.0091985 C26.449697,10.663187 19.8304358,11.8627274 14.7090183,16.9369008 C9.11920976,22.4751444 6.6443553,31.2409326 8.80063292,40.6674522 C9.12021237,42.0645459 8.24671447,43.4561845 6.84962077,43.7757639 C5.45252707,44.0953434 4.06088852,43.2218455 3.74130908,41.8247518 C1.18808764,30.6629274 4.18115739,20.0616513 11.0561787,13.2500507 C17.8067966,6.561706 27.0759275,4.88195705 34.4296445,9.65599012 Z M55.3604841,54.3573497 L55.3867911,54.3315613 C55.4147054,54.3041475 55.4432254,54.2773728 55.4723259,54.2512574 C55.4880303,54.2368818 55.5042465,54.2227062 55.5206744,54.2087036 C55.5460919,54.1872344 55.5715406,54.1663302 55.5973766,54.1459138 C55.6183636,54.1292501 55.6400063,54.1127143 55.661975,54.0964679 C55.6820503,54.0816125 55.702083,54.0672106 55.7223197,54.0530931 C55.736705,54.0431212 55.7514027,54.0330968 55.7662351,54.0231987 C63.1962488,49.0649487 72.0702616,39.8898385 75.1672573,34.0903375 L75.1729384,34.0797365 C75.2066086,34.017415 75.2428059,33.9564805 75.281434,33.8970975 C75.4408708,33.6513371 75.6363668,33.4407109 75.8570819,33.2682557 C75.9595383,33.1879913 76.0690459,33.1148013 76.1847195,33.0498998 C76.2022572,33.0404253 76.219783,33.0308621 76.2374089,33.0215059 C76.3355223,32.9690429 76.4381631,32.9227187 76.5447248,32.8828875 C76.6265295,32.8524468 76.7089855,32.8261675 76.7925689,32.8040329 C76.7960988,32.8031105 76.7991592,32.8023075 76.8022223,32.8015096 L76.8474054,32.7901451 C76.8816606,32.7818635 76.916091,32.7742739 76.9506742,32.7673831 L76.8022223,32.8015096 C76.8790868,32.7814887 76.9560443,32.7651312 77.0329098,32.7523287 C77.0589893,32.748029 77.0853923,32.7440561 77.1118628,32.7404888 C77.1401162,32.736602 77.168137,32.7332827 77.1961281,32.7304274 C77.2203769,32.7280594 77.2450717,32.7259004 77.2698078,32.7240946 C77.3050929,32.7213942 77.3400973,32.7195545 77.3750244,32.7184281 C77.3918549,32.7180137 77.4088756,32.7176309 77.4259081,32.717416 C77.4628099,32.7168294 77.4995717,32.7171619 77.5362163,32.7182742 C77.5551185,32.7189399 77.5744588,32.7197347 77.5938038,32.720748 C77.6244575,32.7222921 77.6544913,32.7244145 77.6844259,32.7270562 C77.7102357,32.7293548 77.7365912,32.7320707 77.762936,32.7351979 C77.7862374,32.7379791 77.8092052,32.7410353 77.8321018,32.7443958 C77.8643257,32.7490704 77.896688,32.7544325 77.9290048,32.7604263 C77.9539408,32.7651406 77.9790735,32.7701986 78.004101,32.775623 C78.0271914,32.7805113 78.0501823,32.7858185 78.0731372,32.7914518 C78.1016374,32.7985816 78.1297195,32.8059856 78.1576455,32.8138516 C78.1878438,32.8222116 78.2188062,32.8315498 78.2496727,32.8414984 C78.2613177,32.8453772 78.2723203,32.8490056 78.2832953,32.8527064 C78.3184102,32.8644342 78.3538172,32.8772378 78.3890653,32.890864 C78.4161607,32.9013986 78.4432761,32.9123947 78.4701879,32.923839 C78.4946748,32.934227 78.519259,32.9451409 78.5437469,32.9564692 C78.5783173,32.9724553 78.6121611,32.989004 78.6456239,33.006273 C78.6562033,33.0117485 78.6674651,33.0176584 78.6787025,33.0236593 C78.7181254,33.0448251 78.7514837,33.0637132 78.784411,33.0833268 L78.6787025,33.0236593 C78.8101041,33.0938292 78.9330073,33.1736899 79.047001,33.2618886 C79.0633908,33.2749426 79.0801312,33.2882359 79.0967112,33.3017382 C79.1915374,33.3786926 79.2776877,33.4596206 79.3574198,33.5453761 C79.387797,33.5782843 79.4177957,33.6122234 79.4469342,33.6469968 C79.4882683,33.6963093 79.5274742,33.7469386 79.5646639,33.7988135 C79.6308891,33.8907541 79.6916159,33.9881775 79.7459784,34.0901961 C79.8128104,34.2163036 79.8694189,34.3476072 79.9149614,34.4825751 L79.9191818,34.4949028 C79.9369411,34.5485607 79.9530805,34.6031481 79.9675304,34.6586243 C82.3773722,43.9105011 87.2796138,56.1613892 91.874994,63.0084481 C92.6736656,64.1984588 92.3564226,65.8106044 91.1664119,66.609276 C89.9764012,67.4079476 88.3642556,67.0907046 87.565584,65.9006939 C83.4788402,59.8114968 79.3000565,50.1014261 76.5292335,41.4114852 C72.2520117,47.0248302 65.6698904,53.4288544 59.6596053,57.6469001 L59.00238,64.0550472 L58.2396782,71.6668806 C57.8325702,75.8112365 57.5213117,79.1472382 57.3358577,81.4031575 C56.3563448,93.3403727 74.0162778,97.2336594 78.1245307,86.3126731 L79.1663689,83.586868 L79.9265694,81.629414 L80.8505134,79.273357 L82.4539399,75.2283665 L83.3610142,72.9614795 C83.8959835,71.6318894 85.4075075,70.987722 86.7370975,71.5226912 C88.013504,72.0362617 88.6582249,73.449825 88.2344538,74.7384246 L88.1503126,74.9623658 L87.1091568,77.5664005 L86.1519525,79.9781754 C85.8351876,80.7791774 85.5218724,81.5744936 85.2154468,82.3558355 L84.0087912,85.454233 C83.6319148,86.4299799 83.2877456,87.3300946 82.981331,88.1423136 C76.7604153,104.679405 50.6900809,98.9319723 52.1632745,80.9783252 L52.3355919,78.9730279 C52.4012014,78.2349288 52.4748104,77.4286911 52.5559053,76.558899 L53.2988303,68.8916892 L53.6556636,65.3363484 L54.6253375,55.9110742 C54.6327227,55.840738 54.6428526,55.7713543 54.6556097,55.7030186 C54.6600029,55.6827398 54.6642038,55.6617575 54.6686621,55.6408294 C54.6758873,55.6036917 54.6843438,55.5676836 54.6935282,55.5320004 C54.6975442,55.5193883 54.7011852,55.5057239 54.7049376,55.4920885 C54.7743309,55.2367822 54.8813436,54.9995678 55.01876,54.7848117 C55.0276825,54.7711246 55.0367614,54.7571832 55.0459823,54.7433197 C55.0942507,54.6708165 55.146113,54.6010175 55.2012143,54.5341064 C55.2305255,54.4981021 55.2612738,54.462698 55.2930888,54.4280372 C55.3106855,54.4093041 55.3284255,54.390552 55.346434,54.3720734 L55.3604841,54.3573497 L55.3604841,54.3573497 Z" fill="#00B077"></path>
    </g>
</svg>