<?xml version="1.0" encoding="UTF-8"?>
<svg width="100px" height="100px" viewBox="0 0 100 100" version="1.1" xmlns="http://www.w3.org/2000/svg" xmlns:xlink="http://www.w3.org/1999/xlink">
    <!-- Generator: Sketch 63.1 (92452) - https://sketch.com -->
    <title>Fries</title>
    <desc>Created with Sketch.</desc>
    <g id="Fries" stroke="none" stroke-width="1" fill="none" fill-rule="evenodd">
        <path d="M23.7766195,30.1354974 C24.7619636,30.1354974 25.6557016,30.6949631 26.0900982,31.5677341 L26.1660749,31.7349901 L31.529,44.743 L66.743,44.743 L72.1096256,31.7345083 C72.4852836,30.8237766 73.343041,30.2109385 74.3153264,30.1419912 L74.4988823,30.1354974 L89.2703327,30.1354974 C90.6977292,30.1354974 91.8548627,31.2926309 91.8548627,32.7200274 C91.8548627,34.092524 90.7850278,35.2151473 89.4337825,35.2994726 L89.2703327,35.3045574 L76.228,35.304 L70.862738,48.31331 C70.48708,49.2240417 69.6293226,49.8368798 68.6570372,49.9058271 L68.4734813,49.9123209 L29.7985744,49.9123209 C28.8132303,49.9123209 27.9194923,49.3528552 27.4850958,48.4800843 L27.4091191,48.3128283 L22.046,35.304 L12.027,35.304 L21.315,93.773 L76.958,93.773 L85.0947186,42.5510395 C85.3100298,41.1955366 86.5427307,40.2546442 87.8904739,40.3833404 L88.0526976,40.4039599 C89.4082005,40.6192711 90.3490929,41.851972 90.2203967,43.1997152 L90.1997772,43.3619389 L81.7173498,96.7634977 C81.5266488,97.9640651 80.5281374,98.8616092 79.3294601,98.937387 L79.1648204,98.9425781 L19.1089583,98.9425781 C17.8933475,98.9425781 16.8502787,98.0972432 16.5873883,96.9253046 L16.5564324,96.7635192 L6.44747409,33.1254985 C6.20676335,31.6101737 7.32898157,30.2336439 8.83699535,30.1405126 L9,30.1354974 L23.7766195,30.1354974 Z M75.4701918,62.6364216 C76.8549884,62.9825415 77.6970023,64.3857266 77.3508824,65.7705232 C77.0047626,67.1553199 75.6015774,67.9973338 74.2167808,67.6512139 C57.8879238,63.5699344 43.0317016,63.5699344 30.5648607,66.0085647 C28.9630086,66.3219019 27.5362993,66.6539679 26.295043,66.9865939 L25.8382851,67.1113194 C25.560271,67.188688 25.3054875,67.2623706 25.0743317,67.3316672 L24.3784704,67.5499346 C24.3365199,67.5638846 24.3059456,67.5743299 24.2868652,67.5810627 C22.9408119,68.0560379 21.4645767,67.3498897 20.9896015,66.0038365 C20.5146263,64.6577832 21.2207745,63.181548 22.5668277,62.7065727 L22.9580846,62.5753008 C23.321241,62.4581621 23.8210013,62.3072218 24.4524498,62.1314959 C25.9241978,61.7219231 27.6356809,61.314516 29.5725506,60.9356462 C42.7442474,58.3591396 58.3571451,58.3591396 75.4701918,62.6364216 Z M49.1349941,0.731127264 C50.5074907,0.731127264 51.630114,1.80096223 51.7144393,3.15220752 L51.7195241,3.31565726 L51.7195241,36.8266732 C51.7195241,38.2540697 50.5623906,39.4112032 49.1349941,39.4112032 C47.7624974,39.4112032 46.6398741,38.3413683 46.5555488,36.990123 L46.5504641,36.8266732 L46.5504641,3.31565726 C46.5504641,1.88826076 47.7075976,0.731127264 49.1349941,0.731127264 Z M63.0413137,1.80219948 L63.2045251,1.81239187 C64.5710373,1.94042074 65.5889697,3.11031121 65.5468808,4.46353075 L65.5366965,4.62674213 L62.4972892,37.0677627 C62.3641392,38.4889354 61.1041117,39.5330841 59.682939,39.3999341 C58.3164267,39.2719052 57.2984944,38.1020147 57.3405833,36.7487952 L57.3507676,36.5855838 L60.3901749,4.14456324 C60.5130826,2.83271151 61.5961699,1.84211102 62.8798623,1.80219948 L63.0413137,1.80219948 Z M37.8595038,3.98230049 L37.8798133,4.14456324 L40.9192205,36.5855838 C41.0523706,38.0067565 40.0082219,39.266784 38.5870492,39.3999341 C37.220537,39.5279629 36.0030125,38.567513 35.7930084,37.2300254 L35.7726989,37.0677627 L32.7332916,4.62674213 C32.6001416,3.20556943 33.6442903,1.9455419 35.065463,1.81239187 C36.3750372,1.68969754 37.5477806,2.5666652 37.8280679,3.81712975 L37.8595038,3.98230049 Z M75.7052942,5.52817 C77.063343,5.72679122 78.0193274,6.94782512 77.9072192,8.29704948 L77.8885968,8.45951448 L75.5470126,24.4698163 C75.3404465,25.8821871 74.0280389,26.859685 72.6156681,26.6531189 C71.2576193,26.4544977 70.3016349,25.2334638 70.4137431,23.8842394 L70.4323655,23.7217744 L72.7739497,7.71147258 C72.9805158,6.29910179 74.2929234,5.32160393 75.7052942,5.52817 Z M14.0212736,12.0037313 L14.0574415,12.1698623 L16.166418,23.6279453 C16.4248045,25.0317606 15.496251,26.3792413 14.0924357,26.6376277 C12.7447731,26.8856787 11.4490284,26.0398458 11.1189213,24.7297764 L11.0827533,24.5636454 L8.97377686,13.1055624 C8.71539041,11.7017472 9.64394392,10.3542665 11.0477592,10.09588 C12.3392692,9.8581645 13.5830976,10.6250749 13.975047,11.8424361 L14.0212736,12.0037313 Z M25.4697658,7.55047925 L25.4984507,7.71147258 L27.8400348,23.7217744 C28.0466009,25.1341452 27.069103,26.4465528 25.6567323,26.6531189 C24.2986834,26.8517401 23.0330561,25.9556277 22.7540727,24.6308096 L22.7253878,24.4698163 L20.3838036,8.45951448 C20.1772375,7.04714369 21.1547354,5.73473607 22.5671062,5.52817 C23.925155,5.32954878 25.1907823,6.22566122 25.4697658,7.55047925 Z M87.2230905,10.09588 C88.5707531,10.343931 89.4804145,11.5956913 89.3224274,12.9374411 L89.2970728,13.1055624 L87.1880963,24.5636454 C86.9297099,25.9674607 85.5822292,26.8960142 84.1784139,26.6376277 C82.8307513,26.3895767 81.9210899,25.1378165 82.079077,23.7960667 L82.1044316,23.6279453 L84.2134081,12.1698623 C84.4717945,10.7660471 85.8192752,9.83749358 87.2230905,10.09588 Z" fill="#00B077"></path>
    </g>
</svg>