<?xml version="1.0" encoding="UTF-8"?>
<svg width="100px" height="100px" viewBox="0 0 100 100" version="1.1" xmlns="http://www.w3.org/2000/svg" xmlns:xlink="http://www.w3.org/1999/xlink">
    <!-- Generator: Sketch 63.1 (92452) - https://sketch.com -->
    <title>Handshake</title>
    <desc>Created with Sketch.</desc>
    <g id="Handshake" stroke="none" stroke-width="1" fill="none" fill-rule="evenodd">
        <path d="M7.7836708,37.4878528 C8.03149193,40.3991123 8.61171498,43.5967072 9.39680543,46.3030805 L9.76332568,45.9355474 C14.3573212,41.3425649 20.5245235,41.4394699 24.4550106,45.4592788 C26.5073194,47.5582272 27.4986236,50.2687688 27.320794,53.0195822 C30.126397,52.8028757 32.8763053,53.8313608 34.9833044,55.9867606 C37.0351633,58.0857536 38.026374,60.7955476 37.8488037,63.5453153 C40.65426,63.3281857 43.4039186,64.3569549 45.5107828,66.5127391 C47.7765345,68.8311 48.7489645,71.8944073 48.282419,74.9335013 C50.8057531,74.9503476 53.2388491,75.9780792 55.1456025,77.9287874 C58.971075,81.8424452 59.1104852,87.8795664 54.8632997,92.339155 L54.6315716,92.5765313 L51.4437118,95.7661111 C46.9613108,100.247492 40.7779581,100.172516 36.7944815,96.2800778 C34.8981862,94.4271203 33.8739721,92.0768506 33.8024649,89.6286793 C30.6783035,90.1956406 27.5043452,89.2334494 25.1192829,86.9015641 C22.9652646,84.7955714 21.9370934,82.0474831 22.1530384,79.2437805 C19.4022038,79.4214445 16.691267,78.429663 14.5918706,76.3767351 C12.4371482,74.2697059 11.4091361,71.5202609 11.6261526,68.7151081 C8.87444529,68.8943556 6.16265183,67.9031517 4.06244939,65.8502725 C0.110351501,61.9872261 -0.0528724998,55.9631816 4.30348643,51.3957922 L4.53694563,51.1567678 L5.31705487,50.3782853 C3.96205611,46.816478 3.00042817,42.1330071 2.6422652,37.9255152 C2.52140805,36.5057553 3.57437683,35.2568383 4.99413678,35.1359812 C6.41389674,35.0151241 7.66281366,36.0680928 7.7836708,37.4878528 Z M30.5714378,2.75572685 C31.21063,3.39496271 31.4442819,4.28614982 31.2724043,5.10958354 C37.5397167,4.59411411 44.0443801,5.82209777 50.0241857,8.72297874 C58.5330124,4.59705218 68.1727777,3.80321504 76.7832706,6.78972552 C78.1294881,7.25665498 78.8422919,8.72650104 78.3753625,10.0727186 C77.908433,11.4189361 76.438587,12.1317399 75.0923694,11.6648105 C67.4959803,9.03003728 58.8692561,9.88635583 51.3310437,13.8415433 C51.2708557,13.8783306 51.2083613,13.9115197 51.1446913,13.9420684 C48.3740646,15.4161801 45.7541345,17.3119736 43.3901699,19.6081813 L43.0339737,19.9591452 L33.7573392,29.2392197 C30.5426115,32.4527625 30.617278,35.6722075 33.0442292,37.655747 C35.5652243,39.7161481 39.4570336,39.5080533 42.6677459,36.4624163 L44.1772329,34.9590886 L51.1785958,27.9590613 C56.2146026,22.9207972 66.239547,22.2253356 71.5945206,27.2577624 L74.8204875,30.4774587 L90.6392437,46.2967543 C91.4259721,43.5865863 92.0063957,40.3942815 92.253559,37.4878942 C92.3696545,36.1227308 93.5287328,35.0965998 94.8798912,35.1270229 L95.0428978,35.135791 C96.4626678,35.2565303 97.5157402,36.5053598 97.395001,37.9251298 C97.0377604,42.1259127 96.0756354,46.801928 94.7182258,50.3750632 L95.5022355,51.1580125 C100.095702,55.751479 99.9969101,61.9194023 95.9753244,65.850046 C93.948612,67.8309274 91.352445,68.8232698 88.7007376,68.7297942 L88.635844,68.725864 L88.6627406,68.9394547 C88.9744353,71.8126696 88.0497149,74.6294699 85.9777084,76.8112176 L85.7736131,77.0203526 C83.4222448,79.365412 80.2862378,80.337265 77.1312861,79.8197533 L76.916844,79.780864 L76.9236422,79.8606338 C77.0604101,82.0356473 76.5663163,84.17039 75.4462621,86.0396234 L75.2896479,86.292852 C73.2298225,89.5212125 69.7814613,91.0511929 66.1780832,90.4387532 L65.838844,90.373864 L65.8202192,90.4888779 C65.2185605,93.8882533 63.0302338,96.7156583 59.8110961,98.2087635 L59.547837,98.326887 C58.2406348,98.8939382 56.7212522,98.2939273 56.154201,96.986725 C55.6098318,95.7318109 56.1410271,94.2813513 57.3409227,93.6656318 L57.494363,93.593089 C59.9489208,92.5283265 61.2626109,90.1429139 60.6970424,87.2550223 L60.6404295,86.9911252 C60.1139547,84.732712 62.5890116,83.0080596 64.5106254,84.2109219 L64.6407452,84.2974998 C67.2110243,86.1115268 69.5937388,85.626847 70.9396621,83.517384 C72.4057643,81.2195648 72.0237481,77.9567413 69.4073734,75.1879578 L69.1841618,74.9584008 L69.16,74.933 L61.4152405,67.1881035 C60.4076878,66.1805508 60.4076878,64.5469852 61.4152405,63.5394325 C62.3789865,62.5756865 63.915493,62.5337845 64.9290443,63.4137265 L65.0639115,63.5394325 L72.8331515,71.3086725 L72.857,71.334 L74.0922417,72.5656989 C76.9021713,75.3773734 80.0813454,75.4097886 82.1298469,73.3667834 C84.1286732,71.3733201 84.1475732,68.3047028 81.5238686,65.536778 L81.3271645,65.3348035 L80.0646845,64.0723235 L72.2963045,56.3037715 C71.2887518,55.2962188 71.2887518,53.6626532 72.2963045,52.6551005 C73.2600505,51.6913545 74.796557,51.6494525 75.8101083,52.5293945 L75.9449755,52.6551005 L83.712,60.422 L84.9762507,61.6865478 C87.4294525,64.1408667 90.378142,64.1053521 92.3686156,62.15989 C94.352575,60.2207947 94.3985303,57.3516492 91.8533633,54.8064822 L89.9072872,52.8612813 C89.8615779,52.8186413 89.817616,52.7744998 89.7754437,52.7289731 L68.1880845,31.1412035 C65.0239764,27.9770954 58.0206405,28.4129274 54.8276755,31.6073235 L46.5389955,39.8942835 C41.4388658,44.9944132 34.4389306,45.4597755 29.7788408,41.651099 C25.0115338,37.7547944 24.7848008,31.129519 29.8628421,25.8413418 L30.1086663,25.5905508 L39.3854474,16.3103297 C40.989931,14.7066952 42.7035576,13.2652607 44.5008438,11.9913163 C38.2010849,9.74020287 31.4929863,9.5453241 25.4930365,11.481627 L5.40427315,31.5697178 C4.39668605,32.5772361 2.7631204,32.5771803 1.75560216,31.5695932 C0.791889063,30.6058142 0.750039568,29.0693063 1.63001624,28.055785 L1.75572685,27.9209222 L22.2721477,7.40539664 C22.2786005,7.39891647 22.2850902,7.39246835 22.2916167,7.38605261 L26.9227668,2.75560216 C27.930354,1.74808392 29.5639196,1.74813975 30.5714378,2.75572685 Z M44.1791418,81.9752872 L40.891,85.262 L40.7251334,85.4341653 C38.3744821,87.9292085 38.4677048,90.7006239 40.4007365,92.5894782 C42.3391382,94.4835799 45.1867911,94.567335 47.6000641,92.3062084 L47.7947564,92.1177247 L50.9828238,88.9279373 C53.4370369,86.4748412 53.40132,83.5262263 51.4555955,81.5356486 C49.53557,79.5713624 46.704296,79.5067879 44.1791418,81.9752872 Z M34.4673475,70.6337795 L34.4667245,70.6344022 L29.2402675,75.8642995 C29.2277112,75.8768558 29.2151416,75.8893763 29.2025587,75.9018611 L29.2415849,75.861262 C26.6976482,78.4040763 26.7433282,81.2729495 28.7265911,83.2119939 C30.6642003,85.1064026 33.5102118,85.1898032 35.9251796,82.92533 L36.1200167,82.7365683 L40.4540873,78.4021537 L40.501,78.356 L41.3474196,77.5108856 C43.8015052,75.0584756 43.7659915,72.1099826 41.8204812,70.1192989 C39.8812806,68.1350715 37.012208,68.088919 34.4673475,70.6337795 Z M31.2934396,59.5937674 C29.3543436,57.6101276 26.4849604,57.5639279 23.9409475,60.1073795 L23.9589471,60.0900304 C23.9533222,60.0956777 23.9476901,60.1013223 23.9420507,60.1069642 L23.927,60.12 L18.7155875,65.3327395 C16.2356468,67.8126802 16.2152794,70.6008366 18.0507345,72.5364442 L18.1994834,72.6874629 C20.1893803,74.6333149 23.1377879,74.6694371 25.5909965,72.2162287 L25.5909965,72.2162287 L30.8180765,66.9857087 C33.2741115,64.5313493 33.2387681,61.5837828 31.2934396,59.5937674 Z M13.6074207,49.3945521 L13.4108944,49.5853202 L8.1847155,54.8063395 C5.63961903,57.351436 5.68542026,60.2210775 7.66931061,62.1602655 C9.60745681,64.05474 12.4546109,64.1381508 14.8691574,61.8746747 L15.0639569,61.6859961 L15.093,61.657 L20.2924778,56.4585073 C20.2984416,56.4525448 20.304408,56.4465902 20.3103771,56.4406436 L20.2925493,56.4591238 C22.7462355,54.0043203 22.7104353,51.0557827 20.7655794,49.0667292 C18.8767293,47.1349542 16.1042739,47.042619 13.6074207,49.3945521 Z" fill="#00B077"></path>
    </g>
</svg>