<?xml version="1.0" encoding="UTF-8"?>
<svg width="100px" height="100px" viewBox="0 0 100 100" version="1.1" xmlns="http://www.w3.org/2000/svg" xmlns:xlink="http://www.w3.org/1999/xlink">
    <!-- Generator: Sketch 63.1 (92452) - https://sketch.com -->
    <title>Heart01</title>
    <desc>Created with Sketch.</desc>
    <g id="Heart01" stroke="none" stroke-width="1" fill="none" fill-rule="evenodd">
        <path d="M9.17753829,17.9470472 C9.10445144,15.9116109 11.297497,14.5892246 13.06355,15.6038179 L13.06355,15.6038179 L26.75304,23.4683979 C26.8892647,23.5466586 27.0169748,23.6364461 27.1351015,23.7362465 C35.7246169,21.4895906 45.5282674,25.4181655 52.6948001,32.7197487 L52.946,32.978 L53.2115665,32.7035644 C63.6371933,21.9921257 78.7304926,19.0492066 88.6723795,29.9183161 C94.6156248,36.4174267 94.6257076,46.9966678 88.8986187,57.8017925 C87.3328411,60.7558975 85.3821782,63.6673854 83.0691385,66.5011035 L91.073,71.102 L89.6312051,67.1867128 C89.1558386,65.8955913 89.771672,64.4692058 91.0115969,63.919063 L91.1698042,63.8549321 C92.4609257,63.3795656 93.8873112,63.995399 94.437454,65.2353239 L94.5015849,65.3935312 L98.4131149,76.0174612 C98.8072993,77.0880875 98.4707098,78.1152376 97.784768,78.7770028 C97.7543653,78.8067361 97.7229983,78.8357493 97.6908954,78.864002 C97.6692571,78.8823521 97.6477721,78.9006069 97.6260063,78.9185211 C97.6158521,78.9276107 97.6048878,78.9364958 97.5938462,78.9452949 C97.5661784,78.9666327 97.5388273,78.9875902 97.5110821,79.0080175 C97.4942963,79.0208827 97.4765576,79.0335549 97.458644,79.046012 C97.4339809,79.0629152 97.4097744,79.0792661 97.385304,79.09522 C97.371622,79.1040095 97.3577407,79.1127883 97.3437647,79.1214409 C97.0059221,79.3333651 96.6195815,79.4701734 96.2131013,79.50834 L85.2804985,81.4349251 C83.8690833,81.6837407 82.5232004,80.7412676 82.2743849,79.3298525 C82.0351391,77.9727225 82.8973068,76.6761808 84.2187242,76.3572583 L84.3794575,76.3237389 L88.4836104,75.5996202 L79.5485143,70.4637191 C73.1264627,77.1322795 64.6396114,83.2467652 54.4080983,88.3072023 C53.6775681,88.6685176 52.8197324,88.6656429 52.0916402,88.2994397 C31.0576354,77.7201191 17.7680138,64.2476107 13.6951814,50.9235429 C13.2762304,49.5529656 14.0476759,48.1022664 15.4182531,47.6833154 C16.7888304,47.2643644 18.2395296,48.0358099 18.6584806,49.4063871 C22.1459407,60.8154387 33.7360328,72.8304317 52.4403084,82.6440223 L53.265,83.072 L53.5275449,82.9395474 C63.2482491,77.9515686 71.1674017,71.9977144 76.982906,65.6145657 C77.071752,65.4956689 77.169944,65.3871546 77.2754163,65.2884749 C80.031051,62.2221551 82.3009175,59.057312 84.0524303,55.8550052 L84.3129408,55.371225 C89.1078502,46.3248151 89.099989,38.0765915 84.8425736,33.4209847 C76.7357936,24.5581319 63.6107625,27.9345771 54.9619695,38.5330756 C53.9237059,39.8053959 51.9795977,39.8055366 50.94115,38.5333666 C44.907487,31.1417139 35.9272431,26.948278 28.643796,28.7136947 L29.9696104,35.9836202 L42.2409462,43.0374714 C41.8253639,41.7766939 42.4334789,40.384456 43.6752965,39.8466329 C44.9904329,39.2770558 46.5182951,39.8814511 47.0878721,41.1965875 C48.809697,45.1722296 46.9199674,51.0282733 40.5909651,52.8743098 C39.2151179,53.2756154 37.7744508,52.4855934 37.3731452,51.1097461 C36.9718396,49.7338989 37.7618616,48.2932318 39.1377089,47.8919262 C39.3873069,47.8191237 39.6215029,47.735719 39.8407932,47.6432007 L27.3836104,40.4836202 L17.1254237,44.1942073 C16.4672049,44.4322417 15.7435108,44.3934688 15.1175952,44.092194 L14.9494379,44.0035306 L1.26513787,36.1354906 C-0.500488466,35.1203112 -0.461942341,32.5598396 1.33344259,31.5982688 L1.33344259,31.5982688 L9.51,27.218 Z M14.532,22.433 L14.7551757,28.6494288 C14.7907096,29.639033 14.259949,30.5625953 13.3870214,31.0301172 L13.3870214,31.0301172 L7.904,33.966 L16.492,38.904 L24.686,35.94 L23.123,27.368 L14.532,22.433 Z" id="Heart-01" fill="#00B077"></path>
    </g>
</svg>