<?xml version="1.0" encoding="UTF-8"?>
<svg width="100px" height="100px" viewBox="0 0 100 100" version="1.1" xmlns="http://www.w3.org/2000/svg" xmlns:xlink="http://www.w3.org/1999/xlink">
    <!-- Generator: Sketch 63.1 (92452) - https://sketch.com -->
    <title>HeartKey</title>
    <desc>Created with Sketch.</desc>
    <g id="HeartKey" stroke="none" stroke-width="1" fill="none" fill-rule="evenodd">
        <path d="M17.935549,11.69152 C19.622299,13.37827 19.625759,16.11859 17.932089,17.8088 C16.247069,19.49555 13.506749,19.4869 11.826919,17.80534 C10.128059,16.1134 10.128059,13.37827 11.819999,11.69152 C13.506749,10.00304 16.243609,9.99785 17.935549,11.69152 M49.3198216,15.3837458 L49.1227944,15.1805661 C45.6651336,11.7180148 40.0650703,11.7210414 36.6050436,15.1786195 C33.1447669,18.6364455 33.1508205,24.2345573 36.6201753,27.6965824 C40.0651612,31.1415704 45.6726412,31.1483949 49.1193399,27.6968003 C52.5137807,24.3095517 52.5803384,18.8536071 49.3198216,15.3837458 Z M45.4503176,18.8478559 C46.8838824,20.2793953 46.8838824,22.595528 45.4500994,24.0262755 C44.029138,25.4492496 41.709786,25.4464268 40.2881181,24.0247589 C38.8466108,22.586295 38.844115,20.2783035 40.273628,18.849803 C41.7073693,17.4170764 44.0203107,17.4158263 45.4503176,18.8478559 Z M15.310426,36.4756597 C11.8554459,39.9330882 11.8524198,45.532155 15.3117269,48.9914621 C18.7637001,52.4483361 24.369969,52.4475789 27.8294791,48.9856238 C31.2792279,45.5383244 31.2724036,39.9303283 27.8206065,36.4834342 C24.3614808,33.0218636 18.7638619,33.0173219 15.310426,36.4756597 Z M24.1513793,40.1539743 C25.577046,41.577618 25.5798678,43.8964753 24.1595984,45.3157366 C22.7259018,46.7504455 20.4087668,46.7507585 18.982912,45.3228797 C17.599215,43.9391818 17.5526672,41.7343545 18.8398915,40.2942398 L18.982912,40.1429403 C20.4078163,38.7160133 22.7163049,38.7178864 24.1513793,40.1539743 Z M88.6197915,61.7671245 C89.6335878,60.7540998 91.2766508,60.7547253 92.2896755,61.7685215 C93.2586556,62.7382397 93.3002129,64.2836953 92.414767,65.3028023 L92.2882785,65.4384055 L87.304,70.417 L93.519,76.63 L95.0161567,75.1325492 C95.9852543,74.1629484 97.530683,74.1204017 98.5503567,75.0051951 L98.6860408,75.1315967 C99.6556416,76.1006943 99.6981883,77.646123 98.8133949,78.6657967 L98.6869933,78.8014808 L95.3550133,82.1351908 C94.3857978,83.1049095 92.8401412,83.1473321 91.8204926,82.2622672 L91.6848135,82.1358277 L81.7995935,72.2523377 C80.8298385,71.2827524 80.7878957,69.7366962 81.6736033,68.7172432 L81.8001315,68.5815945 L88.6197915,61.7671245 Z M22.299,22.167 L22.303363,21.9973473 C22.6271241,10.223083 31.2127285,0.260384243 43.8693535,0.724862828 C50.9472654,0.982378577 57.2402363,5.419648 60.5581304,12.9436931 C64.2346269,21.2809471 64.138088,32.7811988 59.7651478,46.6808717 C59.3350424,48.0479896 57.8781051,48.8075882 56.5109873,48.3774828 C55.1438694,47.9473774 54.3842708,46.4904401 54.8143762,45.1233223 C58.8374247,32.3358029 58.9233537,22.0994558 55.8093486,15.0377734 C53.2792918,9.30032024 48.7338824,6.09528296 43.6798336,5.91140132 C33.3476462,5.5322261 26.6066106,14.4334185 27.5757106,24.6124303 C27.7300645,26.2336972 26.3702355,27.5947804 24.748827,27.4419213 C14.5588798,26.4812587 5.66238472,33.2201198 6.04020043,43.5520357 C6.24387911,49.0613518 10.2838197,54.0066171 17.4619998,56.4885727 C26.3641779,59.5666245 39.0680868,58.6689195 54.6726275,52.9922863 C55.5609093,52.6691464 56.5492836,52.8557926 57.2568624,53.4677706 L57.3945214,53.5958122 L92.1519514,88.3463222 C93.1654628,89.3596319 93.1656264,91.002695 92.1523168,92.0162064 C91.1830641,92.9856521 89.6376286,93.0279516 88.6180965,92.1429951 L88.4824326,92.0165718 L54.884,58.425 L54.2607988,58.641157 C38.8306074,63.9179965 25.8749666,64.7250482 16.2163346,61.5455961 L15.7660042,61.3936413 C6.64861168,58.2411761 1.14044047,51.4986591 0.853705288,43.7427372 C0.395502067,31.2125155 10.1492044,22.6756874 21.7743768,22.1839961 L22.299,22.167 Z M68.7169401,81.6672077 C69.6863733,80.6975285 71.2322076,80.6554048 72.2517198,81.54081 L72.3873783,81.6672962 L82.2674083,91.5507862 C83.235934,92.5196511 83.2784974,94.0638346 82.3947663,95.0832622 L82.268516,95.2189191 L78.939996,98.5526291 C77.9273752,99.5668288 76.2843126,99.5681088 75.2701129,98.555488 C74.3000089,97.5868942 74.2566593,96.0414879 75.1409229,95.0213547 L75.267254,94.8856049 L76.763,93.386 L70.551,87.172 L65.5693599,92.1562863 C64.6001336,93.1257585 63.0546993,93.1681001 62.035143,92.2831715 L61.8994757,92.1567519 C60.9300035,91.1875256 60.8876619,89.6420913 61.7725905,88.622535 L61.8990101,88.4868677 L68.7169401,81.6672077 Z" id="Heart-Key" fill="#00B077"></path>
    </g>
</svg>