<?xml version="1.0" encoding="UTF-8"?>
<svg width="100px" height="100px" viewBox="0 0 100 100" version="1.1" xmlns="http://www.w3.org/2000/svg" xmlns:xlink="http://www.w3.org/1999/xlink">
    <!-- Generator: Sketch 63.1 (92452) - https://sketch.com -->
    <title>Heart02</title>
    <desc>Created with Sketch.</desc>
    <g id="Heart02" stroke="none" stroke-width="1" fill="none" fill-rule="evenodd">
        <path d="M67.8412986,3.50278313 C70.9095819,0.542803554 74.8432595,-0.291229486 79.2287475,1.42505115 L79.2287475,1.42505115 L79.5067607,1.53787915 C85.4151898,4.02682365 87.3777667,10.7577907 84.3402721,16.8137783 C81.4033926,22.6691652 74.678805,26.588017 65.5494144,27.2100213 L65.5483639,50.4339103 L93.3307807,50.4344581 C95.5318455,42.4369642 94.307884,35.3820873 90.0376555,30.6327629 C88.4202604,28.8343048 86.6857828,27.4191436 84.8478425,26.368892 C83.6034947,25.6578361 83.1711762,24.0726682 83.882232,22.8283205 C84.5932879,21.5839727 86.1784558,21.1516542 87.4228035,21.86271 C89.7500589,23.1925703 91.9155359,24.959384 93.8968422,27.1624923 C101.046178,35.113944 101.521985,47.5343474 94.9804197,60.3213085 C87.825513,74.3071826 72.9948422,87.8270344 51.4687429,98.8668624 C50.7252918,99.248147 49.8437324,99.2481402 49.1002873,98.866844 C27.5749674,87.8269933 12.7447886,74.3071191 5.59014358,60.3212763 C-0.951216689,47.5342777 -0.475345754,35.1139035 6.67359625,27.16289 C13.4137694,19.663399 22.1805338,17.3613715 31.4530365,19.762278 C38.2377986,21.5190399 44.950503,25.7712639 50.1020508,31.239654 L50.269,31.419 L50.5712665,31.0843955 C50.7697204,30.8686887 50.9696436,30.6551966 51.1710409,30.4439504 L51.7796603,29.8169806 C52.7872047,28.7977376 54.4302404,28.788254 55.4494834,29.7957983 C56.4687264,30.8033427 56.47821,32.4463784 55.4706657,33.4656214 C54.3735301,34.5754958 53.3196628,35.7636555 52.3090354,37.0239872 C51.2698985,38.3198724 49.2977139,38.3193814 48.2592225,37.0229788 C43.5819302,31.1840733 36.8130511,26.5112891 30.1521045,24.7865865 C22.6902893,22.8545169 15.9279352,24.6302149 10.5333322,30.6325497 C6.26297307,35.3820193 5.03894988,42.4369338 7.23991725,50.4344598 L60.3583639,50.4339103 L60.3581541,27.2101134 C51.3838283,26.5991886 44.7329739,22.8044197 41.7183343,17.1165838 L41.5621364,16.813694 C38.4772403,10.6626424 40.5523562,3.81577768 46.6805263,1.42415941 L46.6805263,1.42415941 L47.0061696,1.30114116 C51.2593869,-0.248229992 55.0734551,0.616803034 58.0649716,3.50280923 C60.137474,5.5022148 61.7265779,8.35811459 62.9536398,11.8773029 C64.179774,8.35790136 65.7687999,5.50212719 67.8412986,3.50278313 Z M60.3583639,55.6239103 L9.10027383,55.6239415 C9.44018419,56.3965656 9.81020986,57.1748113 10.2106524,57.9575932 C16.6626985,70.5700012 30.1612659,83.0421005 49.9534833,93.4614343 L50.284,93.634 L50.6156752,93.4614165 C54.0550707,91.6508643 57.3044176,89.7783277 60.3597659,87.8538413 L60.3583639,55.6239103 Z M91.4703565,55.6239194 L65.5483639,55.6239103 L65.5492833,84.405865 C77.1170843,76.2916013 85.3948316,67.405657 90.1115346,58.436443 L90.3599438,57.957561 C90.7603983,57.1747826 91.1304353,56.3965403 91.4703565,55.6239194 Z M77.3373045,6.25811885 C72.8425633,4.49908146 69.7261451,7.50549692 67.4893818,14.6910936 C66.7984829,16.9106049 66.2820064,19.3132045 65.9192722,21.7193493 L65.9192722,21.7193493 L65.881,21.979 L66.0500475,21.964498 C72.8285385,21.3210324 77.5267797,18.5498707 79.5764587,14.7271958 L79.5764587,14.7271958 L79.7011099,14.4869192 C81.4883244,10.9236703 80.4431446,7.47089257 77.3373045,6.25811885 Z M58.4170555,14.6911889 C56.1799882,7.50558945 53.0636475,4.49916157 48.5697927,6.25807767 L48.5697927,6.25807767 L48.3699701,6.34035909 C45.4167307,7.62154746 44.4533184,11.0014933 46.2013831,14.4870035 C48.1805875,18.4333886 52.9336476,21.3076022 59.855814,21.9644933 L59.855814,21.9644933 L60.025,21.979 L59.987535,21.7194953 C59.664978,19.5806861 59.2209571,17.4446773 58.6409577,15.4375669 L58.6409577,15.4375669 Z" id="Heart-02" fill="#00B077"></path>
    </g>
</svg>