<?xml version="1.0" encoding="UTF-8"?>
<svg width="100px" height="100px" viewBox="0 0 100 100" version="1.1" xmlns="http://www.w3.org/2000/svg" xmlns:xlink="http://www.w3.org/1999/xlink">
    <!-- Generator: Sketch 63.1 (92452) - https://sketch.com -->
    <title>Home</title>
    <desc>Created with Sketch.</desc>
    <g id="Home" stroke="none" stroke-width="1" fill="none" fill-rule="evenodd">
        <path d="M68.3320326,98.7473011 L68.2571467,98.7413529 C68.2269861,98.7385206 68.1969752,98.7351729 68.1671232,98.7313186 C68.1560452,98.7298914 68.1443175,98.7282986 68.132615,98.7266279 C68.0894544,98.7204554 68.0472597,98.7133438 68.0054232,98.7052287 C67.9910879,98.7024509 67.9763176,98.6994542 67.9615933,98.6963328 C67.9217551,98.6878791 67.8827677,98.6786471 67.8441308,98.6685482 C67.8349262,98.6661445 67.8251895,98.6635407 67.8154754,98.6608819 C67.724131,98.6358615 67.6352553,98.6061645 67.5486578,98.5719496 C67.5271212,98.5634373 67.5060309,98.5547758 67.4850818,98.545847 C67.4517085,98.5316233 67.4186719,98.5167112 67.3860115,98.5011374 C67.3782337,98.4974299 67.3701698,98.4935345 67.3621292,98.4895988 C67.3244183,98.471135 67.2874597,98.4519166 67.2510342,98.4318499 C67.2351668,98.4231084 67.2194256,98.4142204 67.2037875,98.4051741 C67.1741467,98.3880282 67.144843,98.3702929 67.1159253,98.3520027 C67.1019487,98.343164 67.0879105,98.3340955 67.0739661,98.3248963 C67.0392613,98.3019969 67.0053242,98.2784235 66.9719887,98.2540756 C66.9647555,98.2487936 66.9573472,98.2433234 66.9499693,98.2378149 C66.9213062,98.2164163 66.8930332,98.1943863 66.8652362,98.1717934 C66.8407072,98.1518477 66.8169872,98.1318469 66.7936357,98.111435 C66.7842461,98.1032303 66.7745808,98.0946574 66.7649803,98.0860139 C66.7380579,98.0617692 66.7118902,98.0372094 66.6862398,98.0121228 C66.6683094,97.9945827 66.6508267,97.9769871 66.6335971,97.9591455 C66.6179212,97.9429172 66.6022118,97.9262204 66.586723,97.9093181 C66.5687264,97.8896682 66.5515044,97.8702933 66.534571,97.8506625 C66.5158481,97.8289662 66.4971366,97.8065339 66.4788006,97.7837861 C66.4631511,97.7643692 66.4478534,97.7448254 66.4328323,97.7250599 C66.4147155,97.701225 66.3968825,97.6769 66.3794674,97.6522586 C66.3716096,97.6411376 66.363998,97.6301877 66.3564689,97.6191769 C66.3349405,97.5876986 66.3139794,97.5555502 66.2937211,97.52292 C66.2732909,97.4900194 66.2534663,97.4564345 66.2343863,97.422376 C66.2296512,97.4139165 66.2254311,97.406287 66.2212485,97.398634 C66.2090967,97.3764126 66.1969923,97.3534677 66.1852244,97.3303231 C66.148784,97.258613 66.1157961,97.1855468 66.0861771,97.1107789 C66.0747808,97.0820063 66.063933,97.0531212 66.0535898,97.023997 C66.0455691,97.0014144 66.0378286,96.9786164 66.0303984,96.9556788 C66.0238063,96.9353303 66.0174394,96.9148078 66.0113217,96.8941782 C66.0033043,96.8671298 65.9957997,96.8402202 65.988721,96.8131384 L65.9837909,96.7939766 C65.9319611,96.5892799 65.9044227,96.3749042 65.9044227,96.1540965 L65.904,96.153 L65.9038727,61.12275 L47.1768727,61.12275 L47.1778302,96.1540965 C47.1778302,97.5341446 46.102109,98.6629445 44.7434292,98.7477338 L44.5790802,98.7528465 L44.545,98.751 L14.0749527,98.7519802 C12.6949046,98.7519802 11.5661047,97.6762591 11.4813154,96.3175793 L11.4762027,96.1532302 L11.4762027,42.9862702 C11.4762027,41.5510203 12.6397027,40.3875202 14.0749527,40.3875202 C15.4550007,40.3875202 16.5838007,41.4632414 16.6685899,42.8219212 L16.6737027,42.9862702 L16.6728727,93.55375 L41.98,93.554 L41.9803302,58.5241965 C41.9803302,57.1441484 43.0560513,56.0153485 44.4147311,55.9305592 L44.5790802,55.9254465 L68.5031727,55.9254465 C69.8832207,55.9254465 71.0120207,57.0011677 71.0968099,58.3598475 L71.1019227,58.5241965 L71.101,93.555 L82.0788727,93.55475 L82.0790427,42.9871365 C82.0790427,41.6070884 83.1547638,40.4782885 84.5134436,40.3934992 L84.6777927,40.3883865 C86.0578407,40.3883865 87.1866407,41.4641077 87.2714299,42.8227875 L87.2765427,42.9871365 L87.2765427,96.1540965 C87.2765427,97.5341446 86.2008215,98.6629445 84.8421417,98.7477338 L84.6777927,98.7528465 L68.5031727,98.7528465 L68.3320326,98.7473011 L68.3320326,98.7473011 Z M50.8087515,0.430318655 L50.9682457,0.544622047 L97.7457457,36.795452 C98.8802093,37.6746193 99.0871678,39.3069895 98.2080006,40.4414531 C97.3654654,41.5286473 95.8311863,41.7640184 94.7063103,41.0079584 L94.5619996,40.903708 L49.3758727,5.88675 L4.19074575,40.903708 C3.10355152,41.7462432 1.55907838,41.5912775 0.658473046,40.5784188 L0.544744713,40.4414531 C-0.297790547,39.3542589 -0.142824872,37.8097857 0.870033868,36.9091804 L1.00699958,36.795452 L47.7844996,0.544622047 C48.6694714,-0.141198309 49.8868461,-0.179299439 50.8087515,0.430318655 Z" fill="#00B077"></path>
    </g>
</svg>