<?xml version="1.0" encoding="UTF-8"?>
<svg width="100px" height="100px" viewBox="0 0 100 100" version="1.1" xmlns="http://www.w3.org/2000/svg" xmlns:xlink="http://www.w3.org/1999/xlink">
    <!-- Generator: Sketch 63.1 (92452) - https://sketch.com -->
    <title>Horseshoe</title>
    <desc>Created with Sketch.</desc>
    <g id="Horseshoe" stroke="none" stroke-width="1" fill="none" fill-rule="evenodd">
        <path d="M85.7072145,22.7448059 C108.985274,61.4614199 90.5142115,99.331763 49.84166,99.331763 C9.16767925,99.331763 -9.30385439,61.4617038 13.9743755,22.7448059 C14.7128615,21.5165387 16.3072299,21.1194925 17.5354971,21.8579785 C18.7637643,22.5964645 19.1608105,24.1908329 18.4223245,25.4191001 C-2.86285504,60.82111 13.3896562,94.141763 49.84166,94.141763 C86.292193,94.141763 102.544292,60.8208553 81.2592655,25.4191001 C80.5207795,24.1908329 80.9178257,22.5964645 82.1460929,21.8579785 C83.3743601,21.1194925 84.9687285,21.5165387 85.7072145,22.7448059 Z M50.8764649,79.9481758 C52.7873695,79.9466015 54.3377409,81.4944186 54.3393176,83.4053232 C54.3408919,85.3162278 52.7930748,86.8665992 50.8821702,86.8681746 L50.8821702,86.8681746 L49.8821705,86.8690003 C47.9712659,86.8705745 46.4208945,85.3227575 46.4193179,83.4118529 C46.4177436,81.5009483 47.9655607,79.9505769 49.8764653,79.9490014 L49.8764653,79.9490014 Z M33.0497442,79.9699244 C33.701531,78.1736135 35.6861063,77.2457933 37.4824172,77.8975801 L37.4824172,77.8975801 L38.4224485,78.238668 C40.2187594,78.8904548 41.1465796,80.87503 40.4947928,82.6713409 C39.8430061,84.4676518 37.8584308,85.395472 36.0621199,84.7436852 L36.0621199,84.7436852 L35.1220885,84.4025973 C33.3257776,83.7508105 32.3979575,81.7662353 33.0497442,79.9699244 Z M22.314124,71.2912314 C23.6866315,69.9616517 25.8771059,69.9964516 27.2066856,71.368959 L27.2066856,71.368959 L27.9024708,72.0872089 C29.2320505,73.4597164 29.1972507,75.6501908 27.8247432,76.9797705 C26.4522358,78.3093501 24.2617613,78.2745503 22.9321817,76.9020428 L22.9321817,76.9020428 L22.2363964,76.183793 C20.9068167,74.8112855 20.9416166,72.6208111 22.314124,71.2912314 Z M24.651995,0.721936 C37.3771055,0.721936 43.8917084,12.516901 36.013798,25.6319875 L35.7706596,26.0298077 C22.1922306,47.8761831 28.4829858,66.368516 49.840795,66.368516 C70.9867196,66.368516 77.3637307,48.2442316 64.3123944,26.6842061 L63.9109477,26.0298355 C55.7429986,12.8887677 62.0491619,0.962741844 74.6476355,0.725535434 L75.031325,0.721936 L88.937065,0.721936 C90.3151217,0.721936 91.4422927,1.79610489 91.5269597,3.15282412 L91.532065,3.316936 L91.532065,15.283346 C91.532065,16.5382715 90.6361384,17.6043699 89.4184626,17.8333723 L89.2504756,17.8593504 L78.0314256,19.2243204 C76.6087376,19.3974123 75.3151024,18.3844145 75.1420106,16.9617266 C74.9755761,15.5937574 75.9057481,14.3451047 77.2423105,14.0972001 L77.4046044,14.0723116 L86.342,12.985 L86.342,5.911 L75.031325,5.911936 C66.368581,5.911936 62.28255,13.2964988 68.1383086,22.9953556 L68.3188045,23.2899635 C83.8120423,48.2140326 75.8706738,71.558516 49.840795,71.558516 C24.0729469,71.558516 16.0319834,48.6787357 30.9051415,24.0370744 L31.3628624,23.2898399 C37.4213148,13.5447885 33.4829651,6.06285526 24.9131,5.9141911 L24.651995,5.911936 L13.339,5.911 L13.339,12.985 L22.2769856,14.0723116 C23.6996735,14.2454034 24.7126713,15.5390386 24.5395794,16.9617266 C24.3731449,18.3296958 23.1707052,19.3188833 21.8136916,19.239073 L21.6501644,19.2243204 L10.4311144,17.8593504 C9.18537504,17.7077871 8.23528589,16.6896609 8.15502434,15.4532409 L8.149525,15.283346 L8.149525,3.316936 C8.149525,1.93887934 9.22369389,0.811708269 10.5804131,0.727041347 L10.744525,0.721936 L24.651995,0.721936 Z M63.2053446,77.5301686 C65.0001587,76.8742714 66.9868528,77.797546 67.64275,79.5923601 C68.2986472,81.3871742 67.3753727,83.3738682 65.5805586,84.0297655 L65.5805586,84.0297655 L64.6413105,84.3730045 C62.8464964,85.0289017 60.8598023,84.1056271 60.2039051,82.310813 C59.5480079,80.5159989 60.4712825,78.5293049 62.2660966,77.8734077 L62.2660966,77.8734077 Z M73.2166236,70.6005497 C74.5425727,69.2245346 76.7329476,69.183948 78.1089627,70.5098971 C79.4849779,71.8358463 79.5255645,74.0262211 78.1996153,75.4022363 L78.1996153,75.4022363 L77.50573,76.1223218 C76.1797809,77.4983369 73.9894061,77.5389235 72.6133909,76.2129744 C71.2373757,74.8870253 71.1967892,72.6966504 72.5227383,71.3206352 L72.5227383,71.3206352 Z" fill="#00B077"></path>
    </g>
</svg>