<?xml version="1.0" encoding="UTF-8"?>
<svg width="100px" height="100px" viewBox="0 0 100 100" version="1.1" xmlns="http://www.w3.org/2000/svg" xmlns:xlink="http://www.w3.org/1999/xlink">
    <!-- Generator: Sketch 63.1 (92452) - https://sketch.com -->
    <title>Hotdog</title>
    <desc>Created with Sketch.</desc>
    <g id="Hotdog" stroke="none" stroke-width="1" fill="none" fill-rule="evenodd">
        <path d="M81.216289,19.0813291 C85.5673314,23.4337702 85.5673314,30.5711807 81.216289,34.9222231 L34.9221536,81.2180815 C30.6456258,85.4946092 23.6805799,85.5687625 19.3125055,81.4395494 L18.9936556,81.1289945 C14.6664995,76.8015303 14.6664995,69.6658428 19.0178356,65.3131081 L65.3134003,19.0158204 C69.5893432,14.7398775 76.5545981,14.6661543 80.9233082,18.7946832 L81.216289,19.0813291 Z M61.6582889,15.360777 L15.3624305,61.6583584 C8.99287653,68.0299598 8.99287653,78.438062 15.3624646,84.8076501 L15.4535487,84.896703 C21.7984798,91.2439896 32.2070347,91.243355 38.577265,84.8731248 L84.8714003,38.5772664 C91.2409544,32.2077124 91.2409544,21.7978872 84.87166,15.4265455 L84.8058916,15.360777 C78.4362546,8.99114004 68.0279259,8.99114004 61.6582889,15.360777 Z M91.5497745,34.4836971 C92.5595817,33.474861 94.1960154,33.4756481 95.2048515,34.4854552 C101.303265,40.5897383 100.213449,48.9966263 93.7162769,55.6821681 L93.4535103,55.9486621 L55.9521468,93.4551947 C49.2222924,100.187205 40.6731974,101.384221 34.4830584,95.1980459 C33.4734134,94.1890475 33.4728892,92.5526137 34.4818876,91.5429688 C35.490886,90.5333238 37.1273198,90.5327996 38.1369648,91.541798 C41.9810722,95.3834436 47.212764,94.726435 52.0428179,90.050354 L52.2966507,89.800536 L89.7985998,52.2934179 C94.698541,47.3950467 95.4503539,42.0448674 91.5480165,38.1387741 C90.5391803,37.128967 90.5399674,35.4925333 91.5497745,34.4836971 Z M68.7254037,24.314267 C70.0676005,23.828501 71.5494571,24.5227753 72.0352231,25.8649721 L72.4842384,27.097099 C72.5371724,27.2451444 72.5866603,27.3855986 72.6356825,27.5271035 C73.0271074,28.6569681 73.3123183,29.6421393 73.5036618,30.6184299 C74.060335,33.4587394 73.7426533,35.8619466 71.9752508,37.626538 C70.2532594,39.3485295 68.4964696,39.381824 64.6247024,38.6098749 L62.4550385,38.1644236 C61.7188585,38.0201928 61.2788917,37.952946 60.8632588,37.9199837 L60.6085435,37.9043367 L60.4621605,37.9005813 L60.4640198,37.9615881 L60.4763516,38.1320384 C60.5163556,38.5478138 60.6467568,39.2693899 60.9464131,40.3702857 L61.4473068,42.1512086 C61.7415267,43.2257889 61.8624894,43.8002522 61.9470337,44.5441021 C62.1389774,46.23289 61.8537797,47.6839602 60.7613196,48.8374659 C59.5574201,50.1068462 57.9893963,50.5596635 56.2174749,50.4151021 C55.4105096,50.3492662 54.7849441,50.2217783 53.704116,49.9106307 L52.06882,49.4186668 C50.0923008,48.8250642 49.3684103,48.8097559 49.0906205,49.0875456 C48.8230795,49.3552393 48.8256407,50.0323902 49.3476494,51.827115 L49.8362335,53.4492301 C50.2021194,54.6929267 50.3442493,55.351215 50.4150058,56.2200063 C50.5592978,57.9917139 50.1067167,59.5592907 48.8394548,60.761139 C47.6879202,61.8552335 46.2360758,62.1411728 44.5459677,61.9491324 L44.235619,61.9102871 C43.5772555,61.819574 42.9827053,61.6806617 41.9143889,61.3836347 L40.6092715,61.0142907 L40.1050105,60.8773745 C39.0698734,60.6061692 38.4043311,60.4963777 38.0363978,60.4702269 L37.8971605,60.4635813 L37.9007924,60.6075785 L37.9083372,60.7491748 C37.9480264,61.3500683 38.0519273,61.9498031 38.3520606,63.3858437 L38.4685106,63.9402997 C39.3797206,68.2897669 39.4470169,70.1518538 37.6261198,71.9756688 C35.8600197,73.7403638 33.4589628,74.0573101 30.6202169,73.5022841 C29.7845076,73.3388878 28.9423917,73.106865 28.0077299,72.7982687 L27.3194956,72.5634299 L25.8666836,72.0377659 C24.5238634,71.553726 23.8276843,70.0727633 24.3117242,68.7299431 C24.7764025,67.4408356 26.1598448,66.7476727 27.4578181,67.1225297 L27.6815332,67.1974198 L28.8327611,67.6157541 C28.9677165,67.6638792 29.0940611,67.7082735 29.2199777,67.7517687 C30.1411582,68.0699708 30.9104597,68.2920988 31.6120811,68.4292784 C32.6873435,68.6395116 33.3969377,68.6118752 33.7675538,68.4519147 L33.8431605,68.4135813 L33.8512706,68.3604427 C33.8612396,68.2682803 33.8666097,68.1534017 33.8656154,68.0171556 L33.8624343,67.8738369 L33.8472023,67.6035839 C33.8049121,67.0446224 33.6897469,66.3598978 33.4671818,65.2788729 L33.1221016,63.6149512 C32.8941562,62.4773706 32.8008314,61.8516279 32.7505158,61.08985 C32.6353339,59.3459959 32.9307774,57.935511 34.0275296,56.8387591 C36.0046949,54.8629416 38.1545437,54.9572479 42.0052285,56.0372951 L43.4318272,56.4398326 C44.1512012,56.6373171 44.5631697,56.7331463 44.9314318,56.7873336 L45.1875744,56.8193135 L45.3071605,56.8285813 L45.296252,56.7015714 C45.2569049,56.3633006 45.115674,55.7217918 44.7754246,54.5704653 L44.4674093,53.5521474 C43.3547999,49.8413343 43.3078695,47.561356 45.4350218,45.4329897 C47.5008076,43.3672039 49.7082351,43.3518415 53.2316558,44.3724437 L54.566768,44.7743388 C55.8065005,45.1413044 56.4551349,45.2773996 56.7664935,45.3044327 L56.8271605,45.3075813 L56.8110408,45.1278473 L56.7852444,44.9297212 C56.7359648,44.5949141 56.652261,44.2239541 56.4891835,43.619324 L56.0371911,42.0113389 C54.9550031,38.1559296 54.8599816,36.0084035 56.8371536,34.0325813 C57.9329678,32.9357896 59.3436896,32.6395412 61.0881562,32.7538049 L61.4083994,32.778111 C61.9871998,32.828493 62.5393111,32.913569 63.3786825,33.0775437 L65.5390553,33.5213212 C66.6423573,33.7431265 67.3051201,33.8421784 67.8737379,33.8626119 C68.0242221,33.8680196 68.1537554,33.8664754 68.2609825,33.8597482 L68.4141605,33.8435813 L68.4531482,33.7667425 C68.6017886,33.4242832 68.6366895,32.7941995 68.4755299,31.8540984 L68.4311078,31.6126015 C68.2934952,30.9104616 68.0705604,30.1404037 67.7514177,29.2191846 L67.5399647,28.6235352 L67.1746986,27.6240863 C66.6889326,26.2818896 67.3832069,24.800033 68.7254037,24.314267 Z M44.2824937,6.77875899 C51.0133498,0.0479029509 59.559461,-1.15114612 65.7507038,5.03216936 C66.7606719,6.04084431 66.7617202,7.67727786 65.7530453,8.68724598 C64.7443703,9.69721411 63.1079368,9.69826243 62.0979686,8.68958748 C58.2531961,4.84973784 53.0227965,5.50807615 48.191513,10.1839868 L47.9376131,10.4337944 L10.435748,47.9373825 C5.53438625,52.8371738 4.78223938,58.1874624 8.68688257,62.0908541 C9.69636609,63.1000141 9.69662838,64.736448 8.68746842,65.7459315 C7.67830846,66.755415 6.0418746,66.7556773 5.03239109,65.7465173 C-1.07147184,59.6446107 0.0190013214,51.2360963 6.51807803,44.5486257 L6.78092146,44.2820543 L44.2824937,6.77875899 Z" id="Hot-Dog" fill="#00B077"></path>
    </g>
</svg>