<?xml version="1.0" encoding="UTF-8"?>
<svg width="100px" height="100px" viewBox="0 0 100 100" version="1.1" xmlns="http://www.w3.org/2000/svg" xmlns:xlink="http://www.w3.org/1999/xlink">
    <!-- Generator: Sketch 63.1 (92452) - https://sketch.com -->
    <title>IceSkate</title>
    <desc>Created with Sketch.</desc>
    <g id="IceSkate" stroke="none" stroke-width="1" fill="none" fill-rule="evenodd">
        <path d="M97.6753249,72.4139893 C99.0343787,72.8689339 99.7673042,74.3394701 99.3123597,75.6985239 C96.5908673,83.8284267 90.1677214,88.4790025 78.4910667,88.6048899 L78.001495,88.607514 L3.431575,88.607514 C1.99839607,88.607514 0.836575,87.4456929 0.836575,86.012514 C0.836575,84.6344573 1.91074389,83.5072863 3.26746312,83.4226193 L3.431575,83.417514 L78.001495,83.417514 C87.7693819,83.417514 92.3438301,80.1659 94.3907903,74.0510241 C94.8457349,72.6919703 96.3162711,71.9590448 97.6753249,72.4139893 Z M29.115328,71.082787 C30.5485069,71.082787 31.710328,72.2446081 31.710328,73.677787 C31.710328,75.0558437 30.6361591,76.1830147 29.2794399,76.2676817 L29.115328,76.272787 L21.521575,76.272669 L21.522358,78.206927 C21.522358,79.6401059 20.3605369,80.801927 18.927358,80.801927 C17.5493013,80.801927 16.4221303,79.7277581 16.3374633,78.3710389 L16.332358,78.206927 L16.331575,76.272669 L8.182328,76.272787 C6.74914907,76.272787 5.587328,75.1109659 5.587328,73.677787 C5.587328,72.2997303 6.66149689,71.1725593 8.01821612,71.0878923 L8.182328,71.082787 L29.115328,71.082787 Z M24.296759,61.533187 C26.8605576,61.533187 29.2132643,61.930149 31.7736053,62.7225117 L32.1147138,62.832929 C34.3209518,63.5713337 40.1571835,65.8940487 41.3456831,66.3352492 L41.4359792,66.3683777 C51.6458941,70.0555304 63.3117609,71.5990949 82.4841777,70.4895416 C84.244997,70.3876388 85.7550316,71.7324563 85.8569344,73.4932757 C85.9588372,75.254095 84.6140197,76.7641296 82.8532003,76.8660324 L81.1320083,76.9596399 C77.4453803,77.1470092 74.0177966,77.2350613 70.8091836,77.2270172 L70.810404,78.206581 C70.810404,79.6397599 69.6485829,80.801581 68.215404,80.801581 C66.8373473,80.801581 65.7101763,79.7274121 65.6255093,78.3706929 L65.620404,78.206581 L65.6194502,77.1237294 C55.1426271,76.7202021 47.1015727,75.1480613 39.7478831,72.5478339 L39.0002598,72.2772019 C37.3068261,71.6401 31.4152107,69.2976302 29.8852951,68.8241589 C28.0708072,68.2626194 26.4692665,67.9711159 24.764494,67.9264316 L24.296759,67.920347 L4.486529,67.920347 C2.72276347,67.920347 1.292949,66.4905325 1.292949,64.726767 C1.292949,63.023821 2.62585571,61.632192 4.30530669,61.5382425 L4.486529,61.533187 L24.296759,61.533187 Z M37.183183,10.365669 C38.4943714,10.365669 39.5995562,11.3437643 39.7589398,12.6452296 C41.0260876,22.992271 43.1716587,30.477062 47.1103811,36.5791143 C51.7454232,43.7599375 58.8373681,48.7238358 69.2936855,51.4387958 L69.8891518,51.5900708 C74.7657501,52.7999009 78.3269479,54.89249 80.6906435,57.6583281 C82.0785593,59.2823741 82.9711711,61.0404421 83.4556911,62.8210611 C83.7409864,63.8695265 83.8515328,64.7814486 83.855858,65.4971088 L83.8510951,65.7954915 L83.8497019,65.824237 C83.7732889,67.2553775 82.5511754,68.353601 81.120035,68.2771879 C79.7439384,68.2037139 78.6756422,67.0709753 78.6634322,65.7116716 L78.6656202,65.5426081 C78.6647854,65.4743549 78.6591476,65.3641947 78.6442663,65.2177569 C78.6126718,64.9068555 78.5498381,64.5588174 78.4477799,64.1837518 C78.1575015,63.1169737 77.6143931,62.0472798 76.7451558,61.0301566 C75.1750762,59.1929546 72.7012723,57.7041498 69.0787039,56.740258 L68.6384659,56.6271219 C56.6021183,53.6360227 48.2060394,47.8466785 42.7498649,39.3937187 C38.7000217,33.1195129 36.3946187,25.7752495 34.9927199,16.1571937 L34.906,15.555 L7.861413,15.555669 C6.48335634,15.555669 5.35618527,14.4815001 5.27151835,13.1247809 L5.266413,12.960669 C5.266413,11.5826123 6.34058189,10.4554413 7.69730112,10.3707743 L7.861413,10.365669 L37.183183,10.365669 Z M7.09995216,18.6778469 L7.26410389,18.6814504 C8.64022202,18.7545192 9.70885174,19.8869432 9.72146213,21.2462432 L9.71785858,21.4103949 L7.80966858,57.3476849 C7.73367702,58.7788477 6.51188697,59.8774311 5.08072411,59.8014396 C3.70460598,59.7283708 2.63597626,58.5959468 2.62336587,57.2366468 L2.62696942,57.0724951 L4.53515942,21.1352051 C4.60822823,19.759087 5.74065215,18.6904573 7.09995216,18.6778469 Z M30.4814358,31.6089145 C32.2588331,30.9071897 34.2685586,31.7791945 34.9702835,33.5565918 L34.9702835,33.5565918 L35.3375046,34.4867255 C36.0392294,36.2641227 35.1672246,38.2738483 33.3898274,38.9755731 C31.6124301,39.6772979 29.6027045,38.8052931 28.9009797,37.0278959 L28.9009797,37.0278959 L28.5337585,36.0977622 C27.8320337,34.3203649 28.7040385,32.3106394 30.4814358,31.6089145 Z M42.0183946,51.1204772 C43.2622419,49.6698213 45.4465684,49.5021698 46.8972244,50.7460171 L46.8972244,50.7460171 L47.6563703,51.3969376 C49.1070262,52.6407849 49.2746777,54.8251114 48.0308304,56.2757673 C46.7869831,57.7264233 44.6026566,57.8940748 43.1520007,56.6502274 L43.1520007,56.6502274 L42.3928547,55.999307 C40.9421988,54.7554597 40.7745473,52.5711332 42.0183946,51.1204772 Z M35.1269887,42.022018 C36.7019744,40.9399003 38.8559824,41.3394488 39.9381001,42.9144346 L39.9381001,42.9144346 L40.5043854,43.7386438 C41.5865031,45.3136296 41.1869546,47.4676375 39.6119688,48.5497552 C38.0369831,49.6318729 35.8829752,49.2323244 34.8008575,47.6573386 L34.8008575,47.6573386 L34.2345721,46.8331294 C33.1524544,45.2581436 33.5520029,43.1041357 35.1269887,42.022018 Z" fill="#00B077"></path>
    </g>
</svg>