<?xml version="1.0" encoding="UTF-8"?>
<svg width="100px" height="100px" viewBox="0 0 100 100" version="1.1" xmlns="http://www.w3.org/2000/svg" xmlns:xlink="http://www.w3.org/1999/xlink">
    <!-- Generator: Sketch 63.1 (92452) - https://sketch.com -->
    <title>Island</title>
    <desc>Created with Sketch.</desc>
    <g id="Island" stroke="none" stroke-width="1" fill="none" fill-rule="evenodd">
        <path d="M68.622413,85.758822 C71.462829,85.758822 73.6592334,86.4804494 76.7312774,88.1056118 L78.2866783,88.9519107 C84.1397925,92.1617156 87.5523253,92.5813905 94.831287,89.3580243 C96.1417249,88.7777189 97.6744752,89.3696082 98.2547807,90.680046 C98.8350861,91.9904839 98.2431968,93.5232342 96.932759,94.1035397 C88.1681174,97.9848143 83.1295616,97.4506729 76.1597819,93.7027752 L74.6851568,92.8970735 C72.0804942,91.4871768 70.5340452,90.948822 68.622413,90.948822 C65.5456326,90.948822 63.6178551,91.5503679 60.5014723,93.2067234 L59.089038,93.9711257 C55.7515568,95.7684785 53.4668028,96.536722 50.222133,96.536722 C47.1145466,96.536722 44.8891216,95.8332777 41.7786193,94.1966795 L40.3561371,93.4283967 C36.9942834,91.6033903 35.0371984,90.948822 31.827043,90.948822 C29.9979048,90.948822 28.4889626,91.4313773 26.0974764,92.6667229 L24.5659817,93.480958 C17.3692009,97.3346777 12.2896129,97.9573954 3.37557813,94.1290207 C2.0587111,93.5634563 1.44965995,92.0374442 2.01522431,90.7205771 C2.58078867,89.4037101 4.10680083,88.7946589 5.42366787,89.3602233 L6.23458395,89.7001952 C12.7289903,92.3530399 16.1529107,91.9867314 21.4568029,89.2522533 L23.3276893,88.2581489 C26.605826,86.5284455 28.879822,85.758822 31.827043,85.758822 C35.9074546,85.758822 38.5755475,86.6006488 42.3872156,88.6279477 L43.811301,89.3990882 C46.4622566,90.8279593 48.0037804,91.346722 50.222133,91.346722 C52.336433,91.346722 53.8376326,90.8742619 56.2736659,89.5905629 L57.6133937,88.8667551 C61.6691045,86.6667474 64.3852443,85.758822 68.622413,85.758822 Z M66.4090265,31.5133207 C67.1624784,32.7324647 66.7849603,34.3315696 65.5658163,35.0850215 C60.9935856,37.9107383 57.7366593,41.5701804 55.5887313,45.8889033 C53.120086,50.852475 52.322576,56.0885082 52.5256598,60.6721589 C67.3667281,61.5505545 80.4062137,70.5768619 86.5730897,84.0101064 C87.1710293,85.3125925 86.5998816,86.853192 85.2973956,87.4511317 C83.9949095,88.0490713 82.45431,87.4779236 81.8563703,86.1754376 C76.1985729,73.8511137 63.9083771,65.791162 50.13892,65.791162 C47.8716895,65.791162 45.6445553,66.0096827 43.4805169,66.429783 C43.4056223,66.4560849 43.32765,66.4766936 43.2480323,66.493819 C43.1405875,66.5169298 43.0332661,66.5330258 42.9265451,66.542415 C32.1875133,68.8089546 23.0675578,76.0540949 18.4196199,86.1756985 C17.8215361,87.4781184 16.2808734,88.0490956 14.9784535,87.4510119 C13.6760336,86.8529281 13.1050564,85.3122654 13.7031401,84.0098455 C18.7046751,73.1182298 28.2229861,65.1239089 39.5558832,62.0202132 C38.513777,58.2729257 37.0612787,55.1250653 35.3029271,52.519155 C34.0274906,50.6289339 32.6761223,49.1486413 31.3426363,48.0316352 L31.0085985,47.7585238 C30.4778817,47.3355375 30.0802025,47.0722654 29.8601581,46.9494762 L29.7995184,46.9168347 C28.5256285,46.2601717 28.0252673,44.6951494 28.6819303,43.4212594 C29.3385933,42.1473695 30.9036156,41.6470083 32.1775056,42.3036713 C32.7464028,42.5969256 33.613703,43.1637547 34.6753387,44.0530431 C36.3725659,45.4747403 38.0519109,47.3142995 39.60514,49.6162144 C41.7311148,52.7669492 43.4536021,56.5392286 44.6503877,60.9761014 C45.5366811,60.8544725 46.4310451,60.7615846 47.3322591,60.6987498 C47.1211485,55.3647273 48.0620152,49.3678263 50.9417436,43.5777119 C53.5112946,38.4112546 57.4227118,34.0164345 62.8373257,30.6701105 C64.0564697,29.9166586 65.6555746,30.2941767 66.4090265,31.5133207 Z M65.1506966,4.04241175 C65.5497269,4.18068317 66.1672204,4.43907214 66.9332982,4.83310738 C68.1844177,5.4766257 69.433011,6.28649121 70.6067125,7.28416666 C75.6942986,11.6087411 77.6721148,17.8098643 74.955383,25.6334301 C75.3942093,25.6967149 75.8505479,25.7761615 76.3213701,25.8720205 C79.3546483,26.4895936 82.3538223,27.6790156 85.160001,29.5767341 C88.5975213,31.9014063 91.5299717,35.1537031 93.7945653,39.422376 C94.4662225,40.6884244 93.9843733,42.2592451 92.718325,42.9309023 C91.4522766,43.6025595 89.8814559,43.1207103 89.2097987,41.854662 C87.3446556,38.3389381 84.989267,35.7266442 82.2526038,33.8759365 C81.2203721,33.177875 80.1539559,32.6012291 79.0662419,32.1352298 C79.8276308,33.4212312 80.4493374,34.8186129 80.8785022,36.2726573 C82.628285,42.2010606 81.1840704,48.4538177 76.1313829,53.9377228 C75.1602598,54.9917256 73.518571,55.0589129 72.4645682,54.0877899 C71.4105654,53.1166668 71.3433781,51.474978 72.3145011,50.4209752 C76.1281295,46.2818757 77.1348929,41.923073 75.9007918,37.7418407 C74.9310881,34.4564073 72.5464748,31.5655191 70.3345051,30.5030077 L70.1139425,30.4029043 L69.9743556,30.3387472 C69.9284215,30.315772 69.8832332,30.2914652 69.8388457,30.2658729 L69.8290098,30.2602292 C69.8231268,30.2568197 69.8172613,30.2533895 69.8114134,30.2499387 L69.7241357,30.1955838 C69.7192237,30.1924074 69.7143224,30.1892145 69.7094318,30.1860052 L69.6963366,30.1779045 C69.668494,30.1594421 69.6410937,30.1404956 69.6141424,30.1210814 C69.5978721,30.1086945 69.5809553,30.0961652 69.5641945,30.0834346 C69.5382424,30.0645093 69.5132072,30.044788 69.4885999,30.0246557 C69.4755892,30.0131306 69.4622995,30.0020225 69.4491215,29.9907831 C69.4193874,29.9663485 69.3906668,29.9407283 69.3625944,29.9145388 C69.3579191,29.9092421 69.3530193,29.9046377 69.3481371,29.9000143 L69.3286605,29.8822995 C69.3069125,29.8612582 69.2855712,29.8398687 69.2646421,29.8181441 L69.2402154,29.7920236 C69.2302094,29.7813766 69.2202894,29.7706409 69.2104567,29.7598173 C69.1930858,29.7409603 69.1760551,29.7215797 69.1593347,29.701969 C69.1415162,29.6810016 69.1239216,29.659759 69.1066537,29.6382174 C69.0932258,29.621327 69.0801828,29.6045763 69.0673558,29.5876794 C69.0590913,29.5770885 69.0507049,29.5658961 69.042405,29.5546292 L69.0060788,29.5033786 C68.9970469,29.4904433 68.9881379,29.4774325 68.9793527,29.464348 L68.970045,29.450834 C68.9508611,29.4219599 68.9322345,29.3926668 68.9141821,29.3629689 C68.9074768,29.3511682 68.9004927,29.3394306 68.8936029,29.3276413 C68.8746697,29.2962219 68.8568574,29.2643131 68.8397028,29.2319816 C68.8323933,29.2169187 68.8249169,29.2024596 68.8175775,29.1879341 C68.8003646,29.1553567 68.78406,29.1213569 68.768478,29.0869368 C68.7636218,29.0745806 68.7582912,29.0625554 68.7530524,29.050492 C68.7360792,29.0130967 68.7206272,28.9750623 68.7060556,28.9365656 C68.7020264,28.9240697 68.6975634,28.9120308 68.6931893,28.8999591 C68.6801715,28.8658082 68.6683943,28.8309162 68.6573402,28.7956788 C68.6516795,28.7761239 68.6457272,28.7564409 68.6400076,28.7366885 C68.630153,28.7038234 68.6213594,28.6708114 68.6131994,28.6375273 C68.6088298,28.6189226 68.6044228,28.6002181 68.6002221,28.5814607 C68.5981529,28.5726151 68.596335,28.5642124 68.5945573,28.5557933 C68.5940179,28.5519671 68.5931633,28.547898 68.5923178,28.5438247 C67.7538182,24.5040924 64.3653592,21.0250129 60.1012348,19.7786214 C55.5310939,18.4427822 50.8610844,19.853088 47.2998725,24.2206503 C46.3941966,25.3313946 44.7595651,25.4976354 43.6488207,24.5919595 C42.5380764,23.6862836 42.3718356,22.0516521 43.2775115,20.9409077 C48.1672698,14.9439816 55.000292,12.8804631 61.5573292,14.7970666 C65.2895171,15.8879745 68.5521328,18.185792 70.7968248,21.1862889 C71.5600259,16.894578 70.1489684,13.7067223 67.2453602,11.2385833 C66.3956285,10.5162902 65.4762575,9.91996565 64.5594127,9.44838285 C64.0841233,9.20391579 63.7198284,9.04641251 63.5189586,8.9708437 L63.4513954,8.94633625 C62.0972141,8.4770872 61.3798347,6.99890478 61.8490837,5.64472342 C62.3183328,4.29054206 63.7965152,3.57316269 65.1506966,4.04241175 Z M68.575184,36.524233 C70.478184,36.524233 72.02688,38.074313 72.02688,39.992537 C72.02688,41.896921 70.478184,43.444233 68.575184,43.444233 C66.658344,43.444233 65.10688,41.896921 65.10688,39.992537 C65.10688,38.074313 66.658344,36.524233 68.575184,36.524233 Z M6.78321761,21.9396406 C7.31149646,21.9457339 8.12700254,22.0216827 9.14197722,22.2266328 C10.8107403,22.5635999 12.4819406,23.1556055 14.0599744,24.0751417 C15.9686196,25.1873285 17.5988749,26.7033528 18.8383111,28.6621603 C19.6046326,29.8732562 19.2440716,31.4762697 18.0329757,32.2425911 C16.8218798,33.0089126 15.2188663,32.6483516 14.4525449,31.4372557 C13.6766928,30.2110976 12.6616461,29.2671745 11.4469693,28.5593701 C10.3999226,27.9492454 9.25853673,27.5449212 8.11471366,27.3139532 C7.50939435,27.1917234 7.04626477,27.1420061 6.79804058,27.1314204 L6.72335839,27.1292954 C5.29027479,27.1127657 4.14193094,25.937622 4.1584606,24.5045384 C4.17499027,23.0714548 5.35013401,21.9231109 6.78321761,21.9396406 Z M56.0569095,22.706204 C57.9628183,22.706204 59.509984,24.2549 59.509984,26.173124 C59.509984,28.078892 57.9628183,29.626204 56.0569095,29.626204 C54.1413051,29.626204 52.589984,28.078892 52.589984,26.173124 C52.589984,24.2549 54.1413051,22.706204 56.0569095,22.706204 Z M92.6649208,17.5653532 C93.3485547,17.7471656 94.0159904,17.9811906 94.6646339,18.2696462 C95.9741623,18.8520011 96.5636528,20.3856756 95.9812978,21.6952039 C95.4222371,22.9523512 93.9864403,23.5459115 92.7138841,23.0761545 L92.5557401,23.0118678 C92.1609551,22.8363047 91.7526805,22.6931501 91.331008,22.5810063 C89.1490283,22.0007089 86.692319,22.2598822 84.2844213,23.0733353 C83.7592368,23.2507568 83.2829385,23.4400161 82.8679427,23.626866 L82.4628549,23.8187527 L82.427185,23.8374453 C81.1661818,24.5185273 79.5918106,24.0484082 78.9107287,22.787405 C78.2296467,21.5264018 78.6997658,19.9520306 79.960769,19.2709487 C80.5166703,18.9707001 81.4300175,18.5594699 82.6233264,18.1563378 C85.9134581,17.0448422 89.3460971,16.6827121 92.6649208,17.5653532 Z M38.7502618,27.979289 C39.8362999,28.9144483 39.9586113,30.5529526 39.023452,31.6389908 C38.1272576,32.6797773 36.5851093,32.8354746 35.5022916,32.023575 L35.3637502,31.912181 C34.189585,30.9011378 31.3936649,30.6848017 29.2848728,31.6830995 C26.8716885,32.8254957 25.7885292,35.1862881 26.6952164,39.1120509 L26.6975,39.1216885 C26.6996976,39.1313408 26.7018407,39.1410078 26.7039289,39.1506891 C26.7083756,39.1707577 26.7123214,39.1903644 26.7160454,39.2100512 C26.7228932,39.2459889 26.7290791,39.2824857 26.734485,39.3191442 C26.7373712,39.3404445 26.740189,39.3616848 26.742749,39.3830065 C26.7745503,39.6402435 26.7668835,39.8943826 26.7243049,40.1393678 C26.7213264,40.1529833 26.7187851,40.1670384 26.7161307,40.1810543 C26.7089702,40.2215778 26.7003566,40.2615072 26.6908204,40.3011477 C26.6871347,40.314836 26.6838162,40.3282246 26.6803939,40.3415723 C26.6718702,40.3760572 26.6621764,40.4106875 26.6517796,40.4450634 C26.6452633,40.465898 26.638856,40.4862267 26.6322065,40.5064471 C26.6224194,40.5366534 26.6119063,40.5666668 26.6008549,40.5964559 C26.589725,40.6262272 26.5780764,40.6559696 26.5658997,40.6854417 C26.5614885,40.6962799 26.5569085,40.7071499 26.5522557,40.7179861 L26.5435959,40.7346671 L26.5380663,40.7502828 C26.5276905,40.7735712 26.5169811,40.7966803 26.5059443,40.8196041 C26.4989917,40.8342096 26.4919746,40.8484558 26.4848291,40.8626346 L26.475283,40.880627 C26.4689749,40.8929543 26.4625774,40.9052132 26.4560917,40.9174033 C26.452337,40.9247721 26.4483129,40.9322094 26.4442537,40.939625 C26.4327767,40.9609047 26.4209159,40.981909 26.4087674,41.0027434 L26.3916486,41.0314735 C26.377655,41.0548413 26.3633263,41.0779304 26.3486711,41.1007368 C26.3408352,41.1129587 26.3326345,41.125466 26.3243266,41.1379026 L26.3063922,41.1644345 C26.2917414,41.1858124 26.2767974,41.2069264 26.2615679,41.2277729 C26.2433351,41.2526778 26.2243923,41.2776601 26.2049977,41.3023015 C26.1917308,41.3191536 26.1787542,41.3352122 26.1656031,41.3510933 C26.1547341,41.3642889 26.1431063,41.3780693 26.131333,41.3917315 L26.1127973,41.412851 C26.0915449,41.4369269 26.0698795,41.4605634 26.0478164,41.4837535 C26.0397891,41.4925455 26.0315711,41.5010903 26.0232926,41.5095809 L25.9757917,41.5556782 C25.9699735,41.5613398 25.9641286,41.5669744 25.9582574,41.5725818 C25.9277179,41.6031818 25.8956931,41.6323172 25.862905,41.6606728 C25.8545441,41.6670064 25.8465542,41.6738072 25.8385259,41.6805571 C25.808347,41.7069593 25.7770038,41.7321837 25.7450289,41.7567034 C25.7356889,41.7624935 25.7273913,41.7687775 25.7190547,41.7750126 C25.644015,41.8324746 25.5644803,41.8854004 25.4817032,41.9340041 C25.4692669,41.9403285 25.4572953,41.9472484 25.4452634,41.9540751 C25.4087337,41.9756673 25.3710455,41.9957744 25.3327487,42.0149913 C25.3235946,42.0189052 25.3149846,42.0231809 25.3063474,42.02741 C25.2727759,42.0444303 25.2381035,42.0604095 25.2029704,42.0756604 C25.1809556,42.0848231 25.159346,42.0938921 25.1375884,42.1026751 C25.1044479,42.1163122 25.0703101,42.1292165 25.0357803,42.1414388 C25.0260994,42.1447287 25.0167924,42.1479738 25.0074612,42.1511673 C24.9680821,42.164716 24.9278463,42.1773726 24.88712,42.1891017 C24.8634763,42.1959028 24.8396067,42.2024167 24.8156006,42.2085964 C24.7939448,42.2141899 24.7724058,42.2194515 24.7507401,42.2244554 L24.7333234,42.2281303 C24.6459899,42.2477645 24.5574572,42.262927 24.4680713,42.2734593 C24.4508197,42.2757314 24.4335045,42.2776007 24.416203,42.2792933 L24.4029972,42.2802932 C24.3976775,42.2807839 24.392355,42.2812582 24.3870299,42.281716 C24.3835479,42.2814942 24.3805249,42.2817432 24.3775004,42.2819871 L24.3469929,42.2851293 C24.3062009,42.2880191 24.2655008,42.289931 24.2249199,42.2908822 L24.0717934,42.2978137 C23.8687359,42.3140617 23.537444,42.3572084 23.117802,42.4446279 C22.1952526,42.6368127 21.2749043,42.9685604 20.4337299,43.463733 C17.5314362,45.1722208 16.0577816,48.4234496 16.8772011,54.2888406 C17.0754964,55.7082351 16.0855999,57.0196318 14.6662054,57.2179271 C13.2468109,57.4162224 11.9354142,56.4263259 11.7371189,55.0069314 C10.8233072,48.4658828 12.3216701,43.6919526 15.5661717,40.6549066 C14.4146749,40.6039682 13.2858262,40.6417362 12.2020204,40.7819969 C8.86418891,41.2139622 6.3038961,42.5735802 4.60772427,45.0679505 C3.8018334,46.2530841 2.18778913,46.5605211 1.00265549,45.7546303 C-0.182478142,44.9487394 -0.489915145,43.3346951 0.315975727,42.1495615 C2.92182317,38.3174329 6.82526699,36.244548 11.5359117,35.6349202 C14.6900027,35.2267336 17.9820686,35.4894149 21.2080173,36.1872922 C21.3446349,31.9324346 23.4806783,28.6886129 27.0642017,26.9921805 C30.9327999,25.1607944 35.9256887,25.5471222 38.7502618,27.979289 Z" fill="#00B077"></path>
    </g>
</svg>