<?xml version="1.0" encoding="UTF-8"?>
<svg width="100px" height="100px" viewBox="0 0 100 100" version="1.1" xmlns="http://www.w3.org/2000/svg" xmlns:xlink="http://www.w3.org/1999/xlink">
    <!-- Generator: Sketch 63.1 (92452) - https://sketch.com -->
    <title>Ladle</title>
    <desc>Created with Sketch.</desc>
    <g id="Ladle" stroke="none" stroke-width="1" fill="none" fill-rule="evenodd">
        <path d="M81.9660489,1.41547 C87.8331762,1.41547 92.58453,6.18739587 92.58453,12.0668889 C92.58453,13.4942854 91.4273965,14.6514189 90,14.6514189 C88.6275034,14.6514189 87.5048801,13.5815839 87.4205547,12.2303386 L87.41547,12.0668889 C87.41547,9.03720161 84.973372,6.58453 81.9660489,6.58453 C79.0311026,6.58453 76.6327776,8.91996701 76.5175321,11.8463309 L76.5101348,12.192659 L76.5009561,12.3181311 L71.3885978,64.6599089 C71.2646874,65.9285387 70.2374298,66.908526 68.9813827,66.9879891 L68.8163084,66.9931967 L11.672,66.993 L11.705997,67.4530118 C12.9535408,82.9197856 23.6924841,94.1739324 38.4338191,94.4116319 L38.9107275,94.41547 C51.2568945,94.41547 60.4125105,86.7799688 64.6954272,73.9445998 C65.147233,72.5905938 66.6111328,71.8592161 67.9651388,72.3110219 C69.3191448,72.7628278 70.0505225,74.2267275 69.5987166,75.5807335 C64.6531608,90.4019499 53.6424655,99.58453 38.9107275,99.58453 C19.9671253,99.58453 6.41547,84.3204923 6.41547,64.4086667 C6.41547,63.03617 7.48530496,61.9135467 8.83655025,61.8292214 L9,61.8241367 L66.472,61.824 L71.346,11.922 L71.347832,11.7832919 C71.495338,6.1292455 76.0405188,1.56723372 81.6830245,1.41917906 L81.9660489,1.41547 Z" fill="#00B077"></path>
    </g>
</svg>