<?xml version="1.0" encoding="UTF-8"?>
<svg width="100px" height="100px" viewBox="0 0 100 100" version="1.1" xmlns="http://www.w3.org/2000/svg" xmlns:xlink="http://www.w3.org/1999/xlink">
    <!-- Generator: Sketch 63.1 (92452) - https://sketch.com -->
    <title>Laptop</title>
    <desc>Created with Sketch.</desc>
    <g id="Laptop" stroke="none" stroke-width="1" fill="none" fill-rule="evenodd">
        <path d="M83.45884,9.42 C84.8837347,9.42 86.03884,10.5751053 86.03884,12 C86.03884,13.370091 84.9708802,14.4907466 83.6220033,14.5749242 L83.45884,14.58 L20.002,14.579 L20.00288,57.78296 C20.00288,58.1760537 19.9130686,58.563058 19.7413734,58.9147695 L19.6487388,59.087549 L8.502,78.104 L92.377,78.104 L81.2329082,59.0874246 C81.0341787,58.7483136 80.9159966,58.3690551 80.886286,57.9788434 L80.87884,57.78296 L80.87884,21.7524 C80.87884,20.3275053 82.0339453,19.1724 83.45884,19.1724 C84.828931,19.1724 85.9495866,20.2403598 86.0337642,21.5892367 L86.03884,21.7524 L86.038,57.082 L99.1059318,79.3802954 C100.085875,81.0524648 98.9407023,83.144852 97.0443519,83.2598055 L96.88,83.26476 L4,83.26476 C2.06178428,83.26476 0.83556017,81.2187035 1.69530795,79.5244732 L1.77414116,79.380171 L14.842,57.084 L14.84288,12 C14.84288,10.629909 15.9108398,9.50925335 17.2597167,9.42507584 L17.42288,9.42 L83.45884,9.42 Z M74.736204,55.203304 C76.1610987,55.203304 77.316204,56.3584093 77.316204,57.783304 C77.316204,59.153395 76.2482442,60.2740506 74.8993673,60.3582282 L74.736204,60.363304 L26.147924,60.363304 C24.7230293,60.363304 23.567924,59.2081987 23.567924,57.783304 C23.567924,56.413213 24.6358838,55.2925574 25.9847607,55.2083798 L26.147924,55.203304 L74.736204,55.203304 Z" fill="#00B077"></path>
    </g>
</svg>