<?xml version="1.0" encoding="UTF-8"?>
<svg width="100px" height="100px" viewBox="0 0 100 100" version="1.1" xmlns="http://www.w3.org/2000/svg" xmlns:xlink="http://www.w3.org/1999/xlink">
    <!-- Generator: Sketch 63.1 (92452) - https://sketch.com -->
    <title>LeafyGreens</title>
    <desc>Created with Sketch.</desc>
    <g id="LeafyGreens" stroke="none" stroke-width="1" fill="none" fill-rule="evenodd">
        <path d="M89.6205148,33.0131477 C98.5522372,38.0168018 101.201096,45.7135342 97.7618249,53.5183875 C95.3696447,58.947042 90.1919112,63.8045111 84.31771,66.4569942 L83.893,66.644 C88.1831345,75.6358965 81.7220624,86.0602883 70.0262101,89.9457306 L69.6299931,90.0742127 C62.0831209,92.4597183 56.4456994,92.4611784 46.6037391,90.9992025 L44.6044878,90.6987486 C38.5679773,89.8048267 36.2041438,89.6584197 33.1005432,90.1331311 C29.8586797,90.6289905 26.8932715,91.934118 23.8663456,94.346823 C22.7501486,95.2365224 21.1240483,95.0529098 20.2343489,93.9367128 C19.3446495,92.8205158 19.5282621,91.1944155 20.6444591,90.3047161 C24.3745169,87.331558 28.1804251,85.6565119 32.3189987,85.0234961 L32.8501043,84.9462311 C36.5233054,84.440599 39.3395344,84.6756768 46.2336643,85.7158347 L47.9506237,85.9724475 C56.7001804,87.2400776 61.5957999,87.1926123 68.0713954,85.1457287 C78.2980453,81.9100812 82.9704765,73.2005596 77.9804608,66.8914351 C76.8353739,65.4436448 77.5333683,63.2968187 79.3109409,62.7992685 C85.1540109,61.1637681 90.80063,56.4969388 93.0316548,51.434 C95.3886873,46.0851076 93.7192346,41.2342155 87.0941685,37.5227769 C85.8488687,36.8251456 85.4048958,35.2500888 86.1025271,34.0047891 C86.8001583,32.7594894 88.3752151,32.3155164 89.6205148,33.0131477 Z M55.8928159,12.5804417 L56.007,12.89 L56.17367,12.7196372 C64.0389242,4.71948725 73.6951922,4.49591357 80.5772243,11.4535143 L80.759,11.641 L80.986099,11.8623893 C87.9422631,18.7429973 87.7170656,28.3991742 79.7164918,36.2633327 L79.545,36.428 L79.5562923,36.4328858 C85.9239533,38.7133808 88.0382644,43.777387 85.0851668,49.6694409 L84.9573701,49.9188882 C82.4379024,54.7323943 76.9149752,59.1752864 70.5910123,61.6071872 L70.344,61.7 L70.4625076,61.8953426 C72.3065841,65.0383862 71.8957106,69.1911719 69.0274825,72.6405028 L68.8326246,72.8693972 C64.2597807,78.1174862 55.3349516,80.4327269 43.8936468,78.615581 L43.3554996,78.527371 C35.2851844,77.1637814 27.7286981,79.51473 20.936347,84.3251764 C19.0043477,85.6934478 17.2867641,87.1610066 15.8095568,88.624632 C15.3993503,89.031067 15.0330052,89.412467 14.7120655,89.7621518 L14.246799,90.2828613 C14.1622794,90.3804336 14.1033356,90.4507539 14.07051,90.4913838 C13.1734712,91.6016911 11.5461958,91.7745795 10.4358885,90.8775408 C9.32558114,89.980502 9.15269278,88.3532266 10.0497315,87.2429193 L10.2538629,86.9965995 C10.6695499,86.5058786 11.312504,85.8037111 12.1713987,84.9527133 C13.8408409,83.2986205 15.7721344,81.648461 17.9488725,80.1068619 C25.6249834,74.6705234 34.3114966,71.9125832 43.6947148,73.3465718 L44.2167194,73.4305601 C54.2891061,75.1326019 61.6156065,73.2836988 64.9354406,69.4736442 C67.0559637,67.039996 66.8514433,64.541106 64.6690394,63.2405061 L64.493,63.14 L64.2803634,63.124061 C64.2043067,63.1150869 64.1426406,63.1012561 63.8959765,63.0459332 L63.7226136,62.9931359 C63.6091607,62.9532545 63.5106306,62.9003616 63.182197,62.7240518 L62.927363,62.5396022 C62.4606988,62.187227 62.405728,61.9974971 62.0026089,60.6061445 L62.1702039,59.8879915 C62.3714737,59.0658995 62.4565503,58.9899618 62.9032026,58.5912891 L63.1747086,58.3919371 C63.3011593,58.3021433 63.3472624,58.2798898 63.4855718,58.2131294 L63.7091882,58.1209345 C63.7581571,58.1014784 63.7889229,58.0905427 63.8235855,58.0798621 L64.1149692,58.0048895 L64.1950695,57.9893031 C64.2994656,57.9697696 64.4194711,57.9511807 64.5678981,57.9306293 L64.760769,57.9112617 L64.967,57.907 L65.2358469,57.849428 C71.6791284,56.3984246 77.7970736,52.1499491 80.2331925,47.7889397 L80.3777138,47.5218213 C82.4584962,43.5464344 80.7609936,41.0574467 73.454549,40.4162728 C71.0300443,40.2035114 70.2167448,37.0633126 72.2331488,35.7003728 C81.9248751,29.1494838 83.0564999,21.1980584 77.363802,15.5500802 L77.1647999,15.3562409 L77.0834461,15.2748876 C71.4225381,9.35621787 63.3633741,10.4000216 56.7357175,20.203287 C55.3726532,22.2194568 52.2327074,21.4060615 52.0199569,18.9816807 C51.3787935,11.6753554 48.8900194,9.97821268 44.9148919,12.0594524 C40.4613671,14.3911645 36.0683997,20.6280324 34.5884974,27.203439 L34.533,27.457 L34.5350666,27.4898772 C34.5357107,27.5546202 34.5339224,27.6194548 34.529685,27.6842443 L34.5096085,27.8783407 L34.4698283,28.139316 L34.4505828,28.2477758 C34.4308768,28.3512936 34.4308768,28.3512936 34.3831413,28.537872 L34.348352,28.6533642 C34.3286269,28.7109655 34.3005505,28.7781035 34.2256801,28.9571382 L34.144894,29.1164281 C34.0947874,29.2051893 34.0336396,29.2876181 33.8501964,29.5349044 L33.6589324,29.7449061 C33.33417,30.0840973 33.1453972,30.1301789 31.8869119,30.4373895 L31.3130561,30.2841792 C30.2680944,29.9986287 30.2049969,29.9143979 29.7422824,29.2967056 L29.5657098,28.9771322 C29.4698812,28.7980738 29.4542276,28.7456053 29.4020488,28.5707103 L29.3418211,28.3093883 C29.3295422,28.2525385 29.3234261,28.2174822 29.3185705,28.1788268 L29.298,27.941 L29.2033523,27.773657 C27.9351624,25.6423906 25.5244728,25.3932794 23.1464035,27.3492665 L22.9635592,27.5040818 C19.2168428,30.7676501 17.3661744,37.9024526 18.9221131,47.7113151 L19.0056384,48.2210487 C20.6257794,57.8045351 17.8682958,66.6713217 12.3323616,74.4898165 C10.7912888,76.6662999 9.14168964,78.5973659 7.48815563,80.2666099 L7.03925986,80.7135643 C6.24471414,81.493474 5.61032616,82.0554109 5.19869042,82.3880508 C4.08847724,83.285206 2.46118363,83.1124884 1.56402843,82.0022752 C0.704254686,80.9383209 0.827055119,79.3994785 1.81591974,78.4834702 L2.23645438,78.1231993 C2.29195494,78.0745716 2.35411379,78.0195847 2.42262624,77.9583064 C2.83923124,77.5856906 3.30798273,77.1415349 3.81583818,76.6288543 C5.27892869,75.1518632 6.74595403,73.4345232 8.11373083,71.5027885 C12.8250629,64.8488935 15.1763613,57.4615888 13.9878054,49.5761865 L13.9089008,49.0827024 C11.9310216,37.3837221 14.236604,28.2506284 19.5684432,23.6063429 C23.0622733,20.5630507 27.3310188,20.0915143 30.5446732,21.9759698 L30.738,22.093 L30.8301517,21.8485032 C33.2073857,15.6644519 37.5074306,10.2461046 42.1969624,7.65251141 L42.5172887,7.48007688 C48.4216819,4.38874011 53.5287016,6.35881276 55.8928159,12.5804417 Z M69.4412537,25.3818533 C70.0094179,26.6912998 69.4084899,28.2134041 68.0990434,28.7815683 C63.0683372,30.9643741 59.1185901,34.7531368 54.9937172,40.8477717 C57.8414012,41.2154065 60.7995113,42.1218592 63.1107558,43.3630596 C64.3682895,44.038389 64.8402594,45.6052841 64.16493,46.8628178 C63.5166138,48.0700501 62.0466306,48.5533068 60.8174839,47.9925476 L60.6651718,47.9169919 C58.0997099,46.53927 54.2572583,45.6721547 51.5483403,45.8546185 C45.3760264,54.4042419 39.077261,60.6941203 31.1967759,65.8645808 C30.003327,66.6476138 28.4010719,66.314906 27.6180389,65.1214572 C26.8350059,63.9280084 27.1677137,62.3257533 28.3611625,61.5427203 C31.2561173,59.6433132 33.9247794,57.577715 36.4542243,55.2742208 C37.4974254,51.7267543 36.4517039,46.8502702 34.4470988,44.6111303 L34.2870502,44.4400928 C33.2883605,43.4202499 33.3055086,41.7839058 34.3253516,40.7852161 C35.3451945,39.7865264 36.9815386,39.8036745 37.9802283,40.8235175 C40.0289274,42.9156101 41.4224253,46.2437396 41.8745018,49.7414596 C44.5729959,46.6757631 47.1748597,43.2318264 49.8082062,39.3052667 L50.2625282,38.6235311 C55.0434131,31.4004252 59.7648267,26.7630863 66.0415387,24.039643 C67.3509852,23.4714788 68.8730895,24.0724068 69.4412537,25.3818533 Z" fill="#00B077"></path>
    </g>
</svg>