<?xml version="1.0" encoding="UTF-8"?>
<svg width="100px" height="100px" viewBox="0 0 100 100" version="1.1" xmlns="http://www.w3.org/2000/svg" xmlns:xlink="http://www.w3.org/1999/xlink">
    <!-- Generator: Sketch 63.1 (92452) - https://sketch.com -->
    <title>Leaf</title>
    <desc>Created with Sketch.</desc>
    <g id="Leaf" stroke="none" stroke-width="1" fill="none" fill-rule="evenodd">
        <path d="M22.9007256,1.85538243 C24.6185336,5.70162978 26.2979642,8.23288547 27.8381853,9.3219525 C29.0817498,10.2012581 30.1494168,10.0851923 31.8719469,8.52574529 C33.5663817,6.99173354 36.2728968,8.23900445 36.2074986,10.5237417 C35.9789464,18.5083914 38.4540095,25.596149 42.5497082,26.4652793 C45.148764,27.0168657 49.1775141,20.7204468 53.822731,8.87902195 C54.6153488,6.85850844 57.3905116,6.64587326 58.4816968,8.52204829 C62.9388644,16.185667 68.7255054,15.3730358 72.8335848,8.04405241 C73.7611243,6.38928376 76.092775,6.2564953 77.2021874,7.79525872 L77.7722157,8.58459928 C79.0245955,10.2917591 79.8126565,10.9164327 80.8972325,10.9967298 C82.7448668,11.1335203 85.6930566,9.76867829 89.9722342,6.24978434 C92.3963906,4.25632906 95.617992,7.47683995 93.6253576,9.9016711 C90.1069624,14.1831961 88.74275,17.1326296 88.8802224,18.9808526 C88.9572655,20.0166442 89.5304336,20.7819344 91.0683189,21.9389241 L92.0822879,22.675498 C93.6216836,23.7848136 93.4889321,26.1171917 91.8336083,27.044674 C84.5053143,31.1507363 83.6920976,36.9392937 91.3544253,41.3964401 C93.2304486,42.4877156 93.0177257,45.2627266 90.997292,46.055313 L90.0363058,46.4357952 C78.8131783,50.9212584 72.8745079,54.7994481 73.4110173,57.328254 C74.2802567,61.4234295 81.3738321,63.9010736 89.3536216,63.670565 C91.6390822,63.6045459 92.8867919,66.3122675 91.3517173,68.0067392 C89.792054,69.7283527 89.6759685,70.7951558 90.5552973,72.0388776 C91.6443802,73.5792755 94.1753668,75.2594518 98.0220064,76.9795287 C100.588191,78.1270328 99.7528213,81.965976 96.9418503,81.9433892 C89.3687211,81.8825376 87.102653,83.7321848 88.6760673,87.1715006 C89.715091,89.4426953 87.2710059,91.694156 85.1156052,90.5521542 L84.9813026,90.47633 C81.7443078,88.5344063 78.0970024,88.163343 75.5500038,89.2619534 C73.3826285,90.1968188 72.4589743,91.967812 73.0985323,94.5106802 L73.1653156,94.7591717 C73.8348738,97.1026251 71.1967403,98.992985 69.1929454,97.6055816 C64.9976622,94.7008183 60.4483118,92.7631125 56.8640222,92.4756233 C53.1706613,92.1793857 50.8889413,93.5453674 49.7931814,97.0983764 C49.2372374,98.9010285 47.0207354,99.5108783 45.6223172,98.3022817 L45.4936878,98.1836292 C45.8989969,98.5823059 39.8021365,93.1610901 37.5578675,90.7541382 C34.4959316,87.4702481 32.0889614,84.0467022 30.4127394,80.2673666 C29.8316787,78.9572634 30.4226843,77.4241722 31.7327874,76.8431114 C33.0428906,76.2620507 34.5759818,76.8530563 35.1570426,78.1631594 C36.5756542,81.3616675 38.6582568,84.3238503 41.3537899,87.2147775 C42.1777048,88.0984165 43.6418663,89.4904422 45.0799147,90.8213979 L46.443,92.073 L46.587511,91.8585625 C48.8770523,88.5306371 52.5146278,87.0076154 56.9528043,87.2791656 L57.2789698,87.3022377 C60.5592709,87.5653445 64.212124,88.7919582 67.8023776,90.6907309 L67.929,90.758 L67.9624982,90.616851 C69.3609632,85.0427032 75.8959303,82.2800575 82.674367,83.9565499 L82.957,84.029 L82.978757,83.8793981 C83.4202555,81.0958353 85.5525282,79.0369697 88.9558093,77.8663809 L89.07,77.828 L88.9407903,77.7274308 C87.9582024,76.9493196 87.1461462,76.1416373 86.5047828,75.2914182 L86.3174947,75.0350634 C84.9533084,73.1055596 84.5199041,71.0328791 85.0106423,68.9573643 L85.061,68.756 L84.7396298,68.730582 C76.6202713,68.0327004 69.8872555,64.8202638 68.400872,58.699303 L68.334073,58.4056287 C67.4949061,54.4502643 70.0894467,51.0746758 75.0578432,47.8959443 C77.5589677,46.2957493 80.5858546,44.7760638 84.3945767,43.1457389 L84.794,42.975 L84.6695355,42.8577881 C78.8009449,37.1938207 79.7469884,29.9808703 85.8932302,24.8429624 L86.22,24.576 L86.172714,24.5273807 C83.8703317,22.1490648 83.0518438,19.4310656 84.0332014,15.9881713 L84.093,15.782 L83.8907189,15.8428033 C80.5562999,16.7944029 77.9014905,16.0569998 75.5765394,13.9178905 L75.302,13.657 L75.2471082,13.7260874 C70.0959057,20.1037307 62.7620757,21.1582507 57.019956,15.207191 L56.902,15.082 L56.7325908,15.480814 C55.1798729,19.1079341 53.7269518,22.0270215 52.2095139,24.4576084 L51.9813938,24.8185601 C48.802395,29.7869269 45.4269744,32.3815001 41.4723025,31.5422171 C35.2615792,30.2242666 31.9653093,23.6086443 31.1846217,15.5387012 L31.121,14.815 L30.9192851,14.8668298 C28.9266301,15.3376083 26.9368137,14.9569245 25.0739828,13.7188401 L24.8417992,13.5596135 C23.8969175,12.8915019 23.0051865,12.0167318 22.149414,10.9356019 L22.05,10.808 L22.0123371,10.9222168 C20.8414809,14.3257202 18.7826358,16.4577362 15.9986758,16.8992114 L15.846,16.92 L15.9197123,17.2041541 C17.596113,23.9826191 14.8339398,30.5163886 9.26044614,31.9141844 L9.119,31.947 L9.18730579,32.0740392 C10.9997621,35.5012563 12.1997561,38.9856556 12.5337988,42.1485197 L12.575601,42.5981292 C12.9432273,47.1845653 11.4276619,50.944589 8.01790922,53.2895229 L7.916,53.357 L8.77359428,54.2339181 C10.4821621,55.9584157 12.1205806,57.5098127 13.816366,58.9741228 C19.3383386,63.7423443 24.5580381,66.774248 29.2272203,67.4614054 L29.35702,67.4787255 C31.2813051,65.7368361 33.2586935,63.9192219 35.2569916,62.057947 C32.2210907,58.8366312 29.7418702,55.0830516 27.7670244,50.9031889 L27.4714242,50.2661141 C25.161967,45.1974185 23.6885565,39.7960348 22.8760952,34.3893205 C22.6249595,32.7180797 22.4528147,31.1428503 22.3459929,29.6910093 L22.3041716,29.076426 C22.2471003,28.1626168 22.2244949,27.4512827 22.2216769,26.9723934 L22.2216769,26.8046712 C22.2318426,25.3715283 23.4018755,24.2179775 24.8350184,24.2280108 C26.2130404,24.2379181 27.3325638,25.3200552 27.4076051,26.6773408 L27.4203809,27.4119344 C27.4305979,27.7643577 27.4504466,28.2144025 27.4840792,28.7529184 C27.5761005,30.2263358 27.7446264,31.86226 28.0084722,33.6180836 C28.7539065,38.5787513 30.102966,43.5242758 32.1942921,48.1142269 C33.9903358,52.0561051 36.2577109,55.5528544 39.039555,58.5061101 C53.6890035,44.6463703 68.3734831,29.5405983 70.6677386,25.5646408 L70.774863,25.3698061 C71.4355982,24.0980235 73.0022134,23.6026718 74.2739959,24.263407 C75.5457785,24.9241422 76.0411302,26.4907574 75.380395,27.7625399 C73.2085754,31.9428563 57.9522356,47.7473913 42.7170121,62.1793706 C45.6557944,64.9317207 49.1295715,67.1780708 53.0418905,68.9603021 C57.6320639,71.0513255 62.5778449,72.400227 67.538666,73.145627 C69.0748973,73.3764571 70.5192745,73.5343263 71.8432434,73.6318377 L72.4032034,73.6699697 C73.3002653,73.7260098 73.9514533,73.7437777 74.3143889,73.7424949 C75.7459503,73.7324519 76.9158945,74.8860926 76.9260797,76.3192363 C76.935619,77.697259 75.8693851,78.8319391 74.5132934,78.9261231 L74.3492213,78.9323797 L73.8290353,78.9273432 C73.3778419,78.9177885 72.7899986,78.8942504 72.0796117,78.8498721 C70.4616333,78.748796 68.677298,78.5649759 66.7674872,78.2780127 C61.3607234,77.4656066 55.9591862,75.9924031 50.8903475,73.6833268 C46.3801413,71.6287319 42.3502756,69.0019073 38.9280551,65.739845 C36.6958406,67.821036 34.4871794,69.8490615 32.3446742,71.782089 C32.1617821,72.0135651 31.9402607,72.2134444 31.690443,72.3716076 C25.3317449,78.0865406 19.60274,82.9152744 15.6220744,85.7479862 C14.454377,86.5789402 12.8341498,86.3059558 12.0031958,85.1382584 C11.1722418,83.970561 11.4452262,82.3503338 12.6129236,81.5193798 C15.6858137,79.3326571 19.8932872,75.8585057 24.6526867,71.6772383 C20.0132308,70.1431416 15.2859448,67.1002539 10.4243865,62.9022999 C8.87456207,61.5640271 7.37999765,60.1673057 5.85320705,58.6536044 L4.74884208,57.543381 C3.6685951,56.4401294 1.78545869,54.4768936 1.69316674,54.383116 C0.328227854,52.9962049 0.918828926,50.6560792 2.77843554,50.0829791 C6.33199628,48.9878303 7.69824752,46.7063181 7.40219353,43.0128043 C7.11487921,39.4283251 5.17716152,34.8785591 2.27246236,30.6833686 C0.915180605,28.7230776 2.69487708,26.1557356 4.96684389,26.6720102 L5.11900861,26.7110373 C7.79459026,27.4756473 9.64992711,26.5641472 10.6145942,24.3277838 C11.7129837,21.781415 11.3418849,18.1343813 9.39985975,14.8965343 C8.11541472,12.7550395 10.2936492,10.2464514 12.5623915,11.1413346 L12.7042752,11.2017305 C16.1467147,12.7756247 17.9957974,10.5103074 17.9363808,2.93396337 C17.9143331,0.12261349 21.7542332,-0.711664383 22.9007256,1.85538243 Z" fill="#00B077"></path>
    </g>
</svg>