<?xml version="1.0" encoding="UTF-8"?>
<svg width="100px" height="100px" viewBox="0 0 100 100" version="1.1" xmlns="http://www.w3.org/2000/svg" xmlns:xlink="http://www.w3.org/1999/xlink">
    <!-- Generator: Sketch 63.1 (92452) - https://sketch.com -->
    <title>LeftArrow</title>
    <desc>Created with Sketch.</desc>
    <g id="LeftArrow" stroke="none" stroke-width="1" fill="none" fill-rule="evenodd">
        <path d="M57.2680151,1.17573207 C58.2317254,2.1395138 58.2735705,3.67602184 57.3935909,4.68954054 L57.2678799,4.82440306 L15.228,46.86 L91.85756,46.86 C93.2824547,46.86 94.43756,48.0151053 94.43756,49.44 C94.43756,50.810091 93.3696002,51.9307466 92.0207233,52.0149242 L91.85756,52.02 L15.228,52.02 L57.2645075,94.0556645 C58.2282535,95.0194105 58.2701555,96.555917 57.3902135,97.5694683 L57.2645075,97.7043355 C56.3007615,98.6680815 54.764255,98.7099835 53.7507037,97.8300415 L53.6158365,97.7043355 L7.1758365,51.2643355 L7.0711332,51.1534807 C7.06709399,51.148937 7.06307059,51.144379 7.05906308,51.1398067 L7.1758365,51.2643355 C7.11929029,51.2077893 7.06591758,51.1492713 7.0157184,51.0890029 C6.99718922,51.0667844 6.97884971,51.0439719 6.96089492,51.0208459 C6.94135507,50.9957313 6.92245341,50.9704596 6.90407524,50.9449276 C6.88904819,50.92393 6.87443379,50.9029599 6.86012595,50.8817658 C6.84338177,50.8571213 6.82691086,50.8317832 6.81093013,50.8062261 C6.79886826,50.7867883 6.78698636,50.7672168 6.7753597,50.7474769 C6.75887049,50.7195869 6.74319045,50.6917547 6.72806751,50.6637016 C6.5992371,50.4250526 6.50679669,50.1633539 6.45849366,49.8864892 C6.45553558,49.8673925 6.45233227,49.8477559 6.44935652,49.8280915 C6.44360902,49.7923548 6.43898792,49.7566811 6.43510303,49.7207865 C6.43335759,49.7020001 6.43149407,49.6829341 6.42984218,49.6638531 C6.42681758,49.6317259 6.42465646,49.5996151 6.4230881,49.5673487 C6.42175829,49.5360098 6.42078792,49.5046611 6.42038565,49.4733064 C6.42007004,49.4621741 6.42,49.4510952 6.42,49.44 L6.42038688,49.4065981 C6.4207807,49.375991 6.42171584,49.3453897 6.42319229,49.3148096 L6.42,49.44 C6.42,49.359326 6.42370274,49.2795168 6.43094755,49.2007331 C6.43222359,49.1898708 6.43341383,49.1778697 6.43468795,49.1658758 C6.43874254,49.124839 6.44388552,49.0851979 6.44991745,49.0458497 C6.45356753,49.0244169 6.45729952,49.0020462 6.46132712,48.9797184 C6.46779017,48.94173 6.47532323,48.9046917 6.48364031,48.8679509 C6.48726503,48.8537128 6.49072381,48.8390188 6.4943129,48.8243501 C6.50323496,48.7862904 6.51330597,48.7488909 6.52418618,48.7118375 C6.53016773,48.6926772 6.53607602,48.6733613 6.54221598,48.6541034 C6.57032957,48.5650649 6.60342712,48.4782504 6.64092391,48.3938227 C6.68640292,48.2914211 6.73899846,48.1909721 6.79864386,48.093623 C6.83687843,48.0313894 6.87762975,47.9708397 6.92080365,47.9121832 C6.94185367,47.8835199 6.96376984,47.8550231 6.98636211,47.8268899 C7.00177499,47.8076764 7.0171247,47.7890856 7.0327271,47.7707161 C7.0383173,47.7642101 7.0442325,47.7573246 7.05018995,47.750463 L7.07923877,47.7174444 C7.10233255,47.6917105 7.12593597,47.6664434 7.15003315,47.6416588 L7.17590407,47.6155969 L53.6193441,1.17559694 C54.6269341,0.168081584 56.2604997,0.168142084 57.2680151,1.17573207 Z" id="Left-Arrow" fill="#00B077"></path>
    </g>
</svg>