<?xml version="1.0" encoding="UTF-8"?>
<svg width="100px" height="100px" viewBox="0 0 100 100" version="1.1" xmlns="http://www.w3.org/2000/svg" xmlns:xlink="http://www.w3.org/1999/xlink">
    <!-- Generator: Sketch 63.1 (92452) - https://sketch.com -->
    <title>LeprechaunHat</title>
    <desc>Created with Sketch.</desc>
    <g id="LeprechaunHat" stroke="none" stroke-width="1" fill="none" fill-rule="evenodd">
        <path d="M76.5992534,38.1823595 C79.5063437,40.0095177 78.5559956,44.4298115 72.2222889,50.7649679 C70.3523484,52.6353364 72.1512036,55.7770007 74.7108005,55.1111033 C83.3805124,52.8556156 87.6767068,54.2744652 87.7792293,57.7046066 C87.828063,59.3313209 87.0673985,60.421192 85.5578981,61.2641144 C84.9738828,61.5902352 84.3267442,61.8439924 83.677513,62.0265966 L83.377293,62.1063002 C83.1505218,62.1627339 82.9851913,62.1947509 82.9031295,62.2064601 C81.3066482,62.4342581 80.315871,64.040092 80.7937376,65.5529267 L80.8943418,65.8404856 C80.9402324,65.9812671 81.0033324,66.1978701 81.0693826,66.4732229 C81.3338413,67.5757096 81.4096469,68.7083092 81.2051251,69.6772993 C80.9717584,70.7829516 80.4032005,71.5847007 79.2982267,72.159936 C76.2675459,73.7322003 72.9967672,70.7058074 70.7334295,62.0127311 C70.0596684,59.4249348 66.3856483,59.4243599 65.7110773,62.0119452 C63.4451698,70.7037337 60.1713742,73.7319947 57.1420865,72.1587615 C56.0393715,71.5847007 55.4708136,70.7829516 55.2374469,69.6772993 C55.0329251,68.7083092 55.1087307,67.5757096 55.3731894,66.4732229 L55.4501209,66.172092 C55.4992478,65.9915948 55.5428362,65.8530679 55.5735853,65.7652519 L55.5941257,65.7090348 C56.1743041,64.2043629 55.2560822,62.5559666 53.7023997,62.2348808 L53.4023494,62.18239 C53.2571186,62.1537675 53.0373323,62.103187 52.7648233,62.0265376 C52.1154079,61.8438747 51.4680847,61.5900327 50.8838959,61.2637962 C49.3742608,60.4207504 48.61326,59.3306378 48.6616244,57.7042124 C48.7663118,54.2746372 53.063116,52.8555863 61.7298368,55.11105 C64.2896393,55.7772237 66.0886875,52.6351023 64.2183431,50.7647579 C57.8845584,44.4309732 56.9347463,40.0100479 59.8427633,38.1816214 C61.4470768,37.1737629 63.0531642,37.4888172 64.8015335,38.8113692 C65.1962347,39.1099404 65.5558469,39.4334158 65.8675143,39.7542113 L66.022107,39.9170561 C66.0661522,39.9646508 66.1025902,40.0052096 66.1310561,40.0376863 L66.1921725,40.1098234 C67.194328,41.3682827 69.074028,41.412719 70.1382195,40.2435994 L70.3625587,39.9820344 C70.4169897,39.921627 70.4889295,39.8442122 70.5771493,39.7533219 C70.8884099,39.4326387 71.2475927,39.1092732 71.6418592,38.810809 C73.3883648,37.4886844 74.9932412,37.1737709 76.5992534,38.1823595 Z M76.044346,11.362036 C77.4224027,11.362036 78.5495737,12.4362049 78.6342407,13.7929241 L78.639346,13.957036 L78.6395039,33.3732525 C78.8796636,33.4987709 79.1196971,33.6366347 79.3594486,33.7872005 L79.3594486,33.7872005 L79.6031529,33.9446724 C84.4792691,37.1840492 84.5281951,42.6986066 80.5356741,48.822989 L80.5356741,48.822989 L80.463,48.931 L80.8808143,48.9127154 C88.0339661,48.6561562 92.6512216,51.5018874 92.9561245,57.2877305 L92.9561245,57.2877305 L92.9669025,57.5492136 C93.0802421,61.3247052 91.1552082,64.0828714 88.0882679,65.795486 C87.533643,66.1051949 86.9633706,66.3683376 86.3867826,66.5903454 L86.3867826,66.5903454 L86.373,66.595 L86.4045688,66.8117519 C86.5577235,67.9839889 86.56071,69.1752226 86.3583709,70.3559692 L86.3583709,70.3559692 L86.2832443,70.7491225 C86.0110983,72.0385045 85.4961574,73.2156527 84.7289541,74.2358602 C88.3815446,71.8603786 91.8438693,69.0697004 95.0487494,65.8646054 C96.0621259,64.8511609 97.7051891,64.8511058 98.7186336,65.8644824 C99.7320781,66.8778589 99.7321332,68.5209221 98.7187566,69.5343666 C71.9081175,96.3468037 28.4423044,96.3495837 1.62887242,69.5379496 C0.615427911,68.5245731 0.615372824,66.8815099 1.62874938,65.8680654 C2.64212594,64.8546209 4.28518906,64.8545658 5.29863358,65.8679424 C10.2397428,70.8087203 15.7925647,74.7644676 21.713193,77.7352189 L21.713696,13.957036 C21.713696,12.5789793 22.7878649,11.4518083 24.1445841,11.3671413 L24.308696,11.362036 L76.044346,11.362036 Z M26.902753,68.544036 L44.736017,68.544245 C46.1691959,68.544245 47.331017,69.7060661 47.331017,71.139245 C47.331017,72.5173017 46.2568481,73.6444727 44.9001289,73.7291397 L44.736017,73.734245 L26.902753,73.734036 L26.9031735,80.0524695 C43.5435785,86.59928 62.390815,85.844686 78.5223636,77.7893865 C74.4988059,78.2852569 70.9271413,75.5669472 68.3047555,70.397346 L68.3047555,70.397346 L68.22,70.229 L67.9733697,70.7142786 C64.7326823,76.8810661 60.1023954,79.3956885 54.9813211,76.8814504 L54.9813211,76.8814504 L54.7477967,76.763484 C52.2070951,75.4408271 50.7014626,73.3176669 50.1593277,70.7491225 C49.8830523,69.4401758 49.8678313,68.1142374 50.0380032,66.8117519 L50.0380032,66.8117519 L50.069,66.595 L49.6240425,66.415819 C49.3375616,66.2943311 49.0532435,66.1622172 48.772255,66.0187983 L48.772255,66.0187983 L48.3534155,65.7951061 C45.286813,64.0825819 43.3616644,61.3248599 43.4739791,57.5479054 C43.5255234,55.8592921 43.9354943,54.4135042 44.6616954,53.2144012 L26.902753,53.214036 L26.902753,68.544036 Z M73.449,16.552 L26.903,16.552 L26.902753,48.024036 L55.4051134,48.0246161 C51.9809667,42.3130961 52.1686013,37.2054486 56.6217105,34.0919345 L56.8585997,33.9308578 L57.0810626,33.7874083 C60.8263693,31.4345392 64.6419462,32.1830128 67.9325905,34.6722168 L67.9325905,34.6722168 L68.0640536,34.7727605 L68.221,34.896 L68.5093218,34.6727769 C70.0596745,33.4991423 71.7269982,32.7124076 73.4489357,32.455074 L73.449,16.552 Z" fill="#00B077"></path>
    </g>
</svg>