<?xml version="1.0" encoding="UTF-8"?>
<svg width="100px" height="100px" viewBox="0 0 100 100" version="1.1" xmlns="http://www.w3.org/2000/svg" xmlns:xlink="http://www.w3.org/1999/xlink">
    <!-- Generator: Sketch 63.1 (92452) - https://sketch.com -->
    <title>LightBulb</title>
    <desc>Created with Sketch.</desc>
    <g id="LightBulb" stroke="none" stroke-width="1" fill="none" fill-rule="evenodd">
        <path d="M58.050364,93.88 C59.4752587,93.88 60.630364,95.0351053 60.630364,96.46 C60.630364,97.830091 59.5624042,98.9507466 58.2135273,99.0349242 L58.050364,99.04 L43.292764,99.04 C41.8678693,99.04 40.712764,97.8848947 40.712764,96.46 C40.712764,95.089909 41.7807238,93.9692534 43.1296007,93.8850758 L43.292764,93.88 L58.050364,93.88 Z M68.091036,84.085632 C69.5159307,84.085632 70.671036,85.2407373 70.671036,86.665632 C70.671036,88.035723 69.6030762,89.1563786 68.2541993,89.2405562 L68.091036,89.245632 L33.252436,89.245632 C31.8275413,89.245632 30.672436,88.0905267 30.672436,86.665632 C30.672436,85.295541 31.7403958,84.1748854 33.0892727,84.0907078 L33.252436,84.085632 L68.091036,84.085632 Z M68.091036,74.225904 C69.5159307,74.225904 70.671036,75.3810093 70.671036,76.805904 C70.671036,78.175995 69.6030762,79.2966506 68.2541993,79.3808282 L68.091036,79.385904 L33.252436,79.385904 C31.8275413,79.385904 30.672436,78.2307987 30.672436,76.805904 C30.672436,75.435813 31.7403958,74.3151574 33.0892727,74.2309798 L33.252436,74.225904 L68.091036,74.225904 Z M68.091036,64.367896 C69.5159307,64.367896 70.671036,65.5230013 70.671036,66.947896 C70.671036,68.317987 69.6030762,69.4386426 68.2541993,69.5228202 L68.091036,69.527896 L33.252436,69.527896 C31.8275413,69.527896 30.672436,68.3727907 30.672436,66.947896 C30.672436,65.577805 31.7403958,64.4571494 33.0892727,64.3729718 L33.252436,64.367896 L68.091036,64.367896 Z M50.67036,1 C68.2348627,1 82.34416,12.6131358 82.34416,26.88944 C82.34416,32.7249051 80.4007094,37.9442958 76.2365176,45.5334922 L74.1541847,49.3432264 C71.0046934,55.1499601 70.76512,55.9471627 70.76512,57.83052 C70.76512,59.2554147 69.6100147,60.41052 68.18512,60.41052 C66.7602253,60.41052 65.60512,59.2554147 65.60512,57.83052 C65.60512,55.6871721 66.3067929,53.4106362 67.6665619,50.565665 L67.9556555,49.9717956 C68.3540681,49.1675328 68.8086768,48.3044418 69.3720216,47.2735514 L71.7127624,43.0513078 L72.2770197,42.0111525 C75.6562231,35.7055364 77.18416,31.3721781 77.18416,26.88944 C77.18416,15.708945 65.5827367,6.16 50.67036,6.16 C35.7620271,6.16 24.16,15.7098372 24.16,26.88944 C24.16,31.6144119 25.8578244,36.1734642 29.6321798,43.0511661 L31.7567822,46.8787473 L32.3762706,48.0168194 C32.888608,48.9706223 33.3053302,49.7838688 33.6789851,50.5655305 C35.0389718,53.4105347 35.74076,55.6871064 35.74076,57.83052 C35.74076,59.2554147 34.5856547,60.41052 33.16076,60.41052 C31.7358653,60.41052 30.58076,59.2554147 30.58076,57.83052 L30.5766236,57.4605563 C30.5341331,55.7862178 30.1126499,54.7180021 27.0285162,49.0437314 L25.1085802,45.5336339 C20.9437506,37.9444027 19,32.7249814 19,26.88944 C19,12.6140841 33.1098655,1 50.67036,1 Z M62.3292484,23.6543682 C65.3813575,27.0461597 65.7774097,32.9112823 64.4720874,40.752096 C64.0022709,43.5741911 63.317254,46.5564458 62.4734627,49.6106344 C61.892975,51.7117693 61.2715801,53.7241116 60.6496894,55.5800274 L60.2744119,56.6799484 L59.8654446,57.8285555 C59.8426606,57.8906332 59.8236291,57.9419536 59.8085373,57.9821985 C59.3082234,59.3163689 57.82108,59.9923432 56.4869095,59.4920293 C55.1527391,58.9917154 54.4767648,57.504572 54.9770787,56.1704015 L55.1857454,55.5955944 L55.4013694,54.9831691 C55.4762739,54.7677277 55.5540999,54.5411743 55.634522,54.3040723 L55.7570617,53.9405781 C56.3510224,52.1680143 56.9454789,50.2429096 57.4997857,48.2365395 C58.298812,45.3443822 58.9446183,42.5328328 59.382139,39.904732 C60.4412881,33.5426325 60.1293934,28.9237957 58.4935461,27.1058879 C56.7688089,25.1891492 55.4010099,25.0729374 53.9479447,25.8723414 L53.8678329,25.9188773 C54.5528769,27.157243 55.1019811,28.5436521 55.3405558,29.7930787 C55.998208,33.2372339 54.3141182,36.06822 50.467572,36.06822 C46.9513016,36.06822 45.2377455,33.3945171 45.6104372,30.1134997 C45.767734,28.728726 46.2847873,27.2292333 47.0222246,25.89608 C47.0094323,25.8878766 46.9953197,25.8800043 46.9810848,25.8721704 C45.5289098,25.072996 44.1618455,25.1891687 42.4368686,27.1061738 C40.8006194,28.9240286 40.48855,33.5426872 41.5477953,39.9046882 C41.9853748,42.5328627 42.6313014,45.3445002 43.4304916,48.2367455 C43.9056761,49.9564239 44.4103624,51.6163947 44.9189509,53.1717759 L45.1734519,53.9405429 C45.2978742,54.3117905 45.4168202,54.6599382 45.5291921,54.9830848 L45.9061167,56.0421347 L45.9535381,56.1702543 C46.4539333,57.5043942 45.7780497,58.9915788 44.4439097,59.4919741 C43.1097698,59.9923693 41.6225852,59.3164857 41.1221899,57.9823457 L40.8850083,57.3297201 L40.6562457,56.6801403 C40.5373302,56.3382045 40.4118559,55.9709609 40.2809136,55.580259 C39.6589328,53.7244104 39.0374481,51.7121356 38.4568762,49.6110635 C37.612902,46.5567465 36.9277489,43.5743605 36.4578615,40.7521398 C35.1523839,32.9112276 35.5486855,27.0459267 38.6014021,23.6543921 C42.0600093,19.8107652 46.052689,19.4714686 49.4689282,21.351525 C49.8528567,21.5628121 50.1855601,21.7777764 50.4655805,21.9820521 C50.7433759,21.7779179 51.0763905,21.5627945 51.4607229,21.3513539 C54.8776573,19.4715272 58.8706802,19.8107847 62.3292484,23.6543682 Z" id="Lightbulb" fill="#00B077"></path>
    </g>
</svg>