<?xml version="1.0" encoding="UTF-8"?>
<svg width="100px" height="100px" viewBox="0 0 100 100" version="1.1" xmlns="http://www.w3.org/2000/svg" xmlns:xlink="http://www.w3.org/1999/xlink">
    <!-- Generator: Sketch 63.1 (92452) - https://sketch.com -->
    <title>Lock</title>
    <desc>Created with Sketch.</desc>
    <g id="Lock" stroke="none" stroke-width="1" fill="none" fill-rule="evenodd">
        <path d="M50.032624,2 C67.5747521,2 81.905944,16.5975299 81.905944,34.41856 C81.905944,35.8434547 80.7508387,36.99856 79.325944,36.99856 C77.9010493,36.99856 76.745944,35.8434547 76.745944,34.41856 C76.745944,19.4262684 64.7034788,7.16 50.032624,7.16 C35.5081076,7.16 23.558723,19.18254 23.3211877,33.9696297 L23.317584,34.41856 L23.316744,41.66398 L83.717104,41.66492 C84.3992468,41.66492 85.019558,41.9296521 85.4809028,42.3619813 C85.7142031,42.5807705 85.9070401,42.8426541 86.0465089,43.1348965 C86.1851595,43.4248756 86.2709838,43.7445375 86.2920282,44.0817567 L86.297104,44.24492 L86.296,44.272 L86.29676,63.897468 C86.29676,83.7799764 70.0311616,100.039828 50.1458,100.039828 C30.4612755,100.039828 14.3256109,84.1038249 14.0048661,64.4928521 L14,63.897468 L14,44.244748 C14,42.874657 15.0679598,41.7540014 16.4168367,41.6698238 L16.58,41.664748 L18.157,41.664 L18.157584,34.41856 C18.157584,16.5978162 32.4902175,2 50.032624,2 Z M19.159744,46.82398 L19.16,63.897468 C19.16,80.759938 32.8343818,94.6005284 49.6357222,94.875654 L50.1458,94.879828 C67.0114206,94.879828 80.8573523,81.2073848 81.1325844,64.4075018 L81.13676,63.897468 L81.136,46.824 L20.722,46.824 L19.159744,46.82398 Z M50.146488,68.66806 C51.516579,68.66806 52.6372346,69.7360198 52.7214122,71.0848967 L52.726488,71.24806 L52.726488,78.8195 C52.726488,80.2443947 51.5713827,81.3995 50.146488,81.3995 C48.776397,81.3995 47.6557414,80.3315402 47.5715638,78.9826633 L47.566488,78.8195 L47.566488,71.24806 C47.566488,69.8231653 48.7215933,68.66806 50.146488,68.66806 Z" fill="#00B077"></path>
    </g>
</svg>