<?xml version="1.0" encoding="UTF-8"?>
<svg width="100px" height="100px" viewBox="0 0 100 100" version="1.1" xmlns="http://www.w3.org/2000/svg" xmlns:xlink="http://www.w3.org/1999/xlink">
    <!-- Generator: Sketch 63.1 (92452) - https://sketch.com -->
    <title>Luggage</title>
    <desc>Created with Sketch.</desc>
    <g id="Luggage" stroke="none" stroke-width="1" fill="none" fill-rule="evenodd">
        <path d="M57.6659,0.72874 C64.1293581,0.72874 69.40318,6.00392848 69.40318,12.46602 C69.40318,13.8909147 68.2480747,15.04602 66.82318,15.04602 C65.453089,15.04602 64.3324334,13.9780602 64.2482558,12.6291833 L64.24318,12.46602 C64.24318,8.93028241 61.4040516,6.01518984 57.8956363,5.89274396 L57.6659,5.88874 L42.3235,5.88874 C38.7880404,5.88874 35.8726817,8.72924411 35.7502243,12.2363715 L35.74622,12.46602 C35.74622,13.8909147 34.5911147,15.04602 33.16622,15.04602 C31.7413253,15.04602 30.58622,13.8909147 30.58622,12.46602 C30.58622,6.10385581 35.7001837,0.891350124 42.0260999,0.732471172 L42.3235,0.72874 L57.6659,0.72874 Z M91.081716,91.841268 C91.081716,94.213148 89.157036,96.137828 86.785156,96.137828 C84.413276,96.137828 82.481716,94.213148 82.481716,91.841268 C82.481716,89.465948 84.413276,87.537828 86.785156,87.537828 C89.157036,87.537828 91.081716,89.465948 91.081716,91.841268 M17.508028,91.841268 C17.508028,94.213148 15.586788,96.137828 13.208028,96.137828 C10.836148,96.137828 8.908028,94.213148 8.908028,91.841268 C8.908028,89.465948 10.836148,87.537828 13.208028,87.537828 C15.586788,87.537828 17.508028,89.465948 17.508028,91.841268 M31.1908,60.3405 C32.6156947,60.3405 33.7708,61.4956053 33.7708,62.9205 C33.7708,64.290591 32.7028402,65.4112466 31.3539633,65.4954242 L31.1908,65.5005 L19.35548,65.5005 C17.9305853,65.5005 16.77548,64.3453947 16.77548,62.9205 C16.77548,61.550409 17.8434398,60.4297534 19.1923167,60.3455758 L19.35548,60.3405 L31.1908,60.3405 Z M80.637532,60.3405 C82.0624267,60.3405 83.217532,61.4956053 83.217532,62.9205 C83.217532,64.290591 82.1495722,65.4112466 80.8006953,65.4954242 L80.637532,65.5005 L68.798772,65.5005 C67.3738773,65.5005 66.218772,64.3453947 66.218772,62.9205 C66.218772,61.550409 67.2867318,60.4297534 68.6356087,60.3455758 L68.798772,60.3405 L80.637532,60.3405 Z M85.540392,18.056536 C92.5348376,18.056536 98.247752,23.7681122 98.247752,30.762176 L98.247752,30.762176 L98.247752,72.264056 C98.247752,79.2595052 92.5351722,84.971416 85.540392,84.971416 L85.540392,84.971416 L14.449352,84.971416 C7.45457184,84.971416 1.741992,79.2595052 1.741992,72.264056 L1.741992,72.264056 L1.741992,30.762176 C1.741992,23.7681122 7.45490641,18.056536 14.449352,18.056536 L14.449352,18.056536 Z M72.436992,23.21574 L27.551992,23.21574 L27.552656,53.26614 C27.552656,54.6910347 26.3975507,55.84614 24.972656,55.84614 C23.602565,55.84614 22.4819094,54.7781802 22.3977318,53.4293033 L22.392656,53.26614 L22.391992,23.21574 L14.449352,23.216536 C10.3856982,23.216536 7.03570622,26.4860825 6.90589632,30.5192874 L6.901992,30.762176 L6.901992,72.264056 C6.901992,76.4095806 10.3042259,79.811416 14.449352,79.811416 L14.449352,79.811416 L85.540392,79.811416 C89.6855181,79.811416 93.087752,76.4095806 93.087752,72.264056 L93.087752,72.264056 L93.087752,30.762176 C93.087752,26.6181721 89.6853189,23.216536 85.540392,23.216536 L85.540392,23.216536 L77.596992,23.21574 L77.59726,53.26614 C77.59726,54.6910347 76.4421547,55.84614 75.01726,55.84614 C73.647169,55.84614 72.5265134,54.7781802 72.4423358,53.4293033 L72.43726,53.26614 L72.436992,23.21574 Z" fill="#00B077"></path>
    </g>
</svg>