<?xml version="1.0" encoding="UTF-8"?>
<svg width="100px" height="100px" viewBox="0 0 100 100" version="1.1" xmlns="http://www.w3.org/2000/svg" xmlns:xlink="http://www.w3.org/1999/xlink">
    <!-- Generator: Sketch 63.1 (92452) - https://sketch.com -->
    <title>MP4</title>
    <desc>Created with Sketch.</desc>
    <g id="MP4" stroke="none" stroke-width="1" fill="none" fill-rule="evenodd">
        <path d="M39.804,10.268 L17.189,33.083 L39.804,33.083 L39.804,10.268 Z M55.31494,56.82292 C59.7961085,56.82292 62.8200005,60.0099008 62.7858804,63.9933382 C62.7527232,67.8643485 59.8403089,70.992202 55.5775966,71.1157678 L55.31494,71.11956 L51.732,71.119 L51.73218,74.88292 C51.73218,76.253011 50.6642202,77.3736666 49.3153433,77.4578442 L49.15218,77.46292 C47.782089,77.46292 46.6614334,76.3949602 46.5772558,75.0460833 L46.57218,74.88292 L46.57218,59.40292 C46.57218,58.032829 47.6401398,56.9121734 48.9890167,56.8279958 L49.15218,56.82292 L55.31494,56.82292 Z M51.732,65.959 L55.31494,65.95956 C56.8223594,65.95956 57.6159708,65.1281501 57.6260696,63.9491418 C57.6356239,62.8337031 56.9414779,62.0531843 55.5141263,61.9874217 L55.31494,61.98292 L51.732,61.982 L51.732,65.959 Z M35.084718,58.4054335 C36.040356,56.1258835 39.3100046,56.3812196 39.9476741,58.7018111 L39.988679,58.8710737 L43.249799,74.3510737 C43.5435296,75.7453646 42.6513492,77.1137764 41.2570583,77.407507 C39.9185391,77.6894884 38.60387,76.8785342 38.240964,75.5796273 L38.200625,75.4147663 L36.644,68.029 L33.353906,75.8804065 C32.4939549,77.9317078 29.6444271,77.9888219 28.6737607,76.051566 L28.5952522,75.8806313 L25.303,68.029 L23.7484956,75.4144977 C23.4666566,76.753047 22.1943422,77.6289566 20.859401,77.4371448 L20.6922743,77.4075636 C19.353725,77.1257246 18.4778154,75.8534102 18.6696272,74.518469 L18.6992084,74.3513423 L21.9586084,58.8713423 C22.4678876,56.4526022 25.7271518,56.0876748 26.7903878,58.2466942 L26.8625318,58.4052087 L30.974,68.211 L35.084718,58.4054335 Z M82.8702,1.42 C84.240291,1.42 85.3609466,2.48795982 85.4451242,3.83683674 L85.4502,4 L85.4498334,46.768 L88.029168,46.768316 C89.399259,46.768316 90.5199146,47.8362758 90.6040922,49.1851527 L90.609168,49.348316 L90.609168,84.933396 C90.609168,86.303487 89.5412082,87.4241426 88.1923313,87.5083202 L88.029168,87.513396 L13.5808334,87.513 L13.581,94.3 L80.289,94.3 L80.289512,93.29896 C80.289512,91.928869 81.3574718,90.8082134 82.7063487,90.7240358 L82.869512,90.71896 C84.239603,90.71896 85.3602586,91.7869198 85.4444362,93.1357967 L85.449512,93.29896 L85.449512,96.88 C85.449512,98.250091 84.3815522,99.3707466 83.0326753,99.4549242 L82.869512,99.46 L11.001032,99.46 C9.63094099,99.46 8.51028535,98.3920402 8.42610784,97.0431633 L8.421032,96.88 L8.42089769,84.9666322 C8.42075804,84.9555701 8.420688,84.9444912 8.420688,84.933396 L8.42083337,84.905 L8.42083337,49.381 L8.420688,49.348316 L8.42083337,49.32 L8.421032,44.68316 C8.421032,43.2582653 9.57613735,42.10316 11.001032,42.10316 C12.371123,42.10316 13.4917786,43.1711198 13.5759562,44.5199967 L13.581032,44.68316 L13.5808334,46.768 L80.2898334,46.768 L80.29,6.58 L44.964,6.58 L44.96484,35.66348 C44.96484,37.033571 43.8968802,38.1542266 42.5480033,38.2384042 L42.38484,38.24348 L11,38.24348 C8.76028556,38.24348 7.60764784,35.6030321 9.0594685,33.9626454 L9.16761981,33.8472248 L40.556,2.179 L40.6867701,2.05744402 L40.8276138,1.94254226 L40.9108305,1.88224998 L41.0388424,1.79850251 L41.1264315,1.74694684 L41.3099079,1.65390699 L41.465,1.588 L41.599014,1.54185884 L41.7753011,1.49266471 L41.9037429,1.46477585 L42.1154743,1.43402168 L42.2873345,1.42183422 L82.8702,1.42 Z M85.449,51.928 L13.5808334,51.928 L13.5808334,82.353 L85.449,82.353 L85.449,51.928 Z M77.806004,56.82292 C79.176095,56.82292 80.2967506,57.8908798 80.3809282,59.2397567 L80.386004,59.40292 L80.386004,74.88292 C80.386004,76.3078147 79.2308987,77.46292 77.806004,77.46292 C76.435913,77.46292 75.3152574,76.3949602 75.2310798,75.0460833 L75.226004,74.88292 L75.2258334,71.652 L67.513524,71.65276 C65.7891093,71.65276 64.5665581,70.0010395 65.0303862,68.3717242 L65.080577,68.2141746 L68.493057,58.5443346 C68.9672406,57.2006551 70.4409098,56.4957894 71.7845894,56.969973 C73.0745217,57.4251892 73.7757233,58.8015315 73.4102282,60.0997121 L73.358951,60.2615054 L71.159,66.492 L75.2258334,66.492 L75.226004,59.40292 C75.226004,57.9780253 76.3811093,56.82292 77.806004,56.82292 Z" id="Mp4" fill="#00B077"></path>
    </g>
</svg>