<?xml version="1.0" encoding="UTF-8"?>
<svg width="100px" height="100px" viewBox="0 0 100 100" version="1.1" xmlns="http://www.w3.org/2000/svg" xmlns:xlink="http://www.w3.org/1999/xlink">
    <!-- Generator: Sketch 63.1 (92452) - https://sketch.com -->
    <title>Martini</title>
    <desc>Created with Sketch.</desc>
    <g id="Martini" stroke="none" stroke-width="1" fill="none" fill-rule="evenodd">
        <path d="M67.178065,93.45855 C68.6054615,93.45855 69.762595,94.6156835 69.762595,96.04308 C69.762595,97.4155766 68.6927601,98.5381999 67.3415148,98.6225253 L67.178065,98.62761 L29.6713657,98.62761 C28.2439692,98.62761 27.0868357,97.4704765 27.0868357,96.04308 C27.0868357,94.6705834 28.1566706,93.5479601 29.5079159,93.4636347 L29.6713657,93.45855 L67.178065,93.45855 Z M34.1059022,16.6261591 C35.5332987,16.6261591 36.6904322,17.7832926 36.6904322,19.2106891 C36.6904322,20.5831857 35.6205973,21.705809 34.269352,21.7901343 L34.1059022,21.7952191 L12.238,21.795 L48.424,57.984 L84.615,21.795 L82.8174007,21.7952191 C81.444904,21.7952191 80.3222807,20.7253841 80.2379554,19.3741388 L80.2328707,19.2106891 C80.2328707,17.8381924 81.3027056,16.7155691 82.6539509,16.6312438 L82.8174007,16.6261591 L90.855289,16.6261591 C93.1043358,16.6261591 94.2567494,19.2821362 92.7918947,20.9228474 L92.6827905,21.0382649 L51.0082887,62.7101489 L51.0089007,87.5663385 C51.0089007,88.993735 49.8517672,90.1508685 48.4243707,90.1508685 C47.0518741,90.1508685 45.9292508,89.0810335 45.8449255,87.7297883 L45.8398407,87.5663385 L45.8392887,62.7101489 L4.17234999,21.0381164 C2.58220047,19.4477732 3.64537413,16.7550108 5.84124616,16.6306261 L6,16.6261591 L34.1059022,16.6261591 Z M94.894145,1.60800987 C95.6308876,2.76058088 95.3385354,4.27637969 94.2543692,5.07732174 L94.1084853,5.17764983 L62.6330332,25.2964057 C63.0939081,26.5139842 63.3720355,27.824426 63.4326293,29.1957355 L63.4326293,29.1957355 L63.4419936,29.5004634 C63.5695579,36.2898971 58.2513209,41.9755104 51.4348288,42.2662095 C47.7374558,42.4273176 44.34513,40.9720676 41.9410528,38.5263023 L38.7272528,40.5799761 C37.5245969,41.3487932 35.9264023,40.9970973 35.1575853,39.7944415 C34.4208022,38.6418963 34.7131014,37.1260872 35.7972395,36.3251072 L35.9431199,36.224774 L39.153629,34.1721458 C38.6942781,32.9554958 38.4177992,31.6459511 38.3589743,30.2753737 C38.0615754,23.3527091 43.4308274,17.4969903 50.3567706,17.1976542 C54.0513844,17.038933 57.4414222,18.4966559 59.8452886,20.9439037 L91.324505,0.822350168 C92.5271878,0.0535752456 94.1253701,0.405327075 94.894145,1.60800987 Z M50.8225265,22.3554231 L50.5792982,22.3619221 C46.5062044,22.5379593 43.3483544,25.9819179 43.5232754,30.0536186 C43.6980292,34.1252549 47.138573,37.2794483 51.2121968,37.1019467 C55.2809173,36.9284296 58.4419247,33.4867333 58.2684372,29.419982 L58.2684372,29.419982 L58.2539081,29.1804778 C58.1620234,27.9817417 57.7873256,26.8679099 57.1988218,25.9022844 C57.1654829,25.8577422 57.1339193,25.8116961 57.1036422,25.7643302 L57.0296499,25.6375374 C55.6435221,23.5666225 53.2455417,22.2473799 50.5792982,22.3619221 Z" fill="#00B077"></path>
    </g>
</svg>