<?xml version="1.0" encoding="UTF-8"?>
<svg width="100px" height="100px" viewBox="0 0 100 100" version="1.1" xmlns="http://www.w3.org/2000/svg" xmlns:xlink="http://www.w3.org/1999/xlink">
    <!-- Generator: Sketch 63.1 (92452) - https://sketch.com -->
    <title>MeasuringCup</title>
    <desc>Created with Sketch.</desc>
    <g id="MeasuringCup" stroke="none" stroke-width="1" fill="none" fill-rule="evenodd">
        <path d="M96.5702888,1.85260017 C97.9976853,1.85260017 99.1548188,3.00973367 99.1548188,4.43713017 C99.1548188,5.80962681 98.0849838,6.93225011 96.7337385,7.01657543 L96.5702888,7.02166017 L26.874,7.021 L37.701,94.623 L82.811,94.623 L92.9926764,13.3632452 C93.1633182,12.0013978 94.3644275,11.020497 95.7156726,11.1048256 L95.8784863,11.1201019 C97.2403337,11.2907437 98.2212345,12.491853 98.1369059,13.8430981 L98.1216296,14.0059118 L87.6560061,97.5293063 C87.501031,98.7661224 86.4884961,99.7075308 85.2602889,99.7870544 L85.0915295,99.792503 L35.4168629,99.792503 C34.1687989,99.792503 33.1079627,98.9026854 32.8780002,97.6920379 L32.8518522,97.5250145 L27.26673,52.3274336 C26.4074237,54.4050485 24.9272133,56.5936581 22.8064006,58.9075246 C21.8419308,59.9597882 20.2070453,60.0309593 19.1547816,59.0664895 C18.102518,58.1020197 18.0313469,56.4671342 18.9958167,55.4148706 C25.1327966,48.7192527 24.2473616,45.1931414 15.8363604,40.5206608 L15.532767,40.3532919 C4.01574803,34.0556059 -1.01332608,24.7067146 1.6073786,15.8769046 C4.09172312,7.50652611 12.927326,1.85225557 23.950854,1.85225557 L96.5702888,1.85260017 Z M64.0172719,82.7096212 C65.4446684,82.7096212 66.6018019,83.8667547 66.6018019,85.2941512 C66.6018019,86.6666479 65.531967,87.7892712 64.1807217,87.8735965 L64.0172719,87.8786812 L56.5031817,87.8786812 C55.0757852,87.8786812 53.9186517,86.7215477 53.9186517,85.2941512 C53.9186517,83.9216546 54.9884867,82.7990313 56.339732,82.714706 L56.5031817,82.7096212 L64.0172719,82.7096212 Z M64.0172719,69.1341189 C65.4446684,69.1341189 66.6018019,70.2912524 66.6018019,71.7186489 C66.6018019,73.0911456 65.531967,74.2137689 64.1807217,74.2980942 L64.0172719,74.3031789 L56.5031817,74.3031789 C55.0757852,74.3031789 53.9186517,73.1460455 53.9186517,71.7186489 C53.9186517,70.3461523 54.9884867,69.223529 56.339732,69.1392037 L56.5031817,69.1341189 L64.0172719,69.1341189 Z M64.0172719,55.5586167 C65.4446684,55.5586167 66.6018019,56.7157502 66.6018019,58.1431467 C66.6018019,59.5156433 65.531967,60.6382666 64.1807217,60.7225919 L64.0172719,60.7276767 L56.5031817,60.7276767 C55.0757852,60.7276767 53.9186517,59.5705432 53.9186517,58.1431467 C53.9186517,56.77065 54.9884867,55.6480267 56.339732,55.5637014 L56.5031817,55.5586167 L64.0172719,55.5586167 Z M69.1594528,40.5898804 C70.8073969,40.5898804 72.0679937,41.0357899 73.6953232,41.9784646 L74.4930936,42.4575559 L74.6282371,42.5402024 C77.1220139,44.0612124 78.2991189,44.2256041 81.3547753,42.7308608 C82.6369824,42.1036403 84.1848794,42.6346118 84.8121,43.916819 C85.4393205,45.1990261 84.908349,46.7469231 83.6261418,47.3741436 C78.9116102,49.6803631 75.9543848,49.3363092 72.2057887,47.1150439 L71.3637495,46.6044533 L70.967059,46.372703 C70.1605769,45.9173531 69.6799334,45.7589404 69.1594528,45.7589404 C68.003264,45.7589404 67.2943446,46.0016374 66.0314836,46.7613947 L65.2829463,47.2227011 L64.946274,47.4257991 C63.2891254,48.4057962 62.0056773,48.8552074 60.218702,48.8552074 C58.4317503,48.8552074 57.1481134,48.405851 55.4901668,47.4258691 L54.6651753,46.9206357 C53.2334368,46.0351309 52.5088401,45.7589404 51.2762282,45.7589404 C50.722215,45.7589404 50.2170527,45.9449167 49.2872497,46.5036264 L48.5554395,46.9574076 C44.6876814,49.3756912 41.7002885,49.793898 36.8621889,47.3488607 C35.5882356,46.705041 35.0774113,45.1503789 35.7212309,43.8764256 C36.3650505,42.6024722 37.9197126,42.0916479 39.193666,42.7354675 C42.1342622,44.2215608 43.2842923,44.1198721 45.5884016,42.7145851 L46.3661214,42.2306231 C48.1774243,41.1124982 49.4932064,40.5898804 51.2762282,40.5898804 C53.5370057,40.5898804 55.0444344,41.1191046 57.0457901,42.3183498 L57.8581336,42.8178672 C58.9432752,43.4841921 59.4699886,43.6861474 60.218702,43.6861474 C60.9172002,43.6861474 61.421978,43.5104075 62.3675173,42.9455103 L63.051252,42.5247662 C65.2248195,41.1797591 66.7722251,40.5898804 69.1594528,40.5898804 Z M6.56278055,17.3476775 C4.73346893,23.5110862 8.35724915,30.390327 17.5898421,35.5834574 L18.0133687,35.8183392 C21.6331361,37.7989917 24.311486,39.8921077 26.0054827,42.1287742 L21.677316,7.11819964 C13.9427252,7.78700454 8.19296984,11.8551617 6.56278055,17.3476775 Z M64.0172719,28.4076121 C65.4446684,28.4076121 66.6018019,29.5647456 66.6018019,30.9921421 C66.6018019,32.3646388 65.531967,33.487262 64.1807217,33.5715874 L64.0172719,33.5766721 L56.5031817,33.5766721 C55.0757852,33.5766721 53.9186517,32.4195386 53.9186517,30.9921421 C53.9186517,29.6196455 54.9884867,28.4970222 56.339732,28.4126969 L56.5031817,28.4076121 L64.0172719,28.4076121 Z M64.0172719,14.8321098 C65.4446684,14.8321098 66.6018019,15.9892433 66.6018019,17.4166398 C66.6018019,18.7891365 65.531967,19.9117598 64.1807217,19.9960851 L64.0172719,20.0011698 L56.5031817,20.0011698 C55.0757852,20.0011698 53.9186517,18.8440363 53.9186517,17.4166398 C53.9186517,16.0441432 54.9884867,14.9215199 56.339732,14.8371946 L56.5031817,14.8321098 L64.0172719,14.8321098 Z" id="Measuring-Cup" fill="#00B077"></path>
    </g>
</svg>