<?xml version="1.0" encoding="UTF-8"?>
<svg width="100px" height="100px" viewBox="0 0 100 100" version="1.1" xmlns="http://www.w3.org/2000/svg" xmlns:xlink="http://www.w3.org/1999/xlink">
    <!-- Generator: Sketch 63.1 (92452) - https://sketch.com -->
    <title>Medal</title>
    <desc>Created with Sketch.</desc>
    <g id="Medal" stroke="none" stroke-width="1" fill="none" fill-rule="evenodd">
        <path d="M49.47816,42.24302 C33.7938979,42.24302 21.07752,54.9588128 21.07752,70.64366 C21.07752,86.3279575 33.7933479,99.04086 49.47816,99.04086 C65.1655521,99.04086 77.88052,86.3288173 77.88052,70.64366 C77.88052,54.9579528 65.1650021,42.24302 49.47816,42.24302 Z M49.47816,47.40302 C62.315266,47.40302 72.72052,57.8077953 72.72052,70.64366 C72.72052,83.4787622 62.3160286,93.88086 49.47816,93.88086 C36.6428714,93.88086 26.23752,83.4779024 26.23752,70.64366 C26.23752,57.8086552 36.643634,47.40302 49.47816,47.40302 Z M80.754124,1 C88.1301409,1 92.8280868,5.87452484 92.9290327,11.9200506 C92.9391608,11.9897641 92.9464675,12.0600149 92.9509002,12.1310447 L92.955976,12.294208 L92.955976,31.604648 C92.955976,35.8150316 92.448486,38.2250349 90.1761835,41.2559312 C89.8366126,41.7085265 89.4893889,42.1657254 89.1350186,42.6270688 C87.1915332,45.1572304 85.1135454,47.7104633 83.0359563,50.1618704 L81.9862964,51.3914164 C81.7625798,51.6515125 81.5455389,51.9025572 81.3358035,52.1439631 L80.2545412,53.3756175 C79.305048,54.4380616 77.6740505,54.5296264 76.6116065,53.5801332 C75.5953556,52.6719223 75.4673951,51.1401801 76.289142,50.0788997 L76.4358521,49.9049433 L77.1401795,49.104641 L78.0751026,48.0256822 C78.4023753,47.6451856 78.7445629,47.2445186 79.0995143,46.8257012 C81.1273042,44.4330537 83.1546954,41.941989 85.042897,39.4837997 C85.3855918,39.0376563 85.7210475,38.5959526 86.0481716,38.1599472 C87.4406285,36.3026273 87.7720515,34.9048643 87.7946913,31.9523385 L87.7949574,23.4700066 C86.8113219,24.7164441 85.6409948,26.1706571 84.3056489,27.808107 L81.1250252,31.6785141 L79.2041698,33.9938053 C77.9029717,35.5576858 76.5653771,37.1567084 75.2205416,38.7574893 L72.283222,42.243047 L71.0674545,43.6785526 C70.1449663,44.764527 68.5167857,44.8970587 67.4308114,43.9745705 C66.3900859,43.0905193 66.2250049,41.5583583 67.02497,40.4764079 L67.5016023,39.9054502 L70.2636144,36.6346848 L72.2722012,34.2437897 C73.6063414,32.6522424 74.9257526,31.071068 76.2010723,29.5339089 L78.6320981,26.5915091 C81.7518051,22.7979468 84.1489807,19.8064711 85.577004,17.90244 C90.0135993,11.9869796 87.4102992,6.30383973 80.9993996,6.16268553 L80.754124,6.16 L18.202884,6.16 C11.6138792,6.16 8.88691542,11.9122152 13.3780115,17.9020768 L14.075962,18.8190512 C15.5328928,20.7102569 17.6663459,23.3598511 20.3239402,26.5914921 L21.805713,28.388025 L23.7179363,30.6929993 C25.0135754,32.2502725 26.3459675,33.8431843 27.6857484,35.4380827 L31.8205969,40.3380479 C32.7430185,41.4240788 32.610387,43.0522512 31.5243561,43.9746729 C30.4835765,44.8586603 28.9448926,44.7736839 28.0066193,43.809213 L27.6608228,43.4109649 L24.7439616,39.9571224 L21.7260469,36.3605117 C21.0608485,35.5650643 20.4011052,34.7742372 19.7504619,33.9922044 L17.4116369,31.1710872 L15.3040534,28.608184 C13.6943478,26.6413712 12.3019525,24.915835 11.1606484,23.4698238 L11.16,31.604648 L11.1653099,32.286229 C11.2109851,35.0130602 11.5688623,36.3740076 12.9072475,38.1592048 C13.2349285,38.5959526 13.5703842,39.0376563 13.913079,39.4837997 C15.8012806,41.941989 17.8286718,44.4330537 19.8564617,46.8257012 L20.8808734,48.0256822 C21.0990553,48.2793466 21.3106084,48.5240464 21.5148953,48.7591831 L22.2389034,49.5871027 L22.5488852,49.9371985 C23.4983784,50.9996425 23.4068136,52.63064 22.3443695,53.5801332 C21.3281187,54.4883441 19.7916791,54.4440558 18.8290439,53.5086855 L18.6669182,53.3369085 L17.9292178,52.4987692 C17.3224002,51.803909 16.6469995,51.0196548 15.9200197,50.1618704 C13.8424306,47.7104633 11.7644428,45.1572304 9.8209574,42.6270688 C9.46658708,42.1657254 9.11936343,41.7085265 8.77923563,41.2551888 C6.58321483,38.32604 6.03579295,35.9763876 6.00173818,32.0197747 L6,31.604648 L6,12.294208 C6,12.1667983 6.00923552,12.0415456 6.02707362,11.9190829 C6.12773094,5.96350385 10.6893641,1.14439363 17.8774794,1.00318486 L18.202884,1 L80.754124,1 Z M76.299668,17.316952 C77.7245627,17.316952 78.879668,18.4720573 78.879668,19.896952 C78.879668,21.267043 77.8117082,22.3876986 76.4628313,22.4718762 L76.299668,22.476952 L22.656308,22.476952 C21.2314133,22.476952 20.076308,21.3218467 20.076308,19.896952 C20.076308,18.526861 21.1442678,17.4062054 22.4931447,17.3220278 L22.656308,17.316952 L76.299668,17.316952 Z M49.480088,59.056952 L52.3121881,64.7943541 L52.3980317,64.9538917 C52.7925313,65.6291714 53.4748085,66.0922745 54.2552307,66.205481 L60.586088,67.122952 L56.0039956,71.5873774 L55.8694884,71.7286639 C55.3552721,72.311366 55.1287814,73.0986554 55.2612537,73.8714623 L56.342088,80.178952 L50.6820363,77.2013606 L50.5061091,77.1171468 C49.7930701,76.8083562 48.9744651,76.8363467 48.2805523,77.2011395 L42.616088,80.178952 L43.6958392,73.8709664 L43.7214732,73.6776822 C43.794455,72.904356 43.5147635,72.134836 42.9535232,71.587875 L38.372088,67.122952 L44.7034973,66.205481 C45.5437897,66.0835899 46.2703123,65.5560555 46.6463346,64.7947698 L49.480088,59.056952 Z M56.337088,61.292952 L53.0938492,54.7216928 L52.9915428,54.5235661 C51.2776675,51.3534704 47.4919265,51.4161301 45.867214,54.7204971 L42.620088,61.292952 L35.3661907,62.345927 L35.1622953,62.3800303 C31.6060775,63.0387495 30.4925604,66.652396 33.1338436,69.2231404 L38.380088,74.335952 L37.1426888,81.5692016 L37.1117056,81.7691833 C36.6210258,85.3434 39.7280522,87.5275534 42.9867486,85.8136914 L49.480088,82.398952 L55.9719717,85.8136874 L56.1529885,85.9048758 C59.4076582,87.4746529 62.4448558,85.1927189 61.815052,81.5634746 L60.575088,74.336952 L65.8272924,69.2224706 C68.5134068,66.6003135 67.3094534,62.9014418 63.6035406,62.3475473 L56.337088,61.292952 Z" fill="#00B077"></path>
    </g>
</svg>