<?xml version="1.0" encoding="UTF-8"?>
<svg width="100px" height="100px" viewBox="0 0 100 100" version="1.1" xmlns="http://www.w3.org/2000/svg" xmlns:xlink="http://www.w3.org/1999/xlink">
    <!-- Generator: Sketch 63.1 (92452) - https://sketch.com -->
    <title>Message</title>
    <desc>Created with Sketch.</desc>
    <g id="Message" stroke="none" stroke-width="1" fill="none" fill-rule="evenodd">
        <path d="M13.8621773,16.4433357 C23.5072954,8.58393165 37.2041406,4.39844892 52.9937995,5.07004252 C68.4686208,5.72595806 80.9944565,10.9109971 89.3204898,19.3741598 C96.8458679,27.0234804 100.312608,36.879847 98.8242406,45.7754354 C95.6918866,64.5176712 78.462397,76.0471993 53.3650435,76.0471993 C51.9401489,76.0471993 50.7850435,74.892094 50.7850435,73.4671993 C50.7850435,72.0423047 51.9401489,70.8871993 53.3650435,70.8871993 C76.1477055,70.8871993 91.0639968,60.9056035 93.7349068,44.9243885 C94.9397068,37.7236101 92.0491708,29.5054628 85.6421402,22.9929088 C78.2680423,15.4973598 66.9875147,10.827813 52.7749038,10.2253975 C38.2056503,9.60571232 25.7514188,13.4114771 17.1217141,20.4434631 C9.31878971,26.8017404 5.38504478,35.2884638 6.28768201,43.3673951 C7.06234457,50.3248341 10.9731423,56.1344382 17.1006827,60.8796032 C19.5650504,62.7880087 22.2179338,64.3859963 24.8700996,65.6793645 C25.6418225,66.0557066 26.3656123,66.3824188 27.0277427,66.6603296 L27.4175121,66.8212266 C27.863599,67.0022222 28.170537,67.1167012 28.3146817,67.1663298 C29.3103215,67.5091262 29.9916108,68.4193262 30.0506194,69.4585523 L30.0545103,69.6431953 L29.8314837,84.9896954 L42.2600286,71.8319278 C43.1959142,70.8411044 44.7306021,70.7554255 45.768822,71.6061215 L45.9072172,71.7279324 C46.8980407,72.663818 46.9837196,74.1985059 46.1330236,75.2367258 L46.0112127,75.3751211 L29.0317612,93.351292 C27.453148,95.0225722 24.6723256,93.9460211 24.5785726,91.7008094 L24.5764404,91.5422904 L24.8684837,71.3526954 L24.7142138,71.2873481 C24.2895459,71.104157 23.8236023,70.894794 23.3213529,70.6587305 L22.6083581,70.3172654 C19.6571949,68.8780867 16.7067494,67.1008599 13.9413434,64.9593306 C6.8008816,59.4297596 2.10801195,52.4583648 1.15948117,43.9393699 C0.0514755453,34.0223189 4.76279618,23.8580413 13.8621773,16.4433357 Z" id="Path" fill="#00B077"></path>
    </g>
</svg>