<?xml version="1.0" encoding="UTF-8"?>
<svg width="100px" height="100px" viewBox="0 0 100 100" version="1.1" xmlns="http://www.w3.org/2000/svg" xmlns:xlink="http://www.w3.org/1999/xlink">
    <!-- Generator: Sketch 63.1 (92452) - https://sketch.com -->
    <title>Microwave</title>
    <desc>Created with Sketch.</desc>
    <g id="Microwave" stroke="none" stroke-width="1" fill="none" fill-rule="evenodd">
        <path d="M96.6326974,12.7006298 C98.0600939,12.7006298 99.2172274,13.8577633 99.2172274,15.2851598 C99.2172274,16.6576564 98.1473925,17.7802797 96.7961472,17.8646051 L96.6326974,17.8696898 L10.4799744,17.8696898 C8.18623421,17.8696898 6.28715757,19.7013035 6.17743138,21.969844 L6.17242442,22.1772398 L6.17242442,77.3759085 C6.17242442,79.6696487 8.00403812,81.5687254 10.2725786,81.6784516 L10.4799744,81.6834585 L89.7406174,81.6834585 C92.0343577,81.6834585 93.9334343,79.8518448 94.0431605,77.5833043 L94.0481674,77.3759085 L94.0481674,25.123604 C94.0481674,23.6962075 95.2053009,22.539074 96.6326974,22.539074 C98.0051941,22.539074 99.1278174,23.608909 99.2121427,24.9601543 L99.2172274,25.123604 L99.2172274,77.3759085 C99.2172274,82.5039828 95.1042392,86.7053861 90.0096435,86.8487377 L89.7406174,86.8525185 L10.4799744,86.8525185 C5.35190014,86.8525185 1.15049687,82.7395303 1.00714529,77.6449346 L1.00336442,77.3759085 L1.00336442,22.1772398 C1.00336442,17.0491655 5.11635262,12.8477623 10.2109483,12.7044107 L10.4799744,12.7006298 L96.6326974,12.7006298 Z M87.1476446,67.6287844 C88.5750412,67.6287844 89.7321746,68.7859179 89.7321746,70.2133144 C89.7321746,71.585811 88.6623397,72.7084343 87.3110944,72.7927596 L87.1476446,72.7978444 L77.271294,72.7978444 C75.8438975,72.7978444 74.686764,71.6407109 74.686764,70.2133144 C74.686764,68.8408178 75.756599,67.7181945 77.1078443,67.6338691 L77.271294,67.6287844 L87.1476446,67.6287844 Z M60.891749,26.7575439 C66.1097895,26.7575439 70.368359,31.0161134 70.368359,36.2341539 L70.368359,36.2341539 L70.3681979,43.8428065 C70.3684918,43.8574754 70.3686616,43.8721473 70.3687072,43.8868206 L70.368359,63.3217513 C70.368359,68.5397918 66.1097895,72.7983613 60.891749,72.7983613 L60.891749,72.7983613 L25.2338501,72.7983613 C20.0158096,72.7983613 15.7572401,68.5397918 15.7572401,63.3217513 L15.7572401,63.3217513 L15.7572401,36.2341539 C15.7572401,31.0161134 20.0158096,26.7575439 25.2338501,26.7575439 L25.2338501,26.7575439 Z M60.891749,31.9266039 L25.2338501,31.9266039 C22.8706026,31.9266039 20.9263001,33.8709064 20.9263001,36.2341539 L20.9263001,36.2341539 L20.9263001,63.3217513 C20.9263001,65.6849988 22.8706026,67.6293013 25.2338501,67.6293013 L25.2338501,67.6293013 L25.4513644,67.6286298 L42.4377087,49.049279 C43.4008253,47.9957767 45.035618,47.9225047 46.0891203,48.8856213 C47.0968181,49.8068633 47.2076702,51.3426444 46.3725291,52.396426 L46.252778,52.5370329 L32.4553644,67.6286298 L42.5823644,67.6286298 L65.1983644,42.8916298 L65.199299,36.2341539 C65.199299,33.9404137 63.3676853,32.041337 61.0991448,31.9316108 L60.891749,31.9266039 Z M65.1983644,50.5516298 L49.5863644,67.6286298 L60.891749,67.6293013 C63.1854892,67.6293013 65.0845658,65.7976876 65.194292,63.5291471 L65.199299,63.3217513 L65.1983644,50.5516298 Z M85.2550225,50.9753361 C86.9372255,52.657539 86.9372255,55.3849288 85.2550225,57.0671318 C83.5728196,58.7493347 80.8454298,58.7493347 79.1632269,57.0671318 C77.481024,55.3849288 77.481024,52.657539 79.1632269,50.9753361 C80.8454298,49.2931332 83.5728196,49.2931332 85.2550225,50.9753361 Z M82.2091247,39.441211 C84.1123201,39.441211 85.6551647,40.9840557 85.6551647,42.887251 L85.6551647,42.887251 L85.6551647,43.887251 C85.6551647,45.7904463 84.1123201,47.333291 82.2091247,47.333291 C80.3059294,47.333291 78.7630847,45.7904463 78.7630847,43.887251 L78.7630847,43.887251 L78.7630847,42.887251 C78.7630847,40.9840557 80.3059294,39.441211 82.2091247,39.441211 Z M56.7084654,37.2692334 C57.7162328,38.1903994 57.8272008,39.7261721 56.9921392,40.7800167 L56.8723988,40.9206327 L53.3901754,44.7302299 C52.4271382,45.7838049 50.7923511,45.8572004 49.7387761,44.8941632 C48.7310087,43.9729973 48.6200408,42.4372245 49.4551023,41.3833799 L49.5748428,41.242764 L53.0570662,37.4331668 C54.0201033,36.3795918 55.6548904,36.3061963 56.7084654,37.2692334 Z M85.2550225,28.7073702 C86.9372255,30.3895732 86.9372255,33.116963 85.2550225,34.7991659 C83.5728196,36.4813688 80.8454298,36.4813688 79.1632269,34.7991659 C77.481024,33.116963 77.481024,30.3895732 79.1632269,28.7073702 C80.8454298,27.0251673 83.5728196,27.0251673 85.2550225,28.7073702 Z" fill="#00B077"></path>
    </g>
</svg>