<?xml version="1.0" encoding="UTF-8"?>
<svg width="100px" height="100px" viewBox="0 0 100 100" version="1.1" xmlns="http://www.w3.org/2000/svg" xmlns:xlink="http://www.w3.org/1999/xlink">
    <!-- Generator: Sketch 63.1 (92452) - https://sketch.com -->
    <title>MobileOrdering</title>
    <desc>Created with Sketch.</desc>
    <g id="MobileOrdering" stroke="none" stroke-width="1" fill="none" fill-rule="evenodd">
        <path d="M73.6717601,0.666995576 L24.6880246,0.666995576 C18.1229234,0.666995576 12.7630031,6.0262339 12.7630031,12.590294 L12.7630031,86.9558372 C12.7630031,93.5186948 18.1234439,98.8791356 24.6880246,98.8791356 L73.6717601,98.8791356 C80.2349588,98.8791356 85.5950585,93.5183538 85.5950585,86.9558372 L85.5950585,12.590294 C85.5950585,6.02657485 80.2354793,0.666995576 73.6717601,0.666995576 Z M24.6880246,5.83605558 L73.6717601,5.83605558 C77.3806862,5.83605558 80.4259985,8.88136786 80.4259985,12.590294 L80.4259985,86.9558372 C80.4259985,90.663708 77.3800186,93.7100756 73.6717601,93.7100756 L24.6880246,93.7100756 C20.9782369,93.7100756 17.9320631,90.6639018 17.9320631,86.9558372 L17.9320631,12.590294 C17.9320631,8.88117415 20.9775692,5.83605558 24.6880246,5.83605558 Z M74.0925216,74.8847037 C75.5199181,74.8847037 76.6770516,76.0418372 76.6770516,77.4692337 C76.6770516,78.8417303 75.6072167,79.9643536 74.2559714,80.0486789 L74.0925216,80.0537637 L24.2696753,80.0537637 C22.8422788,80.0537637 21.6851453,78.8966302 21.6851453,77.4692337 C21.6851453,76.096737 22.7549803,74.9741137 24.1062256,74.8897884 L24.2696753,74.8847037 L74.0925216,74.8847037 Z M74.0925216,15.2756206 C75.5199181,15.2756206 76.6770516,16.4327541 76.6770516,17.8601506 C76.6770516,19.2326473 75.6072167,20.3552706 74.2559714,20.4395959 L74.0925216,20.4446806 L24.2696753,20.4446806 C22.8422788,20.4446806 21.6851453,19.2875472 21.6851453,17.8601506 C21.6851453,16.487654 22.7549803,15.3650307 24.1062256,15.2807054 L24.2696753,15.2756206 L74.0925216,15.2756206 Z M52.8709458,84.5901307 C54.2983423,84.5901307 55.4554758,85.7472642 55.4554758,87.1746607 C55.4554758,88.5471574 54.3856408,89.6697806 53.0343955,89.754106 L52.8709458,89.7591907 L45.4878051,89.7591907 C44.0604086,89.7591907 42.9032751,88.6020572 42.9032751,87.1746607 C42.9032751,85.8021641 43.9731101,84.6795408 45.3243553,84.5952155 L45.4878051,84.5901307 L52.8709458,84.5901307 Z M64.1643081,30.7903819 C65.5368047,30.7903819 66.659428,31.8602169 66.7437533,33.2114622 L66.7488381,33.3749119 L66.7488381,64.0946355 C66.7488381,65.522032 65.5917046,66.6791655 64.1643081,66.6791655 C62.7918114,66.6791655 61.6691881,65.6093306 61.5848628,64.2580853 L61.5797781,64.0946355 L61.579,49.667 L61.4943752,49.7680855 C61.0547732,50.2625874 60.428219,50.5871924 59.7255714,50.6310415 L59.5621217,50.6361263 C58.189625,50.6361263 57.0670017,49.5662913 56.9826764,48.215046 L56.9775917,48.0515963 L56.9775917,38.4905583 C56.9775917,34.6791757 60.0971186,30.7903819 64.1643081,30.7903819 Z M49.3496098,30.7912434 C50.7221065,30.7912434 51.8447297,31.8610784 51.9290551,33.2123237 L51.9341398,33.3757734 L51.9341398,42.0649633 C51.9341398,46.3796093 49.5122489,49.6340082 44.4835605,50.44244 L44.4832844,64.0939463 C44.4832844,65.5213428 43.3261509,66.6784763 41.8987544,66.6784763 C40.5262578,66.6784763 39.4036345,65.6086413 39.3193092,64.2573961 L39.3142244,64.0939463 L39.3144172,50.4419602 C34.3860173,49.6488806 31.9605016,46.5077363 31.8655808,42.322153 L31.8626798,42.0649633 L31.8626798,33.3757734 C31.8626798,31.9483769 33.0198133,30.7912434 34.4472098,30.7912434 C35.8197065,30.7912434 36.9423298,31.8610784 37.0266551,33.2123237 L37.0317398,33.3757734 L37.0317398,42.0649633 C37.0317398,43.6841512 37.5786188,44.7373488 39.3140655,45.1990817 L39.3142244,33.3759457 C39.3142244,31.9485492 40.4713579,30.7914157 41.8987544,30.7914157 C43.2712511,30.7914157 44.3938744,31.8612507 44.4781997,33.212496 L44.4832844,33.3759457 L44.4837346,45.199667 C46.1585481,44.7543556 46.7257688,43.7575849 46.7630832,42.2314297 L46.7650798,42.0649633 L46.7650798,33.3757734 C46.7650798,31.9483769 47.9222133,30.7912434 49.3496098,30.7912434 Z" fill="#00B077"></path>
    </g>
</svg>