<?xml version="1.0" encoding="UTF-8"?>
<svg width="100px" height="100px" viewBox="0 0 100 100" version="1.1" xmlns="http://www.w3.org/2000/svg" xmlns:xlink="http://www.w3.org/1999/xlink">
    <!-- Generator: Sketch 63.1 (92452) - https://sketch.com -->
    <title>MonitorwithStar</title>
    <desc>Created with Sketch.</desc>
    <g id="MonitorwithStar" stroke="none" stroke-width="1" fill="none" fill-rule="evenodd">
        <path d="M96.88,4.42 C98.3048947,4.42 99.46,5.57510535 99.46,7 C99.46,8.37009101 98.3920402,9.49074665 97.0431633,9.57492416 L96.88,9.58 L6.58,9.579 L6.58,74.436 L60.9189734,74.436246 C60.9802598,74.434073 61.0412323,74.4340968 61.1018034,74.436254 L94.3,74.436 L94.3,16.86592 C94.3,15.495829 95.3679598,14.3751734 96.7168367,14.2909958 L96.88,14.28592 C98.250091,14.28592 99.3707466,15.3538798 99.4549242,16.7027567 L99.46,16.86592 L99.46,77.01604 C99.46,78.386131 98.3920402,79.5067866 97.0431633,79.5909642 L96.88,79.59604 L64.032,79.596 L64.7622515,84.1602293 C64.9871964,85.5672562 64.0289296,86.8902306 62.6219027,87.1151755 C61.2689922,87.3314686 59.993793,86.4538161 59.6977269,85.1351426 L59.6669565,84.9748267 L58.806,79.596 L42.072,79.596 L40.485,89.525 L71.092728,89.525084 C72.5176227,89.525084 73.672728,90.6801893 73.672728,92.105084 C73.672728,93.475175 72.6047682,94.5958306 71.2558913,94.6800082 L71.092728,94.685084 L29.783488,94.685084 C28.3585933,94.685084 27.203488,93.5299787 27.203488,92.105084 C27.203488,90.734993 28.2714478,89.6143374 29.6203247,89.5301598 L29.783488,89.525084 L35.259,89.525 L36.847,79.596 L4,79.59604 C2.62990899,79.59604 1.50925335,78.5280802 1.42507584,77.1792033 L1.42,77.01604 L1.42,7 C1.42,5.62990899 2.48795982,4.50925335 3.83683674,4.42507584 L4,4.42 L96.88,4.42 Z M51.455,30.072 L54.7084842,36.6745525 L54.7942616,36.8342489 C55.1885121,37.5102125 55.8710226,37.9739333 56.6518948,38.0873601 L63.946,39.147 L58.6702783,44.2906629 L58.5358755,44.4319775 C58.0220721,45.0147717 57.795934,45.8019162 57.9285624,46.5744836 L59.174,53.833 L52.6534851,50.4012781 L52.4773964,50.3169152 C51.7636859,50.0075874 50.9441232,50.0357457 50.2496898,50.4013803 L43.732,53.833 L44.9798881,46.5749415 L45.0056529,46.3815637 C45.0791247,45.6078474 44.7995245,44.8377579 44.2380152,44.2904332 L38.961,39.147 L46.2500227,38.0873211 C47.0898915,37.9652345 47.8160003,37.437906 48.1919477,36.6770194 L51.455,30.072 Z M44.166,33.175 L36.1956665,34.3346291 L35.9883469,34.3682568 C32.303426,35.0305691 31.1557616,38.7463218 33.8962925,41.4157186 L39.664,47.038 L38.3000011,54.9786487 L38.2688446,55.1824329 C37.764999,58.8920215 40.94463,61.1311514 44.3197005,59.3551945 L51.451,55.6 L58.585004,59.3549921 L58.7691542,59.4478265 C62.1408398,61.0773864 65.2493805,58.740132 64.6072434,54.9811894 L63.243,47.038 L69.0114108,41.4148472 L69.159205,41.2653649 C71.7481001,38.5563519 70.4895901,34.8827426 66.7122759,34.3345439 L58.737,33.175 L55.1754769,25.9484401 C53.4521096,22.4711358 49.4558047,22.469451 47.7366911,25.9497946 L44.166,33.175 Z" id="Monitor-with-Star" fill="#00B077"></path>
    </g>
</svg>