<?xml version="1.0" encoding="UTF-8"?>
<svg width="100px" height="100px" viewBox="0 0 100 100" version="1.1" xmlns="http://www.w3.org/2000/svg" xmlns:xlink="http://www.w3.org/1999/xlink">
    <!-- Generator: Sketch 63.1 (92452) - https://sketch.com -->
    <title>MusicNote</title>
    <desc>Created with Sketch.</desc>
    <g id="MusicNote" stroke="none" stroke-width="1" fill="none" fill-rule="evenodd">
        <path d="M32.628868,84.524364 C32.628868,92.3519587 26.2853827,98.695444 18.462948,98.695444 C10.6307483,98.695444 4.284988,92.3542345 4.284988,84.524364 C4.284988,76.6958884 10.6310735,70.355004 18.462948,70.355004 C21.8829866,70.355004 25.0204223,71.5676105 27.468578,73.5865969 L27.468868,11.750304 C27.468868,10.3254093 28.6239733,9.170304 30.048868,9.170304 C31.418959,9.170304 32.5396146,10.2382638 32.6237922,11.5871407 L32.628868,11.750304 Z M93.1800134,6.51453607 L93.184908,6.6751 L93.184908,79.45174 C93.184908,87.2731995 86.8389589,93.6211 79.012108,93.6211 C71.1918116,93.6211 64.844468,87.2711537 64.844468,79.45174 C64.844468,71.6253523 71.1901857,65.27378 79.012108,65.27378 C82.4357619,65.27378 85.5755559,66.4881931 88.0249632,68.5096186 L88.023988,26.0319171 L38.2456852,30.2481277 C36.8258739,30.3683806 35.5774052,29.3148804 35.4571523,27.8950692 C35.3415245,26.529866 36.3110974,25.3230787 37.648058,25.1253641 L37.8102108,25.1065363 L88.023988,20.8529171 L88.024,9.481 L38.2451006,13.6869851 C36.8798713,13.8023025 35.6733044,12.8324553 35.4758938,11.4954497 L35.4571029,11.3332926 C35.3417855,9.96806326 36.3116327,8.76149644 37.6486383,8.56408576 L37.8107954,8.54529486 L90.3877554,4.10425486 C91.8391969,3.98165534 93.0923536,5.08140187 93.1800134,6.51453607 Z M79.012108,70.43378 C74.0410408,70.43378 70.004468,74.4740769 70.004468,79.45174 C70.004468,84.4218378 74.0420746,88.4611 79.012108,88.4611 C83.9888144,88.4611 88.024908,84.4237653 88.024908,79.45174 C88.024908,74.4721484 83.9898484,70.43378 79.012108,70.43378 Z M18.462948,75.515004 C23.4353867,75.515004 27.468868,79.5480718 27.468868,84.524364 C27.468868,89.5021693 23.4355933,93.535444 18.462948,93.535444 C13.4797093,93.535444 9.444988,89.5036162 9.444988,84.524364 C9.444988,79.5466252 13.4799162,75.515004 18.462948,75.515004 Z" id="Music-Note" fill="#00B077"></path>
    </g>
</svg>