<?xml version="1.0" encoding="UTF-8"?>
<svg width="100px" height="100px" viewBox="0 0 100 100" version="1.1" xmlns="http://www.w3.org/2000/svg" xmlns:xlink="http://www.w3.org/1999/xlink">
    <!-- Generator: Sketch 63.1 (92452) - https://sketch.com -->
    <title>Nachos</title>
    <desc>Created with Sketch.</desc>
    <g id="Nachos" stroke="none" stroke-width="1" fill="none" fill-rule="evenodd">
        <path d="M45.5902774,10.1534251 C46.3637929,2.12198264 53.2359601,-1.25788614 60.0696239,3.03096741 L60.0696239,3.03096741 L79.5948866,15.2954238 C86.428985,19.5845501 86.3676961,27.2472099 79.4682813,31.4298387 L79.4682813,31.4298387 L55.2736665,46.1047806 C48.6574908,50.1178707 42.8829007,47.0168893 42.8114725,39.8603082 L41.503498,38.9367619 L35.598663,34.752411 C32.9303875,32.8602157 32.0010213,33.2628923 32.205117,36.3634631 L32.2381163,36.7832185 L33.9908511,56.2109064 L62.0938511,56.2109064 L57.3805492,51.8385113 C56.3341384,50.8676945 56.2728573,49.2324084 57.2436741,48.1859976 C58.1722814,47.1850829 59.7088342,47.0854967 60.7564628,47.9283434 L60.8961877,48.0491225 L69.6928511,56.2109064 L84.1238511,56.2109064 L86.0103107,47.5160152 C86.7804272,43.9629026 85.2122675,42.4336934 81.8128128,43.3949651 L81.597967,43.4582916 L67.2279802,47.8588847 C65.8631467,48.2768445 64.4179072,47.5092517 63.9999474,46.1444182 C63.598706,44.8341781 64.2900698,43.4498358 65.5535382,42.9714007 L65.7144138,42.9163855 L80.0838074,38.5159741 C87.3219861,36.2974896 92.560376,41.0108381 91.1163974,48.3482297 L91.0619777,48.6113878 L89.4128511,56.2109064 L96.5704611,56.2111298 C97.9978576,56.2111298 99.1549911,57.3682633 99.1549911,58.7956598 C99.1549911,60.1681564 98.0851561,61.2907797 96.7339108,61.3751051 L96.5704611,61.3801898 L6.187,61.38 L6.19789208,61.5609321 C6.97458312,74.0219965 12.9742241,85.4017927 22.6042796,93.1098918 L22.785,93.252 L77.316,93.249 L77.5525017,93.0628103 C85.5296972,86.6517886 91.0733406,77.6413912 93.1141371,67.5464685 L93.2259057,66.9739097 C93.4900097,65.5711589 94.8412625,64.6481033 96.2440133,64.9122072 C97.6467641,65.1763112 98.5698198,66.527564 98.3057158,67.9303148 C96.0510999,79.9053873 89.4019976,90.5563748 79.7704974,97.889995 C79.3767531,98.1897999 78.9064685,98.3693479 78.4161483,98.4095736 L78.2049491,98.4182277 L21.8983785,98.4216738 C21.3329189,98.4216738 20.7830514,98.2362974 20.3330693,97.8938639 C8.20627954,88.6654536 0.942851078,74.3309114 0.942851078,58.7956598 C0.942851078,57.4231632 2.01268604,56.3005399 3.36393133,56.2162146 L3.52738108,56.2111298 L7.20685108,56.2109064 L5.45689966,51.9092038 C2.92514302,45.6912888 7.1052251,40.7576896 13.9196943,41.5600922 L22.888366,42.616345 C24.3059526,42.7834047 25.319705,44.0680144 25.1526452,45.485601 C24.9920109,46.8486651 23.7981388,47.8383616 22.4463107,47.7639603 L19.6492408,47.439537 L13.3153186,46.6936982 C10.2664528,46.3346948 9.25453672,47.5290226 10.244519,49.9603882 L12.7868511,56.2109064 L28.8008511,56.2109064 L27.0900062,37.2481313 C26.3810179,29.4039038 32.1799146,25.9911516 38.5882231,30.5355744 L43.3068511,33.8789064 Z M57.3218254,7.40918444 C53.7442254,5.16385852 51.1404717,6.44443647 50.7355503,10.6487516 L50.7355503,10.6487516 L48.0048651,39.0463836 C47.7011424,42.8520484 49.2248937,43.7280913 52.5929603,41.6851657 L52.5929603,41.6851657 L76.7881049,27.0099025 C80.3994401,24.8206045 80.4226587,21.9176931 76.8462623,19.6731223 L76.8462623,19.6731223 Z" fill="#00B077"></path>
    </g>
</svg>