<?xml version="1.0" encoding="UTF-8"?>
<svg width="100px" height="100px" viewBox="0 0 100 100" version="1.1" xmlns="http://www.w3.org/2000/svg" xmlns:xlink="http://www.w3.org/1999/xlink">
    <!-- Generator: Sketch 63.1 (92452) - https://sketch.com -->
    <title>OpenSign</title>
    <desc>Created with Sketch.</desc>
    <g id="OpenSign" stroke="none" stroke-width="1" fill="none" fill-rule="evenodd">
        <path d="M97.1718621,34.4928317 C97.2423877,35.8635152 96.231652,37.0396288 94.8865249,37.1932764 L94.7235524,37.2067533 L6.286,41.756 L8.046,75.967 L93.901,71.55 L92.4507186,43.3320872 C92.3802481,41.9614009 93.3910311,40.785328 94.7361644,40.6317345 L94.8991375,40.6182642 C96.2698238,40.5477936 97.4458967,41.5585766 97.5994902,42.90371 L97.6129605,43.066683 L99.1964159,73.8656655 C99.2668844,75.2363119 98.2561604,76.4123644 96.9110712,76.5660066 L96.7481034,76.5794831 L5.73129488,81.2626515 C4.3606211,81.333178 3.18451144,80.3224576 3.03085081,78.9773413 L3.01737228,78.81437 L0.991100756,39.44164 C0.92055963,38.0709468 1.93129812,36.8948167 3.27643526,36.7411674 L3.43940903,36.7276903 L94.4579405,32.044522 C95.8834513,31.9711753 97.0985154,33.0673209 97.1718621,34.4928317 Z M22.7664425,48.5690485 C27.9646486,48.2986368 31.7128197,51.6706178 32.0155508,57.5843864 C32.3202692,63.4938188 28.9407957,67.2293513 23.7434921,67.4998523 C18.5457263,67.7674808 14.7989682,64.3960847 14.4940278,58.4844436 C14.1912987,52.5707133 17.5705741,48.8339551 22.7664425,48.5690485 Z M49.2026008,53.892668 C49.3567178,57.4834034 46.8032343,60.5292039 42.8700495,60.8537549 L42.611595,60.8710409 L39.711,61.02 L39.8681833,64.0826669 C39.9386728,65.4533523 38.927906,66.6294392 37.5827748,66.7830512 L37.4198019,66.7965238 C36.0491166,66.8670133 34.8730297,65.8562465 34.7194176,64.5111153 L34.705945,64.3481424 L33.9977838,50.5777666 C33.9272909,49.2070137 34.9381575,48.0308921 36.2833633,47.8773626 L36.4854705,47.8618911 L41.9289346,47.5830513 C46.0759782,47.3699765 49.0437711,50.1921322 49.2026008,53.892668 Z M65.9972669,48.9327123 C66.0677334,50.3033988 65.0569469,51.4794688 63.7118132,51.6330582 L63.54884,51.6465281 L56.779,51.994 L56.8666229,53.7160436 L60.5756633,53.5265894 C62.0011901,53.4535555 63.2160136,54.5499677 63.2890475,55.9754946 C63.3592723,57.3461935 62.3482785,58.5220853 61.0031177,58.6754377 L60.8401422,58.6888788 L57.1326229,58.8780436 L57.221,60.601 L63.9920867,60.2546369 C65.3627861,60.1844223 66.5386703,61.1954249 66.6920126,62.5405869 L66.7054525,62.7035625 C66.7756671,64.0742619 65.7646645,65.2501461 64.4195025,65.4034884 L64.2565269,65.4169283 L54.9056974,65.8959278 C53.5351985,65.9661321 52.3594174,64.955426 52.20583,63.6104858 L52.192359,63.4475364 L51.4841978,49.6788836 C51.4136984,48.3081763 52.4244908,47.1320713 53.7696458,46.9784781 L53.9326216,46.9650079 L63.2834511,46.4842854 C64.7089651,46.4110002 65.9239818,47.5071983 65.9972669,48.9327123 Z M85.3258608,47.7729532 L85.3393538,47.9359244 L86.049238,61.7063003 C86.1715667,64.0792402 83.3163958,65.3198005 81.6638843,63.6905761 L81.5531258,63.5750252 L74.466,55.756 L74.8030873,62.2869746 C74.873739,63.6576516 73.8631114,64.8338581 72.5179984,64.9876294 L72.3550271,65.0011213 C70.9843502,65.0717729 69.8081436,64.0611454 69.6543724,62.7160324 L69.6408805,62.5530611 L68.9309962,48.7809622 C68.8086832,46.4080295 71.6638453,45.1674841 73.3163511,46.7967034 L73.4271093,46.9122539 L80.514,54.731 L80.1771486,48.2020441 C80.1064881,46.8313676 81.1171081,45.6551545 82.4622201,45.5013746 L82.6251914,45.4878817 C83.9958679,45.4172212 85.1720809,46.4278412 85.3258608,47.7729532 Z M26.8532503,57.8486492 C26.6966981,54.7904455 25.3834051,53.6089629 23.0323084,53.731266 C20.6833175,53.8510278 19.4996693,55.1598904 19.6562764,58.2191713 C19.8139687,61.2762266 21.1280002,62.4586143 23.476259,62.3377049 C25.8262158,62.2153979 27.0108964,60.9059002 26.8532503,57.8486492 Z M42.3816516,52.7404549 L42.1931511,52.7453541 L39.293,52.893 L39.445,55.858 L42.3458598,55.708816 C43.4644264,55.6513243 44.0170488,55.0748609 44.039463,54.2534471 L44.0382955,54.1143238 C44.0024714,53.2796665 43.4805113,52.741184 42.3816516,52.7404549 Z M42.8724767,6.16846295 C43.9140762,7.05518726 44.0777961,8.59021549 43.275261,9.67320298 L43.1650956,9.81180823 L23.908624,32.4316148 C22.9833465,33.5185013 21.3521653,33.6495112 20.2652788,32.7242337 C19.2236792,31.8375094 19.0599593,30.3024812 19.8624944,29.2194937 L19.9726599,29.0808884 L39.2291314,6.46108186 C40.1544089,5.37419536 41.7855902,5.24318541 42.8724767,6.16846295 Z M55.4358218,5.30604539 L55.5762239,5.42603657 L77.7566604,25.7731797 C78.8085154,26.7380952 78.8789939,28.3730106 77.9140785,29.4248657 C76.9911159,30.4309879 75.4551476,30.5392155 74.4027946,29.702275 L74.2623925,29.5822838 L52.0819561,9.23514061 C51.030101,8.2702252 50.9596226,6.63530972 51.924538,5.58345468 C52.8475005,4.57733247 54.3834689,4.46910487 55.4358218,5.30604539 Z" id="Open-Sign" fill="#00B077"></path>
    </g>
</svg>