<?xml version="1.0" encoding="UTF-8"?>
<svg width="100px" height="100px" viewBox="0 0 100 100" version="1.1" xmlns="http://www.w3.org/2000/svg" xmlns:xlink="http://www.w3.org/1999/xlink">
    <!-- Generator: Sketch 63.1 (92452) - https://sketch.com -->
    <title>Order</title>
    <desc>Created with Sketch.</desc>
    <g id="Order" stroke="none" stroke-width="1" fill="none" fill-rule="evenodd">
        <path d="M76.917558,0.41547 C78.3449545,0.41547 79.502088,1.5726035 79.502088,3 C79.502088,4.37249664 78.432253,5.49511993 77.0810077,5.57944525 L76.917558,5.58453 L5.584,5.584 L5.584,93.458 L74.333,93.458 L74.333028,77.691194 C74.333028,76.3186973 75.402863,75.196074 76.7541083,75.1117487 L76.917558,75.106664 C78.2900546,75.106664 79.4126779,76.1764989 79.4970033,77.5277442 L79.502088,77.691194 L79.502088,96.04308 C79.502088,97.4155766 78.432253,98.5381999 77.0810077,98.6225253 L76.917558,98.62761 L3,98.62761 C1.62750336,98.62761 0.504880066,97.557775 0.420554749,96.2065297 L0.41547,96.04308 L0.41547,3 C0.41547,1.62750336 1.48530496,0.504880066 2.83655025,0.420554749 L3,0.41547 L76.917558,0.41547 Z M76.917558,9.25335649 C78.2900546,9.25335649 79.4126779,10.3231914 79.4970033,11.6744367 L79.502088,11.8378865 L79.50147,41.87547 L80.3868033,40.991233 C81.352368,40.0255372 82.8919406,39.9836594 83.9072905,40.8655197 L84.0423948,40.991499 L92.1130205,49.0655708 C93.1219989,50.07498 93.1217963,51.7111613 92.1125679,52.7203206 L92.1125679,52.7203206 L65.5840607,79.249965 C65.4830405,79.4103435 65.3626897,79.5620358 65.223008,79.7017174 C65.0833264,79.841399 64.9316342,79.9617499 64.7712557,80.06277 L62.3229976,82.5098908 C59.7160895,85.1158291 56.1702282,85.2310352 53.2238281,83.5355606 L50.7900051,85.971396 C49.7808994,86.9809338 48.1444656,86.981284 47.1349278,85.9721782 C46.1692831,85.0069466 46.1269781,83.4677514 47.0082479,82.4522318 L47.1341457,82.3171009 L49.5699438,79.8798237 C47.8762417,76.9331816 47.9923346,73.3881777 50.5976346,70.7838477 L50.5976346,70.7838477 L53.0394843,68.3406553 C53.1412668,68.1780848 53.2628593,68.0243738 53.4042619,67.8829713 C53.5456645,67.7415687 53.6993754,67.6199761 53.861946,67.5181936 L74.33247,47.04547 L74.333028,11.8378865 C74.333028,10.41049 75.4901615,9.25335649 76.917558,9.25335649 Z M55.27747,73.41147 L54.2523717,74.4392653 C53.2638731,75.4273959 53.4652396,76.9391383 54.8160989,78.2905746 C56.1671116,79.6421643 57.6785286,79.8438369 58.6680206,78.8547131 L58.6680206,78.8547131 L59.69347,77.82747 L55.27747,73.41147 Z M42.7006207,70.7115846 C44.1280172,70.7115846 45.2851507,71.8687181 45.2851507,73.2961146 C45.2851507,74.6686112 44.2153158,75.7912345 42.8640705,75.8755598 L42.7006207,75.8806446 L13.000925,75.8806446 C11.5735285,75.8806446 10.416395,74.7235111 10.416395,73.2961146 C10.416395,71.9236179 11.4862299,70.8009946 12.8374752,70.7166693 L13.000925,70.7115846 L42.7006207,70.7115846 Z M82.214,46.473 L58.93247,69.75647 L63.34847,74.17247 L86.63,50.891 L82.214,46.473 Z M69.1266203,38.510212 C70.3208881,39.7046723 70.3666715,41.6125811 69.264081,42.8617441 L69.1262579,43.0083939 L58.4297498,53.703179 C57.2352087,54.8975277 55.3271432,54.9432251 54.0779992,53.8404474 L53.9313526,53.7026014 L49.0448679,48.8143936 C47.8029483,47.5720361 47.8033033,45.5581315 49.0456608,44.3162118 C50.2402354,43.1220583 52.1481486,43.0764575 53.3972061,44.1791676 L53.5438426,44.3170047 L56.18,46.955 L64.6284384,38.5098497 C65.8706771,37.2678111 67.8845817,37.2679733 69.1266203,38.510212 Z M42.7006207,47.2488766 C44.1280172,47.2488766 45.2851507,48.4060101 45.2851507,49.8334066 C45.2851507,51.2059033 44.2153158,52.3285266 42.8640705,52.4128519 L42.7006207,52.4179366 L13.000925,52.4179366 C11.5735285,52.4179366 10.416395,51.2608031 10.416395,49.8334066 C10.416395,48.46091 11.4862299,47.3382867 12.8374752,47.2539614 L13.000925,47.2488766 L42.7006207,47.2488766 Z M89.5706398,35.1104677 L89.7057438,35.2363944 L97.8694126,43.4000632 C98.8787343,44.4093849 98.8787343,46.0458188 97.8694126,47.0551405 C96.9039744,48.0205787 95.3647701,48.0625543 94.3494392,47.1810673 L94.2143352,47.0551405 L86.0506664,38.8914718 C85.0413447,37.88215 85.0413447,36.2457162 86.0506664,35.2363944 C87.0161046,34.2709562 88.5553089,34.2289806 89.5706398,35.1104677 Z M68.7048868,15.0582795 C69.670325,16.0237177 69.7123006,17.562922 68.8308136,18.5782529 L68.7048868,18.7133569 L58.0083787,29.409865 C57.0429405,30.3753032 55.5037362,30.4172788 54.4884053,29.5357918 L54.3533013,29.409865 L49.4668166,24.5233803 C48.4574948,23.5140586 48.4574948,21.8776247 49.4668166,20.8683029 C50.4322548,19.9028647 51.9714591,19.8608892 52.98679,20.7423762 L53.121894,20.8683029 L56.18,23.927 L65.0498095,15.0582795 C66.0591312,14.0489577 67.6955651,14.0489577 68.7048868,15.0582795 Z M42.7006207,23.7913377 C44.1280172,23.7913377 45.2851507,24.9484712 45.2851507,26.3758677 C45.2851507,27.7483644 44.2153158,28.8709877 42.8640705,28.955313 L42.7006207,28.9603977 L13.000925,28.9603977 C11.5735285,28.9603977 10.416395,27.8032642 10.416395,26.3758677 C10.416395,25.0033711 11.4862299,23.8807478 12.8374752,23.7964225 L13.000925,23.7913377 L42.7006207,23.7913377 Z" fill="#00B077"></path>
    </g>
</svg>