<?xml version="1.0" encoding="UTF-8"?>
<svg width="100px" height="100px" viewBox="0 0 100 100" version="1.1" xmlns="http://www.w3.org/2000/svg" xmlns:xlink="http://www.w3.org/1999/xlink">
    <!-- Generator: Sketch 63.1 (92452) - https://sketch.com -->
    <title>PDF</title>
    <desc>Created with Sketch.</desc>
    <g id="PDF" stroke="none" stroke-width="1" fill="none" fill-rule="evenodd">
        <path d="M39.804,10.268 L17.189,33.083 L39.804,33.083 L39.804,10.268 Z M30.309408,56.82292 C34.7905765,56.82292 37.8144685,60.0099008 37.7803484,63.9933382 C37.7471912,67.8643485 34.8347769,70.992202 30.5720646,71.1157678 L30.309408,71.11956 L26.726,71.119 L26.726648,74.88292 C26.726648,76.253011 25.6586882,77.3736666 24.3098113,77.4578442 L24.146648,77.46292 C22.776557,77.46292 21.6559014,76.3949602 21.5717238,75.0460833 L21.566648,74.88292 L21.566648,59.40292 C21.566648,58.032829 22.6346078,56.9121734 23.9834847,56.8279958 L24.146648,56.82292 L30.309408,56.82292 Z M26.726,65.959 L30.309408,65.95956 C31.8168274,65.95956 32.6104388,65.1281501 32.6205376,63.9491418 C32.6300919,62.8337031 31.9359459,62.0531843 30.5085943,61.9874217 L30.309408,61.98292 L26.726,61.982 L26.726,65.959 Z M46.153,72.301 L46.153,61.982 L47.823652,61.98292 C51.1092377,61.98292 52.871852,63.5835999 52.871852,67.14292 C52.871852,70.6996601 51.1082907,72.3012 47.823652,72.3012 L46.153,72.301 Z M82.8702,1.42 C84.240291,1.42 85.3609466,2.48795982 85.4451242,3.83683674 L85.4502,4 L85.4498334,46.769 L88.029168,46.769176 C89.399259,46.769176 90.5199146,47.8371358 90.6040922,49.1860127 L90.609168,49.349176 L90.609168,84.934256 C90.609168,86.304347 89.5412082,87.4250026 88.1923313,87.5091802 L88.029168,87.514256 L13.5808334,87.514 L13.581,94.3 L80.289,94.3 L80.289512,93.29982 C80.289512,91.929729 81.3574718,90.8090734 82.7063487,90.7248958 L82.869512,90.71982 C84.239603,90.71982 85.3602586,91.7877798 85.4444362,93.1366567 L85.449512,93.29982 L85.449512,96.88086 C85.449512,98.250951 84.3815522,99.3716066 83.0326753,99.4557842 L82.869512,99.46086 L11.001032,99.46086 C9.63094099,99.46086 8.51028535,98.3929002 8.42610784,97.0440233 L8.421032,96.88086 L8.42089769,84.9674922 C8.42075804,84.9564301 8.420688,84.9453512 8.420688,84.934256 L8.42083337,84.906 L8.42083337,49.382 L8.420688,49.349176 L8.42083337,49.321 L8.421032,44.68402 C8.421032,43.2591253 9.57613735,42.10402 11.001032,42.10402 C12.371123,42.10402 13.4917786,43.1719798 13.5759562,44.5208567 L13.581032,44.68402 L13.5808334,46.769 L80.2898334,46.769 L80.29,6.579 L44.964,6.579 L44.96484,35.66348 C44.96484,37.033571 43.8968802,38.1542266 42.5480033,38.2384042 L42.38484,38.24348 L11,38.24348 C8.76028556,38.24348 7.60764784,35.6030321 9.0594685,33.9626454 L9.16761981,33.8472248 L40.556,2.179 L40.6867701,2.05744402 L40.8276138,1.94254226 L40.9108305,1.88224998 L41.0388424,1.79850251 L41.1264315,1.74694684 L41.3099079,1.65390699 L41.465,1.588 L41.599014,1.54185884 L41.7753011,1.49266471 L41.9037429,1.46477585 L42.1154743,1.43402168 L42.2873345,1.42183422 L42.38484,1.42 L82.8702,1.42 Z M13.5808334,82.354 L85.449,82.354 L85.449,51.929 L13.5808334,51.929 L13.5808334,82.354 Z M47.823652,56.82292 C53.854011,56.82292 58.031852,60.6169357 58.031852,67.14292 C58.031852,73.6663243 53.853064,77.4612 47.8246961,77.4611998 L47.8246961,77.4611998 L43.5745761,77.46292 C42.1492738,77.4634966 40.993532,76.3082224 40.993532,74.88292 L40.993532,74.88292 L40.993532,59.40292 C40.993532,57.9780253 42.1486373,56.82292 43.573532,56.82292 L43.573532,56.82292 Z M74.88338,56.82292 C76.3082747,56.82292 77.46338,57.9780253 77.46338,59.40292 C77.46338,60.773011 76.3954202,61.8936666 75.0465433,61.9778442 L74.88338,61.98292 L66.952,61.982 L66.9518334,65.959 L71.442864,65.95956 C72.8677587,65.95956 74.022864,67.1146653 74.022864,68.53956 C74.022864,69.909651 72.9549042,71.0303066 71.6060273,71.1144842 L71.442864,71.11956 L66.9518334,71.119 L66.95246,74.88292 C66.95246,76.253011 65.8845002,77.3736666 64.5356233,77.4578442 L64.37246,77.46292 C63.002369,77.46292 61.8817134,76.3949602 61.7975358,75.0460833 L61.79246,74.88292 L61.79246,59.40292 C61.79246,58.032829 62.8604198,56.9121734 64.2092967,56.8279958 L64.37246,56.82292 L74.88338,56.82292 Z" fill="#00B077"></path>
    </g>
</svg>