<?xml version="1.0" encoding="UTF-8"?>
<svg width="100px" height="100px" viewBox="0 0 100 100" version="1.1" xmlns="http://www.w3.org/2000/svg" xmlns:xlink="http://www.w3.org/1999/xlink">
    <!-- Generator: Sketch 63.1 (92452) - https://sketch.com -->
    <title>PPT</title>
    <desc>Created with Sketch.</desc>
    <g id="PPT" stroke="none" stroke-width="1" fill="none" fill-rule="evenodd">
        <path d="M39.803,9.267 L17.189,32.083 L39.803,32.083 L39.803,9.267 Z M50.20224,55.82292 C54.6834085,55.82292 57.7073005,59.0099008 57.6731804,62.9933382 C57.6400232,66.8643485 54.7276089,69.992202 50.4648966,70.1157678 L50.20224,70.11956 L46.619,70.119 L46.61948,73.88292 C46.61948,75.253011 45.5515202,76.3736666 44.2026433,76.4578442 L44.03948,76.46292 C42.669389,76.46292 41.5487334,75.3949602 41.4645558,74.0460833 L41.45948,73.88292 L41.45948,58.40292 C41.45948,57.032829 42.5274398,55.9121734 43.8763167,55.8279958 L44.03948,55.82292 L50.20224,55.82292 Z M46.619,64.959 L50.20224,64.95956 C51.7096594,64.95956 52.5032708,64.1281501 52.5133696,62.9491418 C52.5229239,61.8337031 51.8287779,61.0531843 50.4014263,60.9874217 L50.20224,60.98292 L46.619,60.982 L46.619,64.959 Z M27.059,64.959 L30.642228,64.95956 C32.1496474,64.95956 32.9432588,64.1281501 32.9533576,62.9491418 C32.9629119,61.8337031 32.2687659,61.0531843 30.8414143,60.9874217 L30.642228,60.98292 L27.059,60.982 L27.059,64.959 Z M82.866932,0.42 C84.237023,0.42 85.3576786,1.48795982 85.4418562,2.83683674 L85.446932,3 L85.4460054,45.769 L88.02676,45.769176 C89.396851,45.769176 90.5175066,46.8371358 90.6016842,48.1860127 L90.60676,48.349176 L90.60676,83.934256 C90.60676,85.304347 89.5388002,86.4250026 88.1899233,86.5091802 L88.02676,86.514256 L13.5790054,86.514 L13.58,93.3 L80.287,93.3 L80.287104,92.29982 C80.287104,90.929729 81.3550638,89.8090734 82.7039407,89.7248958 L82.867104,89.71982 C84.237195,89.71982 85.3578506,90.7877798 85.4420282,92.1366567 L85.447104,92.29982 L85.447104,95.88086 C85.447104,97.250951 84.3791442,98.3716066 83.0302673,98.4557842 L82.867104,98.46086 L11.000344,98.46086 C9.63025299,98.46086 8.50959735,97.3929002 8.42541984,96.0440233 L8.420344,95.88086 L8.42014042,83.9614566 C8.42004688,83.9524009 8.42,83.9433339 8.42,83.934256 L8.42000541,83.906 L8.42000541,48.376 L8.42,48.349176 L8.42000541,48.321 L8.420344,43.68402 C8.420344,42.2591253 9.57544935,41.10402 11.000344,41.10402 C12.370435,41.10402 13.4910906,42.1719798 13.5752682,43.5208567 L13.580344,43.68402 L13.5800054,45.769 L80.2860054,45.769 L80.286,5.579 L44.963,5.579 L44.963292,34.66348 C44.963292,36.033571 43.8953322,37.1542266 42.5464553,37.2384042 L42.383292,37.24348 L11.000172,37.24348 C8.76049081,37.24348 7.60783934,34.6030991 9.05959543,32.9626969 L9.16774204,32.847275 L40.554,1.179 L40.6851689,1.05749055 L40.8260094,0.942584936 L40.9727662,0.839080943 L41.1248218,0.746981319 L41.3083599,0.653906988 C41.4018562,0.61099872 41.4983592,0.573515015 41.597466,0.541858837 L41.7736844,0.492681417 L41.942973,0.457644818 L42.1138559,0.434029061 L42.2857158,0.421836891 L42.383292,0.42 L82.866932,0.42 Z M13.5790054,81.354 L85.446,81.354 L85.446,50.929 L13.5800054,50.929 L13.5790054,81.354 Z M30.642228,55.82292 C35.1233965,55.82292 38.1472885,59.0099008 38.1131684,62.9933382 C38.0800112,66.8643485 35.1675969,69.992202 30.9048846,70.1157678 L30.642228,70.11956 L27.059,70.119 L27.059468,73.88292 C27.059468,75.253011 25.9915082,76.3736666 24.6426313,76.4578442 L24.479468,76.46292 C23.109377,76.46292 21.9887214,75.3949602 21.9045438,74.0460833 L21.899468,73.88292 L21.899468,58.40292 C21.899468,57.032829 22.9674278,55.9121734 24.3163047,55.8279958 L24.479468,55.82292 L30.642228,55.82292 Z M74.548668,55.82292 C75.9735627,55.82292 77.128668,56.9780253 77.128668,58.40292 C77.128668,59.773011 76.0607082,60.8936666 74.7118313,60.9778442 L74.548668,60.98292 L71.0150054,60.982 L71.015272,73.88292 C71.015272,75.3078147 69.8601667,76.46292 68.435272,76.46292 C67.065181,76.46292 65.9445254,75.3949602 65.8603478,74.0460833 L65.855272,73.88292 L65.8550054,60.982 L62.317748,60.98292 C60.8928533,60.98292 59.737748,59.8278147 59.737748,58.40292 C59.737748,57.032829 60.8057078,55.9121734 62.1545847,55.8279958 L62.317748,55.82292 L74.548668,55.82292 Z" fill="#00B077"></path>
    </g>
</svg>