<?xml version="1.0" encoding="UTF-8"?>
<svg width="100px" height="100px" viewBox="0 0 100 100" version="1.1" xmlns="http://www.w3.org/2000/svg" xmlns:xlink="http://www.w3.org/1999/xlink">
    <!-- Generator: Sketch 63.1 (92452) - https://sketch.com -->
    <title>PSD</title>
    <desc>Created with Sketch.</desc>
    <g id="PSD" stroke="none" stroke-width="1" fill="none" fill-rule="evenodd">
        <path d="M40.259,10.422 L17.643,33.238 L40.259,33.238 L40.259,10.422 Z M31.941524,56.977728 C36.4226925,56.977728 39.4465845,60.1647088 39.4124644,64.1481462 C39.3793072,68.0191565 36.4668929,71.14701 32.2041806,71.2705758 L31.941524,71.274368 L28.358,71.274 L28.358764,75.037728 C28.358764,76.407819 27.2908042,77.5284746 25.9419273,77.6126522 L25.778764,77.617728 C24.408673,77.617728 23.2880174,76.5497682 23.2038398,75.2008913 L23.198764,75.037728 L23.198764,59.557728 C23.198764,58.187637 24.2667238,57.0669814 25.6156007,56.9828038 L25.778764,56.977728 L31.941524,56.977728 Z M28.358,66.114 L31.941524,66.114368 C33.4489434,66.114368 34.2425548,65.2829581 34.2526536,64.1039498 C34.2622079,62.9885111 33.5680619,62.2079923 32.1407103,62.1422297 L31.941524,62.137728 L28.358,62.137 L28.358,66.114 Z M44.3037334,58.589394 C47.3964311,55.9324629 52.3166833,56.7599993 55.0814649,59.5562965 C56.0832915,60.5695429 56.0740339,62.2030823 55.0607875,63.2049089 C54.0915953,64.1631778 52.5548761,64.1963716 51.5463278,63.3106998 L51.4121751,63.1842315 C50.385958,62.1463166 48.4590798,61.8222352 47.6663187,62.5032948 C46.9561445,63.1134624 47.1128542,63.8012271 49.2959764,64.5419914 L49.5136112,64.6138429 C55.0222754,66.3824253 57.3765968,69.1640246 56.0945094,73.4281093 C54.6796708,78.140027 48.1142505,78.8418965 42.472867,75.7108238 C41.227001,75.0193451 40.7775814,73.4488169 41.4690602,72.202951 C42.1605389,70.957085 43.7310671,70.5076654 44.976933,71.1991442 C46.7301488,72.1722115 48.4888709,72.5755933 49.8460404,72.4305065 C50.7282793,72.3361917 51.1094105,72.0876508 51.152765,71.9432653 C51.4326708,71.0123287 51.1375955,70.5916073 48.4506956,69.6950431 L47.9354077,69.5265685 C41.8681344,67.5762954 40.3683825,61.970569 44.3037334,58.589394 Z M64.864,72.456 L64.864,62.137 L66.53468,62.1379 C69.8196396,62.1379 71.58116,63.7380849 71.58116,67.2979 C71.58116,70.8551351 69.8186929,72.45618 66.53468,72.45618 L64.864,72.456 Z M83.324804,1.57498 C84.694895,1.57498 85.8155506,2.64293982 85.8997282,3.99181674 L85.904804,4.15498 L85.9044374,46.92298 L88.483772,46.923124 C89.853863,46.923124 90.9745186,47.9910838 91.0586962,49.3399607 L91.063772,49.503124 L91.063772,85.088204 C91.063772,86.458295 89.9958122,87.5789506 88.6469353,87.6631282 L88.483772,87.668204 L14.0344374,87.66798 L14.035,94.454 L80.744,94.454 L80.744116,93.45394 C80.744116,92.083849 81.8120758,90.9631934 83.1609527,90.8790158 L83.324116,90.87394 C84.694207,90.87394 85.8148626,91.9418998 85.8990402,93.2907767 L85.904116,93.45394 L85.904116,97.03498 C85.904116,98.405071 84.8361562,99.5257266 83.4872793,99.6099042 L83.324116,99.61498 L11.455636,99.61498 C10.085545,99.61498 8.96488935,98.5470202 8.88071184,97.1981433 L8.875636,97.03498 L8.87550169,85.1214402 C8.87536204,85.1103781 8.875292,85.0992992 8.875292,85.088204 L8.87543737,85.05998 L8.87543737,49.53598 L8.875292,49.503124 L8.87543737,49.47498 L8.875636,44.83814 C8.875636,43.4132453 10.0307413,42.25814 11.455636,42.25814 C12.825727,42.25814 13.9463826,43.3260998 14.0305602,44.6749767 L14.035636,44.83814 L14.0354374,46.92298 L80.7444374,46.92298 L80.744,6.734 L45.419,6.734 L45.419444,35.81846 C45.419444,37.188551 44.3514842,38.3092066 43.0026073,38.3933842 L42.839444,38.39846 L11.454604,38.39846 C9.21488956,38.39846 8.06225184,35.7580121 9.5140725,34.1176254 L9.62222381,34.0022048 L41.0692508,2.27798896 L41.2428394,2.12820762 L41.3654345,2.03722998 L41.4934464,1.95348251 L41.626573,1.87726744 L41.7645119,1.80888699 L41.903,1.749 L42.0531229,1.69688341 L42.2299051,1.64764471 L42.3991946,1.61261275 L42.5700783,1.58900168 L42.7419385,1.57681422 L42.839444,1.57498 L83.324804,1.57498 Z M14.0344374,82.50798 L85.903,82.508 L85.903,52.083 L14.0354374,52.08298 L14.0344374,82.50798 Z M66.53468,56.9779 C72.5647308,56.9779 76.74116,60.7718151 76.74116,67.2979 C76.74116,73.8214049 72.5637841,77.61618 66.5357241,77.6161798 L66.5357241,77.6161798 L62.2856041,77.6179 C60.8603018,77.6184766 59.70456,76.4632024 59.70456,75.0379 L59.70456,75.0379 L59.70456,59.5579 C59.70456,58.1330053 60.8596653,56.9779 62.28456,56.9779 L62.28456,56.9779 Z" fill="#00B077"></path>
    </g>
</svg>