<?xml version="1.0" encoding="UTF-8"?>
<svg width="100px" height="100px" viewBox="0 0 100 100" version="1.1" xmlns="http://www.w3.org/2000/svg" xmlns:xlink="http://www.w3.org/1999/xlink">
    <!-- Generator: Sketch 63.1 (92452) - https://sketch.com -->
    <title>Page</title>
    <desc>Created with Sketch.</desc>
    <g id="Page" stroke="none" stroke-width="1" fill="none" fill-rule="evenodd">
        <path d="M85.585167,1 C86.955258,1 88.0759136,2.06795982 88.1600911,3.41683674 L88.165167,3.58 L88.165167,96.58 C88.165167,97.950091 87.0972071,99.0707466 85.7483302,99.1549242 L85.585167,99.16 L13.585167,99.16 C12.215076,99.16 11.0944203,98.0920402 11.0102428,96.7431633 L11.005167,96.58 L11.005167,44.3157222 C11.005167,42.8908276 12.1602723,41.7357222 13.585167,41.7357222 C14.955258,41.7357222 16.0759136,42.803682 16.1600911,44.152559 L16.165167,44.3157222 L16.165167,94 L83.005167,94 L83.005167,6.16 L47.606167,6.16 L47.6064708,35.2843889 C47.6064708,36.6544799 46.538511,37.7751355 45.1896341,37.8593131 L45.0264708,37.8643889 L13.585167,37.8643889 C11.3451454,37.8643889 10.1926347,35.2233216 11.6450519,33.5830789 L11.7532466,33.4676699 L43.2021353,1.7556645 L43.3288928,1.63701422 L43.4697655,1.52214813 L43.6165513,1.41868531 L43.7686328,1.32662835 L43.9515388,1.23390699 L44.0939878,1.17366338 L44.2504768,1.11891831 L44.441167,1.067 L44.5453737,1.04477585 L44.7577547,1.01395357 L44.929618,1.00180962 L45.0264708,1 L85.585167,1 Z M42.446167,9.845 L19.777167,32.704 L42.446167,32.704 L42.446167,9.845 Z" fill="#00B077"></path>
    </g>
</svg>