<?xml version="1.0" encoding="UTF-8"?>
<svg width="100px" height="100px" viewBox="0 0 100 100" version="1.1" xmlns="http://www.w3.org/2000/svg" xmlns:xlink="http://www.w3.org/1999/xlink">
    <!-- Generator: Sketch 63.1 (92452) - https://sketch.com -->
    <title>Party</title>
    <desc>Created with Sketch.</desc>
    <g id="Party" stroke="none" stroke-width="1" fill="none" fill-rule="evenodd">
        <path d="M62.1933223,63.5529097 L62.4651284,63.6709665 C62.9144943,63.8707299 63.5474893,64.1721154 64.3124622,64.5693238 C65.8632114,65.3745428 67.414875,66.3002825 68.8759631,67.3415416 C72.2407205,69.7394698 74.6545115,72.3885027 75.6634432,75.4127109 C76.4704583,77.8337563 76.8464199,79.9256691 76.9562745,82.2624972 L76.9852532,83.126044 C76.9967631,83.6480287 76.9969429,84.1363388 76.9871564,84.8957493 L76.9519156,87.2699224 C76.9497469,87.5068551 76.94879,87.7245101 76.94879,87.957532 C76.94879,89.3907109 75.7869689,90.552532 74.35379,90.552532 C72.9206111,90.552532 71.75879,89.3907109 71.75879,87.957532 L71.7639727,87.0399587 L71.8015766,84.4655599 C71.8071671,83.8466192 71.8033072,83.4382369 71.7892172,82.9588521 C71.7283089,80.8865685 71.4420164,79.1606516 70.7399875,77.0545648 C70.1518796,75.2917492 68.4164122,73.3871474 65.8638883,71.5680656 C64.7962649,70.8072131 63.6531469,70.1075167 62.4986681,69.4819483 L62.371,69.414 L62.3352465,69.4765049 C56.6507795,79.1022131 44.2107281,79.0854948 38.4359186,69.7352954 L38.241,69.413 L38.1109547,69.4823865 C37.1486267,70.0039148 36.1941895,70.5769391 35.2847662,71.1939494 L34.7448108,71.5693739 C32.1927993,73.3883337 30.4571627,75.2928063 29.8688887,77.0531059 C28.9594923,79.7843537 28.5636187,85.1536268 28.4578916,92.2965939 L28.437,94.126 L74.65135,94.126712 C76.0294067,94.126712 77.1565777,95.2008809 77.2412447,96.5576001 L77.24635,96.721712 C77.24635,98.0997687 76.1721811,99.2269397 74.8154619,99.3116067 L74.65135,99.316712 L25.66121,99.316712 L25.4725474,99.3114384 C23.4981167,99.1996384 22.7387203,97.3327888 23.1943581,95.8709507 L23.238,95.741 L23.2456106,94.2000083 C23.3039059,85.6036586 23.6900006,79.4191281 24.8606229,75.6741644 L24.9455792,75.4108163 C25.9555832,72.3885603 28.3690129,69.7403615 31.732469,67.3430402 C33.1938917,66.3014034 34.7459158,65.3753144 36.297026,64.5697831 L37.0162599,64.2045885 C37.6130631,63.9087558 38.0919548,63.6901918 38.4166493,63.5529724 C39.7547654,62.9874701 41.2964394,63.630514 41.8361099,64.9792553 C45.3113257,73.6644947 55.2606644,73.7674172 58.7737216,64.9799768 C59.3130778,63.6308497 60.8549487,62.9873964 62.1933223,63.5529097 Z M5.86382927,43.6864904 C7.13548088,44.2117239 7.76723468,45.63113 7.33168511,46.9157962 L7.21841766,47.2190516 C7.19271663,47.2918995 7.15951329,47.3895938 7.12016984,47.5115792 C6.97699469,47.9554975 6.83085364,48.4880433 6.69253835,49.1048388 C6.28772823,50.9100267 6.042664,53.0018462 6.042664,55.347378 C6.042664,62.7205218 8.19943602,68.2148169 12.4920579,71.7092179 C13.8744736,72.8345709 13.7277017,74.9675315 12.2543536,75.9066135 L11.9945756,76.0599417 C11.8650018,76.1401048 11.6570401,76.2791332 11.3924422,76.4767384 C10.7728366,76.9394682 10.1477509,77.5067564 9.56583621,78.1751557 C8.32995115,79.5947191 7.46788806,81.2590774 7.12357576,83.1878716 C6.97770834,84.0076644 6.84249254,84.9155391 6.71817047,85.89576 C6.53614421,87.3309513 6.38460305,88.8590393 6.26156143,90.4034847 L6.21,91.083 L16.064554,91.083988 C17.4426107,91.083988 18.5697817,92.1581569 18.6544487,93.5148761 L18.659554,93.678988 C18.659554,95.0570447 17.5853851,96.1842157 16.2286659,96.2688827 L16.064554,96.273988 L3.447664,96.273988 C2.02362436,96.273988 0.876821799,95.1297629 0.852987994,93.7258228 L0.858861352,93.4852895 L0.893254019,92.8355216 C0.925341865,92.2681853 0.9655834,91.6371054 1.01460579,90.9578874 C1.15490828,89.0139599 1.33785174,87.0685209 1.56941673,85.2427402 C1.70400303,84.1815906 1.85172417,83.1897518 2.01408794,82.2772497 C2.53465106,79.3611171 3.83102455,76.8582494 5.65145786,74.7672616 C5.96564679,74.4063776 6.28802569,74.0664657 6.6158123,73.7470404 L6.871,73.504 L6.78273194,73.4054434 C2.895165,69.0262154 0.944456871,63.0719073 0.855828784,55.8643319 L0.852664,55.347378 C0.852664,52.6082236 1.14216977,50.1370599 1.62830965,47.9691947 C1.9291795,46.6275123 2.24179109,45.658252 2.47471638,45.0943127 C3.02183465,43.7696756 4.53919218,43.1393721 5.86382927,43.6864904 Z M97.8407846,45.0943127 L97.9536139,45.3832528 C98.1696202,45.9653007 98.4326092,46.833925 98.6871914,47.9691947 C99.1733312,50.1370599 99.462892,52.6082236 99.462892,55.347378 C99.462892,62.7885822 97.5122966,68.9229885 93.530012,73.4061774 L93.441,73.504 L93.6956255,73.7458693 C93.9141321,73.9587293 94.130236,74.1806909 94.3431129,74.411898 L94.659905,74.7656608 C96.4813588,76.8570991 97.7781381,79.3607366 98.2980476,82.2777797 C98.4604925,83.1888689 98.6085604,84.1807288 98.7435016,85.241899 C98.9756764,87.0677079 99.1592266,89.0131721 99.300107,90.9571242 L99.3793429,92.1243713 L99.4461066,93.2758593 C99.4524467,93.3977178 99.457119,93.4937547 99.4601989,93.5620068 C99.5244062,94.9848723 98.432625,96.1822181 97.0309017,96.2689586 L96.867837,96.273988 L84.247487,96.273988 C82.8143081,96.273988 81.652487,95.1121669 81.652487,93.678988 C81.652487,92.3009313 82.7266559,91.1737603 84.0833751,91.0890933 L84.247487,91.083988 L94.104,91.083 L94.0529854,90.4042602 C93.9541812,89.1687205 93.8371283,87.94365 93.7008194,86.7682374 L93.5949615,85.8966012 C93.4703166,84.9164009 93.3347894,84.0085473 93.1885974,83.1886135 C92.8445429,81.2582356 91.9824398,79.5938093 90.746109,78.1742237 C90.1643019,77.5061785 89.5393216,76.9391802 88.9198164,76.4766824 L88.6749386,76.2986999 C88.4879461,76.1666622 88.3453125,76.0753495 88.2596248,76.0249292 L88.2151463,75.9995855 C86.5960148,75.1159806 86.3897726,72.8726884 87.8206516,71.7086739 C92.1156437,68.2147146 94.272837,62.7213029 94.272837,55.347378 C94.272837,53.0018462 94.0277728,50.9100267 93.6229626,49.1048388 C93.5123104,48.6114024 93.3966497,48.1718858 93.2815058,47.7885305 L93.1953312,47.5115792 C93.1297587,47.3082703 93.0812422,47.1724363 93.056088,47.1066493 L93.0438494,47.0756033 C92.4967311,45.7509662 93.1270346,44.2336087 94.4516717,43.6864904 C95.7763088,43.1393721 97.2936663,43.7696756 97.8407846,45.0943127 Z M21.954166,41.878117 C30.3176592,41.878117 35.6676236,51.7735119 31.6941673,61.2839726 C31.1416696,62.606375 29.6217627,63.2305061 28.2993604,62.6780083 C26.976958,62.1255106 26.3528269,60.6056037 26.9053247,59.2832014 C29.538798,52.9799874 26.3425339,47.068117 21.954166,47.068117 C18.481057,47.068117 15.328266,51.260806 15.328266,56.735357 C15.328266,62.1096991 18.3664864,66.2519156 21.7616252,66.403488 L21.954166,66.407787 C23.3873449,66.407787 24.549166,67.5696081 24.549166,69.002787 C24.549166,70.4359659 23.3873449,71.597787 21.954166,71.597787 C15.2413829,71.597787 10.138266,64.8075198 10.138266,56.735357 C10.138266,48.6639807 15.2410556,41.878117 21.954166,41.878117 Z M78.359605,41.878117 C85.0725702,41.878117 90.173775,48.663632 90.173775,56.735357 C90.173775,64.8078689 85.0722431,71.597787 78.359605,71.597787 C76.9264261,71.597787 75.764605,70.4359659 75.764605,69.002787 C75.764605,67.6247303 76.8387739,66.4975593 78.1954931,66.4128923 L78.359605,66.407787 C81.8310385,66.407787 84.983775,62.2116312 84.983775,56.735357 C84.983775,51.2602766 81.8321992,47.068117 78.359605,47.068117 C73.9722837,47.068117 70.7752361,52.980617 73.4084463,59.2832014 C73.9609441,60.6056037 73.336813,62.1255106 72.0144106,62.6780083 C70.6920083,63.2305061 69.1721014,62.606375 68.6196037,61.2839726 C64.6463598,51.7740202 69.9973405,41.878117 78.359605,41.878117 Z M50.444844,28.005074 C66.0638072,28.005074 70.2912765,49.7178918 58.6128654,59.6081393 C57.5191896,60.5343547 55.8817442,60.3986012 54.9555287,59.3049254 C54.0293133,58.2112496 54.1650668,56.5738042 55.2587426,55.6475887 C59.0415983,52.4439527 60.7783851,46.7771468 59.7695825,41.5958086 C58.7640486,36.4312593 55.3962733,33.195074 50.444844,33.195074 C43.6472563,33.195074 39.9493533,39.8525057 41.0219168,46.6707215 C42.0987023,53.4116388 46.0133431,58.2722114 52.6800136,62.662608 C53.8769505,63.4508617 54.2082537,65.0601767 53.42,66.2571136 C52.6317463,67.4540505 51.0224313,67.7853537 49.8254944,66.9971 C42.0554328,61.8800551 37.2406927,55.9018836 35.8959285,47.4833134 C34.3861608,37.8858857 39.8745061,28.005074 50.444844,28.005074 Z M14.4869549,29.9056333 C15.9088698,30.0849651 16.9161824,31.383032 16.7368507,32.8049469 C16.5575189,34.2268618 15.259452,35.2341744 13.8375371,35.0548427 C10.3609511,34.6163759 7.42566622,35.6390642 5.05283231,37.5057475 C3.92643125,38.3918753 2.29495426,38.1970954 1.40882646,37.0706943 C0.522698657,35.9442932 0.717478623,34.3128163 1.84387969,33.4266885 C5.23026231,30.7626571 9.49652395,29.2762406 14.4869549,29.9056333 Z M87.0299912,16.7787986 C88.1122099,17.7183754 88.2278441,19.3573644 87.2882674,20.4395832 C84.3751651,23.7949385 83.7323844,27.4142723 84.4997832,30.9481225 C84.8039189,32.3486593 83.9151103,33.7305694 82.5145735,34.0347052 C81.1140367,34.3388409 79.7321266,33.4500323 79.4279908,32.0494955 C78.3385026,27.0324325 79.2764315,21.7511954 83.3692066,17.0370748 C84.3087834,15.9548561 85.9477724,15.8392219 87.0299912,16.7787986 Z M26.133673,16.003026 C27.5117297,16.003026 28.6389007,17.0771949 28.7235677,18.4339141 L28.728673,18.598026 L28.728664,21.900712 L32.029859,21.900942 C33.4630379,21.900942 34.624859,23.0627631 34.624859,24.495942 C34.624859,25.8739987 33.5506901,27.0011697 32.1939709,27.0858367 L32.029859,27.090942 L28.728664,27.090712 L28.728673,30.394896 C28.728673,31.8280749 27.5668519,32.989896 26.133673,32.989896 C24.7556163,32.989896 23.6284453,31.9157271 23.5437783,30.5590079 L23.538673,30.394896 L23.538664,27.090712 L20.227799,27.090942 C18.7946201,27.090942 17.632799,25.9291209 17.632799,24.495942 C17.632799,23.1178853 18.7069679,21.9907143 20.0636871,21.9060473 L20.227799,21.900942 L23.538664,21.900712 L23.538673,18.598026 C23.538673,17.1648471 24.7004941,16.003026 26.133673,16.003026 Z M54.023176,0.706712 C55.4012327,0.706712 56.5284037,1.78088089 56.6130707,3.13760012 L56.618176,3.301712 L56.617664,6.603712 L59.919362,6.604628 C61.3525409,6.604628 62.514362,7.76644907 62.514362,9.199628 C62.514362,10.5776847 61.4401931,11.7048557 60.0834739,11.7895227 L59.919362,11.794628 L56.617664,11.793712 L56.618176,15.098582 C56.618176,16.5317609 55.4563549,17.693582 54.023176,17.693582 C52.6451193,17.693582 51.5179483,16.6194131 51.4332813,15.2626939 L51.428176,15.098582 L51.427664,11.793712 L48.117302,11.794628 C46.6841231,11.794628 45.522302,10.6328069 45.522302,9.199628 C45.522302,7.82157134 46.5964709,6.69440027 47.9531901,6.60973335 L48.117302,6.604628 L51.427664,6.603712 L51.428176,3.301712 C51.428176,1.86853307 52.5899971,0.706712 54.023176,0.706712 Z M73.800634,8.70403884 C75.077279,9.35532949 75.5842288,10.9182301 74.9329382,12.194875 C72.9718121,16.0390293 69.7355409,19.173927 64.9458904,20.703453 C63.5806348,21.1394334 62.1204445,20.386107 61.684464,19.0208514 C61.2484836,17.6555958 62.00181,16.1954055 63.3670656,15.759425 C66.7051882,14.6934297 68.9327058,12.5356872 70.3097978,9.83634296 C70.9610885,8.55969801 72.5239891,8.05274819 73.800634,8.70403884 Z M40.1193872,3.29502442 C41.0542648,4.38130512 40.9315283,6.01977763 39.8452476,6.9546552 C36.034154,10.2345679 31.6642789,11.3486888 27.3646761,11.00148 C25.9361474,10.886121 24.8716131,9.63455276 24.986972,8.2060241 C25.102331,6.77749543 26.3538992,5.71296107 27.7824279,5.82832005 C30.7988171,6.07190463 33.8052709,5.30539464 36.4597564,3.0208848 C37.5460371,2.08600723 39.1845096,2.20874372 40.1193872,3.29502442 Z" fill="#00B077"></path>
    </g>
</svg>