<?xml version="1.0" encoding="UTF-8"?>
<svg width="100px" height="100px" viewBox="0 0 100 100" version="1.1" xmlns="http://www.w3.org/2000/svg" xmlns:xlink="http://www.w3.org/1999/xlink">
    <!-- Generator: Sketch 63.1 (92452) - https://sketch.com -->
    <title>Pause</title>
    <desc>Created with Sketch.</desc>
    <g id="Pause" stroke="none" stroke-width="1" fill="none" fill-rule="evenodd">
        <path d="M29.89466,4.079276 L24.9531,4.079276 C19.7442053,4.079276 15.4931,8.33038135 15.4931,13.539276 L15.4931,85.779276 C15.4931,90.9881707 19.7442053,95.239276 24.9531,95.239276 L29.89466,95.239276 C35.1035547,95.239276 39.35466,90.9881707 39.35466,85.779276 L39.35466,13.539276 C39.35466,8.33038135 35.1035547,4.079276 29.89466,4.079276 Z M24.9531,9.239276 L29.89466,9.239276 C32.2537653,9.239276 34.19466,11.1801707 34.19466,13.539276 L34.19466,85.779276 C34.19466,88.1383813 32.2537653,90.079276 29.89466,90.079276 L24.9531,90.079276 C22.5939947,90.079276 20.6531,88.1383813 20.6531,85.779276 L20.6531,13.539276 C20.6531,11.1801707 22.5939947,9.239276 24.9531,9.239276 Z M70.875896,9.239276 L75.814016,9.239276 C78.1731213,9.239276 80.114016,11.1801707 80.114016,13.539276 L80.114016,85.779276 C80.114016,88.1383813 78.1731213,90.079276 75.814016,90.079276 L70.875896,90.079276 C68.5167907,90.079276 66.575896,88.1383813 66.575896,85.779276 L66.575896,13.539276 C66.575896,11.1801707 68.5167907,9.239276 70.875896,9.239276 Z M75.814016,4.079276 L70.875896,4.079276 C65.6670013,4.079276 61.415896,8.33038135 61.415896,13.539276 L61.415896,85.779276 C61.415896,90.9881707 65.6670013,95.239276 70.875896,95.239276 L75.814016,95.239276 C81.0229107,95.239276 85.274016,90.9881707 85.274016,85.779276 L85.274016,13.539276 C85.274016,8.33038135 81.0229107,4.079276 75.814016,4.079276 Z" fill="#00B077"></path>
    </g>
</svg>