<?xml version="1.0" encoding="UTF-8"?>
<svg width="100px" height="100px" viewBox="0 0 100 100" version="1.1" xmlns="http://www.w3.org/2000/svg" xmlns:xlink="http://www.w3.org/1999/xlink">
    <!-- Generator: Sketch 63.1 (92452) - https://sketch.com -->
    <title>Peach</title>
    <desc>Created with Sketch.</desc>
    <g id="Peach" stroke="none" stroke-width="1" fill="none" fill-rule="evenodd">
        <path d="M75.1194465,13.7639706 C75.6667349,15.0822786 75.0417,16.5946434 73.723392,17.1419319 C72.4050839,17.6892203 70.8927192,17.0641855 70.3454307,15.7458774 C65.5168941,4.11490204 45.411607,2.32582575 30.0382983,12.6497558 C9.28720523,26.5870061 1.38808479,50.8443099 12.1660196,71.0021132 C23.3728194,91.9545216 49.4370315,99.854504 70.390185,88.6505565 C89.2415661,78.5689068 97.7587623,56.2224954 90.6386078,36.2949258 C87.6388229,27.8918154 76.1574113,23.4357287 62.908073,26.1160319 C47.3845101,29.2564042 32.9597337,41.079635 23.9755075,60.4397856 C23.3746576,61.7345598 21.8379506,62.2970966 20.5431765,61.6962467 C19.2484023,61.0953968 18.6858655,59.5586899 19.2867154,58.2639157 C28.948543,37.4435987 44.7117498,24.5233269 61.8831487,21.049602 C77.4049213,17.9095919 91.5194487,23.3876254 95.5065274,34.5563806 C103.484949,56.8860291 93.9452202,81.9152403 72.8277284,93.2087978 C49.3571754,105.758834 20.1611322,96.9096037 7.6078133,73.4397219 C-4.50209087,50.7907572 4.32111329,23.695697 27.1563978,8.35862183 C44.9109806,-3.56445048 68.8084619,-1.43792441 75.1194465,13.7639706 Z M88.0145017,12.0145141 C88.2084529,13.3732378 87.3079946,14.6357768 85.9822252,14.910204 L85.8211342,14.9383352 C84.5511746,15.1196157 83.4705517,15.8995412 82.5940388,17.2640097 C81.8225653,18.4649633 80.2235973,18.8131257 79.0226437,18.0416522 C77.8216901,17.2701787 77.4735277,15.6712107 78.2450012,14.4702571 C79.8850687,11.9171624 82.221786,10.2306673 85.0906807,9.82114665 C86.5037533,9.61943746 87.8127926,10.6014415 88.0145017,12.0145141 Z" fill="#00B077"></path>
    </g>
</svg>