<?xml version="1.0" encoding="UTF-8"?>
<svg width="100px" height="100px" viewBox="0 0 100 100" version="1.1" xmlns="http://www.w3.org/2000/svg" xmlns:xlink="http://www.w3.org/1999/xlink">
    <!-- Generator: Sketch 63.1 (92452) - https://sketch.com -->
    <title>Phone</title>
    <desc>Created with Sketch.</desc>
    <g id="Phone" stroke="none" stroke-width="1" fill="none" fill-rule="evenodd">
        <path d="M93.7430722,12.4576147 C117.444074,53.1903551 53.4066073,117.211199 12.6239355,93.7157825 C11.3892794,93.0044815 10.9650164,91.4269715 11.6763175,90.1923155 C12.3876185,88.9576594 13.9651285,88.5333964 15.1997845,89.2446975 C51.4096814,110.10568 110.321399,51.2092548 89.2831278,15.0527053 C88.5665133,13.8211256 88.983975,12.2418022 90.2155547,11.5251878 C91.4471344,10.8085733 93.0264578,11.226035 93.7430722,12.4576147 Z M87.3222777,4.17003918 C88.3293407,5.17808131 88.328547,6.81164677 87.3205048,7.81870974 C86.3562906,8.78198737 84.8197639,8.82314276 83.8066403,7.94270834 L83.6718343,7.81693682 C81.2031916,5.34589388 77.2357363,5.28562454 74.6922313,7.63673621 L74.504184,7.81759093 L67.7563377,14.5671556 C65.222686,17.0958875 65.222686,21.2043761 67.7584101,23.7413312 C75.2098471,31.195208 78.1310486,37.7722793 75.396163,46.1197006 C72.038391,56.364125 56.2986451,72.0108112 46.1913932,75.3195277 C37.849271,78.0646659 31.2541914,75.1385288 23.8055143,67.6849768 C21.3370157,65.2140782 17.366941,65.1538123 14.824434,67.5060821 L14.6364684,67.6870259 L7.88884361,74.4260487 C5.35398164,76.9670692 5.35398164,81.0734719 7.88707456,83.6077957 C8.89438248,84.6155931 8.89398569,86.2491587 7.88618832,87.2564666 C6.87839095,88.2637745 5.24482535,88.2633777 4.23751744,87.2555803 C-0.231851551,82.7840396 -0.307603568,75.5865079 4.01178727,71.0126422 L4.23912361,70.7784301 L10.987631,64.038523 C15.5317332,59.4877903 22.9100888,59.4877903 27.4556682,64.0377894 C33.6751374,70.2613289 38.5210714,72.4113965 44.5822598,70.4168474 C53.1368206,67.6164182 67.6484751,53.1905624 70.4927322,44.5128508 C72.4797333,38.4481234 70.3334295,33.6157305 64.1089979,27.3892607 C59.6355936,22.913685 59.5597732,15.7081275 63.8817362,11.1503057 L64.109208,10.9169451 L70.8548374,4.16959568 C75.4023253,-0.38010181 82.7765565,-0.38010181 87.3222777,4.17003918 Z" fill="#00B077"></path>
    </g>
</svg>