<?xml version="1.0" encoding="UTF-8"?>
<svg width="100px" height="100px" viewBox="0 0 100 100" version="1.1" xmlns="http://www.w3.org/2000/svg" xmlns:xlink="http://www.w3.org/1999/xlink">
    <!-- Generator: Sketch 63.1 (92452) - https://sketch.com -->
    <title>Photo</title>
    <desc>Created with Sketch.</desc>
    <g id="Photo" stroke="none" stroke-width="1" fill="none" fill-rule="evenodd">
        <path d="M96.46,11 C97.8848947,11 99.04,12.1551053 99.04,13.58 C99.04,14.950091 97.9720402,16.0707466 96.6231633,16.1549242 L96.46,16.16 L6.159664,16.159 L6.15877852,54.4007999 C6.91783411,52.7893299 7.71022757,51.202981 8.53389114,49.6596578 C14.5248638,38.4341923 20.8561562,31.640516 27.98852,31.640516 C32.7886061,31.640516 37.1675087,34.3354339 42.226549,39.5605092 C43.4056785,40.7783371 44.6221553,42.1301109 46.0377606,43.7797783 L47.055888,44.976391 L50.6013827,49.2182229 L51.3779022,50.1404696 C60.3371943,60.7180841 65.8369092,64.948316 72.49696,64.948316 C78.6470868,64.948316 84.0091473,62.2832098 88.5863863,57.7740611 C90.2174039,56.1673064 91.6267772,54.4395627 92.8045448,52.7146978 C93.1322605,52.2347514 93.4217588,51.7842327 93.6726328,51.3711588 L93.88,51.02 L93.88,23.47688 C93.88,22.106789 94.9479598,20.9861334 96.2968367,20.9019558 L96.46,20.89688 C97.830091,20.89688 98.9507466,21.9648398 99.0349242,23.3137167 L99.04,23.47688 L99.04,84.60396 C99.04,85.974051 97.9720402,87.0947066 96.6231633,87.1788842 L96.46,87.18396 L3.58,87.18396 C2.20990899,87.18396 1.08925335,86.1160002 1.00507584,84.7671233 L1,84.60396 L1,13.58 C1,12.209909 2.06795982,11.0892534 3.41683674,11.0050758 L3.58,11 L96.46,11 Z M27.98852,36.800516 C23.5143238,36.800516 18.2053012,42.4972647 13.0861489,52.0891742 C11.1904493,55.6412035 9.45572375,59.461798 7.92317855,63.2841143 C7.46310048,64.4315936 7.05012641,65.5080732 6.68718286,66.4928467 L6.31317088,67.5246462 L6.159,67.965 L6.159664,82.023 L93.879664,82.023 L93.8809372,59.6934377 C93.3486358,60.2886149 92.7909151,60.8753466 92.2076137,61.4499709 C86.7400527,66.8361972 80.1567132,70.108316 72.49696,70.108316 C67.4722486,70.108316 62.7659078,68.0994772 58.0458982,64.3425983 C54.61697,61.6133521 51.6028763,58.4283595 47.0619765,53.0277282 L43.1156668,48.3081008 L42.501541,47.5840612 C40.9812483,45.8000855 39.718606,44.3883129 38.519454,43.1498054 C34.3452194,38.8385746 31.0336305,36.800516 27.98852,36.800516 Z M69.20144,31.87478 C72.4229409,31.87478 75.03396,34.4854303 75.03396,37.70386 C75.03396,40.925361 72.4233097,43.53638 69.20144,43.53638 C65.9831947,43.53638 63.37064,40.9238253 63.37064,37.70386 C63.37064,34.4869656 65.9835636,31.87478 69.20144,31.87478 Z M69.20144,26.71478 C63.1341006,26.71478 58.21064,31.63685 58.21064,37.70386 C58.21064,43.7736147 63.1334053,48.69638 69.20144,48.69638 C75.2732622,48.69638 80.19396,43.7749872 80.19396,37.70386 C80.19396,31.6354779 75.272567,26.71478 69.20144,26.71478 Z" fill="#00B077"></path>
    </g>
</svg>