<?xml version="1.0" encoding="UTF-8"?>
<svg width="100px" height="100px" viewBox="0 0 100 100" version="1.1" xmlns="http://www.w3.org/2000/svg" xmlns:xlink="http://www.w3.org/1999/xlink">
    <!-- Generator: Sketch 63.1 (92452) - https://sketch.com -->
    <title>Pie</title>
    <desc>Created with Sketch.</desc>
    <g id="Pie" stroke="none" stroke-width="1" fill="none" fill-rule="evenodd">
        <path d="M90.9031091,67.999953 C92.2935657,68.6702683 92.9072321,70.3038069 92.3291997,71.7132575 L92.2571914,71.8748243 L86.3231137,84.1840726 C84.2369609,88.5114745 78.9500714,91.8936397 74.1246244,92.0298849 L73.8236679,92.034153 L26.3320677,92.034153 C21.527437,92.034153 16.1850683,88.7403021 13.9671439,84.4532899 L13.8326251,84.1840792 L7.8985442,71.8748243 C7.20244753,70.4308886 7.80869086,68.6960496 9.25262656,67.999953 C10.6430832,67.3296377 12.3032937,67.8669792 13.0459468,69.1970689 L13.1274979,69.3540353 L19.061582,81.6632968 C20.188086,84.0000555 23.4503439,86.0983858 26.0868161,86.2234115 L26.3320677,86.2292986 L73.8236679,86.2292986 C76.4183316,86.2292986 79.7250792,84.2017791 80.982374,81.8816105 L81.0941568,81.6632902 L87.0282377,69.3540353 C87.7243344,67.9100996 89.4591734,67.3038563 90.9031091,67.999953 Z M79.3535283,69.8488921 C80.9564946,69.8488921 82.2559555,71.148353 82.2559555,72.7513192 C82.2559555,74.2970367 81.0476558,75.5605407 79.524068,75.6488194 L79.3535283,75.6537464 C78.7870435,75.6537464 78.0916567,75.9161839 76.0940709,76.8968489 L75.8375055,77.0232058 C73.0008581,78.4243585 71.4130499,78.9929592 69.3203829,78.9929592 C67.4727987,78.9929592 66.1481588,78.5429402 63.9576781,77.4000835 L62.4470766,76.5966195 C61.0641026,75.878902 60.4017268,75.6537464 59.7334996,75.6537464 C58.7561434,75.6537464 57.875486,75.9588106 56.2681319,76.8144794 L54.5879766,77.7184874 C54.2134682,77.9136858 53.9964368,78.0140092 53.6570078,78.1611108 L53.5611913,78.2024956 C52.373954,78.7138526 51.2594414,78.9929592 50.0794185,78.9929592 C48.9035088,78.9929592 47.7923368,78.7155001 46.6096123,78.2072184 L46.0981409,77.9803081 C45.8369746,77.8582507 45.5718677,77.7214971 45.0915804,77.4632014 L44.1833593,76.9712453 C42.3882181,75.9959205 41.4610993,75.6537464 40.4253375,75.6537464 C39.6867624,75.6537464 38.9551482,75.9288842 37.2505202,76.839894 L36.8795024,77.0396529 C34.2715369,78.4480422 32.8699236,78.9929592 30.8401772,78.9929592 C28.9295355,78.9929592 27.4400894,78.5190933 25.0359207,77.3700994 L23.3759715,76.5619661 C22.0375642,75.9221328 21.4230999,75.6966298 20.9505104,75.6594804 L20.8053087,75.6537464 C19.2023425,75.6537464 17.9028815,74.3542855 17.9028815,72.7513192 C17.9028815,71.148353 19.2023425,69.8488921 20.8053087,69.8488921 C22.4793397,69.8488921 23.5117587,70.181578 25.9510298,71.3578121 L26.8934831,71.8185805 C28.9385296,72.8285958 29.9424836,73.1881048 30.8401772,73.1881048 C31.4682977,73.1881048 32.1199248,72.9713962 33.3886229,72.3191819 L34.9253259,71.5025054 C37.2222707,70.2980613 38.5269221,69.8488921 40.4253375,69.8488921 C42.5861983,69.8488921 44.1958676,70.4031011 46.5727426,71.6653903 L48.0328179,72.4530387 L48.3052595,72.5955006 C48.5410582,72.7162056 48.6851546,72.7809901 48.901588,72.8740034 C49.4167613,73.0954017 49.78802,73.1881048 50.0794185,73.1881048 C50.3359823,73.1881048 50.6540408,73.116485 51.0770627,72.9489009 L51.2649108,72.8711327 C51.57679,72.7368027 51.7380374,72.6614587 52.2414271,72.3922037 L53.2055227,71.8706059 C55.796783,70.4627387 57.4595746,69.8488921 59.7334996,69.8488921 C61.7222552,69.8488921 63.0589462,70.3416586 65.5685576,71.6796434 L66.0313111,71.9284602 C67.8083562,72.8880515 68.5795791,73.1881048 69.3203829,73.1881048 C70.175341,73.1881048 71.1268512,72.8619443 72.9816367,71.95852 L74.2092829,71.3577623 C76.6486778,70.1812789 77.6800169,69.8488921 79.3535283,69.8488921 Z M69.3865751,9.74519941 C69.913151,11.2592069 69.1126794,12.9134266 67.5986719,13.4400024 C62.3255913,15.2739938 57.3861725,19.9739381 55.9254802,24.5491274 C60.4677828,26.7283851 63.6013349,31.3689825 63.6013349,36.7433027 C63.6013349,37.1454778 63.5836254,37.5446888 63.5487825,37.9400409 C82.1546346,40.6320648 98.1119296,48.4925314 99.4025586,56.493999 C100.137117,61.0563466 97.1227935,65.3402358 91.4864961,65.8524289 C88.9326874,66.0834878 87.1106365,65.508344 84.4495684,64.0407575 L83.6583188,63.5950935 C81.5771921,62.4133832 80.6421481,62.0529158 79.353356,62.0529158 L79.208439,62.0586497 C78.711888,62.0977554 78.057767,62.3455827 76.5673136,63.0659967 L75.8378663,63.4229732 C73.0010664,64.8249243 71.4131656,65.3938515 69.3202106,65.3938515 C67.4723466,65.3938515 66.1476066,64.9435713 63.9569953,63.8000576 L62.6708533,63.1136962 C61.1332614,62.3024975 60.4364418,62.0529158 59.7333273,62.0529158 C58.6987756,62.0529158 57.7724571,62.3950578 55.9771497,63.3709762 L54.5883346,64.1186154 C54.1797726,64.3316726 53.958622,64.4317617 53.5615187,64.602887 C52.3741571,65.1145614 51.2594866,65.3938515 50.0792462,65.3938515 C49.0207322,65.3938515 48.0147036,65.1689618 46.9617863,64.7532163 L46.6089409,64.6076124 C46.076944,64.3788661 45.8593417,64.2766864 45.0908702,63.8631937 L44.182635,63.3709762 C42.3876302,62.3952223 41.460631,62.0529158 40.4251652,62.0529158 C39.7220429,62.0529158 39.0250458,62.3025756 37.4878625,63.1136571 L36.879881,63.4394197 C34.2717629,64.8486181 32.870059,65.3938515 30.8400049,65.3938515 C28.8380479,65.3938515 27.2981821,64.8733207 24.6854281,63.601134 L23.5929019,63.0659967 C21.9534031,62.2735413 21.3258666,62.0529158 20.8068594,62.0529158 C19.6351407,62.0529158 18.7556086,62.3508712 17.0412981,63.2929491 L16.0775858,63.8353076 C13.2120071,65.4544453 11.3417475,66.0939778 8.67085557,65.8523255 C3.03486597,65.3401601 0.0200393476,61.0544239 0.757667633,56.493932 C2.04601031,48.4932157 18.0055123,40.6319683 36.6121875,37.9404729 C36.5762799,37.5455746 36.558536,37.1459448 36.558536,36.7433027 C36.558536,29.2739756 42.6112867,23.2219032 50.0799354,23.2219032 L50.2635187,23.2234978 C52.1859904,16.5620542 58.6517767,10.4058252 65.6917722,7.95729614 C67.2057797,7.43072032 68.8599993,8.23119188 69.3865751,9.74519941 Z M61.7637386,43.5525057 L61.6675471,43.7167853 C61.4133586,44.1389288 61.1361083,44.5470877 60.837,44.9393919 C62.2296868,45.9433695 63.4448606,47.1903472 64.4740328,48.6746486 C65.3874043,49.9919387 65.0599634,51.8002473 63.7426733,52.7136188 C62.4253831,53.6269902 60.6170745,53.2995494 59.703703,51.9822592 C57.6998975,49.092314 54.6408,47.6345121 50.0794185,47.6345121 C48.2927082,47.6345121 46.7363773,47.8583548 45.3835469,48.3045215 C45.2735306,48.3519311 45.1607759,48.3911142 45.0461451,48.4232587 C43.1102869,49.1318696 41.6081575,50.3204793 40.4546014,51.9830271 C39.5408059,53.3000231 37.732392,53.6268817 36.4153959,52.7130862 C35.0983999,51.7992906 34.7715413,49.9908767 35.6853368,48.6738807 C36.7148374,47.1901263 37.9300214,45.9435385 39.3236281,44.9381143 C38.9861477,44.4973255 38.6765026,44.0346785 38.3963862,43.5545212 C30.1374603,44.6598054 22.2970735,46.8777241 16.1841888,49.736556 C10.3294783,52.4746467 6.79344708,55.5242501 6.4883723,57.4187857 C6.26879236,58.7763713 7.04200307,59.8755313 9.19506092,60.0711887 C10.3311437,60.1739772 11.2131011,59.895787 12.9542307,58.9312739 L13.6350781,58.5470968 C16.5354517,56.9005982 18.2283862,56.2480614 20.8068594,56.2480614 C22.6145483,56.2480614 23.6729481,56.6359679 26.5651566,58.0567874 L27.4507861,58.4901493 C29.1288074,59.2945125 30.0280553,59.5889972 30.8400049,59.5889972 C31.5047968,59.5889972 32.1961178,59.3459468 33.6183582,58.5999965 L34.2399614,58.267777 C36.9785855,56.7871713 38.3456375,56.2480614 40.4251652,56.2480614 C42.5863072,56.2480614 44.1960985,56.8025962 46.5731019,58.0656043 L48.3056135,58.9961919 C48.541406,59.1169563 48.6854954,59.1817712 48.9019148,59.2748265 C49.4169638,59.4962856 49.7880647,59.5889972 50.0792462,59.5889972 C50.3356197,59.5889972 50.6535335,59.5173707 51.0764389,59.3497435 L51.462134,59.1852331 C51.7927001,59.0367658 52.0673633,58.8892397 53.2047985,58.2709367 C55.7961952,56.8622688 57.4591062,56.2480614 59.7333273,56.2480614 C61.7223802,56.2480614 63.0591597,56.741112 65.5689161,58.0798643 L66.5355597,58.5973861 C67.9625021,59.345857 68.6537642,59.5889972 69.3202106,59.5889972 C70.1321601,59.5889972 71.0314081,59.2945125 72.7094294,58.4901493 L74.2086356,57.7577903 C76.6481787,56.5806287 77.6795701,56.2480614 79.353356,56.2480614 C81.8198219,56.2480614 83.4759262,56.8451627 86.1530384,58.3380847 L86.9374837,58.7814975 C88.8582946,59.8670807 89.7706242,60.1791094 90.9622908,60.0712922 C93.116653,59.8755165 93.8903523,58.7759523 93.671643,57.417546 C93.3662737,55.5243593 89.8308132,52.475071 83.9771911,49.7371423 C77.8644541,46.8780171 70.0236413,44.6597121 61.7637386,43.5525057 Z M50.0799354,29.0267576 C45.8170736,29.0267576 42.3633904,32.4800538 42.3633904,36.7433027 C42.3633904,37.6109325 42.5071613,38.4533447 42.7772956,39.2438351 C42.826039,39.3504881 42.8672216,39.4613576 42.9016774,39.5754571 C43.3263933,40.6592686 43.9949672,41.6334953 44.8578461,42.4262546 C46.4642722,42.0290469 48.2064607,41.8296577 50.0794185,41.8296577 C51.9529724,41.8296577 53.6956208,42.0290706 55.3021561,42.425044 C56.1807293,41.6193969 56.8572569,40.6246839 57.2827233,39.5189778 C57.3050154,39.4462419 57.3311474,39.3754472 57.3598555,39.306101 C57.6450963,38.4973793 57.7964805,37.6334462 57.7964805,36.7433027 C57.7964805,33.2179238 55.4348458,30.246392 52.2069153,29.3233898 L52.0732988,29.2867629 C51.9717406,29.2676145 51.8721908,29.2432382 51.7749151,29.2139405 C51.2297065,29.0912237 50.6623738,29.0267576 50.0799354,29.0267576 Z" fill="#00B077"></path>
    </g>
</svg>