<?xml version="1.0" encoding="UTF-8"?>
<svg width="100px" height="100px" viewBox="0 0 100 100" version="1.1" xmlns="http://www.w3.org/2000/svg" xmlns:xlink="http://www.w3.org/1999/xlink">
    <!-- Generator: Sketch 63.1 (92452) - https://sketch.com -->
    <title>Pie02</title>
    <desc>Created with Sketch.</desc>
    <g id="Pie02" stroke="none" stroke-width="1" fill="none" fill-rule="evenodd">
        <path d="M87.6869864,64.5310594 C88.309352,63.2400664 89.8604356,62.6980368 91.1514286,63.3204024 C92.3907819,63.9178734 92.9398905,65.3712509 92.4312069,66.6287531 L92.3620856,66.7848446 L86.4039684,79.1439587 C84.3623861,83.3789059 79.1659913,86.7041731 74.4422449,86.8408878 L74.141406,86.845262 L26.457416,86.845262 C21.7554244,86.845262 16.5036044,83.6082229 14.3294196,79.4130227 L14.1948564,79.1439646 L8.23673642,66.7848446 C7.61437082,65.4938516 8.15640041,63.942768 9.4473934,63.3204024 C10.6867467,62.7229314 12.1657994,63.1985671 12.8327699,64.3797618 L12.9118356,64.5310594 L18.8699584,76.8901853 C20.0537214,79.3457188 23.4409567,81.5235286 26.2076834,81.6495108 L26.457416,81.655262 L74.141406,81.655262 C76.8679329,81.655262 80.3005436,79.5496738 81.6152598,77.1125958 L81.7288664,76.8901794 L87.6869864,64.5310594 Z M50.301314,31.561728 C27.1810769,31.561728 2.60041091,42.1844651 1.09507542,51.530195 C0.383191388,55.9347719 3.28643746,60.0611235 8.75406346,60.557989 C11.2408756,60.7838972 13.0193247,60.2228766 15.6412867,58.7768773 L16.4293955,58.3330234 C18.4664625,57.1765667 19.4524069,56.779684 20.7247569,56.7459931 L20.908614,56.743608 C21.4960154,56.743608 22.1527026,56.9732859 23.8583807,57.7978112 L24.5815342,58.1516227 C27.3867177,59.537234 28.9476498,60.096348 30.982404,60.096348 C32.7729124,60.096348 34.068495,59.6556153 36.2274948,58.5288484 L37.0171006,58.108061 L37.5189554,57.839991 C39.1036627,57.0048554 39.8366234,56.743608 40.608124,56.743608 C41.5994564,56.743608 42.4810306,57.0305054 43.9779216,57.8094188 L45.6954227,58.733175 C46.2535383,59.0299136 46.4735755,59.1311412 46.9293279,59.3275849 C48.0854788,59.8259225 49.1643905,60.096348 50.301314,60.096348 C51.4382375,60.096348 52.5171492,59.8259225 53.6733001,59.3275849 L54.0975476,59.1403005 C54.3808545,59.0102532 54.6451539,58.8748874 55.1687692,58.5931837 L56.0696617,58.1050931 C57.9156873,57.1019815 58.8865443,56.743608 59.994504,56.743608 C60.7274296,56.743608 61.4255728,56.9793837 62.8522433,57.7189858 L63.7001724,58.169992 C66.2799657,59.5630615 67.6506647,60.096348 69.620224,60.096348 C71.5665106,60.096348 73.0792814,59.5847957 75.6621153,58.3276895 L76.9608587,57.6936078 C78.4366231,56.9873781 79.073408,56.7638061 79.616923,56.7449405 L79.694014,56.743608 C80.9966737,56.743608 81.9492359,57.0879245 83.889229,58.1729396 L84.5984269,58.574201 C87.4230897,60.1702488 89.2487155,60.7941658 91.8484836,60.5579964 C97.3161905,60.0611235 100.219437,55.9347719 99.5073304,51.5288177 C98.0022171,42.1844651 73.4215511,31.561728 50.301314,31.561728 Z M50.301314,36.751728 C61.3616871,36.751728 72.4317092,39.1237188 81.4831824,43.0353874 C88.9905236,46.2797467 94.0488957,50.2775704 94.3835954,52.355521 C94.6328204,53.8975317 93.7338114,55.1752832 91.3788635,55.389287 C90.1611087,55.4999109 89.2245239,55.2049138 87.427713,54.2101382 L86.7355202,53.8196231 C83.869604,52.1926232 82.2116397,51.553608 79.694014,51.553608 C78.0761824,51.553608 77.0606451,51.8820695 74.6529675,53.0434019 L73.1762619,53.764558 C71.4375193,54.5986131 70.4985395,54.906348 69.620224,54.906348 C68.8830049,54.906348 68.1506345,54.6487273 66.6622156,53.867639 L65.3769585,53.1817781 C63.1112935,51.993564 61.8350141,51.553608 59.994504,51.553608 C57.8895598,51.553608 56.3136095,52.0964903 53.9685346,53.3422925 L52.4024511,54.1861773 C52.0508162,54.3711236 51.8912527,54.44411 51.6189571,54.561478 C51.0607945,54.8020638 50.6447336,54.906348 50.301314,54.906348 C50.0008219,54.906348 49.6447137,54.8265054 49.1864565,54.6453711 L48.9836709,54.561478 C48.7113753,54.44411 48.5518118,54.3711236 48.2001769,54.1861773 L47.0109492,53.5448629 C44.4534427,52.1551397 42.8238547,51.553608 40.608124,51.553608 C38.7676139,51.553608 37.4913345,51.993564 35.2256695,53.1817781 L33.9404124,53.867639 C32.4519935,54.6487273 31.7196231,54.906348 30.982404,54.906348 C30.1040885,54.906348 29.1651087,54.5986131 27.4263661,53.764558 L25.9496605,53.0434019 C23.5419829,51.8820695 22.5264456,51.553608 20.908614,51.553608 C18.5004503,51.553608 16.8788199,52.1382646 14.2342425,53.61298 L13.451031,54.0556368 C11.4710596,55.1744001 10.5024071,55.505442 9.22368355,55.3892796 C6.86881658,55.1752832 5.96980761,53.8975317 6.21881035,52.3568983 C6.55373226,50.2775704 11.6121044,46.2797467 19.1194456,43.0353874 C28.1709188,39.1237188 39.2409409,36.751728 50.301314,36.751728 Z M79.693495,65.208671 C81.1266739,65.208671 82.288495,66.3704921 82.288495,67.803671 C82.288495,69.1817277 81.2143261,70.3088987 79.8576069,70.3935657 L79.5382582,70.404116 C78.9322202,70.4467831 78.1716694,70.7506912 76.2756933,71.6816678 L75.3172981,72.1495121 C72.9420346,73.2850584 71.4781488,73.751411 69.619705,73.751411 C67.8291966,73.751411 66.533614,73.3106783 64.3746142,72.1839114 L63.0831536,71.495054 C61.4984463,70.6599184 60.7654856,70.398671 59.993985,70.398671 C58.8868133,70.398671 57.9161333,70.7570133 56.0696574,71.760229 L54.7920118,72.449185 C54.3152224,72.7004568 54.0941915,72.8012527 53.6704095,72.9837806 C52.5151205,73.4813771 51.4368363,73.751411 50.300795,73.751411 C49.1687572,73.751411 48.0937686,73.4829869 46.9429588,72.9884206 L46.5159102,72.8003798 C46.2565546,72.6815668 46.0129449,72.5581648 45.5754372,72.3240691 L44.5332301,71.760229 C42.6870653,70.7571824 41.7156808,70.398671 40.607605,70.398671 C39.7975183,70.398671 39.0297221,70.6867889 37.2745046,71.6246177 L36.8957379,71.8285282 C34.3232532,73.2177567 32.9506092,73.751411 30.983615,73.751411 C29.0366739,73.751411 27.5227624,73.2395864 24.9403577,71.982717 L23.8581356,71.4527884 C22.3005492,70.699813 21.6184008,70.4430729 21.0650618,70.404116 L20.909825,70.398671 C19.4766461,70.398671 18.314825,69.2368499 18.314825,67.803671 C18.314825,66.3704921 19.4766461,65.208671 20.909825,65.208671 C22.5917561,65.208671 23.621123,65.56337 26.2450697,66.8417338 L26.8799248,67.1533963 C28.9762511,68.1888698 30.0165664,68.561411 30.983615,68.561411 C31.7191263,68.561411 32.4516411,68.3038585 33.9352435,67.5253519 L34.5496366,67.1970299 C37.2522798,65.7366305 38.5917477,65.208671 40.607605,65.208671 C42.7125074,65.208671 44.2889017,65.7516318 46.6340763,66.9973048 L48.3393812,67.9136248 C48.6040697,68.0500906 48.7561497,68.1186742 48.9921667,68.2201037 C49.5461329,68.4581734 49.9595804,68.561411 50.300795,68.561411 C50.6010647,68.561411 50.9569391,68.4816892 51.4147647,68.3008669 L51.6173528,68.2171195 C52.0881687,68.0143336 52.2239821,67.9430847 53.5919426,67.199853 C56.1499415,65.8100571 57.77898,65.208671 59.993985,65.208671 C61.8344951,65.208671 63.1107745,65.648627 65.3764395,66.8368411 L66.6616966,67.522702 C68.1501155,68.3037903 68.8824859,68.561411 69.619705,68.561411 C70.5427969,68.561411 71.5326462,68.2219674 73.4439857,67.2905154 L74.3582503,66.8417338 C76.982197,65.56337 78.0115639,65.208671 79.693495,65.208671 Z M37.1904474,3.85790675 C38.4504692,3.17501075 40.0255152,3.64286363 40.7084112,4.9028854 C41.3913073,6.16290718 40.9234544,7.73795324 39.6634326,8.42084925 C33.5587408,11.7294187 33.1680492,16.5546125 38.2441978,22.0339155 C39.218192,23.0852656 39.1554827,24.7271316 38.1041325,25.7011258 C37.0527824,26.67512 35.4109164,26.6124107 34.4369222,25.5610605 C27.1902078,17.7388025 27.9067347,8.88941525 37.1904474,3.85790675 Z M52.2186217,3.8566837 C53.479319,3.17503549 55.0539011,3.6444475 55.7355493,4.90514475 C56.4171975,6.165842 55.9477855,7.7404241 54.6870883,8.4220723 C48.5681618,11.7305234 48.1729327,16.5531993 53.2466717,22.0347566 C54.2202014,23.0865369 54.1567667,24.728375 53.1049864,25.7019047 C52.0532061,26.6754344 50.411368,26.6119997 49.4378383,25.5602194 C42.193425,17.7335128 42.9185688,8.88514265 52.2186217,3.8566837 Z M86.941503,91.307278 C88.3746819,91.307278 89.536503,92.4690991 89.536503,93.902278 C89.536503,95.2803347 88.4623341,96.4075057 87.1056149,96.4921727 L86.941503,96.497278 L13.656973,96.497278 C12.2237941,96.497278 11.061973,95.3354569 11.061973,93.902278 C11.061973,92.5242213 12.1361419,91.3970503 13.4928611,91.3123833 L13.656973,91.307278 L86.941503,91.307278 Z M67.2196561,3.85835317 C68.4794313,3.17500245 70.0546461,3.64228684 70.7379968,4.90206207 C71.4213476,6.1618373 70.9540632,7.73705212 69.6942879,8.42040283 C63.5953904,11.7286803 63.2004256,16.5564045 68.260047,22.0372862 C69.2321796,23.0903578 69.1665655,24.7321103 68.1134938,25.704243 C67.0604222,26.6763756 65.4186697,26.6107615 64.446537,25.5576898 C57.2232716,17.7330206 57.9468768,8.88826662 67.2196561,3.85835317 Z" id="Pie-02" fill="#00B077"></path>
    </g>
</svg>