<?xml version="1.0" encoding="UTF-8"?>
<svg width="100px" height="100px" viewBox="0 0 100 100" version="1.1" xmlns="http://www.w3.org/2000/svg" xmlns:xlink="http://www.w3.org/1999/xlink">
    <!-- Generator: Sketch 63.1 (92452) - https://sketch.com -->
    <title>Pie01</title>
    <desc>Created with Sketch.</desc>
    <g id="Pie01" stroke="none" stroke-width="1" fill="none" fill-rule="evenodd">
        <path d="M25.4777971,24.7844507 C39.2663641,10.9977508 61.6225256,10.9977508 75.4093628,24.7827206 C76.422842,25.7960625 76.4229533,27.4391256 75.4096114,28.4526048 C74.3962695,29.466084 72.7532064,29.4661953 71.7397272,28.4528534 C59.9796542,16.6943732 40.9092356,16.6943732 29.1476813,28.4543349 C17.387618,40.2159908 17.3890957,59.2845835 29.1492871,71.0447749 C40.9092321,82.8047199 59.9795548,82.8066904 71.7396029,71.0482349 C81.0818791,61.7059588 83.1812922,47.4630884 77.2037526,35.9120286 C76.5450693,34.6391821 77.0429469,33.0733679 78.3157934,32.4146846 C79.5886399,31.7560013 81.1544541,32.2538789 81.8131374,33.5267254 C88.8223599,47.0714199 86.3615547,63.7660515 75.4093628,74.7182434 C61.6222151,88.503524 39.2659578,88.501214 25.4794029,74.7146591 C11.6925592,60.9278154 11.6908268,38.5732881 25.4777971,24.7844507 Z M44.5488037,2.25389488 L40.5136871,5.18427899 C38.5601004,6.60788404 34.7001697,7.861819 32.279618,7.861819 L27.292028,7.861819 C23.1997673,7.861819 19.026466,10.894512 17.7593314,14.7842094 L16.217477,19.5257133 C15.467776,21.8312911 13.0841782,25.1139239 11.1249121,26.5385882 L7.08953577,29.4657035 C3.77643813,31.8765274 2.18365695,36.7846061 3.45035628,40.675353 L4.98934048,45.416811 C5.7403451,47.7220613 5.7403451,51.7779162 4.99050192,54.0767775 L3.44964048,58.824007 C2.18379191,62.7169073 3.77679106,67.6256577 7.08835197,70.0305953 L11.1261771,72.962949 C13.0835783,74.3862579 15.4678247,77.6688409 16.2177563,79.972303 L17.7587349,84.7145752 C19.0266035,88.6065282 23.2002046,91.642259 27.292028,91.642259 L32.279618,91.642259 C34.7036363,91.642259 38.5619345,92.8947205 40.5082891,94.3158683 L44.5526858,97.2495445 C47.8587824,99.6570176 53.0269936,99.6570176 56.3369723,97.2467231 L60.3709102,94.3206545 C62.3275683,92.8940517 66.1833351,91.642259 68.607888,91.642259 L73.597208,91.642259 C77.6877805,91.642259 81.8647402,88.6040853 83.127335,84.7136701 L84.6714016,79.9725429 C85.4179061,77.6653094 87.7998851,74.3861417 89.759604,72.9629453 L93.7974189,70.030599 C97.1085387,67.6259818 98.7034091,62.7179834 97.4396133,58.8240618 L95.8959064,54.0787188 C95.1485943,51.778971 95.1485943,47.7210085 95.8964533,45.4167562 L97.4390664,40.6747792 C98.703544,36.783529 97.1088922,31.8762031 93.7994028,29.4680012 L89.7584202,26.5368135 C87.8022509,25.1123444 85.4177021,21.8284019 84.6726568,19.5284797 L83.1263388,14.7838848 C81.8648759,10.8969509 77.6882183,7.861819 73.597208,7.861819 L68.607888,7.861819 C66.1868029,7.861819 62.3294158,6.60855721 60.3740728,5.18572116 L56.3369723,2.25389488 C53.0269936,-0.156399626 47.8587824,-0.156399626 44.5488037,2.25389488 Z M53.2818437,6.44940312 L57.3223671,9.38371901 C60.163573,11.4511686 65.0901799,13.051819 68.607888,13.051819 L73.597208,13.051819 C75.4392757,13.051819 77.6226664,14.6384655 78.190801,16.3890501 L79.7366872,21.1323132 C80.8183626,24.4714115 83.8624319,28.6636296 86.7071737,30.7351431 L90.7488758,33.6668545 C92.2389323,34.7511212 93.0728848,37.3174975 92.5033912,39.0700333 L90.9604896,43.8128988 C89.8740017,47.1605095 89.8740017,52.340747 90.9602312,55.6834647 L92.5036496,60.4279192 C93.0730198,62.182226 92.2392856,64.7479304 90.747692,65.8311627 L86.7098771,68.763509 C83.8618592,70.8318101 80.8183571,75.0216679 79.7349725,78.3701252 L78.1916244,83.1090351 C77.6222449,84.8634514 75.4379112,86.452259 73.597208,86.452259 L68.607888,86.452259 C65.0862942,86.452259 60.1595372,88.0517538 57.3184084,90.1232395 L53.2857258,93.0483935 C51.7928024,94.1355204 49.0929736,94.1355204 47.6039323,93.0512149 L43.5622302,90.1195035 C40.7317453,88.0527844 35.801211,86.452259 32.279618,86.452259 L27.292028,86.452259 C25.4491157,86.452259 23.2659619,84.8643096 22.6940846,83.1088294 L21.1532511,78.3670028 C20.0642373,75.0220269 17.0212185,70.8324593 14.1771639,68.7644282 L10.1380789,65.831159 C8.64709308,64.7483681 7.81473158,62.1834861 8.38568922,60.4276032 L9.92581552,55.682631 C11.0155309,52.3418018 11.0155309,47.1594567 9.92494451,43.8118484 L8.38611552,39.070867 C7.81486655,37.3162364 8.64744597,34.7506829 10.1400628,33.6645568 L14.1747202,30.7379645 C17.0222713,28.6673932 20.0649204,24.477131 21.1530892,21.1306532 L22.694509,16.3904847 C23.2655381,14.6376092 25.4477506,13.051819 27.292028,13.051819 L32.279618,13.051819 C35.7973232,13.051819 40.7277234,11.4501319 43.5668322,9.38122867 L47.6012289,6.45136901 C49.0929736,5.36509763 51.7928024,5.36509763 53.2818437,6.44940312 Z M44.0447408,24.185675 L44.1803921,24.3121119 L50.4439946,30.575174 L56.7072869,24.3121119 C57.7206974,23.2987014 59.3637606,23.2987014 60.3771711,24.3121119 C61.3465203,25.2814611 61.3886659,26.8269008 60.503608,27.8463448 L60.3771711,27.9819961 L54.1129946,34.245174 L65.9479946,46.080174 L72.1037679,39.9255349 C73.1171784,38.9121244 74.7602416,38.9121244 75.7736521,39.9255349 C76.7430013,40.8948841 76.7851469,42.4403238 75.900089,43.4597678 L75.7736521,43.5954191 L69.6179946,49.750174 L75.7736521,55.9053719 C76.7870626,56.9187824 76.7870626,58.5618456 75.7736521,59.5752561 C74.8043029,60.5446053 73.2588632,60.5867509 72.2394192,59.701693 L72.1037679,59.5752561 L65.9479946,53.420174 L54.1129946,65.255174 L60.3771711,71.5187949 C61.3905816,72.5322054 61.3905816,74.1752686 60.3771711,75.1886791 C59.4078219,76.1580283 57.8623822,76.2001739 56.8429382,75.315116 L56.7072869,75.1886791 L50.4439946,68.925174 L44.1803921,75.1886791 C43.1669816,76.2020896 41.5239184,76.2020896 40.5105079,75.1886791 C39.5411587,74.2193299 39.4990131,72.6738902 40.384071,71.6544462 L40.5105079,71.5187949 L46.7739946,65.255174 L34.9389946,53.420174 L28.7839111,59.5752561 C27.7705006,60.5886666 26.1274374,60.5886666 25.1140269,59.5752561 C24.1446777,58.6059069 24.1025321,57.0604672 24.98759,56.0410232 L25.1140269,55.9053719 L31.2689946,49.750174 L25.1140269,43.5954191 C24.1006164,42.5820086 24.1006164,40.9389454 25.1140269,39.9255349 C26.0833761,38.9561857 27.6288158,38.9140401 28.6482598,39.799098 L28.7839111,39.9255349 L34.9389946,46.080174 L46.7739946,34.245174 L40.5105079,27.9819961 C39.4970974,26.9685856 39.4970974,25.3255224 40.5105079,24.3121119 C41.4798571,23.3427627 43.0252968,23.3006171 44.0447408,24.185675 Z M50.4429946,37.915174 L38.6079946,49.750174 L50.4429946,61.585174 L62.2779946,49.750174 L50.4429946,37.915174 Z" id="Pie-01" fill="#00B077"></path>
    </g>
</svg>