<?xml version="1.0" encoding="UTF-8"?>
<svg width="100px" height="100px" viewBox="0 0 100 100" version="1.1" xmlns="http://www.w3.org/2000/svg" xmlns:xlink="http://www.w3.org/1999/xlink">
    <!-- Generator: Sketch 63.1 (92452) - https://sketch.com -->
    <title>PieChart01</title>
    <desc>Created with Sketch.</desc>
    <g id="PieChart01" stroke="none" stroke-width="1" fill="none" fill-rule="evenodd">
        <path d="M49.845322,0.717799751 C50.7040607,0.692323775 51.5778359,1.07871548 52.101709,1.96312521 L52.2017102,2.14667292 C52.4052472,2.553747 52.4905166,2.97415181 52.4779269,3.38108873 L52.474,3.431 L52.474,47.158 L93.678,47.162 L93.6444733,46.6272414 C92.2779162,27.2659907 78.2710148,11.0552904 59.342769,6.90251953 L58.7370144,6.77408892 C57.3410568,6.48838451 56.4410187,5.12512805 56.7267231,3.7291704 C57.0124275,2.33321275 58.3756839,1.43317467 59.7716416,1.71887908 C82.408209,6.35180411 98.914088,26.3524533 98.914088,49.742204 C98.914088,51.1123668 97.8460205,52.2330537 96.4970689,52.3171397 L96.3338969,52.322204 L56.809,52.319 L84.675,76.465 L84.711353,76.4186912 C88.7223333,71.1941516 91.5204698,65.1223896 92.857929,58.6175094 L92.9867968,57.965593 C93.2524541,56.5656819 94.602664,55.6461875 96.002575,55.9118448 C97.4024861,56.1775021 98.3219805,57.527712 98.0563232,58.927623 C96.4387178,67.451778 92.5857231,75.3364354 86.9405767,81.8436758 C86.0461185,82.8747304 84.5131162,83.0242341 83.4395199,82.2139783 L83.3021811,82.1028435 L48.2055811,51.6915235 C48.0513427,51.5578754 47.916805,51.4099431 47.8022305,51.2513959 L47.6559945,51.0245515 L47.5635889,50.8479049 L47.502151,50.7075611 C47.4003036,50.4563952 47.3368507,50.1853586 47.3191633,49.9019188 L47.314088,49.738764 L47.314,5.96 L47.0120923,5.97721644 C24.372151,7.44672061 6.41336893,26.0949061 6.04168423,49.0169445 L6.035808,49.742204 C6.035808,73.9638717 25.673425,93.600484 49.895808,93.600484 C59.7862651,93.600484 69.1698621,90.3215435 76.8097819,84.3749305 C77.934208,83.4997215 79.5552325,83.7017518 80.4304415,84.8261779 C81.3056505,85.950604 81.1036202,87.5716285 79.9791941,88.4468375 C71.4409801,95.0926473 60.944449,98.760484 49.895808,98.760484 C22.8236948,98.760484 0.875808,76.8137201 0.875808,49.742204 C0.875808,22.941403 22.3869319,1.16337175 49.0851987,0.730491207 L49.724,0.724 L49.845322,0.717799751 Z M69.46872,34.75378 C70.8936147,34.75378 72.04872,35.9088853 72.04872,37.33378 C72.04872,38.703871 70.9807602,39.8245266 69.6318833,39.9087042 L69.46872,39.91378 L61.15596,39.91378 C59.7310653,39.91378 58.57596,38.7586747 58.57596,37.33378 C58.57596,35.963689 59.6439198,34.8430334 60.9927967,34.7588558 L61.15596,34.75378 L69.46872,34.75378 Z M77.7832,25.693508 C79.2080947,25.693508 80.3632,26.8486133 80.3632,28.273508 C80.3632,29.643599 79.2952402,30.7642546 77.9463633,30.8484322 L77.7832,30.853508 L61.15596,30.853508 C59.7310653,30.853508 58.57596,29.6984027 58.57596,28.273508 C58.57596,26.903417 59.6439198,25.7827614 60.9927967,25.6985838 L61.15596,25.693508 L77.7832,25.693508 Z" id="Stroke-626" fill="#00B077"></path>
    </g>
</svg>