<?xml version="1.0" encoding="UTF-8"?>
<svg width="100px" height="100px" viewBox="0 0 100 100" version="1.1" xmlns="http://www.w3.org/2000/svg" xmlns:xlink="http://www.w3.org/1999/xlink">
    <!-- Generator: Sketch 63.1 (92452) - https://sketch.com -->
    <title>PieChart02</title>
    <desc>Created with Sketch.</desc>
    <g id="PieChart02" stroke="none" stroke-width="1" fill="none" fill-rule="evenodd">
        <path d="M50.197088,13.633384 C51.567179,13.633384 52.6878346,14.7013438 52.7720122,16.0502207 L52.777088,16.213384 L52.777,52.57 L87.1260219,40.6526502 C88.4183437,40.2042624 89.8247156,40.8431049 90.3483918,42.0859335 L90.4091818,42.2443979 C90.8575696,43.5367197 90.2187271,44.9430916 88.9758985,45.4667678 L88.8174341,45.5275578 L51.0427941,58.6339578 C49.4189279,59.1973792 47.7263576,58.0467974 47.6221577,56.3612518 L47.617088,56.196504 L47.617,18.881 L47.1291634,18.9173627 C28.1076276,20.4611789 13.1125564,36.2334566 12.7989783,55.5779273 L12.793968,56.196504 C12.793968,76.8564093 29.5371827,93.599624 50.197088,93.599624 C70.8558846,93.599624 87.600208,76.8557981 87.6002093,56.1991101 C87.5986038,54.6096068 87.4995029,53.0397039 87.3041063,51.4942943 C87.1253702,50.0806543 88.1264576,48.7897784 89.5400977,48.6110423 C90.9537377,48.4323062 92.2446136,49.4333936 92.4233497,50.8470337 C92.645748,52.6060016 92.7583849,54.3903354 92.760208,56.196504 C92.760208,79.7056218 73.7056396,98.759624 50.197088,98.759624 C26.6873933,98.759624 7.633968,79.7061987 7.633968,56.196504 C7.633968,32.6879524 26.6879702,13.633384 50.197088,13.633384 Z M59.15674,0.720312 C77.4245514,0.720312 93.4728039,12.3415146 99.3671371,29.3313931 C99.8154761,30.6236892 99.1766461,32.030007 97.9338595,32.5536835 L97.7754005,32.6144739 L60.0024805,45.7208739 C58.3786082,46.2843231 56.6860113,45.1337408 56.5818098,43.4481812 L56.57674,43.283432 L56.57674,11.310352 C56.57674,9.88545735 57.7318453,8.730352 59.15674,8.730352 C60.526831,8.730352 61.6474866,9.79831182 61.7316642,11.1471887 L61.73674,11.310352 L61.736,39.656 L93.561,28.614 L93.4649988,28.3874923 C87.6754935,15.047856 74.5296338,6.07281891 59.6377229,5.88337037 L59.15674,5.880312 C57.7318453,5.880312 56.57674,4.72520665 56.57674,3.300312 C56.57674,1.87541735 57.7318453,0.720312 59.15674,0.720312 Z" id="Stroke-593" fill="#00B077"></path>
    </g>
</svg>