<?xml version="1.0" encoding="UTF-8"?>
<svg width="100px" height="100px" viewBox="0 0 100 100" version="1.1" xmlns="http://www.w3.org/2000/svg" xmlns:xlink="http://www.w3.org/1999/xlink">
    <!-- Generator: Sketch 63.1 (92452) - https://sketch.com -->
    <title>Pitcher</title>
    <desc>Created with Sketch.</desc>
    <g id="Pitcher" stroke="none" stroke-width="1" fill="none" fill-rule="evenodd">
        <path d="M91.537818,1.6172111 C92.9200497,1.97343616 93.7517924,3.38273382 93.3955673,4.76496553 C93.0393423,6.14719723 91.6300446,6.97893996 90.2478129,6.6227149 C84.5193806,5.14639863 80.5854038,5.77760831 75.1680371,8.45215536 L74.2668489,8.90795444 C73.963109,9.06464803 73.6427121,9.23260251 73.2806998,9.42459287 L70.5918866,10.8618631 C65.8544357,13.371976 62.42372,14.7736039 58.0666583,15.663502 C49.3989251,17.4357193 42.7589592,17.3711741 34.4015222,15.868516 L33.469,15.696 L33.6393926,15.9988342 C39.1150987,25.8794586 39.7125594,37.0631612 34.4279903,44.2520135 L34.2105261,44.5412519 L33.3964667,45.6078582 C26.740531,54.4003744 23.2740059,60.8338467 22.4044678,67.7355847 C21.2448065,76.9401021 25.5761383,85.4411717 37.198655,93.5513346 L37.473,93.741 L75.278,93.741 L75.5545367,93.5512065 C87.0283358,85.5462798 91.3981085,77.1605664 90.395041,68.0937235 L90.3526596,67.7354673 C89.4486666,60.5576024 85.7347622,53.8855129 78.545434,44.540835 C71.9255449,35.9312435 74.0242528,21.3059965 83.0358906,10.1955023 C83.9350561,9.08691662 85.56266,8.91714799 86.6712457,9.81631346 C87.7798314,10.7154789 87.9496,12.3430828 87.0504345,13.4516685 C79.4071991,22.8750525 77.6771324,34.931352 82.6427673,41.3894797 L83.5010578,42.5138714 C90.6644688,51.9755924 94.4678539,59.0433677 95.4812068,67.089569 C96.930363,78.5961257 91.3690727,89.1376794 77.5226592,98.4689218 C77.1492231,98.7205843 76.717485,98.8696798 76.2706088,98.9030214 L76.0782895,98.9101853 L36.6745451,98.9101853 C36.1598194,98.9101853 35.6568172,98.7564921 35.229996,98.4688009 C21.3860312,89.1375235 15.8262625,78.595979 17.2759501,67.0894516 C17.6144989,64.4023063 18.2641278,61.8243637 19.2461088,59.2299225 C17.0432986,60.4064756 14.2968451,61.2131324 11.046865,61.5094578 C9.62536499,61.6390668 8.36794271,60.5917822 8.23833375,59.1702822 C8.10872478,57.7487821 9.15600941,56.4913599 10.5775094,56.3617509 C21.3601408,55.3786164 23.6543228,48.3391843 15.8493114,41.9408307 L15.609703,41.7471443 C5.08457483,33.3624276 1.15979259,22.9280656 4.81636881,14.9883147 C8.43982591,7.1204775 18.1472942,4.66449554 28.5569893,9.36863417 L30.44019,9.78912078 C40.7357255,12.0873022 47.5174669,12.5444063 57.0317382,10.5991046 C60.6569983,9.85867157 63.5794475,8.69555875 67.6360922,6.57622906 L71.1418937,4.70829296 C71.5006265,4.51913169 71.8248617,4.3504682 72.1408638,4.1888963 L72.3767321,4.06883757 C79.0661063,0.67933451 84.2953796,-0.249290762 91.537818,1.6172111 Z M44.7786394,34.0593253 C46.1966182,34.2230233 47.2134136,35.5052256 47.0497156,36.9232044 C46.901609,38.2061273 46.6606378,39.4440198 46.3194125,40.6288293 C45.6079025,43.0957809 44.5165503,45.5298519 43.1493486,47.8927403 C42.2812547,49.3930377 41.3531161,50.7765611 40.4228829,52.0158437 L40.0978787,52.4430994 C39.6843906,52.9791991 39.3527641,53.3797377 39.1324965,53.6295671 C38.1885101,54.7002446 36.5553022,54.8029481 35.4846247,53.8589616 C34.4604984,52.9560181 34.3220043,51.4224825 35.1380309,50.3538307 L35.515172,49.9014805 L35.8061283,49.539954 C35.9581323,49.3476691 36.1195735,49.1383031 36.2888702,48.9127613 C37.1016569,47.8299443 37.9165381,46.6152471 38.6752627,45.303969 C39.8452592,43.2819037 40.768081,41.2237104 41.352523,39.1973303 C41.611771,38.2971636 41.7983718,37.3385773 41.9147603,36.3304014 C42.0784583,34.9124227 43.3606607,33.8956273 44.7786394,34.0593253 Z M18.3003321,37.2747159 L18.8311558,37.7046917 C22.7565226,40.8338887 24.9207757,44.3686553 25.4860477,47.7422141 C26.8500835,45.732545 28.3906128,43.6292794 30.1130648,41.3900628 C34.9970218,35.0381627 33.4041236,23.2734766 26.0786765,13.923563 C8.91218018,6.41967336 1.21986377,23.2053262 18.3003321,37.2747159 Z M45.70158,22.9632108 L45.8008879,23.2957989 C45.9928709,23.9631508 46.2361332,24.9431652 46.4766674,26.1669304 C46.6048346,26.8190065 46.7206535,27.4895425 46.8212495,28.1750856 C47.0284852,29.5873583 46.0516097,30.9002292 44.639337,31.1074649 C43.2270643,31.3147006 41.9141934,30.337825 41.7069577,28.9255523 C41.6187653,28.3245373 41.5171051,27.7359735 41.4046523,27.1638479 C41.2893144,26.5770436 41.167701,26.0321658 41.045381,25.5371684 L40.8831932,24.9103092 L40.7658953,24.4988533 C40.3418393,23.1359016 41.1029647,21.6872456 42.4659164,21.2631897 C43.8288681,20.8391337 45.277524,21.6002591 45.70158,22.9632108 Z" fill="#00B077"></path>
    </g>
</svg>