<?xml version="1.0" encoding="UTF-8"?>
<svg width="100px" height="100px" viewBox="0 0 100 100" version="1.1" xmlns="http://www.w3.org/2000/svg" xmlns:xlink="http://www.w3.org/1999/xlink">
    <!-- Generator: Sketch 63.1 (92452) - https://sketch.com -->
    <title>Podcast</title>
    <desc>Created with Sketch.</desc>
    <g id="Podcast" stroke="none" stroke-width="1" fill="none" fill-rule="evenodd">
        <path d="M50.759292,85.993808 C52.129383,85.993808 53.2500386,87.0617678 53.3342162,88.4106447 L53.339292,88.573808 L53.339,92.88 L71.2512,92.880516 C72.6760947,92.880516 73.8312,94.0356213 73.8312,95.460516 C73.8312,96.830607 72.7632402,97.9512626 71.4143633,98.0354402 L71.2512,98.040516 L30.26704,98.040516 C28.8421453,98.040516 27.68704,96.8854107 27.68704,95.460516 C27.68704,94.090425 28.7549998,92.9697694 30.1038767,92.8855918 L30.26704,92.880516 L48.179,92.88 L48.179292,88.573808 C48.179292,87.1489133 49.3343973,85.993808 50.759292,85.993808 Z M80.93824,47.164464 C82.3631347,47.164464 83.51824,48.3195693 83.51824,49.744464 C83.51824,67.8361587 68.8508147,82.503584 50.75912,82.503584 C32.6674253,82.503584 18,67.8361587 18,49.744464 C18,48.3195693 19.1551053,47.164464 20.58,47.164464 C22.0048947,47.164464 23.16,48.3195693 23.16,49.744464 C23.16,64.9863693 35.5172147,77.343584 50.75912,77.343584 C66.0010253,77.343584 78.35824,64.9863693 78.35824,49.744464 C78.35824,48.3195693 79.5133453,47.164464 80.93824,47.164464 Z M50.759808,0 C62.780506,0 72.521248,9.74194874 72.521248,21.76488 C72.521248,23.1897747 71.3661427,24.34488 69.941248,24.34488 C68.5163533,24.34488 67.361248,23.1897747 67.361248,21.76488 C67.361248,12.591595 59.9305736,5.16 50.759808,5.16 C41.6944939,5.16 34.3263414,12.4209431 34.1562147,21.445638 L34.153208,21.76488 L34.153208,49.74412 C34.153208,58.9143168 41.5876736,66.34556 50.759808,66.34556 C59.8241044,66.34556 67.1882102,59.0873026 67.3582429,50.0633371 L67.361248,49.74412 L67.361248,31.19392 C67.361248,29.7690253 68.5163533,28.61392 69.941248,28.61392 C71.311339,28.61392 72.4319946,29.6818798 72.5161722,31.0307567 L72.521248,31.19392 L72.521248,49.74412 C72.521248,61.7653764 62.780461,71.50556 50.759808,71.50556 C38.8585991,71.50556 29.1883392,61.958452 28.9961241,50.1040433 L28.993208,49.74412 L28.993208,21.76488 C28.993208,9.74271831 38.73834,0 50.759808,0 Z M58.289452,43.543004 C59.7143467,43.543004 60.869452,44.6981093 60.869452,46.123004 C60.869452,47.493095 59.8014922,48.6137506 58.4526153,48.6979282 L58.289452,48.703004 L43.230852,48.703004 C41.8059573,48.703004 40.650852,47.5478987 40.650852,46.123004 C40.650852,44.752913 41.7188118,43.6322574 43.0676887,43.5480798 L43.230852,43.543004 L58.289452,43.543004 Z M58.289452,33.172608 C59.7143467,33.172608 60.869452,34.3277133 60.869452,35.752608 C60.869452,37.122699 59.8014922,38.2433546 58.4526153,38.3275322 L58.289452,38.332608 L43.230852,38.332608 C41.8059573,38.332608 40.650852,37.1775027 40.650852,35.752608 C40.650852,34.382517 41.7188118,33.2618614 43.0676887,33.1776838 L43.230852,33.172608 L58.289452,33.172608 Z M58.289452,22.805652 C59.7143467,22.805652 60.869452,23.9607573 60.869452,25.385652 C60.869452,26.755743 59.8014922,27.8763986 58.4526153,27.9605762 L58.289452,27.965652 L43.230852,27.965652 C41.8059573,27.965652 40.650852,26.8105467 40.650852,25.385652 C40.650852,24.015561 41.7188118,22.8949054 43.0676887,22.8107278 L43.230852,22.805652 L58.289452,22.805652 Z" fill="#00B077"></path>
    </g>
</svg>