<?xml version="1.0" encoding="UTF-8"?>
<svg width="100px" height="100px" viewBox="0 0 100 100" version="1.1" xmlns="http://www.w3.org/2000/svg" xmlns:xlink="http://www.w3.org/1999/xlink">
    <!-- Generator: Sketch 63.1 (92452) - https://sketch.com -->
    <title>Poison</title>
    <desc>Created with Sketch.</desc>
    <g id="Poison" stroke="none" stroke-width="1" fill="none" fill-rule="evenodd">
        <path d="M78.0666676,66.7233357 L78.3011834,66.9496645 L82.403,71.056 L82.4159264,71.0592874 C82.5159623,71.0814812 82.6559127,71.1001264 82.8341726,71.1117276 L82.9750255,71.1190531 L83.367914,71.1260315 C83.7076658,71.1242401 84.103051,71.1022423 84.7398599,71.0511162 L87.0324165,70.8559609 C87.6097307,70.8115917 88.0702059,70.7855471 88.5688136,70.7698278 C93.6242884,70.6104464 97.1619313,72.0996692 98.8444586,76.509235 C100.801534,81.6588646 97.9901146,85.4027132 92.8782706,87.5878126 C91.8170289,88.041449 90.7077956,88.406767 89.5936156,88.6968233 L89.081,88.824 L88.9554192,89.3342217 C88.7143335,90.2622377 88.421017,91.1868254 88.0679029,92.0830955 L87.8487982,92.6172603 C85.6666756,97.7291048 81.9235571,100.540239 76.7719439,98.5795501 C72.3640505,96.8984431 70.8742618,93.3608119 71.0336528,88.3049893 L71.0498296,87.8836002 C71.0752627,87.3245639 71.1171469,86.7575166 71.1874203,85.9511669 L71.3292024,84.2935062 C71.3745672,83.7030251 71.3916943,83.3353538 71.3894833,83.004799 L71.3825124,82.7123073 C71.3746139,82.5150417 71.3587987,82.3556959 71.3385693,82.2358707 L71.319,82.14 L69.2739415,80.0992342 L67.3854572,78.2114859 C66.3725991,77.1975232 66.3734945,75.5544603 67.3874571,74.5416022 C68.3573345,73.5727814 69.9027969,73.531478 70.9217584,74.4170914 L71.2173578,74.7037231 L75.1213956,78.6024673 C76.6636521,80.1468853 76.7875951,81.3462914 76.4442414,85.4129676 L76.3155873,86.9013555 C76.2638004,87.5375204 76.23611,87.9916403 76.2210755,88.4685291 C76.1235557,91.5618221 76.7335276,93.0102529 78.6197242,93.7296217 C80.5214818,94.453425 81.8467653,93.4581185 83.0755099,90.5796591 C83.4765215,89.6402487 83.7990608,88.6106019 84.0443267,87.5779179 L84.1615068,87.0554927 C84.1790393,86.9722941 84.1955834,86.8911388 84.2111547,86.8121878 L84.3105757,86.2557163 C84.4649992,85.1744487 85.2777232,84.3125334 86.3332197,84.0857101 L86.8379598,83.9980334 C87.1356894,83.9432732 87.4712865,83.8731658 87.8344465,83.7867177 C88.8678469,83.5407229 89.8982155,83.2173832 90.8383188,82.8155284 C93.7187199,81.5842774 94.7162083,80.2559642 93.9942267,78.3562158 C93.2975942,76.5304848 91.9182828,75.9004088 89.0265956,75.9500407 L88.7323549,75.9572505 C88.2551682,75.9722945 87.8007349,76.000012 87.1642111,76.0518469 L85.3521291,76.2073822 C81.6506215,76.5077277 80.4372706,76.3671599 78.9909002,74.9811678 L74.5236523,70.5114617 C73.5125914,69.4957069 73.5163966,67.8526482 74.5321513,66.8415873 C75.5037428,65.8744856 77.049276,65.8359192 78.0666676,66.7233357 Z M25.7195232,66.8407372 C26.6915638,67.8073876 26.7380061,69.3527041 25.855786,70.3746049 L25.480212,70.7613427 L22.9814133,73.2671445 L21.3884085,74.860586 C19.9276541,76.3172516 18.7766517,76.5065342 15.2147203,76.2320306 L13.0911487,76.0518502 C12.5341211,76.0064949 12.1165186,75.9796038 11.7010985,75.9635105 L11.5227948,75.9572522 C8.42899232,75.8597218 6.97986696,76.4696768 6.26107174,78.3534872 C5.53747365,80.256315 6.53479583,81.584398 9.41559157,82.8156256 C10.3557574,83.2174445 11.386193,83.5407557 12.4196606,83.7867298 C12.6920485,83.8515605 12.9489317,83.9072004 13.1859625,83.9540687 L13.742896,84.0538507 C14.8241055,84.2088064 15.685631,85.0219759 15.9119213,86.0776045 L15.9992931,86.5821087 L16.0927522,87.0554927 C16.1278172,87.2218901 16.1668357,87.396461 16.2099323,87.5779179 C16.4551982,88.6106019 16.7777375,89.6402487 17.1787491,90.5796591 C18.4074937,93.4581185 19.7327772,94.453425 21.6330532,93.7301861 C23.4606415,93.0333329 24.0908762,91.6545003 24.0410792,88.7629234 L24.0338519,88.4686925 C24.0187863,87.9917699 23.9910575,87.5375932 23.9392129,86.9013926 L23.7835965,85.0894414 C23.4744437,81.281102 23.6325158,80.1049183 25.136716,78.5986173 L29.1996479,74.5426019 C30.2130584,73.5291914 31.8561216,73.5291914 32.8695321,74.5426019 C33.8388813,75.5119511 33.8810269,77.0573908 32.995969,78.0768348 L32.8695321,78.2124861 L28.934,82.14 L28.93174,82.1532394 C28.9095367,82.2531736 28.8908729,82.3930297 28.879252,82.5712059 L28.8719116,82.711998 L28.8649663,83.0044573 C28.8625655,83.368022 28.8835664,83.7764814 28.9398411,84.477054 L29.1350819,86.7691833 C29.1794627,87.3462194 29.2055214,87.8064598 29.2212644,88.304826 C29.3809763,93.3607222 27.8908707,96.8985826 23.4806452,98.5801863 C18.3307019,100.540239 14.5875834,97.7291048 12.4054608,92.6172603 C11.9526578,91.5565233 11.5881427,90.4478409 11.2988398,89.3342217 L11.172,88.824 L10.6606473,88.6968932 C9.7321403,88.4552098 8.80706853,88.1612687 7.91034312,87.807515 L7.37590873,87.5880248 C2.26324757,85.4029169 -0.548431254,81.6587478 1.41102766,76.5060122 C3.09235549,72.0995964 6.63027911,70.6104401 11.6863254,70.7698292 L12.3186392,70.796359 C12.6011734,70.8112382 12.8929448,70.8306082 13.222871,70.8559613 L15.5157117,71.0511157 C16.4073763,71.1226936 16.8257751,71.1371785 17.2808101,71.1190526 C17.4781695,71.111191 17.6376152,71.0954099 17.7575409,71.0752047 L17.852,71.056 L22.0496532,66.8509408 C23.0602422,65.8347165 24.703299,65.8301482 25.7195232,66.8407372 Z M46.4373322,72.9013818 L46.6015204,72.9023878 C47.9786223,72.9536751 49.0650351,74.0690499 49.0991502,75.4279802 L49.0981442,75.5921684 L48.8663242,81.8167084 C48.8129854,83.2488944 47.6087296,84.366671 46.1765436,84.3133322 C44.7994417,84.2620449 43.7130289,83.1466701 43.6789138,81.7877398 L43.6799198,81.6235516 L43.9117398,75.3990116 C43.9630271,74.0219097 45.0784019,72.9354969 46.4373322,72.9013818 Z M56.3341782,75.2339678 L56.3454333,75.3977729 L56.5789833,81.6223129 C56.6327196,83.054484 55.5152773,84.25905 54.0831061,84.3127863 C52.7060185,84.3644558 51.5393646,83.3333049 51.4038878,81.9807142 L51.3926327,81.8169091 L51.1590827,75.5923691 C51.1053464,74.160198 52.2227887,72.955632 53.6549599,72.9018957 C55.0320475,72.8502262 56.1987014,73.8813771 56.3341782,75.2339678 Z M46.718251,51.198259 C46.211361,54.948899 44.161311,56.988569 41.794671,57.594069 C37.800101,58.640719 32.883441,55.611489 32.828081,49.781389 C32.724281,36.766599 48.335801,39.337379 46.718251,51.198259 Z M67.423064,49.782773 C67.376354,55.611143 62.454504,58.642103 58.461664,57.593723 C56.096754,56.989953 54.050164,54.948553 53.539814,51.197913 C51.918804,39.338763 67.533784,36.766253 67.423064,49.782773 Z M23.4861267,1.15206215 C27.7942178,2.79687826 29.3141397,6.21730541 29.2307672,11.0951025 L29.2228468,11.4224446 C29.2028174,12.0650718 29.1655779,12.6444851 29.0941832,13.4907808 L28.9418473,15.2573709 C28.875498,16.0849476 28.8583241,16.5044212 28.8707607,16.9239976 L28.8741475,17.0210105 C28.8820219,17.2179187 28.8977878,17.3769008 28.9179295,17.496332 L28.936,17.589 L31.5888434,20.2386391 C32.5993626,21.2549327 32.5946815,22.8979892 31.5783879,23.9085084 C30.606281,24.875092 29.0607275,24.9128345 28.0438091,24.0248757 L27.8628429,23.8522377 L25.1353589,21.1283681 C23.6762846,19.6692938 23.4866615,18.5200507 23.7608389,14.9576315 L23.9592763,12.6011649 C23.9937625,12.1545731 24.0154508,11.7961849 24.0291561,11.4394133 L24.0353658,11.2607613 C24.1316999,8.1699583 23.5210375,6.72079794 21.6381578,6.00191774 C19.7352187,5.27827733 18.4086767,6.27435486 17.1791242,9.15318195 C16.7778477,10.0927155 16.4550712,11.1224898 16.2096011,12.1552998 C16.1449026,12.427517 16.0893855,12.6842384 16.0426291,12.9211184 L15.943114,13.4776462 C15.7885193,14.5590515 14.9754672,15.4209304 13.9197504,15.6474656 L13.414961,15.7349854 C13.1172337,15.7896443 12.7816406,15.8596334 12.4184864,15.945948 C11.3851125,16.1915609 10.3547738,16.5144807 9.41470866,16.9158955 L8.91166072,17.1407219 C6.41948653,18.3089199 5.58144157,19.587864 6.26143176,21.3738281 C6.95766982,23.1996421 8.33650141,23.8288797 11.2302133,23.7780564 L11.5246649,23.7707263 C11.9413002,23.757432 12.3405432,23.7345066 12.8593312,23.6942617 L15.2110645,23.495606 C18.6713723,23.2285305 19.8587417,23.3999054 21.2684494,24.7489767 L24.1893433,27.6775657 C25.191304,28.7022982 25.1728437,30.3452576 24.1481113,31.3472183 C23.1679324,32.3056155 21.6221167,32.330395 20.6126809,31.4339392 L17.854,28.672 L17.839856,28.6681548 C17.7394602,28.6458858 17.5991679,28.6272038 17.4205691,28.6155931 L17.2794624,28.6082655 C16.8565438,28.5914535 16.4652165,28.6027952 15.6972785,28.6619295 L13.4772265,28.8515787 C12.7773473,28.9084409 12.2585928,28.9399491 11.6901871,28.9580862 C6.63159618,29.1194995 3.09317805,27.6316318 1.41157518,23.2217971 C-0.549599982,18.07086 2.26255523,14.3265591 7.37657586,12.1428342 C8.43777655,11.6896936 9.54695806,11.3248424 10.6610827,11.0352168 L11.172,10.908 L11.2988137,10.3981182 C11.5400931,9.46998342 11.833625,8.54527865 12.1869761,7.64889822 L12.4062257,7.11466804 C14.5892954,2.00331187 18.332801,-0.807621871 23.4861267,1.15206215 Z M87.8480333,7.11466804 C88.3011312,8.17553395 88.66591,9.28435646 88.9554453,10.3981182 L89.082,10.908 L89.5929133,11.0352252 C90.5212196,11.2765788 91.446094,11.5701722 92.3426348,11.9235656 L92.8769601,12.1428382 C97.9903855,14.3266042 100.802086,18.070972 98.8406671,23.2225498 C97.1604376,27.6314803 93.6222644,29.1195196 88.5639773,28.9580841 L87.9333751,28.9314056 C87.5107116,28.9090168 87.0673024,28.8765795 86.5058166,28.8290394 L84.5574865,28.661928 C83.8487571,28.6073436 83.4609062,28.593482 83.0729137,28.6048939 L82.9757268,28.6082645 C82.7782021,28.6161185 82.6185876,28.6319088 82.4984785,28.6521457 L82.401,28.672 L79.7758003,31.3059863 C78.7738396,32.3307187 77.1308802,32.349179 76.1061477,31.3472183 C75.1259688,30.3888212 75.0664625,28.8439526 75.9400109,27.814629 L76.0862305,27.655852 L78.86701,24.8665954 C80.3288736,23.4098396 81.4814877,23.2205604 85.0435286,23.4955846 L87.3950841,23.694261 C87.8396832,23.7287557 88.1964761,23.750527 88.5516695,23.7644155 L88.7295321,23.7707253 C91.824377,23.8694974 93.2720308,23.2606618 93.9906222,21.3750749 C94.7150268,19.4724593 93.718867,18.1458643 90.8385942,16.9158 C89.8987249,16.5144145 88.8685961,16.1915166 87.8354323,15.94592 L87.312767,15.8285756 C87.2295299,15.8110174 87.148337,15.7944483 87.0693494,15.7788528 L86.5125866,15.6792602 C85.431211,15.5245834 84.5694042,14.7114871 84.3429357,13.6557736 L84.2554816,13.1512237 C84.2008648,12.8536643 84.1309225,12.5182561 84.0446579,12.1552998 C83.7991878,11.1224898 83.4764113,10.0927155 83.0751348,9.15318195 C81.8455823,6.27435486 80.5190403,5.27827733 78.6195122,6.00061785 C76.7948724,6.69742244 76.1641395,8.07721151 76.212483,10.9668927 L76.2195619,11.2609244 C76.2344348,11.7390748 76.2620658,12.1944202 76.3138558,12.832249 L76.4691749,14.6462951 C76.7688443,18.3487763 76.6278598,19.5606098 75.239086,21.0057853 L72.3387901,23.9032881 C71.3253796,24.9166986 69.6823164,24.9166986 68.6689059,23.9032881 C67.6995567,22.9339389 67.6574111,21.3884992 68.542469,20.3690552 L68.9648883,19.9378156 L71.317,17.589 L71.3205629,17.5782666 C71.3426873,17.4786817 71.3613154,17.3391409 71.3729328,17.1612679 L71.3802765,17.0207012 L71.387255,16.728526 C71.3906006,16.2332256 71.3505216,15.6544211 71.2370302,14.3651865 L71.1605594,13.4903627 C71.0971685,12.7381598 71.0607423,12.1968553 71.0393932,11.6345734 L71.0320708,11.4222815 C70.8749229,6.37011196 72.3649676,2.83356948 76.7713548,1.15083426 C81.921458,-0.807621871 85.6649636,2.00331187 87.8480333,7.11466804 Z M77.2543776,42.6229778 C78.3756357,48.8745205 78.1821975,54.8475857 76.3100649,59.4978288 C74.2094761,64.7155408 70.1217408,67.9895097 64.213059,68.7383653 L64.003,68.762 L63.9853542,69.6697163 C63.9280467,73.2403932 63.9930377,78.2645201 64.1567623,80.8931297 L64.1770144,81.1986964 C64.2780121,82.6283122 63.2009544,83.8691196 61.7713386,83.9701174 C60.3417228,84.0711151 59.1009154,82.9940574 58.9999176,81.5644416 L58.9576144,80.8886765 C58.7363941,76.9206869 58.7052819,68.9887259 58.924866,66.110665 C59.0280693,64.7579923 60.155742,63.713079 61.512346,63.713079 C71.1015882,63.713079 74.327183,55.7009327 72.1456882,43.5380688 C70.1900153,32.6059148 61.7312858,26.5943807 50.0958657,26.7341396 C38.5281401,26.5943793 30.0686465,32.6064564 28.1086126,43.5388014 L27.9755056,44.3177461 C26.0707578,56.043189 29.3615075,63.713079 38.747276,63.713079 C40.1056141,63.713079 41.234113,64.7605814 41.3350951,66.1151606 L41.3714045,66.6921448 C41.5563138,70.1496862 41.4983669,78.1131099 41.2581542,81.5618784 C41.158572,82.9915935 39.9188317,84.0698793 38.4891166,83.9702972 C37.0594015,83.870715 35.9811157,82.6309747 36.0806978,81.2012596 L36.1196785,80.5670717 C36.2742409,77.7344917 36.3299458,72.6299423 36.2626447,69.1782524 L36.253,68.762 L36.0460581,68.7383767 C30.2593918,68.0051711 26.2188995,64.8511118 24.0803514,59.8216938 L23.9464328,59.4981255 C22.0737479,54.8481649 21.8796579,48.8756153 23.0000236,42.6231496 C25.4383952,29.0228136 36.198308,21.3758516 50.0958796,21.5445182 C64.0615252,21.3758609 74.8214189,29.0228094 77.2543776,42.6229778 Z M52.1124908,56.9577135 L52.2220436,57.0961237 L52.7592729,57.5926593 C52.8583947,57.6865907 52.9405418,57.7677739 53.0295921,57.8602255 C53.5774783,58.4290384 53.9481161,58.9766654 54.1140843,59.7639307 C54.388427,61.0652672 53.8299135,62.2681875 52.7828762,63.016598 C52.0055774,63.5722024 51.0261234,63.6375913 50.2125853,63.273984 L50.129,63.233 L50.0463447,63.273984 C49.2836527,63.6148659 48.3751362,63.5787002 47.6240765,63.115044 L47.4760538,63.016598 C46.430435,62.2692014 45.8716757,61.0687442 46.1431575,59.7687534 C46.3076742,58.980965 46.677511,58.4324643 47.2243899,57.8630056 L47.4000682,57.6857898 C47.4602699,57.6269898 47.5244691,57.5660858 47.599732,57.4959497 L48.0294318,57.0992278 L48.1386574,56.9607981 C49.1699745,55.7260328 51.0792579,55.7245508 52.1124908,56.9577135 Z" fill="#00B077"></path>
    </g>
</svg>