<?xml version="1.0" encoding="UTF-8"?>
<svg width="100px" height="100px" viewBox="0 0 100 100" version="1.1" xmlns="http://www.w3.org/2000/svg" xmlns:xlink="http://www.w3.org/1999/xlink">
    <!-- Generator: Sketch 63.1 (92452) - https://sketch.com -->
    <title>Popcorn</title>
    <desc>Created with Sketch.</desc>
    <g id="Popcorn" stroke="none" stroke-width="1" fill="none" fill-rule="evenodd">
        <path d="M49.574668,0.683536568 C52.9800009,0.683536568 56.0728173,2.02417964 58.3538766,4.20645498 C61.1864003,2.62301054 64.564302,2.15766688 67.8145734,3.02473875 C71.6797033,4.05576895 74.6506768,6.76132081 76.1553686,10.1530062 C78.4344732,10.1486792 80.6967714,10.7593894 82.7087796,11.9688124 C85.4097657,13.5877199 87.3681648,16.1085717 88.290152,19.0526949 C88.7167299,20.4148594 87.9582872,21.8649216 86.5961228,22.2914996 C85.2884449,22.7010144 83.8997604,22.0184142 83.413349,20.7579951 L83.3573181,20.5974704 C82.8104384,18.851154 81.6546781,17.3634592 80.0485431,16.4007772 C79.1724731,15.8741703 78.2207331,15.5390767 77.2441862,15.398354 C77.2360598,16.4471767 77.0959787,17.5107554 76.8133587,18.5699045 C76.4453527,19.9490464 75.0290095,20.768734 73.6498676,20.4007281 C72.3258914,20.0474424 71.5175082,18.7280091 71.780544,17.4028432 L71.819044,17.237237 C72.8915059,13.2180707 70.5028348,9.09164323 66.4822626,8.01914854 C64.7153473,7.54779019 62.8879881,7.73911957 61.3011838,8.49681617 C61.7033717,9.45943323 61.9899457,10.4812345 62.1444531,11.5457877 C65.186591,12.9606384 67.4550236,15.6439171 68.3521905,18.8910825 C68.7323267,20.2669303 67.9251429,21.6904367 66.5492951,22.0705729 C65.1734473,22.4507091 63.749941,21.6435253 63.3698047,20.2676775 C62.7893069,18.1666499 61.172178,16.5008337 59.0454372,15.8880404 C59.0210335,15.8822839 58.9968709,15.8756765 58.9728522,15.8687302 L58.9971064,15.8743205 C56.2735527,15.1133619 53.4036105,16.2634333 51.9443922,18.6158731 L51.902274,18.687368 C51.6815556,19.1403576 51.3263641,19.5336558 50.8549692,19.801084 L50.7840263,19.8401043 C50.7575368,19.8542181 50.7308216,19.8678603 50.7038945,19.8810269 L50.8549692,19.801084 C50.7974195,19.8337326 50.739148,19.8639322 50.6802751,19.8917159 C50.6350557,19.9139922 50.5885192,19.934523 50.5414512,19.9536599 C50.5373211,19.9540059 50.5333289,19.9556003 50.5293343,19.957184 L50.5414512,19.9536599 C49.8349362,20.2409141 49.008662,20.2141017 48.2933742,19.8092687 C47.8026908,19.5315555 47.437632,19.1174902 47.2188434,18.6415622 L47.3316893,18.828413 C45.9159909,16.3329658 42.9566717,15.0904735 40.1529198,15.8741757 C38.0845788,16.4525324 36.4912934,18.0234977 35.8518301,20.0254148 L35.7797035,20.2676775 C35.3995673,21.6435253 33.976061,22.4507091 32.6002131,22.0705729 C31.2243653,21.6904367 30.4171815,20.2669303 30.7973178,18.8910825 C31.6944847,15.6439171 33.9629172,12.9606384 37.0046861,11.5450166 C37.1593463,10.4809856 37.4458993,9.45908129 37.8473651,8.49710859 C36.2607549,7.73904062 34.4337813,7.54789147 32.6672053,8.01915931 C28.6466735,9.09164323 26.2580023,13.2180707 27.3304642,17.237237 C27.6984702,18.6163789 26.8787825,20.0327221 25.4996406,20.4007281 C24.1204987,20.768734 22.7041555,19.9490464 22.3361496,18.5699045 C22.0535295,17.5107554 21.9134484,16.4471767 21.9041275,15.3995166 C20.9280055,15.5391732 19.9758658,15.8741834 19.0991715,16.4011652 C16.1824866,18.1511761 14.8612933,21.584396 15.682899,24.7449978 L89.1486467,24.7451663 C90.5760432,24.7451663 91.7331767,25.9022998 91.7331767,27.3296963 C91.7331767,28.7021929 90.6633418,29.8248162 89.3120965,29.9091415 L89.1486467,29.9142263 L13.029,29.914 L23.201,93.726 L75.938,93.726 L84.749,38.479 L75.0468789,38.4785366 L70.3470019,87.9321439 C70.2119461,89.3531367 68.9505195,90.3955947 67.5295266,90.260539 C66.1631873,90.1306776 65.1468248,88.9594231 65.1907284,87.6062612 L65.2011315,87.4430637 L69.8538789,38.4785366 L60.0628789,38.4785366 L58.2200112,87.7841767 C58.1666755,89.2105764 56.9671129,90.3236646 55.5407132,90.2703289 C54.169175,90.2190445 53.0873109,89.108009 53.0535348,87.7545564 L53.054561,87.5910308 L54.8908789,38.4785366 L44.2558789,38.4785366 L46.094944,87.590945 C46.1483271,89.0173429 45.0352788,90.2169425 43.6088808,90.2703257 C42.2373444,90.3216556 41.0754957,89.2945541 40.9406942,87.9474078 L40.9295002,87.7842625 L39.0838789,38.4785366 L29.2938789,38.4785366 L33.9499194,87.4429788 C34.085022,88.8639672 33.0426056,90.1254283 31.6216172,90.2605309 C30.2552822,90.3904373 29.0364392,89.4316611 28.8245975,88.0944634 L28.8040651,87.9322287 L24.1018789,38.4785366 L19.042409,38.4793587 C17.6699123,38.4793587 16.547289,37.4095237 16.4629637,36.0582784 L16.457879,35.8948287 C16.457879,34.522332 17.5277139,33.3997088 18.8789592,33.3153834 L19.042409,33.3102987 L87.7788458,33.3102987 C89.3137888,33.3102987 90.4973982,34.6355882 90.3518478,36.1400406 L90.3311226,36.3018653 L80.6959947,96.7178386 C80.5046391,97.9177124 79.5063998,98.8144378 78.3082799,98.8901457 L78.143718,98.895332 L20.9963136,98.895332 C19.7812136,98.895332 18.7384311,98.0506893 18.4750386,96.879368 L18.4440094,96.7176661 L7.44769577,27.7365604 C7.20607137,26.2208235 8.32840202,24.8433788 9.83693787,24.7501849 L10,24.7451663 L10.4131685,24.744731 C9.66898185,19.7933868 11.9167494,14.6825106 16.4379184,11.96981 C18.4518429,10.759237 20.7147328,10.14895 22.9943293,10.1537923 C24.4982436,6.76185134 27.46941,4.05587429 31.3348945,3.02474952 C34.5851977,2.15766915 37.9631061,2.62301102 40.7963091,4.20505052 C43.0759079,2.0240612 46.168747,0.683536568 49.574668,0.683536568 Z M49.574668,5.85259657 C47.0373759,5.85259657 44.7930549,7.10705293 43.4280894,9.02958115 C43.3909402,9.09189173 43.3492422,9.15239078 43.3046402,9.21150037 L43.2307106,9.32181075 C42.9927399,9.69253034 42.7863755,10.0854739 42.6154221,10.4968369 C45.2050648,10.6706702 47.6631108,11.7212799 49.5756862,13.460405 C51.4874016,11.7210725 53.9451176,10.670911 56.5335971,10.4970544 C56.3730834,10.1105208 56.1809794,9.73996513 55.9607243,9.38885451 L55.9562319,9.34914463 C55.8680801,9.24739799 55.7892816,9.14072853 55.7197612,9.03018577 C54.3554955,7.10714238 52.1111547,5.85259657 49.574668,5.85259657 Z" fill="#00B077"></path>
    </g>
</svg>