<?xml version="1.0" encoding="UTF-8"?>
<svg width="100px" height="100px" viewBox="0 0 100 100" version="1.1" xmlns="http://www.w3.org/2000/svg" xmlns:xlink="http://www.w3.org/1999/xlink">
    <!-- Generator: Sketch 63.1 (92452) - https://sketch.com -->
    <title>Pot</title>
    <desc>Created with Sketch.</desc>
    <g id="Pot" stroke="none" stroke-width="1" fill="none" fill-rule="evenodd">
        <path d="M50.0361707,8.53725217 C55.9106454,8.53725217 60.6740962,13.2971834 60.6740962,19.1700086 C60.6740962,20.5974051 59.5169627,21.7545386 58.0895662,21.7545386 C56.7170696,21.7545386 55.5944463,20.6847036 55.510121,19.3334583 L55.5050362,19.1700086 C55.5050362,16.152832 53.0567073,13.7063122 50.0361707,13.7063122 C47.0917853,13.7063122 44.6921173,16.0341659 44.5768119,18.9502282 L44.5724743,19.1700086 C44.5724743,20.5974051 43.4153408,21.7545386 41.9879443,21.7545386 C40.5605478,21.7545386 39.4034143,20.5974051 39.4034143,19.1700086 C39.4034143,13.2972205 44.1633826,8.53725217 50.0361707,8.53725217 Z M81.334829,33.4138703 C82.7622255,33.4138703 83.919359,34.5710038 83.919359,35.9984003 C83.919359,37.370897 82.8495241,38.4935203 81.4982788,38.5778456 L81.334829,38.5829303 L21.325,38.582 L21.326767,50.0005832 C21.3279787,50.0330929 21.3285899,50.0657562 21.3285899,50.0985622 L21.3245991,50.1962522 L21.3254885,76.4428488 L21.3316495,77.0891754 C21.4659491,83.9499651 23.8221177,86.2501297 30.9677437,86.3804596 L31.6360401,86.3863972 L68.7119845,86.3863972 C76.2734141,86.3863972 78.6187216,84.2903523 78.7448516,77.0825699 L78.750299,76.4428488 L78.750299,44.7392808 C78.750299,43.3118843 79.9074325,42.1547508 81.334829,42.1547508 C82.7073257,42.1547508 83.829949,43.2245857 83.9142743,44.575831 L83.919359,44.7392808 L83.9188654,47.4538738 C90.5792203,47.1161438 93.811786,45.4090135 94.024259,43.6737558 C94.1910832,42.3113109 92.1715465,40.5647807 89.3677894,40.4660911 L89.1183996,40.4617113 C87.6910031,40.4617113 86.5338696,39.3045778 86.5338696,37.8771813 C86.5338696,36.4497848 87.6910031,35.2926513 89.1183996,35.2926513 C94.8598383,35.2926513 99.7527634,39.420084 99.1550003,44.3019877 C98.5550537,49.2017247 93.0682069,52.1791777 83.9196495,52.6247038 L83.919359,76.4428488 C83.919359,86.9186646 79.433882,91.4496682 69.0798596,91.5536239 L68.7119845,91.5554572 L31.6360401,91.5554572 C21.0354354,91.5554572 16.2690861,87.013594 16.1584039,76.8096834 L16.1564285,76.4428488 L16.155669,52.618886 C7.07766275,52.1538345 1.63496228,49.1809108 1.03724209,44.3021659 C0.439126303,39.420192 5.33169452,35.2926513 11.0731749,35.2926513 C12.5005714,35.2926513 13.6577049,36.4497848 13.6577049,37.8771813 C13.6577049,39.249678 12.5878699,40.3723013 11.2366246,40.4566266 L11.0731749,40.4617113 C8.14082894,40.4617113 5.99611124,42.2710698 6.16793971,43.6735777 C6.37929693,45.3987292 9.57499623,47.0959779 16.1553015,47.4477478 L16.1564285,35.9984003 C16.1564285,34.6259037 17.2262634,33.5032804 18.5775087,33.4189551 L18.7409585,33.4138703 L81.334829,33.4138703 Z M81.3344844,24.2027777 C82.7618809,24.2027777 83.9190144,25.3599112 83.9190144,26.7873077 C83.9190144,28.1598043 82.8491795,29.2824276 81.4979342,29.366753 L81.3344844,29.3718377 L18.7406139,29.3718377 C17.3132174,29.3718377 16.1560839,28.2147042 16.1560839,26.7873077 C16.1560839,25.4148111 17.2259188,24.2921878 18.5771641,24.2078625 L18.7406139,24.2027777 L81.3344844,24.2027777 Z" fill="#00B077"></path>
    </g>
</svg>