<?xml version="1.0" encoding="UTF-8"?>
<svg width="100px" height="100px" viewBox="0 0 100 100" version="1.1" xmlns="http://www.w3.org/2000/svg" xmlns:xlink="http://www.w3.org/1999/xlink">
    <!-- Generator: Sketch 63.1 (92452) - https://sketch.com -->
    <title>Potato</title>
    <desc>Created with Sketch.</desc>
    <g id="Potato" stroke="none" stroke-width="1" fill="none" fill-rule="evenodd">
        <path d="M62.375494,5.27748502 C72.7821579,6.24516318 82.8605804,12.0721803 88.8751415,20.4680934 C89.7063978,21.62847 89.4395931,23.2430074 88.2792166,24.0742637 C87.11884,24.90552 85.5043026,24.6387153 84.6730463,23.4783388 C79.5276758,16.2957558 70.805177,11.2526898 61.8969063,10.4243418 C52.2857631,9.53063627 43.5286591,13.4912353 37.3247635,22.4548456 L37.0358324,22.8786797 C34.4811149,26.6812132 31.3282408,30.3164822 27.5840784,33.9408717 L27.0200879,34.4778576 C22.884296,38.3598232 13.7904876,45.846363 13.346257,46.2833591 C5.47129722,54.0344987 4.16399011,63.6247877 8.75980468,72.6888613 C13.1529759,81.3532725 22.3474065,88.086352 32.4499587,89.7983039 C56.3802367,93.8525553 83.2948681,78.8512567 91.1812061,58.7713211 C95.3131767,48.2485476 94.8891949,38.7046796 89.9924148,31.2013488 C89.2123049,30.0059872 89.5489329,28.4045511 90.7442944,27.6244412 C91.939656,26.8443313 93.5410921,27.1809593 94.321202,28.3763209 C100.19906,37.3829559 100.700531,48.671122 95.9925602,60.6607796 C87.2071359,83.029939 57.916493,99.3555455 31.5864297,94.8947241 C19.8731434,92.9098215 9.28598491,85.1568476 4.14950552,75.0264504 C-1.44001829,64.0025385 0.200237511,51.9697675 9.72078203,42.5989172 L10.1445277,42.2218489 C12.1821206,40.4611168 20.4396419,33.6217983 23.8157644,30.3934073 L23.9888878,30.2268731 C27.2715808,27.049191 30.044759,23.8896661 32.3005552,20.6464063 L32.7448137,19.9966076 C40.0313134,9.14485346 50.7504207,4.19651135 62.375494,5.27748502 Z M55.7748843,63.7981804 C56.8646362,64.7200815 57.0007061,66.3508484 56.078805,67.4406003 C53.8861773,70.0324403 55.2109373,72.4389588 58.6695736,72.0698019 C60.0889082,71.9183095 61.3623152,72.9460987 61.5138076,74.3654333 C61.6653,75.784768 60.6375108,77.0581749 59.2181762,77.2096673 C51.1740081,78.0682601 46.8943353,70.2939376 52.1324644,64.1021011 C53.0543655,63.0123492 54.6851325,62.8762793 55.7748843,63.7981804 Z M23.9007373,54.6615222 C24.9904892,55.5834233 25.1265591,57.2141903 24.204658,58.3039422 C22.055023,60.8449618 23.2861913,63.2078562 26.594449,62.9516769 L26.7954266,62.9331438 C28.2147612,62.7816513 29.4881682,63.8094405 29.6396606,65.2287752 C29.791153,66.6481098 28.7633638,67.9215168 27.3440292,68.0730092 C19.2998611,68.931602 15.0201883,61.1572795 20.2583174,54.9654429 C21.1802185,53.8756911 22.8109855,53.7396211 23.9007373,54.6615222 Z M78.3390373,32.5027958 C79.3833829,33.3862844 79.5518643,34.9207973 78.7526929,36.0062694 L78.642958,36.1452157 C76.4503303,38.7370558 77.7750903,41.1435743 81.2337266,40.7744174 C82.6530612,40.6229249 83.9264682,41.6507141 84.0779606,43.0700488 C84.229453,44.4893834 83.2016638,45.7627904 81.7823292,45.9142828 C73.7381611,46.7728756 69.4584883,38.9985531 74.6966174,32.8067165 C75.6185185,31.7169646 77.2492855,31.5808947 78.3390373,32.5027958 Z M50.3130832,21.9139764 C51.4028351,22.8358775 51.538905,24.4666445 50.6170039,25.5563963 C48.4243762,28.1482364 49.7491362,30.5547549 53.2077725,30.185598 C54.6271071,30.0341055 55.9005141,31.0618947 56.0520065,32.4812294 C56.2034989,33.900564 55.1757097,35.1739709 53.7563751,35.3254634 C45.712207,36.1840562 41.4325342,28.4097337 46.6706633,22.2178971 C47.5925644,21.1281452 49.2233314,20.9920753 50.3130832,21.9139764 Z" fill="#00B077"></path>
    </g>
</svg>