<?xml version="1.0" encoding="UTF-8"?>
<svg width="100px" height="100px" viewBox="0 0 100 100" version="1.1" xmlns="http://www.w3.org/2000/svg" xmlns:xlink="http://www.w3.org/1999/xlink">
    <!-- Generator: Sketch 63.1 (92452) - https://sketch.com -->
    <title>Power</title>
    <desc>Created with Sketch.</desc>
    <g id="Power" stroke="none" stroke-width="1" fill="none" fill-rule="evenodd">
        <path d="M65.3783921,3.7554383 C85.3077481,10.3202067 99.04,28.9979898 99.04,50.317036 C99.04,77.3911321 77.0929732,99.337036 50.02,99.337036 C22.9470268,99.337036 1,77.3911321 1,50.317036 C1,28.9971733 14.7313624,10.31989 34.6616755,3.75541603 C36.0150493,3.3096535 37.4735374,4.04541777 37.9193,5.39879153 C38.3650625,6.75216529 37.6292982,8.21065343 36.2759245,8.65641597 C18.4466468,14.5288691 6.16,31.2410623 6.16,50.317036 C6.16,74.5412837 25.796757,94.177036 50.02,94.177036 C74.243243,94.177036 93.88,74.5412837 93.88,50.317036 C93.88,31.2418942 81.592459,14.5291199 63.7640079,8.6563937 C62.4106465,8.21059382 61.6749224,6.75208537 62.1207223,5.39872391 C62.5665222,4.04536245 64.0250306,3.30963843 65.3783921,3.7554383 Z M50.02,2 C51.390091,2 52.5107466,3.06795982 52.5949242,4.41683674 L52.6,4.58 L52.6,50.31824 C52.6,51.7431347 51.4448947,52.89824 50.02,52.89824 C48.649909,52.89824 47.5292534,51.8302802 47.4450758,50.4814033 L47.44,50.31824 L47.44,4.58 C47.44,3.15510535 48.5951053,2 50.02,2 Z" fill="#00B077"></path>
    </g>
</svg>