<?xml version="1.0" encoding="UTF-8"?>
<svg width="100px" height="100px" viewBox="0 0 100 100" version="1.1" xmlns="http://www.w3.org/2000/svg" xmlns:xlink="http://www.w3.org/1999/xlink">
    <!-- Generator: Sketch 63.1 (92452) - https://sketch.com -->
    <title>Icons/100px/Occasions/Winter/Presents</title>
    <desc>Created with Sketch.</desc>
    <g id="Icons/100px/Occasions/Winter/Presents" stroke="none" stroke-width="1" fill="none" fill-rule="evenodd">
        <path d="M57.8817349,2.2773381 C60.4175927,-0.283736658 63.7365084,-1.02010867 67.3696557,0.469064542 L67.3696557,0.469064542 L67.6272389,0.579078324 C72.464216,2.73195225 74.0418968,8.42944215 71.6025249,13.5211038 C69.0359763,18.8782193 62.8565171,22.29809 54.56957,22.29809 L54.56957,22.29809 L54.1276006,22.2948267 C46.0621206,22.1753274 40.0564076,18.7823665 37.537007,13.5205674 C35.0561169,8.33919823 36.7357443,2.53126394 41.7743938,0.469179545 C45.4069315,-1.02023955 48.7253813,-0.283698783 51.2605277,2.277721 C52.6113795,3.64257258 53.6942276,5.45951102 54.5708245,7.6501588 C55.44669,5.4596502 56.5301517,3.64236165 57.8817349,2.2773381 Z M50.4967888,11.741612 C48.8538152,6.21257732 46.7158123,4.05241686 43.7433262,5.27120046 L43.7433262,5.27120046 L43.5689558,5.34793867 C41.6305427,6.26278085 40.9826292,8.69896203 42.218083,11.2792226 C43.586266,14.1366894 46.786607,16.2654256 51.4890176,16.9073141 L51.4890176,16.9073141 L51.628,16.925 L51.5838589,16.6329765 C51.3541766,15.1929738 51.0575453,13.7652614 50.6877892,12.411843 L50.6877892,12.411843 Z M65.4012843,5.27131546 C62.4266201,4.05204471 60.287277,6.21266173 58.6433102,11.7419869 C58.1172929,13.5111957 57.7231406,15.430854 57.4462185,17.3539901 L57.511,16.924 L57.649866,16.9073047 C62.2314414,16.2818431 65.3876683,14.2447154 66.8130352,11.497069 L66.8130352,11.497069 L66.9219626,11.2786862 C68.1945826,8.62236713 67.4717865,6.11908033 65.4012843,5.27131546 Z M80.095374,25.068512 C81.4734307,25.068512 82.6006017,26.1426809 82.6852687,27.4994001 L82.690374,27.663512 L82.690374,58.673762 C82.690374,60.1069409 81.5285529,61.268762 80.095374,61.268762 C78.7173173,61.268762 77.5901463,60.1945931 77.5054793,58.8378739 L77.500374,58.673762 L77.499874,42.271995 L57.189874,42.271995 L57.189874,64.398995 L92.667284,64.399889 C94.0453407,64.399889 95.1725117,65.4740579 95.2571787,66.8307771 L95.262284,66.994889 L95.262284,79.836679 C95.262284,81.2147357 94.1881151,82.3419067 92.8313959,82.4265737 L92.667284,82.431679 L74.054874,82.430995 L74.054874,93.125995 L90.070874,93.125995 L90.071592,88.159882 C90.071592,86.7267031 91.2334131,85.564882 92.666592,85.564882 C94.0446487,85.564882 95.1718197,86.6390509 95.2564867,87.9957701 L95.261592,88.159882 L95.260874,93.125995 L96.962874,93.126712 C98.3960529,93.126712 99.557874,94.2885331 99.557874,95.721712 C99.557874,97.0997687 98.4837051,98.2269397 97.1269859,98.3116067 L96.962874,98.316712 L3.542874,98.316712 C2.10969507,98.316712 0.947874,97.1548909 0.947874,95.721712 C0.947874,94.3436553 2.02204289,93.2164843 3.37876212,93.1318173 L3.542874,93.126712 L5.242874,93.125995 L5.243464,61.365642 C5.243464,59.9875853 6.31763289,58.8604143 7.67435212,58.7757473 L7.838464,58.770642 L29.0181308,58.7700895 C29.0271839,58.7699966 29.036248,58.76995 29.045323,58.76995 L29.072874,58.769995 L50.252874,58.770642 C50.9264619,58.770642 51.540108,59.0272836 52.0013642,59.4481187 L51.999874,42.271995 L47.2110814,42.272348 C47.2294732,43.804908 46.900712,45.4042507 46.2036705,46.9545836 L46.0790026,47.2231184 C43.5126786,52.5806972 37.3330121,56.000912 29.045323,56.000912 L29.045323,56.000912 L28.6033552,55.9976484 C20.5379032,55.8781364 14.5321514,52.484817 12.0127354,47.2226893 C9.53182036,42.0409759 11.2115828,36.2328489 16.2496029,34.1722246 C19.8827193,32.6816068 23.2017888,33.4175954 25.7372516,35.9792697 C27.0876175,37.3435957 28.170097,39.1597397 29.0463996,41.349407 C29.9232097,39.1596943 31.0062705,37.3433333 32.3572314,35.9789215 C34.8933456,33.4175565 38.2127197,32.681692 41.8460928,34.1721671 L41.8460928,34.1721671 L42.1016678,34.2812969 C43.6270662,34.9598571 44.8284149,35.9908442 45.6819771,37.2441619 C45.9542651,37.1576735 46.2462131,37.1037285 46.5502199,37.0876023 L46.7432912,37.082497 L51.999874,37.081995 L52,30.595 C52,30.4809178 52.0073616,30.3685551 52.0216358,30.2583609 L31.639,30.258 L31.639804,31.697872 C31.639804,33.0759287 30.5656351,34.2030997 29.2089159,34.2877667 L29.044804,34.292872 C27.6667473,34.292872 26.5395763,33.2187031 26.4549093,31.8619839 L26.449804,31.697872 L26.449804,27.663512 C26.449804,26.2854553 27.5239729,25.1582843 28.8806921,25.0736173 L29.044804,25.068512 L80.095374,25.068512 Z M68.864874,82.430995 L52.847874,82.430995 L52.847874,93.125995 L68.864874,93.125995 L68.864874,82.430995 Z M26.449874,76.801995 L10.432874,76.801995 L10.432874,93.125995 L26.449874,93.125995 L26.449874,76.801995 Z M47.656874,76.801995 L31.639874,76.801995 L31.639874,93.125995 L47.657874,93.125995 L47.656874,76.801995 Z M68.864874,69.588995 L52.847874,69.588995 L52.847874,77.240995 L68.864874,77.240995 L68.864874,69.588995 Z M90.072,69.589 L74.054874,69.588995 L74.054874,77.240995 L90.072,77.241 L90.072,69.589 Z M26.449874,63.959995 L10.433,63.96 L10.432874,71.611995 L26.449874,71.611995 L26.449874,63.959995 Z M47.657,63.96 L31.639874,63.959995 L31.639874,71.611995 L47.656874,71.611995 L47.657,63.96 Z M39.8763532,38.9738569 C37.0208337,37.8024714 34.935256,39.7466008 33.3185414,44.7968273 L33.3185414,44.7968273 L33.1188723,45.4442825 C32.5929261,47.2135999 32.1988262,49.1333721 31.9219393,51.0566218 L31.986874,50.627995 L32.1258946,50.6101087 C36.5730755,50.0029888 39.6772239,48.0659041 41.1591287,45.4400151 L41.2893706,45.1994183 L41.3982884,44.9810181 C42.6707195,42.324631 41.9477338,39.8214881 39.8763532,38.9738569 Z M24.9732813,45.4437881 C23.3306387,39.9138072 21.192855,37.7539231 18.2196231,38.9737994 L18.2196231,38.9737994 L18.045205,39.0505154 C16.1062678,39.9651056 15.4583992,42.4010254 16.6938606,44.9814472 C18.0621031,47.8391994 21.2624717,49.9681586 25.9648204,50.6101148 L25.9648204,50.6101148 L26.104,50.628 L26.0598911,50.3353914 C25.8303417,48.895318 25.5338442,47.4675357 25.1642174,46.1140516 L25.1642174,46.1140516 Z M77.5,30.258 L57.1684169,30.2587677 C57.1757677,30.3155854 57.1812808,30.3729794 57.1848947,30.4308881 L57.19,30.595 L57.189874,37.081995 L77.499874,37.081995 L77.5,30.258 Z" id="Presents" fill="#00B077"></path>
    </g>
</svg>