<?xml version="1.0" encoding="UTF-8"?>
<svg width="100px" height="100px" viewBox="0 0 100 100" version="1.1" xmlns="http://www.w3.org/2000/svg" xmlns:xlink="http://www.w3.org/1999/xlink">
    <!-- Generator: Sketch 63.1 (92452) - https://sketch.com -->
    <title>Printer</title>
    <desc>Created with Sketch.</desc>
    <g id="Printer" stroke="none" stroke-width="1" fill="none" fill-rule="evenodd">
        <path d="M79.918064,0.684708 C81.3429587,0.684708 82.498064,1.83981335 82.498064,3.264708 C82.498064,4.63479901 81.4301042,5.75545465 80.0812273,5.83963216 L79.918064,5.844708 L22.452,5.844 L22.452292,17.209708 L77.337292,17.209708 L77.338064,12.295396 C77.338064,10.8705013 78.4931693,9.715396 79.918064,9.715396 C81.288155,9.715396 82.4088106,10.7833558 82.4929882,12.1322327 L82.498064,12.295396 L82.497292,17.209708 L85.977452,17.210296 C93.0997078,17.210296 98.915292,23.0238821 98.915292,30.146416 C98.915292,31.5713107 97.7601867,32.726416 96.335292,32.726416 C94.965201,32.726416 93.8445454,31.6584562 93.7603678,30.3095793 L93.755292,30.146416 C93.755292,25.956229 90.3838259,22.5053407 86.2230919,22.3741639 L85.977452,22.370296 L13.813132,22.370296 C9.62243908,22.370296 6.17038278,25.7406037 6.03916119,29.9008066 L6.035292,30.146416 L6.035292,54.152456 C6.035292,58.3430928 9.4071993,61.7952031 13.5675175,61.9264267 L13.813132,61.930296 L17.292292,61.929708 L17.292292,50.305708 L14.894324,50.30602 C13.524233,50.30602 12.4035774,49.2380602 12.3193998,47.8891833 L12.314324,47.72602 L12.314324,41.56154 C12.314324,40.1366453 13.4694293,38.98154 14.894324,38.98154 C16.264415,38.98154 17.3850706,40.0494998 17.4692482,41.3983767 L17.474324,41.56154 L17.474,45.146 L19.8396278,45.1453697 C19.8506899,45.14523 19.8617688,45.14516 19.872864,45.14516 L19.906292,45.145708 L82.316,45.146 L82.316604,41.56154 C82.316604,40.191449 83.3845638,39.0707934 84.7334407,38.9866158 L84.896604,38.98154 C86.266695,38.98154 87.3873506,40.0494998 87.4715282,41.3983767 L87.476604,41.56154 L87.476604,47.72602 C87.476604,49.096111 86.4086442,50.2167666 85.0597673,50.3009442 L84.896604,50.30602 L22.452292,50.305708 L22.452,93.564 L77.338,93.564 L77.338064,55.71456 C77.338064,54.344469 78.4060238,53.2238134 79.7549007,53.1396358 L79.918064,53.13456 C81.288155,53.13456 82.4088106,54.2025198 82.4929882,55.5513967 L82.498064,55.71456 L82.498064,96.14488 C82.498064,97.514971 81.4301042,98.6356266 80.0812273,98.7198042 L79.918064,98.72488 L19.872864,98.72488 C18.502773,98.72488 17.3821174,97.6569202 17.2979398,96.3080433 L17.292864,96.14488 L17.292292,67.089708 L13.813132,67.090296 C6.79428861,67.090296 1.04413966,61.4425163 0.878942909,54.4613021 L0.875292,54.152456 L0.875292,30.146416 C0.875292,23.1271073 6.52353001,17.3790807 13.5043058,17.2139455 L13.813132,17.210296 L17.292292,17.209708 L17.292864,3.264708 C17.292864,1.89461699 18.3608238,0.773961354 19.7097007,0.689783836 L19.872864,0.684708 L79.918064,0.684708 Z M66.133984,81.830352 C67.5588787,81.830352 68.713984,82.9854573 68.713984,84.410352 C68.713984,85.780443 67.6460242,86.9010986 66.2971473,86.9852762 L66.133984,86.990352 L33.655224,86.990352 C32.2303293,86.990352 31.075224,85.8352467 31.075224,84.410352 C31.075224,83.040261 32.1431838,81.9196054 33.4920607,81.8354278 L33.655224,81.830352 L66.133984,81.830352 Z M66.133984,69.783644 C67.5588787,69.783644 68.713984,70.9387493 68.713984,72.363644 C68.713984,73.733735 67.6460242,74.8543906 66.2971473,74.9385682 L66.133984,74.943644 L33.655224,74.943644 C32.2303293,74.943644 31.075224,73.7885387 31.075224,72.363644 C31.075224,70.993553 32.1431838,69.8728974 33.4920607,69.7887198 L33.655224,69.783644 L66.133984,69.783644 Z M96.335292,36.75758 C97.705383,36.75758 98.8260386,37.8255398 98.9102162,39.1744167 L98.915292,39.33758 L98.915292,54.15194 C98.915292,60.1932189 94.6978791,65.4143268 88.8753925,66.7603269 C87.4871105,67.0812598 86.1015181,66.2160024 85.7805851,64.8277205 C85.4596522,63.4394385 86.3249096,62.0538461 87.7131915,61.7329131 C91.1278486,60.9435375 93.6336009,57.923301 93.7509867,54.4098749 L93.755292,54.15194 L93.755292,39.33758 C93.755292,37.9126853 94.9103973,36.75758 96.335292,36.75758 Z M66.133984,57.726788 C67.5588787,57.726788 68.713984,58.8818933 68.713984,60.306788 C68.713984,61.676879 67.6460242,62.7975346 66.2971473,62.8817122 L66.133984,62.886788 L33.655224,62.886788 C32.2303293,62.886788 31.075224,61.7316827 31.075224,60.306788 C31.075224,58.936697 32.1431838,57.8160414 33.4920607,57.7318638 L33.655224,57.726788 L66.133984,57.726788 Z M84.896604,28.527208 C86.3214987,28.527208 87.476604,29.6823133 87.476604,31.107208 C87.476604,32.477299 86.4086442,33.5979546 85.0597673,33.6821322 L84.896604,33.687208 L80.395364,33.687208 C78.9704693,33.687208 77.815364,32.5321027 77.815364,31.107208 C77.815364,29.737117 78.8833238,28.6164614 80.2322007,28.5322838 L80.395364,28.527208 L84.896604,28.527208 Z" fill="#00B077"></path>
    </g>
</svg>