<?xml version="1.0" encoding="UTF-8"?>
<svg width="100px" height="100px" viewBox="0 0 100 100" version="1.1" xmlns="http://www.w3.org/2000/svg" xmlns:xlink="http://www.w3.org/1999/xlink">
    <!-- Generator: Sketch 63.1 (92452) - https://sketch.com -->
    <title>Question</title>
    <desc>Created with Sketch.</desc>
    <g id="Question" stroke="none" stroke-width="1" fill="none" fill-rule="evenodd">
        <path d="M50.02,2 C77.0992561,2 99.04,23.9418667 99.04,51.02 C99.04,78.0981333 77.0992561,100.04 50.02,100.04 C22.9430253,100.04 1,78.0969747 1,51.02 C1,23.9430253 22.9430253,2 50.02,2 Z M50.02,7.16 C25.7928147,7.16 6.16,26.7928147 6.16,51.02 C6.16,75.2471853 25.7928147,94.88 50.02,94.88 C74.2494076,94.88 93.88,75.2484031 93.88,51.02 C93.88,26.7915969 74.2494076,7.16 50.02,7.16 Z M52.7333504,76.9961132 C54.0762592,78.3403308 54.0762592,80.5169451 52.7333504,81.8597868 C51.3890657,83.2040044 49.2082148,83.2040044 47.8666819,81.8597868 C46.5237731,80.5169451 46.526525,78.3430825 47.8666819,76.9961132 C49.2095907,75.6518956 51.3890657,75.6518956 52.7333504,76.9961132 Z M70.1217727,37.8705905 C70.5000706,41.3834511 69.474212,44.3199845 67.2530778,46.7494973 C65.7929235,48.3466378 64.1239209,49.5191614 61.3876665,51.0486822 L59.0328793,52.3315512 C56.8347281,53.5276254 55.6573678,54.2833683 54.8006543,55.1097572 C53.5791212,56.2844978 52.9475999,57.37198 52.6504337,58.6094322 L52.5840911,58.9091938 C52.4334109,59.6567998 52.3934506,60.4237124 52.3944122,61.9477612 L52.396524,62.825392 C52.396524,64.2502867 51.2414187,65.405392 49.816524,65.405392 C48.3916293,65.405392 47.236524,64.2502867 47.236524,62.825392 L47.234932,61.5767557 C47.2422531,59.6884844 47.3234894,58.693731 47.6330787,57.4045466 C48.1629056,55.1982544 49.2992254,53.2415071 51.2211037,51.3932532 C52.4463692,50.2113518 53.8295119,49.3037476 56.1863043,48.0071405 L58.1088032,46.9641838 C63.6100949,43.9691216 65.3801829,42.0329706 64.9914336,38.4230576 C63.8037099,27.3932565 39.7350706,26.8984066 37.7370978,37.1360974 L37.6833551,37.4496158 C37.4747108,38.859152 36.1629164,39.8326673 34.7533802,39.6240231 C33.343844,39.4153788 32.3703287,38.1035844 32.5789729,36.6940482 C35.0265132,20.1592205 68.271783,20.6906526 70.1217727,37.8705905 Z" fill="#00B077"></path>
    </g>
</svg>