<?xml version="1.0" encoding="UTF-8"?>
<svg width="100px" height="100px" viewBox="0 0 100 100" version="1.1" xmlns="http://www.w3.org/2000/svg" xmlns:xlink="http://www.w3.org/1999/xlink">
    <!-- Generator: Sketch 63.1 (92452) - https://sketch.com -->
    <title>Quote</title>
    <desc>Created with Sketch.</desc>
    <g id="Quote" stroke="none" stroke-width="1" fill="none" fill-rule="evenodd">
        <path d="M70.548544,71.6922637 C75.6459982,71.6922637 79.267224,75.8355327 79.267224,81.2365437 C79.267224,89.2815103 73.4714632,96.1007854 65.8410504,97.9654729 C64.4568872,98.3037287 63.0605907,97.4558533 62.7223348,96.0716901 C62.384079,94.6875269 63.2319544,93.2912304 64.6161176,92.9529745 C70.0126604,91.6341906 74.107224,86.8165391 74.107224,81.2365437 C74.107224,78.5423501 72.630085,76.8522637 70.548544,76.8522637 C67.5849167,76.8522637 66.9191591,80.0836359 69.0945466,80.9469241 L69.2404533,80.9998105 C70.5937571,81.4457856 71.3292923,82.9043893 70.8833172,84.257693 C70.4373421,85.6109968 68.9787384,86.346532 67.6254347,85.9005569 C59.6044361,83.2572732 61.7614919,71.6922637 70.548544,71.6922637 Z M90.321836,71.6922637 C95.4168,71.6922637 99.040516,75.8367361 99.040516,81.2365437 C99.040516,89.2823224 93.2439057,96.1012009 85.6105775,97.9655523 C84.2263705,98.3036287 82.8301839,97.4555723 82.4921075,96.0713652 C82.154031,94.6871582 83.0020875,93.2909716 84.3862945,92.9528952 C89.7855097,91.6341998 93.880516,86.8170138 93.880516,81.2365437 C93.880516,78.543935 92.4014046,76.8522637 90.321836,76.8522637 C87.3569738,76.8522637 86.6905436,80.0835353 88.8672485,80.9467628 L89.013244,80.9996454 C90.3666389,81.4453436 91.1024725,82.9037967 90.6567743,84.2571917 C90.2110761,85.6105866 88.752623,86.3464202 87.399228,85.900722 C79.3745737,83.2580537 81.5341561,71.6922637 90.321836,71.6922637 Z M54.602768,75.4279317 C56.0276627,75.4279317 57.182768,76.5830371 57.182768,78.0079317 C57.182768,79.3780227 56.1148082,80.4986784 54.7659313,80.5828559 L54.602768,80.5879317 L16.960568,80.5879317 C15.5356733,80.5879317 14.380568,79.4328264 14.380568,78.0079317 C14.380568,76.6378407 15.4485278,75.5171851 16.7974047,75.4330075 L16.960568,75.4279317 L54.602768,75.4279317 Z M83.079088,56.1047637 C84.5039827,56.1047637 85.659088,57.2598691 85.659088,58.6847637 C85.659088,60.0548547 84.5911282,61.1755104 83.2422513,61.2596879 L83.079088,61.2647637 L16.960568,61.2647637 C15.5356733,61.2647637 14.380568,60.1096584 14.380568,58.6847637 C14.380568,57.3146727 15.4485278,56.1940171 16.7974047,56.1098395 L16.960568,56.1047637 L83.079088,56.1047637 Z M83.079088,36.7783277 C84.5039827,36.7783277 85.659088,37.9334331 85.659088,39.3583277 C85.659088,40.7284187 84.5911282,41.8490744 83.2422513,41.9332519 L83.079088,41.9383277 L16.960568,41.9383277 C15.5356733,41.9383277 14.380568,40.7832224 14.380568,39.3583277 C14.380568,37.9882367 15.4485278,36.8675811 16.7974047,36.7834035 L16.960568,36.7783277 L83.079088,36.7783277 Z M83.080292,17.4551597 C84.5051867,17.4551597 85.660292,18.6102651 85.660292,20.0351597 C85.660292,21.4052507 84.5923322,22.5259064 83.2434553,22.6100839 L83.080292,22.6151597 L45.438092,22.6151597 C44.0131973,22.6151597 42.858092,21.4600544 42.858092,20.0351597 C42.858092,18.6650687 43.9260518,17.5444131 45.2749287,17.4602355 L45.438092,17.4551597 L83.080292,17.4551597 Z M17.5484085,1.96845819 C17.886485,3.35266523 17.0384285,4.74885183 15.6542215,5.08692825 C10.2550063,6.40562358 6.16,11.2228096 6.16,16.8032797 C6.16,19.4958884 7.63911143,21.1875597 9.71868,21.1875597 C12.6835422,21.1875597 13.3499724,17.9562881 11.1732675,17.0930606 L11.027272,17.040178 C9.67387707,16.5944798 8.93804347,15.1360267 9.38374167,13.7826317 C9.82943987,12.4292368 11.287893,11.6934032 12.641288,12.1391014 C20.6659423,14.7817697 18.5063599,26.3475597 9.71868,26.3475597 C4.62371603,26.3475597 1,22.2030873 1,16.8032797 C1,8.75750098 6.79661032,1.93862253 14.4299385,0.0742711648 C15.8141455,-0.263805258 17.2103321,0.584251162 17.5484085,1.96845819 Z M37.3181812,1.96813331 C37.656437,3.3522965 36.8085616,4.74859302 35.4243984,5.08684888 C30.0278556,6.40563282 25.933292,11.2232843 25.933292,16.8032797 C25.933292,19.4974733 27.410431,21.1875597 29.491972,21.1875597 C32.4555993,21.1875597 33.1213569,17.9561875 30.9459694,17.0928994 L30.8000627,17.0400129 C29.4467589,16.5940378 28.7112237,15.1354341 29.1571988,13.7821304 C29.6031739,12.4288266 31.0617776,11.6932914 32.4150813,12.1392665 C40.4360799,14.7825502 38.2790241,26.3475597 29.491972,26.3475597 C24.3945178,26.3475597 20.773292,22.2042907 20.773292,16.8032797 C20.773292,8.75831309 26.5690528,1.93903803 34.1994656,0.0743505377 C35.5836288,-0.263905317 36.9799253,0.583970109 37.3181812,1.96813331 Z" fill="#00B077"></path>
    </g>
</svg>