<?xml version="1.0" encoding="UTF-8"?>
<svg width="100px" height="100px" viewBox="0 0 100 100" version="1.1" xmlns="http://www.w3.org/2000/svg" xmlns:xlink="http://www.w3.org/1999/xlink">
    <!-- Generator: Sketch 63.1 (92452) - https://sketch.com -->
    <title>Ramen</title>
    <desc>Created with Sketch.</desc>
    <g id="Ramen" stroke="none" stroke-width="1" fill="none" fill-rule="evenodd">
        <path d="M95.6344153,1.59886426 C97.0475378,1.59886426 98.1931,2.74442642 98.1931,4.15754896 C98.1931,5.5141466 97.1373499,6.62416059 95.8026495,6.71079115 L95.6344153,6.71623366 L51.7321002,6.71629009 C51.5253798,8.21963364 51.1204089,9.73992287 50.4747107,11.715081 L49.6974362,14.0721508 C49.5066287,14.6717051 49.4223131,14.9850941 49.3059621,15.4660802 C49.1021925,16.3084477 49.0022161,17.0346683 49.0022161,17.7185779 C49.0022161,18.3969421 49.1000935,19.1083509 49.3015788,19.9344342 L49.4839681,20.6239281 C49.6052613,21.0567821 49.7223867,21.4168138 50.0938508,22.5146896 L50.3156907,23.1693065 C51.4332506,26.4641021 51.9003529,28.4898618 51.9003529,31.1363204 C51.9003529,33.3968916 51.5198001,35.0261008 50.4522804,38.2048378 L50.0289433,39.4622055 C49.7159071,40.4101558 49.4868186,41.1724521 49.3255233,41.840365 L93.0625157,41.8348635 C94.4756382,41.8348635 95.6213127,42.9801747 95.6214513,44.3932973 C95.6215843,45.7498949 94.5659431,46.8600124 93.2312512,46.9467739 L93.0630175,46.9522329 L46.5801233,46.9573488 C46.534894,46.9597279 46.4893533,46.9609324 46.4435314,46.9609324 L46.3077637,46.9558643 L36.9605261,46.9586601 C36.9244404,46.9601699 36.8881616,46.9609324 36.8517047,46.9609324 L36.7427637,46.9568643 L27.3394994,46.9597224 C27.3131144,46.9605271 27.2866289,46.9609324 27.2600487,46.9609324 L27.1807637,46.9578643 L7.947,46.96 L7.83813137,47.3213191 C6.74579934,51.0394206 6.15324957,54.907729 6.08731753,58.8574488 L6.08113313,59.5989585 C6.08113313,72.9916543 12.169301,85.3687577 22.3972119,93.5609474 L22.588,93.711 L76.573,93.707 L76.7632633,93.5577053 C86.8470301,85.4786272 92.9065213,73.3319813 93.0728954,60.1562821 L93.0764129,59.5989585 C93.0764129,57.8845304 92.9779571,56.181326 92.782888,54.4939783 C92.6206021,53.0902054 93.6270263,51.8206638 95.0307993,51.6583779 C96.4345723,51.496092 97.7041138,52.5025161 97.8663997,53.9062891 C98.083984,55.7883932 98.1937823,57.6878142 98.1937823,59.5989585 C98.1937823,74.9759973 91.0040055,89.1656451 79.0011807,98.3025384 C78.6114118,98.5992417 78.1459093,98.7769279 77.6605828,98.8167364 L77.451535,98.8253007 L21.7097359,98.8287123 C21.1499308,98.8287123 20.605562,98.6451897 20.1600798,98.3061805 C8.1545579,89.1700543 0.963763725,74.9788575 0.963763725,59.5989585 C0.963763725,54.0724958 1.88675759,48.6728683 3.6742215,43.5579716 C4.01310282,42.5882496 4.896003,41.9209576 5.90932075,41.8497171 L6.08941116,41.8433924 L24.9111207,41.8414109 C25.1037431,40.716269 25.4388661,39.5200608 25.9563462,37.9477501 L26.6163281,35.9766008 C27.3539911,33.7204136 27.5995009,32.5571783 27.5995009,31.1363204 C27.5995009,29.2857736 27.27266,27.7757817 26.4243345,25.2247307 L25.6348752,22.8724807 C25.4760793,22.3815079 25.396678,22.0998451 25.2687142,21.6235799 C24.8964025,20.237883 24.701364,18.9892433 24.701364,17.7185779 C24.701364,17.1964831 24.7345917,16.6754264 24.7995227,16.1457395 L18.0376961,16.1454985 C16.6245736,16.1454985 15.4790114,14.9999364 15.4790114,13.5868138 C15.4790114,12.2302162 16.5347615,11.1202022 17.8694619,11.0335716 L18.0376961,11.0281291 L26.1267637,11.0278643 L26.2819264,10.5646201 C26.80779,8.98826732 27.154342,7.79574935 27.3594355,6.71576453 L18.0380373,6.71623366 C16.6249148,6.71623366 15.4793526,5.5706715 15.4793526,4.15754896 C15.4793526,2.80095132 16.5351027,1.69093733 17.8698031,1.60430676 L18.0380373,1.59886426 L95.6344153,1.59886426 Z M27.358034,52.5058454 C29.2421974,52.5056608 30.7697632,54.0329274 30.7699478,55.9170908 C30.7701323,57.8012542 29.2428657,59.32882 27.3587024,59.3290045 L27.3587024,59.3290045 L26.3587024,59.3291025 C24.474539,59.329287 22.9469732,57.8020205 22.9467886,55.9178571 C22.9466041,54.0336937 24.4738707,52.5061279 26.3580341,52.5059433 L26.3580341,52.5059433 Z M38.9676407,52.5047082 C40.8518041,52.5045237 42.3793699,54.0317903 42.3795545,55.9159536 C42.379739,57.800117 40.8524724,59.3276828 38.9683091,59.3278674 L38.9683091,59.3278674 L37.9683091,59.3279653 C36.0841457,59.3281499 34.5565799,57.8008833 34.5563953,55.9167199 C34.5562108,54.0325565 36.0834774,52.5049907 37.9676407,52.5048062 L37.9676407,52.5048062 Z M50.5772474,52.5035711 C52.4614108,52.5033865 53.9889766,54.0306531 53.9891612,55.9148165 C53.9893457,57.7989799 52.4620791,59.3265457 50.5779157,59.3267302 L50.5779157,59.3267302 L49.5779158,59.3268282 C47.6937524,59.3270127 46.1661866,57.7997461 46.166002,55.9155828 C46.1658175,54.0314194 47.693084,52.5038536 49.5772474,52.503669 L49.5772474,52.503669 Z M62.1868541,52.5024339 C64.0710175,52.5022494 65.5985833,54.029516 65.5987679,55.9136793 C65.5989524,57.7978427 64.0716858,59.3254085 62.1875224,59.3255931 L62.1875224,59.3255931 L61.1875224,59.325691 C59.3033591,59.3258756 57.7757932,57.798609 57.7756087,55.9144456 C57.7754241,54.0302822 59.3026907,52.5027164 61.1868541,52.5025319 L61.1868541,52.5025319 Z M73.7964608,52.5012968 C75.6806242,52.5011122 77.20819,54.0283788 77.2083745,55.9125422 C77.2085591,57.7967056 75.6812925,59.3242714 73.7971291,59.3244559 L73.7971291,59.3244559 L72.7971291,59.3245539 C70.9129657,59.3247384 69.3853999,57.7974718 69.3852154,55.9133085 C69.3850308,54.0291451 70.9122974,52.5015793 72.7964608,52.5013947 L72.7964608,52.5013947 Z M36.9510916,6.71576453 L32.5486175,6.71629009 C32.3418972,8.21963364 31.9369262,9.73992287 31.2912281,11.715081 L30.5139535,14.0721508 L30.4706974,14.2133294 C30.449235,14.298602 30.4234925,14.3821737 30.3937116,14.4638029 C30.2801921,14.834235 30.2105035,15.1021954 30.1224794,15.4660802 C29.9187098,16.3084477 29.8187334,17.0346683 29.8187334,17.7185779 C29.8187334,18.3969421 29.9166109,19.1083509 30.1180961,19.9344342 L30.2789849,20.5466212 C30.3655811,20.8601927 30.4425238,21.1137186 30.6007349,21.5923261 L31.132208,23.1693065 C32.2497679,26.4641021 32.7168703,28.4898618 32.7168703,31.1363204 C32.7168703,33.3027012 32.3673695,34.8892373 31.3986819,37.8154084 L30.8454606,39.4622055 C30.5321147,40.4110939 30.3028826,41.1739606 30.141562,41.8423477 L34.5027767,41.8414109 C34.6953992,40.716269 35.0305221,39.5200608 35.5480022,37.9477501 L36.10432,36.2911641 C36.9228208,33.82563 37.1911569,32.6217628 37.1911569,31.1363204 C37.1911569,29.3831708 36.897815,27.9356716 36.1456314,25.6190782 L35.2265313,22.8724807 C35.0677354,22.3815079 34.9883341,22.0998451 34.8603702,21.6235799 C34.4880585,20.237883 34.29302,18.9892433 34.29302,17.7185779 C34.29302,16.7346299 34.4110372,15.7543692 34.6368683,14.7130786 L34.7402242,14.262886 C34.9004482,13.6005324 35.0060793,13.2115435 35.2659476,12.4041146 L35.8735824,10.5646201 C36.3994461,8.98826732 36.745998,7.79574935 36.9510916,6.71576453 Z M46.5429182,6.71576453 L42.1402957,6.71612916 C41.949646,8.10269492 41.5903502,9.50366271 41.0290812,11.2626266 L40.1056095,14.0721508 C39.9148021,14.6717051 39.8304864,14.9850941 39.7141354,15.4660802 C39.5103659,16.3084477 39.4103894,17.0346683 39.4103894,17.7185779 C39.4103894,18.3969421 39.5082669,19.1083509 39.7097521,19.9344342 L39.8706409,20.5466212 C39.9788862,20.9385856 40.0720479,21.2367286 40.3277078,21.9979397 L40.7238641,23.1693065 C41.841424,26.4641021 42.3085263,28.4898618 42.3085263,31.1363204 C42.3085263,33.3968916 41.9279735,35.0261008 40.8604538,38.2048378 L40.6686392,38.7716311 C40.2338238,40.05198 39.9321838,41.0182439 39.733487,41.8412336 L44.0947734,41.8404175 C44.2874231,40.7155649 44.622501,39.5195981 45.1398288,37.9477501 L45.6961466,36.2911641 C46.4790604,33.9328271 46.75861,32.7288319 46.7814386,31.3286038 L46.7829835,31.1363204 C46.7829835,29.3831708 46.4896416,27.9356716 45.737458,25.6190782 L44.8183579,22.8724807 C44.659562,22.3815079 44.5801607,22.0998451 44.4521969,21.6235799 C44.0798851,20.237883 43.8848467,18.9892433 43.8848467,17.7185779 C43.8848467,16.7346299 44.0028639,15.7543692 44.2286949,14.7130786 L44.3979846,13.9937399 C44.5362377,13.4381125 44.6531415,13.0329776 44.9158972,12.2244373 L45.4654091,10.5646201 C45.9912727,8.98826732 46.3378247,7.79574935 46.5429182,6.71576453 Z M95.6344153,11.0281291 C97.0475378,11.0281291 98.1931,12.1736913 98.1931,13.5868138 C98.1931,14.9434115 97.1373499,16.0534254 95.8026495,16.140056 L95.6344153,16.1454985 L55.6967587,16.1454985 C54.2836362,16.1454985 53.138074,14.9999364 53.138074,13.5868138 C53.138074,12.2302162 54.1938241,11.1202022 55.5285245,11.0335716 L55.6967587,11.0281291 L95.6344153,11.0281291 Z" fill="#00B077"></path>
    </g>
</svg>