<?xml version="1.0" encoding="UTF-8"?>
<svg width="100px" height="100px" viewBox="0 0 100 100" version="1.1" xmlns="http://www.w3.org/2000/svg" xmlns:xlink="http://www.w3.org/1999/xlink">
    <!-- Generator: Sketch 63.1 (92452) - https://sketch.com -->
    <title>Redo</title>
    <desc>Created with Sketch.</desc>
    <g id="Redo" stroke="none" stroke-width="1" fill="none" fill-rule="evenodd">
        <path d="M54.2134954,3 C54.2134954,0.884928479 56.6038314,-0.309513371 58.287144,0.895896284 L58.4151828,0.993378475 L97.6216874,32.6788229 C98.8521135,33.6732139 98.8976848,35.5163907 97.7584014,36.5736548 L97.6216874,36.692066 L58.4151828,68.3775104 C56.7701642,69.7069619 54.3387028,68.5986331 54.2181579,66.5317459 L54.2134954,66.3708889 L54.2134954,58.8947222 C54.2134954,57.4698276 55.3686008,56.3147222 56.7934954,56.3147222 C58.1635864,56.3147222 59.2842421,57.382682 59.3684196,58.731559 L59.3734954,58.8947222 L59.373,60.968 L91.895,34.685 L59.373,8.402 L59.3734954,19.0476667 C59.3734954,20.4177577 58.3055356,21.5384133 56.9566587,21.6225908 L56.7934954,21.6276667 C46.2561514,21.6276667 34.5890938,24.7358682 25.7953883,30.3891502 C15.4292387,37.0533224 9.58,46.684199 9.58,59.1186111 C9.58,70.1941464 13.3439905,79.0186841 19.6334576,85.891201 C20.480661,86.8169423 21.3512412,87.6807985 22.2358413,88.4839067 L22.773,88.962 L22.6887485,88.6886517 C16.0246831,66.4442531 29.9681163,48.1616684 55.9046616,47.753632 L56.7934954,47.7466667 C58.2183901,47.7466667 59.3734954,48.901772 59.3734954,50.3266667 C59.3734954,51.7515613 58.2183901,52.9066667 56.7934954,52.9066667 C30.85813,52.9066667 18.9644822,72.1113034 30.7501223,94.8111622 C31.8856065,96.9981738 29.6019003,99.3801781 27.3690053,98.3378132 L27.0503031,98.1834133 C26.2531635,97.7845571 25.0868366,97.1145899 23.6630696,96.152908 C20.9876259,94.3457823 18.3186132,92.0975383 15.8268907,89.3748268 C8.70364012,81.5912325 4.42,71.5483953 4.42,59.1186111 C4.42,44.8317373 11.230337,33.618395 23.0050143,26.0487109 C31.7203244,20.4458276 42.8482046,17.1581971 53.3711367,16.5650834 L54.213,16.523 L54.2134954,3 Z" fill="#00B077"></path>
    </g>
</svg>