<?xml version="1.0" encoding="UTF-8"?>
<svg width="100px" height="100px" viewBox="0 0 100 100" version="1.1" xmlns="http://www.w3.org/2000/svg" xmlns:xlink="http://www.w3.org/1999/xlink">
    <!-- Generator: Sketch 63.1 (92452) - https://sketch.com -->
    <title>Refrigerator</title>
    <desc>Created with Sketch.</desc>
    <g id="Refrigerator" stroke="none" stroke-width="1" fill="none" fill-rule="evenodd">
        <path d="M70.0096272,0.731127264 C77.1229897,0.731127264 82.9322772,6.54041476 82.9322772,13.6537773 L82.9322772,13.6537773 L82.9322772,86.0206173 C82.9322772,93.1339798 77.1229897,98.9432673 70.0096272,98.9432673 L70.0096272,98.9432673 L29.3635854,98.9432673 C22.2502228,98.9432673 16.4409354,93.1339798 16.4409354,86.0206173 L16.4409354,86.0206173 L16.4409354,13.6537773 C16.4409354,6.54041476 22.2502228,0.731127264 29.3635854,0.731127264 L29.3635854,0.731127264 Z M70.0096272,5.90018726 L29.3635854,5.90018726 C25.1050159,5.90018726 21.6099954,9.39520777 21.6099954,13.6537773 L21.6099954,13.6537773 L21.6099954,86.0206173 C21.6099954,90.2791868 25.1050159,93.7742073 29.3635854,93.7742073 L29.3635854,93.7742073 L70.0096272,93.7742073 C74.2681966,93.7742073 77.7632172,90.2791868 77.7632172,86.0206173 L77.7632172,86.0206173 L77.7632172,13.6537773 C77.7632172,9.39520777 74.2681966,5.90018726 70.0096272,5.90018726 L70.0096272,5.90018726 Z M70.6993521,48.8040745 C72.0718487,48.8040745 73.194472,49.8739094 73.2787973,51.2251547 L73.2838821,51.3886045 L73.2838821,65.7448071 C73.2838821,67.1722036 72.1267486,68.3293371 70.6993521,68.3293371 C69.3268554,68.3293371 68.2042321,67.2595021 68.1199068,65.9082569 L68.1148221,65.7448071 L68.1148221,51.3886045 C68.1148221,49.961208 69.2719556,48.8040745 70.6993521,48.8040745 Z M71.7435022,28.3633713 C73.1708987,28.3633713 74.3280322,29.5205048 74.3280322,30.9479013 C74.3280322,32.3203979 73.2581972,33.4430212 71.9069519,33.5273466 L71.7435022,33.5324313 L27.6272981,33.5324313 C26.1999016,33.5324313 25.0427681,32.3752978 25.0427681,30.9479013 C25.0427681,29.5754047 26.1126031,28.4527814 27.4638484,28.3684561 L27.6272981,28.3633713 L71.7435022,28.3633713 Z" fill="#00B077"></path>
    </g>
</svg>