<?xml version="1.0" encoding="UTF-8"?>
<svg width="100px" height="100px" viewBox="0 0 100 100" version="1.1" xmlns="http://www.w3.org/2000/svg" xmlns:xlink="http://www.w3.org/1999/xlink">
    <!-- Generator: Sketch 63.1 (92452) - https://sketch.com -->
    <title>Reindeer</title>
    <desc>Created with Sketch.</desc>
    <g id="Reindeer" stroke="none" stroke-width="1" fill="none" fill-rule="evenodd">
        <path d="M49.268098,52.082769 C43.0832355,52.082769 37.876048,56.3260292 37.876048,61.845159 C37.876048,67.3681308 43.0815113,71.609279 49.268098,71.609279 C55.4546847,71.609279 60.660148,67.3681308 60.660148,61.845159 C60.660148,56.3260292 55.4529605,52.082769 49.268098,52.082769 Z M49.268098,57.272769 C52.7939876,57.272769 55.470148,59.4535326 55.470148,61.845159 C55.470148,64.2403986 52.7958529,66.419279 49.268098,66.419279 C45.7403431,66.419279 43.066048,64.2403986 43.066048,61.845159 C43.066048,59.4535326 45.7422084,57.272769 49.268098,57.272769 Z M67.62582,47.251744 C67.62582,49.639144 65.69514,51.580204 63.30774,51.580204 C60.91861,51.580204 58.97582,49.639144 58.97582,47.251744 C58.97582,44.864344 60.91861,42.930204 63.30774,42.930204 C65.69514,42.930204 67.62582,44.864344 67.62582,47.251744 M42.6608216,73.4859686 L42.8079679,73.5857198 C46.309684,76.135793 52.2242345,76.136678 55.7283187,73.58688 C56.8871662,72.7436278 58.5101887,72.9994683 59.353441,74.1583157 C60.1966932,75.3171632 59.9408527,76.9401857 58.7820053,77.783438 C53.4570768,81.6581998 45.074907,81.6569455 39.7527161,77.7811382 C38.5941833,76.9374538 38.3389483,75.3143359 39.1826328,74.1558031 C39.9911637,73.0455425 41.5155284,72.7648731 42.6608216,73.4859686 Z M35.228629,42.930204 C37.617759,42.930204 39.560549,44.864344 39.560549,47.251744 C39.560549,49.639144 37.617759,51.580204 35.228629,51.580204 C32.841229,51.580204 30.910549,49.639144 30.910549,47.251744 C30.910549,44.864344 32.841229,42.930204 35.228629,42.930204 Z M85.9857497,10.7745969 C86.9153601,14.6235795 86.9101333,18.312075 86.1732666,21.6549959 C87.4908408,21.8634671 88.804816,21.9030256 89.9987055,21.711794 C91.5997111,21.4553524 92.8243728,20.8122508 93.6863131,19.6923566 L93.8436795,19.4767671 C94.6593494,18.2983425 96.2758823,18.0042717 97.4543069,18.8199415 C98.6327315,19.6356114 98.9268023,21.2521443 98.1111325,22.4305689 C96.3729046,24.9418429 93.8305769,26.3541788 90.8195523,26.8364706 C88.714083,27.1737149 86.5434718,27.043017 84.4326885,26.6154041 C83.8616101,27.7697604 83.1924874,28.8558111 82.4386411,29.861611 L86.3318831,31.7231466 C87.6247708,32.3415664 88.1715352,33.8909873 87.5531154,35.1838751 C86.9594324,36.4250473 85.5077388,36.9785922 84.2486888,36.4737517 L84.0923869,36.4051074 L78.5726901,33.7651472 C76.9261147,35.0171571 75.0914984,35.9937084 73.1284384,36.6405155 C73.6744514,37.5470041 74.1602898,38.498688 74.5814628,39.4921709 L84.4243654,46.0871305 C87.7894137,48.3340698 90.3481997,50.0325105 91.7986147,50.978459 C95.9923879,53.7097819 96.1221226,58.2650725 92.6708424,61.3307884 C89.7691968,63.9082728 85.0395038,64.8923847 80.5523522,63.6337332 C79.1724321,63.246664 78.3675676,61.8142362 78.7546368,60.4343162 C79.141706,59.0543961 80.5741338,58.2495316 81.9540538,58.6366008 C84.7787039,59.4289185 87.6754858,58.8261823 89.2241061,57.4505681 C90.1611323,56.6182231 90.1865133,56.1600704 89.105699,55.42049 L85.3768166,52.9581127 L79.7713999,49.2200189 L76.4116381,46.9671227 C76.4823949,47.7712091 76.518417,48.5922599 76.518417,49.429468 C76.518417,74.200882 66.2797505,91.410218 49.268617,91.410218 C32.2574835,91.410218 22.018817,74.200882 22.018817,49.429468 C22.018817,48.5894842 22.0550784,47.7657651 22.1263009,46.9591257 L13.1592403,52.9582033 L9.56998466,55.327435 C8.34915028,56.1225406 8.33602096,56.583542 9.31208989,57.4505681 C10.8607102,58.8261823 13.7574921,59.4289185 16.5821422,58.6366008 C17.9620622,58.2495316 19.39449,59.0543961 19.7815592,60.4343162 C20.1686284,61.8142362 19.3637639,63.246664 17.9838438,63.6337332 C13.4966922,64.8923847 8.76699925,63.9082728 5.86535361,61.3307884 C2.47682394,58.3208128 2.54027425,53.8749364 6.5115424,51.1300864 L9.42419494,49.2080264 L15.8801011,44.9055508 L23.9561964,39.4911682 C24.3771162,38.4984129 24.8626092,37.5473986 25.4086945,36.6406208 C23.4459449,35.9943723 21.610641,35.0175827 19.9635059,33.7651472 L14.4438091,36.4051074 C13.1509213,37.0235272 11.6015004,36.4767628 10.9830806,35.1838751 C10.3893976,33.9427028 10.8695483,32.4651096 12.0527746,31.8017498 L12.2043129,31.7231466 L16.0975549,29.861611 C15.3437086,28.8558111 14.6745859,27.7697604 14.1026534,26.6148144 L14.5347921,26.5237606 C12.2893006,27.0229982 9.9658038,27.1967306 7.71664373,26.8364706 C4.70561907,26.3541788 2.16329141,24.9418429 0.42506353,22.4305689 C-0.39060633,21.2521443 -0.0965355176,19.6356114 1.08188907,18.8199415 C2.21121264,18.0382579 3.74289614,18.2757632 4.5864762,19.3340863 L4.69251647,19.4767671 C5.56021055,20.7303527 6.83642207,21.4393248 8.53749045,21.711794 C9.73152795,21.9030493 11.0456809,21.8634573 12.36392,21.6560461 C11.6260627,18.312075 11.6208359,14.6235795 12.5504463,10.7745969 C12.8869147,9.38147425 14.2890254,8.52488677 15.6821481,8.86135525 C17.0752708,9.19782373 17.9318582,10.5999344 17.5953897,11.9930571 C15.9716805,18.7159043 17.9368923,24.6807716 21.6704403,28.3895559 C22.0307538,28.5847037 22.3463376,28.8665705 22.5839325,29.2223474 C24.4176659,30.7554221 26.5923333,31.789419 28.9330525,32.1806653 C33.8194272,27.37549 40.9623558,24.631078 49.268617,24.631078 C57.5748782,24.631078 64.7178068,27.37549 69.6042627,32.1790368 L69.4210383,32.209754 C71.8314788,31.842551 74.0718722,30.7947192 75.9529392,29.2220105 C76.1898584,28.8665705 76.5054422,28.5847037 76.8645802,28.3888983 C80.5993037,24.6807716 82.5645155,18.7159043 80.9408063,11.9930571 C80.6043378,10.5999344 81.4609252,9.19782373 82.8540479,8.86135525 C84.2471706,8.52488677 85.6492813,9.38147425 85.9857497,10.7745969 Z M49.268617,29.791078 C36.2448822,29.791078 27.178817,37.4940497 27.178817,49.429468 C27.178817,71.7235103 35.8214582,86.250218 49.268617,86.250218 C62.7157758,86.250218 71.358417,71.7235103 71.358417,49.429468 C71.358417,37.4940497 62.2923518,29.791078 49.268617,29.791078 Z" fill="#00B077"></path>
    </g>
</svg>