<?xml version="1.0" encoding="UTF-8"?>
<svg width="100px" height="100px" viewBox="0 0 100 100" version="1.1" xmlns="http://www.w3.org/2000/svg" xmlns:xlink="http://www.w3.org/1999/xlink">
    <!-- Generator: Sketch 63.1 (92452) - https://sketch.com -->
    <title>Restaurant02</title>
    <desc>Created with Sketch.</desc>
    <g id="Restaurant02" stroke="none" stroke-width="1" fill="none" fill-rule="evenodd">
        <path d="M84.3272332,32.61954 C85.6997298,32.61954 86.8223531,33.6893749 86.9066785,35.0406202 L86.9117632,35.20407 L86.91147,55.3755945 L95.6907224,55.3761543 C97.063219,55.3761543 98.1858423,56.4459893 98.2701677,57.7972346 L98.2752524,57.9606843 L98.2752524,96.3288937 C98.2752524,97.7013903 97.2054174,98.8240136 95.8541722,98.9083389 L95.6907224,98.9134237 L92.5668871,98.9134237 C91.1394906,98.9134237 89.9823571,97.7562902 89.9823571,96.3288937 C89.9823571,94.956397 91.0521921,93.8337737 92.4034374,93.7494484 L92.5668871,93.7443637 L93.106,93.744 L93.106,60.545 L86.91147,60.5445945 L86.9117632,96.3282045 C86.9117632,97.7007011 85.8419282,98.8233244 84.490683,98.9076497 L84.3272332,98.9127345 L59.6949393,98.9127345 C58.3224426,98.9127345 57.1998194,97.8428995 57.115494,96.4916542 L57.1104093,96.3282045 L57.1104093,80.5608484 C57.1104093,76.2734494 53.6348038,72.7986433 49.3464812,72.7986433 C45.1410792,72.7986433 41.7182056,76.1406439 41.5881118,80.3143934 L41.5842761,80.5608484 L41.58347,93.7425945 L51.7804192,93.7435022 C53.1529159,93.7435022 54.2755392,94.8133371 54.3598645,96.1645824 L54.3649492,96.3280322 C54.3649492,97.7005288 53.2951143,98.8231521 51.943869,98.9074774 L51.7804192,98.9125622 L39.0330406,98.9125244 C39.0219591,98.9126643 39.0108608,98.9127345 38.9997461,98.9127345 L38.97147,98.9115945 L14.3633169,98.9125622 C12.9908203,98.9125622 11.868197,97.8427272 11.7838716,96.4914819 L11.7787869,96.3280322 L11.77847,60.5445945 L5.584,60.545 L5.584,93.744 L6.12383526,93.7443637 C7.4963319,93.7443637 8.61895519,94.8141986 8.70328051,96.1654439 L8.70836526,96.3288937 C8.70836526,97.7013903 7.6385303,98.8240136 6.28728501,98.9083389 L6.12383526,98.9134237 L3,98.9134237 C1.62750336,98.9134237 0.504880066,97.8435887 0.420554749,96.4923434 L0.41547,96.3288937 L0.41547,57.9606843 C0.41547,56.5881877 1.48530496,55.4655644 2.83655025,55.3812391 L3,55.3761543 L11.77847,55.3755945 L11.7787869,35.2038977 C11.7787869,33.7765012 12.9359204,32.6193677 14.3633169,32.6193677 C15.7358135,32.6193677 16.8584368,33.6892026 16.9427622,35.0404479 L16.9478469,35.2038977 L16.947,93.743 L36.41447,93.7425945 L36.4152161,80.5608484 C36.4152161,73.4181946 42.2038273,67.6295833 49.3464812,67.6295833 C56.3858111,67.6295833 62.1113551,73.2518145 62.2758343,80.2511732 L62.2794693,80.5608484 L62.279,93.743 L81.742,93.743 L81.7427032,35.20407 C81.7427032,33.8315733 82.8125382,32.70895 84.1637835,32.6246247 L84.3272332,32.61954 Z M44.530468,59.1805825 C45.9578645,59.1805825 47.114998,60.337716 47.114998,61.7651125 C47.114998,63.1376091 46.045163,64.2602324 44.6939177,64.3445577 L44.530468,64.3496425 L23.8352747,64.3496425 C22.4078782,64.3496425 21.2507447,63.192509 21.2507447,61.7651125 C21.2507447,60.3926158 22.3205797,59.2699925 23.671825,59.1856672 L23.8352747,59.1805825 L44.530468,59.1805825 Z M74.8587214,59.1805825 C76.2861179,59.1805825 77.4432514,60.337716 77.4432514,61.7651125 C77.4432514,63.1376091 76.3734164,64.2602324 75.0221711,64.3445577 L74.8587214,64.3496425 L54.1635282,64.3496425 C52.7361317,64.3496425 51.5789982,63.192509 51.5789982,61.7651125 C51.5789982,60.3926158 52.6488331,59.2699925 54.0000784,59.1856672 L54.1635282,59.1805825 L74.8587214,59.1805825 Z M34.1837329,34.6878532 C41.2226773,34.6878532 46.9469221,40.3113779 47.1113638,47.3111485 L47.114998,47.6208413 L47.114998,54.0115225 C47.114998,55.438919 45.9578645,56.5960525 44.530468,56.5960525 C43.1579713,56.5960525 42.035348,55.5262175 41.9510227,54.1749722 L41.945938,54.0115225 L41.945938,47.6208413 C41.945938,43.3325187 38.4711319,39.8569132 34.1837329,39.8569132 C29.9783309,39.8569132 26.5537999,43.2005711 26.4236424,47.3743843 L26.4198047,47.6208413 L26.4198047,54.0115225 C26.4198047,55.438919 25.2626713,56.5960525 23.8352747,56.5960525 C22.4627781,56.5960525 21.3401548,55.5262175 21.2558295,54.1749722 L21.2507447,54.0115225 L21.2507447,47.6208413 C21.2507447,40.4781874 27.041079,34.6878532 34.1837329,34.6878532 Z M64.5102633,34.6878532 C71.5494004,34.6878532 77.2751316,40.3115679 77.4396163,47.3111568 L77.4432514,47.6208413 L77.4432514,54.0115225 C77.4432514,55.438919 76.2861179,56.5960525 74.8587214,56.5960525 C73.4862248,56.5960525 72.3636015,55.5262175 72.2792762,54.1749722 L72.2741914,54.0115225 L72.2741914,47.6208413 C72.2741914,43.3329805 68.7981241,39.8569132 64.5102633,39.8569132 C60.3053142,39.8569132 56.8820051,43.2001269 56.7518944,47.3743587 L56.7480582,47.6208413 L56.7480582,54.0115225 C56.7480582,55.438919 55.5909247,56.5960525 54.1635282,56.5960525 C52.7910315,56.5960525 51.6684082,55.5262175 51.5840829,54.1749722 L51.5789982,54.0115225 L51.5789982,47.6208413 C51.5789982,40.4779918 57.367805,34.6878532 64.5102633,34.6878532 Z M86.0402597,24.7041584 C87.4676562,24.7041584 88.6247897,25.8612919 88.6247897,27.2886884 C88.6247897,28.661185 87.5549547,29.7838083 86.2037094,29.8681336 L86.0402597,29.8732184 L12.6533919,29.8732184 C11.2259953,29.8732184 10.0688619,28.7160849 10.0688619,27.2886884 C10.0688619,25.9161917 11.1386968,24.7935685 12.4899421,24.7092431 L12.6533919,24.7041584 L86.0402597,24.7041584 Z M19.8201212,0.700594466 C23.1437691,0.700594466 25.7047415,1.00763541 27.6689053,1.78581046 C30.5374755,2.92229909 32.1522476,5.17767081 31.7601795,8.21725133 C31.3467393,11.429364 29.0960221,13.1718001 25.1369783,13.9459648 L24.798,14.008 L24.8843385,14.0762126 C25.8959667,14.8580182 26.8683896,15.4904795 27.7618475,15.9316327 L28.0566877,16.0715408 C28.4353784,16.2437614 28.7896732,16.3750037 29.1148406,16.4646544 L29.3531809,16.5240843 C30.7467208,16.8331271 31.6258793,18.2133431 31.3168365,19.606883 C31.0077937,21.0004228 29.6275777,21.8795814 28.2340379,21.5705385 C27.4727474,21.4017085 26.7012393,21.1336101 25.9168047,20.7768657 C24.2907284,20.0373603 22.6321539,18.9313478 20.9549504,17.5534519 L20.5986411,19.593769 C20.2967458,21.3242822 18.6491531,22.4824058 16.9186399,22.1805105 C15.2477996,21.8890253 14.1105543,20.3430494 14.3058397,18.6791803 L14.3318985,18.5005092 L15.9015697,9.50289879 C16.203465,7.77238559 17.8510577,6.61426199 19.5815709,6.91615735 C20.8144419,7.1312369 21.7567921,8.02933546 22.087655,9.15383327 C25.178219,8.89408304 26.5430887,8.25911809 26.6335019,7.55667793 C26.753056,6.62981172 24.9752708,5.90333567 20.1609455,5.87079279 L16.5549983,5.86965447 C15.1276018,5.86965447 13.9704683,4.71252097 13.9704683,3.28512447 C13.9704683,1.91262783 15.0403033,0.790004532 16.3915486,0.705679215 L16.5549983,0.700594466 L19.8201212,0.700594466 Z M71.6988351,11.6124801 C73.6020305,11.6124801 75.1448751,13.1553248 75.1448751,15.0585201 C75.1448751,16.9617155 73.6020305,18.5045601 71.6988351,18.5045601 L71.6988351,18.5045601 L70.6988351,18.5045601 C68.7956398,18.5045601 67.2527951,16.9617155 67.2527951,15.0585201 C67.2527951,13.1553248 68.7956398,11.6124801 70.6988351,11.6124801 L70.6988351,11.6124801 Z M60.8059022,11.6124801 C62.7090976,11.6124801 64.2519422,13.1553248 64.2519422,15.0585201 C64.2519422,16.9617155 62.7090976,18.5045601 60.8059022,18.5045601 L60.8059022,18.5045601 L59.8059022,18.5045601 C57.9027069,18.5045601 56.3598622,16.9617155 56.3598622,15.0585201 C56.3598622,13.1553248 57.9027069,11.6124801 59.8059022,11.6124801 L59.8059022,11.6124801 Z M49.9129693,11.6124801 C51.8161647,11.6124801 53.3590093,13.1553248 53.3590093,15.0585201 C53.3590093,16.9617155 51.8161647,18.5045601 49.9129693,18.5045601 L49.9129693,18.5045601 L48.9129693,18.5045601 C47.009774,18.5045601 45.4669293,16.9617155 45.4669293,15.0585201 C45.4669293,13.1553248 47.009774,11.6124801 48.9129693,11.6124801 L48.9129693,11.6124801 Z" id="Restaurant-02" fill="#00B077"></path>
    </g>
</svg>