<?xml version="1.0" encoding="UTF-8"?>
<svg width="100px" height="100px" viewBox="0 0 100 100" version="1.1" xmlns="http://www.w3.org/2000/svg" xmlns:xlink="http://www.w3.org/1999/xlink">
    <!-- Generator: Sketch 63.1 (92452) - https://sketch.com -->
    <title>Restaurant01</title>
    <desc>Created with Sketch.</desc>
    <g id="Restaurant01" stroke="none" stroke-width="1" fill="none" fill-rule="evenodd">
        <path d="M83.530468,53.3945035 C84.9029646,53.3945035 86.0255879,54.4643385 86.1099132,55.8155838 L86.114998,55.9790335 L86.114998,96.3597303 C86.114998,97.7322269 85.045163,98.8548502 83.6939177,98.9391755 L83.530468,98.9442603 L60.964075,98.9442603 C59.5915784,98.9442603 58.4689551,97.8744253 58.3846298,96.52318 L58.379545,96.3597303 L58.379,63.534 L40.425,63.534 L40.4251397,93.7743376 L52.1761561,93.7752003 C53.5486527,93.7752003 54.671276,94.8450352 54.7556014,96.1962805 L54.7606861,96.3597303 C54.7606861,97.7322269 53.6908511,98.8548502 52.3396059,98.9391755 L52.1761561,98.9442603 L15.2742368,98.9442603 C13.9017401,98.9442603 12.7791168,97.8744253 12.6947915,96.52318 L12.6897068,96.3597303 L12.6897068,55.9790335 C12.6897068,54.551637 13.8468403,53.3945035 15.2742368,53.3945035 C16.6467334,53.3945035 17.7693567,54.4643385 17.853682,55.8155838 L17.8587668,55.9790335 L17.858,93.775 L35.2561397,93.7743376 L35.2566166,60.9499462 C35.2566166,59.5774496 36.3264516,58.4548263 37.6776969,58.370501 L37.8411466,58.3654162 L60.964075,58.3654162 C62.3365717,58.3654162 63.4591949,59.4352512 63.5435203,60.7864965 L63.548605,60.9499462 L63.548,93.775 L80.945,93.775 L80.945938,55.9790335 C80.945938,54.6065369 82.0157729,53.4839136 83.3670182,53.3995883 L83.530468,53.3945035 Z M8.04424182,14.0787862 L8.08393386,14.0364313 C8.09109362,14.0287441 8.09829968,14.0211005 8.10555158,14.0135011 C8.16808208,13.9470063 8.23452414,13.8845138 8.30396172,13.8257525 C8.32415582,13.8091675 8.34440766,13.7925004 8.36491401,13.7761388 C8.38729667,13.7579367 8.40997535,13.7405017 8.43293032,13.7234494 C8.44491655,13.7147574 8.45694385,13.7059564 8.46904943,13.6972575 C8.49901256,13.6756274 8.52946509,13.6547741 8.56034584,13.634579 C8.58271187,13.6199036 8.60527666,13.6056035 8.62807455,13.5916468 C8.64728604,13.5800306 8.66628083,13.5687618 8.68541809,13.5577356 C8.71024861,13.5432103 8.73591308,13.5289643 8.76184074,13.5151472 C8.78449117,13.5033494 8.80678818,13.4918993 8.82925285,13.4807713 C8.85462395,13.4679088 8.88029202,13.4557082 8.90618877,13.4439225 C8.92594098,13.4352285 8.94597413,13.4264132 8.96612383,13.4178497 C8.99800986,13.4040186 9.03033453,13.3910554 9.06297409,13.378734 C9.0782813,13.3731886 9.09296763,13.3677905 9.10770767,13.3625241 C9.13975135,13.3508885 9.17277803,13.339856 9.20609394,13.3294795 C9.23176936,13.3215596 9.25737392,13.3139908 9.2831143,13.3068155 C9.3054732,13.3006024 9.32816034,13.2946391 9.35096707,13.2889787 C9.37760219,13.2822458 9.40425924,13.2760418 9.4310411,13.2702588 C9.46264672,13.2636835 9.49439445,13.2574968 9.52634414,13.2518969 C9.54827976,13.247679 9.57061948,13.2440324 9.59303141,13.2406785 C9.61862494,13.2373134 9.64399676,13.2339351 9.66948212,13.2309277 C9.70383646,13.2263176 9.73860581,13.222891 9.77351342,13.220173 C9.78604208,13.2198011 9.79908584,13.2188883 9.81215592,13.2180727 L9.84182087,13.2157708 C9.87265815,13.2141963 9.90359312,13.2131753 9.93461345,13.2127155 L9.97560566,13.2129879 L88.7078175,13.2124726 C88.7522615,13.2127204 88.7965373,13.2141212 88.8406088,13.216652 L88.6917744,13.2129879 C88.7583404,13.2129879 88.8243188,13.2155045 88.8896194,13.2204476 C88.9232839,13.2225212 88.9566363,13.2257422 88.989846,13.2296048 C89.010163,13.232325 89.0302086,13.2348675 89.0501812,13.2376382 C89.0851985,13.2422589 89.1205156,13.2479697 89.155637,13.2544014 C89.1796897,13.2588608 89.2033594,13.2634987 89.226911,13.2684573 C89.2478127,13.2729411 89.268509,13.2776093 89.2891268,13.282528 C89.3298351,13.2919881 89.3706572,13.3027147 89.4110718,13.3144012 C89.4196845,13.3173016 89.4283168,13.3198624 89.4369331,13.3224675 C89.475621,13.3336598 89.513734,13.3461066 89.5514459,13.3594036 C89.5647378,13.3647295 89.5786877,13.3697994 89.5925881,13.374987 C89.9737048,13.5161632 90.311782,13.7448019 90.5832965,14.0362706 C90.6445201,14.1020499 90.7027877,14.1714487 90.7574306,14.2440413 C90.8094318,14.3129948 90.8577586,14.3842684 90.9025049,14.457957 C90.91078,14.4721234 90.9196043,14.4870209 90.9282864,14.5020236 C90.97419,14.5804763 91.0155702,14.661249 91.0526927,14.7443407 C91.0578053,14.7577296 91.0634332,14.7706735 91.068961,14.7836796 C91.1215148,14.9045593 91.1643881,15.0308787 91.1973704,15.1611392 L91.2137031,15.2352066 L96.7533247,40.0868282 C97.9891041,45.6359531 94.26254,50.3964569 88.6381316,50.5438679 L88.3688804,50.5473853 L84.7419233,50.5473853 C81.7832444,50.5473853 78.97528,49.2645861 76.9188466,47.2249653 C75.3230417,49.1965351 72.8830652,50.4671438 70.0309703,50.5437183 L69.757163,50.5473853 L66.1319289,50.5473853 C63.1655822,50.5473853 60.4447059,49.2530187 58.5282474,47.1989533 C56.8041292,49.1871423 54.2800589,50.4652933 51.4242727,50.543572 L51.1456178,50.5473853 L47.5203838,50.5473853 C44.5497902,50.5473853 41.9168545,49.2511053 40.1380074,47.1984982 C38.2821992,49.1881967 35.6711514,50.4652059 32.8133897,50.5435606 L32.534245,50.5473853 L28.917626,50.5473853 C25.9471929,50.5473853 23.4015376,49.2592671 21.7549233,47.2249402 C19.7650493,49.1989727 17.0697796,50.4641859 14.2158012,50.5434316 L13.9311427,50.5473853 L10.3110777,50.5473853 C4.62636393,50.5473853 0.789556217,45.8747416 1.8663871,40.3508289 L1.92139103,40.0871573 L7.45228523,15.2360398 L7.4603919,15.2004218 C7.46842671,15.1664477 7.47713205,15.1327329 7.48649317,15.0992921 L7.45228523,15.2360398 C7.46949555,15.1587113 7.49000415,15.0829698 7.51363011,15.0089302 C7.51908927,14.9917434 7.52482747,14.9744478 7.53074236,14.9572344 C7.54274567,14.9221298 7.55545291,14.8874716 7.5688448,14.8532223 C7.57801814,14.8302773 7.58759196,14.8069023 7.59749537,14.7837017 C7.60836845,14.7574362 7.61983998,14.7316449 7.6317034,14.7061089 C7.63910123,14.6911876 7.64644668,14.6758337 7.65393832,14.6605645 C7.74320799,14.4769204 7.85309413,14.3074609 7.97983001,14.1538657 C7.98341604,14.1508972 7.98639506,14.1473036 7.98938361,14.1437183 L8.04424182,14.0787862 L8.04424182,14.0787862 Z M86.6191397,18.3813376 L75.9041397,18.3813376 L78.8181488,40.1925568 L78.8201397,40.2123376 L78.8532704,40.4180659 C79.3277299,43.0496839 81.8501379,45.2559869 84.5190439,45.373411 L84.7419233,45.3783253 L88.3688804,45.3783253 C90.7641637,45.3783253 92.162915,43.7184659 91.7492047,41.4157683 L91.7079765,41.2109468 L86.6191397,18.3813376 Z M70.6891397,18.3813376 L59.9141397,18.3813376 L60.8902514,40.3628965 L60.8911397,40.3883376 L60.9044141,40.5838126 C61.1327362,43.1486654 63.3427511,45.2612201 65.9164776,45.3736217 L66.1319289,45.3783253 L69.757163,45.3783253 C72.2432778,45.3783253 73.9374677,43.5214569 73.7181357,41.0871875 L73.6946235,40.8771517 L70.6891397,18.3813376 Z M54.7391397,18.3813376 L43.9331397,18.3813376 L43.4891397,28.3223376 L42.9431794,40.5919267 C42.8279041,43.1667669 44.7622762,45.2622779 47.3069461,45.3736679 L47.5203838,45.3783253 L51.1456178,45.3783253 C53.723102,45.3783253 55.7313753,43.351902 55.7309429,40.804446 L55.7261397,40.6123376 L55.7257093,40.5909842 L54.7391397,18.3813376 Z M38.7581397,18.3813376 L27.9851397,18.3813376 L26.9481397,26.1373376 L24.9785675,40.8762142 C24.6498445,43.3437175 26.2655275,45.2687654 28.7064125,45.3738086 L28.917626,45.3783253 L32.534245,45.3783253 C35.201019,45.3783253 37.5311458,43.216516 37.7639914,40.576235 L37.7782401,40.3611429 L38.4131397,26.1373376 L38.7581397,18.3813376 Z M6.96715387,41.2094131 C6.44696295,43.5497711 7.76408868,45.2772397 10.1021495,45.3740417 L10.3110777,45.3783253 L13.9311427,45.3783253 C16.6841286,45.3783253 19.3384983,43.1188718 19.8209513,40.4128548 L19.8521397,40.2123376 L19.8549241,40.1925052 L22.7701397,18.3813376 L12.0471397,18.3813376 L6.96715387,41.2094131 Z M83.529951,2.62933759 C84.9573476,2.62933759 86.114481,3.78647109 86.114481,5.21386759 C86.114481,6.58636423 85.0446461,7.70898752 83.6934008,7.79331284 L83.529951,7.79839759 L15.1363952,7.79839759 C13.7089987,7.79839759 12.5518652,6.64126409 12.5518652,5.21386759 C12.5518652,3.84137095 13.6217001,2.71874766 14.9729454,2.63442234 L15.1363952,2.62933759 L83.529951,2.62933759 Z" id="Restaurant_01" fill="#00B077"></path>
    </g>
</svg>