<?xml version="1.0" encoding="UTF-8"?>
<svg width="100px" height="100px" viewBox="0 0 100 100" version="1.1" xmlns="http://www.w3.org/2000/svg" xmlns:xlink="http://www.w3.org/1999/xlink">
    <!-- Generator: Sketch 63.1 (92452) - https://sketch.com -->
    <title>Restart</title>
    <desc>Created with Sketch.</desc>
    <g id="Restart" stroke="none" stroke-width="1" fill="none" fill-rule="evenodd">
        <path d="M5.93586,7.672528 C7.30595101,7.672528 8.42660665,8.74048782 8.51078416,10.0893647 L8.51586,10.252528 L8.51586,89.068088 C8.51586,90.4929827 7.36075465,91.648088 5.93586,91.648088 C4.56576899,91.648088 3.44511335,90.5801282 3.36093584,89.2312513 L3.35586,89.068088 L3.35586,10.252528 C3.35586,8.82763335 4.51096535,7.672528 5.93586,7.672528 Z M91.74064,16.803148 L91.74064,82.515748 C91.74064,89.5665808 87.4887788,92.0214865 81.3828207,88.4961344 L24.4592275,55.6371429 C18.355165,52.1134524 18.355165,47.2054436 24.459265,43.6817315 L81.3826781,10.8211239 C87.4886663,7.29709643 91.74064,9.75242155 91.74064,16.803148 Z M78.8031476,6.3521618 L21.8795219,39.2128921 C12.335075,44.7226124 12.335075,54.5962836 21.879535,60.1060115 L78.8029725,92.9649131 C88.3487894,98.4763111 96.90064,93.5387119 96.90064,82.515748 L96.90064,16.803148 C96.90064,5.78061149 88.3493641,0.842631118 78.8031476,6.3521618 Z" fill="#00B077"></path>
    </g>
</svg>