<?xml version="1.0" encoding="UTF-8"?>
<svg width="100px" height="100px" viewBox="0 0 100 100" version="1.1" xmlns="http://www.w3.org/2000/svg" xmlns:xlink="http://www.w3.org/1999/xlink">
    <!-- Generator: Sketch 63.1 (92452) - https://sketch.com -->
    <title>Ribbon01</title>
    <desc>Created with Sketch.</desc>
    <g id="Ribbon01" stroke="none" stroke-width="1" fill="none" fill-rule="evenodd">
        <path d="M49.8050919,4.42 C48.5802666,4.42 47.6207996,4.8250488 46.1758318,5.73672109 L45.2774271,6.32309003 L44.5814758,6.78134758 C43.9409254,7.19592559 43.6508775,7.35678698 43.5354721,7.38437641 L43.4661908,7.39413471 C43.263968,7.41021603 42.7687214,7.3780833 41.7902129,7.26838723 L40.6910149,7.14693901 C38.7458261,6.95165225 37.7136341,7.00620466 36.5588186,7.595937 C35.37351,8.20124134 34.7482245,8.99305609 33.7636737,10.7479789 L33.0042515,12.1288498 L32.9270195,12.2649398 C32.6769317,12.7014475 32.4937866,12.9680917 32.4260863,13.0459813 L32.4078619,13.0649276 C32.3994632,13.0721639 32.3084998,13.1263529 32.1482219,13.2043466 L32.0623681,13.24522 C31.9154763,13.313672 31.7486001,13.3848471 31.5392559,13.4683149 L29.8713217,14.1008045 C27.9606343,14.8391984 27.0836497,15.3431086 26.3171813,16.4246602 C25.5131137,17.5592674 25.3531023,18.6113343 25.3316126,20.7691615 L25.3260034,21.7709319 C25.3166297,22.6615771 25.2847945,23.0704117 25.2489563,23.1621043 L25.2200322,23.2178372 C25.1234025,23.3774199 24.8144553,23.7525219 24.1180824,24.5267812 L23.5848856,25.1202608 C22.2695767,26.604895 21.6228821,27.571916 21.4550732,28.909159 C21.2988584,30.1758072 21.6063599,31.1606694 22.4237496,32.7683693 L23.2505483,34.3401596 C23.587235,34.9910937 23.7170709,35.2891745 23.7288294,35.3832703 C23.7422807,35.4902419 23.6603836,35.9447445 23.4002386,36.9995364 L23.2814832,37.4766597 C22.724849,39.7239797 22.5892508,40.8405472 23.1156891,42.1874485 C23.6210992,43.4882142 24.3899257,44.182527 26.2678649,45.4667112 L27.0682687,46.0119099 C27.7915699,46.5098698 28.0974499,46.7452851 28.1901135,46.8521146 L28.2067809,46.8730873 C28.258192,46.9455499 28.3730599,47.2713548 28.551065,47.9206076 L28.9456834,49.4249561 C29.4688579,51.3584867 29.8853459,52.2866898 30.8947927,53.158866 C31.889743,54.018517 32.8727328,54.3067858 34.8707045,54.5751263 L36.3878726,54.7666226 C37.151231,54.8692995 37.5227005,54.9451942 37.6237778,54.9968116 C37.7423402,55.0573581 38.0433286,55.3447721 38.7711413,56.1308328 L39.4667338,56.884558 C39.5846124,57.0103733 39.691197,57.1220785 39.8011478,57.2349444 C40.9186162,58.3820407 41.8146252,59.0594249 42.9895968,59.3403199 C44.2240134,59.6354261 45.2451903,59.4542027 47.0010773,58.8473676 L48.8065483,58.2018832 C49.4075207,57.9951148 49.6943324,57.9185751 49.8050919,57.9185751 L49.8757821,57.925202 C50.020182,57.9477058 50.3028252,58.0295762 50.8036356,58.2018832 L51.995299,58.6293954 C54.1406979,59.4080502 55.2490131,59.6682157 56.620587,59.3403199 C57.7112102,59.0795897 58.5619701,58.4771144 59.5723132,57.4748566 L59.808484,57.2364432 C59.9923099,57.0478592 60.1667715,56.8624624 60.3998644,56.6094651 L61.0946435,55.857974 C61.641855,55.2752452 61.885139,55.0487636 61.9905924,54.9946689 L62.0566371,54.9691486 C62.2433733,54.9100545 62.7200096,54.826143 63.6083152,54.7151376 L64.7395156,54.5738442 C66.7357505,54.3062407 67.717253,54.0188656 68.7126886,53.1611978 C69.7729956,52.2476367 70.182766,51.2668469 70.7420693,49.1424649 L71.053991,47.941603 C71.132892,47.648681 71.1938891,47.4422566 71.257,47.254361 L71.3695628,46.9499558 C71.3895822,46.9015535 71.4021504,46.8748553 71.404207,46.8719533 L71.4437082,46.8265296 C71.5582853,46.7105344 71.8697515,46.4747483 72.5428066,46.0111399 L73.6036551,45.2861438 C75.2885557,44.1165089 76.0101716,43.4265976 76.4944948,42.1874485 C76.9962047,40.903815 76.8969908,39.831574 76.4045028,37.7878857 L76.0744968,36.4378224 C75.9335474,35.8329619 75.8795688,35.5237589 75.8798046,35.4106556 L75.8811884,35.3845964 C75.8935803,35.2858471 76.042542,34.9501656 76.4395972,34.1909376 L76.8812044,33.3595491 C77.9234294,31.3956181 78.3287053,30.3257118 78.1517617,28.9156763 C77.9968195,27.659259 77.4143279,26.7273888 76.2484055,25.383373 L75.7522571,24.8239575 L75.3448397,24.3717424 C74.6572862,23.6030155 74.4002129,23.2775615 74.3597485,23.1734198 L74.3447247,23.114149 C74.3105212,22.9285232 74.2831452,22.403738 74.2807411,21.3745462 L74.2799124,21.091742 C74.2701709,18.720951 74.1331063,17.616978 73.2870568,16.4275198 C72.48483,15.296799 71.5577678,14.796135 69.4550671,13.9992533 L68.2292625,13.5380436 C67.9401005,13.4256463 67.7257585,13.3360589 67.5426803,13.2507475 L67.3211708,13.1411893 C67.2464849,13.1016937 67.2044554,13.0761685 67.1989731,13.0714449 L67.1536795,13.019076 C67.0913624,12.9384407 66.9795829,12.7736269 66.8328132,12.5302185 L66.5987041,12.1260602 L66.1527382,11.3109943 C64.9817173,9.15751538 64.3562913,8.26558531 63.0513652,7.59919563 C61.8388089,6.97997667 60.7614451,6.9507936 58.6204137,7.18132878 L57.0951622,7.34736049 C56.4798292,7.40544908 56.1796124,7.41271315 56.0747117,7.38763504 L56.0094713,7.36515097 C55.8514299,7.29946665 55.5203477,7.10420037 54.8780376,6.6842264 L54.0010076,6.10329668 L53.4351764,5.73744625 C51.9906869,4.82563957 51.0301597,4.42 49.8050919,4.42 Z M49.8324934,67.1393238 L49.8647549,67.1393976 C49.9567692,67.140364 50.0492987,67.1462985 50.1419937,67.1573807 C50.2307854,67.1677195 50.3185775,67.182855 50.4050794,67.2024003 C50.4245494,67.207177 50.4445001,67.2119362 50.4644397,67.2169436 L50.6276237,67.263606 C50.7070691,67.2891297 50.7844219,67.3181419 50.8595673,67.3504191 C50.8840192,67.3610525 50.9085789,67.3721098 50.9329545,67.3835437 C50.9611071,67.3964495 50.9885798,67.4098841 51.0157269,67.4237608 L50.9329545,67.3835437 C50.9781755,67.4047557 51.0227626,67.427264 51.0666575,67.4510349 C51.102482,67.4698629 51.1372471,67.4897068 51.1714217,67.5102823 C51.1827197,67.5177725 51.1943088,67.5248862 51.2058418,67.5320907 C51.2429326,67.5545176 51.2790875,67.5783775 51.3145144,67.603062 C51.3217145,67.6088437 51.3293217,67.614203 51.3369005,67.6196035 C51.3645592,67.6385611 51.3913779,67.6584917 51.4177468,67.6788976 C51.4359084,67.6936417 51.4544688,67.7083883 51.4728307,67.7233937 C51.5014887,67.7462277 51.5290077,67.7697696 51.5559729,67.7938411 C51.5658246,67.8030847 51.576103,67.8123795 51.5863094,67.8217596 C51.6097053,67.8429347 51.6323047,67.8645541 51.6544769,67.8865512 C51.6730731,67.9051099 51.6923435,67.924762 51.7113112,67.9447373 C51.7222381,67.9562972 51.7330619,67.9679514 51.7437717,67.979699 C51.7665937,68.0045003 51.7890819,68.0300731 51.8110833,68.0561221 C51.8233936,68.0711583 51.8357627,68.086193 51.8479551,68.1013587 C52.0003663,68.2897072 52.1277436,68.5025199 52.223524,68.73537 L52.2321931,68.7572379 C52.2751376,68.8638497 52.311044,68.9734381 52.339536,69.0852706 L57.299,87.67 L62.5233557,82.5656547 C63.0757323,82.0259341 63.8380319,81.7643883 64.5993886,81.8454742 L64.7895861,81.8729211 L72.439,83.269 L63.8260597,61.4147309 C63.3244551,60.1421193 63.9044146,58.71046 65.1244528,58.1356846 L65.2802593,58.0683742 C66.5528709,57.5667696 67.9845302,58.1467291 68.5593056,59.3667672 L68.6266161,59.5225738 L78.9422003,85.6940494 C79.6641075,87.5255866 78.1548245,89.4352904 76.2392933,89.2026116 L76.0787644,89.1782149 L65.175,87.188 L57.7475017,94.4463133 C56.3783881,95.784058 54.1036763,95.2110914 53.5029922,93.4360803 L53.4516612,93.2661731 L49.6093043,78.868 L44.9437664,93.3901169 C44.3638818,95.1950772 42.1174329,95.7630032 40.7491908,94.5079255 L40.6235686,94.3849032 L33.755,87.209 L23.4849195,89.1741472 C21.5736161,89.5399014 19.9827126,87.7461316 20.5230847,85.917085 L20.574664,85.7602728 L30.069064,59.5887971 C30.5549946,58.249321 32.0347792,57.5573857 33.3742552,58.0433163 C34.6601523,58.5098097 35.3492758,59.8922389 34.9724279,61.1871696 L34.919736,61.3485076 L26.973,83.253 L34.1636797,81.8769888 C34.9617537,81.7242664 35.7811965,81.9568406 36.3786335,82.4969903 L36.5124519,82.6270648 L41.356,87.688 L47.3821217,68.9307943 C47.4076453,68.8513489 47.4366576,68.773996 47.4689347,68.6988507 C47.4795681,68.6743988 47.4906254,68.649839 47.5020593,68.6254635 C47.5403852,68.5428845 47.58276,68.4634623 47.6287979,68.3869962 C47.6364948,68.3753556 47.6438206,68.3634271 47.6512427,68.351558 C47.7277829,68.2278555 47.8145813,68.1123154 47.9096845,68.0054432 C47.9205615,67.9937305 47.9312986,67.9818527 47.9421498,67.9700711 C47.9626814,67.9474265 47.9836959,67.9254821 48.0050668,67.9039411 C48.0245752,67.8843835 48.04521,67.8641811 48.0662003,67.8443124 C48.0806786,67.830679 48.0951947,67.8173014 48.1098536,67.8041001 C48.135297,67.7809481 48.1611177,67.7585337 48.1874164,67.7366126 C48.1980612,67.7281454 48.2090276,67.7191814 48.2200633,67.710311 C48.3733562,67.5863077 48.5421145,67.4793562 48.7244788,67.3923306 C48.7357503,67.3874385 48.7470172,67.3821422 48.7583222,67.3769269 C48.8406991,67.3386244 48.9259468,67.3047451 49.0137273,67.2752266 C49.1692521,67.2225342 49.3303765,67.184546 49.4948018,67.1623359 C49.516167,67.1597626 49.5375036,67.1571402 49.5588247,67.1547891 C49.5940613,67.1506399 49.6297567,67.1474765 49.665571,67.1450611 C49.6749666,67.1446229 49.6843135,67.1440366 49.6936557,67.1435019 C49.732582,67.1411244 49.7717361,67.1398098 49.8109969,67.1393975 L49.8324934,67.1393238 L49.8324934,67.1393238 Z M49.805,9.616 L49.9724267,9.69688157 C50.1933108,9.80556473 50.4520203,9.95572822 50.7919652,10.1719735 L52.3519447,11.1988416 C53.5134313,11.9516532 54.0300107,12.2024553 54.8699689,12.4050217 C55.7291657,12.6104303 56.36938,12.6134504 57.7947968,12.4652616 L58.8884519,12.3431497 C59.630082,12.2590712 60.0729791,12.2233159 60.4378484,12.2236859 L60.678,12.23 L60.6888647,12.2434761 C60.7282309,12.2927866 60.7725815,12.3521546 60.8210733,12.4213096 L60.9486689,12.6109537 C61.0577157,12.7794633 61.1760382,12.978195 61.3222596,13.2374507 L61.8973584,14.2869166 C62.0081085,14.4894668 62.1017869,14.6579746 62.1935511,14.8187414 C62.7500208,15.7936511 63.211865,16.4472634 63.8308552,16.9805857 C64.4569781,17.5200535 65.1124539,17.8585217 66.2440685,18.3024854 L67.7612812,18.8758202 C68.2541253,19.0648607 68.5687291,19.1984499 68.8343653,19.332879 L68.9425996,19.3894677 L69.032,19.44 L69.0580378,19.6098087 L69.0827981,19.8545132 C69.1038848,20.1161393 69.1144053,20.4359022 69.1184527,20.8801432 L69.1207552,21.3865996 C69.1251081,23.2500911 69.1696698,23.9967911 69.4934653,24.891526 L69.5500576,25.0422361 C69.9004984,25.9441501 70.2464122,26.4159873 71.4346611,27.7411559 L72.1613934,28.5489637 L72.3136589,28.7223941 C72.5549408,29.0001119 72.7347749,29.2224846 72.8684834,29.4092986 L72.972,29.561 L72.9336156,29.6687093 C72.846377,29.8990145 72.721402,30.1701108 72.5333176,30.5382092 L71.6757468,32.1637532 C71.0633584,33.3507274 70.8680019,33.8921662 70.7613431,34.7421137 C70.6367698,35.7348187 70.7415727,36.3856426 71.1858038,38.1797556 L71.4206191,39.1339715 C71.5106477,39.517145 71.56774,39.799657 71.602355,40.0379759 L71.632,40.294 L71.47612,40.4343009 L71.2957569,40.5821989 C71.0388956,40.7854219 70.7063528,41.0204296 70.1760488,41.3794026 L69.3033936,41.975545 C68.1666598,42.7642699 67.7477912,43.1304279 67.2738344,43.7778057 L67.1941989,43.8884266 C66.6827077,44.6101838 66.4251011,45.2828943 66.0699857,46.6054451 L65.7062735,48.0007229 C65.5805514,48.4676332 65.4857456,48.7736911 65.3859631,49.0318983 L65.3434586,49.1376014 L65.307,49.22 L65.1959011,49.2522266 L65.0782703,49.2818422 C64.7983762,49.3483941 64.4712211,49.4039097 63.9792541,49.4693576 L62.6067107,49.6404816 C61.2185135,49.8203551 60.5298644,49.9703251 59.7853228,50.3289226 L59.6354454,50.4034945 C58.8124112,50.8256885 58.3827977,51.1951186 57.2857028,52.3742852 L56.2926419,53.4481799 C56.2302136,53.514067 56.1717098,53.5749642 56.113497,53.6346837 L55.9748095,53.7749113 C55.7963092,53.9525728 55.6432624,54.0932448 55.5131195,54.1998693 L55.408,54.282 L55.2940559,54.2613802 L55.1834902,54.2369633 C54.8777704,54.1651987 54.5137718,54.0501818 53.968803,53.8557046 L52.7202164,53.4036574 C51.3815894,52.9282226 50.7729262,52.7754338 49.9523003,52.7599247 L49.8050919,52.7585751 C48.8564085,52.7585751 48.2417066,52.9164355 46.64597,53.4909447 L45.8544667,53.7789802 C45.2623384,53.9938883 44.8665166,54.12481 44.54431,54.2079534 L44.3161279,54.2613802 L44.202,54.282 L44.1911464,54.2737411 C44.0425818,54.161426 43.8592078,53.9970105 43.636,53.7746989 L43.3185877,53.4482265 L42.1660315,52.2032242 C41.1831582,51.156072 40.755095,50.8019961 39.970552,50.4013518 C39.2177274,50.016905 38.5701262,49.8547544 37.2759585,49.6782205 L35.4313694,49.4432927 C35.1116558,49.3981404 34.8672834,49.3565048 34.6557506,49.3107847 L34.4148028,49.253139 L34.305,49.221 L34.247973,49.0878376 L34.2263466,49.0328569 C34.1408961,48.8112793 34.0592621,48.5552473 33.9582936,48.1917177 L33.5449056,46.6160388 C33.1875309,45.2857081 32.9293516,44.6120029 32.4151808,43.8872926 L32.2566617,43.6711862 C31.7330362,42.9837053 31.2221555,42.593081 29.6748962,41.5429093 L29.0713899,41.1324201 C28.6864061,40.8671573 28.4304386,40.6797734 28.2206779,40.5078089 L28.0417162,40.3546861 L27.978,40.295 L27.9922384,40.1541197 C28.0286736,39.8540987 28.1020286,39.4918435 28.2367054,38.9353075 L28.5536908,37.6472476 C28.8884937,36.2417452 28.9603678,35.6289835 28.8487569,34.7414465 L28.8069198,34.4522291 C28.6824527,33.7064373 28.4435269,33.1314603 27.8202277,31.9395889 L27.2909993,30.9434824 L27.0179745,30.4173082 C26.8616947,30.1065459 26.753762,29.868918 26.6754186,29.6629826 L26.636,29.554 L26.6644681,29.5114263 C26.8038501,29.3030045 27.005068,29.0492298 27.2947916,28.7156365 L27.7899842,28.1599056 L28.504344,27.3620685 C29.3780734,26.3695541 29.7048532,25.9007224 30.0041414,25.1679346 L30.0567773,25.0357188 C30.3940237,24.1728806 30.4695038,23.5012887 30.4851923,21.955683 L30.4893855,21.1065785 C30.4924448,20.3725396 30.5083113,19.9470644 30.5509682,19.6013908 L30.575,19.433 L30.7713468,19.3276013 L30.9819467,19.2260144 C31.168455,19.1400216 31.3867362,19.0488354 31.6686805,18.9385744 L32.8011775,18.5114946 C34.2913175,17.9518832 35.0531308,17.5968755 35.7759797,16.9740684 C36.3909762,16.4441871 36.851754,15.7944285 37.4042579,14.8300785 L38.193879,13.3981048 C38.4472555,12.9429337 38.6196153,12.6579591 38.7872505,12.4193035 L38.8569402,12.3228816 L38.93,12.228 L38.9503544,12.226675 C39.0137534,12.2227619 39.087984,12.2205128 39.1723355,12.2204273 C39.4561227,12.2201395 39.7871119,12.2417053 40.2691466,12.2908639 L41.8153702,12.462007 C43.1568495,12.6015003 43.8023085,12.6071654 44.5863961,12.4369451 L44.7352408,12.4029574 C45.6710504,12.1792377 46.2070105,11.8941416 47.67171,10.9272055 L48.4490194,10.4111543 C48.9814741,10.0602789 49.3430607,9.84180645 49.6375706,9.69692612 L49.805,9.616 Z M49.8036133,23.34 C55.028227,23.34 59.2636133,27.5753863 59.2636133,32.8 C59.2636133,38.0246137 55.028227,42.26 49.8036133,42.26 C44.5789995,42.26 40.3436133,38.0246137 40.3436133,32.8 C40.3436133,27.5753863 44.5789995,23.34 49.8036133,23.34 Z M49.8036133,18.18 C41.7292102,18.18 35.1836133,24.725597 35.1836133,32.8 C35.1836133,40.874403 41.7292102,47.42 49.8036133,47.42 C57.8780163,47.42 64.4236133,40.874403 64.4236133,32.8 C64.4236133,24.725597 57.8780163,18.18 49.8036133,18.18 Z" id="Ribbon-01" fill="#00B077"></path>
    </g>
</svg>