<?xml version="1.0" encoding="UTF-8"?>
<svg width="100px" height="100px" viewBox="0 0 100 100" version="1.1" xmlns="http://www.w3.org/2000/svg" xmlns:xlink="http://www.w3.org/1999/xlink">
    <!-- Generator: Sketch 63.1 (92452) - https://sketch.com -->
    <title>SVG</title>
    <desc>Created with Sketch.</desc>
    <g id="SVG" stroke="none" stroke-width="1" fill="none" fill-rule="evenodd">
        <path d="M39.803,10.267 L17.189,33.083 L39.803,33.083 L39.803,10.267 Z M24.3573103,58.4350836 C27.4486313,55.7771952 32.3692224,56.6049213 35.1341009,59.4013165 C36.1359275,60.4145629 36.1266699,62.0481023 35.1134235,63.0499289 C34.1442313,64.0081978 32.6075121,64.0413916 31.5989638,63.1557198 L31.4648111,63.0292515 C30.4387867,61.9915315 28.5125132,61.6674999 27.7198129,62.349055 C27.00913,62.9591158 27.1655526,63.6462993 29.3483653,64.3869336 L29.56597,64.4587739 C35.0769216,66.2274049 37.4318808,69.0097578 36.1471454,73.2731293 C34.7323102,77.985036 28.1666806,78.6870117 22.5268671,75.5556462 C21.2811102,74.8639709 20.8319384,73.2933719 21.5236138,72.0476151 C22.2152891,70.8018582 23.7858881,70.3526864 25.0316449,71.0443618 C26.7839206,72.017269 28.5420226,72.4205985 29.898859,72.27553 C30.7809222,72.1812227 31.1620449,71.9326762 31.2058587,71.786765 L31.25008,71.6230558 C31.4416481,70.8039951 31.0287091,70.3822833 28.5035618,69.5400683 L27.9880437,69.3715885 C21.9200234,67.4210753 20.4209251,61.8141345 24.3573103,58.4350836 Z M51.8103568,58.4236042 C52.350268,57.1049607 53.8569243,56.4736735 55.1755678,57.0135848 C56.4414655,57.5318996 57.0738957,58.9411666 56.6447858,60.21973 L56.5855872,60.3787958 L50.2473872,75.8587958 C49.3962801,77.9374836 46.5091682,77.9938006 45.5478195,76.0275584 L45.4722498,75.859023 L39.1323298,60.379023 C38.5922931,59.0604309 39.2234369,57.5537145 40.542029,57.0136778 C41.8078774,56.4952426 43.2471012,57.0561673 43.8380036,58.2684767 L43.9073742,58.423377 L47.859,68.073 L51.8103568,58.4236042 Z M82.866932,1.42 C84.237023,1.42 85.3576786,2.48795982 85.4418562,3.83683674 L85.446932,4 L85.4460054,46.768 L88.02676,46.768144 C89.396851,46.768144 90.5175066,47.8361038 90.6016842,49.1849807 L90.60676,49.348144 L90.60676,84.933224 C90.60676,86.303315 89.5388002,87.4239706 88.1899233,87.5081482 L88.02676,87.513224 L13.5790054,87.513 L13.58,94.3 L80.287,94.3 L80.287104,93.29896 C80.287104,91.928869 81.3550638,90.8082134 82.7039407,90.7240358 L82.867104,90.71896 C84.237195,90.71896 85.3578506,91.7869198 85.4420282,93.1357967 L85.447104,93.29896 L85.447104,96.88 C85.447104,98.250091 84.3791442,99.3707466 83.0302673,99.4549242 L82.867104,99.46 L11.000344,99.46 C9.63025299,99.46 8.50959735,98.3920402 8.42541984,97.0431633 L8.420344,96.88 L8.42014042,84.9604246 C8.42004688,84.9513689 8.42,84.9423019 8.42,84.933224 L8.42000541,84.905 L8.42000541,49.375 L8.42,49.348144 L8.42000541,49.32 L8.420344,44.68316 C8.420344,43.2582653 9.57544935,42.10316 11.000344,42.10316 C12.370435,42.10316 13.4910906,43.1711198 13.5752682,44.5199967 L13.580344,44.68316 L13.5800054,46.768 L80.2860054,46.768 L80.286,6.58 L44.963,6.58 L44.963292,35.66348 C44.963292,37.033571 43.8953322,38.1542266 42.5464553,38.2384042 L42.383292,38.24348 L11.000172,38.24348 C8.76049081,38.24348 7.60783934,35.6030991 9.05959543,33.9626969 L9.16774204,33.847275 L40.554,2.179 L40.6851689,2.05749055 L40.8260094,1.94258494 L40.9727662,1.83908094 L41.1248218,1.74698132 L41.3083599,1.65390699 C41.4018562,1.61099872 41.4983592,1.57351501 41.597466,1.54185884 L41.7736844,1.49268142 L41.942973,1.45764482 L42.1138559,1.43402906 L42.2857158,1.42183689 L82.866932,1.42 Z M85.446,51.928 L13.5800054,51.928 L13.5790054,82.353 L85.446,82.353 L85.446,51.928 Z M73.56156,56.822748 C74.9864547,56.822748 76.14156,57.9778533 76.14156,59.402748 C76.14156,60.772839 75.0736002,61.8934946 73.7247233,61.9776722 L73.56156,61.982748 L68.85908,61.982748 C65.4866642,61.982748 63.68188,63.5943698 63.68188,67.142748 C63.68188,70.6885462 65.4876273,72.301028 68.85908,72.301028 C70.4699016,72.301028 71.7313583,71.9010653 72.5842345,71.1621449 L72.667,71.085 L72.667,69.535 L69.49032,69.535268 C68.120229,69.535268 66.9995734,68.4673082 66.9153958,67.1184313 L66.91032,66.955268 C66.91032,65.585177 67.9782798,64.4645214 69.3271567,64.3803438 L69.49032,64.375268 L75.24716,64.375268 C76.617251,64.375268 77.7379066,65.4432278 77.8220842,66.7921047 L77.82716,66.955268 L77.82716,72.043028 C77.82716,72.5799539 77.6596447,73.103503 77.3479623,73.5407027 C75.4814501,76.1588768 72.4234135,77.461028 68.85908,77.461028 C62.7598137,77.461028 58.52188,73.676672 58.52188,67.142748 C58.52188,60.7151857 62.6187952,56.9496293 68.5556322,56.8258961 L68.85908,56.822748 L73.56156,56.822748 Z" fill="#00B077"></path>
    </g>
</svg>