<?xml version="1.0" encoding="UTF-8"?>
<svg width="100px" height="100px" viewBox="0 0 100 100" version="1.1" xmlns="http://www.w3.org/2000/svg" xmlns:xlink="http://www.w3.org/1999/xlink">
    <!-- Generator: Sketch 63.1 (92452) - https://sketch.com -->
    <title>Salad</title>
    <desc>Created with Sketch.</desc>
    <g id="Salad" stroke="none" stroke-width="1" fill="none" fill-rule="evenodd">
        <path d="M92.5915927,60.9530976 C94.0189892,60.9530976 95.1762286,62.1101251 95.1762286,63.5375216 C95.1762286,64.9100182 94.106496,66.0326854 92.7552541,66.1170661 L92.5918046,66.1221576 L11.788,66.125 L11.8168014,66.2332572 C14.2425274,75.5147006 18.7816484,83.7196508 24.8346887,89.882229 L25.386,90.433 L75.746,90.43 L75.9921952,90.1885513 C80.9568925,85.2305349 84.9490085,78.8862648 87.6085334,71.6666855 L87.8617347,70.9653012 C88.3376802,69.6195907 89.8144242,68.9145069 91.1601346,69.3904524 C92.5058451,69.866398 93.2109289,71.3431419 92.7349834,72.6888524 C89.642981,81.4313234 84.7535354,89.0824561 78.5570803,94.8993875 C78.1258685,95.3041881 77.5704498,95.5474716 76.9846078,95.5921117 L76.788329,95.5995837 L24.3464923,95.6030298 C23.6893499,95.6030298 23.0568675,95.3527956 22.5776884,94.9031029 C14.3719156,87.2022725 8.50726931,76.337392 6.0067716,64.0567361 C5.69188844,62.5102553 6.82208254,61.0600723 8.37164814,60.9618382 L8.53923104,60.9565436 L92.5915927,60.9530976 Z M96.1253183,24.5211168 C97.2711076,24.7809448 98.0974842,25.7808915 98.1368231,26.955113 C98.3433718,33.1203508 97.1276366,38.0019695 94.7057722,41.6519899 C95.2697949,42.1749216 95.7905979,42.7428661 96.2702959,43.3486603 C97.190331,44.5105413 97.9096673,45.7455481 98.4576506,46.9829246 C98.7937913,47.7419489 99.0044933,48.3559765 99.1123619,48.757926 C99.3570006,49.6695202 99.0852566,50.6419799 98.4034864,51.2946984 C96.7860803,52.8431835 95.082494,54.1224059 93.3028824,55.1420651 C86.411058,59.0908549 79.0982423,58.9484773 72.2807029,56.3785277 C70.4790749,55.6993834 69.1315777,55.0088688 68.3401478,54.514461 C67.1295558,53.7582019 66.7612463,52.163754 67.5175055,50.953162 C68.2422539,49.7930114 69.7367971,49.4064154 70.9255696,50.0418241 L71.2566648,50.2351196 C71.3624968,50.2950709 71.5035679,50.3721771 71.6779917,50.4632566 L71.8150338,50.5341366 C72.4802897,50.8750418 73.2484728,51.219213 74.103996,51.5417122 C79.6072283,53.6162187 85.3725468,53.7284672 90.7331098,50.65704 C91.6745486,50.1176264 92.5958152,49.4816851 93.495548,48.7441252 L93.554,48.694 L93.3749321,48.339787 C93.1173098,47.8507266 92.8194389,47.3673371 92.4801387,46.9025077 L92.217877,46.557567 C91.9058991,46.1635807 91.5711286,45.7972076 91.2128736,45.4614864 L91.0267937,45.6070932 L91.0267937,45.6070932 C87.563177,48.281172 83.4299877,49.3857376 79.2609178,49.4747828 C77.8338467,49.505263 76.652268,48.3731024 76.6217879,46.9460313 C76.5913077,45.5189603 77.7234683,44.3373816 79.1505394,44.3069014 C82.3121547,44.2393739 85.4133462,43.4106025 87.8679251,41.5155495 C88.2842163,41.1941527 88.6780296,40.8448202 89.0482788,40.466296 C89.1229637,40.3725949 89.2040081,40.2869647 89.2897556,40.207832 C91.5000188,37.8056427 92.8111326,34.2911985 92.9737743,29.3755129 L92.979,29.167 L92.821299,29.1406107 C84.3193349,27.7669767 79.2677299,30.5151396 76.4399813,36.0800003 L76.3026993,36.3559472 C75.4596362,38.0869108 74.8953151,39.9682786 74.564926,41.8538244 C74.4491607,42.5145019 74.3714599,43.125123 74.3247645,43.6672813 L74.289755,44.1662349 C74.2876784,44.2099051 74.2864931,44.2440792 74.2860248,44.2683332 C74.2584685,45.6954636 73.0792119,46.8300427 71.6520814,46.8024865 C70.2249509,46.7749302 69.0903719,45.5956736 69.1179281,44.1685431 L69.1301697,43.8215081 C69.1642774,43.1315566 69.2650269,42.1510859 69.4734365,40.9616832 C69.881788,38.6312025 70.5820749,36.2965438 71.6555268,34.0925494 C75.7179157,25.7517171 83.7813641,21.7219066 96.1253183,24.5211168 Z M25.0653742,20.1658913 C32.6557624,22.879871 39.6017798,32.063056 41.1446406,42.5569447 C41.352271,43.9691594 40.3757626,45.2823034 38.9635479,45.4899338 C37.5513331,45.6975643 36.2381892,44.7210558 36.0305588,43.3088411 C34.7550311,34.6332394 29.0390329,27.0762372 23.323988,25.0327953 C19.9343545,23.8191421 17.6099709,26.7304272 18.3982356,30.2926719 C18.921048,32.6553118 16.2009691,34.3765237 14.2896794,32.8924846 C11.340435,30.6025157 8.20273477,31.2607874 6.75427882,33.7844119 C5.22254669,36.4531272 6.46139923,39.7482487 11.2221868,42.0755142 C13.3204289,43.1012197 13.0751808,46.1311319 10.9143919,46.8466159 L10.7444064,46.8970154 C9.04494801,47.3439032 8.0865932,48.8258263 8.22023507,50.4586349 C8.34256787,51.9532714 9.27142478,52.803355 11.0160724,52.6518145 C12.007785,52.5656341 12.8319364,52.3519297 14.254309,51.8240045 L15.702174,51.2666469 C20.2907749,49.4873196 23.3318929,49.2736843 27.6994907,51.3808877 C28.9850839,52.0011385 29.5244504,53.5461303 28.9041995,54.8317235 C28.2839487,56.1173166 26.7389569,56.6566831 25.4533638,56.0364322 C22.6944698,54.7053686 21.0625884,54.7691774 17.9033731,55.9589653 L17.0664838,56.2827797 C14.59645,57.2476799 13.2909215,57.6426697 11.463477,57.8014757 C6.76851706,58.209281 3.41723027,55.142206 3.06840252,50.8803013 C2.87407158,48.5060065 3.64678819,46.2063338 5.17095153,44.4874511 L5.283,44.363 L5.14762627,44.2499868 C0.950857808,40.6431731 -0.164597301,35.7227144 2.13213215,31.4611968 L2.271172,31.2112942 C4.48138704,27.3604675 8.72650333,25.5806015 12.9901163,26.6095069 L13.323,26.696 L13.3476453,26.5865528 C14.477854,21.6028203 19.1127611,18.0345669 25.0653742,20.1658913 Z M16.60205,36.8930208 L16.7654024,36.9006148 C27.2040375,37.7117933 35.295684,44.1620981 38.5754301,53.6845882 C39.0402577,55.0341793 38.3230152,56.5050562 36.9734241,56.9698838 C35.623833,57.4347114 34.152956,56.7174688 33.6881285,55.3678778 C31.0696027,47.7651901 24.7197754,42.7033869 16.3649259,42.0541378 C14.9418199,41.9435493 13.8778141,40.7002442 13.9884026,39.2771381 C14.0947377,37.9087668 15.248333,36.8724041 16.60205,36.8930208 Z M39.8680629,5.14788214 C45.1964334,6.01949313 50.9277508,10.3143538 54.1699567,15.5132574 C57.9414066,12.2808835 62.7320507,9.82438278 68.3208903,8.46787939 C69.7302384,8.12580737 71.1326491,9.0092462 71.4499443,10.4026314 L71.4816783,10.565629 L73.9972875,26.072809 C74.225855,27.4817865 73.2689435,28.809279 71.859966,29.0378465 C70.5051799,29.2576229 69.2257313,28.3813574 68.9261207,27.0610514 L68.8949285,26.900525 L66.845,14.268 L66.3083802,14.4536685 C57.0184232,17.7656143 51.5316772,24.7346725 50.2435135,31.9436795 C50.2336116,32.0484074 50.2160902,32.1528353 50.1920726,32.256218 C48.940461,39.9851775 52.5149047,47.932825 61.3996298,51.8988885 L61.9585554,52.1401731 C63.275864,52.6898627 63.8981422,54.2033639 63.3484526,55.5206725 C62.798763,56.8379812 61.2852619,57.4602594 59.9679532,56.9105698 C49.435504,52.515565 43.8580697,42.9743557 44.9295289,32.6844124 C43.6448063,31.4431309 42.6017884,30.0575124 41.7875334,28.5555676 C39.884413,25.0451419 39.4038111,21.4131617 39.7007721,18.2704556 L39.7355601,17.9441345 C39.753018,17.7988441 39.7702,17.6807369 39.785433,17.591512 C40.0256517,16.1844741 41.3610171,15.2385802 42.768055,15.4787989 C44.1209761,15.7097785 45.0475436,16.9532827 44.9032631,18.2994467 L44.8645068,18.5869 C44.8593155,18.6323035 44.8532988,18.6891017 44.8469089,18.7567251 C44.6381417,20.9660849 44.9885828,23.6144208 46.331757,26.0919904 L46.4547687,26.3104925 C47.4028655,23.831594 48.7402239,21.5031209 50.427315,19.3832565 C48.4100401,15.4375593 44.2552264,11.8201713 40.4329754,10.5916347 L40.346,10.565 L40.1258041,10.846902 C39.7663323,11.3230925 39.4273079,11.8382202 39.109024,12.3883662 L38.8742044,12.8074804 C38.1281117,14.1824303 37.5446347,15.677116 37.1122397,17.1740303 C36.9608624,17.6980854 36.8399029,18.1822812 36.7469016,18.6121455 L36.6697633,18.9899834 C36.6616282,19.0333541 36.6557864,19.0665707 36.6521367,19.0891038 C36.4239155,20.4981375 35.0966581,21.4553751 33.6876245,21.2271539 C32.2785908,20.9989326 31.3213532,19.6716753 31.5495745,18.2626416 L31.6076384,17.9350136 C31.7104175,17.3955323 31.884893,16.6442078 32.146209,15.7395547 C32.6753112,13.9078487 33.3912199,12.073914 34.3309308,10.3421516 C35.2533671,8.64222414 36.3468291,7.12923633 37.6363968,5.85796408 C38.2242157,5.27848479 39.0534641,5.01463065 39.8680629,5.14788214 Z" fill="#00B077"></path>
    </g>
</svg>