<?xml version="1.0" encoding="UTF-8"?>
<svg width="100px" height="100px" viewBox="0 0 100 100" version="1.1" xmlns="http://www.w3.org/2000/svg" xmlns:xlink="http://www.w3.org/1999/xlink">
    <!-- Generator: Sketch 63.1 (92452) - https://sketch.com -->
    <title>Sandwich</title>
    <desc>Created with Sketch.</desc>
    <g id="Sandwich" stroke="none" stroke-width="1" fill="none" fill-rule="evenodd">
        <path d="M94.033,67.447 L94.0301905,67.7556486 C94.0138574,68.3293763 93.9536651,68.8930608 93.841149,69.4257544 C93.4362918,71.3425003 92.4865081,72.4484462 90.5698908,72.8353149 L8.37499776,89.4245407 C7.17832406,89.6660003 6.6828489,89.1255816 6.33634166,87.1204578 L6.26549935,86.6470873 C6.22465766,86.3273609 6.19634367,86.0002898 6.17908533,85.6715575 L6.161,85.181 L94.033,67.447 Z M95.7941444,61.8183135 L3.14908201,80.5165265 C2.05154723,80.738038 1.2214604,81.641063 1.09294864,82.7533285 L1.06181062,83.0744342 C1.05431929,83.1638934 1.04662258,83.2650229 1.03907213,83.3770266 C0.939992667,84.8467745 0.973688302,86.4435458 1.24277825,88.0006811 C2.02187655,92.5090676 4.70710476,95.4378674 9.39751066,94.4914578 L91.5925841,77.9021955 C95.7098935,77.0711178 98.0963425,74.2922919 98.898622,70.4939994 C99.2946089,68.6192491 99.2779496,66.6938585 99.0204752,64.8739247 L98.9602972,64.4791649 C98.9103187,64.1746493 98.8617425,63.9325387 98.8219008,63.762418 C98.5035053,62.4028961 97.162854,61.5420719 95.7941444,61.8183135 Z M94.3199778,50.6545755 C95.2328659,49.5572623 96.862456,49.4077563 97.9597691,50.3206444 C99.0570823,51.2335325 99.2065883,52.8631225 98.2937002,53.9604357 C95.802386,56.9550545 93.0439237,57.913683 89.8922446,57.2302719 L89.4329616,57.1231327 C88.8441118,56.9744224 88.3085706,56.7898497 87.3367139,56.4202517 L86.8121592,56.2193434 C84.7014793,55.4066913 83.7580608,55.2027261 82.6986023,55.4166679 L82.5255357,55.4561467 C81.8299669,55.6340427 81.0679029,56.0666924 79.272268,57.2934826 L77.5872457,58.4547108 C75.1205318,60.1308702 73.5768276,60.9326777 71.662342,61.319451 C69.6474929,61.7263313 68.1581632,61.4827248 65.5666255,60.6267551 L65.0666378,60.4589497 C62.9367452,59.7371982 62.0926511,59.5744704 61.1148913,59.7723496 C59.874711,60.022362 58.7483127,60.6341269 56.9171124,61.9738268 L55.3201656,63.1588893 C54.7980967,63.5397792 54.3551828,63.8459332 53.9175832,64.1223647 C52.7409091,64.8656696 51.6535991,65.3567536 50.4945116,65.5909245 C49.2822104,65.8354738 48.0974202,65.776212 46.8179435,65.4809522 L46.4354947,65.3885619 C46.1126896,65.3061837 45.8138223,65.2166697 45.3645382,65.0683417 L44.3032939,64.7086875 C42.1773542,63.979262 41.1568868,63.8013647 39.8714569,64.061011 C38.8960506,64.2575182 37.9915732,64.7653091 36.1260529,66.1277136 L35.4419806,66.6327401 C32.7625259,68.6209762 31.3448313,69.4561974 29.3264414,69.8641692 C27.2067706,70.2910862 25.554569,70.0570777 22.6273467,69.2178784 L21.4516212,68.8785946 C19.6790797,68.3803369 18.9614386,68.2792439 18.288497,68.4148179 C17.2654344,68.6214772 16.253584,69.2031462 14.4987897,70.5515675 L12.5462241,72.0752743 C11.8224832,72.6303539 11.4599421,72.8771772 10.8680648,73.2431813 C7.81982015,75.1281496 4.87617993,75.287049 2.0461125,73.0243789 C0.931237204,72.1330238 0.750038256,70.5066528 1.64139332,69.3917775 C2.49560859,68.3233553 4.02486459,68.1124241 5.13206145,68.8812151 L5.27399474,68.9870583 C6.14151107,69.6806472 6.73935134,69.6836334 7.96134236,68.9606846 L8.31214352,68.745033 C8.6536842,68.5286036 8.93898183,68.3273333 9.46515341,67.9233119 L10.7794444,66.8962992 C13.4901323,64.7626386 15.0850863,63.7884435 17.2663195,63.3478334 C19.0423953,62.9900159 20.2631584,63.1642223 23.0043432,63.9455271 L23.6924824,64.144735 C26.0828908,64.8455904 27.1838238,65.0228489 28.304096,64.7972186 C29.2691217,64.6021602 30.2126287,64.0625403 32.0986426,62.676032 L33.1680015,61.8869544 C35.6024212,60.1120916 36.9279186,59.381107 38.8493085,58.9940206 C41.1641812,58.5264347 42.8866287,58.7871105 45.5880878,59.68658 L47.1421029,60.2105193 C47.4937888,60.3234438 47.7082528,60.3814965 47.9802408,60.4442621 C48.5916378,60.5853518 49.0533993,60.6084486 49.4716332,60.5240812 C49.9258956,60.4323064 50.4678556,60.1875299 51.1569638,59.7522204 L51.4944653,59.5319788 C51.6113823,59.4534201 51.7333996,59.3692771 51.8625681,59.2782313 L52.3812886,58.9042366 L53.5392535,58.042261 C56.1215577,56.1236775 57.8308022,55.1613517 60.0914755,54.7056152 C62.0675393,54.3056975 63.48893,54.511817 65.9825557,55.3169925 L67.4135612,55.7921646 C69.0192425,56.3103369 69.7954736,56.4230437 70.6389481,56.2527118 C71.7955015,56.0190595 73.028956,55.3332753 75.3333048,53.7313207 L76.2436461,53.1016972 C78.9864813,51.2176911 79.9732175,50.6926465 81.6768312,50.3496014 C83.9958256,49.8813142 85.6855927,50.2466385 88.6694399,51.3954767 L89.5151276,51.7170974 C90.2243295,51.9812322 90.5718481,52.0884493 90.9876482,52.1786115 C92.2508459,52.4525237 93.0573955,52.1722294 94.3199778,50.6545755 Z M50.3878669,5.65022191 L48.8558131,6.72985984 C36.0315441,15.8429681 9.94607587,36.0998712 5.61846556,41.3156569 C2.59791808,44.9614428 1.07552362,52.0042606 1.07552362,58.0217291 C1.07552362,59.6476624 2.5589708,60.8697233 4.15483188,60.5584573 L29.015336,55.687668 C33.4137522,54.8229359 37.7669309,53.9654276 42.0205754,53.1255762 L61.3365784,49.2953365 C78.2810003,45.9174427 89.1330117,43.6934954 91.9287539,42.9981108 C97.6964723,41.5637733 99.860115,35.7928933 97.7300427,29.6988364 C95.9444707,24.6022484 87.2162957,17.1454327 76.9222041,11.296748 L75.9963165,10.7771464 C64.9270903,4.64301132 55.3773201,2.16913867 50.3878669,5.65022191 Z M74.368716,15.7910644 L75.2463034,16.2965301 C82.1649427,20.3356015 88.2627097,25.1779638 91.18509,28.736882 L13.7168734,44.2236232 L13.551315,44.2623278 C12.2464476,44.6124331 11.4205314,45.9209628 11.6891651,47.264674 C11.9689919,48.6643731 13.3305167,49.5722091 14.7302158,49.2923823 L14.7302158,49.2923823 L93.3512422,33.5752712 C93.5764798,35.9010266 92.5886425,37.5075083 90.6811792,37.9818633 L89.1614017,38.334393 C85.9683538,39.0456815 79.3518582,40.4085324 69.9459808,42.300329 L47.3159038,46.8096686 L25.815809,51.0485496 L6.40905362,54.8502849 L6.42139562,54.7266544 C6.84200613,50.6718891 7.98862253,46.5570288 9.59770262,44.6148766 C13.5551379,39.8452397 40.022601,19.3165982 52.2598929,10.6529808 L53.3455475,9.88947969 C56.1302443,7.94662928 64.6538627,10.2714793 74.368716,15.7910644 Z" fill="#00B077"></path>
    </g>
</svg>