<?xml version="1.0" encoding="UTF-8"?>
<svg width="100px" height="100px" viewBox="0 0 100 100" version="1.1" xmlns="http://www.w3.org/2000/svg" xmlns:xlink="http://www.w3.org/1999/xlink">
    <!-- Generator: Sketch 63.1 (92452) - https://sketch.com -->
    <title>SantaHat</title>
    <desc>Created with Sketch.</desc>
    <g id="SantaHat" stroke="none" stroke-width="1" fill="none" fill-rule="evenodd">
        <path d="M84.624851,56.579145 C84.624851,58.0040397 83.4697457,59.159145 82.044851,59.159145 C80.6199563,59.159145 79.464851,58.0040397 79.464851,56.579145 C79.464851,31.0355899 52.5884712,9.89131173 35.9363167,20.2138391 C27.1133284,25.6824285 28.5013515,40.0206741 38.2938813,42.5028036 C39.6750966,42.8529026 40.5109814,44.2564101 40.1608824,45.6376253 C39.8107834,47.0188406 38.4072759,47.8547254 37.0260607,47.5046264 C34.1782253,46.7827806 31.8171601,45.4106395 29.9589357,43.6135934 C23.6712941,46.1529812 19.2702225,51.9882082 19.317559,56.2194958 L19.3246193,56.4496907 C19.3964971,57.8727713 18.3011309,59.0846745 16.8780503,59.1565523 C15.4549697,59.2284301 14.2430665,58.1330639 14.1711887,56.7099833 C13.8559595,50.4688833 19.126319,42.968797 26.8316424,39.3498025 C22.9472615,31.6963953 24.8726403,21.000462 33.2177787,15.8280494 C53.7486176,3.10115899 84.624851,27.3922159 84.624851,56.579145 Z M26.5786736,4.69135211 C29.2349214,5.71686551 31.2591359,7.44032971 32.5240369,9.69587282 C33.2209988,10.9386797 32.778504,12.511173 31.5356972,13.2081349 C30.3446739,13.8760567 28.8508658,13.4974984 28.1150282,12.3709532 L28.0234351,12.2197952 C27.353952,11.025988 26.270653,10.1036414 24.7174974,9.5040036 C20.007416,7.67943187 14.4848158,10.1129998 12.851697,15.6733461 C11.0035887,21.9419131 13.9274022,25.9871963 18.8553904,26.1903314 L19.095394,26.1971552 C20.5201112,26.2196376 21.6568472,27.3928247 21.6343648,28.817542 C21.6118824,30.2422592 20.4386953,31.3789952 19.013978,31.3565128 C10.5508317,31.2229623 5.05332678,23.8775965 7.90156859,14.2166986 C10.4150255,5.65902195 19.1454589,1.81190252 26.5786736,4.69135211 Z M36.1024464,27.1199394 C41.5331984,20.3314994 53.3598944,21.0638385 58.506584,27.3967802 C59.4104603,28.5089894 59.2415731,30.1433497 58.1293638,31.047226 C57.0171546,31.9511023 55.3827943,31.7822151 54.478918,30.6700058 C51.3218338,26.7852505 43.4086443,26.2952458 40.1551556,30.3621066 C39.2598558,31.4812314 37.6268421,31.6626773 36.5077174,30.7673776 C35.3885926,29.8720778 35.2071467,28.2390641 36.1024464,27.1199394 Z M83.260003,62.759173 L17.087503,62.759173 C8.27435081,62.759173 1.05540669,69.8738099 0.88676899,78.6488326 L0.883753,79.125543 C0.883753,88.0430677 8.16997835,95.329293 17.087503,95.329293 L83.260003,95.329293 C92.0726156,95.329293 99.2920866,88.2134998 99.4607368,79.4395926 L99.463753,78.962923 C99.463753,70.0442143 92.1780737,62.759173 83.260003,62.759173 Z M17.087503,67.919173 L83.260003,67.919173 C89.232062,67.919173 94.1455294,72.7374239 94.3000079,78.674774 L94.303753,79.125543 C94.303753,85.1932783 89.3277383,90.169293 83.260003,90.169293 L17.087503,90.169293 C11.0197677,90.169293 6.043753,85.1932783 6.043753,79.125543 L6.043753,78.962923 C6.043753,72.8941048 11.0191205,67.919173 17.087503,67.919173 Z" fill="#00B077"></path>
    </g>
</svg>