<?xml version="1.0" encoding="UTF-8"?>
<svg width="100px" height="100px" viewBox="0 0 100 100" version="1.1" xmlns="http://www.w3.org/2000/svg" xmlns:xlink="http://www.w3.org/1999/xlink">
    <!-- Generator: Sketch 63.1 (92452) - https://sketch.com -->
    <title>SaucePan</title>
    <desc>Created with Sketch.</desc>
    <g id="SaucePan" stroke="none" stroke-width="1" fill="none" fill-rule="evenodd">
        <path d="M99.0723145,43.7794963 C99.7901495,48.0028366 97.1692285,51.9214445 92.4113255,52.8018302 L90.4052126,53.164136 C87.9078911,53.6080704 84.4449556,54.203541 80.2194001,54.9180452 L75.1324556,55.7740014 L63.4089645,57.7226659 C63.3164122,57.7379084 63.2231331,57.7480955 63.1295421,57.7531933 L62.9889736,57.7570188 L6.143,57.757 L6.14309774,67.3955927 C6.14309774,74.4183429 8.30855886,76.642227 15.4732282,76.7070472 L51.0036465,76.7085158 C58.2097893,76.7085158 60.3410257,74.7188012 60.4030394,67.7173047 L60.4044436,63.4705531 C60.4044436,62.0431566 61.5615771,60.8860231 62.9889736,60.8860231 C64.3614702,60.8860231 65.4840935,61.9558581 65.5684188,63.3071034 L65.5735036,63.4705531 L65.5735036,67.3955927 C65.5735036,77.4104788 61.2602081,81.7720371 51.3680462,81.8756811 L51.0036465,81.8775758 L15.8023479,81.8775758 C5.66973328,81.8775758 1.08636162,77.5133222 0.976078998,67.7593185 L0.97403774,67.3955927 L0.97403774,55.1724888 C0.97403774,53.7999922 2.0438727,52.6773689 3.39511799,52.5930436 L3.55856774,52.5879588 L62.781,52.587 L74.2779152,50.6760662 L85.7242232,48.7350316 C88.1494227,48.3163119 90.0941686,47.9729275 91.4723516,47.7187694 C93.4037247,47.3613947 94.2283687,46.1284479 93.97634,44.6456517 C93.7356119,43.2293421 92.6422375,42.3436309 90.9787999,42.5237266 L90.7764692,42.5504882 L78.4947826,44.602605 C77.0869036,44.8378441 75.7548932,43.8872315 75.5196541,42.4793525 C75.2934627,41.1256227 76.1636578,39.8420377 77.4825298,39.5361763 L77.6429066,39.5042241 L89.9524165,37.4476141 C94.6216777,36.7196847 98.3594881,39.5856238 99.0723145,43.7794963 Z M32.3691852,28.554759 C44.2339628,28.554759 53.6517399,30.8856707 58.9797798,35.7044397 C60.0384271,36.6618981 60.1204569,38.2962748 59.1629984,39.3549221 C58.20554,40.4135694 56.5711633,40.4955991 55.512516,39.5381407 C51.348549,35.7721788 43.0723899,33.723819 32.3691852,33.723819 C17.946022,33.723819 8.64038235,37.2854986 6.57770752,43.5941277 L6.51,43.808 L62.9889736,43.808655 C64.3614702,43.808655 65.4840935,44.87849 65.5684188,46.2297353 L65.5735036,46.393185 C65.5735036,47.7656817 64.5036686,48.8883049 63.1524233,48.9726303 L62.9889736,48.977715 L3.55856774,48.977715 C2.13117124,48.977715 0.97403774,47.8205815 0.97403774,46.393185 C0.97403774,34.4367445 13.4253129,28.554759 32.3691852,28.554759 Z M41.7625733,18.9844167 C43.1899698,18.9844167 44.3471033,20.1415502 44.3471033,21.5689467 C44.3471033,22.9414433 43.2772683,24.0640666 41.926023,24.1483919 L41.7625733,24.1534767 L24.7787652,24.1534767 C23.3513686,24.1534767 22.1942352,22.9963432 22.1942352,21.5689467 C22.1942352,20.19645 23.2640701,19.0738267 24.6153154,18.9895014 L24.7787652,18.9844167 L41.7625733,18.9844167 Z" id="Sauce-Pan" fill="#00B077"></path>
    </g>
</svg>