<?xml version="1.0" encoding="UTF-8"?>
<svg width="100px" height="100px" viewBox="0 0 100 100" version="1.1" xmlns="http://www.w3.org/2000/svg" xmlns:xlink="http://www.w3.org/1999/xlink">
    <!-- Generator: Sketch 63.1 (92452) - https://sketch.com -->
    <title>Search</title>
    <desc>Created with Sketch.</desc>
    <g id="Search" stroke="none" stroke-width="1" fill="none" fill-rule="evenodd">
        <path d="M33.4935562,12.2461689 C48.4852747,-2.74923711 72.7936863,-2.74809665 87.7894594,12.2458324 L87.7894594,12.2458324 L88.2349559,12.6986555 C102.787843,27.7326599 102.639346,51.6990516 87.7896837,66.5450634 C72.7950467,81.5415443 48.4864615,81.5415443 33.4937806,66.5451755 C18.4974866,51.5488816 18.4974866,27.2440824 33.4935562,12.2461689 Z M84.1410127,15.8947277 C71.1603292,2.91564046 50.1192219,2.91465329 37.1425637,15.8945034 C24.1612255,28.8774377 24.1612255,49.9152785 37.1426759,62.8967289 C50.1204106,75.8776558 71.1613454,75.8776558 84.1411249,62.8962803 C97.1255292,49.9150682 97.1255292,28.8808403 84.1410127,15.8947277 Z M24.3957991,62.9242921 C25.3594947,63.8880886 25.4013162,65.4245973 24.5213211,66.4381025 L24.395608,66.5729631 L7.97658355,82.9902675 C5.61508377,85.3517673 5.55604628,89.1879055 7.80511677,91.6276761 L7.98267477,91.8125482 L8.23103189,92.0626067 C10.5942457,94.4210823 14.436338,94.4800442 16.8648683,92.2413656 L17.0488414,92.0646277 L33.4628014,75.6472277 C34.4702485,74.6395695 36.1038142,74.6393983 37.1114724,75.6468454 C38.0753194,76.6104905 38.1173824,78.1469926 37.2375466,79.160636 L37.1118547,79.2955164 L20.6986201,95.7121906 C16.3465869,100.0686 9.274013,100.14371 4.81058086,95.9325915 L4.57810134,95.7069959 L4.32837019,95.4555651 C-0.0328831667,91.0964989 -0.10807719,84.0277652 4.10244446,79.5734935 L4.32800812,79.341501 L20.7471281,62.924101 C21.7547336,61.9166011 23.3882992,61.9166867 24.3957991,62.9242921 Z M60.6421921,14.9963281 C74.1164822,14.9963281 85.0455521,25.9218285 85.0455521,39.3945281 C85.0455521,40.8194227 83.8904467,41.9745281 82.4655521,41.9745281 C81.0406574,41.9745281 79.8855521,40.8194227 79.8855521,39.3945281 C79.8855521,28.7719952 71.2670701,20.1563281 60.6421921,20.1563281 C50.0122322,20.1563281 41.4005521,28.7684771 41.4005521,39.3945281 C41.4005521,40.8194227 40.2454467,41.9745281 38.8205521,41.9745281 C37.3956574,41.9745281 36.2405521,40.8194227 36.2405521,39.3945281 C36.2405521,25.9187507 47.16238,14.9963281 60.6421921,14.9963281 Z" fill="#00B077"></path>
    </g>
</svg>