<?xml version="1.0" encoding="UTF-8"?>
<svg width="100px" height="100px" viewBox="0 0 100 100" version="1.1" xmlns="http://www.w3.org/2000/svg" xmlns:xlink="http://www.w3.org/1999/xlink">
    <!-- Generator: Sketch 63.1 (92452) - https://sketch.com -->
    <title>Settings</title>
    <desc>Created with Sketch.</desc>
    <g id="Settings" stroke="none" stroke-width="1" fill="none" fill-rule="evenodd">
        <path d="M51.60068,1 L47.90096,1 C43.5224527,1 39.6034278,3.28400476 39.5830806,6.9091994 L39.6054332,11.3434112 C39.6272786,16.0926512 32.6818377,18.7033662 29.6215775,15.6443066 L26.9599151,12.9860849 C24.243846,10.2669716 19.5951062,11.1173311 16.4764394,14.2384098 L13.8616245,16.8515047 C10.7649621,19.9505611 9.6094572,24.3353258 12.157725,26.9140914 L15.3030774,30.0336771 C18.6781657,33.3792458 15.6156403,40.13 11.28216,40.13 L7.53084,40.13 C3.68521165,40.13 1,44.0191219 1,48.43072 L1,52.13732 C1,56.5163385 3.28208597,60.434851 6.9074794,60.4551994 L11.3389689,60.4345717 C16.0886314,60.412709 18.7029195,67.3575691 15.641582,70.417707 L12.9815148,73.0794944 C10.2632788,75.7946851 11.1127446,80.4413356 14.2325445,83.5611355 L16.8509841,86.1778549 C19.9475797,89.2744507 24.3324089,90.4334257 26.910637,87.8857293 L30.0280849,84.7321648 C33.3714261,81.3615231 40.13688,84.4274329 40.13688,88.7544 L40.13688,92.51604 C40.13688,96.359347 44.0247946,99.04 48.43588,99.04 L52.1356,99.04 C56.5146185,99.04 60.433131,96.757914 60.4534794,93.1325206 L60.4294015,88.6990163 C60.4097388,83.9499426 67.3558666,81.3393371 70.4173498,84.4032205 L73.0777748,87.0619256 C75.7957125,89.7768164 80.4412707,88.9204403 83.5594155,85.8022955 L86.1749355,83.1884953 C89.2711285,80.0923024 90.4284598,75.7061141 87.8793751,73.1298753 L84.7352026,70.0114829 C81.3603517,66.6617845 84.4213968,59.90656 88.75268,59.90656 L92.50916,59.90656 C96.3533657,59.90656 99.04,56.018159 99.04,51.60756 L99.04,47.90268 C99.04,43.5232035 96.7551107,39.6034714 93.1283872,39.5865082 L88.6993111,39.6071483 C83.9502292,39.6301013 81.3354322,32.6834003 84.3959823,29.6264481 L87.053326,26.9673848 C89.7728744,24.2539242 88.924678,19.602967 85.8057355,16.4840245 L83.1867741,13.8633433 C80.0903375,10.7669065 75.7048547,9.61099887 73.1259086,12.159445 L70.008755,15.3058142 C66.6660742,18.6791016 59.9014,15.6138127 59.9014,11.28388 L59.9014,7.52396 C59.9014,3.68192173 56.011202,1 51.60068,1 Z M47.90096,6.16 L51.60068,6.16 C52.6224823,6.16 53.5518574,6.43224121 54.1763542,6.86277238 C54.5924402,7.14962409 54.7414,7.39131353 54.7414,7.52396 L54.7414,11.28388 L54.7450612,11.5476979 C54.9861134,20.2207217 67.0717351,25.6005529 73.6742705,18.9375626 L76.63876,15.94384 L76.7175792,15.9444799 C76.8295592,15.9488484 76.9761477,15.9708156 77.149892,16.0166104 C77.8884632,16.21128 78.7662143,16.7401252 79.5375045,17.5114155 L82.1564659,20.1320967 C82.8783446,20.8539756 83.3414884,21.7023978 83.4773776,22.4475259 C83.5680369,22.9446422 83.5017296,23.2218556 83.4061086,23.3172627 L80.747794,25.9772952 L80.563806,26.1662429 C74.600546,32.4632766 79.3428524,44.8124296 88.7238694,44.7670899 L92.93876,44.74684 L92.8910586,44.7062196 C92.9830377,44.7735139 93.1131697,44.9248723 93.2487143,45.1573994 C93.6332417,45.8170568 93.88,46.8117439 93.88,47.90268 L93.88,51.60756 C93.88,52.6283311 93.6075538,53.5564433 93.1765969,54.1801728 C92.8888128,54.5966866 92.6450899,54.74656 92.50916,54.74656 L88.75268,54.74656 L88.4888456,54.7502175 C79.8153384,54.9910211 74.4410555,67.0642572 81.100941,73.6745065 L84.09376,76.64284 L84.0943001,76.7195019 C84.0898795,76.8312646 84.0678795,76.9777245 84.0220581,77.1513838 C83.8271569,77.8900432 83.2981206,78.7679684 82.5268645,79.5392245 L79.9113445,82.1530247 C79.1880871,82.8762819 78.3381738,83.341346 77.5919309,83.4789107 C77.094707,83.5705704 76.8184765,83.5051811 76.724832,83.4116416 L74.0661452,80.7546744 L73.8770965,80.5706547 C67.5767944,74.6062776 55.2306074,79.3404003 55.2694621,88.7238031 L55.29176,92.93984 L55.3336798,92.8912889 C55.2662233,92.9833764 55.1146904,93.1135318 54.8819843,93.2490565 C54.2220244,93.6334078 53.2270231,93.88 52.1356,93.88 L48.43588,93.88 C47.4138206,93.88 46.4849362,93.6080209 45.8611789,93.1779506 C45.4456246,92.8914328 45.29688,92.6499172 45.29688,92.51604 L45.29688,88.7544 L45.2932191,88.4906861 C45.0521911,79.8210609 32.9677601,74.4412836 26.36146,81.1015391 L23.39676,84.09884 L23.3221077,84.0989396 C23.2101718,84.0944682 23.0635338,84.0723762 22.889681,84.0264243 C22.1503838,83.8310172 21.2715592,83.3010882 20.4990555,82.5285845 L17.8806159,79.9118651 C17.158745,79.189994 16.6951282,78.3414829 16.5589841,77.596763 C16.4682524,77.1004529 16.5342863,76.8239572 16.6297532,76.7285972 L19.2904852,74.0661456 L19.4744456,73.8770818 C25.4368183,67.5762995 20.6958138,55.2314475 11.3150044,55.2746273 L7.09976,55.29384 L7.14871106,55.3353998 C7.05662362,55.2679433 6.9264682,55.1164104 6.79094346,54.8837043 C6.40659219,54.2237444 6.16,53.2287431 6.16,52.13732 L6.16,48.43072 C6.16,47.4093325 6.43239031,46.4805698 6.86324831,45.8565374 C7.15096576,45.4398223 7.39451184,45.29 7.53084,45.29 L11.28216,45.29 L11.5460387,45.2863434 C20.2210419,45.0455973 25.6002233,32.9752611 18.9361448,26.369469 L15.94176,23.39984 L15.9427599,23.3223395 C15.9471299,23.2102988 15.9691064,23.0636286 16.0149204,22.8897794 C16.2096612,22.1508013 16.738715,21.2723525 17.5104006,20.5000702 L20.1252155,17.8869753 C20.848197,17.1634356 21.6965258,16.6996961 22.4413574,16.5634496 C22.9382082,16.4725644 23.2153435,16.5387463 23.3114039,16.6349143 L25.9744449,19.2945151 L26.1634891,19.4783127 C32.4636328,25.435432 44.8085313,20.7011311 44.7653727,11.3184526 L44.74376,7.10084 L44.8244643,7.02281164 C44.9050994,6.95230234 45.0155778,6.87281147 45.1552639,6.79140253 C45.8152453,6.40676585 46.8100018,6.16 47.90096,6.16 Z M50.020344,28.215388 C62.0634019,28.215388 71.824784,37.9779766 71.824784,50.023268 C71.824784,53.4078068 71.0500701,56.6859758 69.580576,59.664896 C68.9502048,60.942768 67.403268,61.4676712 66.125396,60.8373 C64.847524,60.2069288 64.3226208,58.659992 64.952992,57.38212 C66.0745029,55.1086224 66.664784,52.6108727 66.664784,50.023268 C66.664784,40.8276232 59.2134698,33.375388 50.020344,33.375388 C40.8297982,33.375388 33.377624,40.8284833 33.377624,50.023268 C33.377624,59.2135837 40.8304889,66.665988 50.020344,66.665988 C53.0701346,66.665988 55.9956889,65.846635 58.5514619,64.3177487 C59.7742642,63.5862574 61.3585321,63.9845437 62.0900233,65.2073459 C62.8215146,66.4301482 62.4232283,68.0144161 61.2004261,68.7459073 C57.8493755,70.7505358 54.0094019,71.825988 50.020344,71.825988 C37.980771,71.825988 28.217624,62.0634444 28.217624,50.023268 C28.217624,37.9788367 37.9798661,28.215388 50.020344,28.215388 Z" fill="#00B077"></path>
    </g>
</svg>