<?xml version="1.0" encoding="UTF-8"?>
<svg width="100px" height="100px" viewBox="0 0 100 100" version="1.1" xmlns="http://www.w3.org/2000/svg" xmlns:xlink="http://www.w3.org/1999/xlink">
    <!-- Generator: Sketch 63.1 (92452) - https://sketch.com -->
    <title>Shamrock01</title>
    <desc>Created with Sketch.</desc>
    <g id="Shamrock01" stroke="none" stroke-width="1" fill="none" fill-rule="evenodd">
        <path d="M47.0159225,15.5267071 C51.6463993,-4.83048455 72.5313587,-3.71873524 76.5230618,14.7769924 L76.596,15.136 L76.9083257,15.10251 C84.8713164,14.3146235 92.0120135,17.1902603 95.7982256,22.3980641 L95.997835,22.6792771 C100.423731,29.0673035 98.342957,36.6301943 90.3110574,40.4328642 L89.8214187,40.658095 C87.8746747,41.527344 86.0249989,42.0319304 82.6646228,42.7271988 L79.9048188,43.2909175 C79.5958488,43.3561095 79.3344983,43.4133089 79.0276074,43.4821623 C75.8411903,44.1970598 73.3962346,45.0692433 71.3588323,46.3969193 L71.201,46.501 L72.1557939,46.4840007 L76.0547521,46.3784205 L77.1488313,46.3578009 C83.3949718,46.2726833 87.3026255,46.8176145 91.0399752,48.7639251 C98.4483297,52.621651 100.354943,60.1206816 96.6645162,66.7765508 C93.703088,72.1176345 87.9396518,75.4847393 81.6244173,75.3270409 L81.541,75.324 L81.5464706,75.4138749 C81.9569675,83.5758529 78.8396214,89.5658953 73.2748867,92.2292292 L72.9848785,92.3640151 C67.13178,95.0044515 60.0421031,93.1736045 56.8183398,87.9733471 C53.0220777,81.8564192 50.4819989,73.244004 48.4250329,61.3318006 C48.1811646,59.9195222 49.1283481,58.5769501 50.5406264,58.3330819 C51.9529048,58.0892136 53.2954769,59.0363971 53.5393451,60.4486754 L53.7908697,61.8740065 C55.6955421,72.4334752 58.0175579,80.0633841 61.2288017,85.2376709 C63.0279651,88.1399037 67.2884162,89.2401279 70.8506895,87.6331234 C75.0764812,85.7267939 77.3213315,80.6624059 76.0481549,72.738964 C75.7544516,70.9111417 77.4142744,69.3724803 79.214639,69.8036226 C84.5437075,71.0798012 89.7065555,68.6226071 92.1255343,64.2598577 C94.4470546,60.0728799 93.3676796,55.8275165 88.6428385,53.367167 C85.8647975,51.9204384 82.6372201,51.4736085 77.1925416,51.547832 L75.4763879,51.5849481 L72.98693,51.6557188 C69.0518769,51.7565513 67.1229417,51.7104882 64.8170555,51.3924171 C62.8697247,51.1238048 61.916534,48.8717664 63.0793153,47.2867777 C66.6971511,42.3553009 70.9670995,40.033522 77.4364936,38.5222008 L78.9603376,38.1859869 L81.1670133,37.7364296 C84.7065876,37.0144491 86.3584865,36.5612561 88.0909214,35.7416921 C93.2419719,33.3029483 94.3227449,29.3747137 91.7317255,25.6350189 C88.7829788,21.3790057 82.285199,19.0964649 74.9656932,20.6493005 C73.4584698,20.9690585 72.0062359,19.9127892 71.8461873,18.3803559 C70.204312,2.65973544 55.6075822,1.1546432 52.0767588,16.6773748 C51.018902,21.3319446 50.6159161,26.5008435 50.5929245,33.3711622 C50.5839492,36.0531327 47.0087821,36.9608999 45.7214279,34.6080791 L45.4066309,34.0221131 C44.9874369,33.2275827 44.5659188,32.3717298 44.0884849,31.3543258 L43.1988532,29.4175018 C42.778839,28.4902504 42.0981705,26.9863946 41.8480384,26.4438012 L41.3883801,25.4594485 C39.1970033,20.8305101 37.4241959,18.0437482 35.1628076,16.0142218 C31.2954547,12.5417281 27.3893996,12.6729909 24.5314679,15.6101801 C21.5962777,18.6267704 20.7697271,23.6431401 22.8934891,27.9570524 C23.7014454,29.5982216 22.6032582,31.5377815 20.7802739,31.6893007 C14.5553082,32.2066952 9.50570362,36.887953 8.09799887,42.636417 C6.76795218,48.0677588 9.14938464,52.0903657 14.9407659,52.7553573 C20.8007286,53.4270096 30.1771789,51.5782411 36.7315264,49.0632008 C38.0695782,48.5497623 39.5705077,49.2182435 40.0839462,50.5562954 C40.5973847,51.8943472 39.9289035,53.3952767 38.5908516,53.9087152 C31.3263918,56.6962405 21.187567,58.6953274 14.3492449,57.9115383 C5.26191222,56.8680913 1.02296714,49.7078589 3.05694913,41.4019465 C4.71464553,34.6326235 10.0391464,28.9829925 16.9605414,27.1109148 L17.057,27.085 L16.9834839,26.7949148 C15.7038859,21.5238151 17.0871854,15.9997731 20.5760368,12.2389155 L20.8117401,11.9908259 C25.612371,7.05706162 32.6905057,6.81920123 38.6297904,12.1520812 C41.3300467,14.575478 43.3161907,17.5674371 45.5672384,22.1730434 L45.864,22.787 L45.9018869,22.4120825 C46.1349765,20.1772097 46.4592652,18.0912807 46.8944665,16.0749496 L47.0159225,15.5267071 Z M68.4733517,26.627423 C69.4688334,27.6584506 69.4400177,29.301261 68.40899,30.2967427 C66.3454314,32.2891576 64.1749177,34.6164367 61.9357818,37.210098 C59.154648,40.4315725 56.4129672,43.8912891 53.8341075,47.3518093 L53.0814728,48.3682531 C52.893737,48.6234546 52.7103474,48.874025 52.5314648,49.1196505 C59.4488498,51.852139 66.4399323,57.2245331 70.4179548,63.2571216 C71.2069285,64.453584 70.8765938,66.063098 69.6801314,66.8520718 C68.483669,67.6410455 66.874155,67.3107108 66.0851812,66.1142484 C62.4589222,60.6151017 55.6468409,55.60516 49.3297798,53.4707227 C39.6685168,66.0281306 33.1993319,80.710515 29.930567,97.1011554 C29.6502696,98.5066572 28.2836593,99.4188155 26.8781576,99.138518 C25.4726558,98.8582206 24.5604975,97.4916103 24.840795,96.0861086 C28.2574108,78.9540958 35.0385081,63.5521754 45.1757455,50.3590618 C40.9479986,44.3142247 35.622686,39.8848806 29.8444314,38.2832922 C28.4633234,37.9004835 27.654042,36.4705464 28.0368508,35.0894384 C28.4196595,33.7083304 29.8495966,32.899049 31.2307046,33.2818578 C37.843164,35.114667 43.7065375,39.7332842 48.4046116,45.9706777 L48.171952,46.2900597 C48.6420285,45.6426245 49.1431527,44.9609811 49.6725851,44.2505465 C52.3205463,40.6973004 55.136982,37.1432507 58.0072378,33.8185435 C60.3425283,31.1135032 62.6176116,28.674102 64.804032,26.5630613 C65.8350596,25.5675796 67.47787,25.5963953 68.4733517,26.627423 Z" id="Shamrock_01" fill="#00B077"></path>
    </g>
</svg>