<?xml version="1.0" encoding="UTF-8"?>
<svg width="100px" height="100px" viewBox="0 0 100 100" version="1.1" xmlns="http://www.w3.org/2000/svg" xmlns:xlink="http://www.w3.org/1999/xlink">
    <!-- Generator: Sketch 63.1 (92452) - https://sketch.com -->
    <title>SkiptoEnd</title>
    <desc>Created with Sketch.</desc>
    <g id="SkiptoEnd" stroke="none" stroke-width="1" fill="none" fill-rule="evenodd">
        <path d="M93.631256,7.672528 C95.001347,7.672528 96.1220026,8.74048782 96.2061802,10.0893647 L96.211256,10.252528 L96.211256,89.068088 C96.211256,90.4929827 95.0561507,91.648088 93.631256,91.648088 C92.261165,91.648088 91.1405094,90.5801282 91.0563318,89.2312513 L91.051256,89.068088 L91.051256,10.252528 C91.051256,8.82763335 92.2063613,7.672528 93.631256,7.672528 Z M18.1862116,10.8212542 L75.1076367,43.681707 C81.2134281,47.205621 81.2134281,52.113275 75.1078916,55.6370418 L18.1860073,88.4960397 C12.0798852,92.0214865 7.828024,89.5665808 7.828024,82.515748 L7.828024,16.803148 C7.828024,9.75242155 12.0799977,7.29709643 18.1862116,10.8212542 Z M2.668024,16.803148 L2.668024,82.515748 C2.668024,93.5387119 11.2198746,98.4763111 20.7658847,92.9648016 L77.6874007,60.1060163 C87.2336599,54.596461 87.2336599,44.722435 77.6871964,39.2127618 L20.7655164,6.3521618 C11.2192999,0.842631118 2.668024,5.78061149 2.668024,16.803148 Z" id="Skip-to-End" fill="#00B077"></path>
    </g>
</svg>