<?xml version="1.0" encoding="UTF-8"?>
<svg width="100px" height="100px" viewBox="0 0 100 100" version="1.1" xmlns="http://www.w3.org/2000/svg" xmlns:xlink="http://www.w3.org/1999/xlink">
    <!-- Generator: Sketch 63.1 (92452) - https://sketch.com -->
    <title>Sleigh</title>
    <desc>Created with Sketch.</desc>
    <g id="Sleigh" stroke="none" stroke-width="1" fill="none" fill-rule="evenodd">
        <path d="M99.5846353,73.1247886 C99.3750821,79.6159181 93.3696412,84.3580449 83.8349186,84.4885185 L83.429949,84.491279 L13.674619,84.491279 C12.2414401,84.491279 11.079619,83.3294579 11.079619,81.896279 C11.079619,80.5182223 12.1537879,79.3910513 13.5105071,79.3063843 L13.674619,79.301279 L83.429949,79.301279 C90.6161509,79.301279 94.2843109,76.4584481 94.3973377,72.9573269 C94.4874908,70.1647402 92.303515,68.3983676 89.1403363,69.3811007 L88.9280212,69.4507079 C87.5731624,69.9179973 86.0960194,69.1984801 85.6287301,67.8436212 C85.1614407,66.4887624 85.8809579,65.0116194 87.2358168,64.5443301 C94.0210201,62.2041206 99.7918203,66.7070195 99.5846353,73.1247886 Z M11.7706361,26.1676189 L11.9319153,26.191564 L34.4634353,30.222464 C35.8742157,30.4748534 36.8132773,31.8231188 36.560888,33.2338993 C36.3182059,34.5904189 35.0623248,35.510808 33.7118989,35.3552273 L33.5494527,35.331352 L15.596,32.119 L27.9483647,63.4086648 C28.4535611,64.6884088 27.8709899,66.1286994 26.6441639,66.7074641 L26.4874872,66.7752487 C25.2077432,67.2804451 23.7674526,66.6978739 23.1886879,65.4710479 L23.1209033,65.3143712 L9.06119333,29.6988612 C8.33533967,27.860157 9.8462993,25.9404834 11.7706361,26.1676189 Z M80.4818881,41.944528 C81.8091243,42.3070361 82.6129978,43.6365525 82.3410966,44.9655147 L82.301466,45.1315621 L76.862346,65.0455921 C76.4847334,66.4281298 75.0578496,67.2427826 73.6753119,66.86517 C72.3480757,66.5026619 71.5442022,65.1731455 71.8161034,63.8441833 L71.855734,63.6781359 L77.294854,43.7641059 C77.6724666,42.3815682 79.0993504,41.5669154 80.4818881,41.944528 Z M78.383193,70.502672 C79.8163719,70.502672 80.978193,71.6644931 80.978193,73.097672 C80.978193,74.4757287 79.9040241,75.6028997 78.5473049,75.6875667 L78.383193,75.692672 L19.672183,75.692672 C18.2390041,75.692672 17.077183,74.5308509 17.077183,73.097672 C17.077183,71.7196153 18.1513519,70.5924443 19.5080711,70.5077773 L19.672183,70.502672 L78.383193,70.502672 Z M3.87036528,15.8689136 L4.03280429,15.8928373 L41.2087743,22.5550673 C42.1807635,22.7292555 42.9640236,23.4381851 43.2400979,24.3754173 L43.5976743,25.8861966 L43.8336926,26.8423916 C44.0400055,27.6636059 44.2702994,28.5442325 44.5238494,29.4726433 C45.5369916,33.1824125 46.709451,36.8900992 48.0219598,40.3358334 C51.3972662,49.1970384 55.1499512,54.6241297 58.1228522,54.8098735 C60.99556,54.989327 62.6088394,52.8432571 63.2994667,48.3445572 C63.6456579,46.0894904 63.6717054,43.6342989 63.5043887,41.3714129 L63.4532751,40.7582565 L63.4132933,40.3818442 C63.2529081,39.0985154 64.0608405,37.9026584 65.2907344,37.5604624 L65.4535034,37.5207323 L88.7756334,32.6092623 C90.1780516,32.3139233 91.5543557,33.2113883 91.8496947,34.6138064 C92.1336745,35.9622854 91.31484,37.2866205 90.004688,37.649053 L89.8451506,37.6878677 L68.748,42.13 L68.7577514,42.3142142 C68.8437904,44.3231337 68.7889015,46.415016 68.5251247,48.4544148 L68.4293692,49.1320848 C67.3829106,55.9486464 64.0514441,60.3803399 57.7992447,59.9897748 C51.8625841,59.6188585 47.2997572,53.0201489 43.1718973,42.1832624 C41.7930221,38.563296 40.5715415,34.7005891 39.5172006,30.8399648 L39.2127426,29.7070798 C39.1151116,29.3377406 39.0213484,28.9769329 38.9314912,28.625384 L38.615,27.362 L3.11729971,21.0014527 C1.76085241,20.7583665 0.840837582,19.5022112 0.996820612,18.1518317 L1.0207443,17.9893927 C1.26383046,16.6329454 2.51998576,15.7129306 3.87036528,15.8689136 Z" fill="#00B077"></path>
    </g>
</svg>