<?xml version="1.0" encoding="UTF-8"?>
<svg width="100px" height="100px" viewBox="0 0 100 100" version="1.1" xmlns="http://www.w3.org/2000/svg" xmlns:xlink="http://www.w3.org/1999/xlink">
    <!-- Generator: Sketch 63.1 (92452) - https://sketch.com -->
    <title>SlicedBread</title>
    <desc>Created with Sketch.</desc>
    <g id="SlicedBread" stroke="none" stroke-width="1" fill="none" fill-rule="evenodd">
        <path d="M49.4975479,6.41547 C62.7139917,6.41547 75.227253,9.99472113 84.7737121,15.9614623 C93.7971951,21.6013322 99.2130628,28.8489597 98.5264283,35.1514739 C97.988647,40.0696033 94.7222766,42.6173593 90.17135,43.0190752 C88.4238667,43.1733278 86.6178236,43.0099233 84.8526142,42.6480317 C84.0686866,42.487316 83.4590468,42.3229745 83.0828148,42.2026004 C81.7233067,41.7676306 80.9738204,40.3129189 81.4087902,38.9534109 C81.8263612,37.6482832 83.1837263,36.9053515 84.4944531,37.2328386 L84.8304573,37.3310676 C85.0686276,37.3987911 85.4329874,37.4904449 85.8907488,37.5842922 C87.2051421,37.8537604 88.5365523,37.9742218 89.7168379,37.8700365 C92.015059,37.6671697 93.1481128,36.7833922 93.3878854,34.5906204 C93.8079328,30.7350671 89.5575611,25.0471307 82.0340484,20.3447743 C73.3102118,14.8921898 61.7464489,11.58453 49.4975479,11.58453 C37.2493939,11.58453 25.6860745,14.892234 16.9630613,20.3447266 C9.44011084,25.0470961 5.19097526,30.7347211 5.61243553,34.5911571 C5.85093654,36.7845781 6.98328574,37.667738 9.28237807,37.8701931 C10.4623787,37.9741024 11.7934254,37.8536095 13.1075118,37.584268 L13.6422061,37.4665135 C13.8015583,37.4288053 13.9411705,37.3932106 14.0584604,37.3614406 L14.3407809,37.2793158 C15.8659112,36.7915063 17.4478221,37.7928354 17.6831737,39.3506086 L17.7026595,39.5137042 L21.8788654,86.8376946 C21.919534,87.6300999 22.6180793,88.3330763 23.4152858,88.4087391 L23.5568796,88.41547 L75.4433829,88.41547 C76.2506871,88.41547 76.9933858,87.7554054 77.1109137,86.9729355 L77.1250502,86.8336914 L77.1339307,86.7164214 L80.7747867,49.8114463 C80.914926,48.3909458 82.1800746,47.353008 83.6005751,47.4931473 C84.966441,47.6278966 85.9786062,48.8027802 85.9298612,50.1557764 L85.9188742,50.3189357 L82.2780182,87.2239108 L82.2704828,87.3397442 C81.9710246,90.7415827 79.1003596,93.4585307 75.6826872,93.5802712 L75.4433829,93.58453 L23.5568796,93.58453 C20.0333256,93.58453 17.0339743,90.8184835 16.7388602,87.4246195 L16.7232161,87.1974552 L12.81,42.879 L12.5490318,42.916814 C11.4810198,43.056019 10.4090643,43.111006 9.35461715,43.056073 L8.82895193,43.0193276 C4.27594636,42.6183958 1.00866159,40.0701228 0.473817759,35.1513238 C-0.214877465,28.8496463 5.19995013,21.6016995 14.2232448,15.9615101 C23.7689204,9.99479605 36.2817965,6.41547 49.4975479,6.41547 Z" id="Toast" fill="#00B077"></path>
    </g>
</svg>