<?xml version="1.0" encoding="UTF-8"?>
<svg width="100px" height="100px" viewBox="0 0 100 100" version="1.1" xmlns="http://www.w3.org/2000/svg" xmlns:xlink="http://www.w3.org/1999/xlink">
    <!-- Generator: Sketch 63.1 (92452) - https://sketch.com -->
    <title>SmartPhone</title>
    <desc>Created with Sketch.</desc>
    <g id="SmartPhone" stroke="none" stroke-width="1" fill="none" fill-rule="evenodd">
        <path d="M72.4791,0.701048 L28.5847,0.701048 C22.4005653,0.701048 17.34966,5.75195335 17.34966,11.936088 L17.34966,87.506008 C17.34966,93.6913488 22.4000514,98.741048 28.5847,98.741048 L72.4791,98.741048 C78.6637486,98.741048 83.71414,93.6913488 83.71414,87.506008 L83.71414,11.936088 C83.71414,5.75195335 78.6632347,0.701048 72.4791,0.701048 Z M28.5847,5.861048 L72.4791,5.861048 C75.8134453,5.861048 78.55414,8.60174265 78.55414,11.936088 L78.55414,87.506008 C78.55414,90.8414011 75.8141176,93.581048 72.4791,93.581048 L28.5847,93.581048 C25.2496824,93.581048 22.50966,90.8414011 22.50966,87.506008 L22.50966,11.936088 C22.50966,8.60174265 25.2503547,5.861048 28.5847,5.861048 Z M71.584184,79.572852 C73.0090787,79.572852 74.164184,80.7279573 74.164184,82.152852 C74.164184,83.522943 73.0962242,84.6435986 71.7473473,84.7277762 L71.584184,84.732852 L29.483744,84.732852 C28.0588493,84.732852 26.903744,83.5777467 26.903744,82.152852 C26.903744,80.782761 27.9717038,79.6621054 29.3205807,79.5779278 L29.483744,79.572852 L71.584184,79.572852 Z M71.584184,14.710104 C73.0090787,14.710104 74.164184,15.8652093 74.164184,17.290104 C74.164184,18.660195 73.0962242,19.7808506 71.7473473,19.8650282 L71.584184,19.870104 L29.483744,19.870104 C28.0588493,19.870104 26.903744,18.7149987 26.903744,17.290104 C26.903744,15.920013 27.9717038,14.7993574 29.3205807,14.7151798 L29.483744,14.710104 L71.584184,14.710104 Z" id="Phone" fill="#00B077"></path>
    </g>
</svg>