<?xml version="1.0" encoding="UTF-8"?>
<svg width="100px" height="100px" viewBox="0 0 100 100" version="1.1" xmlns="http://www.w3.org/2000/svg" xmlns:xlink="http://www.w3.org/1999/xlink">
    <!-- Generator: Sketch 63.1 (92452) - https://sketch.com -->
    <title>Snowflake03</title>
    <desc>Created with Sketch.</desc>
    <g id="Snowflake03" stroke="none" stroke-width="1" fill="none" fill-rule="evenodd">
        <path d="M63.07,35.72 L59.001127,49.549936 L58.9546227,49.7319573 C58.7428806,50.7060158 59.1086217,51.723251 59.9071295,52.3382787 L71.329,61.136 L56.9186904,61.5370582 L56.73118,61.549045 C55.7392146,61.6485038 54.8845854,62.3106955 54.5463333,63.2602922 L49.708,76.843 L44.8724135,63.2606593 L44.8030485,63.0860115 C44.4018044,62.1732375 43.5077039,61.565099 42.4999141,61.5370579 L28.086,61.136 L39.5129166,52.3385097 L39.6575654,52.2185925 C40.4015967,51.5550467 40.7037484,50.5169826 40.419219,49.549936 L36.351,35.722 L48.2409406,43.8683482 C49.1248173,44.4738835 50.2899676,44.4739623 51.1739261,43.8685463 L63.07,35.72 Z M49.708,38.581 L33.2704454,27.3210598 L33.1382796,27.2357226 C31.1438704,26.0247643 28.6403097,27.9035007 29.314327,30.194322 L34.939,49.31 L19.1451694,61.4711783 L19.0178369,61.575147 C17.2575117,63.0994281 18.271577,66.0549304 20.6561719,66.1212801 L40.579,66.676 L47.2629025,85.4483187 L47.330591,85.6206525 C48.2466847,87.7461099 51.3541446,87.6889003 52.1521227,85.4486858 L58.839,66.676 L78.7589956,66.1212798 L78.9231085,66.1120176 C81.2430217,65.9136376 82.1600493,62.9269449 80.2702865,61.4714093 L64.481,49.31 L70.106019,30.194322 C70.7949651,27.8527615 68.1639683,25.9416413 66.1501899,27.3208617 L49.708,38.581 Z M65.0950162,70.8799653 L65.2042748,71.0201969 L68.9372994,76.161 L82.9621376,74.9221371 C84.3897556,74.7960066 85.6493175,75.8510707 85.7754479,77.2786886 C85.8967272,78.6513982 84.9259257,79.8687305 83.5819221,80.0724703 L83.4188964,80.0919989 L72.4932994,81.056 L80.6756648,92.3199569 C81.5179311,93.4795211 81.2607104,95.1023255 80.1011461,95.9445918 C78.989897,96.7517637 77.453207,96.5491636 76.5857698,95.5103047 L76.4765112,95.3700731 L68.2942994,84.106 L63.9982385,94.204014 C63.4594422,95.4699787 62.0333644,96.0865243 60.7534272,95.6372678 L60.594271,95.5755295 C59.3283063,95.0367332 58.7117607,93.6106554 59.1610172,92.3307182 L59.2227555,92.171562 L64.7382994,79.21 L61.0051212,74.0703131 C60.1628549,72.9107489 60.4200756,71.2879445 61.5796399,70.4456782 C62.690889,69.6385063 64.227579,69.8411064 65.0950162,70.8799653 Z M82.886412,26.9699034 C84.2272565,27.278293 85.0843815,28.5741183 84.8665943,29.9130132 L84.8337296,30.080531 L82.3742994,40.769 L95.6181376,36.4664654 C96.9811783,36.023609 98.4451472,36.7695658 98.8880036,38.1326066 C99.3131457,39.4411257 98.6426776,40.8426602 97.3824287,41.3445003 L97.2218624,41.4024726 L83.9762994,45.705 L92.250447,52.9086968 C93.2863236,53.8105619 93.4335963,55.3535376 92.6157952,56.4319051 L92.5036462,56.569836 C91.6017811,57.6057126 90.0588054,57.7529853 88.9804379,56.9351842 L88.842507,56.8230352 L78.2202994,47.575 L72.1853024,49.5369326 C70.8222617,49.979789 69.3582928,49.2338322 68.9154364,47.8707914 C68.4902943,46.5622723 69.1607624,45.1607378 70.4210113,44.6588977 L70.5815776,44.6009254 L76.6192994,42.638 L79.7757844,28.917221 C80.0970236,27.520508 81.489699,26.6486642 82.886412,26.9699034 Z M19.6007653,28.7521775 L19.6443886,28.917221 L22.8002994,42.638 L28.8384224,44.6009254 C30.2014632,45.0437818 30.94742,46.5077507 30.5045636,47.8707914 C30.0794215,49.1793105 28.7132221,49.9191251 27.3986751,49.5844056 L27.2346976,49.5369326 L21.1982994,47.575 L10.5739201,56.8232841 C9.4928679,57.7642028 7.85373663,57.6506022 6.9128179,56.5695501 C6.01110412,55.5335417 6.07786382,53.984992 7.03646553,53.0296084 L7.16655194,52.9084479 L15.4402994,45.704 L2.19813759,41.4024726 C0.835096848,40.9596162 0.089140038,39.4956473 0.53199642,38.1326066 C0.957138547,36.8240875 2.32333794,36.0842729 3.63788488,36.4189924 L3.80186241,36.4664654 L17.0442994,40.768 L14.5864434,30.080531 C14.2780538,28.7396866 15.0692094,27.4025631 16.3687175,27.0135267 L16.533761,26.9699034 C17.8746054,26.6615138 19.2117289,27.4526694 19.6007653,28.7521775 Z M37.8405331,70.4456782 C38.9517822,71.2528501 39.2343165,72.7768703 38.5146229,73.9230448 L38.4150518,74.0703131 L34.6802994,79.211 L40.1956185,92.1718063 C40.7567297,93.490577 40.1425253,95.0145224 38.8237547,95.5756335 C37.5577348,96.1143003 36.102626,95.5697962 35.4918077,94.3586101 L35.4199275,94.2037697 L31.1232994,84.108 L22.9436618,95.3700731 C22.1013955,96.5296374 20.4785911,96.7868581 19.3190269,95.9445918 C18.2077778,95.1374199 17.9252435,93.6133997 18.6449371,92.4672252 L18.7445082,92.3199569 L26.9252994,81.056 L16.0011036,80.0919989 C14.6283941,79.9707197 13.6001315,78.8015193 13.6351945,77.4426131 L13.6445521,77.2786886 C13.7658313,75.9059791 14.9350317,74.8777165 16.2939379,74.9127795 L16.4578624,74.9221371 L30.4812994,76.161 L34.2158982,71.0201969 C35.0581645,69.8606326 36.6809689,69.6034119 37.8405331,70.4456782 Z M49.718818,2.40500002 C51.0968747,2.40500002 52.2239046,3.47949815 52.3083932,4.83622849 L52.313477,5.00034104 L52.3112994,18.922 L61.7167677,13.2814366 C62.894597,12.5749529 64.4075633,12.9116963 65.1804355,14.0227065 L65.2769594,14.1719897 C65.9834431,15.349819 65.6469795,16.8627853 64.5356895,17.6356575 L64.3864063,17.7321814 L52.3102994,24.975 L52.310017,31.327481 C52.3098286,32.76066 51.1478549,33.92214 49.714676,33.92214 C48.3366193,33.92214 47.2095894,32.8476418 47.1251008,31.4909115 L47.120017,31.326799 L47.1202994,24.975 L35.0466207,17.7301712 C33.8177362,16.992713 33.4193565,15.3986772 34.1568148,14.1697927 C34.8635456,12.9921117 36.3569596,12.5771687 37.5617693,13.1936982 L37.7171933,13.2799868 L47.1212994,18.923 L47.123477,4.99965896 C47.1236654,3.56648004 48.2856391,2.40500002 49.718818,2.40500002 Z" id="Snowflake_03" fill="#00B077"></path>
    </g>
</svg>