<?xml version="1.0" encoding="UTF-8"?>
<svg width="100px" height="100px" viewBox="0 0 100 100" version="1.1" xmlns="http://www.w3.org/2000/svg" xmlns:xlink="http://www.w3.org/1999/xlink">
    <!-- Generator: Sketch 63.1 (92452) - https://sketch.com -->
    <title>Snowglobe</title>
    <desc>Created with Sketch.</desc>
    <g id="Snowglobe" stroke="none" stroke-width="1" fill="none" fill-rule="evenodd">
        <path d="M82.708274,94.126712 C84.1414529,94.126712 85.303274,95.2885331 85.303274,96.721712 C85.303274,98.0997687 84.2291051,99.2269397 82.8723859,99.3116067 L82.708274,99.316712 L18.843594,99.316712 C17.4104151,99.316712 16.248594,98.1548909 16.248594,96.721712 C16.248594,95.3436553 17.3227629,94.2164843 18.6794821,94.1318173 L18.843594,94.126712 L82.708274,94.126712 Z M76.344815,75.784387 C77.2924153,75.784387 78.1646723,76.3009043 78.620243,77.1318084 L78.620243,77.1318084 L83.619943,86.2506384 C84.5681283,87.9800102 83.316768,90.093217 81.344515,90.093217 L81.344515,90.093217 L20.206315,90.093217 C18.2338948,90.093217 16.9825511,87.9796865 17.931069,86.2503065 L17.931069,86.2503065 L22.932499,77.1314765 C23.3881256,76.3007578 24.2602803,75.784387 25.207745,75.784387 L25.207745,75.784387 Z M74.808,80.974 L26.743,80.974 L24.589,84.903 L76.962,84.903 L74.808,80.974 Z M50.778183,0.706712 C72.8433352,0.706712 90.7221539,18.5872462 90.7221539,40.650294 C90.7239539,52.6911463 85.3628898,63.8601119 76.2766775,71.4018014 C75.1738812,72.3171385 73.5378607,72.1651728 72.6225236,71.0623765 C71.7071865,69.9595802 71.8591522,68.3235597 72.9619485,67.4082226 C80.8723232,60.8424955 85.5337205,51.1311797 85.5321534,40.650682 C85.5321534,21.4534926 69.9768659,5.896712 50.778183,5.896712 C31.5795001,5.896712 16.0242126,21.4534926 16.0242125,40.65107 C16.0226455,51.1307534 20.6837162,60.8422842 28.5928932,67.4083934 C29.6955952,68.3238441 29.8473924,69.9598802 28.9319416,71.0625822 C28.0164909,72.1652842 26.3804548,72.3170814 25.2777528,71.4016306 C16.1930043,63.8595753 10.8324122,52.6905633 10.8342121,40.650682 C10.8342121,18.5872462 28.7130308,0.706712 50.778183,0.706712 Z M41.328577,50.053924 C43.719437,50.053924 45.650117,51.984604 45.650117,54.378924 C45.650117,56.766324 43.719437,58.703924 41.328577,58.703924 C38.941177,58.703924 37.000117,56.766324 37.000117,54.378924 C37.000117,51.984604 38.941177,50.053924 41.328577,50.053924 Z M60.223291,50.053924 C62.610691,50.053924 64.551751,51.984604 64.551751,54.378924 C64.551751,56.766324 62.610691,58.703924 60.223291,58.703924 C57.832431,58.703924 55.901751,56.766324 55.901751,54.378924 C55.901751,51.984604 57.832431,50.053924 60.223291,50.053924 Z M50.779394,34.918154 C53.168524,34.918154 55.100934,36.848834 55.100934,39.243154 C55.100934,41.630554 53.168524,43.568154 50.779394,43.568154 C48.391994,43.568154 46.450934,41.630554 46.450934,39.243154 C46.450934,36.848834 48.391994,34.918154 50.779394,34.918154 Z M31.87949,34.918154 C34.26862,34.918154 36.20103,36.848834 36.20103,39.243154 C36.20103,41.630554 34.26862,43.568154 31.87949,43.568154 C29.49209,43.568154 27.55103,41.630554 27.55103,39.243154 C27.55103,36.848834 29.49209,34.918154 31.87949,34.918154 Z M69.670821,34.918154 C72.059951,34.918154 74.001011,36.848834 74.001011,39.243154 C74.001011,41.630554 72.059951,43.568154 69.670821,43.568154 C67.283421,43.568154 65.349281,41.630554 65.349281,39.243154 C65.349281,36.848834 67.283421,34.918154 69.670821,34.918154 Z M60.223291,18.386793 C62.610691,18.386793 64.551751,20.317473 64.551751,22.711793 C64.551751,25.097463 62.610691,27.036793 60.223291,27.036793 C57.832431,27.036793 55.901751,25.097463 55.901751,22.711793 C55.901751,20.317473 57.832431,18.386793 60.223291,18.386793 Z M40.973754,13.808521 C42.3518107,13.808521 43.4789817,14.8826899 43.5636487,16.2394091 L43.568754,16.403521 L43.5682117,20.357712 L47.525091,20.358474 C48.9582699,20.358474 50.120091,21.5202951 50.120091,22.953474 C50.120091,24.3315307 49.0459221,25.4587017 47.6892029,25.5433687 L47.525091,25.548474 L43.5682117,25.547712 L43.568754,29.503081 C43.568754,30.9362599 42.4069329,32.098081 40.973754,32.098081 C39.5956973,32.098081 38.4685263,31.0239121 38.3838593,29.6671929 L38.378754,29.503081 L38.3782117,25.547712 L34.425531,25.548474 C32.9923521,25.548474 31.830531,24.3866529 31.830531,22.953474 C31.830531,21.5754173 32.9046999,20.4482463 34.2614191,20.3635793 L34.425531,20.358474 L38.3782117,20.357712 L38.378754,16.403521 C38.378754,14.9703421 39.5405751,13.808521 40.973754,13.808521 Z" fill="#00B077"></path>
    </g>
</svg>