<?xml version="1.0" encoding="UTF-8"?>
<svg width="100px" height="100px" viewBox="0 0 100 100" version="1.1" xmlns="http://www.w3.org/2000/svg" xmlns:xlink="http://www.w3.org/1999/xlink">
    <!-- Generator: Sketch 63.1 (92452) - https://sketch.com -->
    <title>Snowflake01</title>
    <desc>Created with Sketch.</desc>
    <g id="Snowflake01" stroke="none" stroke-width="1" fill="none" fill-rule="evenodd">
        <path d="M50.493471,0.405 C51.8715277,0.405 52.9986987,1.47916889 53.0833657,2.83588812 L53.088471,3 L53.0877855,13.237 L65.4264248,7.53877189 C66.7274956,6.93775894 68.2694392,7.50526797 68.8704521,8.80633879 C69.4474245,10.0553668 68.9474871,11.5263831 67.7554648,12.1738037 L67.6028852,12.2503661 L53.0877855,18.955 L53.0877855,28.534 L62.6691619,24.4582689 C63.4417958,24.1295575 64.3215838,24.1963188 65.0324567,24.628341 L65.1933801,24.7345086 L65.3617957,24.8640412 C65.8654258,25.2851194 66.1928056,25.883581 66.2730196,26.5400588 L66.2730196,26.5400588 L67.5347855,36.874 L75.8297855,32.084 L74.3790474,16.1633075 C74.2489642,14.7360444 75.3005363,13.4735656 76.7277995,13.3434824 C78.1001679,13.2184024 79.3201838,14.1858291 79.5276446,15.5292634 L79.5476246,15.6922345 L80.7797855,29.226 L89.6471485,24.1076806 C90.8883087,23.3910753 92.4753912,23.8163112 93.1919964,25.0574715 C93.8787431,26.2469167 93.5168198,27.7540579 92.3930774,28.508298 L92.2422055,28.6023194 L83.3747855,33.722 L94.4823697,41.5564319 C95.6047136,42.3481044 95.9083707,43.8680568 95.2046528,45.0241088 L95.1071351,45.1727447 C94.3154626,46.2950886 92.7955102,46.5987457 91.6394582,45.8950278 L91.4908223,45.7975101 L78.4227855,36.58 L70.1297855,41.369 L78.4504121,47.6293523 C79.0016998,48.0441711 79.3608919,48.6578246 79.4583644,49.3307909 L79.4784065,49.5156928 L79.485157,49.702907 L79.478408,49.9039412 C79.4246249,50.6485141 79.0519082,51.3376125 78.4506121,51.7901512 L78.4506121,51.7901512 L70.1307855,58.051 L78.4257855,62.84 L91.4913413,53.6242199 C92.6624827,52.7981269 94.2815611,53.0778439 95.1076541,54.2489853 C95.8993265,55.3713291 95.6754201,56.9050595 94.6246231,57.7579961 L94.4828887,57.8652981 L83.3767855,65.699 L92.2422055,70.8176806 C93.4833658,71.5342858 93.9086017,73.1213683 93.1919964,74.3625285 C92.5052498,75.5519738 91.0190543,75.9920718 89.8040072,75.3959716 L89.6471485,75.3123194 L80.7807855,70.193 L79.5481415,83.7277885 C79.4230493,85.1001559 78.2509968,86.1251664 76.8921932,86.0863284 L76.7282955,86.0765155 C75.3559281,85.9514233 74.3309176,84.7793708 74.3697556,83.4205672 L74.3795685,83.2566695 L75.8297855,67.335 L67.5347855,62.545 L66.2730196,72.8813252 C66.1758476,73.6765883 65.7183763,74.3750088 65.0449944,74.7841664 L64.8858316,74.873365 L64.7193976,74.9517684 L64.5097716,75.0322495 C63.9105404,75.23313 63.255763,75.2090664 62.6696923,74.9598807 L62.6696923,74.9598807 L53.0877855,70.886 L53.0877855,80.464 L67.6023267,87.1713325 C68.9033193,87.7725147 69.4706277,89.3145321 68.8694455,90.6155247 C68.2923106,91.8644776 66.848102,92.4372672 65.5824537,91.9492044 L65.4252533,91.8826435 L53.0877855,86.181 L53.088471,96.42 C53.088471,97.8531789 51.9266499,99.015 50.493471,99.015 C49.1154143,99.015 47.9882433,97.9408311 47.9035763,96.5841119 L47.898471,96.42 L47.8977855,86.182 L35.5608998,91.8826883 C34.3119232,92.4597718 32.8408624,91.9599653 32.1933357,90.7680006 L32.1167597,90.6154278 C31.5396762,89.3664512 32.0394827,87.8953904 33.2314474,87.2478637 L33.3840202,87.1712877 L47.8977855,80.464 L47.8977855,70.886 L38.3179417,74.9598807 C37.8335736,75.1658245 37.3012859,75.2183617 36.7915269,75.1159685 L36.6015609,75.0703057 L36.3914017,75.0015512 L36.210897,74.9271852 C35.3936829,74.5542466 34.8228737,73.7814858 34.7128844,72.8813252 L34.7128844,72.8813252 L33.4497855,62.546 L25.1567855,67.335 L26.6078946,83.2582495 C26.7379778,84.6855126 25.6864057,85.9479914 24.2591425,86.0780746 C22.8867741,86.2031546 21.6667582,85.2357279 21.4592974,83.8922936 L21.4393174,83.7293225 L20.2047855,70.193 L11.3404855,75.3123194 C10.0993253,76.0289247 8.51224279,75.6036888 7.79563756,74.3625285 C7.10889088,73.1730833 7.47081424,71.6659421 8.5945566,70.911702 L8.74542845,70.8176806 L17.6097855,65.699 L6.50457228,57.8651251 C5.38222844,57.0734526 5.07857127,55.5535002 5.78228922,54.3974482 L5.87980693,54.2488123 C6.6714794,53.1264684 8.19143184,52.8228113 9.34748381,53.5265292 L9.49611972,53.6240469 L22.5607855,62.84 L30.8547855,58.051 L22.5368714,51.7900379 C21.9857583,51.3752045 21.6266962,50.7616395 21.5292597,50.0887943 L21.5092249,49.9039261 L21.502477,49.716747 L21.5092264,49.5157079 C21.5630123,48.7711155 21.9357484,48.082002 22.5370714,47.6294656 L22.5370714,47.6294656 L30.8557855,41.368 L22.5617855,36.579 L9.49594358,45.7972173 C8.32486836,46.6234041 6.70576757,46.3438168 5.87958074,45.1727416 C5.08781837,44.0504612 5.31160201,42.5167128 6.36233069,41.6636921 L6.50405642,41.5563787 L17.6107855,33.721 L8.74542845,28.6023194 C7.5042682,27.8857142 7.07903233,26.2986317 7.79563756,25.0574715 C8.48238424,23.8680262 9.96857966,23.4279282 11.1836268,24.0240284 L11.3404855,24.1076806 L20.2047855,29.225 L21.4389735,15.6920385 C21.5588536,14.3768531 22.6402648,13.3806812 23.9261062,13.3341329 L24.0949218,13.3334986 L24.2588195,13.3433115 C25.6311869,13.4684037 26.6561974,14.6404562 26.6173594,15.9992598 L26.6075465,16.1631575 L25.1557855,32.084 L33.4497855,36.873 L34.7128844,26.5400588 C34.7920609,25.8920725 35.1116389,25.3027898 35.6003947,24.8840937 L35.7520256,24.7637143 L35.9133798,24.6542414 L36.0960267,24.5486788 C36.7825683,24.1880383 37.5986097,24.1520088 38.3184721,24.4582689 L38.3184721,24.4582689 L47.8977855,28.534 L47.8977855,18.955 L33.3849979,12.2503214 C32.0839518,11.6492549 31.5165062,10.107288 32.1175726,8.80624194 C32.6945964,7.55723767 34.138754,6.98431961 35.4044457,7.47226969 L35.5616521,7.53881664 L47.8977855,13.237 L47.898471,3 C47.898471,1.56682107 49.0602921,0.405 50.493471,0.405 Z M47.8977855,54.205 L38.3337855,59.727 L39.447,68.84 L47.8977855,65.247 L47.8977855,54.205 Z M53.0877855,54.204 L53.0877855,65.246 L61.538,68.839 L62.6517855,59.726 L53.0877855,54.204 Z M35.7397855,44.188 L28.403,49.709 L35.7387855,55.232 L45.3027855,49.709 L35.7397855,44.188 Z M65.2457855,44.189 L55.6837855,49.709 L65.2467855,55.231 L72.583,49.71 L65.2457855,44.189 Z M61.538,30.579 L53.0877855,34.174 L53.0877855,45.215 L62.6517855,39.693 L61.538,30.579 Z M39.447,30.579 L38.3337855,39.693 L47.8977855,45.214 L47.8977855,34.174 L39.447,30.579 Z" id="Snowflake_01" fill="#00B077"></path>
    </g>
</svg>