<?xml version="1.0" encoding="UTF-8"?>
<svg id="Layer_1" data-name="Layer 1" xmlns="http://www.w3.org/2000/svg" viewBox="0 0 94.05 78.64">
  <title>Spaghetti</title>
  <g id="Spaghetti" stroke="none" stroke-width="1" fill="none" fill-rule="evenodd">
    <path class="cls-1" d="M25.56 57A43 43 0 0124 62.31a18.66 18.66 0 00-.58 1.83l-5.07-.35a6.07 6.07 0 01.23-1.24A32.57 32.57 0 0125.56 57zM95.68 82.21h-89a2.54 2.54 0 110-5.08h89a2.54 2.54 0 010 5.08zM83.26 90.45H17a2.54 2.54 0 010-5.08h66.26a2.54 2.54 0 010 5.08zM50 59.4c-13.2 0-24.35 5.33-27.88 13.92h5.64c3.54-5.74 12.18-8.84 22.24-8.84s18.7 3.1 22.24 8.84h5.64C74.35 64.73 63.2 59.4 50 59.4z" transform="translate(-4.17 -11.81)" fill="#00B077"/>
    <path class="cls-1" d="M87.29 73.32h-5.22C79.3 63.28 66 55.64 50 55.64a46.78 46.78 0 00-14.39 2.21 38 38 0 00-6.09 2.58c-5.94 3.19-10.17 7.72-11.59 12.89h-5.22a22.57 22.57 0 015.83-10.77A28.9 28.9 0 0121.26 60c.35-.3.72-.59 1.1-.87a31.77 31.77 0 012.75-1.89l.45-.28a40.3 40.3 0 015-2.53l.67-.29a46.74 46.74 0 015.28-1.79A51.75 51.75 0 0150 50.56c18.91 0 34.62 9.91 37.29 22.76z" transform="translate(-4.17 -11.81)" fill="#00B077"/>
    <path class="cls-1" d="M21.26 60c.35-.3.72-.59 1.1-.87a8.41 8.41 0 00-.23.92zM25.56 57a40.3 40.3 0 015-2.53c-.33 1.48-.7 2.75-1 3.79A17.71 17.71 0 0029 60l-4.49-.24a12.07 12.07 0 01.56-2.57zM49.61 21.93a2.62 2.62 0 01-1 .18 2.55 2.55 0 01-2.36-1.58c-1.63-4-6.36-3.63-6.57-3.61h-8.56A29.08 29.08 0 0130 23.27l-.11.33c-1.05 3.14-2.65 7.89.1 16.1a25.89 25.89 0 011.09 11.24l-1.08.41c-1.34.56-2.64 1.17-3.86 1.82a22.49 22.49 0 00-.42-12c-3.23-9.64-1.28-15.48-.11-19l.11-.31a24.35 24.35 0 00.85-4.92h-2.4a29.08 29.08 0 01-1.09 6.34l-.1.33c-1.06 3.14-2.65 7.89.1 16.1a27.34 27.34 0 01.43 15 34.63 34.63 0 00-5.82 4.44c.11-.6.31-1.29.56-2.16 1-3.51 2.72-9.39.56-15.83-3.23-9.64-1.27-15.48-.1-19l.1-.31a24.35 24.35 0 00.85-4.92v-.08c.11-1.26.16-2.42.18-3.18a1.94 1.94 0 01.15-.36 2.52 2.52 0 011.4-1.31 2.6 2.6 0 01.93-.17h17c3.06-.28 9.24.77 11.67 6.77a2.54 2.54 0 01-1.38 3.33z" transform="translate(-4.17 -11.81)" fill="#00B077"/>
    <path class="cls-1" d="M19.88 13.67c0 .76-.07 1.92-.18 3.18l.08-2.43v-.39c.05-.14.07-.25.1-.36zM91.81 23.33a6.3 6.3 0 01-6.29 6.29H51.21a10.46 10.46 0 01-7.1 6.7 12.39 12.39 0 01-2.58.51h-5a2.54 2.54 0 010-5.08h4.89a5.86 5.86 0 005.37-5.13 2.55 2.55 0 012.5-2.08h36.23a1.22 1.22 0 000-2.43H57A2.54 2.54 0 0157 17h28.52a6.3 6.3 0 016.29 6.33zM34 73.32h32.32S62.6 68.4 50.1 68.4c-11.97 0-16.1 4.92-16.1 4.92z" transform="translate(-4.17 -11.81)" fill="#00B077"/>
  </g>
</svg>
