<?xml version="1.0" encoding="UTF-8"?>
<svg width="100px" height="100px" viewBox="0 0 100 100" version="1.1" xmlns="http://www.w3.org/2000/svg" xmlns:xlink="http://www.w3.org/1999/xlink">
    <!-- Generator: Sketch 63.1 (92452) - https://sketch.com -->
    <title>Star</title>
    <desc>Created with Sketch.</desc>
    <g id="Star" stroke="none" stroke-width="1" fill="none" fill-rule="evenodd">
        <path d="M80.8617019,6.7719384 C81.9636669,7.59173968 82.2287902,9.11888497 81.4960629,10.2567715 L81.3948176,10.4028939 L69.5912589,26.2680653 L89.3938373,29.1488096 C95.9175715,30.0976707 97.8208558,35.6892929 93.276036,40.3227005 L93.0856278,40.5125607 L78.6762589,54.5520653 L97.5145998,60.9169424 C98.8723922,61.375638 99.6012542,62.8481924 99.1425586,64.2059848 C98.7022108,65.5094655 97.3274907,66.233324 96.0169299,65.8833226 L95.8535162,65.8339436 L77.1212589,59.5050653 L80.5061199,79.2345067 C81.6173301,85.7253854 76.8846745,89.2622926 71.0750427,86.3703276 L70.8481589,86.2543931 L53.0262589,76.8830653 L52.7989772,96.7668812 C52.7825345,98.1999658 51.6074604,99.3483809 50.1743758,99.3321126 C48.7964099,99.3161279 47.6816368,98.2290978 47.612541,96.8714965 L47.6093188,96.7073368 L47.8352589,76.9340653 L37.9132794,82.1558357 C36.6956337,82.796388 35.2008156,82.3728965 34.4928454,81.2158101 L34.4085243,81.0673774 C33.767972,79.8497317 34.1914635,78.3549136 35.3485499,77.6469434 L35.4969826,77.5626223 L49.2729726,70.3156523 C49.3302956,70.2848313 49.3854834,70.2582864 49.4417046,70.2336781 L49.2729726,70.3156523 C49.3384907,70.281186 49.4051149,70.2497055 49.4726538,70.2212107 C49.5787113,70.1755782 49.6885815,70.137574 49.8014755,70.1070061 C49.8106349,70.1053154 49.8200002,70.1028296 49.829376,70.1003971 C50.0010372,70.0552108 50.179326,70.0279608 50.3624667,70.019734 C50.3940728,70.0185334 50.4250264,70.0176803 50.4559841,70.0173806 C50.4737933,70.0170295 50.4922352,70.0170456 50.5107202,70.0172554 L50.5347784,70.0178133 C50.5637777,70.0184125 50.5927691,70.0194976 50.6217403,70.0210685 L50.5107202,70.0172554 C50.5903496,70.0181791 50.6691002,70.0226795 50.7468209,70.0306021 C50.7607838,70.0323221 50.7747919,70.033878 50.7887895,70.0355482 C50.8392619,70.0411958 50.8893242,70.0486202 50.9388934,70.0574494 C50.947678,70.0595008 50.9566615,70.0611582 50.9656381,70.0628636 C51.0237494,70.073346 51.0809379,70.0862076 51.1373713,70.1009182 C51.1405075,70.1023887 51.1444944,70.1034394 51.1484794,70.1044998 C51.334751,70.1533513 51.5119438,70.2226246 51.6784859,70.3094138 L51.6889131,70.3154649 L73.2607166,81.6592159 L73.5870835,81.825427 C75.3028569,82.6703808 75.7232129,82.3646124 75.4482041,80.4726149 L75.3906737,80.1110393 L71.2715437,56.0934493 C71.2597816,56.0276259 71.2520095,55.9699351 71.2461895,55.9118952 L71.2715437,56.0934493 C71.258537,56.0176106 71.2489673,55.9416328 71.2427681,55.8657207 C71.2216811,55.618907 71.2367264,55.3660434 71.2906062,55.1143524 C71.2959636,55.0914652 71.3012185,55.0683419 71.3067875,55.0453004 L71.2906062,55.1143524 C71.3022521,55.0599503 71.3157123,55.0056029 71.331022,54.9513812 C71.336779,54.9321145 71.3424933,54.9126921 71.3484336,54.8933401 C71.3552108,54.8703083 71.362696,54.847093 71.3705274,54.8239112 L71.390568,54.7676118 C71.3964434,54.7514605 71.4024795,54.7353663 71.4086756,54.7193317 L71.3705274,54.8239112 C71.3957107,54.7493657 71.42395,54.676716 71.4550585,54.6060544 C71.4632994,54.5885087 71.4713496,54.57082 71.4796002,54.5532184 C71.5854485,54.3254522 71.721842,54.1194255 71.8818311,53.9380756 C71.8857815,53.935135 71.8889488,53.9315631 71.8921269,53.9279988 L71.9283598,53.8867411 C71.9542566,53.8589292 71.9807231,53.831737 72.007734,53.805177 L72.0180942,53.7963273 L89.4624819,36.7965263 C91.076848,35.2217238 91.0173901,34.6856516 89.0101931,34.3419783 L88.6469712,34.2847897 L64.5394212,30.7798097 L64.4968315,30.773018 C64.4707557,30.7688123 64.444719,30.7642031 64.418731,30.7591891 L64.5394212,30.7798097 C64.4669855,30.7692783 64.3953913,30.75575 64.3247886,30.7393337 C64.2953418,30.7324155 64.2662943,30.7251444 64.2373368,30.7173556 C64.2103815,30.7101299 64.1833622,30.7023768 64.1565117,30.6941986 C64.1281125,30.6855537 64.0997882,30.6763976 64.0715773,30.6667326 C64.0461737,30.6580109 64.0215416,30.6491441 63.9970731,30.639916 C63.9649047,30.627795 63.9320737,30.614645 63.8994375,30.6007826 C63.8749194,30.5904066 63.8510366,30.5798402 63.8273351,30.5689236 C63.7951139,30.5539813 63.7630813,30.5383963 63.7312795,30.5220976 C63.715143,30.5140068 63.6993014,30.5056945 63.6835525,30.4972221 C63.6485378,30.4781322 63.613704,30.4583086 63.5791987,30.4375946 C63.5593417,30.4260335 63.539796,30.4139653 63.5204174,30.4016424 C63.4990656,30.3876391 63.4779053,30.3737273 63.4568867,30.3594667 C63.3813791,30.3087385 63.3087424,30.2537156 63.2391353,30.1949794 L63.3633421,30.2929796 C63.2970031,30.243627 63.2336969,30.1917109 63.1734586,30.1374706 C63.1486135,30.1152133 63.1240178,30.0921223 63.0998663,30.0685447 C62.8876605,29.862253 62.7166129,29.6247535 62.5893477,29.3689539 L62.5858182,29.3604034 L55.6450582,15.2989634 C55.010707,14.0138173 55.5382806,12.4577573 56.8234266,11.8234062 C58.0571669,11.2144291 59.5405814,11.6762818 60.2185138,12.8512193 L60.2989838,13.0017746 L65.3612589,23.2580653 L77.2307464,7.30505414 C78.0861912,6.15517762 79.7118254,5.91649358 80.8617019,6.7719384 Z M61.7844795,86.8687519 L61.8619594,87.0208676 L64.0279194,91.6365076 C64.6367573,92.9339352 64.078545,94.4792686 62.7811174,95.0881064 C61.5355869,95.6725908 60.0615864,95.1815217 59.4069985,93.9934201 L59.3295186,93.8413044 L57.1635586,89.2256644 C56.5547207,87.9282368 57.112933,86.3829034 58.4103606,85.7740656 C59.6558911,85.1895812 61.1298916,85.6806503 61.7844795,86.8687519 Z M42.475818,86.6173208 C43.6041533,87.4004303 43.9193671,88.9180282 43.2244661,90.0794014 L43.1280822,90.228775 L40.4085222,94.147225 C39.5913644,95.3246183 37.9744613,95.616647 36.797068,94.7994892 C35.6687327,94.0163797 35.3535189,92.4987818 36.0484199,91.3374086 L36.1448038,91.188035 L38.8643638,87.269585 C39.6815216,86.0921917 41.2984247,85.800163 42.475818,86.6173208 Z M56.4539036,5.21473915 C57.0880413,6.49999057 56.5602093,8.05596288 55.2749579,8.69010057 C53.9897064,9.32423825 52.4337341,8.79640628 51.7995964,7.51115485 L51.62422,7.16666055 C50.7139536,5.44068563 50.1883575,5.49588728 49.2542493,7.32883274 L49.1654557,7.5058795 L38.3840957,29.3592395 L38.3667027,29.3938207 C38.352956,29.4207257 38.3387229,29.4474195 38.3240058,29.4738879 L38.3840957,29.3592395 C38.3542784,29.419678 38.322265,29.4786533 38.2881727,29.5360805 C38.2700112,29.5669079 38.2508814,29.5976868 38.231071,29.6281057 C38.2180464,29.647835 38.2051837,29.6670006 38.1920827,29.6859702 C38.1677314,29.7214863 38.1424808,29.7561691 38.1162998,29.7902938 C38.1067383,29.8025405 38.0972101,29.8147379 38.0875791,29.8268421 C38.0639684,29.856688 38.0394592,29.8861063 38.0142266,29.9150484 C37.9982792,29.9332725 37.9823289,29.9510845 37.9661461,29.9686616 C37.9483562,29.9879575 37.9301892,30.007064 37.9116882,30.0259324 C37.8878995,30.050358 37.8629076,30.0748992 37.8374453,30.0989111 C37.835011,30.1009577 37.8329441,30.1028958 37.8308735,30.104831 L37.7225596,30.2009988 C37.7186624,30.2042607 37.7147557,30.207511 37.7108397,30.2107497 C37.693258,30.2248183 37.6750748,30.2394353 37.6566469,30.2538469 C37.5811594,30.3134449 37.5026904,30.3681655 37.4213681,30.4184418 L37.5573271,30.3278251 C37.4871414,30.3775894 37.4153316,30.4233723 37.3421663,30.4652196 C37.3195773,30.4783766 37.2960472,30.4913247 37.2723095,30.5039105 C37.0063101,30.6451546 36.7247032,30.7357789 36.4391542,30.7781218 L36.4301811,30.7791291 L12.3176663,34.2840764 C10.0917924,34.6078242 9.82201589,35.0753767 11.2344223,36.5281543 L11.5010768,36.7949253 L28.9179993,53.7674358 C28.9711184,53.817507 29.0222456,53.8699405 29.0711999,53.9246412 L28.9463968,53.7956353 C28.9974686,53.8454055 29.0462225,53.8970078 29.0926056,53.9502794 C29.2929637,54.1786511 29.4550169,54.4461617 29.5666492,54.7454725 C29.5756689,54.7713066 29.5848783,54.7971944 29.5936744,54.8232208 C29.6006636,54.8421638 29.6069901,54.8616319 29.6131058,54.8812241 L29.6234036,54.9170046 C29.6300894,54.9395711 29.6364691,54.9622303 29.6425404,54.9849758 L29.6131058,54.8812241 C29.6373307,54.9588315 29.6577266,55.0367192 29.6744001,55.1146839 C29.67658,55.1286076 29.6795133,55.142992 29.682325,55.1574037 C29.7406572,55.4502851 29.7459699,55.7434546 29.7047914,56.0264242 L29.692978,56.0925783 L25.5758439,80.1086146 L25.5184232,80.47041 C25.2273912,82.4783225 25.718595,82.7013429 27.705875,81.6600597 C28.9753443,80.9948907 30.5436784,81.4847728 31.2088473,82.754242 C31.8740163,84.0237113 31.3841342,85.5920454 30.114665,86.2572143 C24.2834147,89.3126383 19.4636947,85.8997864 20.4194637,79.4878771 L20.460202,79.2332257 L23.8602589,59.3950653 L4.88118085,65.3197268 C3.51310317,65.7467693 2.05787074,64.9839095 1.63082824,63.6158319 C1.22086743,62.3024773 1.90752053,60.9088009 3.17349629,60.4215883 L3.33472315,60.3654792 L22.2072589,54.4740653 L7.87694129,40.5099939 C3.16042277,35.9041563 4.90943083,30.2645342 11.3054187,29.1896731 L11.5708789,29.1480849 L31.4862589,26.2520653 L19.9853199,10.0314101 C19.1563702,8.86228897 19.4321337,7.24253253 20.6012549,6.41358287 C21.7216627,5.61917278 23.2559351,5.83933432 24.1114344,6.88804592 L24.2190821,7.02951787 L35.6542589,23.1570653 L44.5116897,5.20836775 C47.4680866,-0.775910593 53.4996032,-0.772949128 56.4539036,5.21473915 Z M17.0664823,67.25948 C18.0048789,68.2588235 17.9984197,69.8048243 17.0817508,70.7959408 L16.951112,70.9275503 L13.235072,74.4169603 C12.1903037,75.3980113 10.5480527,75.3463583 9.56700171,74.30159 C8.62860508,73.3022465 8.63506434,71.7562457 9.55173316,70.7651292 L9.68237199,70.6335197 L13.398412,67.1441097 C14.4431803,66.1630587 16.0854313,66.2147117 17.0664823,67.25948 Z M4.87765576,47.7185325 L5.04261778,47.7624626 L9.60808778,49.1378126 C10.980351,49.5512075 11.7576674,50.9987695 11.3442724,52.3710328 C10.9474133,53.6884055 9.59746577,54.4574752 8.27601424,54.1511475 L8.11105222,54.1072174 L3.54558222,52.7318674 C2.17331896,52.3184725 1.39600262,50.8709105 1.80939758,49.4986472 C2.20625673,48.1812745 3.55620423,47.4122048 4.87765576,47.7185325 Z M16.2628327,16.159599 L16.414999,16.2369794 L20.885319,18.6953094 C22.1411342,19.3859106 22.5993308,20.9637928 21.9087296,22.219608 C21.2457525,23.4251906 19.7650571,23.8956879 18.5365973,23.320399 L18.384431,23.2430186 L13.914111,20.7846886 C12.6582958,20.0940874 12.2000992,18.5162052 12.8907004,17.26039 C13.5536775,16.0548074 15.0343729,15.5843101 16.2628327,16.159599 Z M89.0182131,18.2982147 C89.4719702,19.5970883 88.8324224,21.0129996 87.5834906,21.5423769 L87.4242353,21.6038591 L82.9227753,23.1764291 C81.569782,23.6490928 80.0897946,22.9354446 79.6171309,21.5824513 C79.1633738,20.2835777 79.8029216,18.8676664 81.0518534,18.3382891 L81.2111087,18.2768069 L85.7125687,16.7042369 C87.065562,16.2315732 88.5455494,16.9452214 89.0182131,18.2982147 Z M68.1722914,2.79666161 C69.5256685,3.0562967 70.4302726,4.32359498 70.2578083,5.67196866 L70.2319024,5.83410336 L69.2717524,10.8389934 C69.0017319,12.2465056 67.6418229,13.1686249 66.2343106,12.8986044 C64.8809335,12.6389693 63.9763294,11.371671 64.1487937,10.0232973 L64.1746996,9.86116264 L65.1348496,4.85627264 C65.4048701,3.44876038 66.7647791,2.52664111 68.1722914,2.79666161 Z M34.0796418,2.21748492 C35.4573502,2.18650273 36.6083864,3.23505845 36.7235344,4.58953122 L36.7323281,4.75348684 L36.8395881,9.52309684 C36.8718096,10.9559135 35.7364028,12.1435616 34.3035862,12.1757831 C32.9258778,12.2067653 31.7748416,11.1582095 31.6596936,9.80373678 L31.6508999,9.63978116 L31.5436399,4.87017116 C31.5114184,3.43735449 32.6468252,2.24970641 34.0796418,2.21748492 Z M88.1964188,67.9496753 L88.3087315,68.0874729 L91.1978315,71.8865529 C92.0653666,73.0273355 91.8438556,74.6553985 90.7030731,75.5229335 C89.6098231,76.3543213 88.0690534,76.1855262 87.1790052,75.1659727 L87.0666925,75.0281751 L84.1775925,71.2290951 C83.3100574,70.0883125 83.5315684,68.4602495 84.6723509,67.5927145 C85.7656009,66.7613267 87.3063706,66.9301218 88.1964188,67.9496753 Z M99.0056757,50.8985465 C99.1776377,52.2658319 98.25252,53.5182338 96.9169705,53.7715384 L96.7547785,53.7970827 L91.6927985,54.4337227 C90.2708217,54.6125632 88.9731029,53.6048022 88.7942623,52.1828255 C88.6223003,50.8155401 89.547418,49.5631382 90.8829675,49.3098336 L91.0451595,49.2842893 L96.1071395,48.6476493 C97.5291163,48.4688088 98.8268351,49.4765698 99.0056757,50.8985465 Z" fill="#00B077"></path>
    </g>
</svg>