<?xml version="1.0" encoding="UTF-8"?>
<svg width="100px" height="100px" viewBox="0 0 100 100" version="1.1" xmlns="http://www.w3.org/2000/svg" xmlns:xlink="http://www.w3.org/1999/xlink">
    <!-- Generator: Sketch 63.1 (92452) - https://sketch.com -->
    <title>Steak</title>
    <desc>Created with Sketch.</desc>
    <g id="Steak" stroke="none" stroke-width="1" fill="none" fill-rule="evenodd">
        <path d="M84.3853007,7.38409536 C88.5313295,8.6055555 94.02198,12.5968335 95.4866125,15.4437886 C96.1396001,16.7130671 95.6399977,18.2713717 94.3707192,18.9243593 C93.1522119,19.5512275 91.667338,19.1158686 90.9727761,17.9570605 L90.8901484,17.8084661 C90.1324922,16.3357326 85.8075181,13.1918111 82.9245589,12.3424635 C77.7801423,10.8269545 74.1796594,10.8709047 70.066021,12.198515 L69.7362257,12.3111134 C67.334209,13.1651647 60.0780283,16.3173064 58.7089926,16.850372 C51.7100805,19.5755601 44.4745325,21.3413932 34.995812,22.2385538 C7.71880756,24.8215796 -2.71926362,52.5693515 14.6348219,74.6960559 C27.2694447,90.8086036 50.6058455,93.097597 69.2729612,77.8751823 C84.7443588,65.2592567 95.9677367,43.4735676 93.7592018,26.3278171 C93.5768462,24.9121169 94.5766696,23.6166366 95.9923698,23.434281 C97.4080701,23.2519254 98.7035503,24.2517488 98.8859059,25.6674491 C101.350517,44.8012227 89.2807095,68.2299156 72.5396483,81.8811699 C51.6534716,98.9131554 25.0063063,96.2994197 10.5673572,77.8858696 C-9.22945086,52.6446596 3.02284772,20.074084 34.5086199,17.0925043 C43.2188514,16.2680811 49.8445585,14.6917453 56.2174561,12.2705246 L56.8334604,12.0335722 C58.0643877,11.5542823 66.2186,8.00861747 68.4784227,7.27929625 C73.5822188,5.63212862 78.2450172,5.57521094 84.3853007,7.38409536 Z M77.6877034,32.0053121 C78.7425355,32.9669721 78.8180665,34.6016619 77.8564065,35.6564941 L77.3106837,36.2350229 L77.0392339,36.5149034 C76.3977712,37.1720895 75.6568173,37.9015848 74.8243798,38.6854641 C72.4512453,40.9201675 69.8109866,43.1535751 66.9649806,45.2423931 C62.345474,48.6328667 57.6571723,51.2993737 52.9857401,52.9859336 C54.1910539,57.6852233 52.6690727,62.8725906 48.6623911,66.1452101 C43.1630485,70.6266352 35.0659287,69.8002488 30.5790379,64.3016501 C26.0946511,58.8013199 26.9172469,50.7047895 32.4170442,46.222994 C37.9172371,41.738719 46.0117252,42.5611751 50.4957003,48.0610002 L50.4957003,48.0610002 L50.6944847,48.3122831 C55.0173407,46.829905 59.4751526,44.3276492 63.9065233,41.0752574 C66.5705356,39.1200132 69.0525121,37.0204971 71.2807089,34.9222768 L71.9256758,34.3079298 C72.3409098,33.907737 72.7263873,33.5268533 73.0804976,33.1686714 L73.7770879,32.4513142 C73.893501,32.3288361 73.9803338,32.2356465 74.0365214,32.1740152 C74.9981814,31.119183 76.6328712,31.0436521 77.6877034,32.0053121 Z M46.4894046,51.3273095 C43.8095692,48.0403541 38.9711841,47.5487407 35.6828814,50.2296744 C32.396502,52.9077515 31.904789,57.7475155 34.584635,61.0344843 C37.2673829,64.3221403 42.1104083,64.8164161 45.3947547,62.1399979 C48.1914769,59.8556607 48.9627939,56.0080488 47.4776536,52.8868983 L47.36811,52.6669634 C47.3372687,52.6142987 47.3081655,52.5602917 47.2808983,52.5049976 C47.0589587,52.0959287 46.794743,51.7015289 46.4894046,51.3273095 Z" fill="#00B077"></path>
    </g>
</svg>