<?xml version="1.0" encoding="UTF-8"?>
<svg width="100px" height="100px" viewBox="0 0 100 100" version="1.1" xmlns="http://www.w3.org/2000/svg" xmlns:xlink="http://www.w3.org/1999/xlink">
    <!-- Generator: Sketch 63.1 (92452) - https://sketch.com -->
    <title>Strawberry</title>
    <desc>Created with Sketch.</desc>
    <g id="Strawberry" stroke="none" stroke-width="1" fill="none" fill-rule="evenodd">
        <path d="M40.5623446,9.53269432 C42.0441071,9.96594546 43.1499902,10.4093868 43.8030268,10.7309611 C45.0835834,11.3615447 45.6104906,12.9108299 44.979907,14.1913865 C44.3745468,15.4207208 42.9225111,15.9554918 41.6743624,15.4384066 L41.3595209,15.2949902 C41.2601282,15.2512987 41.1235185,15.1935217 40.9517517,15.124646 C40.4213252,14.9119535 39.8042263,14.6965131 39.1117051,14.4940275 C33.811616,12.9443394 28.1412741,13.1171677 22.8531844,16.1538039 C20.7577634,17.3570798 18.7762491,18.9943426 16.9263262,21.1140242 C6.89926019,32.6014958 4.70555103,74.3084718 13.2263181,82.8307864 C21.7466588,91.3511272 63.451856,89.1547917 74.941896,79.1268621 C77.0640335,77.2755468 78.702665,75.2921318 79.9062719,73.1944934 C82.9386575,67.9096711 83.1100933,62.2425443 81.5605077,56.9450219 C81.3983913,56.3907995 81.2279762,55.8848534 81.0573084,55.4329486 L80.9293859,55.1042429 C80.8776856,54.9753578 80.8322328,54.8662552 80.7942885,54.7778051 L80.685546,54.5362129 C80.0547895,53.2557415 80.5814874,51.7063852 81.8619588,51.0756287 C83.1424302,50.4448721 84.6917866,50.9715701 85.3225431,52.2520415 C85.6443401,52.9053076 86.0881037,54.0115781 86.5216773,55.4938233 C88.4321503,62.0251007 88.2182913,69.0946068 84.3897023,75.7670472 C82.8973607,78.3678906 80.8905846,80.7969114 78.3403735,83.0216704 C64.9336567,94.7223793 20.1654025,97.0800256 9.57107475,86.4856978 C-1.02318466,75.8895143 1.33163599,31.1194736 13.0319749,17.7150229 C15.2550479,15.167778 17.6814107,13.1629508 20.2791157,11.671243 C26.9549,7.83773624 34.0280907,7.62215006 40.5623446,9.53269432 Z M53.3574444,73.8316469 C53.7637205,77.201408 56.430615,77.8691731 58.5162209,75.083511 C59.3717028,73.9408774 60.9914954,73.7080949 62.134129,74.5635768 C63.2767626,75.4190586 63.5095451,77.0388512 62.6540633,78.1814849 C57.8056115,84.657372 49.1962548,82.5016706 48.2255484,74.4503752 C48.0546913,73.0332412 49.0649983,71.7459201 50.4821323,71.575063 C51.8992662,71.4042059 53.1865873,72.4145129 53.3574444,73.8316469 Z M24.654577,67.8600981 C26.0264887,68.2542032 26.8191577,69.6858428 26.4250526,71.0577546 C25.4879625,74.3198411 27.6840985,75.9718519 30.6893807,74.2169502 C31.9220105,73.4971694 33.5047521,73.9129158 34.2245329,75.1455457 C34.9443136,76.3781755 34.5285673,77.9609171 33.2959374,78.6806979 C26.3097548,82.7602028 19.2177407,77.4253404 21.4569205,69.6305738 C21.8510256,68.258662 23.2826652,67.465993 24.654577,67.8600981 Z M40.8295338,53.8732741 C42.226493,54.1664736 43.121267,55.5366179 42.8280675,56.933577 C42.1307154,60.2561354 44.4406109,61.7454884 47.3111368,59.7777221 C48.4884656,58.9706547 50.0971365,59.2708108 50.9042039,60.4481396 C51.7112713,61.6254683 51.4111151,63.2341392 50.2337864,64.0412066 C43.5608384,68.6155608 36.1036763,63.8074009 37.7692309,55.8718078 C38.0624304,54.4748487 39.4325747,53.5800747 40.8295338,53.8732741 Z M62.6576101,52.3793918 C64.0845578,52.4151827 65.2123133,53.6009666 65.1765224,55.0279143 C65.091434,58.4203097 67.6332488,59.4655391 70.0964026,57.0096635 C71.1072167,56.0018363 72.7436488,56.0042575 73.751476,57.0150716 C74.7593033,58.0258856 74.756882,59.6623177 73.746068,60.6701449 C68.0165703,66.3827129 59.805722,63.0062982 60.0090876,54.8983041 C60.0448785,53.4713564 61.2306624,52.3436009 62.6576101,52.3793918 Z M21.5595445,45.9292015 C22.6323434,46.8707764 22.7387215,48.5037491 21.7971466,49.576548 C19.5579793,52.1277802 20.8387265,54.5581066 24.3045511,54.2533387 C25.7264607,54.1283029 26.9805078,55.1796267 27.1055436,56.6015363 C27.2305795,58.0234459 26.1792556,59.2774929 24.7573461,59.4025288 C16.6993505,60.11111 12.5628243,52.261701 17.9121981,46.1668036 C18.853773,45.0940047 20.4867456,44.9876267 21.5595445,45.9292015 Z M38.0599172,34.4986606 C39.1496691,35.4205617 39.285739,37.0513286 38.3638379,38.1410805 C36.2141083,40.6822118 37.4455294,43.0450516 40.7553388,42.7888103 L40.956411,42.7702734 C42.3757504,42.618826 43.6491248,43.6466556 43.8005722,45.065995 C43.9520196,46.4853345 42.92419,47.7587088 41.5048505,47.9101562 C33.4594643,48.7686209 29.1790824,40.9947556 34.4174973,34.8025813 C35.3393984,33.7128294 36.9701653,33.5767595 38.0599172,34.4986606 Z M51.3637315,6.73555334 L51.5102973,6.78088158 L73.662,14.299 L73.9135412,14.1265433 C75.0118541,13.3808279 76.2546494,12.6383318 77.6234368,11.94537 C83.4064275,9.01767532 89.5567582,7.82802717 95.6456493,9.4593578 C97.0244188,9.82875657 97.8426754,11.245927 97.4732766,12.6246965 C97.1038778,14.003466 95.6867075,14.8217226 94.307938,14.4523238 C89.6337855,13.2000288 84.7068931,14.1530293 79.9581761,16.5571131 C78.9619852,17.0614443 78.044475,17.5966257 77.2209726,18.134187 L76.8171264,18.4030342 C76.5171705,18.6066935 76.2713296,18.7818617 76.0835557,18.920667 L75.7464105,19.1799522 C75.1054745,19.7046167 74.2553822,19.8879479 73.4609063,19.6819316 L73.2786735,19.627456 L55.574,13.618 L59.5508085,22.1578606 L63.4323389,21.5050543 C64.8399066,21.2679596 66.173169,22.2168154 66.4102637,23.6243831 C66.6382394,24.9778136 65.7697372,26.2625446 64.4512695,26.5701443 L64.2909349,26.6023079 L60.2718085,27.2788606 L58.488,37.569 L68.7778085,35.7828606 L69.4544519,31.7659972 C69.6915467,30.3584295 71.024809,29.4095737 72.4323767,29.6466684 C73.7858072,29.8746442 74.7151328,31.1160884 74.5738409,32.4625695 L74.5517055,32.6245932 L73.8978085,36.5038606 L82.395,40.461 L77.0715642,25.0504854 C76.6240956,23.7553037 77.2659159,22.3473071 78.511617,21.8243526 L78.6704397,21.7636651 C79.9656214,21.3161965 81.373618,21.9580168 81.8965725,23.2037178 L81.95726,23.3625406 L89.2714799,44.5332873 C89.9995869,46.6407667 87.9047347,48.5926914 85.8787067,47.7812966 L85.7375039,47.7201713 L70.666,40.701 L55.7567372,43.2904892 C54.0502433,43.5867906 52.5586449,42.1581388 52.7447582,40.4669848 L52.7680556,40.3025543 L55.354,25.389 L48.3367086,10.3193161 C47.3982862,8.30404788 49.2677569,6.15007563 51.3637315,6.73555334 Z M39.1499995,21.0087435 C40.4459896,21.6069662 41.0116418,23.1425291 40.4134191,24.4385192 C39.8151964,25.7345093 38.2796335,26.3001615 36.9836434,25.7019388 C30.3956295,22.6609436 22.8848063,28.0677529 22.6642676,34.1915624 L22.6595047,34.4105616 C22.6488581,35.8379184 21.483126,36.986389 20.0557692,36.9758158 C18.6284124,36.9650957 17.4799419,35.7993636 17.490515,34.3720068 C17.5636585,24.5757559 28.898349,16.2766314 39.1499995,21.0087435 Z" fill="#00B077"></path>
    </g>
</svg>