<?xml version="1.0" encoding="UTF-8"?>
<svg width="100px" height="100px" viewBox="0 0 100 100" version="1.1" xmlns="http://www.w3.org/2000/svg" xmlns:xlink="http://www.w3.org/1999/xlink">
    <!-- Generator: Sketch 63.1 (92452) - https://sketch.com -->
    <title>Sun</title>
    <desc>Created with Sketch.</desc>
    <g id="Sun" stroke="none" stroke-width="1" fill="none" fill-rule="evenodd">
        <path d="M49.2277861,91.7610053 L50.227778,91.7650408 C52.1386679,91.7726981 53.6815428,93.3279879 53.6739139,95.2388777 C53.6662283,97.1497676 52.1109385,98.6926425 50.2000487,98.6850137 L49.2000567,98.6809781 C47.2891668,98.6733209 45.7462919,97.1180311 45.7539208,95.2071412 C45.7616064,93.2962513 47.3168962,91.7533765 49.2277861,91.7610053 Z M68.9199202,91.3926216 C69.5686073,93.1900542 68.6373651,95.173026 66.8399325,95.8217131 L65.8993141,96.1611789 C64.1018815,96.809866 62.1189098,95.8786238 61.4702227,94.0811912 C60.8215356,92.2837586 61.7527778,90.3007868 63.5502104,89.6520997 L64.4908288,89.3126339 C66.2882614,88.6639468 68.2712331,89.595189 68.9199202,91.3926216 Z M35.0827341,88.8643899 L36.0208995,89.2105773 C37.8136447,89.8721086 38.7306747,91.8616927 38.0691434,93.6544379 C37.4076121,95.447183 35.4180279,96.364213 33.6252828,95.7026818 L32.6871174,95.3564944 C30.8943723,94.6949631 29.9773422,92.7053789 30.6388735,90.9126338 C31.3004048,89.1198886 33.289989,88.2028586 35.0827341,88.8643899 Z M81.8445147,82.5883515 C83.0684052,84.0558838 82.8708944,86.237713 81.4033621,87.4616034 L80.6353846,88.1020802 C79.1678523,89.3259706 76.9860231,89.1284599 75.7621327,87.6609276 C74.5382422,86.1933953 74.735753,84.0115661 76.2032853,82.7876757 L76.9712628,82.1471989 C78.4387951,80.9233084 80.6206243,81.1208192 81.8445147,82.5883515 Z M22.7962252,81.2823423 L23.5589916,81.9290164 C25.0165658,83.1647494 25.1964037,85.3481064 23.9606707,86.8056806 C22.7249376,88.2632549 20.5415807,88.4430927 19.0840064,87.2073597 L18.3212401,86.5606856 C16.8636658,85.3249525 16.683828,83.1415956 17.919561,81.6840213 C19.155294,80.2264471 21.338651,80.0466092 22.7962252,81.2823423 Z M91.02349,69.8822428 C92.6741523,70.8449851 93.2318216,72.9635681 92.2690793,74.6142304 L91.7652645,75.4780421 C90.8025222,77.1287044 88.6839391,77.6863738 87.0332768,76.7236315 C85.3826145,75.7608891 84.8249452,73.6423061 85.7876875,71.9916438 L86.2915023,71.1278321 C87.2542446,69.4771698 89.3728276,68.9195005 91.02349,69.8822428 Z M13.7942531,69.8959626 L14.2892741,70.7648436 C15.2352124,72.4251929 14.6560678,74.5380063 12.9957186,75.4839446 C11.3353693,76.4298828 9.22255584,75.8507383 8.27661759,74.190389 L7.78159658,73.321508 C6.83565834,71.6611587 7.4148029,69.5483453 9.07515216,68.602407 C10.7355014,67.6564688 12.8483149,68.2356133 13.7942531,69.8959626 Z M95.2889464,54.7509001 C97.1704389,55.0848834 98.4249429,56.8808813 98.0909596,58.7623738 L97.9161821,59.7469818 C97.5821988,61.6284743 95.7862009,62.8829783 93.9047084,62.548995 C92.0232159,62.2150117 90.7687118,60.4190138 91.1026951,58.5375213 L91.2774726,57.5529133 C91.6114559,55.6714209 93.4074539,54.4169168 95.2889464,54.7509001 Z M9.29261934,56.259211 L9.45991621,57.2451176 C9.77960469,59.1290916 8.51150071,60.915513 6.62752669,61.2352015 C4.74355267,61.5548899 2.95713126,60.286786 2.63744278,58.4028119 L2.47014591,57.4169054 C2.15045743,55.5329314 3.41856141,53.7465099 5.30253543,53.4268215 C7.18650945,53.107133 8.97293086,54.375237 9.29261934,56.259211 Z M98.1212761,41.900998 L98.2924774,42.886234 C98.619627,44.7689268 97.3586101,46.5603579 95.4759174,46.8875075 C93.5932246,47.2146571 91.8017935,45.9536402 91.4746439,44.0709474 L91.3034425,43.0857114 C90.976293,41.2030186 92.2373098,39.4115875 94.1200026,39.0844379 C96.0026953,38.7572883 97.7941265,40.0183052 98.1212761,41.900998 Z M6.93422473,37.7718257 C8.81440474,38.1131202 10.0619179,39.9139811 9.72062335,41.7941612 L9.54201976,42.7780823 C9.20072522,44.6582623 7.39986428,45.9057754 5.51968428,45.5644809 C3.63950427,45.2231863 2.39199112,43.4223254 2.73328566,41.5421454 L2.91188925,40.5582243 C3.25318379,38.6780443 5.05404473,37.4305311 6.93422473,37.7718257 Z M92.4179591,26.1336038 L92.9164623,27.0004916 C93.8690547,28.6570322 93.298392,30.7721523 91.6418515,31.7247447 C89.985311,32.6773371 87.8701908,32.1066744 86.9175984,30.4501339 L86.4190952,29.5832461 C85.4665028,27.9267055 86.0371655,25.8115854 87.693706,24.858993 C89.3502465,23.9064006 91.4653667,24.4770633 92.4179591,26.1336038 Z M13.8618963,23.622235 C15.5087706,24.5914428 16.0581278,26.7121964 15.0889199,28.3590707 L14.5817217,29.2209001 C13.6125138,30.8677744 11.4917602,31.4171317 9.84488593,30.4479238 C8.19801162,29.478716 7.64865441,27.3579624 8.61786225,25.7110881 L9.12506052,24.8492587 C10.0942684,23.2023844 12.215022,22.6530272 13.8618963,23.622235 Z M81.5600389,13.1603842 L82.3253213,13.8040789 C83.7877035,15.0341185 83.9760543,17.2167575 82.7460148,18.6791396 C81.5159752,20.1415218 79.3333362,20.3298726 77.8709541,19.0998331 L77.1056717,18.4561384 C75.6432895,17.2260988 75.4549387,15.0434598 76.6849782,13.5810776 C77.9150178,12.1186955 80.0976568,11.9303446 81.5600389,13.1603842 Z M25.1751386,12.73012 C26.3932402,14.2024608 26.1871386,16.3834952 24.7147978,17.6015968 L23.944304,18.2390442 C22.4719632,19.4571458 20.2909287,19.2510442 19.0728272,17.7787034 C17.8547256,16.3063627 18.0608272,14.1253282 19.5331679,12.9072266 L20.3036618,12.2697792 C21.7760026,11.0516776 23.9570371,11.2577792 25.1751386,12.73012 Z M66.9836603,4.72118009 L67.9231949,5.06363389 C69.7185566,5.71803066 70.6434915,7.70395229 69.9890947,9.499314 C69.334698,11.2946757 67.3487763,12.2196106 65.5534146,11.5652138 L64.6138799,11.22276 C62.8185182,10.5683632 61.8935834,8.5824416 62.5479801,6.78707988 C63.2023769,4.99171817 65.1882985,4.06678333 66.9836603,4.72118009 Z M39.4932681,6.36690111 C40.1347288,8.16692527 39.1955275,10.1461398 37.3955034,10.7876005 L36.4535288,11.1232847 C34.6535046,11.7647454 32.6742901,10.8255441 32.0328294,9.02551996 C31.3913687,7.22549579 32.3305699,5.24628126 34.1305941,4.60482057 L35.0725687,4.26913637 C36.8725929,3.62767568 38.8518074,4.56687694 39.4932681,6.36690111 Z M51.398081,1.805382 C53.3089862,1.805382 54.858081,3.35447677 54.858081,5.265382 C54.858081,7.17628723 53.3089862,8.725382 51.398081,8.725382 L50.398081,8.725382 C48.4871758,8.725382 46.938081,7.17628723 46.938081,5.265382 C46.938081,3.35447677 48.4871758,1.805382 50.398081,1.805382 L51.398081,1.805382 Z M50.398081,21.200412 C66.4382759,21.200412 79.444781,34.2059347 79.444781,50.245382 C79.444781,66.2870505 66.4395149,79.290352 50.398081,79.290352 C34.3514571,79.290352 21.347921,66.2887802 21.347921,50.245382 C21.347921,34.2042049 34.3526961,21.200412 50.398081,21.200412 Z M50.398081,16.010412 C31.486426,16.010412 16.157921,31.3377593 16.157921,50.245382 C16.157921,69.1553136 31.4852747,84.480352 50.398081,84.480352 C69.3056973,84.480352 84.634781,69.1535838 84.634781,50.245382 C84.634781,31.3394891 69.304546,16.010412 50.398081,16.010412 Z" fill="#00B077"></path>
    </g>
</svg>