<?xml version="1.0" encoding="UTF-8"?>
<svg width="100px" height="100px" viewBox="0 0 100 100" version="1.1" xmlns="http://www.w3.org/2000/svg" xmlns:xlink="http://www.w3.org/1999/xlink">
    <!-- Generator: Sketch 63.1 (92452) - https://sketch.com -->
    <title>Sunglasses</title>
    <desc>Created with Sketch.</desc>
    <g id="Sunglasses" stroke="none" stroke-width="1" fill="none" fill-rule="evenodd">
        <path d="M77.8999778,21.1499013 C82.1457906,21.7999779 86.6024502,26.0894981 91.4712455,32.950588 L91.7698516,33.3738588 C94.9393372,37.8926355 98.3032004,43.7209837 99.2506733,45.9291177 C99.8157994,47.2461728 99.2062405,48.7719822 97.8891853,49.3371083 C97.6049616,49.4590639 97.311016,49.5263136 97.0191015,49.5435527 C98.2796578,54.0369981 97.9062947,59.2626076 96.1720672,64.4783982 C92.7658521,74.718359 81.817876,81.4742864 71.2521434,78.5026156 C63.2705352,76.2569476 54.9709571,64.6125335 52.3341127,54.883408 C52.1104201,54.8001893 51.8924676,54.6895319 51.6855021,54.551642 L51.5323579,54.443071 C51.5311614,54.4421697 51.4354481,54.3975037 51.2728227,54.347978 C50.9033599,54.2354622 50.4751372,54.1794791 50.2156239,54.1652927 L50.1552684,54.1624878 L50.0946871,54.1652927 C49.8351738,54.1794791 49.4069511,54.2354622 49.0374883,54.347978 L48.8471849,54.4137587 C48.8027788,54.4312285 48.7785513,54.4426203 48.7779531,54.443071 C48.5269804,54.63212 48.2571714,54.778548 47.9772025,54.8835758 C45.3404031,64.6120626 37.0399704,76.2569991 29.0570141,78.5026481 C18.4932208,81.4743005 7.54563778,74.7186156 4.13691444,64.4775219 C2.40401448,59.2617814 2.03110238,54.0367764 3.2913087,49.5419267 C3.00080832,49.5262167 2.70764909,49.459179 2.42412588,49.3377271 C1.10672899,48.773398 0.496246879,47.2479578 1.06057592,45.9305609 C2.00508954,43.7256428 5.37005789,37.8942629 8.54046235,33.3739162 L9.13659647,32.5338228 C13.8892689,25.9161696 18.2509481,21.7867185 22.4102708,21.1498844 C27.1877295,20.4186183 32.0012254,23.0559331 34.0804578,27.3128509 C34.7094539,28.6006264 34.1754077,30.1544767 32.8876321,30.7834728 C31.6513677,31.3873091 30.1698886,30.9192855 29.4968528,29.7415361 L29.4170102,29.5906471 C28.317395,27.3393494 25.6878842,25.8986402 23.1956478,26.2801167 C20.8641497,26.6370924 17.1092687,30.2693014 13.054414,35.9787816 L12.7895532,36.3540718 C11.9733884,37.5177553 11.1412859,38.777785 10.3470085,40.0319613 C10.8866028,39.691401 11.4556631,39.3736117 12.055027,39.0790729 C16.67819,36.8072362 24.9741946,35.8050927 32.3167922,36.5938297 C32.8835066,36.6547057 33.4397356,36.7251161 33.9848019,36.8051382 C34.3185519,35.837372 35.2090413,35.1292839 36.2734411,35.0628593 L36.437553,35.057754 L63.872585,35.057754 C65.0087787,35.057754 65.9744244,35.7879562 66.3258404,36.8046786 C66.8703454,36.7252095 67.4269165,36.6547467 67.9939861,36.5938306 C75.3364685,35.8050816 83.6320988,36.8072532 88.2541058,39.079004 C88.8543351,39.3739137 89.424179,39.6921371 89.9641883,40.0321814 C89.2402232,38.8899077 88.4849777,37.7421839 87.7389915,36.6668772 L87.5208414,36.3541292 C83.3646685,30.4286196 79.4966445,26.6448484 77.1146008,26.2801336 C74.7001735,25.910567 72.1574451,27.2510252 71.002727,29.3810453 L70.8953641,29.5896101 C70.2669407,30.8776652 68.713328,31.4124024 67.4252729,30.7839791 C66.1372178,30.1555557 65.6024806,28.601943 66.2309039,27.3138879 C68.3080442,23.0564536 73.1219558,20.418549 77.8999778,21.1499013 Z M31.7624748,41.7541428 C25.3209791,41.0622017 17.983571,41.9485484 14.3440049,43.7370424 C7.75827385,46.9733963 6.3383122,54.6427165 9.06174269,62.8397903 C11.6381665,70.5803407 19.9094159,75.6844769 27.6515879,73.5065619 C35.4060124,71.3252002 44.8380307,55.0419564 43.5377212,47.7895489 C42.9987688,44.7838728 38.6414014,42.4930726 31.7624748,41.7541428 Z M85.9651023,43.736961 C82.3264897,41.9485558 74.9895808,41.0622046 68.5483204,41.7541419 C61.6695697,42.4930756 57.3122321,44.7838847 56.7732737,47.7895936 C55.4730362,55.0415999 64.9046638,71.325208 72.6575696,73.5065294 C80.4014266,75.6845321 88.6727054,70.5803778 91.2472707,62.8405708 C93.9727615,54.6434974 92.5526994,46.9736346 85.9651023,43.736961 Z M56.2499999,40.247864 L44.0603389,40.247423 C46.5344631,41.9070599 48.1499678,44.1058521 48.6462527,46.8735764 C48.704747,47.1998249 48.7491905,47.536121 48.7800704,47.8815433 C49.2721093,47.8103674 49.7249265,47.7798725 50.1162612,47.7750532 L50.1547914,47.774806 C50.1678598,47.7748096 50.1809461,47.7748918 50.1940498,47.7750532 C50.5853845,47.7798725 51.0382017,47.8103674 51.5313683,47.8813981 C51.5618098,47.5361334 51.606251,47.1998529 51.6647422,46.8736211 C52.1609868,44.1061218 53.7762544,41.907459 56.2499999,40.247864 Z" fill="#00B077"></path>
    </g>
</svg>