<?xml version="1.0" encoding="UTF-8"?>
<svg width="100px" height="100px" viewBox="0 0 100 100" version="1.1" xmlns="http://www.w3.org/2000/svg" xmlns:xlink="http://www.w3.org/1999/xlink">
    <!-- Generator: Sketch 63.1 (92452) - https://sketch.com -->
    <title>TIFF</title>
    <desc>Created with Sketch.</desc>
    <g id="TIFF" stroke="none" stroke-width="1" fill="none" fill-rule="evenodd">
        <path d="M43.803,10.267 L21.189,33.083 L43.803,33.083 L43.803,10.267 Z M86.866932,1.42 C88.237023,1.42 89.3576786,2.48795982 89.4418562,3.83683674 L89.446932,4 L89.4460054,46.769 L92.02676,46.769004 C93.396851,46.769004 94.5175066,47.8369638 94.6016842,49.1858407 L94.60676,49.349004 L94.60676,84.934084 C94.60676,86.304175 93.5388002,87.4248306 92.1899233,87.5090082 L92.02676,87.514084 L17.5790054,87.514 L17.58,94.3 L84.287,94.3 L84.287104,93.299648 C84.287104,91.929557 85.3550638,90.8089014 86.7039407,90.7247238 L86.867104,90.719648 C88.237195,90.719648 89.3578506,91.7876078 89.4420282,93.1364847 L89.447104,93.299648 L89.447104,96.880688 C89.447104,98.250779 88.3791442,99.3714346 87.0302673,99.4556122 L86.867104,99.460688 L15.000344,99.460688 C13.630253,99.460688 12.5095974,98.3927282 12.4254198,97.0438513 L12.420344,96.880688 L12.4201404,84.9612846 C12.4200469,84.9522289 12.42,84.9431619 12.42,84.934084 L12.4200054,84.906 L12.4200054,49.376 L12.42,49.349004 L12.4200054,49.321 L12.420344,44.683848 C12.420344,43.2589533 13.5754493,42.103848 15.000344,42.103848 C16.370435,42.103848 17.4910906,43.1718078 17.5752682,44.5206847 L17.580344,44.683848 L17.5800054,46.769 L84.2860054,46.769 L84.286,6.58 L48.963,6.58 L48.963292,35.66348 C48.963292,37.033571 47.8953322,38.1542266 46.5464553,38.2384042 L46.383292,38.24348 L15.000172,38.24348 C12.7604908,38.24348 11.6078393,35.6030991 13.0595954,33.9626969 L13.167742,33.847275 L44.554,2.179 L44.6851689,2.05749055 L44.8260094,1.94258494 L44.9727662,1.83908094 L45.1248218,1.74698132 L45.3083599,1.65390699 C45.4018562,1.61099872 45.4983592,1.57351501 45.597466,1.54185884 L45.7736844,1.49268142 L45.942973,1.45764482 L46.1138559,1.43402906 L46.2857158,1.42183689 L86.866932,1.42 Z M89.446,51.929 L86.8989662,51.9293252 C86.8883036,51.9294549 86.8776254,51.92952 86.866932,51.92952 L86.8330054,51.928 L17.5800054,51.929 L17.5790054,82.354 L89.446,82.354 L89.446,51.929 Z M44.362636,56.822748 C45.732727,56.822748 46.8533826,57.8907078 46.9375602,59.2395847 L46.942636,59.402748 L46.942636,74.882748 C46.942636,76.3076427 45.7875307,77.462748 44.362636,77.462748 C42.992545,77.462748 41.8718894,76.3947882 41.7877118,75.0459113 L41.782636,74.882748 L41.782636,59.402748 C41.782636,57.9778533 42.9377413,56.822748 44.362636,56.822748 Z M64.466856,56.822748 C65.8917507,56.822748 67.046856,57.9778533 67.046856,59.402748 C67.046856,60.772839 65.9788962,61.8934946 64.6300193,61.9776722 L64.466856,61.982748 L56.535,61.982 L56.5340054,65.959 L61.026168,65.959388 C62.4510627,65.959388 63.606168,67.1144933 63.606168,68.539388 C63.606168,69.909479 62.5382082,71.0301346 61.1893313,71.1143122 L61.026168,71.119388 L56.5350054,71.119 L56.535936,74.882748 C56.535936,76.252839 55.4679762,77.3734946 54.1190993,77.4576722 L53.955936,77.462748 C52.585845,77.462748 51.4651894,76.3947882 51.3810118,75.0459113 L51.375936,74.882748 L51.375936,59.402748 C51.375936,58.032657 52.4438958,56.9120014 53.7927727,56.8278238 L53.955936,56.822748 L64.466856,56.822748 Z M36.571724,56.822748 C37.9966187,56.822748 39.151724,57.9778533 39.151724,59.402748 C39.151724,60.772839 38.0837642,61.8934946 36.7348873,61.9776722 L36.571724,61.982748 L33.0380054,61.982 L33.038156,74.882748 C33.038156,76.3076427 31.8830507,77.462748 30.458156,77.462748 C29.088065,77.462748 27.9674094,76.3947882 27.8832318,75.0459113 L27.878156,74.882748 L27.8780054,61.982 L24.340804,61.982748 C22.9159093,61.982748 21.760804,60.8276427 21.760804,59.402748 C21.760804,58.032657 22.8287638,56.9120014 24.1776407,56.8278238 L24.340804,56.822748 L36.571724,56.822748 Z M82.6863,56.822748 C84.1111947,56.822748 85.2663,57.9778533 85.2663,59.402748 C85.2663,60.772839 84.1983402,61.8934946 82.8494633,61.9776722 L82.6863,61.982748 L74.755,61.982 L74.7540054,65.959 L79.245784,65.959388 C80.6706787,65.959388 81.825784,67.1144933 81.825784,68.539388 C81.825784,69.909479 80.7578242,71.0301346 79.4089473,71.1143122 L79.245784,71.119388 L74.7550054,71.119 L74.75538,74.882748 C74.75538,76.252839 73.6874202,77.3734946 72.3385433,77.4576722 L72.17538,77.462748 C70.805289,77.462748 69.6846334,76.3947882 69.6004558,75.0459113 L69.59538,74.882748 L69.5950737,68.5726242 C69.594934,68.5615621 69.594864,68.5504832 69.594864,68.539388 L69.5950054,68.511 L69.59538,59.402748 C69.59538,58.032657 70.6633398,56.9120014 72.0122167,56.8278238 L72.17538,56.822748 L82.6863,56.822748 Z" fill="#00B077"></path>
    </g>
</svg>