<?xml version="1.0" encoding="UTF-8"?>
<svg width="100px" height="100px" viewBox="0 0 100 100" version="1.1" xmlns="http://www.w3.org/2000/svg" xmlns:xlink="http://www.w3.org/1999/xlink">
    <!-- Generator: Sketch 63.1 (92452) - https://sketch.com -->
    <title>TableSetting</title>
    <desc>Created with Sketch.</desc>
    <g id="TableSetting" stroke="none" stroke-width="1" fill="none" fill-rule="evenodd">
        <path d="M96.5010995,19.4764377 C97.8735962,19.4764377 98.9962195,20.5462727 99.0805448,21.897518 L99.0856295,22.0609677 L99.0856295,90.0823513 C99.0856295,91.5097478 97.928496,92.6668813 96.5010995,92.6668813 C95.1286029,92.6668813 94.0059796,91.5970463 93.9216543,90.245801 L93.9165695,90.0823513 L93.9164895,62.12147 L67.902,62.121 L67.9014895,68.38947 L88.2621348,68.3897018 C89.6895313,68.3897018 90.8466648,69.5468353 90.8466648,70.9742318 C90.8466648,72.3467284 89.7768298,73.4693517 88.4255845,73.553677 L88.2621348,73.5587618 L67.9014895,73.55847 L67.9024136,90.0830405 C67.9024136,91.4555371 66.8325786,92.5781604 65.4813333,92.6624857 L65.3178836,92.6675705 C63.9453869,92.6675705 62.8227636,91.5977355 62.7384383,90.2464902 L62.7333536,90.0830405 L62.7333536,59.5373419 C62.7333536,58.1648453 63.8031885,57.042222 65.1544338,56.9578967 L65.3178836,56.9528119 L93.9164895,56.95247 L93.9165695,22.0609677 C93.9165695,20.6335712 95.073703,19.4764377 96.5010995,19.4764377 Z M3.45801952,19.4764377 C4.83051616,19.4764377 5.95313946,20.5462727 6.03746478,21.897518 L6.04254952,22.0609677 L6.04248952,56.95247 L34.6498506,56.9528119 C36.0223472,56.9528119 37.1449705,58.0226469 37.2292958,59.3738922 L37.2343806,59.5373419 L37.2343806,90.0830405 C37.2343806,91.510437 36.0772471,92.6675705 34.6498506,92.6675705 C33.2773539,92.6675705 32.1547307,91.5977355 32.0704053,90.2464902 L32.0653206,90.0830405 L32.065,62.121 L6.04248952,62.12147 L6.04248952,68.38947 L26.4024431,68.3897018 C27.8298396,68.3897018 28.9869731,69.5468353 28.9869731,70.9742318 C28.9869731,72.3467284 27.9171381,73.4693517 26.5658928,73.553677 L26.4024431,73.5587618 L6.04248952,73.55847 L6.04254952,90.0823513 C6.04254952,91.5097478 4.88541603,92.6668813 3.45801952,92.6668813 C2.08552289,92.6668813 0.96289959,91.5970463 0.878574273,90.245801 L0.873489524,90.0823513 L0.873489524,22.0609677 C0.873489524,20.6335712 2.03062302,19.4764377 3.45801952,19.4764377 Z M81.653147,38.8931501 C83.0805435,38.8931501 84.237677,40.0502836 84.237677,41.4776801 C84.237677,42.8501767 83.167842,43.9728 81.8165967,44.0571253 L81.653147,44.0622101 L18.3149318,44.0622101 C16.8875353,44.0622101 15.7304018,42.9050766 15.7304018,41.4776801 C15.7304018,40.1051834 16.8002367,38.9825601 18.151482,38.8982348 L18.3149318,38.8931501 L81.653147,38.8931501 Z M49.9795595,47.3635164 C51.3520562,47.3635164 52.4746795,48.4333514 52.5590048,49.7845967 L52.5640895,49.9480464 L52.5640895,90.0823513 C52.5640895,91.5097478 51.406956,92.6668813 49.9795595,92.6668813 C48.6070629,92.6668813 47.4844396,91.5970463 47.4001143,90.245801 L47.3950295,90.0823513 L47.3950295,49.9480464 C47.3950295,48.5206499 48.552163,47.3635164 49.9795595,47.3635164 Z M54.4821554,7.41547 C55.9095519,7.41547 57.0666854,8.5726035 57.0666854,10 C57.0666854,11.3724966 55.9968504,12.4951199 54.6456051,12.5794453 L54.4821554,12.58453 L48.564,12.584 L48.5294317,12.771151 C48.3046269,13.9247973 47.9195392,15.3197224 47.2996104,17.3648645 L46.4207111,20.2317881 L46.1835193,21.033862 C45.1681389,24.5409425 44.8537287,26.684446 45.2079676,28.1458398 C45.5652143,29.619642 46.8053141,30.3833266 50.2021737,30.3833266 C53.4043217,30.3833266 54.4718983,29.73912 54.7739624,28.4782469 C55.0739381,27.2260908 54.8835558,25.687447 54.0300091,22.0865445 L53.3769664,19.3765814 C53.2447943,18.8107496 53.1349767,18.314361 53.0356398,17.8291165 C52.749367,16.4307215 53.6509203,15.0650284 55.0493153,14.7787557 C56.4477104,14.4924829 57.8134034,15.3940362 58.0996762,16.7924312 L58.2752974,17.6102096 C58.3395143,17.897117 58.4102028,18.2021754 58.4897478,18.5368937 L58.9880734,20.5923528 C60.1265741,25.3309968 60.3736364,27.2913132 59.8007837,29.6825094 C58.8701998,33.566944 55.5799322,35.5523866 50.2021737,35.5523866 C44.6212463,35.5523866 41.1692529,33.4265623 40.1843859,29.3635459 C39.5317865,26.6712817 39.9719416,23.8040256 41.3325679,19.2053713 L41.8018857,17.6594068 L42.2131262,16.3233907 C43.3094805,12.7302065 43.6322984,11.336273 43.6322984,10 C43.6322984,8.62750336 44.7021334,7.50488007 46.0533787,7.42055475 L46.2168284,7.41547 L54.4821554,7.41547 Z" id="Table-Setting" fill="#00B077"></path>
    </g>
</svg>