<?xml version="1.0" encoding="UTF-8"?>
<svg width="100px" height="100px" viewBox="0 0 100 100" version="1.1" xmlns="http://www.w3.org/2000/svg" xmlns:xlink="http://www.w3.org/1999/xlink">
    <!-- Generator: Sketch 63.1 (92452) - https://sketch.com -->
    <title>TakeoutContainer</title>
    <desc>Created with Sketch.</desc>
    <g id="TakeoutContainer" stroke="none" stroke-width="1" fill="none" fill-rule="evenodd">
        <path d="M77.2805983,3.09568295 C82.2314222,3.09568295 86.8678118,6.90378026 87.8745017,11.7421451 L87.9266737,12.0119855 L93.0767804,40.9087539 C93.3272307,42.3140067 92.3910782,43.6562192 90.9858254,43.9066694 C89.6346207,44.147487 88.3417004,43.2912236 88.0215945,41.9757363 L87.9879098,41.8157144 L82.8379993,12.9200458 C82.4040374,10.4912047 79.9637357,8.38816909 77.4981639,8.26997835 L77.2805983,8.26474295 L22.9089792,8.26474295 C20.4431683,8.26474295 17.9441287,10.2986586 17.3950825,12.7057742 L17.3517482,12.919093 L12.1999184,41.8158614 C11.949387,43.2210998 10.6071204,44.1571747 9.20188207,43.9066432 C7.85069136,43.6657476 6.93326863,42.4154815 7.08741798,41.0704117 L7.11110027,40.9086068 L12.262897,12.012024 C13.131619,7.13727835 17.6954666,3.23970251 22.6342383,3.09958396 L22.9089792,3.09568295 L77.2805983,3.09568295 Z M67.8928961,12.1194833 C69.3202927,12.1194833 70.4774261,13.2766168 70.4774261,14.7040133 C70.4774261,16.0765099 69.4075912,17.1991332 68.0563459,17.2834585 L67.8928961,17.2885433 L27.8481883,17.2885433 C27.2457684,17.2885433 26.5485626,17.8410751 26.3703496,18.4316262 L26.3418088,18.5500909 L22.8888767,37.9254508 C22.6384425,39.3307064 21.2962407,40.2668742 19.890985,40.0164401 C18.5397777,39.775638 17.6222684,38.5254353 17.7763247,37.1803549 L17.7999958,37.0185484 L21.2533329,17.6409214 C21.7944011,14.6204223 24.5579993,12.2410793 27.612672,12.124 L27.8481883,12.1194833 L67.8928961,12.1194833 Z M90.9858254,56.2263314 C92.33703,56.4671489 93.254525,57.717362 93.1004534,59.0624407 L93.0767804,59.2242469 L87.9264774,88.1221152 C87.0555504,92.9966057 82.4933407,96.8933301 77.5552995,97.0334177 L77.2805983,97.0373179 L22.9089792,97.0373179 C17.95746,97.0373179 13.3193797,93.2283738 12.3149711,88.3909487 L12.2629301,88.1211624 L7.11110027,59.224394 C6.86056883,57.8191556 7.79664373,56.476889 9.20188207,56.2263576 C10.5530728,55.985462 11.8460426,56.8416507 12.1662245,58.1571194 L12.1999184,58.3171394 L17.3517813,87.2140934 C17.7843743,89.641545 20.225322,91.7448165 22.6913719,91.8630218 L22.9089792,91.8682579 L77.2805983,91.8682579 C79.7459428,91.8682579 82.244284,89.8346177 82.7943723,87.4273851 L82.8378031,87.2140549 L87.9879098,58.3172865 C88.2383601,56.9120336 89.5805726,55.9758812 90.9858254,56.2263314 Z M96.6158118,47.4818843 C98.0432084,47.4818843 99.2003418,48.6390178 99.2003418,50.0664143 C99.2003418,51.4389109 98.1305069,52.5615342 96.7792616,52.6458595 L96.6158118,52.6509443 L3.57273185,52.6509443 C2.14533534,52.6509443 0.988201848,51.4938108 0.988201848,50.0664143 C0.988201848,48.6939176 2.05803681,47.5712943 3.4092821,47.486969 L3.57273185,47.4818843 L96.6158118,47.4818843 Z" id="Takeout-Container" fill="#00B077"></path>
    </g>
</svg>