<?xml version="1.0" encoding="UTF-8"?>
<svg width="100px" height="100px" viewBox="0 0 100 100" version="1.1" xmlns="http://www.w3.org/2000/svg" xmlns:xlink="http://www.w3.org/1999/xlink">
    <!-- Generator: Sketch 63.1 (92452) - https://sketch.com -->
    <title>ThumbsUp</title>
    <desc>Created with Sketch.</desc>
    <g id="ThumbsUp" stroke="none" stroke-width="1" fill="none" fill-rule="evenodd">
        <path d="M56.8085317,2.75378706 C63.0215413,4.95508514 63.5788816,10.8559678 60.548964,18.3056737 C59.7336441,20.3103135 58.6700206,22.4077074 57.4169913,24.5564562 C56.8289023,25.5649366 56.2179273,26.5528903 55.5970712,27.5093813 L82.231088,27.5078197 C89.5303605,27.5078197 94.4475673,32.3392269 94.4551348,38.5109399 C94.4592001,41.8373909 93.0364256,44.7735962 90.5797269,46.7753464 L90.421,46.9000597 L90.5643869,47.013245 C93.0319178,49.0059139 94.3505637,51.9608621 94.124545,55.318117 L94.1021261,55.5988074 C93.7943792,58.9304347 92.0420887,61.8372524 89.2988223,63.7874986 L89.173,63.8740597 L89.2586476,63.9421285 C91.6921166,65.9320068 92.9913183,68.8490495 92.7680427,72.1631304 L92.7459038,72.4402115 C92.4288606,75.8721302 90.5595748,78.8485981 87.6408643,80.7961168 L87.459,80.9130597 L87.5063394,80.9559063 C89.698,82.9455397 90.848476,85.7957236 90.6308892,89.0007601 L90.6081317,89.2844655 C90.0555324,95.2587592 85.0013638,99.9011322 77.966843,100.047004 L77.624928,100.05054 L17.576288,100.05054 C16.1513933,100.05054 14.996288,98.8954343 14.996288,97.4705397 C14.996288,96.1004487 16.0642478,94.979793 17.4131247,94.8956155 L17.576288,94.8905397 L77.624928,94.8905397 C82.1842376,94.8905397 85.1552562,92.2126862 85.4700643,88.8092139 C85.7612448,85.6611865 83.651033,83.3073619 79.4460408,83.2065094 L79.162608,83.2031397 L78.975036,83.1978966 C75.785132,83.0172717 75.785132,78.2290077 78.975036,78.0483828 L79.162608,78.0431397 L79.4700424,78.0396316 C84.2499282,77.9299999 87.3030247,75.2644753 87.6077822,71.9655479 C87.894801,68.8586368 85.5974412,66.4662968 80.999943,66.3659016 L80.696848,66.3626197 L80.509276,66.3573766 C77.319372,66.1767517 77.319372,61.3884877 80.509276,61.2078628 L80.696848,61.2026197 L81.003372,61.1989733 C85.6672075,61.0874474 88.6585081,58.4314069 88.9639999,55.1241919 C89.2521482,52.0047362 87.0098627,49.6235602 82.5266459,49.5236457 L82.231088,49.5203797 L82.043516,49.5151366 C78.853612,49.3345117 78.853612,44.5462477 82.043516,44.3656228 L82.231088,44.3603797 L82.5209695,44.3567986 C86.8284764,44.2496389 89.299089,41.7498288 89.2951299,38.5172595 C89.2911698,35.2838002 86.8131323,32.7787936 82.51998,32.6714084 L82.231088,32.6678197 L44.167488,32.6678197 C42.7425933,32.6678197 41.587488,31.5127143 41.587488,30.0878197 C41.587488,28.7177287 42.6554478,27.597073 44.0043247,27.5128955 L44.167488,27.5078197 L49.3515609,27.5079935 C49.5418896,27.2432214 49.7431164,26.9588786 49.9534325,26.6565888 C50.9790676,25.1824318 52.0050956,23.5938079 52.9595243,21.9571124 C54.0981746,20.0045057 55.0547856,18.1181333 55.7691742,16.3616548 C57.8377084,11.2757172 57.5755256,8.49983639 55.0858731,7.61774087 C52.3192046,6.63825131 49.7560092,7.2577092 46.558529,9.57179889 C45.095692,10.6304876 43.5508765,12.0004568 41.5474141,13.9766988 L40.9179887,14.6040413 C39.8072636,15.7258808 36.2141384,19.3932222 35.0092264,20.5777314 C29.2453787,26.2439799 24.3770171,29.9426338 18.6065607,32.4535563 C17.3000004,33.0220852 15.7799403,32.4237926 15.2114114,31.1172324 C14.6428825,29.8106721 15.2411751,28.290612 16.5477353,27.7220831 C21.4638736,25.5829037 25.7537895,22.3751904 30.8767188,17.4013376 L31.8073405,16.4858007 C33.4000525,14.8956725 36.9096083,11.3110722 37.5256917,10.6977032 C39.8919206,8.34189981 41.7151172,6.70751721 43.5332765,5.39167361 C47.9898495,2.16634955 52.2447314,1.13805493 56.8085317,2.75378706 Z M8.58,27.3598997 C9.95009101,27.3598997 11.0707466,28.4278595 11.1549242,29.7767364 L11.16,29.9398997 L11.16,97.4705397 C11.16,98.8954343 10.0048947,100.05054 8.58,100.05054 C7.20990899,100.05054 6.08925335,98.9825799 6.00507584,97.633703 L6,97.4705397 L6,29.9398997 C6,28.515005 7.15510535,27.3598997 8.58,27.3598997 Z" fill="#00B077"></path>
    </g>
</svg>