<?xml version="1.0" encoding="UTF-8"?>
<svg width="100px" height="100px" viewBox="0 0 100 100" version="1.1" xmlns="http://www.w3.org/2000/svg" xmlns:xlink="http://www.w3.org/1999/xlink">
    <!-- Generator: Sketch 63.1 (92452) - https://sketch.com -->
    <title>Ticket</title>
    <desc>Created with Sketch.</desc>
    <g id="Ticket" stroke="none" stroke-width="1" fill="none" fill-rule="evenodd">
        <path d="M60.43804,18 C61.808131,18 62.9287866,19.0679598 63.0129642,20.4168367 L63.01804,20.58 C63.01804,23.9818002 65.7780297,26.74104 69.18252,26.74104 C72.5088322,26.74104 75.222259,24.1022486 75.3412131,20.8057567 L75.34528,20.58 C75.34528,19.209909 76.4132398,18.0892534 77.7621167,18.0050758 L77.92528,18 L96.46,18 C97.8848947,18 99.04,19.1551053 99.04,20.58 C99.04,21.950091 97.9720402,23.0707466 96.6231633,23.1549242 L96.46,23.16 L80.208272,23.159212 L80.1486858,23.4088391 C78.9149448,28.2012162 74.6202792,31.7669218 69.4746746,31.8973415 L69.18252,31.90104 C63.9057365,31.90104 59.4714686,28.2922505 58.2145876,23.409126 L58.153272,23.159212 L6.159272,23.159212 L6.159272,77.343212 L58.152272,77.343212 L58.2145131,77.0927683 C59.4478799,72.2978526 63.7416033,68.7330432 68.8901923,68.6026576 L69.18252,68.59896 C74.4581431,68.59896 78.8919843,72.2079947 80.1487603,77.0930552 L80.210272,77.343212 L93.879272,77.343212 L93.88,32.45488 C93.88,31.084789 94.9479598,29.9641334 96.2968367,29.8799558 L96.46,29.87488 C97.830091,29.87488 98.9507466,30.9428398 99.0349242,32.2917167 L99.04,32.45488 L99.04,79.92344 C99.04,81.293531 97.9720402,82.4141866 96.6231633,82.4983642 L96.46,82.50344 L77.92528,82.50344 C76.555189,82.50344 75.4345334,81.4354802 75.3503558,80.0866033 L75.34528,79.92344 C75.34528,76.5183871 72.585478,73.75896 69.18252,73.75896 C65.8526607,73.75896 63.140979,76.3962865 63.0221041,79.6973613 L63.01804,79.92344 C63.01804,81.293531 61.9500802,82.4141866 60.6012033,82.4983642 L60.43804,82.50344 L3.58,82.50344 C2.20990899,82.50344 1.08925335,81.4354802 1.00507584,80.0866033 L1,79.92344 L1,20.58 C1,19.209909 2.06795982,18.0892534 3.41683674,18.0050758 L3.58,18 L60.43804,18 Z M47.975952,47.669484 C49.4008467,47.669484 50.555952,48.8245893 50.555952,50.249484 C50.555952,51.619575 49.4879922,52.7402306 48.1391153,52.8244082 L47.975952,52.829484 L16.511992,52.829484 C15.0870973,52.829484 13.931992,51.6743787 13.931992,50.249484 C13.931992,48.879393 14.9999518,47.7587374 16.3488287,47.6745598 L16.511992,47.669484 L47.975952,47.669484 Z M47.975952,33.805252 C49.4008467,33.805252 50.555952,34.9603573 50.555952,36.385252 C50.555952,37.755343 49.4879922,38.8759986 48.1391153,38.9601762 L47.975952,38.965252 L16.511992,38.965252 C15.0870973,38.965252 13.931992,37.8101467 13.931992,36.385252 C13.931992,35.015161 14.9999518,33.8945054 16.3488287,33.8103278 L16.511992,33.805252 L47.975952,33.805252 Z M22.337632,61.536984 C23.7625267,61.536984 24.917632,62.6920893 24.917632,64.116984 C24.917632,65.487075 23.8496722,66.6077306 22.5007953,66.6919082 L22.337632,66.696984 L16.511992,66.696984 C15.0870973,66.696984 13.931992,65.5418787 13.931992,64.116984 C13.931992,62.746893 14.9999518,61.6262374 16.3488287,61.5420598 L16.511992,61.536984 L22.337632,61.536984 Z M47.976296,61.536984 C49.4011907,61.536984 50.556296,62.6920893 50.556296,64.116984 C50.556296,65.487075 49.4883362,66.6077306 48.1394593,66.6919082 L47.976296,66.696984 L31.976856,66.696984 C30.5519613,66.696984 29.396856,65.5418787 29.396856,64.116984 C29.396856,62.746893 30.4648158,61.6262374 31.8136927,61.5420598 L31.976856,61.536984 L47.976296,61.536984 Z" fill="#00B077"></path>
    </g>
</svg>