<?xml version="1.0" encoding="UTF-8"?>
<svg width="100px" height="100px" viewBox="0 0 100 100" version="1.1" xmlns="http://www.w3.org/2000/svg" xmlns:xlink="http://www.w3.org/1999/xlink">
    <!-- Generator: Sketch 63.1 (92452) - https://sketch.com -->
    <title>Toggles</title>
    <desc>Created with Sketch.</desc>
    <g id="Toggles" stroke="none" stroke-width="1" fill="none" fill-rule="evenodd">
        <path d="M34.387256,76.987864 C35.8121507,76.987864 36.967256,78.1429693 36.967256,79.567864 C36.967256,80.937955 35.8992962,82.0586106 34.5504193,82.1427882 L34.387256,82.147864 L20.338,82.147 L20.338,93.615 L31.807,93.615 L31.807256,87.882344 C31.807256,86.512253 32.8752158,85.3915974 34.2240927,85.3074198 L34.387256,85.302344 L96.319296,85.302344 C97.7441907,85.302344 98.899296,86.4574493 98.899296,87.882344 C98.899296,89.252435 97.8313362,90.3730906 96.4824593,90.4572682 L96.319296,90.462344 L36.967,90.462 L36.967256,96.195104 C36.967256,97.565195 35.8992962,98.6858506 34.5504193,98.7700282 L34.387256,98.775104 L17.758296,98.775104 C16.388205,98.775104 15.2675494,97.7071442 15.1833718,96.3582673 L15.178296,96.195104 L15.178296,79.567864 C15.178296,78.197773 16.2462558,77.0771174 17.5951327,76.9929398 L17.758296,76.987864 L34.387256,76.987864 Z M9.216776,85.302344 C10.6416707,85.302344 11.796776,86.4574493 11.796776,87.882344 C11.796776,89.252435 10.7288162,90.3730906 9.37993926,90.4572682 L9.216776,90.462344 L3.439296,90.462344 C2.01440135,90.462344 0.859296,89.3072387 0.859296,87.882344 C0.859296,86.512253 1.92725582,85.3915974 3.27613274,85.3074198 L3.439296,85.302344 L9.216776,85.302344 Z M63.897296,51.570736 C65.3221907,51.570736 66.477296,52.7258413 66.477296,54.150736 C66.477296,55.520827 65.4093362,56.6414826 64.0604593,56.7256602 L63.897296,56.730736 L49.848,56.73 L49.848,68.197 L61.317,68.197 L61.317296,62.465216 C61.317296,61.095125 62.3852558,59.9744694 63.7341327,59.8902918 L63.897296,59.885216 L96.319296,59.885216 C97.7441907,59.885216 98.899296,61.0403213 98.899296,62.465216 C98.899296,63.835307 97.8313362,64.9559626 96.4824593,65.0401402 L96.319296,65.045216 L66.477,65.045 L66.477296,70.777976 C66.477296,72.148067 65.4093362,73.2687226 64.0604593,73.3529002 L63.897296,73.357976 L47.268336,73.357976 C45.898245,73.357976 44.7775894,72.2900162 44.6934118,70.9411393 L44.688336,70.777976 L44.688336,54.150736 C44.688336,52.780645 45.7562958,51.6599894 47.1051727,51.5758118 L47.268336,51.570736 L63.897296,51.570736 Z M38.728536,59.885216 C40.1534307,59.885216 41.308536,61.0403213 41.308536,62.465216 C41.308536,63.835307 40.2405762,64.9559626 38.8916993,65.0401402 L38.728536,65.045216 L3.439296,65.045216 C2.01440135,65.045216 0.859296,63.8901107 0.859296,62.465216 C0.859296,61.095125 1.92725582,59.9744694 3.27613274,59.8902918 L3.439296,59.885216 L38.728536,59.885216 Z M84.711016,26.15378 C86.1359107,26.15378 87.291016,27.3088853 87.291016,28.73378 C87.291016,30.103871 86.2230562,31.2245266 84.8741793,31.3087042 L84.711016,31.31378 L70.662,31.313 L70.662,42.781 L82.131,42.781 L82.131016,37.04654 C82.131016,35.676449 83.1989758,34.5557934 84.5478527,34.4716158 L84.711016,34.46654 L96.319296,34.46654 C97.7441907,34.46654 98.899296,35.6216453 98.899296,37.04654 C98.899296,38.416631 97.8313362,39.5372866 96.4824593,39.6214642 L96.319296,39.62654 L87.291,39.626 L87.291016,45.36102 C87.291016,46.731111 86.2230562,47.8517666 84.8741793,47.9359442 L84.711016,47.94102 L68.082056,47.94102 C66.711965,47.94102 65.5913094,46.8730602 65.5071318,45.5241833 L65.502056,45.36102 L65.502056,28.73378 C65.502056,27.363689 66.5700158,26.2430334 67.9188927,26.1588558 L68.082056,26.15378 L84.711016,26.15378 Z M59.540536,34.46654 C60.9654307,34.46654 62.120536,35.6216453 62.120536,37.04654 C62.120536,38.416631 61.0525762,39.5372866 59.7036993,39.6214642 L59.540536,39.62654 L3.439296,39.62654 C2.01440135,39.62654 0.859296,38.4714347 0.859296,37.04654 C0.859296,35.676449 1.92725582,34.5557934 3.27613274,34.4716158 L3.439296,34.46654 L59.540536,34.46654 Z M41.824536,0.735104 C43.2494307,0.735104 44.404536,1.89020935 44.404536,3.315104 C44.404536,4.68519501 43.3365762,5.80585065 41.9876993,5.89002816 L41.824536,5.895104 L27.775,5.895 L27.775,17.362 L39.244,17.362 L39.244536,11.629584 C39.244536,10.259493 40.3124958,9.13883735 41.6613727,9.05465984 L41.824536,9.049584 L96.319296,9.049584 C97.7441907,9.049584 98.899296,10.2046893 98.899296,11.629584 C98.899296,12.999675 97.8313362,14.1203306 96.4824593,14.2045082 L96.319296,14.209584 L44.404,14.209 L44.404536,19.942344 C44.404536,21.312435 43.3365762,22.4330906 41.9876993,22.5172682 L41.824536,22.522344 L25.195576,22.522344 C23.825485,22.522344 22.7048294,21.4543842 22.6206518,20.1055073 L22.615576,19.942344 L22.615576,3.315104 C22.615576,1.94501299 23.6835358,0.824357354 25.0324127,0.740179836 L25.195576,0.735104 L41.824536,0.735104 Z M16.654056,9.049584 C18.0789507,9.049584 19.234056,10.2046893 19.234056,11.629584 C19.234056,12.999675 18.1660962,14.1203306 16.8172193,14.2045082 L16.654056,14.209584 L3.439296,14.209584 C2.01440135,14.209584 0.859296,13.0544787 0.859296,11.629584 C0.859296,10.259493 1.92725582,9.13883735 3.27613274,9.05465984 L3.439296,9.049584 L16.654056,9.049584 Z" id="Stroke-803" fill="#00B077"></path>
    </g>
</svg>