<?xml version="1.0" encoding="UTF-8"?>
<svg width="100px" height="100px" viewBox="0 0 100 100" version="1.1" xmlns="http://www.w3.org/2000/svg" xmlns:xlink="http://www.w3.org/1999/xlink">
    <!-- Generator: Sketch 63.1 (92452) - https://sketch.com -->
    <title>Tomato</title>
    <desc>Created with Sketch.</desc>
    <g id="Tomato" stroke="none" stroke-width="1" fill="none" fill-rule="evenodd">
        <path d="M51.9146751,9.11335455 C53.2993009,9.46015728 54.1406227,10.8637574 53.79382,12.2483833 C53.4470173,13.6330091 52.0434171,14.4743309 50.6587913,14.1275282 C38.9426335,11.1930202 27.6646461,14.2136213 18.5626427,23.3156247 C2.62535932,39.2544929 3.64568769,63.8727113 20.3699089,80.5985957 C37.0933638,97.3203874 61.7131359,98.3408003 77.6496719,82.4042644 C87.213135,72.8423412 90.0595939,60.8668228 86.352979,48.5485737 C85.9416858,47.1817165 86.7163234,45.7402408 88.0831806,45.3289475 C89.4500378,44.9176542 90.8915136,45.6922918 91.3028068,47.059149 C95.5504418,61.1753785 92.2328593,75.1329915 81.3046021,86.0594889 C63.2787901,104.085301 35.3925177,102.929502 16.7148316,84.2536731 C-1.96339489,65.5735892 -3.11910123,37.6890065 14.9074744,19.6606382 C25.3057215,9.26239112 38.4520011,5.74140232 51.9146751,9.11335455 Z M48.3948887,25.7215586 C49.4340454,25.7896597 50.5581645,25.9207442 51.7459813,26.1296507 C55.0197131,26.7054161 58.2756962,27.7744901 61.3352413,29.4656692 C68.9814933,33.6921737 74.15421,41.0752238 75.6425342,52.0647005 C75.8341002,53.4791839 74.8427297,54.7811442 73.4282464,54.9727102 C72.013763,55.1642762 70.7118027,54.1729057 70.5202367,52.7584223 C69.2540952,43.4094968 65.0685586,37.4354549 58.8346108,33.9896086 C56.3132049,32.5958887 53.594025,31.7030694 50.8506184,31.2205747 C49.85388,31.0452739 48.9150388,30.9357948 48.0568598,30.8795541 L47.6114385,30.8547225 C47.3354899,30.8422231 47.1022448,30.8374256 46.9159371,30.8378812 L46.7665641,30.8394905 C45.3400422,30.8894503 44.1431173,29.7735261 44.0931575,28.3470042 C44.0451193,26.9753485 45.0750063,25.8159682 46.4224722,25.6844001 L46.691954,25.6709485 C47.1159857,25.6633085 47.6907436,25.6754125 48.3948887,25.7215586 Z M40.7710378,18.7419511 C42.1980959,18.7108714 43.3801501,19.8425355 43.4112298,21.2695936 C43.4411142,22.6417649 42.3959765,23.7874163 41.0468876,23.9011432 L40.8835873,23.9097857 C31.7090007,24.1095977 20.9286483,35.3887059 19.0203219,45.6551264 C18.7594651,47.0584847 17.4103522,47.9846651 16.0069939,47.7238083 C14.6036356,47.4629515 13.6774552,46.1138386 13.938312,44.7104803 C16.2593622,32.2236866 28.8977918,19.0005369 40.7710378,18.7419511 Z M65.9917244,1.85298918 L66.0862786,2.00188691 L72.311,12.558 L72.8378269,12.4103293 C73.4203521,12.249649 74.0283546,12.0908935 74.6578712,11.9366595 L75.2944124,11.7840287 C78.2900589,11.0813194 81.2628543,10.6006277 84.0754665,10.4442266 C84.7904769,10.404467 85.4892236,10.3863532 86.1705087,10.3911301 C87.5839773,10.4010408 88.7272846,11.5446208 88.7368582,12.9580917 C88.7415201,13.6463929 88.7228481,14.3526062 88.6821257,15.075491 C88.52417,17.8794404 88.0450612,20.8431939 87.3459519,23.8302373 C87.1450084,24.6887965 86.9345032,25.511514 86.7205832,26.2889665 L86.571,26.819 L97.125676,33.0397342 C98.5573695,33.8835574 98.8214202,35.8255748 97.7108389,37.0214111 L97.5865785,37.1465971 C95.3312845,39.2734638 92.2460174,40.5584212 88.5621854,41.2036583 C85.3269301,41.7703254 81.9420913,41.8024411 78.7901482,41.5223735 L78.1383303,41.4592026 C77.7461724,41.4177544 77.4407634,41.3786162 77.23395,41.3476599 C75.82228,41.1363577 74.8491896,39.8206788 75.0604918,38.4090088 C75.2636669,37.0516338 76.4879004,36.0997503 77.8367412,36.2163833 L78.547453,36.3043256 C78.7436544,36.3260104 78.9782928,36.3496657 79.2476452,36.3735992 C81.9872655,36.6170295 84.9480436,36.5889374 87.6703814,36.1121097 C88.7800411,35.9177486 89.7954692,35.6555165 90.7047716,35.3256819 L90.777,35.297 L82.1935134,30.2389643 C81.1907653,29.6479564 80.7131356,28.4652426 81.0064907,27.3540491 L81.2925594,26.4471423 C81.3398633,26.2931212 81.3894502,26.1286805 81.4409966,25.9543496 C81.7377369,24.9507699 82.035245,23.8386059 82.3129045,22.6522662 C82.833263,20.4289613 83.2178525,18.2309228 83.4167267,16.1520185 L83.458,15.669 L82.9917309,15.7093071 C81.1390938,15.8857228 79.191991,16.2102155 77.2167954,16.6473484 L76.4749098,16.8164841 C75.487401,17.0481308 74.5514798,17.2935751 73.6870041,17.5408713 L72.6850167,17.8379692 L71.9542246,18.071467 C70.8521387,18.4477948 69.6429351,18.0394549 68.9909342,17.0923262 L68.8927141,16.9383379 L63.828,8.35 L63.8015419,8.42293232 C63.5130457,9.21858579 63.2762954,10.0954958 63.0914728,11.0456912 L63.0154429,11.4573814 C62.538881,14.1795936 62.5108883,17.1402363 62.7543252,19.8798324 L62.7898199,20.2575044 C62.8304933,20.6666516 62.8677225,20.9637519 62.8924335,21.1288413 C63.1037356,22.5405113 62.1306452,23.8561901 60.7189752,24.0674923 C59.3073052,24.2787945 57.9916264,23.3057041 57.7803242,21.8940341 L57.7284707,21.5112281 C57.6907881,21.2086852 57.6478573,20.8134399 57.6055522,20.3373455 C57.3254886,17.1855582 57.3574895,13.8009896 57.9238169,10.5660199 C58.5687144,6.88224285 59.8531694,3.7970256 61.9793811,1.54170546 C63.1193523,0.33251268 65.0715741,0.505159898 65.9917244,1.85298918 Z M71.4448362,24.2547078 L71.4986107,24.4160023 C71.7019264,25.0986583 72.2821399,25.5818429 73.495227,25.9683657 C74.8552547,26.4017079 75.6064817,27.8555214 75.1731396,29.2155491 C74.7397974,30.5755768 73.2859839,31.3268038 71.9259562,30.8934617 C69.2251537,30.0329119 67.300754,28.430329 66.5446008,25.891457 C66.1371652,24.5234449 66.9158663,23.0841602 68.2838784,22.6767247 C69.59717,22.2855865 70.9761464,22.987592 71.4448362,24.2547078 Z" fill="#00B077"></path>
    </g>
</svg>