<?xml version="1.0" encoding="UTF-8"?>
<svg width="100px" height="100px" viewBox="0 0 100 100" version="1.1" xmlns="http://www.w3.org/2000/svg" xmlns:xlink="http://www.w3.org/1999/xlink">
    <!-- Generator: Sketch 63.1 (92452) - https://sketch.com -->
    <title>Turkey</title>
    <desc>Created with Sketch.</desc>
    <g id="Turkey" stroke="none" stroke-width="1" fill="none" fill-rule="evenodd">
        <path d="M77.1840342,2.25362414 C84.1569567,3.98782655 88.6289516,9.94783216 88.0563412,17.634114 L88.023,18.019 L96.8056572,19.4961912 C98.1646318,19.7247262 99.0980561,20.9709495 98.9565542,22.3229232 L98.9343728,22.4856092 C98.7058378,23.8445838 97.4596145,24.7780081 96.1076408,24.6365062 L95.9449548,24.6143248 L84.6082648,22.7078648 C83.1252969,22.4584782 82.1641256,21.0047871 82.5154133,19.5426023 C84.0398293,13.1974388 81.1020251,8.57615278 75.9314128,7.29019436 C70.849376,6.02626515 66.0158597,8.59737338 64.5704033,14.1521375 L64.4844129,14.5008897 C64.0096171,16.5410217 64.0013663,18.7306005 64.3174471,23.6378314 L64.5122033,26.6324457 C64.5420068,27.1343063 64.5648785,27.5699913 64.5862289,28.0375157 C64.8352689,33.4909036 64.4427473,37.5612781 62.9256447,41.0152752 C63.9959998,41.704206 64.4219687,43.0946876 63.8720534,44.2834565 C63.2703384,45.5842028 61.7280887,46.1508795 60.4273425,45.5491644 C59.9667618,45.3361034 59.5068211,45.1547945 59.0457935,45.0038672 C58.8745483,44.9478064 58.7027413,44.8957529 58.5302204,44.8477068 C58.5237918,44.8474888 58.5174544,44.84572 58.5111215,44.8439261 C55.3106302,43.9568103 51.8625805,44.4496189 47.1968865,46.3218579 L46.8801331,46.4527791 C43.324362,47.9576576 31.2202802,54.0640512 30.4631964,54.4232702 C27.3511576,55.8998618 24.4181863,57.1758659 21.4558138,58.3151503 L21.033,58.475 L21.0378047,58.4950687 C21.1980702,59.1732108 21.628678,59.9762274 22.3119745,60.6781566 L22.4880528,60.8514021 C23.8887493,62.1714185 25.7852013,62.699659 27.9012682,62.141755 L28.1669004,62.0663387 C29.6293384,61.6216034 31.1574365,62.5309128 31.4641404,64.0283931 C32.1049175,67.1569831 35.3299441,68.8357078 39.2962793,66.208844 C40.6620648,65.304298 42.5139706,65.8759648 43.1322443,67.3929721 C45.8990416,74.1816353 61.1375766,71.4151565 66.5382212,61.871471 C67.24406,60.6241564 68.8274035,60.1852035 70.074718,60.8910422 C71.3220326,61.596881 71.7609855,63.1802245 71.0551468,64.427539 C64.4627801,76.077162 46.6616267,80.2412621 39.956023,72.1017746 L39.742,71.832 L39.6160578,71.8840578 C34.3130947,74.0093782 29.4103958,71.8127029 27.279358,67.6477195 L27.201,67.49 L27.1249426,67.4965117 C20.1595057,67.9369745 14.2510934,61.6555222 16.0746009,55.9556935 L16.1438895,55.7499416 C16.4028846,55.0177293 16.9762276,54.440017 17.7064525,54.1754706 C20.870884,53.0290579 23.9581435,51.7332464 27.245804,50.2011235 L28.328375,49.6905261 L28.4950652,49.6080795 C30.4497345,48.6378971 42.150263,42.7546881 45.2640647,41.5051889 C50.0745773,39.5748375 54.091787,38.8233694 57.9361939,39.4168116 C59.2084042,36.8211749 59.6037009,33.5176137 59.4228434,28.7796258 L59.36423,27.5208981 C59.3369094,27.0127288 59.3035053,26.4691293 59.2561445,25.7484909 L59.13466,23.9180905 C58.7638087,18.1584509 58.800769,15.7156289 59.5476607,12.8451725 C61.7384791,4.42604703 69.4421899,0.32818683 77.1840342,2.25362414 Z M13.9136107,33.6309928 L13.9618796,33.6984999 C13.9677648,33.7068104 13.9736023,33.7151571 13.9793917,33.7235394 C14.0034393,33.7571666 14.025663,33.7911818 14.0470461,33.8256507 C14.0536061,33.8371595 14.0609521,33.8491545 14.0682028,33.8612134 C14.0884398,33.8941973 14.1071756,33.9271499 14.1251642,33.9604622 C14.1325311,33.9744485 14.1401479,33.9887987 14.1476333,34.0032281 C14.1619671,34.0307818 14.1756376,34.0584704 14.1888034,34.0863761 C14.2033599,34.1169138 14.2171261,34.1474855 14.2303107,34.1783648 C14.2366819,34.19397 14.243195,34.2097108 14.2495518,34.2255104 C14.2635197,34.2592551 14.2765415,34.2935836 14.2888472,34.3282511 C14.2941638,34.3445492 14.2995843,34.3603447 14.3048523,34.3761891 C14.3178549,34.4137646 14.329712,34.452332 14.3406831,34.4912705 C14.3447118,34.5073235 14.3488901,34.5226937 14.3529276,34.538101 C14.3575437,34.5539148 14.3617222,34.570547 14.3657392,34.5872421 C14.3735975,34.6216607 14.3810879,34.6556915 14.3878955,34.6898669 C14.4054922,34.7769881 14.4184446,34.8662306 14.4267408,34.9568194 C14.4290063,34.9800054 14.4308513,35.0031093 14.4323875,35.0262455 C14.4322349,35.0273011 14.4322997,35.0283118 14.432364,35.0293226 C14.4356048,35.0746981 14.4374679,35.1232924 14.4379612,35.1719696 L14.432364,35.0293226 C14.4358989,35.0849179 14.4376831,35.1409888 14.437662,35.1974805 L14.437976,35.2230085 C14.4366365,35.3631847 14.4239154,35.5038769 14.3994383,35.6436853 C14.3946726,35.6701426 14.3898245,35.695704 14.3846045,35.7211297 C14.3760477,35.7627809 14.3662748,35.8047598 14.3554145,35.8465962 L14.3846045,35.7211297 C14.3193018,36.039211 14.1957993,36.3360559 14.025718,36.6000525 L14.0894605,36.4942494 C14.0555833,36.5528704 14.019764,36.6096697 13.9821311,36.6646129 C13.9574905,36.7013568 13.9313955,36.7373075 13.9044175,36.7725464 C13.8997338,36.7782417 13.8954601,36.7837963 13.891167,36.7893295 C13.8609194,36.8285452 13.8295208,36.8665827 13.7970826,36.9036881 C13.7868724,36.9154004 13.7762052,36.9274108 13.7654417,36.9393048 C13.7409792,36.9661811 13.7164704,36.9921025 13.6914419,37.0175103 C13.6742795,37.0351536 13.6570213,37.0521984 13.6395561,37.0689682 C13.6202777,37.0872407 13.6006464,37.1055156 13.5807351,37.1234862 C13.5608204,37.1416705 13.5406717,37.1592794 13.5202862,37.176544 C13.4939316,37.1987287 13.4672832,37.2204382 13.4402034,37.2416215 C13.4251576,37.2533977 13.4100297,37.2649344 13.3947902,37.2762924 C13.3661738,37.2977412 13.33705,37.3185907 13.3074859,37.3388441 C13.2902133,37.3503708 13.2728063,37.3619448 13.2552757,37.3732974 C13.229719,37.3903107 13.2037426,37.4065559 13.1774637,37.4223489 C13.1580967,37.4333399 13.1388649,37.4445113 13.1195053,37.4554268 C13.0815449,37.4776688 13.0427568,37.4983574 13.0033978,37.5180746 C12.993648,37.5219316 12.9842601,37.5265426 12.9748469,37.5310958 C12.6791929,37.6758058 12.3516672,37.7650123 12.0058057,37.7864662 L11.8416919,37.7915102 C8.64994219,37.790317 6.059272,40.3817262 6.059272,43.576631 C6.059272,46.6988808 8.5295583,49.243187 11.62173,49.3609512 L11.8436321,49.3652112 C13.2768109,49.3657469 14.4381976,50.5280023 14.437662,51.9611811 C14.4371261,53.3943599 13.2748707,54.5557466 11.8416919,54.555211 C5.78082285,54.5529451 0.869272,49.638592 0.869272,43.576631 C0.869272,39.3433737 3.26657994,35.6686852 6.7769216,33.8380134 L6.64015333,33.6181571 C4.64153827,30.3062391 4.45770365,26.0370325 6.52749126,22.4501231 C8.64331206,18.7818564 12.5588732,16.7981601 16.5166358,16.9687005 C16.3465528,13.0120243 18.3299984,9.09747241 21.9970753,6.97984246 C25.6633125,4.86427958 30.0438487,5.10369504 33.384733,7.22847487 C35.2157444,3.71635972 38.8903159,1.31844 43.124349,1.31844 C49.1606254,1.31844 54.0578447,6.18973881 54.1009127,12.2168752 L54.101891,12.296328 L54.101891,34.090868 C54.101891,35.5240469 52.9400699,36.685868 51.506891,36.685868 C50.1288343,36.685868 49.0016633,35.6116991 48.9169963,34.2549799 L48.911891,34.090868 L48.911272,12.31144 L48.911199,12.29702 C48.911199,9.09917361 46.3208347,6.50844 43.124349,6.50844 C40.0032254,6.50844 37.4583566,8.98072457 37.3416786,12.0749697 L37.338609,12.2850075 C37.3388675,12.3588614 37.3359685,12.432557 37.3299671,12.5058894 C37.321431,12.6034554 37.3083189,12.699151 37.2901455,12.7930415 C37.2732534,12.880174 37.2518284,12.9662533 37.2260783,13.051048 C37.2211027,13.0680172 37.2159804,13.0843104 37.2107026,13.1005335 C37.2014184,13.1284959 37.1916107,13.1569693 37.18131,13.1852724 C37.1728724,13.2089327 37.1640243,13.23216 37.1548549,13.2552247 C37.1235902,13.33363 37.0887307,13.4104186 37.0501344,13.4854792 C37.0399642,13.5048615 37.0296928,13.5241599 37.0191868,13.5433112 C37.0051534,13.5695085 36.9903344,13.5955464 36.975053,13.6213438 C36.9614175,13.6435191 36.9478855,13.6655226 36.9340377,13.6873056 C36.9214231,13.7081569 36.9081425,13.728477 36.8945645,13.7486254 C36.8783927,13.7714696 36.8622697,13.7945132 36.8457861,13.8172788 C36.8270163,13.8444796 36.8069973,13.8710983 36.7864329,13.8973632 C36.7795952,13.9047861 36.7734642,13.9125135 36.7672904,13.920205 C36.748119,13.9454275 36.7277243,13.9699251 36.70684,13.9940808 L36.6825801,14.0204628 C36.672792,14.0314733 36.6629116,14.0423999 36.6529401,14.0532414 C36.5736861,14.1405762 36.4873362,14.2224442 36.3946285,14.2987223 C36.3791373,14.3110346 36.3638327,14.3233912 36.3483862,14.3355759 L36.3333181,14.3476293 C36.3178898,14.3595589 36.3022967,14.371338 36.2865396,14.3829633 C36.2591404,14.4031949 36.2314322,14.4229095 36.2033276,14.4420863 C36.1928126,14.4490169 36.1822243,14.4560949 36.1715688,14.4631057 C36.0854183,14.5203506 35.9958489,14.5721958 35.9031094,14.6186478 L36.0401667,14.5441395 C35.9829489,14.5771565 35.9249966,14.6077473 35.8664292,14.6359438 C35.8312164,14.6536183 35.7948749,14.6700988 35.758098,14.6857549 C35.739594,14.6929731 35.7215821,14.700409 35.7035237,14.7076277 C35.6103392,14.7454353 35.5142633,14.7774345 35.4158813,14.8037962 C35.4077667,14.8056425 35.4000565,14.8076768 35.3923415,14.8096743 C35.2425152,14.8486348 35.0871549,14.8742616 34.9278233,14.8855044 C34.8831377,14.8886706 34.8384152,14.890658 34.7937373,14.891488 C34.7767435,14.8918538 34.7596407,14.89202 34.742499,14.89202 L34.7286653,14.8918795 C34.7163263,14.8917988 34.7039923,14.8916301 34.6916644,14.8913736 L34.742499,14.89202 C34.3364184,14.89202 33.9521233,14.7987455 33.6098694,14.6324524 L33.6104811,14.6315221 C33.5641619,14.6102442 33.5192042,14.5867337 33.4750446,14.5619692 C33.4622816,14.553862 33.4489142,14.5462411 33.4356094,14.5384981 C33.3491302,14.4888593 33.266337,14.4338361 33.1870588,14.3743807 C33.1821157,14.370287 33.1764864,14.3660415 33.1708726,14.3617714 C33.1316482,14.3322242 33.0940071,14.3018166 33.0572542,14.2704001 C33.0520798,14.2657364 33.0467863,14.2611779 33.0415093,14.2565961 C33.0023511,14.2228163 32.9642275,14.1876509 32.9271859,14.1513847 C32.9228939,14.1469045 32.9183544,14.1424227 32.9138296,14.137922 C32.7449031,13.9705331 32.5985007,13.7790449 32.4803729,13.5694954 L32.4955525,13.5934767 C30.8991612,10.8269557 27.3586528,9.87809059 24.5917543,11.4746996 C21.8936772,13.0327604 20.9241855,16.4378521 22.357652,19.1723912 L22.4726695,19.3813753 C22.6670227,19.7181863 22.7773078,20.0804434 22.8100408,20.4438502 C22.8109737,20.4635702 22.8125435,20.4832288 22.8138899,20.5029111 C22.8202868,20.586496 22.8218043,20.6703309 22.8192937,20.7538591 C22.8180148,20.7847987 22.8165711,20.8158783 22.814563,20.8469602 C22.8137857,20.8626857 22.8125777,20.8787418 22.8112213,20.8947802 C22.8075467,20.9365266 22.8030843,20.9779566 22.7976053,21.0193405 C22.7160067,21.6324567 22.4165634,22.2113571 21.932192,22.6333889 C21.9240086,22.6396778 21.9160109,22.6465774 21.907976,22.6534233 C21.8733042,22.6837126 21.8369102,22.7130151 21.7995655,22.7414419 C21.7798897,22.7558383 21.7611155,22.7697428 21.7421765,22.7833761 C21.7169085,22.8020727 21.6902606,22.8205039 21.6631742,22.8384993 C21.6470203,22.8487826 21.6308365,22.8592816 21.6145489,22.8695913 C21.5845069,22.88906 21.5535197,22.9078053 21.5220067,22.9259895 C21.1788428,23.1240086 20.809264,23.2347582 20.4389673,23.2651303 C20.4252507,23.2651661 20.4112418,23.2662275 20.397221,23.2671755 C20.3039433,23.2743321 20.2110466,23.2753826 20.118572,23.2714986 C20.0971299,23.27017 20.0751682,23.2690157 20.0532056,23.2675797 C20.0390514,23.2669731 20.0253288,23.2659381 20.011619,23.2647947 C19.9181752,23.2569147 19.8242971,23.2440968 19.7308825,23.2259963 C19.6992143,23.2197447 19.6681976,23.2131189 19.6373153,23.2059313 C19.61139,23.2000299 19.5850728,23.1934745 19.5588135,23.1864896 C19.5157302,23.1749278 19.473001,23.1623979 19.4306103,23.1487804 C19.4220348,23.1460365 19.4137134,23.1433064 19.4053999,23.1405318 C19.2365011,23.0844134 19.0727895,23.0107386 18.9175988,22.920435 L18.9271162,22.9250551 C16.1603939,21.3278583 12.6190984,22.2764658 11.0230105,25.0436547 C9.42575213,27.8116784 10.3733689,31.3495463 13.1410924,32.9490205 L13.166789,32.9642891 C13.1863277,32.9759042 13.205701,32.9877686 13.2249043,32.9998778 L13.1410924,32.9490205 C13.2015339,32.9839498 13.2600389,33.0209436 13.3165695,33.0598613 C13.3330663,33.0718256 13.3498141,33.0836946 13.3664135,33.0957555 C13.4703312,33.1702763 13.5666414,33.2515511 13.6557994,33.3384596 C13.6627657,33.3468158 13.6705522,33.3545107 13.67829,33.3622543 L13.6919992,33.3744525 C13.7719777,33.4555659 13.845911,33.541314 13.9136107,33.6309928 Z M93.4954621,27.3792407 C101.121283,34.4316776 101.491634,43.4504163 94.4902154,45.9786254 C93.1422284,46.4653829 91.6548741,45.7672184 91.1681166,44.4192314 C90.7008294,43.1251639 91.3255663,41.7026555 92.5689056,41.1602734 L92.7275106,41.0971326 C95.3047089,40.1665075 95.1320521,35.9619938 89.9716239,31.1895773 C88.9194285,30.2164963 88.8552937,28.5746853 89.8283747,27.5224899 C90.8014557,26.4702945 92.4432667,26.4061597 93.4954621,27.3792407 Z M78.3694088,13.1025652 C80.0584264,14.7915827 80.0584264,17.5300213 78.3694088,19.2190388 C76.6803913,20.9080564 73.9419527,20.9080564 72.2529352,19.2190388 C70.5639176,17.5300213 70.5639176,14.7915827 72.2529352,13.1025652 C73.9419527,11.4135476 76.6803913,11.4135476 78.3694088,13.1025652 Z M85.9493957,29.4571286 C95.5541505,59.0997454 84.05999,83.7161661 59.1966476,89.7257423 L60.394,94.739 L68.039463,94.739132 C69.4175197,94.739132 70.5446907,95.8133009 70.6293577,97.1700201 L70.634463,97.334132 C70.634463,98.7121887 69.5602941,99.8393597 68.2035749,99.9240267 L68.039463,99.929132 L58.346273,99.929132 C57.2054239,99.929132 56.2061529,99.1854949 55.8698247,98.1096984 L55.8223055,97.9371354 L54.0869455,90.6704533 C51.7788942,90.9730568 49.3740326,91.128795 46.877411,91.128795 C45.1067864,91.128795 43.3770469,91.0389034 41.6916731,90.8626178 L42.629,94.739 L50.280667,94.739132 C51.6587237,94.739132 52.7858947,95.8133009 52.8705617,97.1700201 L52.875667,97.334132 C52.875667,98.7121887 51.8014981,99.8393597 50.4447789,99.9240267 L50.280667,99.929132 L40.587477,99.929132 C39.4491816,99.929132 38.4514839,99.1887512 38.1130712,98.116188 L38.065192,97.944135 L36.1270061,89.9330087 C29.3081714,88.3450327 23.3891377,85.2221566 18.6496223,80.8454612 C12.3381463,75.017142 8.57036931,67.2760741 8.25922166,59.9395927 C8.19849368,58.507701 9.31004152,57.2976936 10.7419333,57.2369657 C12.173825,57.1762377 13.3838324,58.2877855 13.4445603,59.7196773 C13.6959961,65.6482243 16.8419694,72.1117686 22.1706597,77.0325363 C26.5592799,81.0851984 32.1530167,83.9061511 38.702203,85.1773769 C38.7457837,85.1831099 38.7884461,85.1915379 38.8307963,85.2010161 C41.3739675,85.6870085 44.0612782,85.938795 46.877411,85.938795 C76.3140888,85.938795 91.0566109,62.0566934 81.0121063,31.0569014 C80.5703412,29.6935066 81.3174697,28.2301354 82.6808646,27.7883703 C84.0442594,27.3466052 85.5076306,28.0937337 85.9493957,29.4571286 Z" fill="#00B077"></path>
    </g>
</svg>