<?xml version="1.0" encoding="UTF-8"?>
<svg width="100px" height="100px" viewBox="0 0 100 100" version="1.1" xmlns="http://www.w3.org/2000/svg" xmlns:xlink="http://www.w3.org/1999/xlink">
    <!-- Generator: Sketch 63.1 (92452) - https://sketch.com -->
    <title>USA</title>
    <desc>Created with Sketch.</desc>
    <g id="USA" stroke="none" stroke-width="1" fill="none" fill-rule="evenodd">
        <path d="M14.4846192,18.3866773 C19.4687934,25.7080037 37.1611432,28.3822836 51.4679707,25.3349587 L51.9234027,25.2357597 C63.3839894,22.6828339 68.3189311,25.3144123 68.5456473,32.0926264 L68.551697,32.3335775 C68.5574417,32.6735335 68.554902,32.9711201 68.5433055,33.3691861 L68.4985382,34.6329388 L68.488,35.043 L68.5165835,35.0219786 C68.8410538,34.7566757 69.2321118,34.3828826 69.7026805,33.8880496 L71.2474993,32.2253271 C71.8641124,31.5858184 72.3525191,31.1520765 72.9001905,30.8228436 C74.4749554,29.8761728 76.5077093,30.8209637 76.7993021,32.6350871 C77.0588668,34.2499504 77.377992,35.3626065 77.6623625,35.9769723 L77.712,36.08 L77.7608665,36.0486427 C78.9115674,35.2694223 80.2138631,33.6881764 83.1863826,29.5713354 L85.2173448,26.7486625 L85.7743996,25.9882203 C87.7685888,23.2879533 89.2470093,21.54095 90.738526,20.253159 C93.3211208,18.0233199 96.007702,17.3158453 98.4387162,19.1338048 C99.5864596,19.9921096 99.8210959,21.6183329 98.9627912,22.7660762 C98.1044864,23.9138196 96.4782631,24.1484559 95.3305198,23.2901512 C95.0709748,23.0960584 93.0758955,24.8099183 89.6365349,29.4975243 L88.993733,30.3828019 L86.8881635,33.3105557 C83.5757887,37.8777708 82.2584543,39.3737689 80.3242589,40.5705832 C78.2757086,41.8381564 76.0426911,41.8507285 74.3218726,40.1568927 C73.8377271,39.6803387 73.4236588,39.0894126 73.0678141,38.3746427 L72.907,38.035 C71.9979279,38.9413648 71.219775,39.5646403 70.3511827,40.0146002 L70.1118884,40.1330977 C68.3145391,40.9829169 66.3937415,40.8378075 64.8323228,39.470798 C63.3258988,38.1536628 63.2066866,37.0935458 63.3329681,33.8571456 L63.354315,33.2556646 C63.3644861,32.9153943 63.3667558,32.6767927 63.3624379,32.4212667 C63.3376995,30.9573018 63.085242,30.3339358 62.439024,29.9757784 C61.120731,29.2451329 58.2297571,29.1890801 53.4759281,30.2088628 L53.0516309,30.3016458 C38.7770759,33.4800872 21.5642673,31.5845888 13.1419724,24.5189744 L12.79,24.215 L12.781787,24.2313644 C6.67624428,35.635092 3.92517021,51.5742751 8.07687506,60.5187696 L8.24213028,60.8636919 C13.5961446,71.6900798 24.1560958,76.5780581 39.266196,77.3032622 C43.3054128,77.4961626 47.109411,79.1861868 51.8405711,82.3218359 L52.5741395,82.8156443 C53.6455305,83.5511667 56.3909521,85.4776697 57.0583516,85.9152232 L57.586,86.2520032 L57.5969379,85.8332219 C57.6017621,85.6620314 57.6072971,85.5148089 57.6146873,85.3592894 L57.6212998,85.2270777 C57.8435957,80.9787987 59.6046249,78.2163849 63.9350695,78.439419 L64.203418,78.4568171 C67.2294401,78.691803 68.6211522,77.7371046 69.7601741,75.4025062 L69.901036,75.0950821 C70.2660438,74.2677793 70.9290743,72.6055003 70.9197543,72.6271268 C72.1022806,69.8831359 73.9817327,68.4216206 76.7964673,69.9274901 C78.4964795,70.8365904 79.9184496,72.0634526 81.6151117,73.905444 L82.2068657,74.5615054 C82.6969847,75.1147885 83.6661702,76.2148565 83.9605345,76.534343 L84.3567994,76.9543452 C84.7319197,77.3411876 85.0459885,77.6307461 85.3204414,77.8427823 L85.4544657,77.9424317 C85.5992255,78.0456733 85.6977834,78.1195308 85.7761283,78.1617554 L85.836,78.188 L85.8017881,77.9014653 L85.7761496,77.7269285 L85.7183287,77.3830014 C85.6746553,77.1400614 85.6202531,76.8671247 85.5522626,76.5480732 L85.3420632,75.6016508 C85.2159628,75.0471803 85.0140032,74.1620121 84.9401199,73.8289083 C83.92553,69.2546209 83.5925566,65.92215 84.1679694,62.3777398 C84.5078119,60.2843887 85.177444,58.3164058 86.2192986,56.4858612 C86.7420535,55.5665646 87.3030711,54.8256716 88.2330722,53.7498148 L89.1617138,52.6861824 L89.493334,52.2934535 C90.7866422,50.7254042 90.9826886,49.9743102 90.3917371,48.6504773 L90.3170652,48.4887792 C88.7586167,45.2162663 88.9184824,41.5423295 90.3168307,37.1860695 C90.8182498,35.6240039 91.4239671,34.1043983 92.3354299,32.0364947 L93.3530213,29.7595692 C93.9379454,28.4511864 95.4727739,27.8647072 96.7811568,28.4496313 C98.0372043,29.0111584 98.6279454,30.4481175 98.1556916,31.7197492 L98.0910947,31.8777668 C98.0406279,31.9906531 97.4510283,33.3040979 97.2774018,33.6943701 L96.7457516,34.906655 C96.0891674,36.4299716 95.6320535,37.6085339 95.2584793,38.772326 C94.2256647,41.9898424 94.1205871,44.4046727 95.0027877,46.2571644 C96.8094643,50.0503676 95.9370604,52.7726183 93.094108,56.073272 L92.3785534,56.8920945 C91.5188916,57.8741184 91.0768475,58.4429451 90.7303893,59.0522127 C90.0042322,60.3280752 89.5346002,61.7082775 89.2908998,63.2094156 C88.8649067,65.8334347 89.1018165,68.4914575 89.8997314,72.2134663 L90.5054116,74.9037572 L90.6343552,75.494724 C90.7522957,76.0495608 90.8385315,76.5041116 90.9048037,76.9313108 C91.1955086,78.8052322 91.1211445,80.1196855 90.2377191,81.3026839 C90.1445088,81.4275022 90.0402483,81.5436737 89.9262007,81.6497912 C87.5631047,83.8485722 84.8854753,83.9113457 82.440899,82.1678921 C81.7802446,81.6967183 81.1499872,81.1189269 80.4216352,80.3489915 L80.143654,80.0510919 C79.7309792,79.603198 78.3205121,77.9980228 78.1035091,77.7573177 C77.1772241,76.7298597 76.3957465,75.9585077 75.6563297,75.3728393 L75.468,75.228 L75.1165405,76.0891538 C74.8886881,76.6385388 74.6408568,77.2211247 74.4704387,77.5826089 L74.4246301,77.6782369 C72.4587206,81.7076671 69.2793542,83.9469549 64.1461055,83.6544505 L63.8009862,83.6311913 C63.0079508,83.5694194 62.9058395,83.6780039 62.8147136,85.3038692 L62.7829127,86.0550403 L62.7585427,87.2571998 C62.7318805,88.3363646 62.6824247,88.8544515 62.5159207,89.5007592 C62.0788106,91.1974614 60.8005222,92.4363082 58.8581123,92.2826285 C57.5603876,92.1796654 56.3021663,91.5970986 54.5476806,90.4727635 L53.9605284,90.0871858 C52.8700858,89.3506845 50.0748342,87.3880016 49.4157226,86.9436732 C45.1906284,84.095401 41.9920229,82.6293542 39.0180051,82.4873244 C22.2185496,81.6810404 9.9352975,75.9953825 3.58982555,63.1641615 C-2.1492463,51.5566025 1.89388947,31.3996983 10.1515982,18.4516471 C11.1536362,16.8804559 13.435925,16.846235 14.4846192,18.3866773 Z M50.1679644,47.3273102 C51.1756156,48.3464475 51.1663042,49.9894842 50.1471668,50.9971354 C49.1723398,51.9609757 47.6266861,51.9943625 46.6122742,51.1035414 L46.4773416,50.9763378 C45.4449645,49.9321927 43.5062757,49.6061772 42.7088444,50.2906966 C41.9950519,50.90452 42.1529617,51.5968681 44.3490881,52.34207 L44.5680184,52.4143505 C50.1064089,54.1931663 52.4737768,56.9901799 51.1868987,61.279773 C49.763831,66.0190968 43.1604499,66.7249402 37.4846885,63.5759577 C36.2314695,62.8806564 35.7791879,61.3010685 36.4744893,60.0478495 C37.1697906,58.7946305 38.7493785,58.3423489 40.0025975,59.0376503 C41.7669519,60.0165359 43.5365228,60.4223155 44.9019178,60.2763668 C45.7894628,60.181496 46.1728183,59.9315158 46.2159638,59.7878262 L46.2603019,59.6228647 C46.4646302,58.7442602 45.9798144,58.3189112 42.9803604,57.3555489 C36.8785638,55.3941786 35.3694356,49.7570832 39.3266248,46.3541136 C42.4386877,43.6826968 47.3872059,44.5148538 50.1679644,47.3273102 Z M65.9880507,46.0729024 L66.0722534,46.2401394 L72.1022856,59.2842397 C72.1276778,59.3339678 72.1515132,59.3846232 72.1737276,59.4361417 L73.2690534,61.8101394 C73.870372,63.111069 73.3032252,64.6531458 72.0022956,65.2544644 C70.7534032,65.8317302 69.2822695,65.3321384 68.6345688,64.1402682 L68.5579706,63.9877066 L68.1277491,63.0570032 L59.3087491,63.0570032 L58.8791127,63.9872752 C58.3020756,65.2362733 56.8579119,65.809176 55.5922254,65.3212124 L55.4350198,65.2546637 C54.1860217,64.6776266 53.613119,63.2334629 54.1010826,61.9677764 L54.1676313,61.8105708 L61.3609713,46.2405708 C62.2624584,44.2893 64.9823194,44.2333027 65.9880507,46.0729024 Z M30.814707,44.733923 C32.1927637,44.733923 33.3199347,45.8080919 33.4046017,47.1648111 L33.409707,47.328923 L33.409707,55.113923 C33.409707,61.6197796 29.525601,65.493923 23.827237,65.493923 C18.2254555,65.493923 14.3769528,61.7499936 14.2481043,55.4424552 L14.244767,55.113923 L14.244767,47.328923 C14.244767,45.8957441 15.4065881,44.733923 16.839767,44.733923 C18.2178237,44.733923 19.3449947,45.8080919 19.4296617,47.1648111 L19.434767,47.328923 L19.434767,55.113923 C19.434767,58.7504337 20.9922513,60.303923 23.827237,60.303923 C26.5895308,60.303923 28.1389961,58.8290784 28.2166398,55.389555 L28.219707,55.113923 L28.219707,47.328923 C28.219707,45.8957441 29.3815281,44.733923 30.814707,44.733923 Z M63.717,53.515 L61.7057491,57.8670032 L65.7287491,57.8670032 L63.717,53.515 Z" id="Path-2" fill="#00B077"></path>
    </g>
</svg>