<?xml version="1.0" encoding="UTF-8"?>
<svg width="100px" height="100px" viewBox="0 0 100 100" version="1.1" xmlns="http://www.w3.org/2000/svg" xmlns:xlink="http://www.w3.org/1999/xlink">
    <!-- Generator: Sketch 63.1 (92452) - https://sketch.com -->
    <title>Undo</title>
    <desc>Created with Sketch.</desc>
    <g id="Undo" stroke="none" stroke-width="1" fill="none" fill-rule="evenodd">
        <path d="M42.5840429,1.99339375 C44.2290576,0.663919822 46.6605407,1.77224462 46.7810867,3.83914214 L46.7857492,4 L46.785,17.523 L46.9274782,17.5295388 C57.4269024,18.0029348 68.59922,21.181842 77.4223783,26.686409 L77.99444,27.0486958 C89.7694395,34.6184067 96.58,45.8317527 96.58,60.1186111 C96.58,72.5484295 92.2960916,82.5912867 85.172406,90.3748843 C82.6805372,93.0975906 80.0113697,95.3458287 77.3357724,97.1529486 C75.7085197,98.252008 74.4175366,98.9700528 73.6296391,99.3378385 C71.3966914,100.380165 69.1130303,97.9980392 70.2486329,95.8110535 C82.0352363,73.1119735 70.1414026,53.9066667 44.2074639,53.9066667 C42.7825693,53.9066667 41.6274639,52.7515613 41.6274639,51.3266667 C41.6274639,49.901772 42.7825693,48.7466667 44.2074639,48.7466667 C70.712074,48.7466667 85.0508504,67.1921401 78.3102407,89.6889475 L78.225,89.962 C79.1208853,89.1795844 79.9986261,88.3402072 80.8548599,87.4391724 L81.3659444,86.8911435 C87.6557898,80.01863 91.42,71.1941122 91.42,60.1186111 C91.42,47.6842546 85.5705705,38.0533767 75.204113,31.3891653 C66.4102128,25.7358927 54.7429532,22.6276667 44.2057492,22.6276667 C42.8356582,22.6276667 41.7150025,21.5597068 41.630825,20.2108299 L41.6257492,20.0476667 L41.625,9.402 L9.104,35.685 L41.627,61.968 L41.6274639,59.8947222 C41.6274639,58.5246312 42.6954237,57.4039756 44.0443007,57.3197981 L44.2074639,57.3147222 C45.5775549,57.3147222 46.6982106,58.382682 46.7823881,59.731559 L46.7874639,59.8947222 L46.7874639,67.3708889 C46.7874639,69.4859464 44.3971557,70.6803922 42.7138397,69.4750099 L42.5858005,69.3775298 L3.37833659,37.6920854 C2.14789665,36.6977074 2.10230548,34.8545274 3.24158059,33.7972509 L3.37829369,33.6788382 L42.5840429,1.99339375 Z" fill="#00B077"></path>
    </g>
</svg>