<?xml version="1.0" encoding="UTF-8"?>
<svg width="100px" height="100px" viewBox="0 0 100 100" version="1.1" xmlns="http://www.w3.org/2000/svg" xmlns:xlink="http://www.w3.org/1999/xlink">
    <!-- Generator: Sketch 63.1 (92452) - https://sketch.com -->
    <title>VideoCamera</title>
    <desc>Created with Sketch.</desc>
    <g id="VideoCamera" stroke="none" stroke-width="1" fill="none" fill-rule="evenodd">
        <path d="M60.515252,85.694808 C61.9401467,85.694808 63.095252,86.8499133 63.095252,88.274808 C63.095252,89.644899 62.0272922,90.7655546 60.6784153,90.8497322 L60.515252,90.854808 L20.618132,90.854808 C19.1932373,90.854808 18.038132,89.6997027 18.038132,88.274808 C18.038132,86.904717 19.1060918,85.7840614 20.4549687,85.6998838 L20.618132,85.694808 L60.515252,85.694808 Z M30.417144,55.453768 C31.8420387,55.453768 32.997144,56.6088733 32.997144,58.033768 C32.997144,59.403859 31.9291842,60.5245146 30.5803073,60.6086922 L30.417144,60.613768 L24.477984,60.613768 C23.0530893,60.613768 21.897984,59.4586627 21.897984,58.033768 C21.897984,56.663677 22.9659438,55.5430214 24.3148207,55.4588438 L24.477984,55.453768 L30.417144,55.453768 Z M70.666004,31.231008 C75.8748987,31.231008 80.126004,35.4821133 80.126004,40.691008 L80.126004,40.691008 L80.125724,41.503544 L88.9548746,36.4059419 C94.0217655,33.4803853 98.9022514,36.2132102 99.0446993,41.9733987 L99.047896,42.233332 L99.047896,70.969372 C99.047896,76.8201134 94.2431666,79.6794516 89.1817577,76.9239591 L88.954971,76.7968178 L80.125724,71.699544 L80.126004,72.509288 C80.126004,77.6283741 76.0202248,81.8224134 70.9345586,81.9655138 L70.666004,81.969288 L10.467724,81.969288 C5.25882935,81.969288 1.007724,77.7181827 1.007724,72.509288 L1.007724,72.509288 L1.007724,40.691008 C1.007724,35.4821133 5.25882935,31.231008 10.467724,31.231008 L10.467724,31.231008 Z M11.372724,36.390544 L10.467724,36.391008 C8.10861865,36.391008 6.167724,38.3319027 6.167724,40.691008 L6.167724,40.691008 L6.167724,72.509288 C6.167724,74.8683933 8.10861865,76.809288 10.467724,76.809288 L10.467724,76.809288 L70.666004,76.809288 C73.0251093,76.809288 74.966004,74.8683933 74.966004,72.509288 L74.966004,72.509288 L74.9650109,67.2989722 C74.9637397,67.2530059 74.9636957,67.2069485 74.9648922,67.1608502 L74.966004,40.691008 C74.966004,38.3319027 73.0251093,36.391008 70.666004,36.391008 L70.666004,36.391008 L66.144724,36.390544 L66.144812,60.667088 C66.144812,65.7861741 62.0390328,69.9802134 56.9533666,70.1233138 L56.684812,70.127088 L20.833132,70.127088 C15.7140459,70.127088 11.5200066,66.0213088 11.3769062,60.9356426 L11.373132,60.667088 L11.372724,36.390544 Z M91.6965938,40.7836206 L91.5351631,40.8744664 L80.125724,47.462544 L80.125724,65.741544 L91.5341551,72.3276558 C93.1828634,73.2787699 93.8448593,72.9580439 93.8858531,71.1546604 L93.887896,70.969372 L93.887896,42.233332 C93.887896,40.3311472 93.2783593,39.9177284 91.6965938,40.7836206 Z M60.984724,36.390544 L16.532724,36.390544 L16.533132,60.667088 C16.533132,62.9568079 18.3615354,64.852556 20.6260997,64.9620898 L20.833132,64.967088 L56.684812,64.967088 C58.9745319,64.967088 60.87028,63.1386846 60.9798138,60.8741203 L60.984812,60.667088 L60.984724,36.390544 Z M74.096028,6.598544 C78.4904302,6.598544 82.051028,10.1607162 82.051028,14.553544 C82.051028,18.9462258 78.4905754,22.505104 74.096028,22.505104 C72.6711333,22.505104 71.516028,21.3499987 71.516028,19.925104 C71.516028,18.555013 72.5839878,17.4343574 73.9328647,17.3501798 L74.096028,17.345104 C75.6412969,17.345104 76.891028,16.0959255 76.891028,14.553544 C76.891028,13.0671635 75.7310733,11.8516448 74.2663396,11.7636453 L74.096028,11.758544 L54.061468,11.758544 C52.5173659,11.758544 51.266468,13.009995 51.266468,14.553544 C51.266468,16.0388002 52.4253408,17.2521701 53.8910361,17.3400119 L54.061468,17.345104 L66.423108,17.345104 C67.8480027,17.345104 69.003108,18.5002093 69.003108,19.925104 C69.003108,21.295195 67.9351482,22.4158506 66.5862713,22.5000282 L66.423108,22.505104 L54.061468,22.505104 C50.5708164,22.505104 47.6064245,20.2596828 46.5346359,17.1345408 L26.68182,17.13406 C25.0269117,17.13406 23.68558,18.4756775 23.68558,20.1303 C23.68558,21.7267959 24.9321464,23.03038 26.5056837,23.1214568 L26.68182,23.12654 C28.1067147,23.12654 29.26182,24.2816453 29.26182,25.70654 C29.26182,27.1314347 28.1067147,28.28654 26.68182,28.28654 C22.1764053,28.28654 18.52558,24.6357147 18.52558,20.1303 C18.52558,15.7095448 22.0428952,12.1096142 26.4324414,11.9777995 L26.68182,11.97406 L46.5340671,11.9738158 C47.5799525,8.9211228 50.4305369,6.70583195 53.8136371,6.60233004 L54.061468,6.598544 L74.096028,6.598544 Z" id="Video-Camera" fill="#00B077"></path>
    </g>
</svg>