<?xml version="1.0" encoding="UTF-8"?>
<svg width="100px" height="100px" viewBox="0 0 100 100" version="1.1" xmlns="http://www.w3.org/2000/svg" xmlns:xlink="http://www.w3.org/1999/xlink">
    <!-- Generator: Sketch 63.1 (92452) - https://sketch.com -->
    <title>Volume</title>
    <desc>Created with Sketch.</desc>
    <g id="Volume" stroke="none" stroke-width="1" fill="none" fill-rule="evenodd">
        <path d="M58.626299,8.42563845 L58.630836,8.58511701 L58.630836,94.340877 C58.630836,96.5858621 55.9797558,97.736306 54.3418631,96.2742513 L54.2266433,96.1653553 L32.2467633,74.1889153 C31.2391318,73.1814414 31.2390039,71.5478758 32.2464777,70.5402443 C33.2101483,69.5764228 34.7466516,69.5344006 35.7602717,70.4142633 L35.8951487,70.5399587 L53.470184,88.112773 L53.470184,14.542773 L27.797184,38.623773 L27.798116,65.415637 C27.798116,66.785728 26.7301562,67.9063837 25.3812793,67.9905612 L25.218116,67.995637 C23.848025,67.995637 22.7273694,66.9276772 22.6431918,65.5788003 L22.638116,65.415637 L22.638116,37.506917 C22.638116,36.8588393 22.8818907,36.2370198 23.3168526,35.7628892 L23.4530242,35.6252021 L54.2857442,6.70340212 C55.8940941,5.19473291 58.5029782,6.27204932 58.626299,8.42563845 Z M16.03452,36.426413 C17.4594147,36.426413 18.61452,37.5815184 18.61452,39.006413 C18.61452,40.4313077 17.4594147,41.586413 16.03452,41.586413 C10.5802912,41.586413 6.16,46.008391 6.16,51.464373 C6.16,56.9186515 10.5820265,61.344053 16.03452,61.344053 C17.4594147,61.344053 18.61452,62.4991584 18.61452,63.924053 C18.61452,65.3489477 17.4594147,66.504053 16.03452,66.504053 C7.7313556,66.504053 1,59.7675599 1,51.464373 C1,43.1590423 7.73006106,36.426413 16.03452,36.426413 Z M81.7806459,9.80265598 C92.7609924,20.7774475 99.040172,35.6215986 99.040172,51.464373 C99.040172,67.3010574 92.7605036,82.1463639 81.7809537,93.1240623 C80.773316,94.13153 79.1397504,94.1313923 78.1322827,93.1237547 C77.124815,92.116117 77.1249527,90.4825514 78.1325903,89.4750837 C88.1538507,79.4555132 93.880172,65.9183343 93.880172,51.464373 C93.880172,37.0044617 88.1544738,23.4687558 78.1328981,13.45225 C77.1250906,12.4449523 77.1246773,10.8113867 78.131975,9.80357915 C79.1392727,8.79577159 80.7728383,8.79535827 81.7806459,9.80265598 Z M71.2411603,25.251512 C78.1388165,32.1625026 82.093184,41.5086581 82.093184,51.463685 C82.093184,61.4167926 78.1376291,70.7662418 71.2409091,77.6743897 C70.2341908,78.6827761 68.6006257,78.6841283 67.5922393,77.6774101 C66.5838529,76.6706918 66.5825007,75.0371267 67.5892189,74.0287403 C73.530326,68.0777889 76.933184,60.034708 76.933184,51.463685 C76.933184,42.8906648 73.5314269,34.850605 67.5889677,28.896658 C66.5823884,27.8881328 66.5839659,26.254568 67.592491,25.2479887 C68.6010162,24.2414094 70.2345811,24.2429869 71.2411603,25.251512 Z" fill="#00B077"></path>
    </g>
</svg>