<?xml version="1.0" encoding="UTF-8"?>
<svg width="100px" height="100px" viewBox="0 0 100 100" version="1.1" xmlns="http://www.w3.org/2000/svg" xmlns:xlink="http://www.w3.org/1999/xlink">
    <!-- Generator: Sketch 63.1 (92452) - https://sketch.com -->
    <title>Waffle</title>
    <desc>Created with Sketch.</desc>
    <g id="Waffle" stroke="none" stroke-width="1" fill="none" fill-rule="evenodd">
        <path d="M50.0957872,0.715620084 C22.9747165,0.715620084 0.989717222,22.7006193 0.989717222,49.8216901 C0.989717222,76.9427608 22.9747165,98.9277601 50.0957872,98.9277601 C77.216858,98.9277601 99.2018572,76.9427608 99.2018572,49.8216901 C99.2018572,22.7006193 77.216858,0.715620084 50.0957872,0.715620084 Z M50.0957872,5.88468008 C74.362065,5.88468008 94.0327972,25.5554123 94.0327972,49.8216901 C94.0327972,74.0879678 74.362065,93.7587001 50.0957872,93.7587001 C25.8295095,93.7587001 6.15877722,74.0879678 6.15877722,49.8216901 C6.15877722,25.5554123 25.8295095,5.88468008 50.0957872,5.88468008 Z M44.6909302,10.7188797 C43.6755994,9.83739262 42.136395,9.87936819 41.1709569,10.8448064 C40.1616351,11.8541281 40.1616351,13.490562 41.1709569,14.4998838 L41.1709569,14.4998838 L46.4407172,19.7696201 L35.0687172,31.1406201 L25.0709207,21.1426077 L24.9358167,21.016681 C23.9204858,20.1351939 22.3812815,20.1771695 21.4158433,21.1426077 C20.4065216,22.1519295 20.4065216,23.7883633 21.4158433,24.7976851 L21.4158433,24.7976851 L31.4137172,34.7956201 L20.0437172,46.1656201 L14.7406555,40.8635343 L14.6055466,40.7376128 C13.5901814,39.8561653 12.0509787,39.8982008 11.0855781,40.8636765 C10.0762956,41.8730376 10.0763593,43.5094714 11.0857204,44.5187539 L11.0857204,44.5187539 L16.3887172,49.8206201 L11.0856492,55.1246974 L10.9597225,55.2598013 C10.0782355,56.2751322 10.120211,57.8143365 11.0856492,58.7797747 C12.094971,59.7890965 13.7314049,59.7890965 14.7407266,58.7797747 L14.7407266,58.7797747 L20.0437172,53.4766201 L31.4147172,64.8466201 L21.4158433,74.8456951 L21.2899166,74.9807991 C20.4084296,75.99613 20.4504051,77.5353343 21.4158433,78.5007725 C22.4251651,79.5100942 24.061599,79.5100942 25.0709207,78.5007725 L25.0709207,78.5007725 L35.0697172,68.5016201 L46.4397172,79.8706201 L41.171028,85.1399793 L41.045096,85.2750783 C40.1635694,86.2903749 40.2054851,87.8295809 41.1708857,88.7950566 C42.1801682,89.8044177 43.8166021,89.8044813 44.8259631,88.7951989 L44.8259631,88.7951989 L50.0947172,83.5256201 L55.3656113,88.7951989 L55.5007202,88.9211203 C56.5160854,89.8025679 58.0552881,89.7605324 59.0206887,88.7950566 C60.0299712,87.7856956 60.0299075,86.1492617 59.0205465,85.1399793 L59.0205465,85.1399793 L53.7507172,79.8706201 L65.1197172,68.5016201 L75.1189307,78.5007725 L75.2540347,78.6266992 C76.2693656,79.5081862 77.8085699,79.4662106 78.7740081,78.5007725 C79.7833298,77.4914507 79.7833298,75.8550168 78.7740081,74.8456951 L78.7740081,74.8456951 L68.7757172,64.8466201 L80.1477172,53.4766201 L85.4508478,58.7797747 L85.5859518,58.9057015 C86.6012827,59.7871885 88.140487,59.7452129 89.1059252,58.7797747 C90.115247,57.770453 90.115247,56.1340191 89.1059252,55.1246974 L89.1059252,55.1246974 L83.8027172,49.8216201 L89.1058541,44.5187539 L89.2317861,44.3836548 C90.1133126,43.3683582 90.0713969,41.8291523 89.1059963,40.8636765 C88.0967139,39.8543155 86.46028,39.8542518 85.4509189,40.8635343 L85.4509189,40.8635343 L80.1467172,46.1656201 L68.7767172,34.7956201 L78.7740081,24.7976851 L78.8999348,24.6625811 C79.7814218,23.6472502 79.7394463,22.1080459 78.7740081,21.1426077 C77.7646863,20.133286 76.1282525,20.133286 75.1189307,21.1426077 L75.1189307,21.1426077 L65.1207172,31.1396201 L53.7507172,19.7696201 L59.0206176,14.4998838 L59.1465443,14.3647798 C60.0280314,13.3494489 59.9860558,11.8102446 59.0206176,10.8448064 C58.0112958,9.83548464 56.374862,9.83548464 55.3655402,10.8448064 L55.3655402,10.8448064 L50.0957172,16.1146201 L44.8260342,10.8448064 Z M50.0947172,53.4766201 L61.4647172,64.8466201 L50.0947172,76.2156201 L38.7247172,64.8466201 L50.0947172,53.4766201 Z M65.1217172,38.4506201 L76.4917172,49.8206201 L65.1197172,61.1916201 L53.7497172,49.8216201 L65.1217172,38.4506201 Z M35.0687172,38.4506201 L46.4397172,49.8216201 L35.0697172,61.1916201 L23.6987172,49.8206201 L35.0687172,38.4506201 Z M50.0957172,23.4246201 L61.4657172,34.7946201 L50.0947172,46.1656201 L38.7247172,34.7956201 L50.0957172,23.4246201 Z" fill="#00B077"></path>
    </g>
</svg>