<?xml version="1.0" encoding="UTF-8"?>
<svg width="100px" height="100px" viewBox="0 0 100 100" version="1.1" xmlns="http://www.w3.org/2000/svg" xmlns:xlink="http://www.w3.org/1999/xlink">
    <!-- Generator: Sketch 63.1 (92452) - https://sketch.com -->
    <title>Watermelon</title>
    <desc>Created with Sketch.</desc>
    <g id="Watermelon" stroke="none" stroke-width="1" fill="none" fill-rule="evenodd">
        <path d="M82.136517,1.44173399 C104.661654,23.9668706 104.946831,60.2290302 82.7482634,82.4275977 C60.5487669,104.6289 24.2899556,104.342062 1.76390093,81.8142037 C0.754619583,80.8048416 0.75468508,79.1684077 1.76404722,78.1591263 C2.77340937,77.149845 4.40984325,77.1499105 5.4191246,78.1592726 C25.9393332,98.6811239 58.9252758,98.942071 79.0931117,78.7725946 C99.2601295,58.6055768 99.0006894,25.6160612 78.4814396,5.09681137 C77.4721178,4.08748962 77.4721178,2.45105574 78.4814396,1.44173399 C79.4907613,0.432412245 81.1271952,0.432412245 82.136517,1.44173399 Z M75.1605259,11.9883394 C76.1259641,12.9537776 76.1679396,14.4929819 75.2864526,15.5083128 L75.1605259,15.6434168 L17.196,73.606 L17.6706373,74.0155396 C32.9079809,86.9117823 55.9717505,86.0567251 70.8941437,71.5987664 L71.3676069,71.1327239 C84.2577821,58.2425487 86.8391026,37.4373747 77.6996635,21.7212006 C76.9821,20.4872787 77.4006911,18.9052871 78.634613,18.1877235 C79.8685349,17.4701599 81.4505265,17.8887511 82.1680901,19.122673 C92.4804239,36.8557563 89.5803378,60.2301478 75.0226843,74.7878013 C57.3343769,92.4761087 28.967206,92.8102658 11.6529028,75.4959625 C10.6874646,74.5305243 10.645489,72.99132 11.526976,71.9759891 L11.6529028,71.8408852 L71.5054485,11.9883394 C72.5147703,10.9790177 74.1512041,10.9790177 75.1605259,11.9883394 Z M36.1465323,63.6136493 C36.4915439,63.0577143 37.3059496,63.074141 37.628263,63.6435361 L37.628263,63.6435361 L37.866116,64.0812649 L38.0974293,64.5261267 C38.4445894,65.2062249 38.7915717,65.9393953 39.1159709,66.699763 C39.5219201,67.6512776 39.863602,68.5786164 40.120302,69.4599595 C40.6390795,71.2411085 40.789963,72.7400669 40.4481612,73.9093068 C39.9925835,75.4677529 38.6990501,76.2891016 36.7317497,76.1864686 C33.1245131,75.9972518 32.3089893,73.2944817 33.4606573,69.4538805 C33.736822,68.5329216 34.1177778,67.5641584 34.5771583,66.571725 C34.9192471,65.8326854 35.2850883,65.1226737 35.6511364,64.465852 C35.6939298,64.3890652 35.7357311,64.3148061 35.7764309,64.2431892 L35.7764309,64.2431892 L36.0065388,63.8461082 Z M46.5703469,61.6482058 C46.6406692,60.997835 47.3816682,60.6600385 47.9187314,61.0335227 L47.9187314,61.0335227 L48.5920038,61.5257547 L48.9969926,61.8357638 C49.7980905,62.4581502 50.5993707,63.1329201 51.3499385,63.8383874 C52.4209601,64.845053 53.3002419,65.8314128 53.924617,66.7798642 C55.5876459,69.3060731 55.3334995,71.5567403 52.5440188,72.722144 C50.6159775,73.5282787 49.022966,73.1232452 47.973443,71.6897631 C47.1919051,70.6223061 46.7502515,69.0518882 46.5517837,67.0927752 C46.3993764,65.5883337 46.40346,63.9962271 46.5011753,62.4965086 C46.5084862,62.3843022 46.5158162,62.2803737 46.5229718,62.1853214 L46.5229718,62.1853214 Z M55.5695246,56.6060314 C55.3878011,55.978076 55.9442567,55.3844551 56.5826347,55.5252564 C56.662422,55.5428543 56.8061413,55.5763494 57.004764,55.6254773 L57.004764,55.6254773 L57.522888,55.7583855 L58.0892778,55.9137352 C59.2111069,56.2312702 60.3336773,56.6051346 61.3867605,57.0348255 C63.3680079,57.8432364 64.8778154,58.7519012 65.7554006,59.8141367 C66.9786191,61.2947293 66.8771066,62.9985887 65.3007658,64.574355 C63.7335086,66.141041 62.0088957,66.2984851 60.433328,65.1952901 C59.2846777,64.391018 58.2646913,62.9671196 57.3314025,61.0888837 C56.8433173,60.1066165 56.4099683,59.0596104 56.0347875,58.0132509 C55.9035989,57.6473728 55.7888891,57.3072656 55.6912677,57.0012742 L55.6912677,57.0012742 L55.6579499,56.8960912 Z M62.6697974,46.3246895 C64.1703105,46.2271837 65.763666,46.2233945 67.2693415,46.3762886 C69.228066,46.5751877 70.7983197,47.017025 71.8659046,47.7983342 C73.2994894,48.8474994 73.7055865,50.4397309 72.9008566,52.3672016 C71.7345308,55.156716 69.4841534,55.4123728 66.9583946,53.7509443 C66.0088352,53.12633 65.0213488,52.2461497 64.0135598,51.1737631 C63.3080513,50.4230327 62.6332775,49.6215795 62.0109132,48.8203085 C61.9019991,48.6800856 61.7985484,48.5447917 61.7009174,48.4152319 L61.7009174,48.4152319 L61.4258395,48.0445594 L61.2087166,47.7418099 C60.8352888,47.2046588 61.1732603,46.4636687 61.8236885,46.3935064 C61.9172958,46.3834089 62.0522866,46.3706928 62.2238953,46.3568982 L62.2238953,46.3568982 Z M69.6270121,33.2879347 C73.4655885,32.1387067 76.1672214,32.9548065 76.3582896,36.5599409 C76.4614382,38.5268764 75.6401932,39.8202201 74.0816005,40.2752134 C72.9124719,40.6165121 71.4135998,40.4651229 69.6324616,39.9458404 C68.7516775,39.689052 67.8249366,39.347393 66.874023,38.9415427 C66.1134936,38.6169485 65.3801372,38.269758 64.6998443,37.9223901 C64.6203295,37.8817886 64.5434081,37.842131 64.4692022,37.8035212 L64.4692022,37.8035212 L64.0575309,37.5852682 L63.8169953,37.4529488 C63.2475929,37.1305467 63.2313097,36.3160573 63.7873713,35.971155 L63.7873713,35.971155 L64.2098004,35.7200618 L64.6389667,35.4764016 C65.2953216,35.1108368 66.0048583,34.7454795 66.7434426,34.4038437 C67.7363524,33.9445683 68.7056009,33.5637952 69.6270121,33.2879347 Z" fill="#00B077"></path>
    </g>
</svg>