<?xml version="1.0" encoding="UTF-8"?>
<svg width="100px" height="100px" viewBox="0 0 100 100" version="1.1" xmlns="http://www.w3.org/2000/svg" xmlns:xlink="http://www.w3.org/1999/xlink">
    <!-- Generator: Sketch 63.1 (92452) - https://sketch.com -->
    <title>WebPage</title>
    <desc>Created with Sketch.</desc>
    <g id="WebPage" stroke="none" stroke-width="1" fill="none" fill-rule="evenodd">
        <path d="M96.467896,4.699164 C97.837987,4.699164 98.9586426,5.76712382 99.0428202,7.11600074 L99.047896,7.279164 L99.047896,23.976924 C99.047896,25.347015 97.9799362,26.4676706 96.6310593,26.5518482 L96.467896,26.556924 L6.167896,26.556164 L6.167896,80.964824 C6.167896,85.1341773 9.52389267,88.5703539 13.663505,88.7009726 L13.907896,88.704824 L86.147896,88.704824 C90.3172493,88.704824 93.7534259,85.3488273 93.8840446,81.209215 L93.887896,80.964824 L93.887896,33.976144 C93.887896,32.5512493 95.0430013,31.396144 96.467896,31.396144 C97.837987,31.396144 98.9586426,32.4641038 99.0428202,33.8129807 L99.047896,33.976144 L99.047896,80.964824 C99.047896,87.9628071 93.4156626,93.6964606 86.4557966,93.8611836 L86.147896,93.864824 L13.907896,93.864824 C6.90991286,93.864824 1.17625944,88.2325906 1.01153644,81.2727246 L1.007896,80.964824 L1.007896,7.280024 L1.01297184,7.11686074 L1.01297184,7.11686074 L1.007896,7.279164 C1.007896,7.13435763 1.01982575,6.99233761 1.04275605,6.85403313 C1.06388963,6.727586 1.09418279,6.60392001 1.13300527,6.48409409 C1.15761188,6.40718066 1.18605997,6.33173407 1.21784248,6.25806329 C1.23082494,6.22884962 1.24410416,6.19961435 1.2579066,6.17067659 C1.26455537,6.15586749 1.27162254,6.14139343 1.27882039,6.12699609 C1.29170715,6.10208818 1.30484986,6.07686594 1.31839276,6.05189234 C1.33308057,6.02394934 1.34820156,5.99722231 1.36378006,5.97079721 C1.37652913,5.95003382 1.38952075,5.92871397 1.40280991,5.90760027 C1.41552987,5.88652286 1.42877813,5.86611255 1.44230431,5.84590398 C1.4567175,5.82523711 1.47122199,5.80425331 1.48602623,5.78349807 C1.50446266,5.75678338 1.52357025,5.73101584 1.54314026,5.70562305 C1.55353616,5.69299909 1.56376248,5.67999475 1.57411025,5.667092 C1.59692679,5.63776995 1.62067739,5.60940929 1.64501642,5.58157628 C1.65373532,5.57246836 1.6622997,5.56282325 1.67093487,5.55324319 C1.69582157,5.52476587 1.72153924,5.49744201 1.74783584,5.47068902 C1.75900321,5.46019106 1.77001022,5.44919568 1.78111534,5.43829996 C1.80552989,5.41348062 1.83062447,5.38981661 1.85618538,5.3666579 C1.86888329,5.35601136 1.88186282,5.34448458 1.89495843,5.33308776 C1.9623476,5.2735887 2.03266146,5.21849531 2.10576427,5.16710102 C2.1126487,5.16312523 2.11861284,5.15897355 2.12459526,5.15484648 C2.24345065,5.07191903 2.37052178,4.99910271 2.50375126,4.93732102 C2.51573957,4.93262222 2.52770123,4.92718683 2.53971128,4.9218405 C2.81287949,4.79936258 3.11121826,4.72380491 3.42473274,4.70423984 L3.587896,4.699164 L96.467896,4.699164 Z M78.109992,60.819324 C79.5348867,60.819324 80.689992,61.9744293 80.689992,63.399324 C80.689992,64.769415 79.6220322,65.8900706 78.2731553,65.9742482 L78.109992,65.979324 L21.945112,65.979324 C20.5202173,65.979324 19.365112,64.8242187 19.365112,63.399324 C19.365112,62.029233 20.4330718,60.9085774 21.7819487,60.8243998 L21.945112,60.819324 L78.109992,60.819324 Z M78.109992,49.046268 C79.5348867,49.046268 80.689992,50.2013733 80.689992,51.626268 C80.689992,52.996359 79.6220322,54.1170146 78.2731553,54.2011922 L78.109992,54.206268 L21.945112,54.206268 C20.5202173,54.206268 19.365112,53.0511627 19.365112,51.626268 C19.365112,50.256177 20.4330718,49.1355214 21.7819487,49.0513438 L21.945112,49.046268 L78.109992,49.046268 Z M78.109992,37.266676 C79.5348867,37.266676 80.689992,38.4217813 80.689992,39.846676 C80.689992,41.216767 79.6220322,42.3374226 78.2731553,42.4216002 L78.109992,42.426676 L21.945112,42.426676 C20.5202173,42.426676 19.365112,41.2715707 19.365112,39.846676 C19.365112,38.476585 20.4330718,37.3559294 21.7819487,37.2717518 L21.945112,37.266676 L78.109992,37.266676 Z M93.887,9.859 L6.167896,9.859164 L6.167896,21.396164 L93.887,21.396 L93.887,9.859 Z M87.716708,13.129572 C89.1416027,13.129572 90.296708,14.2846773 90.296708,15.709572 C90.296708,17.079663 89.2287482,18.2003186 87.8798713,18.2844962 L87.716708,18.289572 L84.768628,18.289572 C83.3437333,18.289572 82.188628,17.1344667 82.188628,15.709572 C82.188628,14.339481 83.2565878,13.2188254 84.6054647,13.1346478 L84.768628,13.129572 L87.716708,13.129572 Z M76.195632,13.129572 C77.6205267,13.129572 78.775632,14.2846773 78.775632,15.709572 C78.775632,17.079663 77.7076722,18.2003186 76.3587953,18.2844962 L76.195632,18.289572 L73.247552,18.289572 C71.8226573,18.289572 70.667552,17.1344667 70.667552,15.709572 C70.667552,14.339481 71.7355118,13.2188254 73.0843887,13.1346478 L73.247552,13.129572 L76.195632,13.129572 Z M51.866232,72.595476 C53.2911267,72.595476 54.446232,73.7505813 54.446232,75.175476 C54.446232,76.545567 53.3782722,77.6662226 52.0293953,77.7504002 L51.866232,77.755476 L21.945112,77.755476 C20.5202173,77.755476 19.365112,76.6003707 19.365112,75.175476 C19.365112,73.805385 20.4330718,72.6847294 21.7819487,72.6005518 L21.945112,72.595476 L51.866232,72.595476 Z" id="Web-page" fill="#00B077"></path>
    </g>
</svg>