<?xml version="1.0" encoding="UTF-8"?>
<svg width="100px" height="100px" viewBox="0 0 100 100" version="1.1" xmlns="http://www.w3.org/2000/svg" xmlns:xlink="http://www.w3.org/1999/xlink">
    <!-- Generator: Sketch 63.1 (92452) - https://sketch.com -->
    <title>Wheat</title>
    <desc>Created with Sketch.</desc>
    <g id="Wheat" stroke="none" stroke-width="1" fill="none" fill-rule="evenodd">
        <path d="M58.9439603,81.9051187 C69.0584558,83.4935506 78.4621379,87.8175672 86.242648,94.3467181 C87.3360606,95.2642744 87.4786203,96.8944868 86.561064,97.9878994 C85.6435077,99.0813121 84.0132953,99.2238718 82.9198826,98.3063155 C75.8542646,92.3770788 67.320363,88.4530061 58.1420138,87.0115914 C56.7319003,86.79014 55.7682993,85.4674953 55.9897507,84.0573818 C56.2112021,82.6472683 57.5338468,81.6836673 58.9439603,81.9051187 Z M44.3808618,84.0573818 C44.6023132,85.4674953 43.6387122,86.79014 42.2285987,87.0115914 C33.0502495,88.4530061 24.5163479,92.3770788 17.4507299,98.3063155 C16.3573172,99.2238718 14.7271048,99.0813121 13.8095485,97.9878994 C12.8919922,96.8944868 13.0345519,95.2642744 14.1279645,94.3467181 C21.9084746,87.8175672 31.3121567,83.4935506 41.4266522,81.9051187 C42.8367657,81.6836673 44.1594104,82.6472683 44.3808618,84.0573818 Z M50.1853063,39.1818693 C51.5578029,39.1818693 52.6804262,40.2517042 52.7647515,41.6029495 L52.7698363,41.7663993 L52.7698363,89.3269203 C52.7698363,90.7543168 51.6127028,91.9114503 50.1853063,91.9114503 C48.8128096,91.9114503 47.6901863,90.8416154 47.605861,89.4903701 L47.6007763,89.3269203 L47.6007763,41.7663993 C47.6007763,40.3390028 48.7579097,39.1818693 50.1853063,39.1818693 Z M11.2962279,46.9287395 C12.6687246,46.9287395 13.7913479,47.9985745 13.8756732,49.3498198 L13.8807579,49.5132695 L13.8807579,89.1616827 C13.8807579,90.5890792 12.7236245,91.7462127 11.2962279,91.7462127 C9.92373131,91.7462127 8.80110801,90.6763778 8.71678269,89.3251325 L8.71169795,89.1616827 L8.71169795,49.5132695 C8.71169795,48.085873 9.86883144,46.9287395 11.2962279,46.9287395 Z M89.0743846,46.9287395 C90.4468812,46.9287395 91.5695045,47.9985745 91.6538298,49.3498198 L91.6589146,49.5132695 L91.6589146,89.1616827 C91.6589146,90.5890792 90.5017811,91.7462127 89.0743846,91.7462127 C87.7018879,91.7462127 86.5792646,90.6763778 86.4949393,89.3251325 L86.4898546,89.1616827 L86.4898546,49.5132695 C86.4898546,48.085873 87.6469881,46.9287395 89.0743846,46.9287395 Z M20.6365471,33.1564683 C22.0090437,33.1564683 23.131667,34.2263033 23.2159923,35.5775486 L23.2210771,35.7409983 L23.2210771,83.2308756 C23.2210771,84.6582721 22.0639436,85.8154056 20.6365471,85.8154056 C19.2640504,85.8154056 18.1414271,84.7455706 18.0571018,83.3943253 L18.0520171,83.2308756 L18.0520171,35.7409983 C18.0520171,34.3136018 19.2091506,33.1564683 20.6365471,33.1564683 Z M79.7340654,33.1564683 C81.1065621,33.1564683 82.2291854,34.2263033 82.3135107,35.5775486 L82.3185954,35.7409983 L82.3185954,83.2308756 C82.3185954,84.6582721 81.1614619,85.8154056 79.7340654,85.8154056 C78.3615688,85.8154056 77.2389455,84.7455706 77.1546202,83.3943253 L77.1495354,83.2308756 L77.1495354,35.7409983 C77.1495354,34.3136018 78.3066689,33.1564683 79.7340654,33.1564683 Z M33.6104574,15.3215955 C34.6068865,15.4915827 35.3083818,15.8160517 35.8716816,16.3921951 L35.976,16.505 L36.1003567,16.5710392 C37.1632236,17.1766569 37.6629545,18.4606667 37.269112,19.6348078 L37.2098365,19.7941629 C36.8231232,20.7391025 35.9408509,21.3318257 34.9863463,21.3948747 L34.805,21.4 L34.7115401,21.7930665 C34.0960586,24.48579 33.879938,27.2253293 34.2514054,29.753007 L34.3335891,30.2556411 C35.1593082,34.8332107 37.8787121,38.0857823 43.2964932,39.7679804 C44.6596901,40.1912473 45.421654,41.6394624 44.9983871,43.0026593 C44.5751202,44.3658563 43.1269051,45.1278201 41.7637082,44.7045533 C38.002051,43.5365746 35.1054291,41.6901083 33.0213786,39.2982403 L33.0335795,39.0312334 C32.9000795,41.962829 32.9282272,43.8057462 33.2454219,45.7571351 C34.0896262,50.9506973 36.7698027,53.865644 42.7596505,54.4017748 C44.1813634,54.5290275 45.2307308,55.7847122 45.1034781,57.2064251 C44.9762254,58.6281379 43.7205407,59.6775053 42.2988279,59.5502526 C37.7374688,59.141981 34.3476064,57.5713504 31.9978929,55.0682426 C32.2280774,55.4120082 32.3772416,55.8171464 32.4177365,56.2584125 L32.5779533,57.9451729 L32.6051019,58.2071417 C33.4366857,66.121532 35.4645165,68.9746664 42.58593,69.13186 C44.0129789,69.1633598 45.144295,70.3457471 45.1127952,71.772796 C45.0812954,73.1998449 43.8989081,74.331161 42.4718592,74.2996612 C36.9146346,74.1769945 33.003666,72.3590206 30.5796477,68.9484551 C28.8000625,66.4445994 28.0062235,63.5711051 27.5174311,59.2351412 L27.4219477,58.3352535 C27.380715,57.925016 27.3397665,57.4876888 27.2703062,56.7307914 C27.1398623,55.3093677 28.1864082,54.0513306 29.6078319,53.9208868 C30.3276554,53.8548287 31.0055782,54.0906112 31.5163792,54.5240643 C29.7574054,52.4225778 28.6555693,49.7378029 28.1433261,46.5864716 C27.7753295,44.3225491 27.7258931,42.2985657 27.8467968,39.3299981 L27.8914943,38.327331 C27.9548614,36.9562979 29.0753861,35.8842652 30.4290837,35.8624157 L30.5925939,35.8648827 C30.6488063,35.8674808 30.704516,35.8718559 30.7596714,35.8779513 C30.0520311,34.4308795 29.5502681,32.8565517 29.2466272,31.1732463 C28.5874944,27.5191871 28.9053208,23.6999156 29.8236724,20.00759 L29.9835415,19.3885616 C30.2759444,18.297797 30.5606319,17.4534502 30.7729654,16.9174459 C31.2228401,15.781804 32.4063503,15.1161791 33.6104574,15.3215955 Z M69.5978194,16.9174459 L69.7204248,17.2400191 C69.956932,17.8861009 70.2540408,18.8292661 70.5471124,20.00759 C71.465464,23.6999156 71.7832905,27.5191871 71.1241576,31.1732463 C70.8205167,32.8565517 70.3187537,34.4308795 69.6119269,35.878621 C69.6662688,35.8718559 69.7219785,35.8674808 69.7781909,35.8648827 C71.2040653,35.7989809 72.4133887,36.9014566 72.4792905,38.327331 L72.500914,38.7960867 C72.6496055,42.0612803 72.6171021,44.1893772 72.2274587,46.5864716 C71.7148121,49.7402846 70.6116435,52.4268062 68.8510708,54.5289802 C69.3229263,54.1248478 69.9392505,53.8917294 70.5997224,53.9110132 L70.7629529,53.9208868 C72.1843766,54.0513306 73.2309225,55.3093677 73.1004787,56.7307914 L72.9350429,58.4713971 L72.9064433,58.7472936 C72.422012,63.3577466 71.6366329,66.351864 69.7911371,68.9484551 C67.3671188,72.3590206 63.4561502,74.1769945 57.8989256,74.2996612 C56.4718767,74.331161 55.2894894,73.1998449 55.2579896,71.772796 C55.2264898,70.3457471 56.3578059,69.1633598 57.7848548,69.13186 C64.7983681,68.9770481 66.8714804,66.2073717 67.7270462,58.5634092 L67.8611756,57.2481727 C67.8862914,56.983202 67.9153285,56.6694381 67.9530483,56.2584125 C67.993541,55.8171705 68.1426911,55.4120525 68.3716562,55.0670521 C66.0231784,57.5713504 62.633316,59.141981 58.071957,59.5502526 C56.6502441,59.6775053 55.3945594,58.6281379 55.2673067,57.2064251 C55.1400541,55.7847122 56.1894214,54.5290275 57.6111343,54.4017748 C63.6009821,53.865644 66.2811586,50.9506973 67.1253629,45.7571351 C67.4073138,44.0225672 67.4608818,42.3737053 67.3755436,39.9697527 L67.347654,39.300251 C65.2637322,41.6911431 62.3676797,43.5369019 58.6070766,44.7045533 C57.2438797,45.1278201 55.7956646,44.3658563 55.3723977,43.0026593 C54.9491308,41.6394624 55.7110947,40.1912473 57.0742916,39.7679804 C62.4920727,38.0857823 65.2114766,34.8332107 66.0371957,30.2556411 C66.517888,27.5908092 66.3157583,24.665305 65.6592447,21.7930665 L65.5308793,21.2552226 L65.456,20.964 L65.1776574,21.0628696 L64.8070855,21.2072293 C63.4860351,21.7478647 61.9768406,21.1152133 61.4362052,19.7941629 C60.8955699,18.4731125 61.5282213,16.963918 62.8492717,16.4232826 C64.0570913,15.9289866 65.3609094,15.5603311 66.7603274,15.3215955 C67.9644345,15.1161791 69.1479447,15.781804 69.5978194,16.9174459 Z M48.521365,1.30596024 C49.3874173,0.577286836 50.6268341,0.496879824 51.5797759,1.10754621 C51.907395,1.3174918 52.4183202,1.68525128 53.0524228,2.20843849 C54.085249,3.0606058 55.1142455,4.06129603 56.077695,5.21127345 C62.7720721,13.2017099 62.7720721,23.3514818 52.0286485,34.2831651 C51.1163094,35.2114914 49.6559792,35.3165214 48.620183,34.5283091 C48.2993854,34.284191 47.7889197,33.8567911 47.1511416,33.2579106 C46.1072947,32.2777271 45.0664043,31.1520649 44.0916854,29.8897185 C41.2415789,26.1985807 39.5048796,22.0942077 39.5048796,17.6625301 C39.5048796,11.9867921 42.4018203,6.45478265 48.521365,1.30596024 Z M50.291,6.652 L50.0852604,6.85030217 C42.9195641,13.7954525 43.2666058,20.3633917 48.1830305,26.7305925 C48.7517866,27.4671815 49.3513216,28.1502615 49.9585732,28.7725794 L49.9585732,28.7725794 L50.028,28.843 L50.3637599,28.4556781 C57.0331128,20.6113983 56.7435732,14.210823 52.2911904,8.74362172 L52.2911904,8.74362172 L52.1154283,8.53085528 C51.5813392,7.89336435 51.0183319,7.31210342 50.4484579,6.79127261 L50.4484579,6.79127261 L50.291,6.652 Z" fill="#00B077"></path>
    </g>
</svg>