<?xml version="1.0" encoding="UTF-8"?>
<svg width="100px" height="100px" viewBox="0 0 100 100" version="1.1" xmlns="http://www.w3.org/2000/svg" xmlns:xlink="http://www.w3.org/1999/xlink">
    <!-- Generator: Sketch 63.1 (92452) - https://sketch.com -->
    <title>WhiskeyGlass</title>
    <desc>Created with Sketch.</desc>
    <g id="WhiskeyGlass" stroke="none" stroke-width="1" fill="none" fill-rule="evenodd">
        <path d="M87.323448,2.68370887 C88.7508445,2.68370887 89.907978,3.84084237 89.907978,5.26823887 C89.907978,6.64073551 88.8381431,7.7633588 87.4868978,7.84768412 L87.323448,7.85276887 L14.031,7.852 L13.3126275,15.5370764 C12.7242095,21.8822043 12.1357956,28.3603617 11.5746615,34.7143675 L10.9947063,41.3524572 L10.2568956,50.0526379 C10.0006939,53.1363329 9.76622564,56.0345451 9.55503444,58.7320494 L83.386175,58.7307926 C84.8135715,58.7307926 85.970705,59.8879261 85.970705,61.3153226 C85.970705,62.6878193 84.9008701,63.8104426 83.5496248,63.8947679 L83.386175,63.8998526 L9.16074337,63.9008844 C8.56383051,71.9651324 8.23683003,77.6877372 8.23683003,80.5056302 C8.23683003,87.7820154 12.31096,92.1471268 20.4023897,92.2777325 L20.7786926,92.2807489 L78.2052262,92.2807489 C86.4170183,92.2807489 90.6103977,88.027951 90.7355846,80.8394852 L90.7435271,78.6348144 C90.7256931,77.6008825 90.6287487,76.2226261 90.228256,71.9943122 L87.3269492,42.4739977 L86.8608527,37.5267947 C85.9912363,28.0892169 85.4323102,20.684977 85.1737703,14.6574586 C85.1126009,13.2313734 86.2190838,12.0257153 87.645169,11.9645458 C89.0712542,11.9033764 90.2769123,13.0098593 90.3380818,14.4359445 L90.4123999,16.0386016 C90.6834861,21.493042 91.1883849,28.0843244 91.9338027,36.2426267 L92.326586,40.4543544 C92.4220767,41.4595435 92.5207224,42.4862128 92.6239718,43.5500048 L94.7613666,65.070016 L95.1481203,69.1735228 C95.657722,74.750367 95.9075337,78.359984 95.9075337,80.5056302 C95.9075337,90.5851767 89.5964109,97.2959825 78.5867302,97.4471993 L78.2052262,97.4498089 L20.7786926,97.4498089 C9.5310921,97.4498089 3.06777003,90.6997663 3.06777003,80.5056302 L3.07439816,79.7207517 C3.15706068,74.4582549 4.00936567,62.5336829 5.43186489,45.735469 L5.8448053,40.9078215 C5.92593925,39.9683253 6.00834863,39.0190464 6.09197426,38.0605423 C6.53187611,33.018455 6.9926947,27.8645239 7.46048372,22.7301758 L8.78645285,8.41789314 L9.10838314,5.02190292 C9.23004626,3.75123788 10.2580655,2.76861026 11.5158419,2.68893064 L11.681147,2.68370887 L87.323448,2.68370887 Z M55.9320913,67.860731 C57.3594878,67.860731 58.5166213,69.0178645 58.5166213,70.445261 C58.5166213,71.8177577 57.4467863,72.9403809 56.095541,73.0247063 L55.9320913,73.029791 L52.2775658,73.029791 C50.8501693,73.029791 49.6930358,71.8726575 49.6930358,70.445261 C49.6930358,69.0727644 50.7628708,67.9501411 52.1141161,67.8658158 L52.2775658,67.860731 L55.9320913,67.860731 Z M77.8440812,67.860731 C79.2714777,67.860731 80.4286112,69.0178645 80.4286112,70.445261 C80.4286112,71.8177577 79.3587762,72.9403809 78.0075309,73.0247063 L77.8440812,73.029791 L65.9724734,73.029791 C64.5450769,73.029791 63.3879434,71.8726575 63.3879434,70.445261 C63.3879434,69.0727644 64.4577784,67.9501411 65.8090237,67.8658158 L65.9724734,67.860731 L77.8440812,67.860731 Z M68.9660996,37.9386974 L69.0414875,38.0910629 L75.2478056,51.7235971 C75.8392333,53.0227022 75.2655475,54.5552819 73.9664425,55.1467096 C72.7193016,55.7144803 71.2569905,55.2084823 70.6187436,54.017729 L70.5433299,53.8653465 L65.47,42.721 L50.273,50.704 L50.6602759,52.1082598 C51.0241009,53.4293787 50.2936555,54.7935038 49.0170946,55.2358212 L48.8547198,55.28624 C47.5336009,55.650065 46.1694758,54.9196196 45.7271584,53.6430587 L45.6767396,53.4806839 L44.7376937,50.0708273 C44.431245,48.958053 44.9004028,47.7852253 45.8702504,47.1862894 L46.027505,47.0965822 L65.4872929,36.8739046 C66.7511536,36.2099692 68.3017884,36.698812 68.9660996,37.9386974 Z M29.3152672,35.7657413 L29.4926021,35.7810009 L47.0708521,37.9003155 C48.4879862,38.0711717 49.498294,39.3584922 49.3274378,40.7756262 C49.163153,42.1382551 47.9666342,43.1247503 46.6150103,43.0467283 L46.4521271,43.0322119 L30.895,41.156 L26.2260602,53.696292 C25.7479212,54.9804676 24.3573028,55.6591194 23.0633222,55.2707039 L22.9021509,55.2165609 C21.6179754,54.7384219 20.9393235,53.3478036 21.327739,52.0538229 L21.381882,51.8926517 L26.7611504,37.445129 C27.1570038,36.3819545 28.1958657,35.7079312 29.3152672,35.7657413 Z" id="Whiskey" fill="#00B077"></path>
    </g>
</svg>