<?xml version="1.0" encoding="UTF-8"?>
<svg width="100px" height="100px" viewBox="0 0 100 100" version="1.1" xmlns="http://www.w3.org/2000/svg" xmlns:xlink="http://www.w3.org/1999/xlink">
    <!-- Generator: Sketch 63.1 (92452) - https://sketch.com -->
    <title>WhiteHouse</title>
    <desc>Created with Sketch.</desc>
    <g id="WhiteHouse" stroke="none" stroke-width="1" fill="none" fill-rule="evenodd">
        <path d="M82.673766,75.301904 C84.0518227,75.301904 85.1789937,76.3760729 85.2636607,77.7327921 L85.268766,77.896904 L85.268766,79.723784 C85.268766,81.1569629 84.1069449,82.318784 82.673766,82.318784 C81.2957093,82.318784 80.1685383,81.2446151 80.0838713,79.8878959 L80.078766,79.723784 L80.078766,77.896904 C80.078766,76.4637251 81.2405871,75.301904 82.673766,75.301904 Z M74.628747,75.301904 C76.0068037,75.301904 77.1339747,76.3760729 77.2186417,77.7327921 L77.223747,77.896904 L77.223747,79.723784 C77.223747,81.1569629 76.0619259,82.318784 74.628747,82.318784 C73.2506903,82.318784 72.1235193,81.2446151 72.0388523,79.8878959 L72.033747,79.723784 L72.033747,77.896904 C72.033747,76.4637251 73.1955681,75.301904 74.628747,75.301904 Z M82.673766,63.982687 C84.0518227,63.982687 85.1789937,65.0568559 85.2636607,66.4135751 L85.268766,66.577687 L85.268766,68.404567 C85.268766,69.8377459 84.1069449,70.999567 82.673766,70.999567 C81.2957093,70.999567 80.1685383,69.9253981 80.0838713,68.5686789 L80.078766,68.404567 L80.078766,66.577687 C80.078766,65.1445081 81.2405871,63.982687 82.673766,63.982687 Z M74.628747,63.982687 C76.0068037,63.982687 77.1339747,65.0568559 77.2186417,66.4135751 L77.223747,66.577687 L77.223747,68.404567 C77.223747,69.8377459 76.0619259,70.999567 74.628747,70.999567 C73.2506903,70.999567 72.1235193,69.9253981 72.0388523,68.5686789 L72.033747,68.404567 L72.033747,66.577687 C72.033747,65.1445081 73.1955681,63.982687 74.628747,63.982687 Z M16.746234,63.982687 C18.1242907,63.982687 19.2514617,65.0568559 19.3361287,66.4135751 L19.341234,66.577687 L19.341234,68.404567 C19.341234,69.8377459 18.1794129,70.999567 16.746234,70.999567 C15.3681773,70.999567 14.2410063,69.9253981 14.1563393,68.5686789 L14.151234,68.404567 L14.151234,66.577687 C14.151234,65.1445081 15.3130551,63.982687 16.746234,63.982687 Z M24.791426,63.982687 C26.1694827,63.982687 27.2966537,65.0568559 27.3813207,66.4135751 L27.386426,66.577687 L27.386426,68.404567 C27.386426,69.8377459 26.2246049,70.999567 24.791426,70.999567 C23.4133693,70.999567 22.2861983,69.9253981 22.2015313,68.5686789 L22.196426,68.404567 L22.196426,66.577687 C22.196426,65.1445081 23.3582471,63.982687 24.791426,63.982687 Z M92.681816,52.722463 C93.2969005,52.722463 93.889637,52.9408419 94.3562069,53.3349215 L94.5069149,53.4727302 L98.2454449,57.1714702 C99.2642627,58.1794445 99.2730531,59.8224841 98.2650788,60.8413019 C97.3009295,61.8158232 95.7557374,61.8662364 94.7315729,60.9866451 L94.5952471,60.8609358 L91.614,57.912 L74.132756,57.912463 C72.7546993,57.912463 71.6275283,56.8382941 71.5428613,55.4815749 L71.537756,55.317463 C71.537756,53.9394063 72.6119249,52.8122353 73.9686441,52.7275683 L74.132756,52.722463 L92.681816,52.722463 Z M25.286552,52.722463 C26.7197309,52.722463 27.881552,53.8842841 27.881552,55.317463 C27.881552,56.6955197 26.8073831,57.8226907 25.4506639,57.9073577 L25.286552,57.912463 L7.807,57.912 L4.82536414,60.8613579 C3.85061979,61.8252818 2.30496897,61.8588012 1.2904806,60.9680671 L1.15553711,60.8408751 C0.191613231,59.8661308 0.158093845,58.32048 1.04882787,57.3059916 L1.17601986,57.1710481 L4.91627986,53.4723081 C5.35349793,53.0399435 5.92830027,52.7784607 6.53695543,52.7304877 L6.740952,52.722463 L25.286552,52.722463 Z M49.9587742,6.93881605 L50.1061743,6.96215263 L62.2161743,9.31643648 C63.1375069,9.49555114 63.8169076,10.2676093 63.889553,11.1900325 L63.896,11.3542839 L63.896,18.7485428 C63.896,20.0039192 62.795007,20.9596627 61.5710048,20.8097001 L61.4235967,20.7863457 L55.2947868,19.5941398 C54.1693394,19.3752123 53.4344598,18.285381 53.6533873,17.1599336 C53.8623635,16.0856429 54.8648698,15.3672208 55.9344225,15.4945395 L56.0875934,15.5185341 L59.744,16.229 L59.744,13.065 L51.786,11.518 L51.786,21.11 C51.786,22.2066934 50.9356085,23.1047673 49.8582594,23.1807875 L49.71,23.186 C48.6133066,23.186 47.7152327,22.3356085 47.6392125,21.2582594 L47.634,21.11 L47.634,9 C47.634,7.74471507 48.7348417,6.78899592 49.9587742,6.93881605 Z M24.791426,75.301904 C26.1694827,75.301904 27.2966537,76.3760729 27.3813207,77.7327921 L27.386426,77.896904 L27.386426,79.723784 C27.386426,81.1569629 26.2246049,82.318784 24.791426,82.318784 C23.4133693,82.318784 22.2861983,81.2446151 22.2015313,79.8878959 L22.196426,79.723784 L22.196426,77.896904 C22.196426,76.4637251 23.3582471,75.301904 24.791426,75.301904 Z M16.746234,75.301904 C18.1242907,75.301904 19.2514617,76.3760729 19.3361287,77.7327921 L19.341234,77.896904 L19.341234,79.723784 C19.341234,81.1569629 18.1794129,82.318784 16.746234,82.318784 C15.3681773,82.318784 14.2410063,81.2446151 14.1563393,79.8878959 L14.151234,79.723784 L14.151234,77.896904 C14.151234,76.4637251 15.3130551,75.301904 16.746234,75.301904 Z M48.0482012,28.529426 C49.010851,27.7265087 50.409841,27.7265087 51.3724908,28.529426 L51.3724908,28.529426 L71.7242108,45.504186 C73.5876507,47.0584254 72.4886003,50.091998 70.062066,50.091998 L70.062066,50.091998 L68.778,50.0913281 L68.778,87.2943281 L88.542,87.2943281 L88.542099,63.844114 C88.542099,62.4109351 89.7039201,61.249114 91.137099,61.249114 C92.5151557,61.249114 93.6423267,62.3232829 93.7269937,63.6800021 L93.732099,63.844114 L93.732,87.2943281 L96.42,87.295302 C97.8531789,87.295302 99.015,88.4571231 99.015,89.890302 C99.015,91.2683587 97.9408311,92.3955297 96.5841119,92.4801967 L96.42,92.485302 L91.1703249,92.4857856 C91.1592661,92.4859244 91.1481907,92.485994 91.137099,92.485994 L91.103,92.4843281 L66.2169498,92.4854422 C66.2059578,92.4855793 66.1949495,92.485648 66.183925,92.485648 L66.155,92.4843281 L55.2323429,92.4854396 C55.2212841,92.4855784 55.2102087,92.485648 55.199117,92.485648 L55.17,92.4843281 L44.2458049,92.4854396 C44.2347461,92.4855784 44.2236707,92.485648 44.212579,92.485648 L44.183,92.4843281 L33.2609969,92.4854396 C33.2499381,92.4855784 33.2388627,92.485648 33.227771,92.485648 L33.198,92.4843281 L8.30955285,92.4857856 C8.2984941,92.4859244 8.28741868,92.485994 8.276327,92.485994 L8.242,92.4843281 L3,92.485302 C1.56682107,92.485302 0.405,91.3234809 0.405,89.890302 C0.405,88.5122453 1.47916889,87.3850743 2.83588812,87.3004073 L3,87.295302 L5.681,87.2943281 L5.681327,63.844114 C5.681327,62.4109351 6.84314807,61.249114 8.276327,61.249114 C9.65438366,61.249114 10.7815547,62.3232829 10.8662217,63.6800021 L10.871327,63.844114 L10.871,87.2943281 L30.632,87.2943281 L30.632,50.0913281 L29.358626,50.091998 C26.9872403,50.091998 25.8836838,47.1947481 27.5739999,45.6123962 L27.6964812,45.504186 Z M41.617,50.0913281 L35.822,50.0913281 L35.822,87.2943281 L41.617,87.2943281 L41.617,50.0913281 Z M52.604,50.0913281 L46.807,50.0913281 L46.807,87.2943281 L52.604,87.2943281 L52.604,50.0913281 Z M63.588,50.0913281 L57.794,50.0913281 L57.794,87.2943281 L63.588,87.2943281 L63.588,50.0913281 Z M49.71,33.901 L36.521,44.901 L62.898,44.901 L49.71,33.901 Z" id="White-House" fill="#00B077"></path>
    </g>
</svg>