<?xml version="1.0" encoding="UTF-8"?>
<svg width="100px" height="100px" viewBox="0 0 100 100" version="1.1" xmlns="http://www.w3.org/2000/svg" xmlns:xlink="http://www.w3.org/1999/xlink">
    <!-- Generator: Sketch 63.1 (92452) - https://sketch.com -->
    <title>Wifi</title>
    <desc>Created with Sketch.</desc>
    <g id="Wifi" stroke="none" stroke-width="1" fill="none" fill-rule="evenodd">
        <path d="M51.4721521,81.6408212 C52.8150609,82.9850388 52.8150609,85.1616531 51.4721521,86.5044948 C50.1278673,87.8487124 47.9470165,87.8487124 46.6054836,86.5044948 C45.2625748,85.1616531 45.2653266,82.9877905 46.6054836,81.6408212 C47.9483924,80.2966036 50.1278673,80.2966036 51.4721521,81.6408212 Z M49.90286,61.058456 C56.8870609,61.058456 63.4524568,63.8361428 68.3176862,68.6797403 C69.3274813,69.6850456 69.331121,71.3186072 68.3258157,72.3284022 C67.3205104,73.3381973 65.6869488,73.341837 64.6771538,72.3365317 C60.7678038,68.4445636 55.5061315,66.218456 49.90286,66.218456 C44.2873673,66.218456 39.0258564,68.4439841 35.1280866,72.3370197 C34.1199219,73.34396 32.4863565,73.3429673 31.4794163,72.3348026 C30.472476,71.3266379 30.4734687,69.6930725 31.4816334,68.6861323 C36.3369091,63.8367537 42.9052574,61.058456 49.90286,61.058456 Z M49.9011567,40.303732 C62.5683446,40.3055029 74.4527174,45.3319956 83.2399132,54.1116985 C84.2478955,55.1188214 84.2485923,56.7523869 83.2414695,57.7603692 C82.2343466,58.7683515 80.6007811,58.7690483 79.5927988,57.7619255 C71.7632257,49.9390286 61.1858018,45.4653097 49.9011564,45.463732 C38.6080571,45.4653097 28.0321749,49.9384422 20.2040224,57.7632565 C19.1962549,58.7705943 17.5626893,58.7702459 16.5553515,57.7624784 C15.5480137,56.7547109 15.5483621,55.1211453 16.5561296,54.1138075 C25.3420981,45.3315857 37.2253276,40.3055028 49.9011567,40.303732 Z M49.8993934,19.549008 C68.2478085,19.5524887 85.4502585,26.8279318 98.1600635,39.5414166 C99.1674704,40.5491151 99.1672339,42.1826807 98.1595354,43.1900875 C97.1518369,44.1974944 95.5182713,44.1972579 94.5108645,43.1895594 C82.7592063,31.4344989 66.8647027,24.7122264 49.8993932,24.709008 C32.9272545,24.712226 17.0371827,31.4324403 5.2797995,43.1898235 C4.27224682,44.1973762 2.63868118,44.1973762 1.6311285,43.1898235 C0.623575832,42.1822708 0.623575832,40.5487052 1.6311285,39.5411525 C14.3465356,26.8257455 31.5442879,19.5524882 49.8993934,19.549008 Z" fill="#00B077"></path>
    </g>
</svg>