<?xml version="1.0" encoding="UTF-8"?>
<svg width="100px" height="100px" viewBox="0 0 100 100" version="1.1" xmlns="http://www.w3.org/2000/svg" xmlns:xlink="http://www.w3.org/1999/xlink">
    <!-- Generator: Sketch 63.1 (92452) - https://sketch.com -->
    <title>WineBottle</title>
    <desc>Created with Sketch.</desc>
    <g id="WineBottle" stroke="none" stroke-width="1" fill="none" fill-rule="evenodd">
        <path d="M49.4952467,48.8833334 C46.1357572,48.8833334 43.4594305,49.1756368 41.2474642,49.9666191 C37.9592094,51.1424739 35.9161261,53.4554032 35.9161261,56.8436858 C35.9161261,63.8124535 41.7806215,71.0155253 49.4952467,71.0155253 C57.3057724,71.0155253 63.0743674,63.8680629 63.0743674,56.8436858 C63.0743674,53.4552386 61.030527,51.1424266 57.7415804,49.9665631 C55.5294479,49.1756819 52.8530497,48.8833334 49.4952467,48.8833334 Z M56.4379835,17.8648381 C57.9276726,17.8648381 59.1089471,19.1208643 59.0176559,20.6077534 C58.5511701,28.2055585 59.8475301,31.9033445 64.1327574,38.2105029 L64.7406655,39.0971167 C69.6136848,46.1875539 71.4400913,50.7218009 71.4454758,59.1317289 L71.4463492,59.1690736 L71.4463492,89.4666573 C71.4463492,94.5947316 67.3333611,98.7961348 62.2387653,98.9394864 L61.9697392,98.9432673 L37.0221327,98.9432673 C31.8940584,98.9432673 27.6926551,94.8302791 27.5493035,89.7356834 L27.5455227,89.4666573 L27.5455227,59.1690736 C27.5455227,50.9146531 29.2933013,46.3928769 33.942979,39.5469477 L34.5806569,38.616694 C39.087518,32.0589315 40.4497655,28.3672139 39.9733545,20.6077534 C39.8854445,19.1759343 40.9775817,17.9581938 42.388824,17.8699549 L42.5530269,17.8648381 L56.4379835,17.8648381 Z M49.4950744,23.0338981 L45.23,23.033 L45.2321895,23.2750499 C45.2425551,30.3545722 43.435067,34.7819993 39.1312886,41.1190596 L38.5103316,42.0248625 C34.2672666,48.1986911 32.7821655,51.7921651 32.7168526,58.6829009 L32.7145827,59.1690736 L32.7145827,89.4666573 C32.7145827,91.7603975 34.5461964,93.6594741 36.8147369,93.7692003 L37.0221327,93.7742073 L61.9697392,93.7742073 C64.2634795,93.7742073 66.1625561,91.9425936 66.2722823,89.6740531 L66.2772892,89.4666573 L66.2766378,59.2023681 C66.2764979,59.1912866 66.2764277,59.1801883 66.2764277,59.1690736 C66.2764277,52.121798 64.88776,48.5084729 60.7722486,42.451482 L60.1503461,41.5444094 C55.637174,34.9774642 53.7482249,30.5118949 53.7588209,23.2750499 L53.76,23.033 L49.495936,23.0338981 L49.4950744,23.0338981 Z M49.4952467,54.0523934 C55.155128,54.0523934 57.9053074,55.0356369 57.9053074,56.8436858 C57.9053074,61.2278558 54.1777064,65.8464653 49.4952467,65.8464653 C44.8967135,65.8464653 41.0851861,61.1649533 41.0851861,56.8436858 C41.0851861,55.0744203 43.7151299,54.0955102 49.1301197,54.053785 L49.4952467,54.0523934 Z M56.5861633,0.73078266 C57.9586599,0.73078266 59.0812832,1.80061762 59.1656085,3.15186291 L59.1706933,3.31531266 L59.1706933,12.1561283 C59.1706933,13.5835248 58.0135598,14.7406583 56.5861633,14.7406583 C55.2136666,14.7406583 54.0910433,13.6708233 54.006718,12.319578 L54.0016333,12.1561283 L54.001,5.899 L44.988,5.899 L44.9885156,12.1561283 C44.9885156,13.5286249 43.9186807,14.6512482 42.5674354,14.7355735 L42.4039856,14.7406583 C41.031489,14.7406583 39.9088657,13.6708233 39.8245404,12.319578 L39.8194556,12.1561283 L39.8194556,3.31531266 C39.8194556,1.94281602 40.8892906,0.820192726 42.2405359,0.735867409 L42.4039856,0.73078266 L56.5861633,0.73078266 Z" id="Path-2" fill="#00B077"></path>
    </g>
</svg>