<?xml version="1.0" encoding="UTF-8"?>
<svg width="100px" height="100px" viewBox="0 0 100 100" version="1.1" xmlns="http://www.w3.org/2000/svg" xmlns:xlink="http://www.w3.org/1999/xlink">
    <!-- Generator: Sketch 63.1 (92452) - https://sketch.com -->
    <title>WineGlass</title>
    <desc>Created with Sketch.</desc>
    <g id="WineGlass" stroke="none" stroke-width="1" fill="none" fill-rule="evenodd">
        <path d="M70.386098,93.6103889 C71.8134945,93.6103889 72.970628,94.7675224 72.970628,96.1949189 C72.970628,97.5674155 71.900793,98.6900388 70.5495477,98.7743641 L70.386098,98.7794489 L29.6108297,98.7794489 C28.1834331,98.7794489 27.0262997,97.6223154 27.0262997,96.1949189 C27.0262997,94.8224222 28.0961346,93.6997989 29.4473799,93.6154736 L29.6108297,93.6103889 L70.386098,93.6103889 Z M24.139,5.736 L23.9130571,6.23754417 L23.744616,6.61857138 C22.9256281,8.48615301 22.1050947,10.5695746 21.3393122,12.8112009 C19.2078112,19.0506077 17.9144478,25.2651464 17.8662029,30.992628 C17.7318663,46.9406539 26.9664342,56.2053477 50.0010483,56.2053477 C67.292974,56.2056923 76.8054324,50.8776046 80.4298091,41.4854546 C83.225504,34.2407372 82.4673309,24.8408383 79.2781342,14.6869033 C78.8504117,13.3250978 79.6076357,11.8743988 80.9694412,11.4466763 C82.3312468,11.0189539 83.7819458,11.7761779 84.2096682,13.1379834 C87.7171203,24.305197 88.5613002,34.7714161 85.2522592,43.3464104 C80.9868274,54.3997801 70.3062836,60.776767 52.5857968,61.3347489 L52.5855783,86.8304775 C52.5855783,88.257874 51.4284448,89.4150075 50.0010483,89.4150075 C48.6285517,89.4150075 47.5059284,88.3451725 47.4216031,86.9939272 L47.4165183,86.8304775 L47.4156343,61.334566 C23.3299775,60.5794399 12.5441266,49.1364752 12.6973263,30.9490885 C12.7508698,24.5925647 14.1518283,17.8610376 16.447806,11.1401686 C17.2628243,8.75441749 18.1360062,6.53731595 19.0107335,4.54262871 C19.3184388,3.84095193 19.6051294,3.21572775 19.8637542,2.67377167 L20.1678375,2.04987922 C20.1816957,2.02231011 20.1942168,1.99759864 20.2053681,1.97577654 C20.6195059,1.16534543 21.4266617,0.636561613 22.3258439,0.573629383 L22.5068182,0.56730887 L77.4970015,0.56730887 C78.924398,0.56730887 80.0815315,1.72444237 80.0815315,3.15183887 C80.0815315,4.52433551 79.0116965,5.6469588 77.6604512,5.73128412 L77.4970015,5.73636887 L50.0010483,5.73636887 L24.139,5.736 Z M74.2074117,33.6985712 C75.6348082,33.6985712 76.7919417,34.8557047 76.7919417,36.2831012 C76.7919417,37.6555979 75.7221067,38.7782212 74.3708615,38.8625465 L74.2074117,38.8676312 L29.974,38.867 L30.0924451,39.0515053 C32.95335,43.4061931 39.1128744,45.9081883 49.6473754,45.9853124 L50.1523295,45.9871499 C57.1805771,45.9871499 62.4012124,44.8803577 65.981027,42.8594682 C67.2240347,42.1577612 68.8005374,42.5965721 69.5022444,43.8395798 C70.2039514,45.0825874 69.7651406,46.6590902 68.5221329,47.3607972 C64.080833,49.8680153 58.0045394,51.1562099 50.1523295,51.1562099 C34.626173,51.1562099 25.9548754,46.0333147 23.5921993,36.9325494 C23.1814295,35.3503099 24.3222216,33.8050938 25.9262585,33.7038375 L26.0938012,33.6985712 L74.2074117,33.6985712 Z M31.0402216,10.5874163 C32.3709995,11.103644 33.0313229,12.6009379 32.5150952,13.9317157 C32.3083344,14.4647223 32.1062925,15.0214116 31.9092272,15.5992445 C31.2255762,17.6038393 30.6312153,19.7686401 30.1322783,21.935732 C29.9922966,22.5437311 29.868128,23.11645 29.7599434,23.6441019 L29.5797868,24.558025 C29.5605459,24.6606115 29.5460115,24.7407022 29.5362031,24.7968048 C29.2903811,26.2028746 27.9512582,27.1434413 26.5451884,26.8976193 C25.1391186,26.6517973 24.1985519,25.3126744 24.4443739,23.9066045 L24.5478299,23.3505601 L24.6117386,23.0244553 C24.7467787,22.3444055 24.9078625,21.5888035 25.0950011,20.7759824 C25.6306804,18.4493031 26.2701152,16.1203327 27.0168579,13.9307411 C27.2363039,13.2872836 27.4625858,12.6638053 27.6959222,12.06229 C28.2121499,10.7315121 29.7094437,10.0711887 31.0402216,10.5874163 Z" id="Wine-Glass" fill="#00B077"></path>
    </g>
</svg>