<?xml version="1.0" encoding="UTF-8"?>
<svg width="99px" height="99px" viewBox="0 0 99 99" version="1.1" xmlns="http://www.w3.org/2000/svg" xmlns:xlink="http://www.w3.org/1999/xlink">
    <!-- Generator: Sketch 63.1 (92452) - https://sketch.com -->
    <title>WitchHat</title>
    <desc>Created with Sketch.</desc>
    <g id="WitchHat" stroke="none" stroke-width="1" fill="none" fill-rule="evenodd">
        <path d="M69.2990092,53.6929639 C69.5328206,52.2789858 70.868618,51.3222717 72.2825961,51.5560832 L73.3048788,51.7305115 C89.015716,54.495485 98.447613,60.1130527 98.447613,68.656967 C98.447613,82.3777709 75.3906344,95.484077 49.142613,95.484077 C22.9227995,95.484077 -0.162387,82.36994 -0.162387,68.656967 C-0.162387,60.0239574 9.46555391,54.3838103 25.4846956,51.6415638 C26.8973258,51.3997419 28.2385242,52.3488695 28.4803462,53.7614996 C28.7221681,55.1741298 27.7730405,56.5153282 26.3604104,56.7571502 C12.6241682,59.1085971 5.027613,63.5587375 5.027613,68.656967 C5.027613,72.9150298 9.39347876,78.2534454 16.9430479,82.5421733 C25.4985323,87.4023374 36.8887149,90.294077 49.142613,90.294077 C61.4149224,90.294077 72.8064664,87.4029885 81.357142,82.5425177 C88.898709,78.2556557 93.257613,72.9181235 93.257613,68.656967 C93.257613,63.4913667 85.4591893,58.9954041 71.4358899,56.6765508 C70.0219118,56.4427394 69.0651977,55.106942 69.2990092,53.6929639 Z M63.3844261,3.97364134 C65.5724139,2.76859936 68.0327481,5.04764915 66.9983664,7.32129634 L66.9983664,7.32129634 L57.899,27.321 L70.5574781,65.4585284 C70.9121172,66.5270312 70.5362249,67.6943993 69.6438608,68.3578101 L69.6438608,68.3578101 L69.490388,68.4636089 C69.2481776,68.6181484 68.8654287,68.8432851 68.3504107,69.1203468 L68.3504107,69.1203468 L67.876767,69.370109 C66.6444621,70.0076646 65.2340402,70.6414762 63.6627358,71.2313127 C52.7103387,75.3426251 40.6353309,75.2699594 28.8481104,68.1965963 C27.8326043,67.5872038 27.3585251,66.3675793 27.6958697,65.2323213 L27.6958697,65.2323213 L42.1742397,16.5086013 C42.368521,15.8547912 42.8123999,15.3037569 43.4098461,14.9747113 L43.4098461,14.9747113 Z M34.1173881,61.8389307 L33.258,64.731 L33.4461935,64.8310116 C42.9318391,69.8181818 52.5234099,69.7508516 61.3886414,66.5384171 L61.3886414,66.5384171 L61.8387858,66.3723718 C62.8682093,65.9859467 63.8142582,65.5798574 64.6685308,65.1704316 L64.6685308,65.1704316 L64.947,65.033 L63.9831447,62.1270855 C55.614506,66.296935 42.5849444,65.9684059 34.1173881,61.8389307 Z M59.034,12.294 L46.846,19.006 L35.621613,56.7751469 L35.6889141,56.8126056 C42.8740363,60.7114952 55.34146,61.0487909 62.3260477,57.1346216 L52.6532419,27.9902176 C52.4700769,27.438354 52.4781829,26.8430979 52.6724971,26.2994451 L52.6724971,26.2994451 L52.7540836,26.0981797 L59.034,12.294 Z" id="Witch-Hat" fill="#00B077"></path>
    </g>
</svg>