<?xml version="1.0" encoding="UTF-8"?>
<svg width="100px" height="100px" viewBox="0 0 100 100" version="1.1" xmlns="http://www.w3.org/2000/svg" xmlns:xlink="http://www.w3.org/1999/xlink">
    <!-- Generator: Sketch 63.1 (92452) - https://sketch.com -->
    <title>Woman</title>
    <desc>Created with Sketch.</desc>
    <g id="Woman" stroke="none" stroke-width="1" fill="none" fill-rule="evenodd">
        <path d="M49.754204,1 C69.3452993,1 80.9783196,11.6190964 85.1777699,29.0927336 C88.0025054,40.8462725 87.0283103,55.6466009 83.9471795,64.6495589 C86.4930647,66.8538915 88.3360142,69.2058679 89.3057235,71.7432294 C90.6400384,75.2076698 91.219868,77.8266249 91.3611652,80.6883362 L91.391439,81.4700103 C91.4021965,81.8794069 91.4045081,82.299174 91.3992172,82.8366617 L91.3324927,86.4179828 C91.3264134,86.8499568 91.32368,87.2370208 91.32368,87.656868 C91.32368,89.0817627 90.1685747,90.236868 88.74368,90.236868 C87.3187853,90.236868 86.16368,89.0817627 86.16368,87.656868 L86.1668918,86.8805517 C86.1705313,86.4520898 86.1773802,86.0123039 86.1880279,85.4810342 L86.236274,83.0458481 C86.248449,82.1225284 86.2397221,81.5965459 86.2074435,80.9428015 C86.0940542,78.6463125 85.6331634,76.5645764 84.4881229,73.5915477 C83.454203,70.8861877 80.4726024,68.0358519 76.1387553,65.3455529 C74.0630731,64.0570427 71.8240709,62.8931837 69.5836308,61.8793636 L69.1199099,61.6717332 L68.75816,61.513724 L68.7366728,61.5550385 C59.6399424,77.9316619 40.7168179,77.8595003 31.5360931,62.0087555 L31.25516,61.512724 L30.8928444,61.6722135 L30.4289738,61.8799508 C28.1878091,62.8942927 25.9480818,64.0587365 23.871721,65.3478801 C22.6680603,66.0951931 21.568658,66.8548511 20.5862576,67.620353 C20.5500954,67.65255 20.5107001,67.6831704 20.4702783,67.7127228 C17.9785351,69.6726484 16.2578479,71.6697647 15.520727,73.5944471 C13.902214,77.8142217 13.3045536,83.8125015 13.1840553,92.661186 L13.17016,93.879724 L89.50908,93.879828 C90.879171,93.879828 91.9998266,94.9477878 92.0840042,96.2966647 L92.08908,96.459828 C92.08908,97.829919 91.0211202,98.9505746 89.6722433,99.0347522 L89.50908,99.039828 L10.58,99.039828 C9.15510535,99.039828 8,97.8847227 8,96.459828 L8.00561665,94.4786154 C8.06790187,83.9207964 8.66643945,77.0561513 10.702493,71.747769 C11.6516786,69.2693679 13.430181,66.9695498 15.8796882,64.8110929 C12.776308,55.7834505 11.7305295,40.9547299 14.4853075,29.1819644 C18.5869199,11.6533931 30.1580819,1 49.754204,1 Z M49.754204,6.16 C32.7268067,6.16 23.0971568,15.0258725 19.5095905,30.3576256 C17.136338,40.4999117 17.8604335,53.3159691 20.2528211,61.5357509 C20.54669,61.3428778 20.845768,61.1529525 21.1499679,60.9640849 C23.4354452,59.5451079 25.8691158,58.2798321 28.301349,57.1790134 C28.9820075,56.8709502 29.6246401,56.5932095 30.2194683,56.3467859 L31.1491241,55.9714821 C31.3379434,55.897491 31.4856836,55.8413119 31.5887563,55.8033337 C32.852666,55.337633 34.262136,55.9226102 34.8248431,57.146418 C41.8620149,72.451263 58.0499103,72.6700462 65.1886072,57.1463085 C65.7513235,55.9226315 67.160642,55.3376985 68.424476,55.8032719 L69.177484,56.0955736 L69.3564929,56.1676145 C70.0691755,56.4558494 70.8603479,56.7933825 71.7109181,57.1782734 C74.1424296,58.2785551 76.5753791,59.5432302 78.860185,60.9615569 C79.0974441,61.108839 79.3315865,61.2567645 79.5625485,61.4053478 C81.9304479,53.2220044 82.5948487,40.4271388 80.1606281,30.2985064 C76.4862639,15.0097181 66.7915642,6.16 49.754204,6.16 Z M36.1652215,20.9537372 C38.9309845,26.2224438 43.0589753,29.1850146 48.1697994,30.3034249 C52.0020663,31.1420464 56.1959588,30.8445893 59.2122905,29.9019857 C60.5723239,29.4769752 62.0193879,30.2349611 62.4443983,31.5949945 C62.8694088,32.9550279 62.1114229,34.4020919 60.7513895,34.8271023 C56.9200797,36.0243867 51.8262367,36.3856739 47.0667306,35.3441431 C42.0498886,34.246299 37.6961586,31.7074434 34.3597653,27.5821221 L34.22616,27.413724 L34.1818494,27.5470079 C33.2560988,30.3771219 32.9844786,33.4289435 33.4014628,36.1339885 L33.4691792,36.5370734 C35.2467991,46.2846059 41.7844393,53.3560539 52.8255984,59.6673795 C54.0626524,60.3745019 54.4922469,61.9505683 53.7851245,63.1876224 C53.0780021,64.4246764 51.5019357,64.8542709 50.2648816,64.1471485 C38.0325241,57.1549123 30.4977981,49.0049652 28.3927675,37.4620833 C27.4114644,32.0723342 28.554382,25.7117723 31.7049162,20.76663 C32.7699431,19.0949422 35.2439427,19.198725 36.1652215,20.9537372 Z M71.6877089,27.2523257 C74.7099464,38.8641895 68.9998884,51.5812434 57.2154849,56.7607078 C55.911026,57.3340417 54.3887742,56.7413478 53.8154402,55.4368889 C53.2421063,54.13243 53.8348002,52.6101782 55.1392591,52.0368442 C64.5442066,47.903195 69.0935595,37.7711848 66.6940751,28.5520263 C66.3351727,27.1730725 67.1620878,25.7642616 68.5410417,25.4053591 C69.9199955,25.0464567 71.3288064,25.8733718 71.6877089,27.2523257 Z" fill="#00B077"></path>
    </g>
</svg>