<?xml version="1.0" encoding="UTF-8"?>
<svg width="100px" height="100px" viewBox="0 0 100 100" version="1.1" xmlns="http://www.w3.org/2000/svg" xmlns:xlink="http://www.w3.org/1999/xlink">
    <!-- Generator: Sketch 63.1 (92452) - https://sketch.com -->
    <title>Wreath</title>
    <desc>Created with Sketch.</desc>
    <g id="Wreath" stroke="none" stroke-width="1" fill="none" fill-rule="evenodd">
        <path d="M13.3218388,28.3627944 C14.5691731,29.0685982 15.0081703,30.6519295 14.3023666,31.8992638 C10.7984788,38.0915223 8.931598,45.0924291 8.931598,52.374313 C8.931598,75.3644091 27.5653019,93.998113 50.557128,93.998113 C73.5478698,93.998113 92.177468,75.3654936 92.177468,52.374313 C92.177468,45.2671997 90.3968687,38.4218675 87.0487671,32.3295571 C86.3585138,31.0735507 86.8171474,29.4957954 88.0731539,28.8055421 C89.3291603,28.1152888 90.9069156,28.5739224 91.5971689,29.8299289 C95.3634422,36.6831576 97.367468,44.3874302 97.367468,52.374313 C97.367468,78.2316631 76.4144161,99.188113 50.557128,99.188113 C24.6989441,99.188113 3.741598,78.2307669 3.741598,52.374313 C3.741598,44.1909771 5.84305729,36.3103879 9.78536945,29.3433222 C10.4911732,28.0959879 12.0745045,27.6569907 13.3218388,28.3627944 Z M54.7306567,81.2575838 C56.6226125,80.9891399 58.3739625,82.3052563 58.6424064,84.1972121 C58.9108503,86.0891678 57.5947339,87.8405178 55.7027781,88.1089617 L55.7027781,88.1089617 L54.7126946,88.2494417 C52.8207388,88.5178856 51.0693888,87.2017692 50.8009449,85.3098134 C50.532501,83.4178576 51.8486174,81.6665076 53.7405732,81.3980637 L53.7405732,81.3980637 Z M38.9275805,83.2190187 C39.3488793,81.355134 41.2013865,80.185687 43.0652712,80.6069857 L43.0652712,80.6069857 L44.0406648,80.8274565 C45.9045495,81.2487552 47.0739965,83.1012624 46.6526977,84.9651471 C46.231399,86.8290318 44.3788918,87.9984788 42.5150071,87.5771801 L42.5150071,87.5771801 L41.5396135,87.3567093 C39.6757288,86.9354106 38.5062818,85.0829034 38.9275805,83.2190187 Z M64.7953807,77.8814468 C66.4665331,76.9547275 68.5725241,77.5582097 69.4992435,79.229362 C70.4259628,80.9005143 69.8224806,83.0065054 68.1513283,83.9332247 L68.1513283,83.9332247 L67.2767939,84.4181883 C65.6056416,85.3449076 63.4996505,84.7414254 62.5729312,83.0702731 C61.6462118,81.3991207 62.249694,79.2931297 63.9208464,78.3664103 L63.9208464,78.3664103 Z M28.5797798,76.9870211 C29.6433299,75.3994381 31.792498,74.9746254 33.3800811,76.0381755 L33.3800811,76.0381755 L34.2108826,76.5947443 C35.7984657,77.6582944 36.2232783,79.8074624 35.1597282,81.3950455 C34.0961781,82.9826286 31.9470101,83.4074412 30.359427,82.3438911 L30.359427,82.3438911 L29.5286254,81.7873224 C27.9410424,80.7237723 27.5162297,78.5746042 28.5797798,76.9870211 Z M73.075904,71.0571153 C74.3055848,69.5944315 76.4881776,69.4055453 77.9508614,70.6352261 C79.4135452,71.8649069 79.6024315,74.0474997 78.3727506,75.5101835 L78.3727506,75.5101835 L77.7292437,76.2756237 C76.4995629,77.7383076 74.3169701,77.9271938 72.8542863,76.697513 C71.3916025,75.4678322 71.2027162,73.2852394 72.4323971,71.8225556 L72.4323971,71.8225556 Z M21.1594473,67.5202661 C22.7173419,66.4136843 24.8773268,66.7795456 25.9839086,68.3374402 L25.9839086,68.3374402 L26.5629963,69.1527054 C27.6695781,70.7106 27.3037168,72.8705849 25.7458223,73.9771667 C24.1879277,75.0837485 22.0279428,74.7178872 20.921361,73.1599926 L20.921361,73.1599926 L20.3422732,72.3447274 C19.2356914,70.7868328 19.6015527,68.6268479 21.1594473,67.5202661 Z M78.3383209,61.8094732 C78.9659794,60.0045899 80.9379442,59.0502607 82.7428274,59.6779193 C84.5477107,60.3055778 85.5020399,62.2775426 84.8743814,64.0824258 L84.8743814,64.0824258 L84.54592,65.0269432 C83.9182615,66.8318265 81.9462967,67.7861557 80.1414135,67.1584972 C78.3365302,66.5308386 77.382201,64.5588739 78.0098595,62.7539906 L78.0098595,62.7539906 Z M17.5976414,55.9096716 C19.4501538,55.4408895 21.3319348,56.5626246 21.8007169,58.4151369 L21.8007169,58.4151369 L22.0460363,59.3845793 C22.5148184,61.2370917 21.3930833,63.1188726 19.5405709,63.5876547 C17.6880585,64.0564368 15.8062775,62.9347018 15.3374955,61.0821894 L15.3374955,61.0821894 L15.0921761,60.112747 C14.623394,58.2602346 15.7451291,56.3784537 17.5976414,55.9096716 Z M83.318752,47.6596199 C85.2290421,47.6111354 86.8169426,49.120427 86.8654271,51.030717 L86.8654271,51.030717 L86.8907996,52.0303951 C86.9392842,53.9406851 85.4299926,55.5285857 83.5197025,55.5770702 C81.6094125,55.6255547 80.021512,54.1162631 79.9730274,52.2059731 L79.9730274,52.2059731 L79.9476549,51.206295 C79.8991704,49.2960049 81.408462,47.7081044 83.318752,47.6596199 Z M45.3917466,27.4140397 C46.7414224,27.8960946 47.4447682,29.3810057 46.9627133,30.7306816 C46.5935079,31.7643973 46.0240457,32.8015399 45.2760674,33.8539502 C43.8731752,35.8278286 41.8531927,37.8452207 39.3651921,39.8939657 C38.5505178,40.5648095 37.7092318,41.2194729 36.8547437,41.8532777 L36.561,42.067 L38.8320689,42.7484144 C39.9518781,43.0841766 40.7017452,44.1234611 40.6814473,45.2782977 L40.6725764,45.4523163 L40.553,46.861 L40.7911019,46.7032181 C48.275978,41.6670403 53.1646489,34.8618116 53.6974986,30.2729639 L53.7226088,30.0203335 C53.9468567,27.2964953 57.6498669,26.7528707 58.688541,29.196201 L58.7524401,29.3597917 C58.89036,29.7456337 59.1088567,30.1754665 59.4075813,30.6404081 C60.4559037,32.2720405 62.3553527,34.140948 64.8427608,36.0763524 C66.3591177,37.2562006 67.994452,38.3857098 69.6307184,39.4205332 L70.2972778,39.8366315 C70.4047115,39.902801 70.5102384,39.9673534 70.6137429,40.0302477 L71.4607774,40.534851 C71.6087261,40.6210754 71.7169287,40.6828903 71.7811321,40.7188188 C73.7284581,41.8085503 73.4700237,44.655622 71.4286079,45.4123259 L71.2591889,45.4690236 L65.77,47.114 L66.1329275,51.390205 C66.299672,53.359608 64.3013865,54.7640171 62.5235889,53.9940445 L62.3760007,53.9248124 C59.3218494,52.3801437 56.5383867,50.5715364 54.0475907,48.5470451 C52.9354378,47.6430995 52.7666523,46.0087287 53.6705979,44.8965757 C54.5745435,43.7844228 56.2089143,43.6156373 57.3210673,44.5195829 C58.2394134,45.2660045 59.2041944,45.9802192 60.2141662,46.6590567 L60.541,46.875 L60.4216705,45.453013 C60.3230206,44.2878687 61.0149035,43.2087381 62.0969379,42.8039945 L62.2621191,42.7484144 L64.326,42.129 L63.8433788,41.7935669 C63.3477963,41.4431318 62.8572213,41.0857744 62.3741952,40.7222667 L61.6556358,40.1724889 C59.9707481,38.8615102 58.4984039,37.5588685 57.2801202,36.2630072 L57.216,36.193 L57.1180178,36.3992482 C54.1336109,42.5472685 47.6657952,49.2675524 39.2017823,53.6773598 L38.7205652,53.9244846 C36.9570969,54.8169967 34.9062569,53.4904763 34.9540406,51.5536796 L34.9629316,51.3909017 L35.323,47.114 L29.8349991,45.4690236 C27.7373288,44.8400609 27.3332001,42.0806782 29.0874764,40.8601489 L29.2386723,40.7620789 L29.6710897,40.4932962 L30.388079,40.0329596 C30.6935505,39.8337161 31.0169099,39.6189891 31.3550947,39.3899896 C32.9648139,38.2999794 34.5737031,37.1163743 36.0660601,35.8874924 C38.2314325,34.1044157 39.9521567,32.3858982 41.0456856,30.847296 C41.4743778,30.2441233 41.7920383,29.6877774 41.9951033,29.1931617 L42.0751047,28.9850064 C42.5571596,27.6353306 44.0420707,26.9319848 45.3917466,27.4140397 Z M28.2321974,1.47882616 L29.6188968,2.10508981 L32.7081817,3.46604116 L38.0660419,5.79090373 C39.3822984,6.3578875 39.989704,7.8845554 39.4227203,9.20081192 C38.8784159,10.4644182 37.4496665,11.0747474 36.1716979,10.619921 L35.8705919,10.4961825 L32.0778636,8.85316762 L27.8717528,7.00825756 C27.1230982,6.67581034 26.5116636,6.40065774 26.0575915,6.19127637 C25.1133726,5.7552353 23.7733231,5.62528821 22.8985689,5.95556768 C21.9517291,6.31306435 21.3620591,7.24770637 21.3181005,9.39500032 L21.315457,9.658537 L21.315457,22.270237 C21.315457,24.4991638 21.9353702,25.390479 23.0912901,25.732852 C24.171528,26.0528086 25.7714624,25.8535678 26.8049515,25.3776576 L28.3361865,24.6879013 C28.7720093,24.4947583 29.2566351,24.2818166 29.7855965,24.0509083 L32.3134102,22.9556749 L36.0254364,21.3676153 C37.3446744,20.8076038 38.8681072,21.4230784 39.4281187,22.7423164 C39.9657298,24.0087849 39.4200128,25.4634393 38.2083179,26.0732476 L37.3552112,26.4421272 L33.6812318,28.0178558 L30.2067967,29.5359301 C29.7215796,29.7517582 29.3090344,29.9379545 28.9783361,30.0906706 C26.8725852,31.0603488 24.0076024,31.4171269 21.6173539,30.709157 C18.2697273,29.7176205 16.2267885,26.8734821 16.1291244,22.5938913 L16.125457,22.270237 L16.125457,9.658537 C16.125457,5.28255856 17.9260868,2.2854025 21.0653101,1.10013132 C23.3618917,0.233014933 26.1119486,0.499693062 28.2321974,1.47882616 Z M80.0360355,1.11416437 C83.0865846,2.26595499 84.8706748,5.13226868 84.9624617,9.31640286 L84.966187,9.658537 L84.966187,22.270237 C84.966187,26.7235078 82.9099235,29.6802585 79.4856102,30.694731 C77.0991678,31.4017282 74.2376197,31.0452007 72.1355103,30.0758783 L70.908904,29.5219935 L68.1053049,28.2941496 L66.0517576,27.4084636 L63.0625476,26.1311913 C61.7509353,25.5744168 61.1390183,24.05979 61.6957927,22.7481776 C62.2302962,21.4890298 63.6475564,20.8747212 64.9205127,21.3201895 L65.3262209,21.4866148 L68.7907585,22.9694507 L71.9315786,24.332953 C72.9169727,24.7653633 73.7176792,25.1228844 74.2975463,25.3906677 C75.3339657,25.8685801 76.9364936,26.0682431 78.0198988,25.747278 C79.137399,25.4162122 79.7573842,24.5737904 79.8034223,22.522268 L79.806187,22.270237 L79.806187,9.658537 C79.806187,7.31750278 79.2043138,6.31568224 78.2133735,5.94153463 C77.33451,5.60970361 75.9903854,5.74004587 75.0414463,6.17826628 L73.7641546,6.7562115 C73.255444,6.9835422 72.6666439,7.24435093 72.0063262,7.53502492 L69.7574373,8.52004972 L65.0917627,10.5435395 C63.783211,11.1074696 62.2652646,10.5038345 61.7013345,9.19528274 C61.1599616,7.93907307 61.6946168,6.48988526 62.8959783,5.87703092 L63.0748363,5.7939746 L66.9653862,4.10808875 L71.2463841,2.22907809 C71.9215001,1.92887794 72.4724841,1.68069674 72.8794103,1.49305566 C74.9975815,0.51488249 77.7435632,0.248599538 80.0360355,1.11416437 Z M50.553495,5.876238 C56.4899647,5.876238 61.431735,10.358855 61.431735,15.984628 C61.431735,21.6105267 56.4897658,26.094748 50.553495,26.094748 C44.6172242,26.094748 39.675255,21.6105267 39.675255,15.984628 C39.675255,10.358855 44.6170253,5.876238 50.553495,5.876238 Z M50.553495,11.066238 C47.3765802,11.066238 44.865255,13.3442292 44.865255,15.984628 C44.865255,18.6255575 47.3771046,20.904748 50.553495,20.904748 C53.7298854,20.904748 56.241735,18.6255575 56.241735,15.984628 C56.241735,13.3442292 53.7304098,11.066238 50.553495,11.066238 Z M72.443704,49.778621 C73.8768829,49.778621 75.038704,50.9404421 75.038704,52.373621 C75.038704,65.8980366 64.0813563,76.856581 50.557474,76.856581 C37.0292992,76.856581 26.071054,65.898934 26.071054,52.373621 C26.071054,50.9404421 27.2328751,49.778621 28.666054,49.778621 C30.0992329,49.778621 31.261054,50.9404421 31.261054,52.373621 C31.261054,63.0325128 39.8955937,71.666581 50.557474,71.666581 C61.2148715,71.666581 69.848704,63.0318056 69.848704,52.373621 C69.848704,50.9404421 71.0105251,49.778621 72.443704,49.778621 Z M14.5653227,47.0797623 C14.7769862,45.1806158 16.4881358,43.8126406 18.3872823,44.0243041 C20.2864287,44.2359676 21.654404,45.9471172 21.4427405,47.8462637 L21.4427405,47.8462637 L21.3319744,48.8401102 C21.1203109,50.7392567 19.4091613,52.1072319 17.5100148,51.8955684 C15.6108683,51.6839049 14.2428931,49.9727553 14.4545566,48.0736088 L14.4545566,48.0736088 Z" fill="#00B077"></path>
    </g>
</svg>