<?xml version="1.0" encoding="UTF-8"?>
<svg width="100px" height="100px" viewBox="0 0 100 100" version="1.1" xmlns="http://www.w3.org/2000/svg" xmlns:xlink="http://www.w3.org/1999/xlink">
    <!-- Generator: Sketch 63.1 (92452) - https://sketch.com -->
    <title>X-out</title>
    <desc>Created with Sketch.</desc>
    <g id="X-out" stroke="none" stroke-width="1" fill="none" fill-rule="evenodd">
        <path d="M58.7788981,55.1385163 L58.9137595,55.2642285 L96.2618395,92.6157485 C97.2693458,93.6233476 97.2692706,95.2569132 96.2616715,96.2644195 C95.2978811,97.2281212 93.7613727,97.2699524 92.7478619,96.3899637 L92.6130005,96.2642515 L55.2649205,58.9127315 C54.2574142,57.9051324 54.2574894,56.2715668 55.2650885,55.2640605 C56.2288789,54.3003588 57.7653873,54.2585276 58.7788981,55.1385163 Z M6.68946832,3.0499585 L6.8243355,3.1756645 L49.719,46.07 L92.6130494,3.17569959 C93.6205827,2.16812754 95.2541484,2.16809612 96.2617204,3.17562942 C97.225485,4.13935692 97.2674165,5.6758626 96.387494,6.68943082 L96.2617906,6.82430041 L51.5588672,51.5296896 C51.5540468,51.5345861 51.5492029,51.5394681 51.5443355,51.5443355 L51.529,51.558 L6.82523058,96.2643004 C5.81769728,97.2718725 4.18413164,97.2719039 3.17655959,96.2643706 C2.21279502,95.3006431 2.17086347,93.7641374 3.05078601,92.7505692 L3.17648942,92.6156996 L46.07,49.719 L3.1756645,6.8243355 C2.16811183,5.81678282 2.16811183,4.18321718 3.1756645,3.1756645 C4.13941054,2.21191847 5.67591703,2.17001647 6.68946832,3.0499585 Z" fill="#00B077"></path>
    </g>
</svg>