<?xml version="1.0" encoding="UTF-8"?>
<svg width="100px" height="100px" viewBox="0 0 100 100" version="1.1" xmlns="http://www.w3.org/2000/svg" xmlns:xlink="http://www.w3.org/1999/xlink">
    <!-- Generator: Sketch 63.1 (92452) - https://sketch.com -->
    <title>Bacon</title>
    <desc>Created with Sketch.</desc>
    <g id="Bacon" stroke="none" stroke-width="1" fill="none" fill-rule="evenodd">
        <path d="M64.1438023,3.7700298 C66.983078,0.109467341 71.4535587,-0.219289082 74.373304,2.63248331 L74.373304,2.63248331 L74.4785684,2.74150794 L82.3136395,11.346246 C82.4675128,11.4799543 82.6039602,11.6306629 82.7209675,11.7944673 L98.4974672,29.1243902 C99.2151995,29.912763 99.3751825,31.0609538 98.9002995,32.0154995 C96.8986625,36.0389196 94.7173314,39.0253194 92.268621,41.2120102 C89.5750828,43.6173314 87.5147821,44.6125505 83.2077456,45.9707586 L83.2077456,45.9707586 L81.6132219,46.4666536 C78.695047,47.3943939 77.3612733,48.0770195 75.9505911,49.4880858 C73.6180331,51.8200092 72.6694145,53.3963306 71.2152575,56.9627482 L71.2152575,56.9627482 L70.5164495,58.6981594 C70.1237765,59.6546596 69.8115286,60.3467508 69.4442963,61.0513574 L69.4442963,61.0513574 L69.2162755,61.4778386 C68.3595137,63.0424435 67.3247208,64.4421641 65.9725308,65.7947985 C64.6077708,67.1591103 63.1953378,68.2006072 61.6138856,69.062457 C60.6856598,69.5683156 59.8708197,69.9385559 58.567236,70.4666764 L58.567236,70.4666764 L57.5230978,70.8848421 C53.6807952,72.430166 52.0764855,73.3611255 49.6627237,75.7742303 C48.2438964,77.1930576 47.5667524,78.5120482 46.6504489,81.3998042 L46.6504489,81.3998042 L46.1741729,82.9313484 C44.3626737,88.6464713 42.7008921,91.4656209 38.1759561,94.9533142 C36.5379377,96.2158526 34.6109353,97.4146344 32.3545942,98.5631198 C31.4045746,99.046683 30.2551266,98.8973576 29.4601962,98.1871069 L29.4601962,98.1871069 L19.0017033,88.8430573 C18.9861027,88.8296209 18.9706473,88.8159827 18.9553415,88.8021441 L3.07903694,74.6161933 L2.92391038,74.4654537 C0.178605911,71.5647546 0.176837649,66.6463335 3.67101581,64.1519877 L3.67101581,64.1519877 L4.11089641,63.8309855 C6.27245319,62.2190081 7.870882,60.5002227 9.11160582,58.5706404 C10.1439845,56.965078 10.6639431,55.855679 11.7232813,53.034232 L11.7232813,53.034232 L12.4161455,51.1656922 C13.8588393,47.3034769 14.9512355,45.2629288 17.0517978,43.1642993 C20.1612911,40.0531129 22.3272519,38.8443279 27.0670652,36.9617467 L27.6370667,36.7335094 C28.6163035,36.3375508 29.2532237,36.0560324 29.8678604,35.737468 L29.8678604,35.737468 L30.2028305,35.5591212 C31.3529318,34.9309803 32.3614221,34.1864445 33.3624025,33.185793 C34.3523078,32.1958877 35.0913375,31.1983896 35.7146492,30.0642295 C36.0882965,29.3843516 36.3829004,28.7476562 36.798164,27.733669 L36.798164,27.733669 L37.3156336,26.4447846 C39.0990503,22.0120624 40.3276165,19.8867575 43.3378362,16.8765381 C45.5254696,14.6868634 47.6393607,13.610004 51.8186345,12.1128366 L51.8186345,12.1128366 L52.5439904,11.8520237 C55.3078935,10.8537709 56.4714064,10.3727403 57.8292634,9.58933245 L57.8292634,9.58933245 L58.351075,9.27977979 C60.4400655,8.01019624 62.2646301,6.34016348 63.9711639,3.9995033 L63.9711639,3.9995033 Z M70.6704624,6.24651431 C69.9646397,5.63558836 69.0838336,5.76266262 68.1471007,7.04593249 L68.1471007,7.04593249 L67.7933532,7.52128844 C65.776878,10.1756304 63.5561349,12.1652215 61.0356627,13.697038 C59.1176253,14.8627248 57.8612752,15.4192609 54.726095,16.559302 L54.726095,16.559302 L53.193818,17.1118575 C49.9462532,18.2921814 48.4366503,19.0865324 46.9937657,20.530763 C44.6614092,22.8631195 43.7131511,24.4396844 42.2593526,28.007767 L42.2593526,28.007767 L41.8059353,29.1384988 C41.1988862,30.6537595 40.8037534,31.5365343 40.2446649,32.5538357 C39.3912603,34.1066662 38.3607133,35.497637 37.0171796,36.8411706 C35.6591027,38.1988014 34.2532272,39.2367138 32.6805167,40.0956675 C31.7471933,40.6054126 30.9282828,40.9776981 29.6173379,41.5084539 L29.6173379,41.5084539 L28.1797457,42.0854572 C24.6146221,43.5382055 23.0382534,44.4867292 20.7065316,46.8197197 C19.2053424,48.3195283 18.3882109,49.8982477 17.1058984,53.3861009 L17.1058984,53.3861009 L16.6601489,54.5904663 C15.4931675,57.7163475 14.8768577,59.0995976 13.742232,60.9199097 L13.742232,60.9199097 L13.4594228,61.3662922 C11.7819849,63.9750552 9.59583813,66.2723187 6.67484106,68.3586746 C5.9435078,68.8807425 5.94395929,70.1365562 6.67816454,70.9123203 L6.628,70.855 L21.0629154,83.7501017 C24.2936248,81.911946 26.6527992,79.890527 28.3808267,77.6405073 L28.6656505,77.2647401 C30.1747882,75.2442636 30.7715922,73.9168294 32.1713384,69.8188329 L32.5742838,68.6299036 C33.6385662,65.4707436 34.4819315,63.7468046 36.0591464,62.1707348 C38.4406698,59.788431 40.475494,58.5952106 44.4905427,56.8584402 L45.8107144,56.2898454 C49.1175547,54.84588 50.6154006,53.9471493 52.3692526,52.1944501 C54.1873023,50.3758026 55.0870887,48.8315929 56.6291729,45.2594469 L57.2272399,43.8729536 C58.8593803,40.1536523 60.0550755,38.1738334 62.3458388,35.8823193 C63.8572831,34.370875 65.5035013,33.5338095 68.418716,32.5303047 L70.3576182,31.8714946 C74.4031032,30.4810077 75.6215467,29.887664 77.7977707,28.2209901 C78.4279742,27.7383451 79.0386785,27.2073285 79.6333543,26.6207161 C80.649542,25.6183073 82.2859377,25.6294772 83.2883465,26.6456649 C84.2907554,27.6618525 84.2795854,29.2982483 83.2633978,30.3006571 C82.5148992,31.0390065 81.7414589,31.7115246 80.9406938,32.3247952 L80.4935995,32.6630387 C77.8699743,34.6212634 76.2283632,35.337913 71.3071826,37.0093692 L70.4558887,37.2971627 C68.0096991,38.1209066 66.8507801,38.6875328 66.0012156,39.5370972 C64.2632333,41.2756492 63.3376315,42.8068574 61.9408737,45.9950472 L61.1812279,47.7538788 C59.5000446,51.5968876 58.3376145,53.5354823 56.0240297,55.8498275 C53.6269558,58.2453265 51.6337076,59.406094 47.5106118,61.187026 L46.9599472,61.423307 C43.2170683,63.0230598 41.591328,63.948093 39.7138596,65.826176 C38.9022066,66.6372401 38.3488847,67.7297479 37.583648,69.9545436 L36.7842135,72.299537 C35.2953438,76.589534 34.5354947,78.1130627 32.480374,80.788982 C30.61084,83.2232537 28.1947084,85.4036061 25.0981024,87.3566751 L31.556,93.127 C32.7087854,92.4769061 33.7317112,91.8177525 34.6387127,91.1472851 L34.6387127,91.1472851 L35.0203623,90.8592442 C38.7239125,88.004652 39.8559956,85.9360884 41.490762,80.5846546 L41.490762,80.5846546 L41.6203819,80.1644616 C42.8215734,76.3103758 43.7994446,74.3273546 46.0078951,72.1189042 C49.1169229,69.0107225 51.2814552,67.8026099 56.0192196,65.9192546 L56.0192196,65.9192546 L56.5862977,65.6920136 C57.5606038,65.2977835 58.1948214,65.0175225 58.8068249,64.7008744 L58.8068249,64.7008744 L59.1403526,64.5236448 C60.297758,63.8928894 61.3113692,63.1454749 62.3174532,62.1397215 C63.3138544,61.1429926 64.0561407,60.1389333 64.6824566,58.9951651 C65.0830629,58.2635842 65.3926642,57.5821965 65.8625095,56.4211439 L65.8625095,56.4211439 L66.4485997,54.9629177 C68.1397543,50.8251143 69.3852472,48.742483 72.2955136,45.8330086 C74.4176747,43.7102696 76.3481211,42.7219941 79.96889,41.5655185 L79.96889,41.5655185 L81.5934031,41.0598783 C85.2668686,39.9045597 86.8080105,39.1582234 88.8256458,37.3564813 C90.4035491,35.9474186 91.8919454,34.0462785 93.3248797,31.5043128 L93.3248797,31.5043128 L93.457,31.266 L81.4307947,18.0563585 C80.1345309,20.4955181 78.4787725,22.4235697 76.445621,23.9535328 C74.2709667,25.5899779 72.3781268,26.4541258 68.3929231,27.8740542 L67.4603597,28.2041995 C63.1266022,29.7389134 61.0987062,30.7636523 59.1632836,32.6990749 C58.4808981,33.3814604 57.8695898,34.0878093 57.3137385,34.8280924 L57.0609533,35.1687144 C56.0059463,36.6091998 55.4469461,37.6405159 54.2477183,40.325588 L53.476744,42.0728185 C52.0201211,45.3997424 50.9722894,47.2169986 49.1825789,49.0067088 C47.4658109,50.7248868 45.7240727,51.7592903 42.6500512,53.1252616 L40.8182531,53.9316097 C37.6934927,55.3179021 36.7182044,55.8550674 35.0378773,57.1101002 C34.2850393,57.6723933 33.567561,58.2915539 32.8757633,58.983149 C31.0712302,60.7888592 30.0576186,62.6768363 28.684563,66.4386114 L27.7330465,69.0971267 C26.3652546,72.8388604 25.4055256,74.7560917 23.6294316,76.902491 C22.7194416,78.0022087 21.0902516,78.1560134 19.9905339,77.2460233 C18.8908162,76.3360333 18.7370116,74.7068433 19.6470016,73.6071257 L19.9305211,73.2541191 C21.0775869,71.7804319 21.8168663,70.2340071 22.9182616,67.2121773 L23.8498049,64.6087348 C25.4592901,60.2070953 26.7583289,57.7920345 29.2203573,55.3284005 C30.0899979,54.459014 30.9952284,53.6778293 31.9446695,52.9686938 L32.5428711,52.5294003 C34.2114579,51.3281799 35.4437818,50.6700795 38.3158388,49.3873822 L40.1694823,48.5697627 C42.9491833,47.3535805 44.3123866,46.5677437 45.5267514,45.3523818 C46.6347799,44.2443533 47.3861008,43.0120864 48.4337026,40.6927384 L49.5641312,38.136522 C51.0039749,34.9158556 51.6657966,33.7412618 53.1802036,31.7243735 C53.8809931,30.7910616 54.6518842,29.9003196 55.5082063,29.0439975 C58.0572133,26.4949904 60.5526597,25.193313 65.2569649,23.5021245 L66.2364484,23.1543585 C73.0498328,20.7480519 75.7601234,18.9301332 77.6664866,13.9221003 L70.725,6.297 Z" fill="#00B077"></path>
    </g>
</svg>