<?xml version="1.0" encoding="UTF-8"?>
<svg width="100px" height="100px" viewBox="0 0 100 100" version="1.1" xmlns="http://www.w3.org/2000/svg" xmlns:xlink="http://www.w3.org/1999/xlink">
    <!-- Generator: Sketch 63.1 (92452) - https://sketch.com -->
    <title>Drumstick</title>
    <desc>Created with Sketch.</desc>
    <g id="Drumstick" stroke="none" stroke-width="1" fill="none" fill-rule="evenodd">
        <path d="M62.3941974,22.4318383 L63.3095986,22.0292955 C65.0517859,21.263178 65.8430468,19.2297953 65.0769293,17.487608 C64.3108119,15.7454207 62.2774291,14.9541598 60.5352418,15.7202773 L59.6198406,16.12282 C57.8776533,16.8889375 57.0863924,18.9223202 57.8525099,20.6645075 C58.6186274,22.4066948 60.6520101,23.1979557 62.3941974,22.4318383 Z M20.5861298,85.9365326 C20.5792168,85.2370064 20.8560204,84.567461 21.348403,84.0780489 L21.4879829,83.9491518 L30.254,76.43 L30.127193,76.3493255 C29.0644095,75.6193549 28.7031422,74.2107899 29.2833998,73.0594138 L29.3683842,72.90409 C30.0650194,71.7268436 31.5498319,71.3044131 32.7535433,71.9110461 L33.222909,72.1671953 L33.3238787,72.2194225 C33.6961365,72.4102368 34.1114508,72.6025405 34.5537145,72.7813873 C34.9168476,72.9282345 35.2773863,73.057498 35.6305845,73.1661615 L35.9811599,73.2678467 C36.2130113,73.3309101 36.4408969,73.3843711 36.6634106,73.427336 L36.9929764,73.4837996 C49.7687133,75.3975866 66.4616299,69.9721336 79.6336988,60.0404389 C98.9088001,45.5056741 98.5240867,23.3068168 80.4752128,11.4097986 C65.3850351,1.45965486 49.7927373,7.93969384 38.894525,28.5560461 L38.2084681,29.85971 C30.0193508,45.5109042 27.5733897,53.6036425 28.6249884,66.005396 C28.6920689,66.7964929 28.3918213,67.5708556 27.8173983,68.1092658 L27.6800145,68.229226 L16.1202733,77.626577 C15.5839752,78.062554 14.8976707,78.2639295 14.2155334,78.1910448 L13.7170523,78.1189606 C13.641572,78.1094302 13.5550036,78.0992211 13.4582421,78.0887909 C12.1706456,77.9499974 10.7786695,77.9607081 9.53705998,78.2109939 C7.47629173,78.626407 6.41236933,79.5195587 6.19146227,81.2593863 C6.05887659,82.2904144 6.74890827,83.2041438 8.34442827,84.0744816 C8.96237305,84.4115633 9.64448199,84.6941614 10.3286388,84.9177725 L10.6123231,85.0073123 C10.743503,85.0471827 10.8580035,85.0797433 10.9527387,85.1051704 L11.1745627,85.1602281 C12.2624475,85.3968633 13.0697271,86.3007423 13.1933196,87.3942787 L13.2266809,87.8253692 C13.2442908,88.007466 13.2738666,88.25187 13.3191683,88.5420907 C13.4405804,89.3199047 13.6298166,90.0934414 13.8923519,90.7889854 C14.4816878,92.350334 15.226154,93.0900171 16.2214311,93.1311438 C18.0650109,93.2109909 19.1710721,92.1867967 19.9162657,89.986538 C20.2051838,89.1334785 20.396208,88.1894498 20.5016448,87.2362815 C20.530108,86.9789696 20.5507494,86.7346694 20.5647047,86.5074282 L20.5850444,86.0323541 L20.5861298,85.9365326 Z M34.3251654,26.1394094 C46.5150415,3.07959199 65.356507,-4.75077605 83.3203462,7.09419929 C104.38347,20.9780777 104.843185,47.5047036 82.7457775,64.1676835 C68.5450728,74.874966 50.5126872,80.7357669 36.2298538,78.5962177 L36.0040495,78.5605481 L35.761,78.517 L25.702,87.144 L25.6698805,87.5110624 L25.6393674,87.8046024 C25.4957212,89.1031896 25.2327198,90.4029247 24.8121503,91.6446984 C23.4041332,95.8020098 20.5008566,98.4903954 16.0029043,98.29558 C12.557787,98.1532389 10.3004086,95.910364 9.05632163,92.6143601 C8.71291172,91.7045521 8.46453752,90.7598413 8.2919945,89.8128381 L8.27,89.685 L8.15042403,89.6439906 C7.53534242,89.4189658 6.87668533,89.1370645 6.20555492,88.7908266 L5.86909426,88.6123118 C2.60850143,86.833696 0.604291441,84.1797517 1.06409493,80.6042006 C1.6013109,76.3731122 4.47861323,73.957647 8.51561878,73.1438606 C10.1864762,72.8070464 11.9001305,72.7644098 13.5269191,72.9027004 L13.714,72.92 L23.37,65.07 L23.3531988,64.8097421 C22.5374152,51.9231011 25.4420817,43.0199635 33.966715,26.8187151 L34.3251654,26.1394094 Z" fill="#00B077"></path>
    </g>
</svg>