<svg version="1.1" id="Layer_1" xmlns="http://www.w3.org/2000/svg" x="0" y="0" viewBox="0 0 100 100" xml:space="preserve">
  <title>Ribs</title>
  <g id="Ribs" stroke="none" stroke-width="1" fill="#00B077" fill-rule="evenodd">
    <path class="st0" d="M32.6 26.3c-.4 0-.8 0-1.1.1-.2.1-1.6.7-3.2 2.4-.1-.1-.2-.1-.3-.2-1.5-.5-6.7-2-9.7-.3-1.3.7-2 1.8-2.3 3v.3c-.5 2.2-1.9 8.1 3.4 9.5.2.1.4.1.6.1 1 0 2.6.2 3.8.5v.6c-.5.4-1 1-1.6 1.7-.1 0-.2-.1-.3-.1-1.5-.5-6.7-2-9.7-.3-1.2.6-1.9 1.7-2.2 2.9l-.1.3c-.5 2.2-1.9 8.1 3.4 9.5.2.1.4.1.6.1 1.1 0 3 .2 4.3.7.1 1.1.4 2 .7 2.7-.7.6-1.6 1.5-2.5 2.7-.1 0-.2-.1-.3-.1-1.5-.4-6.8-1.4-9.7.5-1 .7-1.7 1.7-1.9 3l-.1.4c-.3 2.2-1.2 8.2 4.2 9.2.2.1.4 0 .6 0 1-.1 2.6 0 3.9.2.4 2.6 1.6 3.8 2 4.1.5.4 1.2.5 1.8.5.1.1 9.7-.8 25.8 4.1C57.9 88.7 67 94.8 67.1 94.9c.9.5 2.1.5 2.9-.2.1-.1.9-.8 2-2.2 1.3.3 3.4 1.5 4.4 2.4.2.1.3.2.5.3 2.3 1.1 4.2.4 5.6-.7 1.5-1.3 2.5-3.4 3-4.4l.2-.3c.5-1.2.6-2.4.1-3.6-1.2-3.2-6.2-5.4-7.7-5.9-.4-.2-.9-.2-1.3-.1.1-1.3.1-2.7 0-4.2 0-.1 0-.3-.1-.4v-.1h.1c1.3.3 3.2 1.2 4.1 1.9.2.1.3.1.5.2 3.1 1.1 5.1-.5 6.4-2.4.9-1.3 1.4-2.7 1.8-3.6l.1-.3c.4-1.2.4-2.4-.2-3.6-1.3-2.7-5.5-4.2-7.5-4.8v-1.5c.4-.4.8-.9 1.2-1.5 1.3.4 2.9 1.2 3.7 1.7.2.1.3.1.5.2 3.1 1.1 5.1-.5 6.4-2.4.9-1.3 1.4-2.7 1.8-3.6l.1-.3c.4-1.2.4-2.4-.2-3.6-1.4-2.9-6-4.4-7.8-4.9 0-.8 0-1.7-.1-2.6 0-.8-.4-1.4-1-1.8-.9-.7-20.5-12.9-54-16.3zm-12 6.4v-.2c.7-.3 2.9 0 4.9.6-.4.9-.7 1.8-1.1 2.9-.1.4-.2.7-.3 1.1-1.6-.4-3.1-.5-3.8-.5-.3-.4-.2-1.5.3-3.9zm-6 15.1v-.2c.8-.3 3.1 0 5.1.6-.3.7-.5 1.4-.8 2.2-.2.6-.3 1.3-.5 1.8-1.7-.4-3.3-.6-4.1-.6-.3-.2-.3-1.4.3-3.8zm-5.5 19v-.1c.4-.2 1.3-.3 2.3-.2.8 0 1.8.2 2.7.3-.2.5-.3 1-.5 1.5-.3.9-.5 1.7-.6 2.5-1.5-.2-3-.2-3.8-.2-.4-.3-.4-1.5-.1-3.8zm72.2 21l-.1.2c-1.1 2.1-1.7 3.1-2.3 3-.7-.6-2.6-1.9-4.4-2.6.6-1.2 1.1-2.5 1.5-3.9.1.1.3.2.4.2 2.1.9 4.5 2.3 4.9 3.1zm4-18.1l-.1.2c-.8 2.3-1.4 3.2-1.9 3.3-.7-.4-2.1-1.1-3.6-1.7.6-1.1 1.2-2.4 1.6-3.9 1.7.6 3.5 1.5 4 2.1zm5.9-15.8l-.1.2c-.8 2.3-1.4 3.2-1.9 3.3-.7-.4-2-1.1-3.6-1.7.5-1.2 1-2.5 1.3-4 1.9.6 3.9 1.6 4.3 2.2zm-13.1 5c-.4.4-.6 1-.6 1.6 0 4-1.2 7.2-2.5 9.4v.1c-.4.5-1.3 1.8-1.8 2.4l-.2.3c-.5.8-.8 1.2-.9 2.1 0 .3-.1.6-.1 1.1v1.5c0 .9.1 1.7.1 1.8-.4 5.2-2.7 8.7-4.1 10.4-3.4-2.1-11.8-6.6-24.1-10.2-13.5-4-22.7-4.2-26.1-4.2-.2-.9-.5-2.7.4-5.9s2.1-4.9 3-5.8c0 0 .1 0 .2-.1.2-.2.8-.7 1.2-1.3.4-.5.7-1 .8-1.4.2-.9.1-1.5 0-2.2 0-.2-.1-.4-.2-.6-.1-.3-.2-.7-.2-1.1 0-.1-.1-.3-.1-.5-.1-1 .1-2.5.7-4.5 1.3-4.4 3.3-6 3.9-6.4.9-.6 1.3-1.5 1.1-2.6-.3-.9-.4-2.7.5-5.5 1.2-4.1 3-5.7 3.7-6.3 27.7 3 45.7 12.3 50.1 14.8.1 7-3.2 11.5-4.8 13.1z"/>
    <path class="st0" d="M76.8 75.5v.1l.1-.1h-.1zM73.2 55.1c1.1.6 1.5 2.1.7 3.3-.7 1-2.2 1.3-3.2.6-18-11.7-36.6-12-36.8-12-1.3 0-2.3-1.1-2.4-2.3 0-1.3 1.1-2.3 2.3-2.4.8 0 20.2.3 39.4 12.8zM61.9 27c-.6 0-1.3-.2-1.7-.7-1.9-2-4.2-7.1-.2-12.1 2.1-2.6 0-6.1-.1-6.3-.6-1.2-.3-2.5.7-3.3 1.2-.6 2.5-.3 3.3.7.2.3 4 6.5-.2 11.8-2.4 3.1-.4 5.5 0 6 .8.9.8 2.4-.2 3.4-.4.3-1 .5-1.6.5zM51.9 27c-.6 0-1.3-.2-1.7-.7-1.9-2-4.2-7.1-.2-12.1 2.1-2.6 0-6.1-.1-6.3-.6-1.2-.3-2.5.7-3.3 1.2-.6 2.5-.3 3.3.7.2.3 4 6.5-.2 11.8-2.4 3.1-.4 5.5 0 6 .8.9.8 2.4-.2 3.4-.4.3-1 .5-1.6.5zM72.4 27c-.6 0-1.3-.2-1.7-.7-1.9-2-4.2-7.1-.2-12.1 2.1-2.6 0-6.1-.1-6.3-.6-1.2-.3-2.5.7-3.3 1.2-.6 2.5-.3 3.3.7.2.3 4 6.5-.2 11.8-2.4 3.1-.4 5.5 0 6 .8.9.8 2.4-.2 3.4-.5.3-1 .5-1.6.5z"/>
    <path class="st0" d="M68.7 73.7c-.7 1-1.9 1.3-3 .8-21-10.5-36.6-10.6-36.8-10.6-1.3 0-2.4-1.1-2.4-2.4 0-1.3 1.1-2.4 2.4-2.4.7 0 16.9.1 38.9 11.1 1.2.6 1.6 2 1.1 3.2-.1.1-.1.2-.2.3z"/>
  </g>
</svg>
