<?xml version="1.0" encoding="UTF-8"?>
<svg width="100px" height="100px" viewBox="0 0 100 100" version="1.1" xmlns="http://www.w3.org/2000/svg" xmlns:xlink="http://www.w3.org/1999/xlink">
    <!-- Generator: Sketch 63.1 (92452) - https://sketch.com -->
    <title>Sausage</title>
    <desc>Created with Sketch.</desc>
    <g id="Sausage" stroke="none" stroke-width="1" fill="none" fill-rule="evenodd">
        <path d="M89.6352955,1.57924058 C93.4282527,3.39633167 95.1798023,7.15697823 94.174588,10.9276635 L94.12,11.12 L94.270182,11.1712235 C99.1751826,12.9020226 101.214329,19.7637436 96.6598013,24.4268521 L96.4715368,24.6146744 C95.4481457,25.609728 93.8118731,25.5867558 92.8168196,24.5633647 C91.8650293,23.5844689 91.8446651,22.044827 92.7403184,21.0419704 L92.8681293,20.9086475 C95.3608887,18.4849123 93.575544,15.1215101 90.5484501,16.1925909 L90.3851138,16.254243 C87.7963472,17.2922615 85.6636441,14.0801016 87.5244993,12.1008799 L87.6341196,11.9902021 C90.0883209,9.63606908 89.6574016,7.32144876 87.3956692,6.23791054 C85.1435531,5.15144501 83.065591,6.26252316 82.7602122,9.64899224 C82.5103129,12.4202267 78.6975967,12.8665754 77.7674102,10.3301921 L77.7120134,10.1642382 C77.0547248,7.98832409 75.00118,7.30592093 73.1879669,8.34546399 C71.3552746,9.39617475 70.829689,11.6891647 72.5917536,14.9784924 C74.8661406,15.0315757 77.2058064,15.4959694 79.5251638,16.388456 C89.400806,20.188594 95.586575,30.3813159 94.0578825,42.7081518 C92.5819461,54.6315541 86.6737553,66.4633338 76.7041305,76.4278559 C66.7432088,86.3938806 54.905774,92.3051284 42.9907356,93.7790541 C30.6617913,95.3069141 20.468224,89.1206537 16.6678919,79.2446694 C15.7762734,76.927606 15.3119034,74.5902707 15.2586315,72.318917 C11.9662466,70.5539511 9.67191273,71.0792393 8.62080259,72.9126283 C7.61374524,74.6691785 8.22269407,76.6512744 10.2399673,77.3710134 L10.4395768,77.4366748 C13.1031826,78.2412827 12.7700598,82.0655553 10.0980544,82.4641461 L9.92433084,82.4848736 C6.53786176,82.7902525 5.4267836,84.8682145 6.51629635,87.1266692 C7.59678735,89.382063 9.91140768,89.8129823 12.2655407,87.358781 C14.1962844,85.3459661 17.4634215,87.3934548 16.583835,89.9637521 L16.5295816,90.1097752 C15.2764275,93.2350789 18.7169699,95.1300637 21.1839861,92.5927907 C22.1790396,91.5693996 23.8153123,91.5464275 24.8387033,92.541481 C25.8620944,93.5365345 25.8850666,95.1728071 24.890013,96.1961982 C20.2254711,100.993579 13.2007504,98.9661278 11.4465621,93.9948434 L11.396,93.845 L11.3694337,93.8532722 C7.6233127,94.9331114 3.85946039,93.2820513 1.97531962,89.6038223 L1.85762639,89.3662955 C0.0184657198,85.5539303 1.02500713,81.4958743 4.21248695,79.1861048 L4.342,79.094 L4.24554642,78.9500047 C2.67393228,76.5211774 2.52486829,73.3423772 4.00898931,70.5716084 L4.1364511,70.3416804 C6.39987967,66.3937165 10.9194062,65.0548897 15.9308281,66.9697279 C17.3990435,61.8373287 21.2275782,57.5104401 27.1834708,55.2356164 L27.1834708,55.2356164 L30.1016663,54.1256632 C30.8435699,53.8399885 31.4559471,53.5979371 32.0268744,53.363155 L32.0268744,53.363155 L32.9814368,52.9610087 C37.5309723,50.9977095 41.0743421,48.6700808 45.0098808,44.7345422 C48.9485118,40.7959111 51.2774926,37.2517822 53.2416176,32.7024696 L53.2416176,32.7024696 L53.3430615,32.4661218 C53.6791661,31.6783765 53.9983801,30.8829042 54.4064221,29.8237183 L54.4064221,29.8237183 L55.5174874,26.9039046 C57.79112,20.9502688 62.11526,17.1225077 67.2454221,15.6534358 C65.3305105,10.643115 66.6694712,6.12430252 70.617019,3.8611125 C73.4405371,2.242346 76.7290486,2.35493774 79.2253433,3.97020782 L79.369,4.067 L79.4612722,3.93706608 C81.7706424,0.749394284 85.8273673,-0.257787041 89.6352955,1.57924058 Z M72.2755721,20.0912656 L71.8851533,20.0944807 C71.5103947,20.2042629 71.1204291,20.2255375 70.7445499,20.1643384 C66.3962231,20.6235081 62.4210387,23.3154669 60.3464031,28.7480181 L60.3464031,28.7480181 L59.3534164,31.3604807 C58.9530422,32.4056347 58.6329615,33.2155717 58.3118024,33.9863609 L58.3118024,33.9863609 L57.9872702,34.7513627 C55.7739309,39.8779062 53.0854061,43.9691716 48.6649581,48.3896195 C44.2472756,52.807302 40.15649,55.4945265 35.0295191,57.7070112 C34.0924291,58.1114016 33.1948234,58.4735355 31.9776166,58.9423554 L31.9776166,58.9423554 L29.1969542,59.9998536 L28.5310723,60.2626238 C23.4215706,62.3900037 20.879779,66.2634546 20.4395086,70.4859881 C20.4992464,70.8506631 20.4786666,71.227877 20.3751728,71.5912814 C20.2072616,80.4610649 28.9254726,90.3134865 42.3555845,88.6491648 C53.1114659,87.3186302 63.8907164,81.9358069 73.049053,72.7727789 C82.2157139,63.6108093 87.5955619,52.8370922 88.9280466,42.0725697 C90.5680157,28.848438 81.0369835,20.193037 72.2755721,20.0912656 Z" fill="#00B077"></path>
    </g>
</svg>