<?xml version="1.0" encoding="UTF-8"?>
<svg width="100px" height="100px" viewBox="0 0 100 100" version="1.1" xmlns="http://www.w3.org/2000/svg" xmlns:xlink="http://www.w3.org/1999/xlink">
    <!-- Generator: Sketch 63.1 (92452) - https://sketch.com -->
    <title>Turkey</title>
    <desc>Created with Sketch.</desc>
    <g id="Turkey" stroke="none" stroke-width="1" fill="none" fill-rule="evenodd">
        <path d="M87.3557855,94.0435771 C88.783182,94.0435771 89.9403155,95.2007106 89.9403155,96.6281071 C89.9403155,98.0006037 88.8704805,99.123227 87.5192352,99.2075523 L87.3557855,99.2126371 L14.3669352,99.2126371 C12.9395387,99.2126371 11.7824052,98.0555036 11.7824052,96.6281071 C11.7824052,95.2556104 12.8522402,94.1329871 14.2034855,94.0486618 L14.3669352,94.0435771 L87.3557855,94.0435771 Z M54.1633096,27.0077441 C65.0433953,27.5474582 76.0132876,32.6054491 86.7806417,42.9628956 C98.7602668,54.4846901 100.760209,66.3140988 94.599091,76.5213151 C90.0919127,83.9884251 80.9968632,89.9163701 75.0473994,90.1087222 L74.7525834,90.1135407 L49.7825775,90.1135407 C45.4071849,90.1135407 40.8706984,88.7118145 37.0750323,86.3771374 C26.6231435,79.9450686 20.6029996,64.6947851 24.8583034,57.0297238 L24.8948868,56.9659789 C24.8960604,56.9639999 24.897237,56.9620218 24.8984166,56.9600447 C29.3805981,49.4469454 46.0369108,47.0145676 56.8672172,52.830049 C60.4559055,54.7575423 63.5778705,57.5020001 65.6188472,60.7767152 C66.3738436,61.988095 66.0038717,63.582158 64.7924918,64.3371544 C63.5811119,65.0921508 61.987049,64.7221789 61.2320526,63.510799 C59.7016487,61.0552901 57.258802,58.9078318 54.4216112,57.3839695 C45.9172772,52.8174509 32.5571729,54.7001377 29.4443194,59.4379254 L29.3583877,59.575 L29.2711392,59.7417231 C26.7441041,64.8458871 31.6003858,76.9386109 39.7836742,81.9745881 C42.6664853,83.747777 46.0966682,84.8460337 49.3413409,84.9381823 L49.7825775,84.9444807 L74.7525834,84.9444807 C78.7570368,84.9444807 86.4752285,79.9774683 90.1737107,73.8501373 C95.0445823,65.7804911 93.490472,56.5881209 83.1973055,46.6883329 C73.2992261,37.1670682 63.4938406,32.6460074 53.9072097,32.170456 C46.567007,31.8063402 39.7312832,33.8191531 33.6008797,37.4141137 C31.6196103,38.5759598 29.8625355,39.8199876 28.3541444,41.0592562 C27.936428,41.402445 27.5638201,41.7241891 27.2378283,42.018854 L26.8120962,42.4130021 L26.5924823,42.627291 C25.5970109,43.6502756 23.960729,43.6725795 22.9377444,42.6771081 C21.9147598,41.6816367 21.892456,40.0453548 22.8879274,39.0223702 L23.0991146,38.8107978 C23.5286435,38.3898433 24.1904051,37.7902265 25.0727697,37.0652906 C26.782356,35.6607233 28.7594565,34.2609151 30.9860946,32.9551811 C37.9262786,28.885353 45.7244906,26.5891306 54.1633096,27.0077441 Z M11.2349934,61.7618003 C12.4493343,62.3967018 12.9488473,63.8612408 12.4017402,65.0965247 L12.3278766,65.2496645 C10.6324577,68.4923984 11.2200006,73.3612406 13.9869085,77.4367352 C17.142703,82.0850375 22.4878681,84.9437915 29.2353917,84.9437915 C30.6627882,84.9437915 31.8199217,86.100925 31.8199217,87.5283215 C31.8199217,88.955718 30.6627882,90.1128515 29.2353917,90.1128515 C20.767323,90.1128515 13.823964,86.3993355 9.71031612,80.340171 C5.93560617,74.7802424 5.10607363,67.9060841 7.74712916,62.8546835 C8.4084849,61.5897451 9.9700549,61.1004446 11.2349934,61.7618003 Z M18.4282081,42.0103578 C18.8849332,42.9384322 19.208436,43.8490599 19.4277631,44.6585412 L19.461,44.7895015 L24.9749011,48.0747293 C26.1499736,48.775025 26.5677808,50.2611451 25.9574045,51.4629626 L25.871937,51.6180211 C25.1716412,52.7930937 23.6855211,53.2109009 22.4837037,52.6005245 L22.3286451,52.515057 L15.8466439,48.6520462 C15.2397712,48.2903746 14.8098783,47.6977356 14.6518259,47.0147996 L14.571485,46.5952962 C14.542558,46.4594833 14.5008576,46.2821222 14.4451597,46.0735268 C14.2806533,45.4574302 14.0616422,44.8440516 13.7903364,44.292753 C13.0647569,42.8183612 12.318754,42.2847249 11.2282683,42.5111856 C10.8146007,42.597296 10.5282169,42.9655927 10.3167604,43.8630049 C10.1683585,44.4928162 10.1209498,45.2037765 10.1420383,45.8558104 L10.1715145,46.3402157 C10.3039931,47.4474511 9.71181315,48.5074016 8.71641007,48.9808081 L8.37757347,49.1288852 C8.29509782,49.1670988 8.19118392,49.2172433 8.07058028,49.278752 C7.65751285,49.4894193 7.24489037,49.7376408 6.87261311,50.0127223 C5.87669638,50.7486206 5.55057501,51.3271573 5.69298819,51.8031174 C5.96433029,52.7107099 6.52593064,53.0853058 7.67620579,53.1894534 C8.45016281,53.2595286 9.352343,53.1659021 10.248823,52.9609422 L10.5363739,52.8915782 C10.8011552,52.8242056 10.9950303,52.7646243 11.0946187,52.7291865 C11.7598948,52.4924527 12.4901845,52.5390608 13.116864,52.8524355 L13.2850811,52.9445029 L19.7670823,56.8109598 C20.9929583,57.542184 21.3939527,59.1287272 20.6627284,60.3546032 C19.9619719,61.529401 18.475688,61.9466253 17.27411,61.3357776 L17.119085,61.2502493 L11.593,57.9535015 L11.400886,57.999983 C10.1712131,58.2811199 8.91485885,58.4285601 7.67442946,58.3694472 L7.21009813,58.3374554 C4.11952992,58.0576308 1.68160214,56.4314964 0.74068919,53.2843046 C-0.166515861,50.2523298 1.24922167,47.7408229 3.80074779,45.8554606 C4.089964,45.6417542 4.37735,45.4470369 4.65776,45.2707678 L4.976,45.0765015 L4.98345207,44.8613155 C5.01171954,44.2888246 5.0775543,43.7036519 5.19116203,43.1172975 L5.28548472,42.6774898 C5.91162442,40.0201797 7.47224144,38.0131873 10.1760382,37.4503564 C13.9904724,36.6582136 16.7742827,38.6495492 18.4282081,42.0103578 Z M43.1676789,2.35352332 C43.8478196,3.60846131 43.3818544,5.17715256 42.1269164,5.8572933 C36.0467251,9.15258424 35.6579544,13.9582223 40.7148723,19.4151561 C41.6850908,20.4621216 41.6228752,22.0973723 40.5759097,23.0675909 C39.5289442,24.0378095 37.8936934,23.9755938 36.9234749,22.9286283 C29.7041952,15.138284 30.4172455,6.32418967 39.6639089,1.31276082 C40.9188469,0.632620086 42.4875382,1.09858533 43.1676789,2.35352332 Z M58.1342491,2.35556927 C58.8132599,3.611119 58.3458827,5.17939017 57.090333,5.85840095 C50.9968762,9.15378846 50.6028647,13.9574899 55.6555238,19.4162728 C56.6251256,20.4638095 56.5619468,22.0990234 55.5144101,23.0686252 C54.4668734,24.038227 52.8316596,23.9750483 51.8620578,22.9275116 C44.6474412,15.1329966 45.3702935,6.32013897 54.6314174,1.31165316 C55.8869671,0.632642377 57.4552383,1.10001954 58.1342491,2.35556927 Z M73.0761047,2.35270331 C73.7566983,3.60739575 73.2912992,5.17625507 72.0366068,5.85684868 C65.9623164,9.1517783 65.5689451,13.9600241 70.6081525,19.4187922 C71.5763629,20.4676151 71.5110136,22.1027436 70.4621907,23.070954 C69.4133678,24.0391644 67.7782393,23.9738151 66.8100289,22.9249922 C59.615907,15.131893 60.3365927,6.32282479 69.5719593,1.31320543 C70.8266517,0.63261182 72.3955111,1.09801087 73.0761047,2.35270331 Z" fill="#00B077"></path>
    </g>
</svg>