<?xml version="1.0" encoding="UTF-8"?>
<svg width="100px" height="100px" viewBox="0 0 100 100" version="1.1" xmlns="http://www.w3.org/2000/svg" xmlns:xlink="http://www.w3.org/1999/xlink">
    <!-- Generator: Sketch 63.1 (92452) - https://sketch.com -->
    <title>BarGraph</title>
    <desc>Created with Sketch.</desc>
    <g id="BarGraph" stroke="none" stroke-width="1" fill="none" fill-rule="evenodd">
        <path d="M4,9.42 C5.37009101,9.42 6.49074665,10.4879598 6.57492416,11.8368367 L6.58,12 L6.58,61.597 L20.88868,61.597748 C22.3135747,61.597748 23.46868,62.7528533 23.46868,64.177748 C23.46868,65.547839 22.4007202,66.6684946 21.0518433,66.7526722 L20.88868,66.757748 L6.58,66.757 L6.58,83.672 L27.851,83.672 L27.851584,41.511932 C27.851584,40.141841 28.9195438,39.0211854 30.2684207,38.9370078 L30.431584,38.931932 L51.147264,38.931932 C52.5721587,38.931932 53.727264,40.0870373 53.727264,41.511932 C53.727264,42.882023 52.6593042,44.0026786 51.3104273,44.0868562 L51.147264,44.091932 L33.011,44.091 L33.011,83.672 L57.944,83.672 L57.944876,14.112332 C57.944876,12.742241 59.0128358,11.6215854 60.3617127,11.5374078 L60.524876,11.532332 L87.171116,11.532332 C88.541207,11.532332 89.6618626,12.6002918 89.7460402,13.9491687 L89.751116,14.112332 L89.751116,76.128652 C89.751116,77.5535467 88.5960107,78.708652 87.171116,78.708652 C85.801025,78.708652 84.6803694,77.6406922 84.5961918,76.2918153 L84.591116,76.128652 L84.591,16.692 L63.104,16.692 L63.104,83.672 L96.88,83.6724 C98.250091,83.6724 99.3707466,84.7403598 99.4549242,86.0892367 L99.46,86.2524 C99.46,87.622491 98.3920402,88.7431466 97.0431633,88.8273242 L96.88,88.8324 L4,88.8324 C2.62990899,88.8324 1.50925335,87.7644402 1.42507584,86.4155633 L1.42,86.2524 L1.42,12 C1.42,10.5751053 2.57510535,9.42 4,9.42 Z" id="Bar-Graph" fill="#00B077"></path>
    </g>
</svg>