<?xml version="1.0" encoding="UTF-8"?>
<svg width="100px" height="100px" viewBox="0 0 100 100" version="1.1" xmlns="http://www.w3.org/2000/svg" xmlns:xlink="http://www.w3.org/1999/xlink">
    <!-- Generator: Sketch 63.1 (92452) - https://sketch.com -->
    <title>DeclineChart</title>
    <desc>Created with Sketch.</desc>
    <g id="DeclineChart" stroke="none" stroke-width="1" fill="none" fill-rule="evenodd">
        <path d="M28.355036,21.91588 C29.7799307,21.91588 30.935036,23.0709853 30.935036,24.49588 C30.935036,25.865971 29.8670762,26.9866266 28.5181993,27.0708042 L28.355036,27.07588 L12.818,27.075 L12.818,40.03 L25.775,40.03 L25.775036,33.93696 C25.775036,32.566869 26.8429958,31.4462134 28.1918727,31.3620358 L28.355036,31.35696 C29.725127,31.35696 30.8457826,32.4249198 30.9299602,33.7737967 L30.935036,33.93696 L30.935,93.449 L37.806,93.449 L37.806952,37.6814 C37.806952,36.311309 38.8749118,35.1906534 40.2237887,35.1064758 L40.386952,35.1014 L58.503712,35.1014 C59.9286067,35.1014 61.083712,36.2565053 61.083712,37.6814 C61.083712,39.051491 60.0157522,40.1721466 58.6668753,40.2563242 L58.503712,40.2614 L42.966,40.261 L42.966,53.216 L55.923,53.216 L55.923712,47.12248 C55.923712,45.752389 56.9916718,44.6317334 58.3405487,44.5475558 L58.503712,44.54248 C59.873803,44.54248 60.9944586,45.6104398 61.0786362,46.9593167 L61.083712,47.12248 L61.083,55.73 L61.085432,55.79558 L61.085,93.449 L67.945,93.449 L67.94548,60.489804 C67.94548,59.119713 69.0134398,57.9990574 70.3623167,57.9148798 L70.52548,57.909804 L88.64224,57.909804 C90.0671347,57.909804 91.22224,59.0649093 91.22224,60.489804 C91.22224,61.859895 90.1542802,62.9805506 88.8054033,63.0647282 L88.64224,63.069804 L73.105,63.069 L73.105,76.024 L86.062,76.024 L86.06224,69.930884 C86.06224,68.560793 87.1301998,67.4401374 88.4790767,67.3559598 L88.64224,67.350884 C90.012331,67.350884 91.1329866,68.4188438 91.2171642,69.7677207 L91.22224,69.930884 L91.22224,78.604844 L91.2171642,78.7680073 L91.217,93.449 L95.88,93.44982 C97.3048947,93.44982 98.46,94.6049253 98.46,96.02982 C98.46,97.399911 97.3920402,98.5205666 96.0431633,98.6047442 L95.88,98.60982 L3,98.60982 C1.57510535,98.60982 0.42,97.4547147 0.42,96.02982 C0.42,94.659729 1.48795982,93.5390734 2.83683674,93.4548958 L3,93.44982 L7.657,93.449 L7.658276,24.49588 C7.658276,23.125789 8.72623582,22.0051334 10.0751127,21.9209558 L10.238276,21.91588 L28.355036,21.91588 Z M86.057,81.184 L73.105,81.184 L73.105,93.449 L86.057,93.449 L86.057,81.184 Z M55.925,58.376 L42.966,58.376 L42.966,93.449 L55.925,93.449 L55.925,58.376 Z M25.775,45.19 L12.817,45.19 L12.817,93.449 L25.775,93.449 L25.775,45.19 Z M13.9899148,0.78032303 L14.1434519,0.852660763 L90.801,40.046 L84.9766,26.0340627 C84.4515163,24.7709576 85.0048661,23.3288045 86.2140519,22.7315361 L86.3685853,22.661352 C87.6316904,22.1362683 89.0738435,22.6896181 89.6711119,23.8988039 L89.741296,24.0533373 L98.262176,44.5505773 L98.3050387,44.6599651 L98.344281,44.7767734 C98.6177162,45.6246349 98.4213805,46.4553248 97.9546029,47.0772418 L97.7942979,47.2710392 C97.6588201,47.4218338 97.5050184,47.5568148 97.3358221,47.6725731 C96.9719712,47.9235648 96.5441494,48.0851439 96.0896962,48.1223822 L74.9646659,51.692577 C73.5596883,51.9299854 72.2282714,50.9834835 71.990863,49.5785059 C71.762951,48.2297274 72.6261306,46.9487425 73.9385839,46.638378 L74.1049341,46.604703 L87.774,44.294 L11.7944441,5.44697924 C10.5257581,4.79831864 10.0231282,3.2440021 10.6717888,1.97531609 C11.2674284,0.810331365 12.6267199,0.291287467 13.8272735,0.716463819 L13.9899148,0.78032303 Z" fill="#00B077"></path>
    </g>
</svg>