<?xml version="1.0" encoding="UTF-8"?>
<svg width="100px" height="100px" viewBox="0 0 100 100" version="1.1" xmlns="http://www.w3.org/2000/svg" xmlns:xlink="http://www.w3.org/1999/xlink">
    <!-- Generator: Sketch 63.1 (92452) - https://sketch.com -->
    <title>GrowthChart</title>
    <desc>Created with Sketch.</desc>
    <g id="GrowthChart" stroke="none" stroke-width="1" fill="none" fill-rule="evenodd">
        <path d="M81.7163287,6.74665257 L81.8044488,6.75849245 C81.9985663,6.78610282 82.1870277,6.83566518 82.3667216,6.90497203 L82.4677649,6.94642103 C83.309653,7.30617509 83.9704989,8.09527315 84.0176011,9.18404018 L84.0200368,9.34753211 L83.8738368,20.5619321 C83.8552623,21.9867057 82.6851975,23.1266553 81.2604239,23.1080808 C79.8904493,23.0902207 78.7838105,22.0077431 78.7172237,20.6578835 L78.7142752,20.4946679 L78.752,17.565 L78.4708976,17.9266297 C71.1475303,27.2126079 61.9908312,35.1326146 51.3926768,41.7975998 L50.5951187,42.2951222 C40.4069915,48.5992665 29.5094767,53.4075349 18.6129965,56.9255852 C14.7979711,58.1573088 11.2524067,59.140622 8.06499492,59.9002293 L7.05455803,60.1361309 C6.72989277,60.2102937 6.4174861,60.2800163 6.11767271,60.3453907 L6.119,64.221 L21.763136,64.22146 C23.133227,64.22146 24.2538826,65.2894198 24.3380602,66.6382967 L24.343136,66.80146 L24.343136,81.52638 C24.343136,82.9512747 23.1880307,84.10638 21.763136,84.10638 C20.393045,84.10638 19.2723894,83.0384202 19.1882118,81.6895433 L19.183136,81.52638 L19.183,69.381 L6.119,69.381 L6.119,87.561 L33.433,87.561 L33.433164,57.63558 C33.433164,56.265489 34.5011238,55.1448334 35.8500007,55.0606558 L36.013164,55.05558 L54.238284,55.05558 C55.608375,55.05558 56.7290306,56.1235398 56.8132082,57.4724167 L56.818284,57.63558 L56.818284,81.52638 C56.818284,82.9512747 55.6631787,84.10638 54.238284,84.10638 C52.868193,84.10638 51.7475374,83.0384202 51.6633598,81.6895433 L51.658284,81.52638 L51.658,60.215 L38.593,60.215 L38.593,87.561 L65.908,87.561 L65.908312,37.81602 C65.908312,36.445929 66.9762718,35.3252734 68.3251487,35.2410958 L68.488312,35.23602 L86.711712,35.23602 C88.081803,35.23602 89.2024586,36.3039798 89.2866362,37.6528567 L89.291712,37.81602 L89.291712,81.52638 C89.291712,82.9512747 88.1366067,84.10638 86.711712,84.10638 C85.341621,84.10638 84.2209654,83.0384202 84.1367878,81.6895433 L84.131712,81.52638 L84.131,40.396 L71.068,40.396 L71.068,87.561 L96.419736,87.561344 C97.789827,87.561344 98.9104826,88.6293038 98.9946602,89.9781807 L98.999736,90.141344 C98.999736,91.511435 97.9317762,92.6320906 96.5828993,92.7162682 L96.419736,92.721344 L3.539736,92.721344 C2.16964499,92.721344 1.04898935,91.6533842 0.964811836,90.3045073 L0.959736,90.141344 L0.959736,24.793384 C0.959736,23.3684893 2.11484135,22.213384 3.539736,22.213384 C4.90982701,22.213384 6.03048265,23.2813438 6.11466016,24.6302207 L6.119736,24.793384 L6.11775168,55.05697 L6.8687903,54.8807976 C9.92912764,54.1514741 13.345341,53.2040345 17.0276145,52.0151714 C27.5519885,48.6172597 38.075328,43.9740872 47.8799981,37.9072161 C59.0345389,31.0050806 68.5123395,22.7039517 75.8365939,12.8828763 L70.1526065,13.8486755 C68.7478528,14.0874053 67.4155463,13.1421562 67.1768165,11.7374025 C66.9476359,10.388839 67.8096103,9.10704271 69.121771,8.79544387 L69.2880895,8.76161248 L80.7646641,6.81110704 C81.0143708,6.74596402 81.2712101,6.72034644 81.5258791,6.73146716 L81.7163287,6.74665257 Z" id="Growth-Chart" fill="#00B077"></path>
    </g>
</svg>