<?xml version="1.0" encoding="UTF-8"?>
<svg width="100px" height="100px" viewBox="0 0 100 100" version="1.1" xmlns="http://www.w3.org/2000/svg" xmlns:xlink="http://www.w3.org/1999/xlink">
    <!-- Generator: Sketch 63.1 (92452) - https://sketch.com -->
    <title>LineChart</title>
    <desc>Created with Sketch.</desc>
    <g id="LineChart" stroke="none" stroke-width="1" fill="none" fill-rule="evenodd">
        <path d="M3.408164,6.42 C4.77825501,6.42 5.89891065,7.48795982 5.98308816,8.83683674 L5.988164,9 L5.987164,54.84 L16.2730948,44.8822022 C17.2967909,43.8910559 18.9301434,43.9174427 19.9212898,44.9411388 C20.8693428,45.9203264 20.8864203,47.4573092 19.9902213,48.4565147 L19.8623532,48.5893338 L5.987164,62.022 L5.988,86.89 L26.948164,86.89 L26.948944,52.829728 C26.948944,51.4048333 28.1040493,50.249728 29.528944,50.249728 C30.899035,50.249728 32.0196906,51.3176878 32.1038682,52.6665647 L32.108944,52.829728 L32.108164,86.89 L56.687164,86.89 L56.687916,68.62552 C56.687916,67.2006253 57.8430213,66.04552 59.267916,66.04552 C60.638007,66.04552 61.7586626,67.1134798 61.8428402,68.4623567 L61.847916,68.62552 L61.847164,86.89 L86.428164,86.89 L86.428436,39.67104 C86.428436,38.2461453 87.5835413,37.09104 89.008436,37.09104 C90.378527,37.09104 91.4991826,38.1589998 91.5833602,39.5078767 L91.588436,39.67104 L91.588164,86.89 L95.195964,86.8902 C96.566055,86.8902 97.6867106,87.9581598 97.7708882,89.3070367 L97.775964,89.4702 C97.775964,90.840291 96.7080042,91.9609466 95.3591273,92.0451242 L95.195964,92.0502 L3.408164,92.0502 C2.03807299,92.0502 0.917417354,90.9822402 0.833239836,89.6333633 L0.828164,89.4702 L0.828164,9 C0.828164,7.57510535 1.98326935,6.42 3.408164,6.42 Z M80.3073573,20.565303 C79.247026,25.6368645 82.499669,30.6068324 87.5682322,31.6656517 C92.6387062,32.7257555 97.6058457,29.4749637 98.6687929,24.404611 C99.7071721,19.4227327 96.5861025,14.5392775 91.6705484,13.3664893 L91.4055119,13.3072316 C86.3376295,12.2466776 81.3683052,15.4979118 80.3073573,20.565303 Z M80.985063,30.8021481 C81.9682285,31.7460752 82.0414009,33.2814103 81.1822743,34.3126647 L81.0593399,34.450063 L67.7414645,48.3221417 C68.3464219,49.5618361 68.685948,50.9546363 68.685948,52.42656 C68.685948,57.6065817 64.4860759,61.80572 59.308508,61.80572 C54.1283601,61.80572 49.929348,57.6074416 49.929348,52.42656 C49.929348,47.2483845 54.129094,43.05084 59.308508,43.05084 C61.1342778,43.05084 62.8386207,43.5730531 64.2800905,44.4762475 L77.3371481,30.876425 C78.323981,29.8485701 79.9572081,29.8153152 80.985063,30.8021481 Z M59.308508,48.21084 C56.9782778,48.21084 55.089348,50.0987796 55.089348,52.42656 C55.089348,54.7574504 56.9779476,56.64572 59.308508,56.64572 C61.6364884,56.64572 63.525948,54.7565905 63.525948,52.42656 C63.525948,50.0996392 61.6361582,48.21084 59.308508,48.21084 Z M29.529288,27.544008 C34.7082091,27.544008 38.908448,31.7427793 38.908448,36.923168 C38.908448,37.592023 38.838344,38.2445301 38.7050854,38.8737514 L47.7632362,43.5490426 C49.0294426,44.2025303 49.5261492,45.7587499 48.8726614,47.0249562 C48.2453132,48.2405143 46.7860073,48.7469014 45.5500083,48.2073034 L45.3967478,48.1343814 L36.2811412,43.4300502 C34.5749781,45.1986747 32.1801862,46.298888 29.529288,46.298888 C24.349874,46.298888 20.150128,42.1013435 20.150128,36.923168 C20.150128,31.7422864 24.3491401,27.544008 29.529288,27.544008 Z M29.529288,32.704008 C27.1987276,32.704008 25.310128,34.5922776 25.310128,36.923168 C25.310128,39.2509484 27.1990578,41.138888 29.529288,41.138888 C31.8584931,41.138888 33.748448,39.2502538 33.748448,36.923168 C33.748448,34.5929724 31.8588234,32.704008 29.529288,32.704008 Z M90.3485761,18.3578244 C92.6294783,18.8338577 94.0929915,21.0697439 93.6179637,23.3488098 C93.139894,25.6292368 90.9051994,27.091754 88.6237983,26.6147726 C86.3444275,26.1386136 84.8811523,23.9027609 85.3579994,21.6220023 C85.8349908,19.3437553 88.0705662,17.881106 90.3485761,18.3578244 Z" id="Line-Chart" fill="#00B077"></path>
    </g>
</svg>