<?xml version="1.0" encoding="UTF-8"?>
<svg width="100px" height="100px" viewBox="0 0 100 100" version="1.1" xmlns="http://www.w3.org/2000/svg" xmlns:xlink="http://www.w3.org/1999/xlink">
    <!-- Generator: Sketch 63.1 (92452) - https://sketch.com -->
    <title>Beer</title>
    <desc>Created with Sketch.</desc>
    <g id="Beer" stroke="none" stroke-width="1" fill="none" fill-rule="evenodd">
        <path d="M92.9441061,0.683881172 C94.3715026,0.683881172 95.5286361,1.84101467 95.5286361,3.26841117 C95.5286361,4.64090781 94.4588011,5.76353111 93.1075559,5.84785642 L92.9441061,5.85294117 L33.782,5.852 L33.7824914,84.4829589 C33.7824914,90.2224114 36.9278047,93.6088625 43.3178066,93.7239306 L43.657119,93.7269612 L80.4883945,93.7269612 C86.9851126,93.7269612 90.2461497,90.4362837 90.356668,84.7826931 L90.3595761,84.4829589 L90.3595761,12.7415751 C90.3595761,11.3141786 91.5167096,10.1570451 92.9441061,10.1570451 C94.3166027,10.1570451 95.439226,11.2268801 95.5235514,12.5781254 L95.5286361,12.7415751 L95.5286361,84.4829589 C95.5286361,93.0127271 90.1485145,98.7456393 80.8571856,98.8931074 L80.4883945,98.8960212 L43.657119,98.8960212 C34.2556707,98.8960212 28.7574457,93.2768688 28.6162204,84.8183175 L28.6134314,84.4829589 L28.6129035,82.0078812 L18.7493142,82.0088745 C9.3514011,82.0088745 3.8480542,76.3907125 3.7066952,67.9378364 L3.70390355,67.6027042 L3.70390355,32.5323552 C3.70390355,23.9995791 9.08398148,18.2695966 18.3803226,18.1222051 L18.7493142,18.1192929 L28.6129035,18.1188812 L28.6134314,3.26841117 C28.6134314,1.89591453 29.6832663,0.773291238 31.0345116,0.688965921 L31.1979614,0.683881172 L92.9441061,0.683881172 Z M28.6129035,76.8388812 L28.6129035,23.2878812 L18.7493142,23.2883529 C12.2468533,23.2883529 8.98636868,26.576639 8.87587113,32.2324973 L8.87296355,32.5323552 L8.87296355,67.6027042 C8.87296355,73.3351547 12.0220708,76.72171 18.4101104,76.8367837 L18.7493142,76.8398145 L28.6129035,76.8388812 Z M16.5709,29.9481698 C17.9433966,29.9481698 19.0660199,31.0180047 19.1503453,32.36925 L19.15543,32.5326998 L19.15543,67.6030488 C19.15543,69.0304453 17.9982965,70.1875788 16.5709,70.1875788 C15.1984034,70.1875788 14.0757801,69.1177439 13.9914548,67.7664986 L13.98637,67.6030488 L13.98637,32.5326998 C13.98637,31.1053033 15.1435035,29.9481698 16.5709,29.9481698 Z M55.3631924,49.757903 C57.0512603,49.757903 58.4197098,51.3249064 58.4197098,53.257903 C58.4197098,55.1908996 57.0512603,56.757903 55.3631924,56.757903 L55.3631924,56.757903 L54.4762272,56.757903 C52.7881593,56.757903 51.4197098,55.1908996 51.4197098,53.257903 C51.4197098,51.3249064 52.7881593,49.757903 54.4762272,49.757903 L54.4762272,49.757903 Z M67.7758282,49.757903 C69.4638961,49.757903 70.8323456,51.3249064 70.8323456,53.257903 C70.8323456,55.1908996 69.4638961,56.757903 67.7758282,56.757903 L67.7758282,56.757903 L66.888863,56.757903 C65.2007951,56.757903 63.8323456,55.1908996 63.8323456,53.257903 C63.8323456,51.3249064 65.2007951,49.757903 66.888863,49.757903 L66.888863,49.757903 Z M61.5686486,39.2464472 C63.2567166,39.2464472 64.625166,40.8134506 64.625166,42.7464472 C64.625166,44.6794438 63.2567166,46.2464472 61.5686486,46.2464472 L61.5686486,46.2464472 L60.6816835,46.2464472 C58.9936155,46.2464472 57.625166,44.6794438 57.625166,42.7464472 C57.625166,40.8134506 58.9936155,39.2464472 60.6816835,39.2464472 L60.6816835,39.2464472 Z M55.3631924,28.7384374 C57.0512603,28.7384374 58.4197098,30.3054408 58.4197098,32.2384374 C58.4197098,34.171434 57.0512603,35.7384374 55.3631924,35.7384374 L55.3631924,35.7384374 L54.4762272,35.7384374 C52.7881593,35.7384374 51.4197098,34.171434 51.4197098,32.2384374 C51.4197098,30.3054408 52.7881593,28.7384374 54.4762272,28.7384374 L54.4762272,28.7384374 Z M67.7758282,28.7384374 C69.4638961,28.7384374 70.8323456,30.3054408 70.8323456,32.2384374 C70.8323456,34.171434 69.4638961,35.7384374 67.7758282,35.7384374 L67.7758282,35.7384374 L66.888863,35.7384374 C65.2007951,35.7384374 63.8323456,34.171434 63.8323456,32.2384374 C63.8323456,30.3054408 65.2007951,28.7384374 66.888863,28.7384374 L66.888863,28.7384374 Z M83.4237314,17.6768213 C84.8511279,17.6768213 86.0082614,18.8339548 86.0082614,20.2613513 C86.0082614,21.633848 84.9384264,22.7564713 83.5871811,22.8407966 L83.4237314,22.8458813 L40.7186807,22.8458813 C39.2912842,22.8458813 38.1341507,21.6887478 38.1341507,20.2613513 C38.1341507,18.8888547 39.2039857,17.7662314 40.555231,17.6819061 L40.7186807,17.6768213 L83.4237314,17.6768213 Z" fill="#00B077"></path>
    </g>
</svg>