<?xml version="1.0" encoding="UTF-8"?>
<svg width="100px" height="100px" viewBox="0 0 100 100" version="1.1" xmlns="http://www.w3.org/2000/svg" xmlns:xlink="http://www.w3.org/1999/xlink">
    <!-- Generator: Sketch 63.1 (92452) - https://sketch.com -->
    <title>Carton</title>
    <desc>Created with Sketch.</desc>
    <g id="Carton" stroke="none" stroke-width="1" fill="none" fill-rule="evenodd">
        <path d="M66.0723632,82.9275887 C67.4997597,82.9275887 68.6568932,84.0847222 68.6568932,85.5121187 C68.6568932,86.8846154 67.5870583,88.0072387 66.235813,88.091564 L66.0723632,88.0966487 L32.7026349,88.0966487 C31.2752384,88.0966487 30.1181049,86.9395152 30.1181049,85.5121187 C30.1181049,84.1396221 31.1879398,83.0169988 32.5391851,82.9326735 L32.7026349,82.9275887 L66.0723632,82.9275887 Z M66.0723632,28.7653165 C67.4997597,28.7653165 68.6568932,29.92245 68.6568932,31.3498465 C68.6568932,32.7223432 67.5870583,33.8449665 66.235813,33.9292918 L66.0723632,33.9343765 L32.7026349,33.9343765 C31.2752384,33.9343765 30.1181049,32.777243 30.1181049,31.3498465 C30.1181049,29.9773499 31.1879398,28.8547266 32.5391851,28.7704013 L32.7026349,28.7653165 L66.0723632,28.7653165 Z M60.7441451,6.41212341 L60.9041765,6.46954805 L72.7413239,11.1544394 C74.0685514,11.6797279 74.7186515,13.1814888 74.1933631,14.5087163 C73.6890862,15.7828547 72.2848923,16.4329524 70.9991176,16.01818 L70.8390862,15.9607554 L59.0019388,11.275864 C57.6747113,10.7505756 57.0246113,9.24881467 57.5498997,7.92158717 C58.0541766,6.64744877 59.4583705,5.99735102 60.7441451,6.41212341 Z M49.386,16.785 L32.7352732,23.0406637 C29.3848993,24.2988429 26.4805688,28.410743 26.3502843,32.0147136 L26.3457249,32.2652871 L26.3457249,87.7137937 C26.3457249,90.9494542 28.9431702,93.6204373 32.1514923,93.7401743 L32.3762949,93.7443637 L66.3990478,93.7443637 C69.6347084,93.7443637 72.3056914,91.1469184 72.4254284,87.9385963 L72.4296178,87.7137937 L72.4296178,32.2652871 C72.4296178,28.6867591 69.6014321,24.5221239 66.2730282,23.1330183 L66.0400316,23.0406495 L49.386,16.785 Z M49.3859483,0.701283674 C50.758445,0.701283674 51.8810683,1.77111864 51.9653936,3.12236393 L51.9704783,3.28581367 L51.9696649,12.2352837 L67.8573129,18.2015721 C73.2047389,20.2097123 77.4448577,26.2295442 77.5945854,31.9533964 L77.5986778,32.2652871 L77.5986778,87.7137937 C77.5986778,93.7831561 72.7208306,98.7558371 66.6872212,98.9097516 L66.3990478,98.9134237 L32.3762949,98.9134237 C26.3069325,98.9134237 21.3342515,94.0355765 21.180337,88.0019671 L21.1766649,87.7137937 L21.1766649,32.2652871 C21.1766649,26.5536218 25.3212939,20.4676555 30.6272842,18.3151287 L30.9178357,18.201645 L46.8006649,12.2362837 L46.8014183,3.28581367 C46.8014183,1.85841717 47.9585518,0.701283674 49.3859483,0.701283674 Z" fill="#00B077"></path>
    </g>
</svg>