<?xml version="1.0" encoding="UTF-8"?>
<svg width="100px" height="100px" viewBox="0 0 100 100" version="1.1" xmlns="http://www.w3.org/2000/svg" xmlns:xlink="http://www.w3.org/1999/xlink">
    <!-- Generator: Sketch 63.1 (92452) - https://sketch.com -->
    <title>ChampagneGlass</title>
    <desc>Created with Sketch.</desc>
    <g id="ChampagneGlass" stroke="none" stroke-width="1" fill="none" fill-rule="evenodd">
        <path d="M63.3388455,93.7267889 C64.766242,93.7267889 65.9233755,94.8839224 65.9233755,96.3113189 C65.9233755,97.6838155 64.8535405,98.8064388 63.5022952,98.8907641 L63.3388455,98.8958489 L36.0014102,98.8958489 C34.5740136,98.8958489 33.4168802,97.7387154 33.4168802,96.3113189 C33.4168802,94.9388222 34.4867151,93.8161989 35.8379604,93.7318736 L36.0014102,93.7267889 L63.3388455,93.7267889 Z M64.003242,0.684053474 C65.4306385,0.684053474 66.587772,1.84118697 66.587772,3.26858347 C66.587772,4.64108011 65.517937,5.76370341 64.1666917,5.84802873 L64.003242,5.85311347 L37.41,5.853 L37.2823639,6.46243778 C36.8483547,8.54689737 36.4138224,10.8706771 36.0081337,13.3718406 C35.1866946,18.436201 34.5984378,23.4935247 34.3266216,28.3605038 L60.0034234,28.3597176 C61.4308199,28.3597176 62.5879534,29.5168511 62.5879534,30.9442476 C62.5879534,32.3167443 61.5181184,33.4393676 60.1668731,33.5236929 L60.0034234,33.5287776 L34.160012,33.5292879 C34.1593078,33.6284247 34.1587572,33.7274477 34.1583611,33.8263553 C34.0869289,51.6632764 38.874004,61.7788966 49.6746077,61.7788966 C58.1780819,61.7788966 62.8725706,55.6797912 64.5425624,44.1092797 C65.8384728,35.1305847 65.122643,23.9609192 63.1740876,12.37613 C62.937326,10.9685062 63.8864974,9.63546845 65.2941212,9.39870688 C66.701745,9.1619453 68.0347827,10.1111167 68.2715443,11.5187405 C70.3013512,23.5865961 71.047297,35.226186 69.6586092,44.8476875 C67.8180752,57.5997985 62.240098,65.6424444 52.257682,66.8025686 L52.2582762,88.3339086 C52.2582762,89.7613051 51.1011427,90.9184386 49.6737462,90.9184386 C48.3012495,90.9184386 47.1786262,89.8486036 47.0943009,88.4973583 L47.0892162,88.3339086 L47.0880828,66.7976443 C40.5445815,66.0141974 35.7655572,62.1932114 32.7982224,55.922904 C30.118382,50.2601042 28.9535285,42.7485783 28.9893425,33.8056548 C29.0165185,27.0197129 29.7316165,19.783079 30.9057568,12.5442352 C31.3242564,9.96408877 31.772783,7.56547096 32.2218327,5.40877508 L32.4496573,4.33638029 L32.8107815,2.73557012 L32.8291441,2.65919172 C33.0962943,1.55810922 34.0462561,0.766521203 35.1631419,0.690115108 L35.3408043,0.684053474 L64.003242,0.684053474 Z M46.9479285,48.4825236 C48.8473858,48.4825236 50.3912117,50.0249711 50.3912117,51.9313204 C50.3912117,53.8321561 48.8473858,55.3746036 46.9479285,55.3746036 C45.0402008,55.3746036 43.4991317,53.8321561 43.4991317,51.9313204 C43.4991317,50.0249711 45.0402008,48.4825236 46.9479285,48.4825236 Z M52.6816222,39.2631605 C54.5810794,39.2631605 56.1249053,40.805608 56.1249053,42.7119573 C56.1249053,44.612793 54.5810794,46.1552405 52.6816222,46.1552405 C50.7738944,46.1552405 49.2328253,44.612793 49.2328253,42.7119573 C49.2328253,40.805608 50.7738944,39.2631605 52.6816222,39.2631605 Z" id="Champagne" fill="#00B077"></path>
    </g>
</svg>