<?xml version="1.0" encoding="UTF-8"?>
<svg width="101px" height="101px" viewBox="0 0 101 101" version="1.1" xmlns="http://www.w3.org/2000/svg" xmlns:xlink="http://www.w3.org/1999/xlink">
    <!-- Generator: Sketch 63.1 (92452) - https://sketch.com -->
    <title>FruityDrink</title>
    <desc>Created with Sketch.</desc>
    <g id="FruityDrink" stroke="none" stroke-width="1" fill="none" fill-rule="evenodd">
        <path d="M63.7818566,93.7267889 C65.2092531,93.7267889 66.3663866,94.8839224 66.3663866,96.3113189 C66.3663866,97.6838155 65.2965516,98.8064388 63.9453063,98.8907641 L63.7818566,98.8958489 L42.795473,98.8958489 C41.3680765,98.8958489 40.210943,97.7387154 40.210943,96.3113189 C40.210943,94.9388222 41.2807779,93.8161989 42.6320232,93.7318736 L42.795473,93.7267889 L63.7818566,93.7267889 Z M53.2845531,2.86804286 L53.3046949,3.03032652 L53.5562946,5.75533531 C54.0245106,5.75409509 54.4956512,5.76791711 54.9692016,5.79722506 C63.6633938,6.33522727 71.0838003,11.9992723 73.9932,20.0506804 C74.5678409,21.6409288 73.4858707,23.3455345 71.8022752,23.502405 L71.8022752,23.502405 L55.3490409,25.0350548 L56.5550409,38.0250548 L64.0964283,38.0251434 C65.2377287,30.8478713 71.4587021,25.3552876 78.9545984,25.3552876 C87.266861,25.3552876 94.0086241,32.0964073 94.0086241,40.4041443 C94.0086241,46.5601908 90.2810224,52.0200829 84.6843573,54.3259685 C83.3645893,54.869727 81.8539026,54.2406469 81.3101442,52.920879 C80.7663857,51.601111 81.3954657,50.0904243 82.7152337,49.5466659 C86.3924121,48.0316292 88.8395641,44.4472372 88.8395641,40.4041443 C88.8395641,34.9513108 84.4121784,30.5243476 78.9545984,30.5243476 C74.3241663,30.5243476 70.4326863,33.7207107 69.3669799,38.0256177 L75.4992541,38.0253429 C76.9266506,38.0253429 78.0837841,39.1824764 78.0837841,40.6098729 C78.0837841,41.9823696 77.0139491,43.1049928 75.6627038,43.1893182 L75.4992541,43.1944029 L57.0340409,43.1940548 L58.0600409,54.2520548 L67.4696363,54.2522284 C68.8970328,54.2522284 70.0541663,55.4093619 70.0541663,56.8367584 C70.0541663,58.209255 68.9843313,59.3318783 67.633086,59.4162036 L67.4696363,59.4212884 L34.1051618,59.4220534 C34.5102314,63.4087397 35.2373143,66.4303758 36.4455913,69.1064148 L36.571293,69.3798688 C39.3229065,75.260676 44.4156543,78.2768131 53.2912493,78.2768131 C62.1646256,78.2768131 67.2575903,75.2604685 70.010285,69.379535 C72.2622966,64.5682749 72.9147241,58.6862491 72.9147241,48.0567654 C72.9147241,46.6293688 74.0718576,45.4722354 75.4992541,45.4722354 C76.9266506,45.4722354 78.0837841,46.6293688 78.0837841,48.0567654 C78.0837841,59.4345607 77.3729822,65.842866 74.6918774,71.5708529 C71.3582413,78.6929255 65.2284948,82.7457531 55.8769165,83.3629725 L55.8762962,88.14989 C55.8762962,89.5772865 54.7191627,90.73442 53.2917662,90.73442 C51.9192696,90.73442 50.7966463,89.6645851 50.712321,88.3133398 L50.7072362,88.14989 L50.7070599,83.3631061 C41.3525456,82.7463418 35.2222,78.6934758 31.8893882,71.5705191 C30.0816204,67.7069192 29.1706288,63.5360528 28.7691732,57.7357844 L28.7513289,57.4731371 C28.6997827,57.2695605 28.672395,57.0563578 28.672395,56.8367584 C28.672395,56.7247807 28.6795162,56.6144663 28.6933306,56.5062434 C28.582928,54.512087 28.525673,52.3284815 28.5072205,49.9087329 L28.5004376,48.0567654 L28.5004376,40.6098729 C28.5004376,39.2373763 29.5702725,38.114753 30.9215178,38.0304277 L31.0849676,38.0253429 L35.1560409,38.0250548 L34.291,36.231 L21.6274727,30.6218229 C20.3745864,30.0668457 19.7813346,28.6377061 20.2473461,27.3696029 L20.3111434,27.2120036 C20.8661207,25.9591173 22.2952603,25.3658655 23.5633635,25.831877 L23.7209628,25.8956743 L37.2535618,31.8900609 C37.7519203,32.1108133 38.1660811,32.4826764 38.4390636,32.9504885 L38.534703,33.130308 L40.8950409,38.0250548 L51.3630409,38.0250548 L50.2020409,25.5140548 L35.0399205,26.9277687 C33.4138247,27.0792816 32.0721618,25.7080178 32.2270478,24.1097481 L32.2484586,23.9436532 C33.6539277,15.2121373 40.1822638,8.42440401 48.4246624,6.38602073 L48.1576775,3.50718503 C48.0259967,2.08587545 49.0714474,0.82692796 50.4927569,0.695247118 C51.8594008,0.568630924 53.0759317,1.53033897 53.2845531,2.86804286 Z M37.6490409,43.1930548 L33.669,43.194 L33.6694976,48.0567654 C33.6694976,50.3274201 33.6991695,52.3811722 33.7677462,54.2539512 L42.9830409,54.2520548 L37.6490409,43.1930548 Z M51.8430409,43.1930548 L43.3880409,43.1930548 L48.7220409,54.2520548 L52.8690409,54.2520548 L51.8430409,43.1930548 Z M54.6499239,10.9564152 C53.6245648,10.8929559 52.6140363,10.9248633 51.6273581,11.044702 C51.5700911,11.0554418 51.5122557,11.0627668 51.4537841,11.0681841 L51.4264495,11.0703612 C45.5151519,11.86239 40.4878085,15.8134248 38.3035177,21.3084696 L38.3035177,21.3084696 L38.253,21.437 L67.624,18.7 L67.4477289,18.421264 C64.722252,14.2292979 60.1760858,11.4128424 55.0035532,10.9820769 L55.0035532,10.9820769 Z" id="Fruity-Drink" fill="#00B077"></path>
    </g>
</svg>