<?xml version="1.0" encoding="UTF-8"?>
<svg width="100px" height="100px" viewBox="0 0 100 100" version="1.1" xmlns="http://www.w3.org/2000/svg" xmlns:xlink="http://www.w3.org/1999/xlink">
    <!-- Generator: Sketch 63.1 (92452) - https://sketch.com -->
    <title>Kettle</title>
    <desc>Created with Sketch.</desc>
    <g id="Kettle" stroke="none" stroke-width="1" fill="none" fill-rule="evenodd">
        <path d="M48.6668867,17.9717706 C60.032275,17.9717706 70.0218279,24.6809151 76.2001088,34.9645602 L75.9436208,35.1793501 C77.129506,34.161546 78.5125676,33.1494099 80.0861123,32.2063108 C84.5864752,29.5090326 89.7452111,27.8860277 95.4703128,27.8860277 C96.6085197,27.8860277 97.6049638,28.6291693 97.9383254,29.7031049 L97.9853751,29.8753626 L99.1156762,34.651574 C99.3690221,35.7221149 98.9164928,36.8282171 98.0031308,37.417712 L97.5473374,37.6886998 L97.4501686,37.7487961 C97.0866819,37.9751267 96.676384,38.2488753 96.2311912,38.5690334 C95.1085809,39.3763531 93.9836373,40.3183445 92.9193099,41.3873552 L92.3416286,41.9868051 C91.2632177,43.1458823 90.6130256,45.0640973 90.3111513,47.8070609 L90.2377814,48.5630261 C90.1632439,49.4289806 90.1263341,50.2327403 90.0899041,51.6175337 L90.0292574,53.9721753 C90.0221591,54.176783 90.014509,54.362492 90.0054239,54.553601 C89.9376436,55.9793873 88.7268686,57.0802686 87.3010823,57.0124883 C85.8752959,56.944708 84.7744146,55.733933 84.8421949,54.3081467 L84.8780499,53.3091158 L84.9405324,50.8464952 C84.9807671,49.532096 85.0287568,48.7134625 85.1267058,47.6925526 C85.4938584,43.8657655 86.4137728,40.9180945 88.3329384,38.7149756 L88.6668468,38.3488315 L88.7124408,38.300514 C89.9876754,36.9528157 91.33949,35.7693653 92.7019539,34.7479169 L93.4428348,34.2088159 L93.662,34.054 L93.445,33.138 L93.4028404,33.1419849 C89.6682932,33.4579885 86.2428669,34.6213916 83.1614935,36.394479 L82.743442,36.6400203 C81.4317359,37.4261872 80.2830081,38.266836 79.3101377,39.1018168 L78.8554555,39.5026488 C78.7826725,39.5687122 78.7152654,39.6309353 78.6532861,39.6890485 C81.2717877,45.56536 82.7533914,52.2922092 82.7533914,59.4224627 C82.7533914,63.237792 82.401473,66.6509678 81.5931156,71.7193812 L81.5931156,71.7193812 L81.0538284,75.0035585 C79.3911873,85.2133926 79.4361874,88.2094264 81.6422048,90.9596688 C82.9991612,92.6513866 81.7948055,95.1613436 79.6261101,95.1613436 L79.6261101,95.1613436 L17.7024943,95.1613436 C15.5337989,95.1613436 14.3294432,92.6513866 15.6863996,90.9596688 C17.8588823,88.2512341 17.9362602,85.3041958 16.3521504,75.4672806 L16.3521504,75.4672806 L15.9323481,72.9168173 C15.5898831,70.8370136 15.3179599,69.0328692 15.110388,67.382457 C14.0807088,68.8771993 12.6576485,70.3284236 10.8532455,71.6931925 C9.71481023,72.5542535 8.0938983,72.3293972 7.23283735,71.1909619 C6.3717764,70.0525267 6.5966327,68.4316147 7.73506795,67.5705538 C12.8654002,63.6902024 13.2596327,60.3148541 9.09206199,56.9884914 L8.87622101,56.8193943 C0.493170888,50.3709632 -1.25130234,41.4573027 3.68359817,35.3381492 C7.98028962,30.010359 15.470596,29.2003085 21.9672632,33.6324314 C22.7322194,32.4604562 23.5489296,31.339868 24.4129271,30.2757308 C24.4227488,30.2637455 24.4325637,30.2518429 24.4424823,30.2400304 C30.5996379,22.6742708 39.1509423,17.9717706 48.6668867,17.9717706 Z M48.6668867,23.1408306 C42.7250123,23.1408306 37.1707915,25.4129872 32.5498087,29.3161406 L60.404099,29.3164789 C61.8314955,29.3164789 62.988629,30.4736124 62.988629,31.9010089 C62.988629,33.2735055 61.918794,34.3961288 60.5675487,34.4804541 L60.404099,34.4855389 L27.6800565,34.4846822 C26.6925208,35.7905016 25.781094,37.1886259 24.9551597,38.6680277 C24.9268601,38.7251611 24.8956554,38.7810695 24.8622029,38.836024 C21.6420824,44.6731706 19.7477191,51.7581097 19.7477191,59.4224627 C19.7477191,63.0493029 20.1036991,66.3550818 20.9403881,71.5120803 L20.9403881,71.5120803 L21.4700815,74.7103686 C21.9085728,77.3668764 22.1738598,79.0698092 22.3359962,80.4153808 L67.890104,80.4147046 C69.3175005,80.4147046 70.474634,81.5718381 70.474634,82.9992346 C70.474634,84.3717313 69.404799,85.4943545 68.0535537,85.5786799 L67.890104,85.5837646 L22.5751719,85.5846177 C22.5205902,87.0917521 22.3265912,88.4740087 21.9722962,89.7457877 L21.9722962,89.7457877 L21.899,89.992 L75.428,89.992 L75.356591,89.7460182 C74.9272221,88.2043677 74.7334677,86.5003815 74.7381285,84.6084095 L74.7381285,84.6084095 L74.7427093,84.1684519 C74.7841838,81.8898367 74.9229787,80.5030213 75.5809015,76.4222521 L75.5809015,76.4222521 L76.4816444,70.9483347 C77.1945134,66.4830053 77.5308842,63.416833 77.5784154,60.2241516 L77.5784154,60.2241516 L77.5843314,59.4224627 C77.5843314,39.2812007 64.5018193,23.1408306 48.6668867,23.1408306 Z M7.70722997,38.5830789 C4.76208509,42.234985 5.78187868,47.7574573 11.7216058,52.4827197 L12.0278706,52.7222872 C13.1074045,53.552722 14.0118939,54.4241215 14.7443157,55.3252251 C15.2453962,49.0991269 16.8806841,43.2650087 19.4006921,38.1427715 C14.9703453,34.8977298 10.314058,35.3506771 7.70722997,38.5830789 Z M48.6455213,5.7898469 C52.4859937,5.7898469 55.6047991,8.91034819 55.6047991,12.7525707 C55.6047991,14.1799672 54.4476656,15.3371007 53.0202691,15.3371007 C51.6477724,15.3371007 50.5251491,14.2672658 50.4408238,12.9160205 L50.4357391,12.7525707 C50.4357391,11.7645123 49.6305715,10.9589069 48.6455213,10.9589069 C47.7060354,10.9589069 46.9359012,11.6832479 46.8612364,12.6054006 L46.8553035,12.7525707 C46.8553035,14.1799672 45.69817,15.3371007 44.2707735,15.3371007 C42.843377,15.3371007 41.6862435,14.1799672 41.6862435,12.7525707 C41.6862435,8.90859424 44.7999059,5.7898469 48.6455213,5.7898469 Z" fill="#00B077"></path>
    </g>
</svg>