<?xml version="1.0" encoding="UTF-8"?>
<svg width="100px" height="100px" viewBox="0 0 100 100" version="1.1" xmlns="http://www.w3.org/2000/svg" xmlns:xlink="http://www.w3.org/1999/xlink">
    <!-- Generator: Sketch 63.1 (92452) - https://sketch.com -->
    <title>Soda</title>
    <desc>Created with Sketch.</desc>
    <g id="Soda" stroke="none" stroke-width="1" fill="none" fill-rule="evenodd">
        <path d="M76.0755191,0.683364266 C77.5029156,0.683364266 78.6600491,1.84049776 78.6600491,3.26789427 C78.6600491,4.6403909 77.5902141,5.7630142 76.2389688,5.84733952 L76.0755191,5.85242427 L25.224,5.852 L25.1938165,5.95790616 C23.775453,10.8557257 22.8105436,15.0258426 22.3130673,18.8453423 L70.4147092,18.844512 C71.8421057,18.844512 72.9992392,20.0016455 72.9992392,21.429042 C72.9992392,22.8015386 71.9294042,23.9241619 70.5781589,24.0084872 L70.4147092,24.013572 L21.9232209,24.0136696 C21.8119157,30.9779972 23.5003227,37.2807594 27.0918718,45.7120302 L27.3338052,46.2765478 C29.2346078,50.6859511 30.5866829,56.0088649 31.4742195,62.0585253 C32.6576564,70.1251134 32.9294655,78.5910967 32.666777,86.2289122 L32.6114604,87.6460008 L32.5141028,89.4755839 C32.5101712,89.5355272 32.5067825,89.5849068 32.5040055,89.6234906 C32.3445024,91.8383635 33.931397,93.6157828 36.1170961,93.7214713 L36.3237246,93.7264443 L63.0494879,93.7264443 C65.2714915,93.7264443 66.930553,92.0161424 66.879072,89.8297177 L66.8295574,88.9910127 C66.8065726,88.5915664 66.7836514,88.1421442 66.7617521,87.6460008 L66.7455342,87.265184 C66.4209206,79.3615568 66.6617635,70.4917765 67.898993,62.0585253 C68.7865296,56.0088649 70.1386047,50.6859511 72.0394196,46.2765192 C77.8065061,32.8987138 78.7451849,25.0397194 75.9193809,12.6200768 C75.6027032,11.2282521 76.4742821,9.84323729 77.8661068,9.5265596 C79.2579315,9.20988191 80.6429464,10.0814608 80.9596241,11.4732855 C84.0403358,25.0132689 82.969372,33.9798067 76.7862022,48.3227929 C75.0861862,52.2664198 73.8405,57.1704967 73.0133074,62.8088387 C71.8842374,70.5048482 71.6208312,78.6653472 71.8710399,86.0095773 L71.91024,87.0530619 C71.9306224,87.5493305 71.9521269,88.0000427 71.9738049,88.401893 L72.0249153,89.2522044 C72.3985289,94.4402319 68.4782832,98.7472484 63.3175148,98.8917585 L63.0494879,98.8955043 L36.3237246,98.8955043 C31.1210873,98.8955043 27.1063288,94.6764204 27.3327786,89.5198502 L27.3831314,88.6940675 L27.4474901,87.4166699 L27.4629725,87.0530619 C27.7755047,79.4435909 27.5427403,70.8713248 26.3599052,62.8088387 C25.5327125,57.1704967 24.2870263,52.2664198 22.5870312,48.3228415 C15.3180274,31.4614568 14.9655178,21.9356363 20.8197744,2.52171826 C21.1315773,1.48771565 22.0503022,0.762940439 23.1154466,0.689512585 L23.2942474,0.683364266 L76.0755191,0.683364266 Z M61.046994,83.2322187 C62.4743905,83.2322187 63.631524,84.3893521 63.631524,85.8167487 C63.631524,87.1892453 62.5616891,88.3118686 61.2104438,88.3961939 L61.046994,88.4012787 L38.3238063,88.4012787 C36.8964098,88.4012787 35.7392763,87.2441452 35.7392763,85.8167487 C35.7392763,84.444252 36.8091112,83.3216287 38.1603565,83.2373034 L38.3238063,83.2322187 L61.046994,83.2322187 Z M50.6850555,40.6414042 C52.5882509,40.6414042 54.1310955,42.1842488 54.1310955,44.0874442 C54.1310955,45.9906395 52.5882509,47.5334842 50.6850555,47.5334842 L50.6850555,47.5334842 L49.6850555,47.5334842 C47.7818602,47.5334842 46.2390155,45.9906395 46.2390155,44.0874442 C46.2390155,42.1842488 47.7818602,40.6414042 49.6850555,40.6414042 L49.6850555,40.6414042 Z M56.53712,29.0042994 C58.4403153,29.0042994 59.98316,30.5471441 59.98316,32.4503394 C59.98316,34.3535347 58.4403153,35.8963794 56.53712,35.8963794 L56.53712,35.8963794 L55.53712,35.8963794 C53.6339246,35.8963794 52.09108,34.3535347 52.09108,32.4503394 C52.09108,30.5471441 53.6339246,29.0042994 55.53712,29.0042994 L55.53712,29.0042994 Z M44.8343688,29.0042994 C46.7375642,29.0042994 48.2804088,30.5471441 48.2804088,32.4503394 C48.2804088,34.3535347 46.7375642,35.8963794 44.8343688,35.8963794 L44.8343688,35.8963794 L43.8343688,35.8963794 C41.9311735,35.8963794 40.3883288,34.3535347 40.3883288,32.4503394 C40.3883288,30.5471441 41.9311735,29.0042994 43.8343688,29.0042994 L43.8343688,29.0042994 Z" id="Fountain-Soda" fill="#00B077"></path>
    </g>
</svg>