<?xml version="1.0" encoding="UTF-8"?>
<svg width="100px" height="100px" viewBox="0 0 100 100" version="1.1" xmlns="http://www.w3.org/2000/svg" xmlns:xlink="http://www.w3.org/1999/xlink">
    <!-- Generator: Sketch 63.1 (92452) - https://sketch.com -->
    <title>WaterGlass</title>
    <desc>Created with Sketch.</desc>
    <g id="WaterGlass" stroke="none" stroke-width="1" fill="none" fill-rule="evenodd">
        <path d="M81.8137687,0.41547 C83.2411652,0.41547 84.3982987,1.5726035 84.3982987,3 C84.3982987,4.37249664 83.3284638,5.49511993 81.9772185,5.57944525 L81.8137687,5.58453 L20.786,5.584 L27.389,93.458 L72.41,93.458 L78.3487382,12.0851824 C78.4486334,10.716326 79.5973394,9.6745465 80.9511383,9.68879324 L81.1145246,9.69561843 C82.4833811,9.79551359 83.5251606,10.9442196 83.5109138,12.2980185 L83.5040886,12.4614049 L77.3908137,96.2311912 C77.2963422,97.5257268 76.2594927,98.5399469 74.9811859,98.6222177 L74.8131385,98.62761 L24.9920152,98.62761 C23.6960946,98.62761 22.6101221,97.6702754 22.4326862,96.403667 L22.4147521,96.2367565 L15.422737,3.19367654 C15.3140785,1.74775276 16.4132207,0.507089423 17.8401483,0.420314904 L18,0.41547 L81.8137687,0.41547 Z M58.8331618,22.2294201 C60.4850007,22.2294201 61.7484289,22.6763938 63.3804499,23.6218075 L64.3148736,24.1844251 C66.8186405,25.7114226 68.0012846,25.8765659 71.0676326,24.375805 C72.3497097,23.7483187 73.8977167,24.2789695 74.525203,25.5610466 C75.1526892,26.8431237 74.6220385,28.3911307 73.3399614,29.018617 C68.6146533,31.3313217 65.651618,30.9866953 61.8932646,28.7597628 L61.0498604,28.2483788 C59.9883791,27.6106189 59.4377406,27.3984801 58.8331618,27.3984801 C57.6730343,27.3984801 56.9615863,27.6420961 55.6937938,28.4047283 L54.9452861,28.8659403 C53.1142095,29.9908087 51.7780526,30.5033621 49.8665657,30.5033621 C48.0776727,30.5033621 46.7916873,30.0534558 45.1311625,29.0725234 L44.3016709,28.5647783 C42.8641969,27.676158 42.1352795,27.3984801 40.8965236,27.3984801 C40.3799632,27.3984801 39.9055186,27.5594832 39.0940497,28.0307834 L38.1640646,28.6017659 C34.2873442,31.0252773 31.2935842,31.4446652 26.4450237,28.9955177 C25.170946,28.3519444 24.6598212,26.797381 25.3033945,25.5233032 C25.9469679,24.2492255 27.5015312,23.7381007 28.775609,24.381674 C31.7265218,25.872265 32.8834575,25.7696923 35.1964646,24.3592633 L35.9795778,23.8720275 C37.79322,22.7527866 39.1115908,22.2294201 40.8965236,22.2294201 C43.1625667,22.2294201 44.6739962,22.759759 46.6804671,23.961477 L47.4974943,24.4636408 C48.5856582,25.1314418 49.1150895,25.3343021 49.8665657,25.3343021 C50.5699559,25.3343021 51.0778707,25.1574528 52.0288084,24.5893746 L52.7128262,24.1685257 C54.8919701,22.8202623 56.441592,22.2294201 58.8331618,22.2294201 Z" id="Water-glass" fill="#00B077"></path>
    </g>
</svg>