<?xml version="1.0" encoding="UTF-8"?>
<svg width="100px" height="100px" viewBox="0 0 100 100" version="1.1" xmlns="http://www.w3.org/2000/svg" xmlns:xlink="http://www.w3.org/1999/xlink">
    <!-- Generator: Sketch 63.1 (92452) - https://sketch.com -->
    <title>CandyCane</title>
    <desc>Created with Sketch.</desc>
    <g id="CandyCane" stroke="none" stroke-width="1" fill="none" fill-rule="evenodd">
        <path d="M67.8305754,6.07144244 C77.7434145,6.97534056 86.8058548,12.465524 92.2691158,20.9360581 C99.3194065,31.8751124 99.444613,45.7313022 92.7137873,58.8283913 C89.5133027,65.0704771 81.8489426,67.5352545 75.608501,64.3314117 C69.5002819,61.1909866 67.0134273,53.7887968 69.9176127,47.6199171 C70.0084828,47.2326285 70.1873267,46.8733462 70.436236,46.5692562 C72.7149513,41.8047674 72.8123016,37.6503119 70.916016,34.7113526 C69.6275459,32.7149235 67.5172445,31.4782176 65.3076938,31.356291 C65.227147,31.3592211 65.1456019,31.3560318 65.0640524,31.348912 C64.9205261,31.3448254 64.7768316,31.3469871 64.6330284,31.3539678 C61.3210701,31.5201106 57.9983449,34.1929484 55.3522701,39.1677649 L55.155094,39.5451892 L29.2517798,89.9968059 C26.0446849,96.2346997 18.3805699,98.6966275 12.1479028,95.4925723 C5.90655792,92.2865066 3.44468448,84.6279894 6.64764372,78.3892679 C7.29957101,77.1194445 8.85745779,76.6185407 10.1272812,77.270468 C11.3971047,77.9223952 11.8980085,79.480282 11.2460812,80.7501055 C9.34681969,84.4494855 10.8072816,88.9927624 14.5104802,90.8950285 C18.1258113,92.753578 22.5594418,91.3936251 24.5291221,87.8676041 L24.6540525,87.6345861 L27.1344791,82.8017612 L16.5260614,82.423439 C15.099574,82.3725035 13.9844689,81.1748155 14.0354044,79.7483281 C14.0843809,78.3767056 15.1935945,77.2929735 16.5469883,77.2569201 L16.7105154,77.2576711 L29.7424791,77.7217612 L37.6784791,62.2657612 L27.8246678,61.9135241 C26.3981814,61.8625592 25.2831009,60.6648483 25.3340658,59.238362 C25.3830705,57.8667405 26.4923063,56.7830312 27.8457009,56.7470055 L28.0092279,56.74776 L40.2854791,57.1857612 L48.2234791,41.7257612 L39.3252746,41.4092234 C37.898781,41.3584628 36.783529,40.1609116 36.8342896,38.734418 C36.8830979,37.3627895 37.9921786,36.2789214 39.3455679,36.2427019 L39.5090951,36.243433 L50.8393372,36.6455408 C52.9047398,32.7947584 55.4553234,29.8829326 58.3308582,28.1197493 L50.9038869,24.3258408 C49.6327856,23.6764085 49.1288233,22.1195084 49.7782555,20.8484071 C50.4006281,19.6302684 51.8564217,19.1166722 53.0953993,19.6475761 L53.2556892,19.7227758 L65.9787868,26.2229757 C68.936322,26.4840737 71.7199419,27.8563173 73.7964414,30.0461767 L76.1503312,20.8258092 C76.5034772,19.4427876 77.9109191,18.6079085 79.2939407,18.9610545 C80.6216414,19.3000747 81.444174,20.610734 81.1954113,21.9386533 L81.1586953,22.1046641 L77.2677693,37.3419211 C77.5973706,39.6528036 77.3870955,42.1407427 76.6569553,44.7189127 L86.336454,42.7663661 C87.7356587,42.4840772 89.0987786,43.3895164 89.3810674,44.7887211 C89.652499,46.1341102 88.8258093,47.4461369 87.5179284,47.7960256 L87.3587124,47.8333345 L74.3279517,50.4619367 C73.0501246,53.9791905 74.5571472,57.9786597 77.9706683,59.7336574 C81.6696096,61.6326936 86.216822,60.170358 88.1152048,56.4678375 C94.0362043,44.9465359 93.9287299,33.0526946 87.9247373,23.7370501 C83.3235934,16.6031889 75.6899612,11.9786022 67.3637514,11.2193789 C66.1085054,11.1061821 64.8673392,11.0793372 63.6358003,11.1416473 C52.958606,11.6663028 43.4279844,18.4054613 37.406281,29.816147 L37.1539377,30.3010645 L15.0501148,73.339542 C14.3979773,74.6092575 12.8400076,75.1099033 11.5702921,74.4577657 C10.3534814,73.8328006 9.84298646,72.3759167 10.3765275,71.1380724 L10.4520683,70.977943 L32.5553967,27.9404287 C39.3639139,14.6715136 50.6039747,6.60670792 63.378351,5.9790039 C64.8514161,5.90447037 66.3348082,5.93655438 67.8305754,6.07144244 Z" id="Candy-Cane" fill="#00B077"></path>
    </g>
</svg>