<?xml version="1.0" encoding="UTF-8"?>
<svg width="100px" height="100px" viewBox="0 0 100 100" version="1.1" xmlns="http://www.w3.org/2000/svg" xmlns:xlink="http://www.w3.org/1999/xlink">
    <!-- Generator: Sketch 63.1 (92452) - https://sketch.com -->
    <title>ChocolateBar</title>
    <desc>Created with Sketch.</desc>
    <g id="ChocolateBar" stroke="none" stroke-width="1" fill="none" fill-rule="evenodd">
        <path d="M77.8307323,0.665789462 C81.8051143,0.665789462 85.0639281,3.84274585 85.1926908,7.78752119 L85.1966428,8.02997694 L85.1966428,36.3891631 C85.1966428,37.8165596 84.0395093,38.9736931 82.6121128,38.9736931 C81.2396162,38.9736931 80.1169929,37.9038582 80.0326676,36.5526129 L80.0275828,36.3891631 L80.0275828,8.02997694 C80.0275828,6.881596 79.116959,5.92172132 77.9862231,5.84042481 L77.8307323,5.83484946 L21.1657736,5.83484946 C20.0166875,5.83484946 19.0590331,6.74299517 18.977931,7.87437808 L18.9723691,8.02997694 L18.9726975,46.2073763 C19.2320387,46.3263288 19.4915091,46.4510703 19.7507917,46.5815258 L20.0781832,46.7493451 C23.2474436,48.4045078 25.3858743,48.4529203 28.3862617,47.3427324 L28.8352016,47.1713465 C28.9901738,47.1104835 29.1516192,47.0454549 29.3229808,46.9749665 L29.870257,46.7458282 C30.1779872,46.6150727 31.29689,46.1308955 31.5044179,46.0420882 C34.5614203,44.7339061 36.7183243,44.0501051 39.4440634,43.7301578 C43.5937968,43.2451966 46.2976122,43.9923919 51.2885359,46.359943 L51.7827595,46.5960368 C56.4144278,48.8221101 58.4782101,49.4014313 61.692082,48.9051226 C64.0748941,48.5372121 66.4316553,47.8351736 69.7427118,46.5764742 L71.6772795,45.8231613 L72.8989179,45.3374407 C78.2089609,43.2235794 80.7990281,42.3345595 84.112623,41.6937125 C89.8056891,40.5938075 94.0396384,42.1171831 94.6683546,46.3381605 C95.1717765,49.7179561 92.8312517,53.7412141 88.4238292,57.674458 L88.1055087,57.955241 L77.79668,66.7702113 C77.2551528,67.2332655 76.5489498,67.4503703 75.8459701,67.3761862 L75.6544544,67.3486981 L66.411,65.667 L52.4731423,73.6818444 C51.7303482,74.108912 50.8284526,74.1381802 50.0640052,73.770081 L49.8901692,73.6780814 L32.039,63.345 L26.0352343,68.5998118 C25.1789906,69.3489752 23.9407468,69.44588 22.9832238,68.8586029 L22.8263496,68.7543829 L15.154,63.247 L15.154846,90.9647878 C15.154846,92.4139578 16.3040559,93.6173534 17.7334882,93.7045059 L17.8996169,93.7095587 L81.0982675,93.7095587 C82.545481,93.7095587 83.7490903,92.5590368 83.8362614,91.1307707 L83.8413153,90.9647878 L83.8413153,66.0033971 C83.8413153,64.5760006 84.9984488,63.4188671 86.4258453,63.4188671 C87.7983419,63.4188671 88.9209652,64.488702 89.0052905,65.8399473 L89.0103753,66.0033971 L89.0103753,90.9647878 C89.0103753,95.2408777 85.5892975,98.7441627 81.3440797,98.8748399 L81.0982675,98.8786187 L17.8996169,98.8786187 C13.6211261,98.8786187 10.1201513,95.4568443 9.98956223,91.2106564 L9.98578601,90.9647878 L9.985,59.335 L9.74352849,59.1006573 C4.77454107,54.2162923 3.23236651,49.5452433 6.25245375,46.454417 L6.41562446,46.2932084 C8.12210058,44.6648295 10.7865946,44.1509202 13.802846,44.6078721 L13.8033091,8.02997694 C13.8033091,4.05434787 16.9781788,0.798386123 20.923294,0.669737905 L21.1657736,0.665789462 L77.8307323,0.665789462 Z M77.4844053,84.7596759 C78.9118018,84.7596759 80.0689353,85.9168094 80.0689353,87.3442059 C80.0689353,88.7167025 78.9991003,89.8393258 77.6478551,89.9236511 L77.4844053,89.9287359 L21.5103776,89.9287359 C20.0829811,89.9287359 18.9258476,88.7716024 18.9258476,87.3442059 C18.9258476,85.9717092 19.9956825,84.849086 21.3469278,84.7647606 L21.5103776,84.7596759 L77.4844053,84.7596759 Z M85.0936429,46.7688264 L84.5566372,46.8769342 C82.1603296,47.3789847 79.9902326,48.1048567 76.1538443,49.6089903 L72.5949822,51.0167827 L71.5379398,51.4240306 C67.9326164,52.7933265 65.2825669,53.5810573 62.4809105,54.0136382 C58.0737751,54.694219 55.2186053,53.9475401 50.0094393,51.4773721 L48.7379071,50.8719881 C44.8094461,49.029399 42.8864307,48.5321021 40.0453684,48.8641243 C38.0389625,49.0996365 36.3836193,49.6008649 33.9947979,50.6008988 L31.8916958,51.5032399 L31.2743008,51.7616092 C30.8836597,51.9221502 30.5295879,52.0612332 30.1800348,52.1905731 C25.9968487,53.7384141 22.4326457,53.704653 18.0724384,51.5289029 L17.2984789,51.1347333 C16.7155289,50.8469192 16.1385729,50.5992954 15.5752055,50.3926068 C15.5218213,50.3768211 15.4687956,50.3573036 15.4166182,50.3361311 C14.2960099,49.9377054 13.2323161,49.7037814 12.2864106,49.639634 C11.0721013,49.5572845 10.2640544,49.7657404 9.98412711,50.0328568 C9.95228031,50.0632461 9.94606169,50.0752531 9.93717346,50.1357715 C9.90905533,50.3272229 9.95324886,50.6431198 10.1196564,51.0841286 C10.6071204,52.3759922 11.894448,54.0748095 14.0075021,56.0247365 L14.199,56.199 L24.174,63.359 L30.0301607,58.2361993 C30.8144158,57.5500217 31.9280384,57.4057381 32.8552314,57.8535614 L33.0267695,57.9444793 L51.188,68.457 L64.6560814,60.7147785 C65.1267903,60.4441456 65.6691803,60.3294809 66.2059813,60.3841221 L66.4068687,60.4125747 L75.37,62.043 L84.7272363,54.0429744 C88.0248117,51.1674995 89.647324,48.5246447 89.5676333,47.2150436 L89.5556987,47.0996925 C89.5304344,46.9300768 89.4680221,46.8586581 89.095447,46.7246055 C88.2969061,46.4372904 86.9274513,46.4145331 85.0936429,46.7688264 Z M65.8169754,10.4587459 C67.189472,10.4587459 68.3120953,11.5285809 68.3964206,12.8798262 L68.4015054,13.0432759 L68.4010979,21.9947895 L73.2962606,21.9957432 C74.7236571,21.9957432 75.8807906,23.1528767 75.8807906,24.5802732 C75.8807906,25.9527699 74.8109556,27.0753932 73.4597103,27.1597185 L73.2962606,27.1648032 L68.4010979,27.1647895 L68.4015054,42.2932635 C68.4015054,43.72066 67.2443719,44.8777935 65.8169754,44.8777935 C64.4444787,44.8777935 63.3218554,43.8079585 63.2375301,42.4567132 L63.2324454,42.2932635 L63.2320979,27.1647895 L52.0830979,27.1647895 L52.0832999,39.5557293 C52.0832999,40.9831258 50.9261664,42.1402593 49.4987699,42.1402593 C48.1262732,42.1402593 47.0036499,41.0704243 46.9193246,39.719179 L46.9142399,39.5557293 L46.9140979,27.1647895 L35.7640979,27.1647895 L35.7650943,39.3605111 C35.7650943,40.7879076 34.6079609,41.9450411 33.1805643,41.9450411 C31.8080677,41.9450411 30.6854444,40.8752061 30.6011191,39.5239609 L30.5960343,39.3605111 L30.5950979,27.1647895 L25.6978331,27.1648032 C24.2704366,27.1648032 23.1133031,26.0076698 23.1133031,24.5802732 C23.1133031,23.2077766 24.1831381,22.0851533 25.5343833,22.000828 L25.6978331,21.9957432 L30.5950979,21.9947895 L30.5960343,13.0448267 C30.5960343,11.6174301 31.7531678,10.4602967 33.1805643,10.4602967 C34.553061,10.4602967 35.6756843,11.5301316 35.7600096,12.8813769 L35.7650943,13.0448267 L35.7640979,21.9947895 L46.9140979,21.9947895 L46.9142399,13.0436205 C46.9142399,11.616224 48.0713734,10.4590905 49.4987699,10.4590905 C50.8712665,10.4590905 51.9938898,11.5289255 52.0782151,12.8801708 L52.0832999,13.0436205 L52.0830979,21.9947895 L63.2320979,21.9947895 L63.2324454,13.0432759 C63.2324454,11.6158794 64.3895789,10.4587459 65.8169754,10.4587459 Z" fill="#00B077"></path>
    </g>
</svg>