<?xml version="1.0" encoding="UTF-8"?>
<svg width="101px" height="101px" viewBox="0 0 101 101" version="1.1" xmlns="http://www.w3.org/2000/svg" xmlns:xlink="http://www.w3.org/1999/xlink">
    <!-- Generator: Sketch 63.1 (92452) - https://sketch.com -->
    <title>Cookie</title>
    <desc>Created with Sketch.</desc>
    <g id="Cookie" stroke="none" stroke-width="1" fill="none" fill-rule="evenodd">
        <path d="M50.3727672,2.69752837 C48.9453707,2.69752837 47.7882372,3.85466187 47.7882372,5.28205837 C47.7882372,29.9393982 30.7008397,47.4960484 5.57424722,47.4960484 C4.14685072,47.4960484 2.98971722,48.6531819 2.98971722,50.0805784 C2.98971722,76.2470801 24.2079565,97.4636284 50.3727672,97.4636284 C76.5410079,97.4636284 97.7558172,76.2488191 97.7558172,50.0805784 C97.7558172,23.9123377 76.5410079,2.69752837 50.3727672,2.69752837 Z M52.895,7.942 L53.1482718,7.95638377 C75.1680174,9.38569241 92.5867572,27.6996686 92.5867572,50.0805784 C92.5867572,73.394026 73.6862149,92.2945684 50.3727672,92.2945684 L49.6748003,92.2889122 C27.6152915,91.9311439 9.66324645,74.6447841 8.248588,52.8558804 L8.234,52.603 L8.89365613,52.5703684 C34.0138565,51.1237353 51.4551765,33.2494131 52.8650084,8.54263972 L52.895,7.942 Z M71.422558,40.8562185 C71.422558,43.228817 73.3471713,45.1603225 75.7249389,45.1603225 C78.1044295,45.1603225 80.037658,43.228817 80.037658,40.8562185 C80.037658,38.4732818 78.1044295,36.5452225 75.7249389,36.5452225 C73.3471713,36.5452225 71.422558,38.4732818 71.422558,40.8562185 M52.0082578,41.5157906 C52.0082578,43.8918351 53.9328711,45.8198945 56.3106387,45.8198945 C58.6901294,45.8198945 60.6233578,43.8918351 60.6233578,41.5157906 C60.6233578,39.1328539 58.6901294,37.2047945 56.3106387,37.2047945 C53.9328711,37.2047945 52.0082578,39.1328539 52.0082578,41.5157906 M37.8843183,53.1832205 C37.8843183,55.555819 39.8123776,57.4873244 42.1901452,57.4873244 C44.5679128,57.4873244 46.4994183,55.555819 46.4994183,53.1832205 C46.4994183,50.7933917 44.5679128,48.8722244 42.1901452,48.8722244 C39.8123776,48.8722244 37.8843183,50.7933917 37.8843183,53.1832205 M21.8150891,63.8309672 C21.8150891,66.2070118 23.7379795,68.1385172 26.1174701,68.1385172 C28.4986837,68.1385172 30.4301891,66.2070118 30.4301891,63.8309672 C30.4301891,61.4480305 28.4986837,59.5234172 26.1174701,59.5234172 C23.7379795,59.5234172 21.8150891,61.4480305 21.8150891,63.8309672 M38.8669566,71.2144525 C38.8669566,73.5904971 40.7898469,75.5220025 43.1676145,75.5220025 C45.5488281,75.5220025 47.4820566,73.5904971 47.4820566,71.2144525 C47.4820566,68.8315158 45.5488281,66.9069025 43.1676145,66.9069025 C40.7898469,66.9069025 38.8669566,68.8315158 38.8669566,71.2144525 M57.108397,57.9921693 C57.108397,60.3647678 59.0381794,62.2997193 61.414224,62.2997193 C63.7937146,62.2997193 65.723497,60.3647678 65.723497,57.9921693 C65.723497,55.6092326 63.7937146,53.6846193 61.414224,53.6846193 C59.0381794,53.6846193 57.108397,55.6092326 57.108397,57.9921693 M59.3917431,25.0192525 C59.3917431,27.391851 61.3163564,29.3233564 63.6958471,29.3233564 C66.0736147,29.3233564 68.0068431,27.391851 68.0068431,25.0192525 C68.0068431,22.6294237 66.0736147,20.7082564 63.6958471,20.7082564 C61.3163564,20.7082564 59.3917431,22.6294237 59.3917431,25.0192525 M73.970043,61.1387484 C73.970043,63.514793 75.8929333,65.4462984 78.272424,65.4462984 C80.6501916,65.4462984 82.585143,63.514793 82.585143,61.1387484 C82.585143,58.7523657 80.6501916,56.8311984 78.272424,56.8311984 C75.8929333,56.8311984 73.970043,58.7523657 73.970043,61.1387484 M56.5413511,76.9085167 C56.5413511,79.2845613 58.4676875,81.2160667 60.8437321,81.2160667 C63.2249457,81.2160667 65.1564511,79.2845613 65.1564511,76.9085167 C65.1564511,74.52558 63.2249457,72.6009667 60.8437321,72.6009667 C58.4676875,72.6009667 56.5413511,74.52558 56.5413511,76.9085167 M12.8650341,30.0437511 C12.8650341,32.4197957 14.7913704,34.3478551 17.170861,34.3478551 C19.5434596,34.3478551 21.4801341,32.4197957 21.4801341,30.0437511 C21.4801341,27.6608144 19.5434596,25.7327551 17.170861,25.7327551 C14.7913704,25.7327551 12.8650341,27.6608144 12.8650341,30.0437511" fill="#00B077"></path>
    </g>
</svg>