<?xml version="1.0" encoding="UTF-8"?>
<svg width="100px" height="100px" viewBox="0 0 100 100" version="1.1" xmlns="http://www.w3.org/2000/svg" xmlns:xlink="http://www.w3.org/1999/xlink">
    <!-- Generator: Sketch 63.1 (92452) - https://sketch.com -->
    <title>Croissant</title>
    <desc>Created with Sketch.</desc>
    <g id="Croissant" stroke="none" stroke-width="1" fill="none" fill-rule="evenodd">
        <path d="M14.8873301,80.5415362 C16.6598173,84.3565435 21.1519682,88.4868402 26.3210723,91.2122673 C31.0416566,93.7012108 35.1712675,94.3414323 36.3943544,93.2925755 C36.703159,93.0277447 36.8985723,92.8084384 37.0030006,92.6390131 L37.0491889,92.5556696 C37.0578985,92.5363373 37.061067,92.5239986 37.0621309,92.5142874 L37.0775596,92.3975025 C37.0827025,92.2326613 36.9259877,91.9648166 35.5391775,89.35902 C34.313386,87.0557753 33.6240369,85.0547402 33.4484761,82.5913444 C33.347006,81.1675591 34.4189543,79.9310953 35.8427396,79.8296253 C37.2665249,79.7281552 38.5029887,80.8001035 38.6044588,82.2238888 C38.7125862,83.741087 39.1222132,85.0160996 39.9129703,86.5674066 L40.1798546,87.0754227 L40.8026231,88.2044144 C41.1075569,88.7572131 41.3127325,89.1503184 41.4987775,89.5536095 C42.0672277,90.7858429 42.3310322,91.885263 42.2004468,93.0772188 C42.0301765,94.6314083 41.1966629,95.9837079 39.7593102,97.2163816 C33.2229211,102.821655 15.0995269,93.2660355 10.1995256,82.719533 C9.59808836,81.4250315 10.159928,79.8880695 11.4544294,79.2866323 C12.7489309,78.6851951 14.2858929,79.2470347 14.8873301,80.5415362 Z M5.17571198,49.9539131 C6.55891713,50.3063394 7.39452848,51.7133467 7.04210217,53.0965519 L6.96789112,53.4122571 C6.9510896,53.4871645 6.93225979,53.5728871 6.91168401,53.66893 L6.78450763,54.2944185 C6.72122721,54.6223475 6.65877053,54.9724012 6.59876703,55.3416436 C6.20172791,57.7848958 6.03222544,60.2760696 6.21426702,62.5496852 C6.59207351,67.2683145 8.2867131,69.9066492 11.7908183,70.3862336 L15.7451954,70.8075345 C22.1716006,71.4803229 26.5653539,71.8604154 30.9322966,72.0610009 L32.353364,72.1199275 C35.6335082,72.2438254 37.3917424,70.3614773 38.5195514,66.1180316 C38.8861918,64.7385261 40.3017228,63.9174367 41.6812284,64.2840771 C43.0607339,64.6507175 43.8818233,66.0662485 43.5151829,67.4457541 C41.8368446,73.7605978 38.3269028,77.5183067 32.1608967,77.2854024 L30.6982684,77.2247774 C26.3750749,77.0264094 22.0604062,76.6597035 15.9233009,76.0231499 L11.4958307,75.5567129 C4.86700211,74.8563652 1.62425855,69.9883774 1.06169649,62.9622361 C0.841989074,60.2181916 1.03830439,57.3329501 1.49663574,54.512525 L1.5949706,53.9307975 C1.75826794,53.0017369 1.91621266,52.2789585 2.03307323,51.8203033 C2.38549954,50.4370982 3.79250683,49.6014868 5.17571198,49.9539131 Z M38.9866542,2.66155672 C44.1178583,2.63161499 47.7811939,5.48461743 49.8617649,9.76358337 C51.1400341,12.3853134 52.523919,15.7501703 54.2154471,20.2501451 L54.2154471,20.2501451 L54.9650138,22.2633277 C55.235645,22.9964663 55.5174299,23.7660053 55.8221616,24.603499 L55.8221616,24.603499 L58.0176868,30.6781159 L59.5475489,34.8690676 C59.808589,35.5732683 60.0529833,36.225162 60.2867291,36.8402642 L60.2867291,36.8402642 L60.6972664,37.9110646 C62.3119627,42.0845453 60.7334879,45.1620605 56.6463352,48.8695698 C56.5289213,48.9760775 56.4094643,49.0834251 56.2830546,49.1960613 L56.2830546,49.1960613 L54.134957,51.0828354 C53.7219619,51.4512403 53.3766354,51.7687712 53.0605927,52.0725706 L53.0605927,52.0725706 L52.6929411,52.4329161 C52.1544516,52.9711684 51.6191704,53.5552986 50.8711234,54.4084271 L50.8711234,54.4084271 L49.8074272,55.6258653 L49.1201177,56.3971222 C45.416721,60.4795711 42.3397667,62.0566259 38.1676086,60.4430035 C36.5531168,59.8177188 34.7226584,59.1368884 32.3372894,58.2693916 L32.3372894,58.2693916 L25.3767514,55.7520008 C24.0091233,55.2551367 22.8278751,54.821886 21.7065175,54.404969 L21.7065175,54.404969 L19.9928118,53.7625826 C16.1195046,52.2978057 13.1108345,51.0653579 10.6992901,49.9278386 L10.6992901,49.9278386 L10.0262947,49.6052975 C5.74327369,47.5213284 2.88994648,43.8587577 2.91893783,38.7282394 C2.9535741,32.5987554 7.20010049,25.1321496 16.2921057,16.0384987 C25.3881467,6.9449262 32.8563939,2.69732817 38.9866542,2.66155672 Z M39.0168163,7.83039339 C34.5256237,7.85673584 28.1734023,11.4695894 19.9471004,19.6936587 L19.9471004,19.6936587 L19.5329907,20.1101981 C11.6034975,28.1320807 8.11285641,34.3436905 8.08778845,38.7574481 C8.07154278,41.6548478 9.64092212,43.669325 12.289078,44.957826 C14.6430406,46.1046871 17.7284102,47.3801236 21.8441302,48.9363268 L21.8441302,48.9363268 L23.9265995,49.7153467 C24.7708,50.0281181 25.6585205,50.35378 26.64254,50.712053 L26.64254,50.712053 L32.9425558,52.9907482 L36.4958507,54.2877424 C37.2328685,54.5600788 37.9148752,54.8147484 38.5576936,55.0578817 L38.5576936,55.0578817 L40.0333175,55.6223904 C41.614413,56.2338943 42.8754835,55.5875482 45.2916282,52.9241049 C45.3887541,52.8170379 45.4876011,52.7070225 45.5923025,52.5894831 L45.5923025,52.5894831 L47.4998489,50.4175726 C48.0703475,49.7783397 48.544442,49.2710429 49.0382662,48.7774363 L49.0382662,48.7774363 L49.2506728,48.5670682 C49.8210994,48.0075309 50.4309721,47.4523079 51.2572949,46.7276439 L51.2572949,46.7276439 L53.0105707,45.1880008 L53.4103764,44.8241598 C55.879241,42.5442463 56.4701122,41.3106779 55.8765321,39.7764604 C55.3280542,38.3592448 54.7418315,36.7902524 54.0325617,34.8491327 L54.0325617,34.8491327 L52.0391797,29.3407614 L50.116294,24.0547248 L49.1793205,21.5448051 C47.6307366,17.4492119 46.3590812,14.3743282 45.2143211,12.0264221 C43.9285892,9.38214883 41.9145536,7.81361977 39.0168163,7.83039339 Z M63.2199164,0.805476604 C70.1262944,1.35970574 74.9471303,4.5034909 75.7738575,10.9069357 L76.2032903,14.9280327 C76.9043294,21.608741 77.2948669,26.145502 77.5003426,30.7634605 L77.5469177,31.8992753 C77.7738439,38.0677192 74.0206702,41.5761326 67.7096634,43.2599194 C66.3305094,43.6278799 64.9141932,42.8081456 64.5462327,41.4289916 C64.1782721,40.0498376 64.9980064,38.6335214 66.3771605,38.2655609 C70.6202406,37.1335002 72.5022,35.3742713 72.3813973,32.0905307 L72.3570601,31.4734459 C72.183396,27.2977585 71.8557233,23.2253602 71.2740886,17.5130145 L70.6726129,11.7843015 C70.2845596,8.11135612 67.6344088,6.34541207 62.8064343,5.95797249 C60.5324706,5.77548943 58.0409132,5.94467876 55.5974482,6.3414661 C54.9825259,6.44132157 54.4208853,6.54798058 53.9261014,6.6539107 L53.4074955,6.77089672 C53.3868419,6.77592919 53.3690753,6.7803496 53.3542574,6.78412273 C51.9710006,7.13634607 50.5641159,6.30052827 50.2118926,4.91727142 C49.8596692,3.53401458 50.695487,2.12712991 52.0787439,1.77490657 L52.5609044,1.65976766 C53.1112047,1.53547951 53.861245,1.38663366 54.7689122,1.23924017 C57.5896588,0.781187147 60.47539,0.585231423 63.2199164,0.805476604 Z M82.9765625,9.94165717 C93.5282753,14.8383693 103.082605,32.9607315 97.4727373,39.5036428 C96.2420096,40.9388216 94.8914897,41.7717484 93.3393925,41.9430748 C92.1469892,42.0746969 91.0469145,41.8113944 89.8144047,41.2432687 C89.5261968,41.1104192 89.2431245,40.9677463 88.9035454,40.7860252 L87.3361085,39.9247265 L87.1913286,39.8471817 C85.5937043,38.9969186 84.3135859,38.5347065 82.8313518,38.3807424 L82.4854734,38.3506478 C81.0616181,38.2501655 79.9888122,37.0144457 80.0892945,35.5905903 C80.1897768,34.166735 81.4254966,33.0939291 82.849352,33.1944114 C85.159562,33.3574443 87.0628735,33.973268 89.1910055,35.0603948 L92.1232734,36.6101152 C92.6408812,36.8723087 92.6166637,36.8223963 92.7722564,36.8052214 L92.8135748,36.7922668 C92.8328857,36.7835567 92.8591826,36.7693122 92.89681,36.7461057 C93.0658888,36.6418272 93.2846921,36.4468221 93.548728,36.138924 C94.6005974,34.9121057 93.9616772,30.7816717 91.4726707,26.0605996 C88.7478561,20.892254 84.6170011,16.4014759 80.8006528,14.6304308 C79.5058837,14.0295699 78.94336,12.4928582 79.5442208,11.1980891 C80.1450817,9.90332004 81.6817934,9.34079629 82.9765625,9.94165717 Z" fill="#00B077"></path>
    </g>
</svg>