<?xml version="1.0" encoding="UTF-8"?>
<svg width="100px" height="100px" viewBox="0 0 100 100" version="1.1" xmlns="http://www.w3.org/2000/svg" xmlns:xlink="http://www.w3.org/1999/xlink">
    <!-- Generator: Sketch 63.1 (92452) - https://sketch.com -->
    <title>GingerbreadMan</title>
    <desc>Created with Sketch.</desc>
    <g id="GingerbreadMan" stroke="none" stroke-width="1" fill="none" fill-rule="evenodd">
        <path d="M49.7943031,0.669235502 C37.8585077,0.669235502 29.1944705,6.67154638 26.1714801,16.0911475 L26.0435878,16.503159 C24.0202382,23.248479 25.2064753,30.7548171 29.2031714,37.0971729 L29.299,37.246 L19.4169201,35.9220416 C7.75861832,34.3346974 1.35343616,42.0629757 6.00429289,50.4466902 C8.13654374,54.2892285 11.2844708,55.8891534 18.6072532,57.9132381 L21.7885809,58.772761 C25.0555578,59.6721519 26.6545508,60.2427316 28.1647302,61.0935769 C29.8729668,62.0570463 29.372103,65.0459494 26.1078701,70.2826461 C25.3281302,71.533556 24.4234417,72.8540714 23.3774037,74.2836401 L22.647307,75.2662752 C21.1664054,77.2236887 17.9421254,81.320825 17.6924354,81.651573 C13.5848991,87.0914191 14.48637,93.4816559 19.2168068,96.9008589 C23.9091067,100.292496 30.406729,99.3570761 34.8794082,94.0303174 L35.553894,93.2344859 C41.341472,86.4689269 45.6391673,83.1252804 49.7895157,83.1329683 C54.1090677,83.1249847 58.5779441,86.7310881 64.7095139,94.0306934 C69.1828682,99.3570925 75.6804895,100.292477 80.372513,96.9008102 C85.0250991,93.5376506 85.9731138,87.3001065 82.093998,81.9196567 L81.8270072,81.56148 C81.2419475,80.8050561 77.7980052,76.4246164 76.6095538,74.8231274 C75.3931918,73.1840278 74.3582932,71.6892844 73.4813957,70.2825892 C70.216851,65.0456951 69.7158147,62.0569474 71.4249133,61.0929922 L71.7624244,60.9083874 C73.3503472,60.0660843 75.1603767,59.4762249 78.9529611,58.4599503 L79.6451167,58.2753753 C87.9302766,56.06962 91.326636,54.5152601 93.584162,50.4469631 C98.1907041,42.1476562 91.9575419,34.4892752 80.5220765,35.8769039 L70.285,37.247 L70.3801227,37.0985701 C74.4522166,30.6276635 75.5911054,22.9428117 73.3809509,16.0878252 C70.3458161,6.67409031 61.688866,0.669235502 49.7943031,0.669235502 Z M49.7943031,5.8382955 C59.4915879,5.8382955 66.1298533,10.4428987 68.4612748,17.6740054 C70.7168412,24.6698408 68.4850986,32.9298752 62.3561729,38.8091897 C60.5920807,40.5014361 61.9483477,43.4355448 64.3270087,43.2529865 L67.0786645,42.890307 L80.8735975,41.0432233 C88.5688821,39.9954681 91.5063495,43.5392885 89.064485,47.9386367 C87.8587913,50.1114224 85.4663235,51.3076587 79.5468878,52.9462658 L76.7165117,53.7098049 C72.827391,54.7709619 70.9248706,55.4417126 68.8865848,56.5900966 C65.9450001,58.2491908 64.8519874,61.1335342 65.4255434,64.5548715 C65.8424538,67.0417969 67.1069174,69.8280848 69.0948393,73.0170553 C69.9471257,74.38427 70.9199987,75.8045636 72.0341376,77.327503 L72.7918915,78.3479737 C74.3124696,80.3596852 77.5591351,84.4856457 77.7704006,84.7656059 C80.1453485,87.9108858 79.7094981,91.0019421 77.3443268,92.7116254 C74.8849639,94.4893958 71.4268693,93.9915752 68.6676516,90.7061895 C61.5166766,82.1929869 56.2609317,77.9519299 49.7895157,77.9639171 C43.3276746,77.9519299 38.0719296,82.1929869 30.9210917,90.7060264 C28.1623356,93.99158 24.7044466,94.4893897 22.2448583,92.7115767 C19.9344039,91.0415591 19.4646673,88.0537953 21.6566454,84.9854904 L21.9255143,84.626735 C22.5943045,83.7669878 25.918707,79.5367015 27.1293362,77.9054348 C28.4233695,76.161785 29.5353126,74.5557856 30.4944974,73.0169983 C32.4822609,69.8280975 33.7466093,67.0417054 34.1633668,64.5547069 C34.736687,61.1334204 33.6435418,58.2491545 30.7030586,56.5906813 L30.2673996,56.3514874 C28.3818992,55.3439487 26.48343,54.6951701 22.8720955,53.7098054 L20.4415983,53.0561772 C14.229201,51.3603429 11.756614,50.1597169 10.5242599,47.9388864 C8.11827228,43.6018117 10.9373757,40.0969466 18.390324,41.0014198 L35.0997656,43.2361454 C37.5766119,43.5665883 39.0339698,40.5392192 37.2308239,38.8092987 C31.096951,32.9245208 28.8501015,24.6604424 31.0932936,17.6706831 C33.4138724,10.4397881 40.0558981,5.8382955 49.7943031,5.8382955 Z M49.2618883,62.3574867 C47.360292,62.3574867 45.8199852,63.8974854 45.8199852,65.8055948 C45.8199852,67.705432 47.360292,69.2495667 49.2618883,69.2495667 C51.1662425,69.2495667 52.7120652,67.705432 52.7120652,65.8055948 C52.7120652,63.8974854 51.1662425,62.3574867 49.2618883,62.3574867 Z M49.2601669,47.2455675 C47.3593313,47.2455675 45.8182622,48.7838798 45.8182622,50.692986 C45.8182622,52.5910648 47.3593313,54.1376475 49.2601669,54.1376475 C51.1651378,54.1376475 52.7103422,52.5910648 52.7103422,50.692986 C52.7103422,48.7838798 51.1651378,47.2455675 49.2601669,47.2455675 Z M41.7990132,28.0099493 C40.7898464,27.0004725 39.1534126,27.0002212 38.1439358,28.0093879 C37.1344591,29.0185546 37.1342077,30.6549885 38.1433745,31.6644653 C44.7610502,38.2841741 55.4879213,38.2841741 62.1108541,31.665307 C63.1204857,30.6562952 63.1209881,29.0198614 62.1119763,28.0102298 C61.1029645,27.0005982 59.4665307,27.0000957 58.4568991,28.0091076 C53.8526335,32.6105467 46.3981976,32.6105467 41.7990132,28.0099493 Z M41.4548863,15.1694826 C39.5540507,15.1694826 38.01436,16.7077949 38.01436,18.616901 C38.01436,20.5163583 39.5540507,22.0615626 41.4548863,22.0615626 C43.3612357,22.0615626 44.90644,20.5163583 44.90644,18.616901 C44.90644,16.7077949 43.3612357,15.1694826 41.4548863,15.1694826 Z M58.6954235,15.1694826 C56.7894554,15.1694826 55.24456,16.7077949 55.24456,18.616901 C55.24456,20.5163583 56.7894554,22.0615626 58.6954235,22.0615626 C60.5958791,22.0615626 62.13664,20.5163583 62.13664,18.616901 C62.13664,16.7077949 60.5958791,15.1694826 58.6954235,15.1694826 Z" id="Gingerbread-Man" fill="#00B077"></path>
    </g>
</svg>