<?xml version="1.0" encoding="UTF-8"?>
<svg width="100px" height="100px" viewBox="0 0 100 100" version="1.1" xmlns="http://www.w3.org/2000/svg" xmlns:xlink="http://www.w3.org/1999/xlink">
    <!-- Generator: Sketch 63.1 (92452) - https://sketch.com -->
    <title>IceCream</title>
    <desc>Created with Sketch.</desc>
    <g id="IceCream" stroke="none" stroke-width="1" fill="none" fill-rule="evenodd">
        <path d="M19.8155599,50.6507886 C21.1014411,51.1243213 21.7850735,52.512498 21.401299,53.8078626 L21.3477341,53.9692269 L7.359,91.953 L45.3443318,77.9658247 C46.6302131,77.492292 48.0508837,78.1055478 48.5988877,79.3404341 L48.6627701,79.4979989 C49.1363028,80.7838802 48.523047,82.2045508 47.2881607,82.7525548 L47.1305959,82.8164372 L3.89313203,98.7388651 C1.87366706,99.4825439 -0.0913037583,97.5833622 0.524958135,95.5680586 L0.574693732,95.4204268 L16.4971216,52.1829629 C16.9903848,50.8435032 18.4761002,50.1575254 19.8155599,50.6507886 Z M34.8828307,11.6139272 C49.4612129,-2.96445498 73.1023351,-2.95873019 87.7125035,11.6517977 C102.092089,26.4404831 101.765767,50.0799085 86.982711,64.4501647 C81.9228064,69.3718857 75.706787,72.6827686 68.9771578,74.1544782 L68.9771578,74.1544782 L68.699,74.212 L68.3583401,74.5949479 C62.480171,81.0503711 56.1923,82.2187176 51.0292463,78.5703639 L51.0292463,78.5703639 L50.784243,78.3929939 C47.9720385,76.3080149 45.8305883,72.8363582 44.9589603,69.470589 L44.9589603,69.470589 L44.949,69.433 L44.5616252,69.5834747 C42.0746283,70.5151706 39.518724,70.8426442 36.9987954,70.2679096 L36.9987954,70.2679096 L36.6382447,70.1794203 C34.7208059,69.6753184 32.9658574,68.6495217 31.4697941,67.1097732 C30.0034879,65.6438938 29.0261347,63.9740422 28.5227235,62.1589003 C27.7347304,59.317646 28.1323547,56.4253633 29.288202,53.6303942 L29.288202,53.6303942 L29.31,53.578 L29.0477743,53.5048208 C25.8834602,52.5817363 22.6519082,50.5320846 20.6323066,47.8800955 L20.6323066,47.8800955 L20.4344337,47.6129082 C16.613059,42.3039603 17.8591984,35.8906469 24.6184043,29.9729717 L24.6184043,29.9729717 L24.866,29.759 L24.9370853,29.4453402 C26.4093033,23.1686643 29.486199,17.3643324 33.9722054,12.556713 L33.9722054,12.556713 L34.4266446,12.0782388 Z M84.0319762,15.2810657 C71.465505,2.71459452 51.0972504,2.70966227 38.5542591,15.2525059 L38.5542591,15.2525059 L38.114424,15.700319 L37.7281427,16.1082594 C33.7492522,20.3813724 31.0652165,25.5552851 29.8551573,31.1314533 L29.8551573,31.1314533 L29.834,31.233 L29.8341471,31.2788708 C29.8187363,31.9045832 29.5568993,32.5414487 28.9603876,33.0738188 L28.9603876,33.0738188 L28.8365968,33.1788653 C23.2242028,37.7099122 22.3677417,41.4506662 24.6297035,44.5931578 C26.560743,47.2759066 30.7739224,49.1923138 33.0588182,48.8341796 L33.0588182,48.8341796 L33.214571,48.8141728 C35.4299483,48.5925431 36.8946817,51.1444529 35.514175,52.9547549 L35.514175,52.9547549 L35.4486634,53.0451732 L35.2063381,53.4089987 C34.9365518,53.8308135 34.6640166,54.3119092 34.4098468,54.8375019 C33.3998934,56.9259644 33.0099372,58.9968624 33.5037675,60.7774582 C33.7679955,61.7301812 34.2872041,62.6172722 35.1504866,63.4806829 C36.0178395,64.3731393 36.9458498,64.9155768 37.9525478,65.1802415 C39.706136,65.6412665 41.7444792,65.2635711 43.7965624,64.299519 C44.3159094,64.055534 44.7912325,63.7940252 45.2079633,63.5352335 L45.2079633,63.5352335 L45.3193599,63.4653082 C45.3889262,63.4211491 45.449014,63.3820339 45.4991301,63.3487322 L45.4991301,63.3487322 L45.7831541,63.1516897 C47.6253378,61.9400291 50.0874904,63.4791145 49.7483159,65.7071198 L49.7483159,65.7071198 L49.7269309,65.8448347 C49.4122079,68.1947198 51.25845,72.3098103 53.8627873,74.2406757 C56.8960996,76.4895849 60.5305818,75.7793786 64.9820772,70.6121744 L64.9820772,70.6121744 L65.153,70.408 L65.2199678,70.3167026 C65.3633032,70.1285332 65.539219,69.9529794 65.7499654,69.7955868 L65.7499654,69.7955868 L65.8806109,69.7033749 C66.2828236,69.4351249 66.6920208,69.2936304 67.0892255,69.253468 L67.0892255,69.253468 L67.186,69.246 L67.4063024,69.2031716 C73.1935932,68.0270714 78.5535849,65.2809419 82.9561192,61.1485078 L82.9561192,61.1485078 L83.3791642,60.7442732 C96.1151113,48.363963 96.396253,27.9974714 84.0319762,15.2810657 Z M76.6581531,17.622777 C77.7114442,18.5861245 77.784358,20.2209332 76.8210104,21.2742244 C75.8576629,22.3275155 74.2228542,22.4004292 73.169563,21.4370817 C68.44949,17.1200695 62.4075321,15.9337763 56.4357177,17.6563432 C50.9688742,19.2332516 46.412333,23.0864713 44.8070763,27.3731788 C44.3065015,28.7099232 42.81706,29.3877725 41.4803156,28.8871977 C40.1435712,28.3866229 39.4657218,26.8971813 39.9662966,25.5604369 C42.1774637,19.6556949 48.0396176,14.6983893 55.0031128,12.6897725 C62.640841,10.4866736 70.5546791,12.0404965 76.6581531,17.622777 Z" id="IcecreamCone" fill="#00B077"></path>
    </g>
</svg>