<?xml version="1.0" encoding="UTF-8"?>
<svg width="100px" height="100px" viewBox="0 0 100 100" version="1.1" xmlns="http://www.w3.org/2000/svg" xmlns:xlink="http://www.w3.org/1999/xlink">
    <!-- Generator: Sketch 63.1 (92452) - https://sketch.com -->
    <title>Lollipop</title>
    <desc>Created with Sketch.</desc>
    <g id="Lollipop" stroke="none" stroke-width="1" fill="none" fill-rule="evenodd">
        <path d="M50.1174837,76.4659191 C51.4899803,76.4659191 52.6126036,77.5357541 52.6969289,78.8869994 L52.7020137,79.0504491 L52.7020137,96.2927103 C52.7020137,97.7201068 51.5448802,98.8772403 50.1174837,98.8772403 C48.744987,98.8772403 47.6223637,97.8074053 47.5380384,96.45616 L47.5329537,96.2927103 L47.5329537,79.0504491 C47.5329537,77.6230526 48.6900872,76.4659191 50.1174837,76.4659191 Z M50.1174837,0.668373992 C70.1038172,0.668373992 86.3009037,16.8625916 86.3009037,36.8466249 C86.3009037,56.8323821 70.1038163,73.0283219 50.1174837,73.0283219 C30.1322994,73.0283219 13.9340637,56.8318076 13.9340637,36.8466249 C13.9340637,16.8631661 30.1322985,0.668373992 50.1174837,0.668373992 Z M50.1174837,5.83743399 C35.1851595,5.83743399 22.7198902,16.3842491 19.7665435,30.4354512 C23.3388139,25.0898547 28.7318008,20.6065841 35.132795,17.7991795 C47.6331009,12.3166851 60.626247,14.6415628 67.984879,25.3762779 C76.3955144,37.6455032 72.7976115,49.8819515 61.6960229,55.7697584 C51.1068897,61.3857808 38.7633301,58.4040843 35.2130191,47.2442171 C33.2050544,40.9137178 36.2290011,34.5862228 41.7198957,32.1324783 C47.6038371,29.503091 53.785222,32.3657297 56.3873337,39.8237657 C56.8575542,41.1714873 56.1461991,42.6452205 54.7984776,43.1154411 C53.450756,43.5856617 51.9770228,42.8743066 51.5068022,41.526585 C49.881774,36.8690145 46.8903183,35.4836524 43.8288246,36.8517579 C40.6906997,38.254108 38.9437636,41.9095062 40.1394907,45.6792718 C42.5828123,53.3594825 51.257408,55.4549082 59.2741118,51.203192 C67.7403237,46.7130761 70.3230458,37.929252 63.7213852,28.298914 C57.9056829,19.8150127 47.6073921,17.9723284 37.2089769,22.5329571 C27.1527512,26.9435053 20.1246497,36.088776 20.2729289,45.3137826 C23.9573949,58.3275408 35.922848,67.8592619 50.1174837,67.8592619 C67.2491053,67.8592619 81.1318437,53.9775071 81.1318437,36.8466249 C81.1318437,19.7175896 67.2492292,5.83743399 50.1174837,5.83743399 Z" fill="#00B077"></path>
    </g>
</svg>