<?xml version="1.0" encoding="UTF-8"?>
<svg width="100px" height="100px" viewBox="0 0 100 100" version="1.1" xmlns="http://www.w3.org/2000/svg" xmlns:xlink="http://www.w3.org/1999/xlink">
    <!-- Generator: Sketch 63.1 (92452) - https://sketch.com -->
    <title>Popsicle</title>
    <desc>Created with Sketch.</desc>
    <g id="Popsicle" stroke="none" stroke-width="1" fill="none" fill-rule="evenodd">
        <path d="M16.5498921,73.3038198 C17.5153303,74.269258 17.5573059,75.8084623 16.6758189,76.8237932 L16.5498921,76.9588972 L8.34659393,85.1621954 C6.71727481,86.7915145 6.71694617,89.4281701 8.34599757,91.0572217 C9.92354008,92.6337352 12.4403631,92.6865927 14.0775913,91.2171721 L14.2437475,91.0597328 L22.4470458,82.8547116 C23.4562615,81.8452839 25.0926954,81.845112 26.1021231,82.8543278 C27.0676627,83.8196646 27.1097999,85.3588645 26.2284195,86.3742879 L26.1025069,86.5094051 L17.8990168,94.7146183 C14.2514826,98.3621526 8.34241875,98.3614161 4.69151655,94.7128953 C1.11186083,91.1332396 1.0450292,85.3770727 4.48893466,81.7159801 L4.69151655,81.507118 L12.8948148,73.3038198 C13.9041365,72.2944981 15.5405704,72.2944981 16.5498921,73.3038198 Z M55.1470033,5.78594764 C59.6392764,1.61900781 66.8073196,1.75355449 71.1396456,6.08588048 L71.1396456,6.08588048 L93.3200821,28.2663169 C97.6524081,32.5986429 97.7869547,39.7666861 93.6200789,44.2588903 L93.6200789,44.2588903 L79.452716,59.5346929 C79.3988959,59.5986728 79.342101,59.6598833 79.2825841,59.7181436 L53.1208643,87.9232635 C48.9028363,92.4728692 41.8357471,92.6056802 37.4471606,88.2193498 L37.4471606,88.2193498 L11.1844199,61.956609 C6.79913546,57.5690688 6.93264279,50.5023151 11.4806539,46.2836739 L11.4806539,46.2836739 Z M40.3178849,26.5896229 L14.9957806,50.0735374 C12.5963636,52.2991871 12.5266823,55.9875267 14.8399671,58.3020016 L14.8399671,58.3020016 L41.101768,84.5638026 C43.4173034,86.8781475 47.1052618,86.8088401 49.3306382,84.4085279 L49.3306382,84.4085279 L72.5841845,59.3373433 C69.7286254,58.3745197 67.5601034,57.0029426 65.9369942,55.1911907 C64.2413877,53.2985156 63.451715,51.5963101 62.4227608,48.2174877 L61.9717673,46.6998209 C61.0730667,43.6828626 60.3488601,42.1587565 58.9548424,40.7643622 C57.5484389,39.3583541 55.9870647,38.4817927 52.7278156,37.1132522 L51.110982,36.4391404 C47.7504933,35.020223 46.0902645,34.1162169 44.2914004,32.5243446 C42.5055747,30.9440105 41.1787516,28.9970096 40.3178849,26.5896229 Z M41.8251242,35.3936787 C42.7672133,36.3819144 42.7723911,37.9216822 41.8668901,38.9156562 L41.7377705,39.0477121 L23.2514889,56.6707606 C22.2183334,57.655672 20.5823669,57.6165625 19.5974555,56.583407 C18.6553664,55.5951713 18.6501886,54.0554034 19.5556896,53.0614294 L19.6848092,52.9293736 L38.1710908,35.306325 C39.2042463,34.3214136 40.8402128,34.3605232 41.8251242,35.3936787 Z M67.4845682,9.74095786 C65.1175022,7.37389185 61.1169191,7.2987995 58.66213,9.57581115 L58.66213,9.57581115 L44.6041393,22.6150908 C45.4135554,27.4271028 47.3779726,29.2283853 53.1963655,31.7070574 L54.3256346,32.1789213 C58.4476489,33.8897505 60.5241343,35.0240857 62.6099095,37.1092746 C64.6818468,39.1817715 65.7229132,41.2879767 66.8010771,44.8112301 L67.3436232,46.6324368 C68.1698338,49.3548463 68.7228025,50.5541588 69.7870067,51.7420481 C71.1340895,53.245693 73.2398948,54.3575586 76.5448441,55.0666813 L89.8302872,40.7436861 C92.107163,38.2890435 92.0320707,34.2884603 89.6650047,31.9213943 L89.6650047,31.9213943 Z M66.8050442,14.778861 C67.8143659,15.7881827 67.8143659,17.4246166 66.8050442,18.4339384 C65.8834895,19.355493 64.4391439,19.4356282 63.4266691,18.6743439 L63.326,18.593 L54.8214401,27.0990059 C53.8560019,28.0644441 52.3167976,28.1064197 51.3014667,27.2249327 L51.1663627,27.0990059 C50.2009245,26.1335678 50.1589489,24.5943634 51.040436,23.5790325 L51.1663627,23.4439286 L59.7314951,14.8787961 C61.8948341,12.7154572 64.8771002,12.850917 66.8050442,14.778861 Z" id="Popsixle" fill="#00B077"></path>
    </g>
</svg>