<?xml version="1.0" encoding="UTF-8"?>
<svg width="100px" height="100px" viewBox="0 0 100 100" version="1.1" xmlns="http://www.w3.org/2000/svg" xmlns:xlink="http://www.w3.org/1999/xlink">
    <!-- Generator: Sketch 63.1 (92452) - https://sketch.com -->
    <title>Airplane</title>
    <desc>Created with Sketch.</desc>
    <g id="Airplane" stroke="none" stroke-width="1" fill="none" fill-rule="evenodd">
        <path d="M78.3255715,5.64457433 C83.2503598,0.726209646 91.0271813,0.318466571 95.6384515,4.9319645 C100.251315,9.54482819 99.841496,17.320591 94.9195508,22.2425362 L94.9195508,22.2425362 L80.75254,36.4104885 L96.1918779,85.6616588 C96.5630465,86.8456818 96.0380725,88.1172063 94.9607913,88.7009862 L94.8104983,88.7762569 L83.9091383,93.8038169 C82.7100892,94.3568021 81.2974167,93.9133659 80.6228041,92.7992841 L80.5390749,92.6501926 L63.8533549,60.5257526 C63.1965643,59.2612563 63.6892071,57.7037456 64.9537034,57.0469549 C66.1676198,56.4164359 67.6515784,56.8452348 68.3494391,57.9992929 L68.4325011,58.1473034 L83.984,88.087 L90.589,85.04 L76.63554,40.5274885 L42.74254,74.4224885 L42.743188,97.161908 C42.743188,98.531999 41.6752282,99.6526546 40.3263513,99.7368322 L40.163188,99.741908 L32.099828,99.741908 C31.0724298,99.741908 30.1492829,99.1332899 29.7393706,98.2034609 L29.6724441,98.0360976 L25.1350841,85.4370976 C24.6522825,84.0964905 25.3476713,82.6183257 26.6882784,82.1355241 C27.9752612,81.6720346 29.3890172,82.2943653 29.9272105,83.5309767 L29.9898519,83.6887184 L33.913,94.581 L37.583,94.581 L37.5835183,78.1301511 C33.9808843,79.6250902 29.9276048,79.4535113 26.7164035,77.5050453 L21.9964228,82.2202559 C20.988459,83.2273973 19.3548935,83.2267306 18.3477521,82.2187668 C17.3843995,81.2546276 17.3431246,79.7181041 18.2234801,78.704912 L18.3492412,78.5700961 L23.0662429,73.8561379 C21.1148712,70.6440657 20.9410997,66.5912157 22.4359327,62.9880507 L5.989,62.988 L5.989,66.659 L16.8824362,70.5814905 C18.1694751,71.0448245 18.8619915,72.425557 18.488325,73.7214093 L18.4360295,73.8828762 C17.9726955,75.1699151 16.591963,75.8624315 15.2961107,75.488765 L15.1346438,75.4364695 L2.53564377,70.9008295 C1.56887616,70.5527932 0.90642271,69.6673206 0.835800622,68.6534988 L0.82954,68.47334 L0.82954,60.40826 C0.82954,59.038169 1.89749982,57.9175134 3.24637674,57.8333358 L3.40954,57.82826 L26.14254,57.8274885 L60.03654,23.9334885 L15.53,9.983 L12.484,16.588 L42.4241446,32.1389469 C43.6380611,32.7694659 44.1406373,34.2300886 43.5978148,35.464675 L43.5244931,35.6177446 C42.8939741,36.8316611 41.4333514,37.3342373 40.198765,36.7914148 L40.0456954,36.7180931 L7.92125538,20.0323731 C6.74942151,19.4237121 6.23413424,18.0355535 6.70117939,16.8197029 L6.76769598,16.6621692 L11.795256,5.76252915 C12.3149438,4.63585736 13.5574917,4.04582214 14.7477956,4.33618245 L14.9097132,4.38126632 L64.15354,19.8164885 Z M91.98934,8.58019489 C89.4828003,6.07244427 84.9619092,6.3094771 81.9730811,9.29440586 L81.9730811,9.29440586 L29.0395196,62.2296866 C26.0482134,65.2248928 25.8113519,69.7425167 28.3210915,72.2510445 C30.8261654,74.7561184 35.34756,74.516725 38.3394812,71.5287038 L38.3394812,71.5287038 L91.2708205,18.5939245 C94.2585261,15.6062189 94.4966819,11.0875369 91.98934,8.58019489 Z M19.667499,31.9417171 C20.3116113,30.7349583 21.7777861,30.2488174 23.0061984,30.8054708 L23.1584349,30.880507 L25.8846349,32.335627 C27.1416753,33.0065773 27.6167952,34.5695225 26.945845,35.8265629 C26.3017327,37.0333217 24.8355579,37.5194626 23.6071456,36.9628092 L23.4549091,36.887773 L20.7287091,35.432653 C19.4716687,34.7617027 18.9965488,33.1987575 19.667499,31.9417171 Z M64.7477231,73.6250066 C65.9547981,72.9814872 67.4432762,73.3943243 68.1534907,74.5408212 L68.2381374,74.6879311 L69.6915374,77.4141311 C70.3618701,78.6715009 69.8859826,80.2342126 68.6286129,80.9045454 C67.4215379,81.5480648 65.9330598,81.1352277 65.2228453,79.9887308 L65.1381986,79.8416209 L63.6847986,77.1154209 C63.0144659,75.8580511 63.4903534,74.2953394 64.7477231,73.6250066 Z" fill="#00B077"></path>
    </g>
</svg>