<?xml version="1.0" encoding="UTF-8"?>
<svg width="100px" height="100px" viewBox="0 0 100 100" version="1.1" xmlns="http://www.w3.org/2000/svg" xmlns:xlink="http://www.w3.org/1999/xlink">
    <!-- Generator: Sketch 63.1 (92452) - https://sketch.com -->
    <title>Bus</title>
    <desc>Created with Sketch.</desc>
    <g id="Bus" stroke="none" stroke-width="1" fill="none" fill-rule="evenodd">
        <path d="M81.037359,92.867512 C82.4705379,92.867512 83.632359,94.0293331 83.632359,95.462512 C83.632359,96.8405687 82.5581901,97.9677397 81.2014709,98.0524067 L81.037359,98.057512 L74.736699,98.057512 C73.3035201,98.057512 72.141699,96.8956909 72.141699,95.462512 C72.141699,94.0844553 73.2158679,92.9572843 74.5725871,92.8726173 L74.736699,92.867512 L81.037359,92.867512 Z M86.265246,25.595078 C87.6433027,25.595078 88.7704737,26.6692469 88.8551407,28.0259661 L88.860246,28.190078 L88.860246,75.654358 C88.860246,83.2820992 82.7124884,89.5310136 75.121927,89.6985102 L74.809186,89.701958 L25.787906,89.701958 C18.1591072,89.701958 11.9112218,83.5565243 11.7437532,75.9670548 L11.740306,75.654358 L11.740306,28.190078 C11.740306,26.7568991 12.9021271,25.595078 14.335306,25.595078 C15.7133627,25.595078 16.8405337,26.6692469 16.9252007,28.0259661 L16.930306,28.190078 L16.930306,75.654358 C16.930306,80.4338661 20.7798269,84.3691363 25.5280391,84.5081576 L25.787906,84.511958 L74.809186,84.511958 C79.5899846,84.511958 83.527348,80.6611695 83.6664436,75.914157 L83.670246,75.654358 L83.670246,28.190078 C83.670246,26.7568991 84.8320671,25.595078 86.265246,25.595078 Z M26.368321,71.918077 C28.753991,71.918077 30.691591,73.855677 30.691591,76.246537 C30.691591,78.632207 28.753991,80.568077 26.368321,80.568077 C23.984381,80.568077 22.041591,78.632207 22.041591,76.246537 C22.041591,73.855677 23.984381,71.918077 26.368321,71.918077 Z M74.236383,71.918077 C76.625513,71.918077 78.561383,73.855677 78.561383,76.246537 C78.561383,78.632207 76.625513,80.568077 74.236383,80.568077 C71.850713,80.568077 69.909653,78.632207 69.909653,76.246537 C69.909653,73.855677 71.850713,71.918077 74.236383,71.918077 Z M76.785365,62.752883 C78.2185439,62.752883 79.380365,63.9147041 79.380365,65.347883 C79.380365,66.7259397 78.3061961,67.8531107 76.9494769,67.9377777 L76.785365,67.942883 L23.819685,67.942883 C22.3865061,67.942883 21.224685,66.7810619 21.224685,65.347883 C21.224685,63.9698263 22.2988539,62.8426553 23.6555731,62.7579883 L23.819685,62.752883 L76.785365,62.752883 Z M76.785365,16.764293 C78.2185439,16.764293 79.380365,17.9261141 79.380365,19.359293 C79.380365,20.7373497 78.3061961,21.8645207 76.9494769,21.9491877 L76.785365,21.954293 L23.819685,21.954293 C22.3865061,21.954293 21.224685,20.7924719 21.224685,19.359293 C21.224685,17.9812363 22.2988539,16.8540653 23.6555731,16.7693983 L23.819685,16.764293 L76.785365,16.764293 Z M25.867313,92.867512 C27.3004919,92.867512 28.462313,94.0293331 28.462313,95.462512 C28.462313,96.8405687 27.3881441,97.9677397 26.0314249,98.0524067 L25.867313,98.057512 L19.563193,98.057512 C18.1300141,98.057512 16.968193,96.8956909 16.968193,95.462512 C16.968193,94.0844553 18.0423619,92.9572843 19.3990811,92.8726173 L19.563193,92.867512 L25.867313,92.867512 Z M74.808321,4.722628 C81.6015579,4.722628 87.3031401,9.5980057 88.5895271,16.0252206 L88.618,16.18 L90.182831,16.180418 C95.2809202,16.180418 99.4581258,20.2668668 99.6006519,25.3311127 L99.604411,25.598538 L99.604411,40.011168 C99.604411,41.4443469 98.4425899,42.606168 97.009411,42.606168 C95.6313543,42.606168 94.5041833,41.5319991 94.4195163,40.1752799 L94.414411,40.011168 L94.414411,25.598538 C94.414411,23.3489781 92.6187943,21.4864482 90.3927427,21.3756333 L90.182831,21.370418 L86.266111,21.370418 C84.8329321,21.370418 83.671111,20.2085969 83.671111,18.775418 C83.671111,13.9948562 79.8172177,10.0555957 75.0682268,9.91643226 L74.808321,9.912628 L25.788771,9.912628 C20.922188,9.912628 16.929441,13.9070387 16.929441,18.775418 C16.929441,20.1534747 15.8552721,21.2806457 14.4985529,21.3653127 L14.334441,21.370418 L10.417721,21.370418 C8.16458476,21.370418 6.30053419,23.1646228 6.18963043,25.388803 L6.184411,25.598538 L6.184411,40.011168 C6.184411,41.4443469 5.02258993,42.606168 3.589411,42.606168 C2.21135434,42.606168 1.08418327,41.5319991 0.999516347,40.1752799 L0.994411,40.011168 L0.994411,25.598538 C0.994411,20.5005768 5.08407565,16.3265893 10.1501982,16.1841742 L10.417721,16.180418 L11.981,16.18 L12.0109,16.025104 C13.2769282,9.69656934 18.8215827,4.87299721 25.4760424,4.72607748 L25.788771,4.722628 L74.808321,4.722628 Z" fill="#00B077"></path>
    </g>
</svg>