<?xml version="1.0" encoding="UTF-8"?>
<svg width="100px" height="100px" viewBox="0 0 100 100" version="1.1" xmlns="http://www.w3.org/2000/svg" xmlns:xlink="http://www.w3.org/1999/xlink">
    <!-- Generator: Sketch 63.1 (92452) - https://sketch.com -->
    <title>Car</title>
    <desc>Created with Sketch.</desc>
    <g id="Car" stroke="none" stroke-width="1" fill="none" fill-rule="evenodd">
        <path d="M64.0364119,69.1129328 C65.4613066,69.1129328 66.6164119,70.2680381 66.6164119,71.6929328 C66.6164119,73.0630238 65.5484521,74.1836794 64.1995752,74.2678569 L64.0364119,74.2729328 L39.2566609,74.2729328 C37.8317662,74.2729328 36.6766609,73.1178274 36.6766609,71.6929328 C36.6766609,70.3228418 37.7446207,69.2021861 39.0934976,69.1180086 L39.2566609,69.1129328 L64.0364119,69.1129328 Z M49.1725648,17.7342878 C55.7147193,17.7342878 60.099394,19.3007557 65.0920554,25.2924024 L67.0152375,27.6788054 L69.9246986,31.3588594 C72.6576793,34.8099786 74.404768,36.9223806 76.0369139,38.6868631 C76.8142795,39.5281172 78.0058482,40.2874451 80.0452004,41.2651224 L80.9488153,41.6872117 C81.7275473,42.0417983 83.4689996,42.8215004 83.7473706,42.9480876 C85.0452455,43.5382868 86.0807574,44.0370291 87.0937255,44.5720708 C91.0651154,46.6697274 94.1162497,49.0739591 96.546833,52.3888936 C97.2891361,53.4018907 97.8572889,54.5874129 98.2879393,55.9093505 C98.700962,57.1771778 98.9679435,58.5059268 99.1237862,59.8300292 L99.1780668,60.3353226 C99.2322222,60.8946555 99.2554152,61.3451018 99.2603305,61.6523224 C99.2790728,63.0770842 98.1398516,64.2478582 96.7150898,64.2673193 C95.3451266,64.286032 94.2099894,63.2334777 94.1073968,61.8858762 L94.0883635,61.4217982 C94.0742761,61.1740948 94.0466158,60.8363967 93.9991587,60.4331817 C93.880305,59.4233523 93.6783367,58.4181695 93.3817182,57.5076604 C93.1090158,56.6705646 92.7720683,55.9674815 92.385123,55.4394296 C90.4710407,52.8289216 88.0174323,50.8955281 84.6837727,49.1347156 L84.0691187,48.8166201 C83.4435327,48.4993173 82.7778439,48.1805536 82.0062854,47.825778 L78.5535723,46.2656267 C75.5205554,44.8642168 73.6930756,43.7535214 72.248069,42.1897552 L71.8433737,41.7481113 C70.3522366,40.1056655 68.76409,38.1898118 66.5109199,35.3578459 L61.708043,29.3058735 L61.3722205,28.8921735 C57.4559186,24.0835187 54.5446236,22.9421782 49.5043302,22.8957874 L32.1961028,22.8942878 C27.1863286,22.8942878 25.0141416,23.5844394 22.8405761,25.9359496 L22.5916029,26.2149009 C22.1960939,26.6814321 21.0204866,28.144814 19.2888743,30.3218536 L16.3719214,33.9994771 L11.2743527,40.4554024 L11.0619385,40.7042779 L10.900725,40.9063422 C10.8431848,40.9810294 10.7820003,41.0630214 10.7176452,41.1522362 C10.3315985,41.6874092 9.93872715,42.3316118 9.56836989,43.0796914 C8.55619027,45.1241792 7.92263604,47.4949654 7.8516026,50.1811106 L7.84492077,50.6884558 L7.84492077,61.68756 C7.84492077,63.1124546 6.68981542,64.2678043 5.26492077,64.2678043 C3.89482975,64.2678043 2.77417412,63.1996002 2.6899966,61.8507232 L2.68492077,61.68756 L2.68492077,50.6884558 C2.68492077,46.9605354 3.53038161,43.6457598 4.94405597,40.7902983 C5.44488903,39.7786724 5.98543585,38.8923221 6.53280735,38.133506 C6.74050365,37.8455786 6.92700279,37.6057585 7.08546303,37.4145256 L7.31236235,37.1463122 L12.3259785,30.7969865 L17.63845,24.1228495 C18.225324,23.3955019 18.6202795,22.9150592 18.8066697,22.7033236 C22.0959348,19.0147724 25.5569109,17.7887444 31.7683063,17.7360758 L32.1961028,17.7342878 L49.1725648,17.7342878 Z M43.018532,45.2402292 C44.4434267,45.2402292 45.598532,46.3953346 45.598532,47.8202292 C45.598532,49.1903202 44.5305722,50.3109759 43.1816953,50.3951534 L43.018532,50.4002292 L27.7513786,50.4002292 C26.326484,50.4002292 25.1713786,49.2451239 25.1713786,47.8202292 C25.1713786,46.4501382 26.2393384,45.3294826 27.5882153,45.2453051 L27.7513786,45.2402292 L43.018532,45.2402292 Z M80.5272353,60.9824033 C85.5526377,60.9824033 89.7669439,64.4411105 90.9192172,69.1123357 L96.6786338,69.1129328 C98.1035285,69.1129328 99.2586338,70.2680381 99.2586338,71.6929328 C99.2586338,73.0630238 98.190674,74.1836794 96.8417971,74.2678569 L96.6786338,74.2729328 L90.9166043,74.273408 C89.760321,78.9344374 85.5470948,82.3877964 80.5272353,82.3877964 C74.616066,82.3877964 69.8219278,77.5993326 69.8219278,71.6894515 C69.8219278,65.7714163 74.6137766,60.9824033 80.5272353,60.9824033 Z M22.8770644,60.9824033 C28.7903612,60.9824033 33.5806313,65.7712556 33.5806313,71.6894515 C33.5806313,77.599493 28.7880722,82.3877964 22.8770644,82.3877964 C17.8570678,82.3877964 13.642682,78.9343218 12.4860522,74.2733557 L3.57023366,74.2729328 C2.14533901,74.2729328 0.990233664,73.1178274 0.990233664,71.6929328 C0.990233664,70.3228418 2.05819349,69.2021861 3.4070704,69.1180086 L3.57023366,69.1129328 L12.4834385,69.112388 C13.6360573,64.4412265 17.8515243,60.9824033 22.8770644,60.9824033 Z M22.8770644,66.1424033 C19.8127115,66.1424033 17.3317569,68.6218896 17.3317569,71.6894515 C17.3317569,74.7481744 19.8143174,77.2277964 22.8770644,77.2277964 C25.9393085,77.2277964 28.4206313,74.748677 28.4206313,71.6894515 C28.4206313,68.6213869 25.9409137,66.1424033 22.8770644,66.1424033 Z M80.5272353,66.1424033 C77.4628823,66.1424033 74.9819278,68.6218896 74.9819278,71.6894515 C74.9819278,74.7481744 77.4644882,77.2277964 80.5272353,77.2277964 C83.5894794,77.2277964 86.0708022,74.748677 86.0708022,71.6894515 C86.0708022,68.6213869 83.5910846,66.1424033 80.5272353,66.1424033 Z M51.8152044,28.97273 C53.1852954,28.97273 54.3059511,30.0406898 54.3901286,31.3895667 L54.3952044,31.55273 L54.395,45.24 L69.0771313,45.2407514 C70.4472223,45.2407514 71.5678779,46.3087112 71.6520555,47.6575882 L71.6571313,47.8207514 C71.6571313,49.1908424 70.5891715,50.3114981 69.2402946,50.3956756 L69.0771313,50.4007514 L51.8152044,50.4007514 C50.4451134,50.4007514 49.3244578,49.3327916 49.2402803,47.9839147 L49.2352044,47.8207514 L49.2352044,31.55273 C49.2352044,30.1278353 50.3903098,28.97273 51.8152044,28.97273 Z M43.018532,28.97273 C44.4434267,28.97273 45.598532,30.1278353 45.598532,31.55273 C45.598532,32.922821 44.5305722,34.0434766 43.1816953,34.1276541 L43.018532,34.13273 L29.593,34.132 L19.0680172,48.4213896 C18.2581557,49.520835 16.741104,49.7916178 15.6063553,49.0684952 L15.4606022,48.9685248 C14.3611568,48.1586632 14.090374,46.6416115 14.8134966,45.5068628 L14.913467,45.3611098 L26.2119613,30.0225901 C26.6608255,29.4132246 27.3523825,29.0342862 28.1010005,28.9795937 L28.2892364,28.97273 L43.018532,28.97273 Z" fill="#00B077"></path>
    </g>
</svg>