<?xml version="1.0" encoding="UTF-8"?>
<svg width="100px" height="100px" viewBox="0 0 100 100" version="1.1" xmlns="http://www.w3.org/2000/svg" xmlns:xlink="http://www.w3.org/1999/xlink">
    <!-- Generator: Sketch 63.1 (92452) - https://sketch.com -->
    <title>Train</title>
    <desc>Created with Sketch.</desc>
    <g id="Train" stroke="none" stroke-width="1" fill="none" fill-rule="evenodd">
        <path d="M79.499749,70.036921 C79.499749,72.422591 77.563879,74.358461 75.176479,74.358461 C72.792539,74.358461 70.849749,72.422591 70.849749,70.036921 C70.849749,67.646061 72.792539,65.708461 75.176479,65.708461 C77.563879,65.708461 79.499749,67.646061 79.499749,70.036921 M73.7168835,89.3941145 C74.6187642,88.3582515 76.1617421,88.2110021 77.2400972,89.0288194 L77.3780265,89.1409705 L83.6510065,94.6025805 C84.731907,95.5436734 84.8452435,97.182823 83.9041505,98.2637235 C83.0022698,99.2995865 81.4592919,99.4468359 80.3809368,98.6290186 L80.2430075,98.5168675 L73.9700275,93.0552575 C72.889127,92.1141646 72.7757905,90.475015 73.7168835,89.3941145 Z M20.969524,70.036921 C20.969524,72.422591 22.907124,74.358461 25.296254,74.358461 C27.681924,74.358461 29.622984,72.422591 29.622984,70.036921 C29.622984,67.646061 27.681924,65.708461 25.296254,65.708461 C22.907124,65.708461 20.969524,67.646061 20.969524,70.036921 M23.0935742,89.1412033 C24.1743461,88.1999627 25.8135112,88.3130752 26.7547517,89.3938472 C27.6567739,90.429587 27.5904753,91.9781565 26.6321581,92.9338255 L26.5021078,93.0550247 L20.2308578,98.5166347 C19.1500859,99.4578753 17.5109208,99.3447628 16.5696803,98.2639908 C15.6676581,97.228251 15.7339567,95.6796815 16.6922739,94.7240125 L16.8223242,94.6028133 L23.0935742,89.1412033 Z M57.505221,9.704901 C58.9383999,9.704901 60.100221,10.8667221 60.100221,12.299901 C60.100221,13.6779577 59.0260521,14.8051287 57.6693329,14.8897957 L57.505221,14.894901 L42.966301,14.894901 C41.5331221,14.894901 40.371301,13.7330799 40.371301,12.299901 C40.371301,10.9218443 41.4454699,9.79467327 42.8021891,9.71000635 L42.966301,9.704901 L57.505221,9.704901 Z M62.064809,0.544724 C74.9763101,0.544724 82.9788104,7.95798909 86.0283849,22.5773181 C86.0345375,22.6028789 86.0400621,22.6277538 86.0452224,22.6527359 C86.2164945,23.4853875 86.3729767,24.3417152 86.5134238,25.2213211 L86.5134238,25.2213211 L88.1544091,35.4900658 C88.4858767,37.5886725 88.8027329,39.6156773 89.1086404,41.5981015 L89.1086404,41.5981015 L89.8034025,46.1502825 L90.3180354,49.5997251 C91.8029607,59.6665813 92.6754103,66.6687203 92.7661687,69.8982696 L92.7661687,69.8982696 L92.774039,70.419424 C92.774039,78.426988 85.9465425,85.377004 77.812999,85.377004 L77.812999,85.377004 L22.660599,85.377004 C14.5244605,85.377004 7.697829,78.4278686 7.697829,70.419424 C7.697829,67.3600285 8.64785977,59.7263539 10.3279432,48.4256477 L10.3279432,48.4256477 L10.9979468,43.9788368 C11.295064,42.0309804 11.601366,40.0509206 11.9217089,38.0039421 L11.9217089,38.0039421 L12.7199762,32.9449352 L14.0359374,24.7281267 C16.7380219,8.68445921 24.8776475,0.544724 38.407059,0.544724 L38.407059,0.544724 Z M17.6055805,35.2857696 L17.4398815,36.3212712 C17.1747097,38.001622 16.9197814,39.6301282 16.6726262,41.224451 L16.6726262,41.224451 L16.1286023,44.7614437 L15.5539323,48.5685567 C13.9544747,59.2864817 12.9894083,66.8771001 12.8954013,69.9625484 L12.8954013,69.9625484 L12.887829,70.419424 C12.887829,75.5819692 17.4116832,80.187004 22.660599,80.187004 L22.660599,80.187004 L77.812999,80.187004 C83.0593198,80.187004 87.584039,75.5810886 87.584039,70.419424 C87.584039,68.0053575 86.8213514,61.6374378 85.4873872,52.4356123 L85.4873872,52.4356123 L84.671394,46.9239673 L83.9792347,42.3888607 C83.7352918,40.8080024 83.4843091,39.1983508 83.2244261,37.5461765 L83.2244261,37.5461765 L82.8673283,35.2889286 C76.1649716,54.5314574 63.7961569,67.658344 50.235069,67.658344 C36.6751702,67.658344 24.3054819,54.5286033 17.6055805,35.2857696 Z M62.064809,5.734724 L38.407059,5.734724 C28.2799695,5.734724 22.2270555,11.156608 19.6198971,23.1585092 L19.5141718,22.6538867 C24.2935377,45.8953572 37.1735659,62.468344 50.235069,62.468344 C63.2011319,62.468344 75.9854607,46.1443531 80.8526649,23.1733981 C78.2491953,11.1608906 72.1959693,5.734724 62.064809,5.734724 L62.064809,5.734724 Z" fill="#00B077"></path>
    </g>
</svg>