<?xml version="1.0" encoding="UTF-8"?>
<svg width="100px" height="100px" viewBox="0 0 100 100" version="1.1" xmlns="http://www.w3.org/2000/svg" xmlns:xlink="http://www.w3.org/1999/xlink">
    <!-- Generator: Sketch 63.1 (92452) - https://sketch.com -->
    <title>Van</title>
    <desc>Created with Sketch.</desc>
    <g id="Van" stroke="none" stroke-width="1" fill="none" fill-rule="evenodd">
        <path d="M13.5092,8.889732 L57.98324,8.889732 C65.8820192,8.889732 68.8677947,9.96405448 73.2300459,14.2582221 L73.4784781,14.5047414 C74.1381662,15.1659237 76.78412,18.456413 81.1733661,24.0268996 L84.935341,28.81458 L90.6390008,36.110705 L92.7897885,38.8727674 L93.0453565,39.1919827 C93.2490613,39.4540849 93.5044164,39.7993037 93.7984719,40.2221548 C94.5174076,41.2559826 95.2331611,42.4252294 95.9013245,43.7127634 C97.7487304,47.2726681 98.8971247,51.0523848 98.9934929,54.9339653 L99.00008,55.463892 L99.00008,69.015772 C99.00008,70.4406667 97.8449747,71.5957737 96.42008,71.5957737 C95.049989,71.5957737 93.9293334,70.5278122 93.8451558,69.1789353 L93.84008,69.015772 L93.84008,55.463892 C93.84008,52.3208794 92.9008866,49.1333446 91.3213155,46.0895506 C90.7606464,45.0091553 90.1597937,44.0276092 89.5621231,43.1681604 L89.3168188,42.8217701 C89.1640316,42.6102283 89.0324327,42.4363913 88.920163,42.2938676 L82.5000666,34.0736792 L76.5215399,26.4618509 C72.7578035,21.6930197 70.2543195,18.5788906 69.8277445,18.1513475 L69.4178533,17.7466093 C66.4039626,14.8122743 64.6714264,14.1306089 59.1413863,14.0568629 L57.98324,14.049732 L13.5092,14.049732 C9.11439934,14.049732 6.26562779,16.7898237 6.15118141,20.6425384 L6.14759958,20.8847671 L6.12007958,69.0172471 C6.11926489,70.4421416 4.96349929,71.5965863 3.53860487,71.5957737 C2.16851408,71.5949882 1.04846924,70.5263878 0.965062968,69.177463 L0.960080422,69.0142969 L0.9876,20.883292 C0.9876,14.1509604 6.02481538,9.04640982 13.1775808,8.893272 L13.5092,8.889732 Z M57.794212,17.577796 C59.164303,17.577796 60.2849586,18.6457558 60.3691362,19.9946327 L60.374212,20.157796 L60.374,47.428 L86.015972,47.428396 C87.386063,47.428396 88.5067186,48.4963558 88.5908962,49.8452327 L88.595972,50.008396 C88.595972,51.378487 87.5280122,52.4991426 86.1791353,52.5833202 L86.015972,52.588396 L57.794212,52.588396 C56.424121,52.588396 55.3034654,51.5204362 55.2192878,50.1715593 L55.214212,50.008396 L55.214212,20.157796 C55.214212,18.7329013 56.3693173,17.577796 57.794212,17.577796 Z M76.108428,64.32688 C82.6080019,64.32688 88.0224421,68.9642883 89.2241527,75.1126829 L96.42008,75.113 C97.8449747,75.113 99.00008,76.2681053 99.00008,77.693 C99.00008,79.063091 97.9321202,80.1837466 96.5832433,80.2679242 L96.42008,80.273 L89.2239247,80.2735319 C88.0216738,86.4198281 82.6068924,91.0574 76.108428,91.0574 C69.6097868,91.0574 64.1938067,86.4196725 62.9912717,80.273476 L35.5998954,80.2733286 C34.3971548,86.4192615 28.9803779,91.0574 22.482784,91.0574 C15.9841428,91.0574 10.5681627,86.4196725 9.36562766,80.273476 L3.540424,80.273 C2.11552935,80.273 0.960424,79.1178947 0.960424,77.693 C0.960424,76.322909 2.02838382,75.2022534 3.37726074,75.1180758 L3.540424,75.113 L9.36539958,75.1127387 C10.5673942,68.9644439 15.983033,64.32688 22.482784,64.32688 C28.9814877,64.32688 34.3979234,68.9648549 35.6001235,75.1128861 L62.9910436,75.1127387 C64.1930382,68.9644439 69.608677,64.32688 76.108428,64.32688 Z M22.482784,69.48688 C17.9500031,69.48688 14.276664,73.1594099 14.276664,77.693 C14.276664,82.2240101 17.9508633,85.8974 22.482784,85.8974 C27.0136423,85.8974 30.688904,82.2233526 30.688904,77.693 C30.688904,73.1600674 27.0145026,69.48688 22.482784,69.48688 Z M76.108428,69.48688 C71.5756471,69.48688 67.902308,73.1594099 67.902308,77.693 C67.902308,82.2240101 71.5765073,85.8974 76.108428,85.8974 C80.6398933,85.8974 84.312828,82.2244653 84.312828,77.693 C84.312828,73.1589547 80.6407533,69.48688 76.108428,69.48688 Z" fill="#00B077"></path>
    </g>
</svg>