<?xml version="1.0" encoding="UTF-8"?>
<svg width="100px" height="100px" viewBox="0 0 100 100" version="1.1" xmlns="http://www.w3.org/2000/svg" xmlns:xlink="http://www.w3.org/1999/xlink">
    <!-- Generator: Sketch 63.1 (92452) - https://sketch.com -->
    <title>Building</title>
    <desc>Created with Sketch.</desc>
    <g id="Building" stroke="none" stroke-width="1" fill="none" fill-rule="evenodd">
        <path d="M81.780913,71.8547518 C83.6918182,71.8547518 85.240913,73.4038466 85.240913,75.3147518 L85.240913,75.3147518 L85.240913,76.3147518 C85.240913,78.225657 83.6918182,79.7747518 81.780913,79.7747518 C79.8700078,79.7747518 78.320913,78.225657 78.320913,76.3147518 L78.320913,76.3147518 L78.320913,75.3147518 C78.320913,73.4038466 79.8700078,71.8547518 81.780913,71.8547518 Z M17.639087,70.9556707 C19.5499922,70.9556707 21.099087,72.5047654 21.099087,74.4156707 L21.099087,74.4156707 L21.099087,75.4156707 C21.099087,77.3265759 19.5499922,78.8756707 17.639087,78.8756707 C15.7281818,78.8756707 14.179087,77.3265759 14.179087,75.4156707 L14.179087,75.4156707 L14.179087,74.4156707 C14.179087,72.5047654 15.7281818,70.9556707 17.639087,70.9556707 Z M37.635465,69.0350232 C39.5463702,69.0350232 41.095465,70.584118 41.095465,72.4950232 L41.095465,72.4950232 L41.095465,73.4950232 C41.095465,75.4059284 39.5463702,76.9550232 37.635465,76.9550232 C35.7245598,76.9550232 34.175465,75.4059284 34.175465,73.4950232 L34.175465,73.4950232 L34.175465,72.4950232 C34.175465,70.584118 35.7245598,69.0350232 37.635465,69.0350232 Z M49.71,69.0350232 C51.6209052,69.0350232 53.17,70.584118 53.17,72.4950232 L53.17,72.4950232 L53.17,73.4950232 C53.17,75.4059284 51.6209052,76.9550232 49.71,76.9550232 C47.7990948,76.9550232 46.25,75.4059284 46.25,73.4950232 L46.25,73.4950232 L46.25,72.4950232 C46.25,70.584118 47.7990948,69.0350232 49.71,69.0350232 Z M81.780913,60.511142 C83.6918182,60.511142 85.240913,62.0602368 85.240913,63.971142 L85.240913,63.971142 L85.240913,64.971142 C85.240913,66.8820472 83.6918182,68.431142 81.780913,68.431142 C79.8700078,68.431142 78.320913,66.8820472 78.320913,64.971142 L78.320913,64.971142 L78.320913,63.971142 C78.320913,62.0602368 79.8700078,60.511142 81.780913,60.511142 Z M17.639087,58.7124608 C19.5499922,58.7124608 21.099087,60.2615556 21.099087,62.1724608 L21.099087,62.1724608 L21.099087,63.1724608 C21.099087,65.0833661 19.5499922,66.6324608 17.639087,66.6324608 C15.7281818,66.6324608 14.179087,65.0833661 14.179087,63.1724608 L14.179087,63.1724608 L14.179087,62.1724608 C14.179087,60.2615556 15.7281818,58.7124608 17.639087,58.7124608 Z M37.635465,54.8732438 C39.5463702,54.8732438 41.095465,56.4223386 41.095465,58.3332438 L41.095465,58.3332438 L41.095465,59.3332438 C41.095465,61.244149 39.5463702,62.7932438 37.635465,62.7932438 C35.7245598,62.7932438 34.175465,61.244149 34.175465,59.3332438 L34.175465,59.3332438 L34.175465,58.3332438 C34.175465,56.4223386 35.7245598,54.8732438 37.635465,54.8732438 Z M49.71,54.8732438 C51.6209052,54.8732438 53.17,56.4223386 53.17,58.3332438 L53.17,58.3332438 L53.17,59.3332438 C53.17,61.244149 51.6209052,62.7932438 49.71,62.7932438 C47.7990948,62.7932438 46.25,61.244149 46.25,59.3332438 L46.25,59.3332438 L46.25,58.3332438 C46.25,56.4223386 47.7990948,54.8732438 49.71,54.8732438 Z M61.784535,54.8732438 C63.6954402,54.8732438 65.244535,56.4223386 65.244535,58.3332438 L65.244535,58.3332438 L65.244535,59.3332438 C65.244535,61.244149 63.6954402,62.7932438 61.784535,62.7932438 C59.8736298,62.7932438 58.324535,61.244149 58.324535,59.3332438 L58.324535,59.3332438 L58.324535,58.3332438 C58.324535,56.4223386 59.8736298,54.8732438 61.784535,54.8732438 Z M17.639087,46.469251 C19.5499922,46.469251 21.099087,48.0183458 21.099087,49.929251 L21.099087,49.929251 L21.099087,50.929251 C21.099087,52.8401562 19.5499922,54.389251 17.639087,54.389251 C15.7281818,54.389251 14.179087,52.8401562 14.179087,50.929251 L14.179087,50.929251 L14.179087,49.929251 C14.179087,48.0183458 15.7281818,46.469251 17.639087,46.469251 Z M37.635465,40.7114644 C39.5463702,40.7114644 41.095465,42.2605592 41.095465,44.1714644 L41.095465,44.1714644 L41.095465,45.1714644 C41.095465,47.0823696 39.5463702,48.6314644 37.635465,48.6314644 C35.7245598,48.6314644 34.175465,47.0823696 34.175465,45.1714644 L34.175465,45.1714644 L34.175465,44.1714644 C34.175465,42.2605592 35.7245598,40.7114644 37.635465,40.7114644 Z M49.71,40.7114644 C51.6209052,40.7114644 53.17,42.2605592 53.17,44.1714644 L53.17,44.1714644 L53.17,45.1714644 C53.17,47.0823696 51.6209052,48.6314644 49.71,48.6314644 C47.7990948,48.6314644 46.25,47.0823696 46.25,45.1714644 L46.25,45.1714644 L46.25,44.1714644 C46.25,42.2605592 47.7990948,40.7114644 49.71,40.7114644 Z M61.784535,40.7114644 C63.6954402,40.7114644 65.244535,42.2605592 65.244535,44.1714644 L65.244535,44.1714644 L65.244535,45.1714644 C65.244535,47.0823696 63.6954402,48.6314644 61.784535,48.6314644 C59.8736298,48.6314644 58.324535,47.0823696 58.324535,45.1714644 L58.324535,45.1714644 L58.324535,44.1714644 C58.324535,42.2605592 59.8736298,40.7114644 61.784535,40.7114644 Z M37.635465,26.549685 C39.5463702,26.549685 41.095465,28.0987798 41.095465,30.009685 L41.095465,30.009685 L41.095465,31.009685 C41.095465,32.9205902 39.5463702,34.469685 37.635465,34.469685 C35.7245598,34.469685 34.175465,32.9205902 34.175465,31.009685 L34.175465,31.009685 L34.175465,30.009685 C34.175465,28.0987798 35.7245598,26.549685 37.635465,26.549685 Z M49.71,26.549685 C51.6209052,26.549685 53.17,28.0987798 53.17,30.009685 L53.17,30.009685 L53.17,31.009685 C53.17,32.9205902 51.6209052,34.469685 49.71,34.469685 C47.7990948,34.469685 46.25,32.9205902 46.25,31.009685 L46.25,31.009685 L46.25,30.009685 C46.25,28.0987798 47.7990948,26.549685 49.71,26.549685 Z M61.784535,26.549685 C63.6954402,26.549685 65.244535,28.0987798 65.244535,30.009685 L65.244535,30.009685 L65.244535,31.009685 C65.244535,32.9205902 63.6954402,34.469685 61.784535,34.469685 C59.8736298,34.469685 58.324535,32.9205902 58.324535,31.009685 L58.324535,31.009685 L58.324535,30.009685 C58.324535,28.0987798 59.8736298,26.549685 61.784535,26.549685 Z M73.118111,1.405 C74.5512899,1.405 75.713111,2.56682107 75.713111,4 C75.713111,5.37805666 74.6389421,6.50522773 73.2822229,6.58989465 L73.118111,6.595 L28.897,6.594 L28.897581,88.61084 C28.897581,89.9888967 27.8234121,91.1160677 26.4666929,91.2007347 L26.302581,91.20584 C24.9245243,91.20584 23.7973533,90.1316711 23.7126863,88.7749519 L23.707581,88.61084 L23.707,29.458 L11.568,29.458 L11.568,94.824 L70.522,94.824 L70.522419,11.972186 C70.522419,10.5390071 71.6842401,9.377186 73.117419,9.377186 C74.4954757,9.377186 75.6226467,10.4513549 75.7073137,11.8080741 L75.712419,11.972186 L75.712,39.271 L90.446829,39.27124 C91.8248857,39.27124 92.9520567,40.3454089 93.0367237,41.7021281 L93.041829,41.86624 L93.041,94.824 L96.42,94.824654 C97.8531789,94.824654 99.015,95.9864751 99.015,97.419654 C99.015,98.7977107 97.9408311,99.9248817 96.5841119,100.009549 L96.42,100.014654 L73.1506449,100.015138 C73.1395861,100.015276 73.1285107,100.015346 73.117419,100.015346 L73.088,100.014 L9.006,100.014 L8.973171,100.015173 L8.944,100.014 L3,100.014654 C1.56682107,100.014654 0.405,98.8528329 0.405,97.419654 C0.405,96.0415973 1.47916889,94.9144263 2.83588812,94.8297593 L3,94.824654 L6.378,94.824 L6.378171,26.863853 C6.378171,25.4857963 7.45233989,24.3586253 8.80905912,24.2739583 L8.973171,24.268853 L23.707,24.268 L23.707581,4 C23.707581,2.62194334 24.7817499,1.49477227 26.1384691,1.41010535 L26.302581,1.405 L73.118111,1.405 Z M75.712,44.461 L75.712,94.824 L87.851,94.824 L87.851,44.461 L75.712,44.461 Z M61.784535,69.0350232 C63.6954402,69.0350232 65.244535,70.584118 65.244535,72.4950232 L65.244535,72.4950232 L65.244535,73.4950232 C65.244535,75.4059284 63.6954402,76.9550232 61.784535,76.9550232 C59.8736298,76.9550232 58.324535,75.4059284 58.324535,73.4950232 L58.324535,73.4950232 L58.324535,72.4950232 C58.324535,70.584118 59.8736298,69.0350232 61.784535,69.0350232 Z" fill="#00B077"></path>
    </g>
</svg>