<?xml version="1.0" encoding="UTF-8"?>
<svg width="100px" height="100px" viewBox="0 0 100 100" version="1.1" xmlns="http://www.w3.org/2000/svg" xmlns:xlink="http://www.w3.org/1999/xlink">
    <!-- Generator: Sketch 63.1 (92452) - https://sketch.com -->
    <title>Calendar</title>
    <desc>Created with Sketch.</desc>
    <g id="Calendar" stroke="none" stroke-width="1" fill="none" fill-rule="evenodd">
        <path d="M17.975,10.489208 C19.3998947,10.489208 20.555,11.6443133 20.555,13.069208 C20.555,14.439299 19.4870402,15.5599546 18.1381633,15.6441322 L17.975,15.649208 L6.58,15.649 L6.58,91.15 L94.3,91.15 L94.3,23.162168 C94.3,21.792077 95.3679598,20.6714214 96.7168367,20.5872438 L96.88,20.582168 C98.250091,20.582168 99.3707466,21.6501278 99.4549242,22.9990047 L99.46,23.162168 L99.46,93.730328 C99.46,95.100419 98.3920402,96.2210746 97.0431633,96.3052522 L96.88,96.310328 L4,96.310328 C2.62990899,96.310328 1.50925335,95.2423682 1.42507584,93.8934913 L1.42,93.730328 L1.42,13.069208 C1.42,11.699117 2.48795982,10.5784614 3.83683674,10.4942838 L4,10.489208 L17.975,10.489208 Z M88.285848,29.906116 C89.7107427,29.906116 90.865848,31.0612213 90.865848,32.486116 C90.865848,33.856207 89.7978882,34.9768626 88.4490113,35.0610402 L88.285848,35.066116 L76.753,35.066 L76.753,50.243 L88.285848,50.24374 C89.7107427,50.24374 90.865848,51.3988453 90.865848,52.82374 C90.865848,54.193831 89.7978882,55.3144866 88.4490113,55.3986642 L88.285848,55.40374 L76.753,55.403 L76.753,69.953 L88.285848,69.95322 C89.7107427,69.95322 90.865848,71.1083253 90.865848,72.53322 C90.865848,73.903311 89.7978882,75.0239666 88.4490113,75.1081442 L88.285848,75.11322 L76.753,75.113 L76.753076,83.7502 C76.753076,85.1750947 75.5979707,86.3302 74.173076,86.3302 C72.802985,86.3302 71.6823294,85.2622402 71.5981518,83.9133633 L71.593076,83.7502 L71.593,75.113 L53.333,75.113 L53.333212,83.7502 C53.333212,85.1750947 52.1781067,86.3302 50.753212,86.3302 C49.383121,86.3302 48.2624654,85.2622402 48.1782878,83.9133633 L48.173212,83.7502 L48.173,75.113 L29.914,75.113 L29.914208,83.7502 C29.914208,85.1750947 28.7591027,86.3302 27.334208,86.3302 C25.964117,86.3302 24.8434614,85.2622402 24.7592838,83.9133633 L24.754208,83.7502 L24.754,75.113 L13.575928,75.11322 C12.1510333,75.11322 10.995928,73.9581147 10.995928,72.53322 C10.995928,71.163129 12.0638878,70.0424734 13.4127647,69.9582958 L13.575928,69.95322 L24.754,69.953 L24.754,55.403 L13.575928,55.40374 C12.1510333,55.40374 10.995928,54.2486347 10.995928,52.82374 C10.995928,51.453649 12.0638878,50.3329934 13.4127647,50.2488158 L13.575928,50.24374 L24.754,50.243 L24.754,35.066 L13.575928,35.066116 C12.1510333,35.066116 10.995928,33.9110107 10.995928,32.486116 C10.995928,31.116025 12.0638878,29.9953694 13.4127647,29.9111918 L13.575928,29.906116 L88.285848,29.906116 Z M48.173,55.403 L29.914,55.403 L29.914,69.953 L48.173,69.953 L48.173,55.403 Z M71.593,55.403 L53.333,55.403 L53.333,69.953 L71.593,69.953 L71.593,55.403 Z M48.173,35.066 L29.914,35.066 L29.914,50.243 L48.173,50.243 L48.173,35.066 Z M71.593,35.066 L53.333,35.066 L53.333,50.243 L71.593,50.243 L71.593,35.066 Z M96.879828,10.488864 C98.3047227,10.488864 99.459828,11.6439693 99.459828,13.068864 C99.459828,14.438955 98.3918682,15.5596106 97.0429913,15.6437882 L96.879828,15.648864 L83.988428,15.648864 C82.5635333,15.648864 81.408428,14.4937587 81.408428,13.068864 C81.408428,11.698773 82.4763878,10.5781174 83.8252647,10.4939398 L83.988428,10.488864 L96.879828,10.488864 Z M64.37372,10.488864 C65.7986147,10.488864 66.95372,11.6439693 66.95372,13.068864 C66.95372,14.438955 65.8857602,15.5596106 64.5368833,15.6437882 L64.37372,15.648864 L36.64388,15.648864 C35.2189853,15.648864 34.06388,14.4937587 34.06388,13.068864 C34.06388,11.698773 35.1318398,10.5781174 36.4807167,10.4939398 L36.64388,10.488864 L64.37372,10.488864 Z M74.173076,2.42 C75.543167,2.42 76.6638226,3.48795982 76.7480002,4.83683674 L76.753076,5 L76.753076,20.32176 C76.753076,21.7466547 75.5979707,22.90176 74.173076,22.90176 C72.802985,22.90176 71.6823294,21.8338002 71.5981518,20.4849233 L71.593076,20.32176 L71.593076,5 C71.593076,3.57510535 72.7481813,2.42 74.173076,2.42 Z M27.334208,2.42 C28.704299,2.42 29.8249546,3.48795982 29.9091322,4.83683674 L29.914208,5 L29.914208,20.32176 C29.914208,21.7466547 28.7591027,22.90176 27.334208,22.90176 C25.964117,22.90176 24.8434614,21.8338002 24.7592838,20.4849233 L24.754208,20.32176 L24.754208,5 C24.754208,3.57510535 25.9093133,2.42 27.334208,2.42 Z" fill="#00B077"></path>
    </g>
</svg>