<?xml version="1.0" encoding="UTF-8"?>
<svg width="100px" height="100px" viewBox="0 0 100 100" version="1.1" xmlns="http://www.w3.org/2000/svg" xmlns:xlink="http://www.w3.org/1999/xlink">
    <!-- Generator: Sketch 63.1 (92452) - https://sketch.com -->
    <title>Cart</title>
    <desc>Created with Sketch.</desc>
    <g id="Cart" stroke="none" stroke-width="1" fill="none" fill-rule="evenodd">
        <path d="M79.270812,77.551084 C80.6957067,77.551084 81.850812,78.7061893 81.850812,80.131084 C81.850812,81.501175 80.7828522,82.6218306 79.4339753,82.7060082 L79.270812,82.711084 C77.1490667,82.711084 75.431772,84.4283787 75.431772,86.550124 C75.431772,88.6687472 77.1493848,90.385724 79.270812,90.385724 C81.3239701,90.385724 83.0019834,88.7730664 83.1048542,86.7474048 L83.109852,86.550124 C83.109852,85.1252293 84.2649573,83.970124 85.689852,83.970124 C87.1147467,83.970124 88.269852,85.1252293 88.269852,86.550124 C88.269852,91.5179908 84.2391353,95.545724 79.270812,95.545724 C74.3000231,95.545724 70.271772,91.5189643 70.271772,86.550124 C70.271772,81.5785893 74.2992773,77.551084 79.270812,77.551084 Z M33.828756,77.551084 C35.2536507,77.551084 36.408756,78.7061893 36.408756,80.131084 C36.408756,81.501175 35.3407962,82.6218306 33.9919193,82.7060082 L33.828756,82.711084 C31.7049077,82.711084 29.986276,84.4287618 29.986276,86.550124 C29.986276,88.6683639 31.7052262,90.385724 33.828756,90.385724 C35.8798771,90.385724 37.5565718,88.7734255 37.6593621,86.7474385 L37.664356,86.550124 C37.664356,85.1252293 38.8194613,83.970124 40.244356,83.970124 C41.6692507,83.970124 42.824356,85.1252293 42.824356,86.550124 C42.824356,91.5177317 38.7956178,95.545724 33.828756,95.545724 C28.8565054,95.545724 24.826276,91.5192228 24.826276,86.550124 C24.826276,81.578331 28.8557595,77.551084 33.828756,77.551084 Z M5.55556244,10.9415563 L5.69851816,11.0579814 L14.6287582,18.8685014 C14.9287974,19.1309202 15.16326,19.4586683 15.3147727,19.8254269 L15.3835362,20.0119352 L31.083,68.242 L84.835,68.242 L93.604,31.815 L26.9448,31.81508 C25.574709,31.81508 24.4540534,30.7471202 24.3698758,29.3982433 L24.3648,29.23508 C24.3648,27.864989 25.4327598,26.7443334 26.7816367,26.6601558 L26.9448,26.65508 L96.88,26.65508 C98.4935503,26.65508 99.6965455,28.1137923 99.4220448,29.6769307 L99.3883339,29.8389516 L89.3762139,71.4268316 C89.1111035,72.5280352 88.1619644,73.3204078 87.045482,73.3968921 L86.86788,73.40296 L29.21004,73.40296 C28.1548954,73.40296 27.2129755,72.7615677 26.8202572,71.7953594 L26.7567438,71.6215448 L10.696,22.284 L2.30148184,14.9420186 C1.2755671,14.0447383 1.13121708,12.5144537 1.94155628,11.4444376 L2.05798144,11.3014818 C2.95526165,10.2755671 4.48554628,10.1312171 5.55556244,10.9415563 Z M82.397428,47.487204 C83.8223227,47.487204 84.977428,48.6423093 84.977428,50.067204 C84.977428,51.437295 83.9094682,52.5579506 82.5605913,52.6421282 L82.397428,52.647204 L32.814988,52.647204 C31.3900933,52.647204 30.234988,51.4920987 30.234988,50.067204 C30.234988,48.697113 31.3029478,47.5764574 32.6518247,47.4922798 L32.814988,47.487204 L82.397428,47.487204 Z" fill="#00B077"></path>
    </g>
</svg>