<?xml version="1.0" encoding="UTF-8"?>
<svg width="100px" height="100px" viewBox="0 0 100 100" version="1.1" xmlns="http://www.w3.org/2000/svg" xmlns:xlink="http://www.w3.org/1999/xlink">
    <!-- Generator: Sketch 63.1 (92452) - https://sketch.com -->
    <title>Checklist</title>
    <desc>Created with Sketch.</desc>
    <g id="Checklist" stroke="none" stroke-width="1" fill="none" fill-rule="evenodd">
        <path d="M90.248,1 C91.6728947,1 92.828,2.15510535 92.828,3.58 C92.828,4.95009101 91.7600402,6.07074665 90.4111633,6.15492416 L90.248,6.16 L12.16,6.16 L12.16,93.88 L87.668,93.88 L87.668,14.12188 C87.668,12.751789 88.7359598,11.6311334 90.0848367,11.5469558 L90.248,11.54188 C91.618091,11.54188 92.7387466,12.6098398 92.8229242,13.9587167 L92.828,14.12188 L92.828,96.46 C92.828,97.830091 91.7600402,98.9507466 90.4111633,99.0349242 L90.248,99.04 L9.58,99.04 C8.20990899,99.04 7.08925335,97.9720402 7.00507584,96.6231633 L7,96.46 L7,3.58 C7,2.20990899 8.06795982,1.08925335 9.41683674,1.00507584 L9.58,1 L90.248,1 Z M56.091036,71.172388 C57.5159307,71.172388 58.671036,72.3274933 58.671036,73.752388 C58.671036,75.122479 57.6030762,76.2431346 56.2541993,76.3273122 L56.091036,76.332388 L19.563396,76.332388 C18.1385013,76.332388 16.983396,75.1772827 16.983396,73.752388 C16.983396,72.382297 18.0513558,71.2616414 19.4002327,71.1774638 L19.563396,71.172388 L56.091036,71.172388 Z M56.091036,47.750804 C57.5159307,47.750804 58.671036,48.9059093 58.671036,50.330804 C58.671036,51.700895 57.6030762,52.8215506 56.2541993,52.9057282 L56.091036,52.910804 L19.563396,52.910804 C18.1385013,52.910804 16.983396,51.7556987 16.983396,50.330804 C16.983396,48.960713 18.0513558,47.8400574 19.4002327,47.7558798 L19.563396,47.750804 L56.091036,47.750804 Z M82.0497235,19.0566285 C83.0134695,20.0203745 83.0553715,21.556881 82.1754295,22.5704323 L82.0497235,22.7052995 L71.3719635,33.3830595 C70.4082175,34.3468055 68.871711,34.3887075 67.8581597,33.5087655 L67.7232925,33.3830595 L62.8453725,28.5051395 C61.8378198,27.4975868 61.8378198,25.8640212 62.8453725,24.8564685 C63.8091185,23.8927225 65.345625,23.8508205 66.3591763,24.7307625 L66.4940435,24.8564685 L69.547,27.91 L78.4010525,19.0566285 C79.4086052,18.0490758 81.0421708,18.0490758 82.0497235,19.0566285 Z M56.091036,24.33438 C57.5159307,24.33438 58.671036,25.4894853 58.671036,26.91438 C58.671036,28.284471 57.6030762,29.4051266 56.2541993,29.4893042 L56.091036,29.49438 L19.563396,29.49438 C18.1385013,29.49438 16.983396,28.3392747 16.983396,26.91438 C16.983396,25.544289 18.0513558,24.4236334 19.4002327,24.3394558 L19.563396,24.33438 L56.091036,24.33438 Z M82.0498704,66.7181475 C83.0135388,67.6819711 83.0553171,69.218481 82.1752934,70.2319614 L82.0495765,70.3668184 L71.3718165,81.0428584 C70.4079276,82.0065921 68.8712917,82.0483016 67.8578252,81.1681277 L67.722971,81.0423899 L62.845051,76.1627499 C61.8376759,75.1550196 61.8379639,73.521454 62.8456941,72.514079 C63.80961,71.5505028 65.3461239,71.5088717 66.35952,72.3889923 L66.494365,72.5147221 L69.548,75.569 L78.4011995,66.7178536 C79.4088333,65.7103821 81.0423989,65.7105136 82.0498704,66.7181475 Z M82.0498704,42.8884075 C83.0135388,43.8522311 83.0553171,45.388741 82.1752934,46.4022214 L82.0495765,46.5370784 L71.3718165,57.2131184 C70.4079276,58.1768521 68.8712917,58.2185616 67.8578252,57.3383877 L67.722971,57.2126499 L62.845051,52.3330099 C61.8376759,51.3252796 61.8379639,49.691714 62.8456941,48.684339 C63.80961,47.7207628 65.3461239,47.6791317 66.35952,48.5592523 L66.494365,48.6849821 L69.548,51.739 L78.4011995,42.8881136 C79.4088333,41.8806421 81.0423989,41.8807736 82.0498704,42.8884075 Z" id="Order" fill="#00B077"></path>
    </g>
</svg>