<?xml version="1.0" encoding="UTF-8"?>
<svg width="100px" height="100px" viewBox="0 0 100 100" version="1.1" xmlns="http://www.w3.org/2000/svg" xmlns:xlink="http://www.w3.org/1999/xlink">
    <!-- Generator: Sketch 63.1 (92452) - https://sketch.com -->
    <title>Clock</title>
    <desc>Created with Sketch.</desc>
    <g id="Clock" stroke="none" stroke-width="1" fill="none" fill-rule="evenodd">
        <path d="M50.027896,0.56982 C22.9520799,0.56982 1.007896,22.5151267 1.007896,49.58982 C1.007896,76.6690761 22.9497627,98.60982 50.027896,98.60982 C77.1060293,98.60982 99.047896,76.6690761 99.047896,49.58982 C99.047896,22.5151267 77.1037121,0.56982 50.027896,0.56982 Z M93.8132607,47.0092545 L88.239416,47.00982 L88.0762527,47.0148958 C86.7273758,47.0990734 85.659416,48.219729 85.659416,49.58982 C85.659416,51.0147147 86.8145213,52.16982 88.239416,52.16982 L88.239416,52.16982 L93.8133277,52.1698297 C92.527997,74.3439115 74.7810844,92.0899878 52.6078055,93.3752554 L52.607896,87.80306 L52.6028202,87.6398967 C52.5186426,86.2910198 51.397987,85.22306 50.027896,85.22306 C48.6030013,85.22306 47.447896,86.3781653 47.447896,87.80306 L47.447896,87.80306 L47.4469873,93.3751974 C25.2741744,92.0894547 7.52777571,74.3435784 6.24246434,52.1698297 L11.816548,52.16982 L11.9797113,52.1647442 C13.3285882,52.0805666 14.396548,50.959911 14.396548,49.58982 C14.396548,48.1649253 13.2414427,47.00982 11.816548,47.00982 L11.816548,47.00982 L6.24253128,47.0092545 C7.52847091,24.839524 25.2766969,7.09046176 47.4472302,5.804459 L47.447896,11.377096 L47.4529718,11.5402593 C47.5371494,12.8891362 48.657805,13.957096 50.027896,13.957096 C51.4527907,13.957096 52.607896,12.8019907 52.607896,11.377096 L52.607896,11.377096 L52.6075627,5.80440106 C74.7785619,7.08992853 92.5273018,24.839191 93.8132607,47.0092545 Z M50.0277313,20.071352 C51.3978223,20.071352 52.5185461,21.1391528 52.6028097,22.4880243 L52.607896,22.6511873 L52.609,48.521 L68.4760315,64.3877365 C69.4397775,65.3514825 69.4816795,66.887989 68.6017375,67.9015403 L68.4760315,68.0364075 C67.5122855,69.0001535 65.975779,69.0420555 64.9622277,68.1621135 L64.8273605,68.0364075 L48.2052805,51.4143275 C47.7698574,50.9789044 47.506143,50.4038677 47.4577225,49.7944318 L47.449616,49.5901567 L47.447896,22.6515167 C47.447896,21.2266221 48.6028366,20.071352 50.0277313,20.071352 Z" fill="#00B077"></path>
    </g>
</svg>