<?xml version="1.0" encoding="UTF-8"?>
<svg width="100px" height="100px" viewBox="0 0 100 100" version="1.1" xmlns="http://www.w3.org/2000/svg" xmlns:xlink="http://www.w3.org/1999/xlink">
    <!-- Generator: Sketch 63.1 (92452) - https://sketch.com -->
    <title>currency</title>
    <desc>Created with Sketch.</desc>
    <g id="currency" stroke="none" stroke-width="1" fill="none" fill-rule="evenodd">
        <path d="M31.8654,1 C14.8171755,1 1,14.8165951 1,31.8654 C1,48.9170645 14.8165952,62.73424 31.8654,62.73424 C48.9188055,62.73424 62.7308,48.9193441 62.7308,31.8654 C62.7308,14.8143157 48.9182252,1 31.8654,1 Z M31.8654,6.16 C46.0682903,6.16 57.5708,17.6639594 57.5708,31.8654 C57.5708,46.0697974 46.0687735,57.57424 31.8654,57.57424 C17.666433,57.57424 6.16,46.0673237 6.16,31.8654 C6.16,17.666433 17.6669163,6.16 31.8654,6.16 Z M68.1746,37.31092 C85.2268343,37.31092 99.04,51.1229251 99.04,68.17288 C99.04,85.2259744 85.2271349,99.04 68.1746,99.04 C51.1229355,99.04 37.30748,85.2251248 37.30748,68.17288 C37.30748,66.7479853 38.4625853,65.59288 39.88748,65.59288 C41.3123747,65.59288 42.46748,66.7479853 42.46748,68.17288 C42.46748,82.375287 53.9726763,93.88 68.1746,93.88 C82.3772486,93.88 93.88,82.3762821 93.88,68.17288 C93.88,53.9728114 82.3771421,42.47092 68.1746,42.47092 C66.7497053,42.47092 65.5946,41.3158147 65.5946,39.89092 C65.5946,38.4660253 66.7497053,37.31092 68.1746,37.31092 Z M32.513152,12.851316 C33.883243,12.851316 35.0038986,13.9192758 35.0880762,15.2681527 L35.093152,15.431316 L35.0931798,17.9262482 C39.4189714,18.7521013 42.7681411,21.3731991 43.7651145,24.7986409 C44.1633069,26.1667665 43.3770207,27.5986501 42.0088951,27.9968425 C40.6954945,28.3791072 39.3233346,27.6697564 38.8633681,26.4019668 L38.8106935,26.2406231 C38.289567,24.4501154 35.7058571,22.812352 32.152984,22.812352 C27.8392399,22.812352 25.420904,24.2286873 25.420904,25.636592 C25.420904,26.9765839 27.391707,28.228186 32.9233951,29.2038606 C32.9360747,29.2055142 32.9484321,29.2075994 32.9607945,29.2097765 C40.8069955,30.5915483 44.770044,33.1507482 44.770044,38.063076 C44.770044,42.4001242 40.6866158,45.3414622 35.0938081,45.953027 L35.093152,48.302924 C35.093152,49.7278187 33.9380467,50.882924 32.513152,50.882924 C31.143061,50.882924 30.0224054,49.8149642 29.9382278,48.4660873 L29.933152,48.302924 L29.9331486,45.8845681 C24.1834798,45.1398167 19.7108837,42.2214828 19.0019786,38.0862026 C18.7612229,36.6817948 19.7045495,35.3481262 21.1089574,35.1073706 C22.4571889,34.8762452 23.7402271,35.7363699 24.0537182,37.0480799 L24.0877894,37.2143494 C24.3939405,39.0002305 27.9774242,40.911396 32.877964,40.911396 C37.0957364,40.911396 39.610044,39.4032759 39.610044,38.063076 C39.610044,36.5119273 37.721039,35.2899409 32.0891318,34.29568 C32.0807402,34.2948259 32.0733909,34.293567 32.0660397,34.2922755 C24.3002438,32.92796 20.260904,30.3685413 20.260904,25.636592 C20.260904,21.2026787 24.2817731,18.3495013 29.9329312,17.7642067 L29.933152,15.431316 C29.933152,14.0064213 31.0882573,12.851316 32.513152,12.851316 Z M81.0890835,57.154389 C82.0971484,58.1614291 82.0979792,59.7949945 81.090939,60.8030595 C80.0838989,61.8111244 78.4503335,61.8119552 77.4422685,60.804915 C73.3739401,56.7407225 66.7743933,56.7407225 62.7096075,60.8027507 C62.3810146,61.1317893 62.0789744,61.477304 61.8034861,61.8366312 L69.380836,61.837776 C70.8057307,61.837776 71.960836,62.9928813 71.960836,64.417776 C71.960836,65.787867 70.8928762,66.9085226 69.5439993,66.9927002 L69.380836,66.997776 L59.725728,66.9969831 C59.6375446,67.7786563 59.6376019,68.5683727 59.725895,69.3499917 L67.2931,69.34936 C68.7179947,69.34936 69.8731,70.5044653 69.8731,71.92936 C69.8731,73.299451 68.8051402,74.4201066 67.4562633,74.5042842 L67.2931,74.50936 L61.8045886,74.5095528 C62.079351,74.8676978 62.3805091,75.2120898 62.7080622,75.5400873 C66.7746319,79.6052784 73.3737016,79.6052784 77.441959,75.5397782 C78.4498532,74.5325671 80.0834187,74.5331209 81.0906298,75.541015 C82.0978409,76.5489092 82.0972871,78.1824747 81.089393,79.1896858 C75.0062104,85.2687456 65.1414401,85.2687456 59.0584645,79.1878307 C57.6680764,77.7955566 56.5957403,76.2059063 55.8414785,74.5091574 L52.0195,74.50936 C50.5946053,74.50936 49.4395,73.3542547 49.4395,71.92936 C49.4395,70.559269 50.5074598,69.4386134 51.8563367,69.3544358 L52.0195,69.34936 L54.5442552,69.3494489 C54.4853551,68.5666631 54.4853251,67.7802699 54.544167,66.997457 L54.108956,66.997776 C52.6840613,66.997776 51.528956,65.8426707 51.528956,64.417776 C51.528956,63.047685 52.5969158,61.9270294 53.9457927,61.8428518 L54.108956,61.837776 L55.840978,61.8373433 C56.5955837,60.1392418 57.66869,58.5482144 59.0603192,57.154698 C65.1416787,51.0774615 75.0059719,51.0774615 81.0890835,57.154389 Z" id="Currency" fill="#00B077"></path>
    </g>
</svg>