<?xml version="1.0" encoding="UTF-8"?>
<svg width="100px" height="100px" viewBox="0 0 100 100" version="1.1" xmlns="http://www.w3.org/2000/svg" xmlns:xlink="http://www.w3.org/1999/xlink">
    <!-- Generator: Sketch 63.1 (92452) - https://sketch.com -->
    <title>CustomerService</title>
    <desc>Created with Sketch.</desc>
    <g id="CustomerService" stroke="none" stroke-width="1" fill="none" fill-rule="evenodd">
        <path d="M68.0714999,53.8414339 L68.4947716,54.0032801 C68.6309954,54.0566472 68.789379,54.1196237 68.9684716,54.1920531 C69.6532812,54.4690065 70.4133956,54.7932777 71.2305188,55.1630181 C73.5664686,56.2200129 75.9038566,57.4349483 78.0994717,58.7978166 C83.1089732,61.9073285 86.6771101,65.3168675 88.159392,69.1861377 C89.9159448,73.7655861 90.2552297,77.3230881 90.1420093,84.560158 L90.1017523,87.0794555 L90.09696,88.018756 C90.09696,89.4436507 88.9418547,90.598756 87.51696,90.598756 C86.0920653,90.598756 84.93696,89.4436507 84.93696,88.018756 L84.9487408,86.4869273 L84.9895219,83.9983056 C85.0706304,77.7288754 84.7572602,74.7246882 83.3412598,71.0330816 C82.3581187,68.4667423 79.5141671,65.7491998 75.3781744,63.1818861 C73.3916644,61.9488227 71.2482041,60.8346877 69.1033056,59.8641418 L68.47376,59.583696 L67.5148433,61.6017433 L66.9374547,62.8025718 C64.963172,66.8928298 62.9133664,70.9838866 60.8920426,74.8078434 C60.1821135,76.1508931 59.4869036,77.4392929 58.8089323,78.6664073 L58.4042383,79.3952686 C56.1575088,83.4212315 54.1593634,86.6595714 52.4523921,88.9655352 C51.4210072,90.3588429 49.3364328,90.3588429 48.3050479,88.9655352 C46.5977666,86.6591526 44.5990823,83.4200277 42.3516413,79.3930161 L41.5384597,77.9213052 C40.9908802,76.9207175 40.4325984,75.8818006 39.8649025,74.8079469 C37.8433624,70.9840009 35.7932932,66.8929537 33.818726,62.8027049 L32.6943264,60.45571 L32.28176,59.583696 L31.6531443,59.8639754 C29.5087228,60.8344177 27.3657391,61.9484364 25.3796732,63.1813814 C21.2441202,65.7487231 18.4006673,68.4663061 17.417512,71.0340943 C15.9117545,74.9597029 15.3147877,82.1428144 15.1872233,91.9861708 L15.16776,93.879696 L88.24968,93.880516 C89.619771,93.880516 90.7404266,94.9484758 90.8246042,96.2973527 L90.82968,96.460516 C90.82968,97.830607 89.7617202,98.9512626 88.4128433,99.0354402 L88.24968,99.040516 L12.58,99.040516 C11.1551053,99.040516 10,97.8854107 10,96.460516 L10.0049823,94.3705215 C10.0634727,82.5045584 10.6527209,74.2622175 12.5992102,69.1875934 C14.0812004,65.3169548 17.6489322,61.9071543 22.658139,58.7974504 C24.8533192,57.4346876 27.190242,56.2198507 29.525727,55.1629441 C30.1792958,54.8671763 30.7963864,54.6005065 31.3676335,54.3638809 L32.3896968,53.9531469 C32.5109641,53.9062069 32.6095928,53.8689278 32.6841327,53.8414662 C33.9480253,53.3758289 35.3574353,53.9608154 35.9201247,55.1845896 L36.6058186,56.6557979 L37.6211658,58.8001653 C37.8012294,59.1775264 37.9865055,59.5643421 38.1766836,59.9598195 L38.4655883,60.5594326 C40.4148167,64.5971929 42.4377831,68.6341548 44.4266788,72.3963507 L45.2531381,73.9470112 C45.7989509,74.9625045 46.3342011,75.940833 46.8574334,76.8783716 L47.5516101,78.1105813 C48.3506439,79.5151165 49.1112547,80.8029473 49.8283354,81.9630015 L50.37776,82.841696 L50.6238738,82.4531489 C51.5462211,80.9825176 52.5444175,79.2901359 53.6070022,77.4008539 L53.8983859,76.880732 C54.6835533,75.4737736 55.4957828,73.9749296 56.3301568,72.3964541 C58.0702445,69.1045422 59.8363827,65.6022616 61.556365,62.0731498 L62.2904639,60.5595657 C62.6804107,59.7516861 63.0513724,58.9768668 63.4008651,58.2414519 L64.5689525,55.7599162 L64.8355268,55.1847384 C65.3981498,53.9609039 66.807565,53.375833 68.0714999,53.8414339 Z M50.574284,11.323096 C65.6467656,11.323096 73.5687961,26.7656131 67.8700017,40.5122427 C67.3243296,41.8285127 65.8149273,42.4532058 64.4986573,41.9075337 C63.1823873,41.3618616 62.5576942,39.8524593 63.1033663,38.5361893 C67.500281,27.9299533 61.6280289,16.483096 50.574284,16.483096 C45.2375324,16.483096 41.1220571,18.992446 38.4152251,23.3405078 C36.0685393,27.1100564 35.0821224,31.9562123 35.7285272,35.4982955 C37.3105031,44.1883458 43.1529825,50.5098698 53.0427459,56.1706772 C54.2793882,56.8785195 54.7080652,58.4548357 54.0002228,59.6914779 C53.2923805,60.9281202 51.7160643,61.3567972 50.4794221,60.6489548 C39.399265,54.3067774 32.5607056,46.9075015 30.6521616,36.423558 C29.771355,31.5970329 31.0219615,25.452943 34.0347129,20.6134742 C37.6450267,14.8141238 43.3705086,11.323096 50.574284,11.323096 Z M51.189356,1 C60.8273066,1 67.9405263,4.92598961 72.7391543,11.4097048 C74.4043345,13.65963 75.6658243,16.0589945 76.5851479,18.4601735 C76.7047302,18.7725102 76.8136253,19.0711151 76.9123624,19.3545817 L77.09176,19.887696 L77.2416171,19.9128323 C82.6805395,20.8613508 86.4489236,25.3712705 86.9566647,30.850967 L86.9811164,31.1508057 C87.3861966,36.8980696 84.0732166,41.6424795 78.3401382,42.710313 L77.96976,42.772696 L77.8688435,43.1200058 C77.616354,43.9359882 77.2845366,44.7463271 76.8597029,45.5317051 L76.6394713,45.9222246 C73.4937721,51.2764513 67.4313876,53.0854421 58.5348863,49.8698746 C56.884522,50.8521463 54.7184709,50.6329132 53.2984768,49.2129192 C51.6192224,47.5336647 51.6192224,44.8110553 53.2984768,43.1318008 C54.9777313,41.4525464 57.7003407,41.4525464 59.3795952,43.1318008 C59.9475936,43.6997993 60.3234697,44.3871672 60.5072236,45.1131525 C66.940962,47.4574908 70.3962169,46.3623771 72.1904948,43.3083753 C72.6011455,42.6094157 72.8952445,41.8407378 73.0847758,41.0702698 L73.1565272,40.7569139 C73.1970736,40.5649328 73.223537,40.4082902 73.2388748,40.295943 L73.2539067,40.1617633 C73.3551721,38.8157572 74.476826,37.77532 75.826636,37.77532 C79.9506247,37.77532 82.0934644,35.1964895 81.8338856,31.5135943 C81.5690368,27.755928 78.895507,24.88908 75.087036,24.88908 C73.9195267,24.88908 72.9055491,24.1066555 72.5997159,22.994593 L72.4947906,22.5551623 C72.4699373,22.4582487 72.43833,22.3399675 72.3995305,22.2017899 C72.2405313,21.6355422 72.031182,20.9970938 71.7662616,20.305149 C71.0049571,18.3166999 69.9585562,16.3264362 68.5915377,14.4793752 C64.7267407,9.25741539 59.1147554,6.16 51.189356,6.16 C42.8346117,6.16 36.8921809,9.17849161 32.795451,14.2364385 C31.3568685,16.012556 30.2524237,17.9226472 29.444644,19.8290459 C29.2203656,20.3583537 29.0333412,20.8544685 28.8808689,21.3082034 L28.7729509,21.6404148 C28.7045978,21.8585403 28.657483,22.0233238 28.6295617,22.1282072 L28.605138,22.2248954 C28.3351461,23.3957152 27.2926628,24.22516 26.091116,24.22516 C21.9699958,24.22516 19.0672038,27.2585978 18.7520771,31.2055739 C18.4444211,35.0589786 20.7137406,37.77532 25.133076,37.77532 C26.5579707,37.77532 27.713076,38.9304253 27.713076,40.35532 C27.713076,41.7802147 26.5579707,42.93532 25.133076,42.93532 C17.5781297,42.93532 13.0699851,37.5391386 13.6084449,30.7949061 C14.0707244,25.0048359 18.0900679,20.2241424 23.8808352,19.2476317 L24.14576,19.205696 L24.2380091,18.956795 C24.3374402,18.6908019 24.4474723,18.4097828 24.5686447,18.1150994 L24.6935505,17.8159116 C25.6798114,15.4882884 27.0235447,13.1643577 28.785721,10.9887215 C33.8340161,4.75594339 41.2282503,1 51.189356,1 Z" id="Customer-Service" fill="#00B077"></path>
    </g>
</svg>