<?xml version="1.0" encoding="UTF-8"?>
<svg width="100px" height="100px" viewBox="0 0 100 100" version="1.1" xmlns="http://www.w3.org/2000/svg" xmlns:xlink="http://www.w3.org/1999/xlink">
    <!-- Generator: Sketch 63.1 (92452) - https://sketch.com -->
    <title>FileUpload</title>
    <desc>Created with Sketch.</desc>
    <g id="FileUpload" stroke="none" stroke-width="1" fill="none" fill-rule="evenodd">
        <path d="M46.82424,6 C51.3876205,6 56.8187956,8.93304767 59.3958691,12.7509248 L59.5671123,13.0125817 L60.4609875,14.4255925 C61.9648257,16.8008136 65.7066937,18.9062723 68.5772162,19.0316947 L68.84368,19.0376 L96.46,19.0376 C97.8848947,19.0376 99.04,20.1927053 99.04,21.6176 C99.04,22.987691 97.9720402,24.1083466 96.6231633,24.1925242 L96.46,24.1976 L68.84368,24.1976 C64.278529,24.1976 58.8457877,21.2646402 56.2718311,17.446681 L56.1008077,17.1850183 L55.2077985,15.7733744 C53.7013551,13.3973371 49.95968,11.2913598 47.0905681,11.1659067 L46.82424,11.16 L10.46,11.16 C8.17028011,11.16 6.27453205,12.9884034 6.16499818,15.2529677 L6.16,15.46 L6.16,84.76396 C6.16,87.0536799 7.98840336,88.949428 10.2529677,89.0589618 L10.46,89.06396 L89.58,89.06396 C91.8697199,89.06396 93.765468,87.2355566 93.8750018,84.9709923 L93.88,84.76396 L93.88,31.45256 C93.88,30.0276653 95.0351053,28.87256 96.46,28.87256 C97.830091,28.87256 98.9507466,29.9405198 99.0349242,31.2893967 L99.04,31.45256 L99.04,84.76396 C99.04,89.8830461 94.9342208,94.0770854 89.8485546,94.2201858 L89.58,94.22396 L10.46,94.22396 C5.34091387,94.22396 1.14687456,90.1181808 1.00377424,85.0325146 L1,84.76396 L1,15.46 C1,10.3409139 5.10577921,6.14687456 10.1914454,6.00377424 L10.46,6 L46.82424,6 Z M50.02,33.553024 L50.0533925,33.5537504 C50.0841029,33.5541413 50.1148076,33.5550773 50.145491,33.5565582 L50.02,33.553024 C50.100674,33.553024 50.1804832,33.5567267 50.2592669,33.5639716 C50.2697649,33.5655261 50.2810978,33.5666455 50.2924244,33.5678396 C50.3426449,33.5725223 50.3916213,33.5791154 50.4401423,33.587062 C50.4457612,33.5886438 50.4521051,33.5897069 50.4584458,33.5907938 C50.5055087,33.5981965 50.551512,33.6073972 50.5970563,33.6178031 C50.6095594,33.6213266 50.6222214,33.6243173 50.6348646,33.6274047 C50.68224,33.6383288 50.7289803,33.651185 50.77517,33.6653024 C50.7799017,33.6673346 50.7855432,33.6690739 50.7911798,33.6708329 C50.8858825,33.6999168 50.977351,33.7344975 51.0661773,33.7739479 C51.136208,33.8052783 51.2052187,33.8396142 51.2728962,33.8772282 C51.3037576,33.8943031 51.3342462,33.9121045 51.3643286,33.9305048 C51.4036186,33.9545558 51.4426244,33.9798617 51.4810723,34.0063277 C51.5069598,34.0241361 51.5321641,34.0421679 51.5570246,34.0606364 C51.5750588,34.0740697 51.5932451,34.0879611 51.6112862,34.1021269 C51.6386168,34.1235184 51.6651916,34.1452434 51.6913174,34.1674801 C51.6974575,34.1728229 51.7036854,34.1781786 51.7098936,34.1835689 L51.732603,34.2033773 C51.7660215,34.2330586 51.7986637,34.2635949 51.8304952,34.2949518 L51.8447639,34.309289 L70.4207639,52.887009 C71.42827,53.8946083 71.4281944,55.5281739 70.420595,56.5356799 C69.4568044,57.4993814 67.920296,57.5412122 66.9067854,56.6612233 L66.7719241,56.535511 L52.599,42.361 L52.6,69.277424 C52.6,70.7023187 51.4448947,71.857424 50.02,71.857424 C48.649909,71.857424 47.5292534,70.7894642 47.4450758,69.4405873 L47.44,69.277424 L47.439,42.363 L33.2687639,56.535511 C32.3050625,57.4993017 30.768558,57.5412748 29.754966,56.6613797 L29.620093,56.5356799 C28.6563023,55.5719785 28.6143292,54.035474 29.4942243,53.021882 L29.6199241,52.887009 L48.1801998,34.3242846 C48.2255076,34.2782036 48.2725334,34.233817 48.3211733,34.1912286 L48.1959241,34.309289 C48.2477526,34.2574556 48.3012379,34.2082885 48.3562094,34.1617876 C48.3910239,34.1316801 48.4271116,34.1028009 48.4639724,34.0748892 C48.4699954,34.0708853 48.4759826,34.0663871 48.4819848,34.0619182 C48.5214383,34.0320341 48.5617555,34.003798 48.6028941,33.9767074 C48.6143957,33.969604 48.6257572,33.9622488 48.6371633,33.9549919 C48.6656029,33.9364288 48.6948457,33.9186252 48.7244629,33.9013943 C48.7488062,33.8877184 48.7726033,33.8743954 48.7965616,33.8614788 C48.8221894,33.8471436 48.8487207,33.8334074 48.8755158,33.820123 C48.8958081,33.8106283 48.9152792,33.801303 48.9348404,33.792236 C49.1841655,33.6757796 49.4561972,33.5984228 49.7422105,33.5678044 C49.7602285,33.5665428 49.7782262,33.5647932 49.7962372,33.5632322 C49.828603,33.5598133 49.8610461,33.557636 49.893648,33.5560638 C49.9242119,33.5551346 49.95525,33.5541705 49.9862941,33.5537633 C49.9978259,33.553094 50.0089048,33.553024 50.02,33.553024 Z" id="File-Upload" fill="#00B077"></path>
    </g>
</svg>