<?xml version="1.0" encoding="UTF-8"?>
<svg width="100px" height="100px" viewBox="0 0 100 100" version="1.1" xmlns="http://www.w3.org/2000/svg" xmlns:xlink="http://www.w3.org/1999/xlink">
    <!-- Generator: Sketch 63.1 (92452) - https://sketch.com -->
    <title>FileDownload</title>
    <desc>Created with Sketch.</desc>
    <g id="FileDownload" stroke="none" stroke-width="1" fill="none" fill-rule="evenodd">
        <path d="M46.82424,6 C51.3876205,6 56.8187956,8.93304767 59.3958691,12.7509248 L59.5671123,13.0125817 L60.4609875,14.4255925 C61.9648257,16.8008136 65.7066937,18.9062723 68.5772162,19.0316947 L68.84368,19.0376 L96.46,19.0376 C97.8848947,19.0376 99.04,20.1927053 99.04,21.6176 C99.04,22.987691 97.9720402,24.1083466 96.6231633,24.1925242 L96.46,24.1976 L68.84368,24.1976 C64.278529,24.1976 58.8457877,21.2646402 56.2718311,17.446681 L56.1008077,17.1850183 L55.2077985,15.7733744 C53.7013551,13.3973371 49.95968,11.2913598 47.0905681,11.1659067 L46.82424,11.16 L10.46,11.16 C8.17028011,11.16 6.27453205,12.9884034 6.16499818,15.2529677 L6.16,15.46 L6.16,84.76396 C6.16,87.0536799 7.98840336,88.949428 10.2529677,89.0589618 L10.46,89.06396 L89.58,89.06396 C91.8697199,89.06396 93.765468,87.2355566 93.8750018,84.9709923 L93.88,84.76396 L93.88,31.45256 C93.88,30.0276653 95.0351053,28.87256 96.46,28.87256 C97.830091,28.87256 98.9507466,29.9405198 99.0349242,31.2893967 L99.04,31.45256 L99.04,84.76396 C99.04,89.8830461 94.9342208,94.0770854 89.8485546,94.2201858 L89.58,94.22396 L10.46,94.22396 C5.34091387,94.22396 1.14687456,90.1181808 1.00377424,85.0325146 L1,84.76396 L1,15.46 C1,10.3409139 5.10577921,6.14687456 10.1914454,6.00377424 L10.46,6 L46.82424,6 Z M50.01828,33.553884 C51.388371,33.553884 52.5090266,34.6218438 52.5932042,35.9707207 L52.59828,36.133884 L52.598,63.046 L66.7713205,48.8757125 C67.7350665,47.9119665 69.271573,47.8700645 70.2851243,48.7500065 L70.4199915,48.8757125 C71.3837375,49.8394585 71.4256395,51.375965 70.5456975,52.3895163 L70.4199915,52.5243835 L51.8435859,71.1016486 C51.7623506,71.1829699 51.6757151,71.2588957 51.5842634,71.3288422 C51.5708319,71.3385476 51.5581933,71.3480353 51.5454884,71.3573918 C51.4664754,71.4160933 51.3832189,71.4703261 51.2968328,71.5197087 C51.2814561,71.5280188 51.2660255,71.5366237 51.2505267,71.545058 C51.0078431,71.6777196 50.7416522,71.7720472 50.4598121,71.8206502 C50.4485659,71.8218096 50.4372491,71.8236895 50.4259226,71.8254937 C50.3257148,71.8421714 50.2234853,71.852316 50.1196826,71.8563278 C50.107937,71.8562354 50.095924,71.8566242 50.0839092,71.8569296 C50.061925,71.8580123 50.0401342,71.858284 50.01828,71.858284 L49.9617366,71.8571596 C49.9413768,71.8567188 49.9210213,71.8560384 49.9006745,71.8551184 L50.01828,71.858284 C49.937606,71.858284 49.8577968,71.8545813 49.7790131,71.8473364 C49.7677269,71.8457087 49.7557255,71.844518 49.7437312,71.8432435 C49.703119,71.8395415 49.6634779,71.8343985 49.6241297,71.8283666 C49.6022682,71.8243587 49.5798968,71.8206258 49.5575683,71.8165973 C49.52001,71.8104938 49.4829717,71.8029608 49.4462309,71.7946437 C49.4315594,71.7906542 49.4168649,71.7871948 49.4021959,71.783605 C49.3645704,71.775049 49.3271709,71.764978 49.2901175,71.7540978 C49.2715296,71.7480401 49.2532177,71.7424504 49.2349576,71.7366526 C49.1361494,71.7057868 49.0396611,71.6684391 48.9461712,71.6256706 C48.9375855,71.621473 48.9289555,71.6174767 48.9203432,71.6134301 C48.8783039,71.5938843 48.8368377,71.5729595 48.7960316,71.5509678 C48.7857507,71.545309 48.7754998,71.5397028 48.7652793,71.5340218 C48.6661349,71.4789427 48.5708957,71.417333 48.4802343,71.3499126 C48.4614469,71.3359041 48.4425784,71.321461 48.4238668,71.3067221 C48.3941976,71.2834261 48.3652407,71.2595933 48.3368222,71.235152 C48.3341817,71.23276 48.3312367,71.2302143 48.3282961,71.2276609 L48.3106706,71.2123544 C48.2755084,71.1812858 48.2411999,71.1492731 48.2077848,71.1163562 L48.1934316,71.1019346 L29.6191516,52.5242146 C28.6116922,51.5165686 28.6118435,49.883003 29.6194894,48.8755436 C30.5833247,47.9118868 32.1198351,47.8701271 33.1333049,48.7501629 L33.2681604,48.8758814 L47.438,63.048 L47.43828,36.133884 C47.43828,34.7089893 48.5933853,33.553884 50.01828,33.553884 Z" id="File-Download" fill="#00B077"></path>
    </g>
</svg>