<?xml version="1.0" encoding="UTF-8"?>
<svg width="100px" height="100px" viewBox="0 0 100 100" version="1.1" xmlns="http://www.w3.org/2000/svg" xmlns:xlink="http://www.w3.org/1999/xlink">
    <!-- Generator: Sketch 63.1 (92452) - https://sketch.com -->
    <title>GroupofPeople</title>
    <desc>Created with Sketch.</desc>
    <g id="GroupofPeople" stroke="none" stroke-width="1" fill="none" fill-rule="evenodd">
        <path d="M61.9867114,49.3411022 L62.4125721,49.5286425 C62.8452228,49.7253084 63.4176518,50.001366 64.0937814,50.3527296 C65.6357814,51.1540595 67.1786914,52.0750804 68.6315243,53.1107182 C71.9777142,55.496017 74.3779734,58.1296025 75.3812183,61.1350502 C76.1829592,63.539375 76.5561349,65.6175099 76.6646589,67.9394656 L76.6850795,68.4798892 C76.7040679,69.1322256 76.7065178,69.6489852 76.6946245,70.5536275 L76.6589583,72.9199358 C76.6567578,73.1568769 76.6557868,73.3745704 76.6557868,73.607632 C76.6557868,75.0325267 75.5006815,76.187632 74.0757868,76.187632 C72.6508922,76.187632 71.4957868,75.0325267 71.4957868,73.607632 L71.5010473,72.6895413 L71.5405532,69.9469442 C71.5439887,69.4292005 71.5397284,69.0582259 71.5272642,68.6300243 C71.4673502,66.5717117 71.1833985,64.8581627 70.4864532,62.7681069 C69.9017736,61.0165668 68.1754267,59.1224037 65.6363583,57.3124536 C64.5744506,56.5554831 63.4374655,55.8591914 62.2891819,55.2365257 L62.1624788,55.169332 L62.1278792,55.2298522 C56.4792705,64.8027388 44.1109731,64.785682 38.3666251,55.4882061 L38.1734788,55.167332 L38.0444599,55.2364028 C37.0879781,55.7553288 36.1393382,56.3253871 35.2354338,56.9390838 L34.6987545,57.3124785 C32.1610938,59.122345 30.435573,61.0164081 29.8513725,62.7665112 C28.946985,65.4817013 28.5512292,70.8420859 28.445405,77.9335604 L28.4244788,79.742332 L74.3750668,79.742872 C75.7451578,79.742872 76.8658135,80.8108318 76.949991,82.1597087 L76.9550668,82.322872 C76.9550668,83.692963 75.887107,84.8136186 74.5382301,84.8977962 L74.3750668,84.902872 L25.6681068,84.902872 L25.4805348,84.8976289 C23.517517,84.7864751 22.7625101,82.9304166 23.2155142,81.4770284 L23.2554788,81.358332 L23.2632918,79.7943056 C23.3223606,71.2816953 23.709239,65.1150661 24.8718679,61.3960429 L24.9563332,61.1342771 C25.9591653,58.1300665 28.3582529,55.4966453 31.7025789,53.111463 C33.1548732,52.0756828 34.6972123,51.1545316 36.2386437,50.3530853 L36.9533817,49.9897298 C37.5464513,49.6953735 38.0223382,49.4778646 38.3449794,49.3412896 C39.6753704,48.7781306 41.2088707,49.4170366 41.745857,50.7582054 C45.2043334,59.3960424 55.095739,59.4988575 58.5854162,50.760357 C59.1214649,49.4180376 60.6555523,48.7779106 61.9867114,49.3411022 Z M12.1887423,58.2382403 C13.0123247,59.4010115 12.7373578,61.0112692 11.5745866,61.8348515 C9.47850158,63.3194932 7.84864368,65.5947983 7.2335861,68.8888927 C7.08064191,69.7021154 6.94064585,70.6048145 6.8137707,71.5807571 C6.62935123,72.9993391 6.47987268,74.5106738 6.36226122,76.0384438 L6.31247881,76.714332 L16.1274388,76.714468 C17.4975298,76.714468 18.6181855,77.7824278 18.702363,79.1313047 L18.7074388,79.294468 C18.7074388,80.664559 17.639479,81.7852146 16.2906021,81.8693922 L16.1274388,81.874468 L3.58003881,81.874468 C2.1168847,81.874468 0.946556629,80.6590161 1.00188402,79.1969084 L1.03534814,78.4715607 L1.09635435,77.3903727 C1.11199327,77.1364018 1.12904895,76.8737876 1.14757895,76.6035191 C1.28018793,74.6693569 1.46048901,72.7335071 1.69682946,70.915541 C1.83555918,69.8484114 1.99022148,68.8511439 2.16186847,67.9384881 C3.04213097,63.2240053 5.46883398,59.8362929 8.59213106,57.6240845 C9.75490228,56.8005021 11.36516,57.075469 12.1887423,58.2382403 Z M20.1343508,26.040344 C29.7810584,26.040344 36.1416461,36.6862029 31.3767207,47.0241515 C30.7802711,48.3182043 29.2477161,48.8837235 27.9536633,48.2872739 C26.6596105,47.6908243 26.0940913,46.1582693 26.6905409,44.8642165 C29.9142714,37.8700334 25.9293281,31.200344 20.1343508,31.200344 C15.5111232,31.200344 11.5549908,35.9622772 11.5549908,42.053544 C11.5549908,48.0472945 15.3804915,52.7600944 19.8999813,52.9181285 L20.1343508,52.922224 C21.5592455,52.922224 22.7143508,54.0773293 22.7143508,55.502224 C22.7143508,56.9271187 21.5592455,58.082224 20.1343508,58.082224 C12.4284173,58.082224 6.39499081,50.8096068 6.39499081,42.053544 C6.39499081,33.3020678 12.4279064,26.040344 20.1343508,26.040344 Z M50.3084828,14 C65.8364388,14 70.0416951,35.5920149 58.4251424,45.4227078 C57.3374575,46.3431785 55.7095258,46.2076245 54.7890551,45.1199396 C53.8685844,44.0322547 54.0041383,42.4043229 55.0918232,41.4838522 C58.855114,38.2991074 60.5823756,32.6654566 59.5789198,27.5131832 C58.5788461,22.3782747 55.2299035,19.16 50.3084828,19.16 C43.548153,19.16 39.8735434,25.775924 40.936596,32.5595521 C42.0072098,39.2631601 45.8992112,44.0943602 52.5301231,48.4585204 C53.7203628,49.2418812 54.0502033,50.8418006 53.2668424,52.0320403 C52.4834816,53.22228 50.8835622,53.5521205 49.6933225,52.7687596 C41.9647589,47.6821757 37.1772947,41.7394243 35.8399909,33.3658773 C34.3438795,23.8188828 39.7974732,14 50.3084828,14 Z M91.7682877,57.8578991 C94.7585773,60.0984282 97.0393002,63.4129488 97.8824021,67.9356793 C98.0547262,68.8519473 98.209247,69.8494814 98.3476659,70.9168688 C98.544163,72.4321149 98.7014308,74.0291941 98.8244041,75.6389297 L98.8941121,76.6057364 C98.930818,77.1463445 98.9616252,77.656333 98.987005,78.1277898 L99.03793,79.1995735 C99.0900045,80.6067584 98.0069904,81.7847113 96.6209232,81.8700368 L96.4596948,81.874984 L83.9157348,81.874984 C82.4908402,81.874984 81.3357348,80.7198787 81.3357348,79.294984 C81.3357348,77.924893 82.4036946,76.8042374 83.7525716,76.7200598 L83.9157348,76.714984 L93.7284788,76.714332 L93.6797961,76.0373971 C93.5864756,74.8153673 93.47264,73.6038632 93.3366684,72.4419692 L93.2305138,71.5804613 C93.103987,70.6047764 92.9641977,69.702344 92.8105475,68.88535 C92.221217,65.7239613 90.6886187,63.4966726 88.6742219,61.9873489 C87.5339058,61.1329462 87.3021272,59.5159072 88.1565299,58.3755911 C89.0109326,57.235275 90.6279716,57.0034964 91.7682877,57.8578991 Z M79.9048668,26.040344 C87.6140759,26.040344 93.6476668,33.3013345 93.6476668,42.053544 C93.6476668,50.8103407 87.6135646,58.082224 79.9048668,58.082224 C78.4799722,58.082224 77.3248668,56.9271187 77.3248668,55.502224 C77.3248668,54.132133 78.3928266,53.0114774 79.7417036,52.9272998 L79.9048668,52.922224 C84.5287267,52.922224 88.4876668,48.1511829 88.4876668,42.053544 C88.4876668,35.9617305 84.5311462,31.200344 79.9048668,31.200344 C74.111087,31.200344 70.1273152,37.8695906 73.3490043,44.8649275 C73.9450612,46.1591613 73.379077,47.6915446 72.0848433,48.2876015 C70.7906095,48.8836584 69.2582262,48.3176742 68.6621693,47.0234405 C63.9008533,36.6850718 70.2593176,26.040344 79.9048668,26.040344 Z" id="Group-of-People" fill="#00B077"></path>
    </g>
</svg>