<?xml version="1.0" encoding="UTF-8"?>
<svg width="100px" height="100px" viewBox="0 0 100 100" version="1.1" xmlns="http://www.w3.org/2000/svg" xmlns:xlink="http://www.w3.org/1999/xlink">
    <!-- Generator: Sketch 63.1 (92452) - https://sketch.com -->
    <title>HamburgerMenu</title>
    <desc>Created with Sketch.</desc>
    <g id="HamburgerMenu" stroke="none" stroke-width="1" fill="none" fill-rule="evenodd">
        <path d="M96.46,23 C97.8848947,23 99.04,24.1551053 99.04,25.58 C99.04,26.950091 97.9720402,28.0707466 96.6231633,28.1549242 L96.46,28.16 L3.58,28.16 C2.15510535,28.16 1,27.0048947 1,25.58 C1,24.209909 2.06795982,23.0892534 3.41683674,23.0050758 L3.58,23 L96.46,23 Z M96.46,72.362624 C97.8848947,72.362624 99.04,73.5177293 99.04,74.942624 C99.04,76.312715 97.9720402,77.4333706 96.6231633,77.5175482 L96.46,77.522624 L3.58,77.522624 C2.15510535,77.522624 1,76.3675187 1,74.942624 C1,73.572533 2.06795982,72.4518774 3.41683674,72.3676998 L3.58,72.362624 L96.46,72.362624 Z M96.46,47.679592 C97.8848947,47.679592 99.04,48.8346973 99.04,50.259592 C99.04,51.629683 97.9720402,52.7503386 96.6231633,52.8345162 L96.46,52.839592 L3.58,52.839592 C2.15510535,52.839592 1,51.6844867 1,50.259592 C1,48.889501 2.06795982,47.7688454 3.41683674,47.6846678 L3.58,47.679592 L96.46,47.679592 Z" fill="#00B077"></path>
    </g>
</svg>