<?xml version="1.0" encoding="UTF-8"?>
<svg width="100px" height="100px" viewBox="0 0 100 100" version="1.1" xmlns="http://www.w3.org/2000/svg" xmlns:xlink="http://www.w3.org/1999/xlink">
    <!-- Generator: Sketch 63.1 (92452) - https://sketch.com -->
    <title>Heart</title>
    <desc>Created with Sketch.</desc>
    <g id="Heart" stroke="none" stroke-width="1" fill="none" fill-rule="evenodd">
        <path d="M69.035871,12.2866034 C78.1765789,9.99092278 86.8309983,12.1886501 93.5703598,19.3725901 C100.352768,26.6020325 101.508527,37.5780693 96.4406156,48.9836782 C90.9202722,61.4075103 78.5445463,73.6056277 59.9618614,83.9744604 C58.7175641,84.6687579 57.1460225,84.2228949 56.4517251,82.9785976 C55.7574276,81.7343003 56.2032906,80.1627587 57.4475879,79.4684612 C75.1226361,69.6060748 86.70234,58.1925554 91.7251565,46.8884346 C95.9968446,37.274769 95.07475,28.5178002 89.8071495,22.9030076 C84.4024051,17.141726 77.682506,15.4352562 70.2927666,17.2911826 C63.7166731,18.9427626 57.0330859,23.411186 52.3386049,29.0291472 C51.307218,30.2634246 49.4101676,30.2633395 48.3788913,29.0289696 C43.685529,23.4113233 37.0019569,18.9428006 30.4255408,17.2911869 C23.0355112,15.4352407 16.3152174,17.1417496 10.9105753,22.9029222 C5.37923068,28.7996919 4.99567323,38.4097919 10.6036585,48.9139755 C17.2128429,61.2934814 31.23878,73.5459385 51.8687659,83.6845118 C53.1475747,84.3129803 53.6747797,85.8591341 53.0463112,87.137943 C52.4178426,88.4167518 50.8716888,88.9439568 49.5928799,88.3154882 C28.0590618,77.7327281 13.2191352,64.7692047 6.05175303,51.3441518 C-0.521436146,39.0320676 -0.042713699,27.0375917 7.14723806,19.3726399 C13.8866336,12.1886636 22.5414331,9.99091861 31.6824025,12.2865991 C38.3460356,13.9601167 44.9469105,18.0024595 50.0793312,23.2287473 L50.358,23.516 L50.6388218,23.2285484 C55.6402761,18.1362535 62.0350759,14.1681449 68.5234594,12.419984 L69.035871,12.2866034 Z" fill="#00B077"></path>
    </g>
</svg>