<?xml version="1.0" encoding="UTF-8"?>
<svg width="100px" height="100px" viewBox="0 0 100 100" version="1.1" xmlns="http://www.w3.org/2000/svg" xmlns:xlink="http://www.w3.org/1999/xlink">
    <!-- Generator: Sketch 63.1 (92452) - https://sketch.com -->
    <title>Key</title>
    <desc>Created with Sketch.</desc>
    <g id="Key" stroke="none" stroke-width="1" fill="none" fill-rule="evenodd">
        <path d="M93.3347506,6.00918017 L93.4633539,6.26823794 C93.486929,6.31638097 93.5089143,6.36510586 93.5293097,6.41433413 L93.4708602,6.28481751 C93.4969591,6.33913585 93.5209868,6.39391402 93.5429745,6.44906266 C93.5569607,6.48321401 93.569587,6.51709363 93.5814773,6.55117293 C93.5884594,6.57180885 93.5954361,6.59254034 93.6021343,6.61331094 C93.6109519,6.64038258 93.6192092,6.6676965 93.627004,6.69511419 C93.6351278,6.72343053 93.6427156,6.75177903 93.6497996,6.78017683 C93.6555919,6.80427435 93.6611599,6.82822313 93.6663821,6.85223202 C93.674464,6.88779592 93.6814942,6.92353933 93.6877464,6.95932235 C93.6893431,6.97097402 93.691339,6.98295752 93.6932501,6.99495192 C93.7010575,7.04084992 93.7070755,7.08629889 93.7118635,7.13175323 C93.7126159,7.14400459 93.7138912,7.15704912 93.7150673,7.17010089 C93.7188396,7.20600825 93.7212739,7.24129925 93.7229769,7.27656397 C93.7239239,7.30665482 93.724865,7.33667115 93.7252853,7.36669342 C93.7260556,7.39031467 93.7260368,7.41428948 93.7256836,7.43823673 C93.7249414,7.46464885 93.7241849,7.49091516 93.7230296,7.5171672 C93.7215835,7.5550547 93.7190254,7.59284899 93.7156419,7.63052771 C93.7140932,7.64713295 93.7124308,7.66413113 93.7106003,7.68111461 C93.7064386,7.71893585 93.701539,7.75604338 93.6958422,7.79299869 C93.6934126,7.81051767 93.6904289,7.82884949 93.6872469,7.84715358 C93.6811544,7.87977845 93.6749462,7.91150668 93.6681502,7.94309374 C93.6098199,8.21971583 93.5048194,8.48905436 93.3538101,8.73834325 C93.3468523,8.74812418 93.3407295,8.75810897 93.3345373,8.76805455 C93.3177316,8.79655449 93.2994682,8.82456356 93.280605,8.85228667 C93.2653298,8.8736238 93.2501969,8.89523309 93.2347209,8.91662376 C93.2168582,8.94211662 93.1979874,8.96713146 93.1786011,8.9918739 C93.1628859,9.01142045 93.1475201,9.03052621 93.1318662,9.04942801 C93.1203586,9.06364342 93.1080626,9.07812525 93.0955812,9.09250187 L93.0735463,9.11739756 C93.0526972,9.14085489 93.0313847,9.16396614 93.0096142,9.18671618 L92.9698751,9.22736905 L53.8037551,48.393489 C52.7962025,49.4010417 51.1626368,49.4010417 50.1550842,48.393489 C49.1913381,47.429743 49.1494361,45.8932365 50.0293782,44.8796852 L50.1550842,44.7448181 L87.8929933,7.00551485 C86.0910439,4.70687285 83.5621745,4.55220248 81.4969667,6.61932542 L45.4237431,42.689109 C44.620529,43.4923232 43.4194731,43.6552205 42.4548889,43.177801 L42.5858867,43.2198359 C33.5208818,40.1348691 22.4316544,42.3126385 15.6833652,49.0550309 C5.65241047,59.0875484 5.65289366,75.3352126 15.6797831,85.3621021 C25.709011,95.3913299 41.958395,95.3922963 51.9901522,85.3621021 C58.6798476,78.6724066 60.8022516,67.5066165 57.7139108,58.3776219 C57.3879783,57.4141804 57.6635847,56.3923486 58.3389183,55.720295 C58.3615983,55.6942875 58.3859579,55.6689099 58.4109371,55.6439172 L64.9821237,49.0680896 L64.983479,49.0309876 C64.9833522,48.8049123 64.9665889,48.5268056 64.9233076,48.0043719 L64.8267053,46.839356 L64.789703,46.2381669 C64.6801456,44.0030516 64.9590768,42.5494574 66.2202282,41.2883061 C67.528466,39.9800682 69.099449,39.6953251 71.4093063,39.8184123 L71.9946891,39.8566831 L73.3261237,39.9690896 L73.309449,39.3329148 L73.2521075,37.9525319 C73.2228562,37.1584657 73.2235341,36.7036294 73.2591238,36.1700313 C73.3458264,34.8700954 73.6295159,33.8747601 74.4564127,33.0504019 C75.8921562,31.6159553 77.4020836,31.3867192 79.6683069,31.692064 L80.5043826,31.8210189 L80.965041,31.8972841 L81.4911237,31.9750896 L81.4646871,31.4359648 L81.4003773,30.4241177 C81.2211839,27.5330819 81.3595222,26.1441046 82.6886051,24.8216582 C84.1105792,23.3933289 85.2912634,23.3013212 88.1226944,23.6628119 L89.0492758,23.7815203 C89.5034216,23.8342752 89.8031943,23.8539308 90.0377127,23.8462922 L90.2111237,23.8340896 C91.4764959,22.4361598 92.2256044,19.6201683 91.8153305,16.2267961 L91.768726,15.8737326 C91.5669371,14.4631987 92.5468186,13.1561528 93.9573526,12.9543639 C95.3678866,12.752575 96.6749324,13.7324565 96.8767213,15.1429905 C97.6182652,20.3264921 96.3500557,25.0004204 93.7320385,27.6184358 C92.3436594,29.0039873 90.9766338,29.1921708 88.532303,28.9158551 L87.1899282,28.7460081 C86.9256455,28.7138771 86.7261404,28.6932906 86.5627146,28.6819118 L86.5101237,28.6780896 L86.5075919,28.781121 C86.5023681,29.016189 86.5083121,29.2974781 86.5251233,29.6485722 L86.6191826,31.1877224 C86.6583355,31.8608556 86.6677022,32.2543194 86.6504962,32.6933187 L86.6445404,32.8267098 C86.5828585,34.0647097 86.3101132,35.0394758 85.4952648,35.8517695 C84.0156256,37.334472 82.7765144,37.4161366 80.0469338,36.9755098 L79.4036784,36.8691485 C79.0419483,36.8106772 78.7636687,36.774508 78.5434907,36.7577865 L78.3951237,36.7480896 L78.3929266,37.1515498 C78.3943661,37.2862575 78.3979425,37.4379703 78.4036821,37.6146274 L78.4747644,39.3902712 C78.4960859,40.0560404 78.4924407,40.4798493 78.4596946,40.9660858 C78.3722912,42.2639097 78.0880411,43.2594522 77.2599216,44.0888333 C76.5056699,44.8418153 75.6358535,45.104961 74.5642272,45.1600207 L74.3314726,45.1687369 C73.923273,45.1786632 73.614386,45.1685817 73.0454626,45.124164 L71.4900934,44.9934601 L71.3736269,44.9854367 C70.8127308,44.9482672 70.3910783,44.9463332 70.0776076,44.9793486 L69.9621237,44.9930896 L69.9498916,45.10432 C69.925686,45.3819449 69.9279695,45.7421225 69.9566147,46.2177616 L69.9907718,46.6954562 L70.0987131,47.9914844 C70.1428087,48.5801525 70.1523069,48.9157248 70.1384617,49.344433 C70.0997544,50.5429762 69.8365051,51.5096788 69.0213555,52.3274006 L63.079794,58.2720682 C66.046403,68.8671523 63.3980456,81.2515506 55.638681,89.0109152 C43.591597,101.056122 24.0753009,101.054962 12.0311122,89.010773 C-0.010786732,76.9688742 -0.0113670738,57.4542979 12.0353497,45.4057049 C19.8911551,37.5567635 32.3154529,34.8586819 42.9032069,37.9124847 L77.8477866,2.97116403 C82.8324851,-2.01815852 90.0141066,-0.535890059 93.3347506,6.00918017 Z M21.4141841,65.8422103 C17.608658,69.6477362 17.608658,75.8242544 21.4153051,79.6285618 C25.2201115,83.4357061 31.3948974,83.4385986 35.2057312,79.6371222 C38.9448583,75.8934077 39.0141014,69.8758678 35.4145222,66.051208 L35.2068542,65.8370898 C31.3966743,62.0315879 25.2210217,62.0330343 21.4141841,65.8422103 Z M31.5604251,69.4880013 C33.3521914,71.2808698 33.3521914,74.1911195 31.5581846,75.9873303 C29.7664898,77.7746194 26.8562402,77.7732562 25.0639752,75.9798903 C23.2726213,74.1896367 23.2726213,71.2811149 25.0634151,69.490321 C26.856394,67.696241 29.76578,67.6955596 31.5604251,69.4880013 Z" fill="#00B077"></path>
    </g>
</svg>