<?xml version="1.0" encoding="UTF-8"?>
<svg width="100px" height="100px" viewBox="0 0 100 100" version="1.1" xmlns="http://www.w3.org/2000/svg" xmlns:xlink="http://www.w3.org/1999/xlink">
    <!-- Generator: Sketch 63.1 (92452) - https://sketch.com -->
    <title>Link</title>
    <desc>Created with Sketch.</desc>
    <g id="Link" stroke="none" stroke-width="1" fill="none" fill-rule="evenodd">
        <path d="M37.0930733,48.2401853 C38.5118048,48.3725697 39.5545953,49.6299975 39.4222109,51.048729 C39.2949183,52.412894 38.1274597,53.4294802 36.7765963,53.387972 L36.6136672,53.3778667 C34.1860161,53.1513383 31.7816652,53.9485444 29.9905678,55.6175894 L29.7699174,55.8307499 L12.6486754,72.9537107 C9.39799802,76.2095602 9.33165766,81.5005215 12.4476942,84.8362351 L12.6465902,85.0421352 L15.1167832,87.5106081 C18.3705253,90.7630574 23.6656309,90.829434 26.9973062,87.7101644 L27.2029432,87.5110621 L44.3293,70.3829873 C46.1381038,68.5780348 47.0134371,66.0815178 46.7817147,63.5598324 C46.6513277,62.1409159 47.6958874,60.8849573 49.1148039,60.7545704 C50.5337204,60.6241835 51.7896789,61.6687431 51.9200658,63.0876596 C52.2789562,66.9932314 50.9696346,70.8815519 48.244274,73.7583056 L47.9761174,74.0335099 L30.8527937,91.1585529 C25.604873,96.4127385 17.0732052,96.4935722 11.7177942,91.4026993 L11.4691103,91.1602768 L8.99746723,88.6903533 C3.74934683,83.4359702 3.66860652,74.9133126 8.75619694,69.5553922 L8.99846314,69.3065821 L26.1198623,52.1834639 C29.0302471,49.2689509 33.0529999,47.863199 37.0930733,48.2401853 Z M68.8321343,31.327763 C69.7959307,32.2914586 69.8379132,33.8279629 68.9580242,34.8415602 L68.8323252,34.976434 L35.9751652,67.837034 C34.9676653,68.8446394 33.3340997,68.8447249 32.3264943,67.837225 C31.3626978,66.8735294 31.3207154,65.3370251 32.2006043,64.3234278 L32.3263033,64.188554 L65.1834633,31.327954 C66.1909632,30.3203486 67.8245288,30.3202631 68.8321343,31.327763 Z M89.4380135,7.75764951 L89.6865418,8.00001451 L92.159539,10.4730118 C97.4111973,15.722582 97.491992,24.2537326 92.4020945,29.6081517 L92.1597185,29.8567888 L75.038597,46.9744693 C72.1345469,49.8826474 68.120778,51.289933 64.0892971,50.9216518 C62.6703109,50.7920255 61.6250782,49.536627 61.7547045,48.1176408 C61.8793452,46.753231 63.0448255,45.7343773 64.395767,45.7732596 L64.5587154,45.7830482 C66.9810903,46.0043354 69.3809236,45.2057434 71.1685871,43.5396767 L71.3888141,43.3269112 L88.5108682,26.2082972 C91.7617513,22.9561214 91.8280959,17.6605108 88.7102427,14.327751 L88.5112308,14.1220455 L86.0378708,11.6486855 C82.7872836,8.39809831 77.4930875,8.33175979 74.1579335,11.4495838 L73.9520734,11.6485939 L56.829162,28.7732232 C55.0166977,30.5818393 54.1420219,33.0858548 54.378103,35.6131503 C54.510629,37.0318686 53.4679642,38.2894007 52.0492459,38.4219267 C50.6305276,38.5544528 49.3729956,37.511788 49.2404695,36.0930697 C48.8749747,32.1803738 50.1827482,28.28152 52.9136264,25.398503 L53.1823391,25.1227061 L70.3036734,7.99965192 C75.5566458,2.74876734 84.0859101,2.6679845 89.4380135,7.75764951 Z" fill="#00B077"></path>
    </g>
</svg>