<?xml version="1.0" encoding="UTF-8"?>
<svg width="100px" height="100px" viewBox="0 0 100 100" version="1.1" xmlns="http://www.w3.org/2000/svg" xmlns:xlink="http://www.w3.org/1999/xlink">
    <!-- Generator: Sketch 63.1 (92452) - https://sketch.com -->
    <title>Location</title>
    <desc>Created with Sketch.</desc>
    <g id="Location" stroke="none" stroke-width="1" fill="none" fill-rule="evenodd">
        <path d="M58.588,89.319 L58.4795047,89.4519638 C57.5941256,90.4652083 56.0621834,90.6323087 54.9756409,89.8052165 C53.8890985,88.9781244 53.6422634,87.4569927 54.3831839,86.333784 L54.4899033,86.1855004 L59.0552957,80.3543486 C61.4071093,77.3312254 64.0773225,73.8696089 65.5310864,71.8922373 L65.7787444,71.5535129 C75.4749162,58.2088425 80.7766748,46.8475931 80.8843618,36.1650487 C80.9278361,31.8523992 80.0815012,27.7630086 78.2696227,23.8762995 C73.4102821,13.4524349 64.5797825,7.27104869 54.0716752,5.97597102 C44.2934217,4.7708446 34.2620146,8.04981343 27.8455121,14.5596839 C17.680208,24.8696177 16.9656925,38.1897535 24.0499766,54.4419346 C29.438161,66.8030636 38.218021,79.0122305 51.449804,94.3432516 C52.3807951,95.4219455 52.2610583,97.051117 51.1823644,97.982108 C50.1036705,98.9130991 48.474499,98.7933623 47.543508,97.7146684 C33.9946905,82.0163149 24.9708069,69.4678118 19.3198254,56.5037954 C11.4736625,38.5037746 12.3069262,22.9699116 24.1708711,10.937169 C31.7383549,3.25956907 43.3689651,-0.542131717 54.7028468,0.854718984 C66.9428363,2.36324345 77.3203589,9.62755226 82.9464108,21.6961037 C85.0909402,26.2963912 86.0951909,31.1488125 86.0440996,36.2170623 C85.9247811,48.0534495 80.4039267,60.0651524 70.4314106,73.9252213 L69.6881639,74.9490259 C68.4303329,76.6594612 66.3136192,79.4165099 64.2632934,82.0612727 L58.588,89.319 Z M50.13598,28.715384 C54.7115083,28.715384 58.42294,32.4272215 58.42294,37.002344 C58.42294,41.5805008 54.7119139,45.292744 50.13598,45.292744 C45.5570118,45.292744 41.84558,41.5809065 41.84558,37.002344 C41.84558,32.4268159 45.5574176,28.715384 50.13598,28.715384 Z M50.13598,23.555384 C42.7077545,23.555384 36.68558,29.5769003 36.68558,37.002344 C36.68558,44.4305696 42.7070962,50.452744 50.13598,50.452744 C57.562082,50.452744 63.58294,44.4299113 63.58294,37.002344 C63.58294,29.5775585 57.5614238,23.555384 50.13598,23.555384 Z" fill="#00B077"></path>
    </g>
</svg>