<?xml version="1.0" encoding="UTF-8"?>
<svg width="100px" height="100px" viewBox="0 0 100 100" version="1.1" xmlns="http://www.w3.org/2000/svg" xmlns:xlink="http://www.w3.org/1999/xlink">
    <!-- Generator: Sketch 63.1 (92452) - https://sketch.com -->
    <title>MedicalKit</title>
    <desc>Created with Sketch.</desc>
    <g id="MedicalKit" stroke="none" stroke-width="1" fill="none" fill-rule="evenodd">
        <path d="M23.150288,18.494918 L23.1671373,18.4945918 C23.2091211,18.4948133 23.2511477,18.4960539 23.2931792,18.4983227 L23.150288,18.494918 C23.2098337,18.494918 23.2689109,18.4969236 23.3274558,18.5008709 C23.3692364,18.5032085 23.4112623,18.5070635 23.4532446,18.5119581 C23.4660639,18.5139038 23.4790372,18.5155109 23.4919804,18.5172134 C23.5346458,18.5224046 23.5770204,18.5290734 23.619299,18.5368179 C23.6286466,18.5388985 23.6379918,18.5406579 23.6473192,18.5424671 C23.6860974,18.5496589 23.7247869,18.5581153 23.7633577,18.5674875 C23.7882849,18.5737985 23.8129515,18.5801646 23.8374732,18.5868814 C23.8576206,18.5922012 23.8779322,18.5980485 23.8982005,18.6041553 C23.9339482,18.615061 23.9693453,18.6265439 24.0044,18.6387575 C24.0229695,18.6451648 24.0416103,18.651915 24.0602032,18.6588919 C24.0930563,18.6712297 24.1253882,18.6840957 24.157393,18.6975851 C24.1764415,18.7056626 24.1956935,18.7140634 24.2148815,18.7227162 C24.2504543,18.7386635 24.285695,18.75551 24.3204854,18.7731171 C24.332831,18.7794742 24.3457152,18.7861275 24.3585646,18.7928992 C24.416606,18.8236124 24.4659703,18.8519776 24.5142801,18.8818839 L24.5129393,18.8810513 L31.521,23.202 L68.728,23.202 L75.7353871,18.8811892 L75.7552238,18.868211 C75.8450884,18.8138266 75.9385178,18.7647407 76.0350789,18.7213862 C76.0451045,18.7175684 76.0547827,18.7132838 76.0644766,18.709063 C76.1023272,18.691968 76.1410423,18.6762558 76.1802091,18.6614639 C76.1989104,18.6548774 76.2169601,18.6482711 76.2350521,18.6418769 C76.2695112,18.629316 76.3051854,18.6176115 76.3411911,18.6066686 C76.3613586,18.6007825 76.3806951,18.5951332 76.4000675,18.5897187 C76.4262192,18.5822574 76.4532534,18.5752013 76.4804554,18.5685739 C76.5125411,18.5607889 76.5442288,18.5536672 76.5759802,18.547157 C76.5955601,18.5432211 76.615532,18.5393932 76.6355839,18.5357957 C76.6749581,18.5285619 76.7139938,18.5224456 76.7530784,18.5172345 C76.7629033,18.5161891 76.7732191,18.5148846 76.7835535,18.5136408 C76.8293554,18.5078118 76.8747153,18.5035403 76.920082,18.5004695 C76.9240204,18.5005802 76.9283918,18.5002963 76.9327661,18.5000233 L76.9571099,18.4982296 C76.9981402,18.4960425 77.0391655,18.4948351 77.0801503,18.494599 L77.096878,18.494918 L86.966528,18.494918 C93.8603204,18.494918 99.2771541,25.0248453 99.4262919,32.8677604 L99.429448,33.199918 L99.429448,83.200378 C99.429448,91.1889442 92.9887345,97.7334054 85.0390249,97.902044 L84.724448,97.905378 L15.524448,97.905378 C7.537057,97.905378 0.991451168,91.4641391 0.822782606,83.5149344 L0.819448,83.200378 L0.819448,33.199918 C0.819448,25.3210522 6.14053457,18.6816962 12.9919706,18.4987895 L13.282368,18.494918 L23.150288,18.494918 Z M70.8269929,28.0059768 C70.4760125,28.2224359 70.0793779,28.3516133 69.6702572,28.3841037 L69.46481,28.392248 L30.78547,28.392248 C30.3731853,28.392248 29.9678545,28.2940297 29.6026283,28.1069918 L29.4235107,28.0061147 L22.414448,23.684732 L13.282368,23.684918 C9.48924058,23.684918 6.13358164,27.7182796 6.01281161,32.9102987 L6.009448,33.199918 L6.009448,83.200378 C6.009448,88.3369304 10.1515899,92.5672255 15.2549782,92.7115709 L15.524448,92.715378 L84.724448,92.715378 C89.8616428,92.715378 94.0913177,88.5742755 94.2356414,83.4699015 L94.239448,83.200378 L94.239448,33.199918 C94.239448,27.9659715 90.952755,23.8374472 87.1767895,23.6890493 L86.966528,23.684918 L77.832448,23.684732 L70.8269929,28.0059768 Z M58.854028,35.565174 C60.2872069,35.565174 61.449028,36.7269951 61.449028,38.160174 C61.449028,39.5382307 60.3748591,40.6654017 59.0181399,40.7500687 L58.854028,40.755174 L43.986,40.755 L43.986408,52.169714 C43.986408,53.5477707 42.9122391,54.6749417 41.5555199,54.7596087 L41.391408,54.764714 L29.976,54.764 L29.976,67.035 L41.391408,67.035604 C42.7694647,67.035604 43.8966357,68.1097729 43.9813027,69.4664921 L43.986408,69.630604 L43.986,81.048 L56.259,81.048 L56.259028,69.630604 C56.259028,68.2525473 57.3331969,67.1253763 58.6899161,67.0407093 L58.854028,67.035604 L70.273,67.035 L70.273,54.764 L58.854028,54.764714 C57.4759713,54.764714 56.3488003,53.6905451 56.2641333,52.3338259 L56.259028,52.169714 L56.259028,46.249654 C56.259028,44.8164751 57.4208491,43.654654 58.854028,43.654654 C60.2320847,43.654654 61.3592557,44.7288229 61.4439227,46.0855421 L61.449028,46.249654 L61.449,49.574 L72.868758,49.574714 C74.2468147,49.574714 75.3739857,50.6488829 75.4586527,52.0056021 L75.463758,52.169714 L75.463758,69.630604 C75.463758,71.0086607 74.3895891,72.1358317 73.0328699,72.2204987 L72.868758,72.225604 L61.449,72.225 L61.449028,83.643604 C61.449028,85.0216607 60.3748591,86.1488317 59.0181399,86.2334987 L58.854028,86.238604 L41.391408,86.238604 C40.0133513,86.238604 38.8861803,85.1644351 38.8015133,83.8077159 L38.796408,83.643604 L38.796,72.225 L27.381868,72.225604 C26.0038113,72.225604 24.8766403,71.1514351 24.7919733,69.7947159 L24.786868,69.630604 L24.786868,52.169714 C24.786868,50.7916573 25.8610369,49.6644863 27.2177561,49.5798193 L27.381868,49.574714 L38.796,49.574 L38.796408,38.160174 C38.796408,36.7821173 39.8705769,35.6549463 41.2272961,35.5702793 L41.391408,35.565174 L58.854028,35.565174 Z M71.244288,2.045732 C72.0431924,2.045732 72.7938682,2.41341067 73.283671,3.03604669 L73.3919748,3.18420649 L78.7913048,11.1456665 C79.5957216,12.3318011 79.2862782,13.9454619 78.1001435,14.7498788 C76.9634311,15.5207782 75.4340776,15.2687053 74.6006087,14.2024011 L74.4959312,14.0587175 L69.868,7.235 L30.38,7.235 L25.7529648,14.0587175 C24.9820653,15.1954299 23.4679539,15.5269866 22.2991566,14.8446467 L22.1487525,14.7498788 C21.0120401,13.9789793 20.6804834,12.4648679 21.3628233,11.2960706 L21.4575912,11.1456665 L26.8569212,3.18420649 C27.3053315,2.52301325 28.030972,2.10810649 28.8211984,2.05220753 L29.004608,2.045732 L71.244288,2.045732 Z" id="Medical-Kit" fill="#00B077"></path>
    </g>
</svg>