<?xml version="1.0" encoding="UTF-8"?>
<svg width="100px" height="100px" viewBox="0 0 100 100" version="1.1" xmlns="http://www.w3.org/2000/svg" xmlns:xlink="http://www.w3.org/1999/xlink">
    <!-- Generator: Sketch 63.1 (92452) - https://sketch.com -->
    <title>Money</title>
    <desc>Created with Sketch.</desc>
    <g id="Money" stroke="none" stroke-width="1" fill="none" fill-rule="evenodd">
        <path d="M49.848336,0.56982 C76.9253107,0.56982 98.868336,22.5128453 98.868336,49.58982 C98.868336,76.6679354 76.92589,98.60982 49.848336,98.60982 C22.770782,98.60982 0.828336,76.6679354 0.828336,49.58982 C0.828336,22.5128453 22.7713613,0.56982 49.848336,0.56982 Z M49.848336,5.72982 C25.6211507,5.72982 5.988336,25.3626347 5.988336,49.58982 C5.988336,73.8181165 25.6205418,93.44982 49.848336,93.44982 C74.0761302,93.44982 93.708336,73.8181165 93.708336,49.58982 C93.708336,25.3626347 74.0755213,5.72982 49.848336,5.72982 Z M50.908372,20.02732 C52.278463,20.02732 53.3991186,21.0952798 53.4832962,22.4441567 L53.488372,22.60732 L53.4886826,28.113606 C60.6661219,29.0499069 66.2380747,33.1234102 67.7931574,38.4473799 C68.1926626,39.8151228 67.4077509,41.2477603 66.0400081,41.6472654 C64.726975,42.0307904 63.3541349,41.3227567 62.8929519,40.0554091 L62.8401226,39.8941161 C61.7563104,36.1835848 56.8421521,33.069908 50.31652,33.069908 C42.4362214,33.069908 37.604,35.8980897 37.604,39.361668 C37.604,42.6521542 41.5154391,45.1303636 51.3466305,46.8588195 C51.3497024,46.859587 51.3530235,46.8601652 51.3563449,46.8607501 L52.3173876,47.0358655 C63.8456447,49.209297 69.376528,52.9606419 69.376528,59.764652 C69.376528,66.1994577 62.6845105,70.6382247 53.4889936,71.1964328 L53.488372,76.57404 C53.488372,77.9989347 52.3332667,79.15404 50.908372,79.15404 C49.538281,79.15404 48.4176254,78.0860802 48.3334478,76.7372033 L48.328372,76.57404 L48.3285392,71.1192489 C38.8431482,70.2916636 31.4321633,65.7780263 30.3560932,59.520802 C30.1145957,58.1165215 31.0572175,56.7823548 32.461498,56.5408572 C33.8096073,56.3090196 35.0930997,57.1684664 35.4072837,58.4800106 L35.4414428,58.646262 C36.1138314,62.5561248 42.7477155,66.095972 51.502288,66.095972 C59.2257578,66.095972 64.216528,63.1025525 64.216528,59.764652 C64.216528,56.1340475 60.4470434,53.7010363 50.4614311,51.9425539 C38.4173092,49.8260121 32.444,46.0428175 32.444,39.361668 C32.444,32.7694936 39.013159,28.4949154 48.3285615,27.9655346 L48.328372,22.60732 C48.328372,21.1824253 49.4834773,20.02732 50.908372,20.02732 Z" fill="#00B077"></path>
    </g>
</svg>