<?xml version="1.0" encoding="UTF-8"?>
<svg width="100px" height="100px" viewBox="0 0 100 100" version="1.1" xmlns="http://www.w3.org/2000/svg" xmlns:xlink="http://www.w3.org/1999/xlink">
    <!-- Generator: Sketch 63.1 (92452) - https://sketch.com -->
    <title>PointerFinger</title>
    <desc>Created with Sketch.</desc>
    <g id="PointerFinger" stroke="none" stroke-width="1" fill="none" fill-rule="evenodd">
        <path d="M89.462124,94.8804258 C90.8870187,94.8804258 92.042124,96.0355312 92.042124,97.4604258 C92.042124,98.8305168 90.9741642,99.9511725 89.6252873,100.03535 L89.462124,100.040426 L11.319084,100.040426 C9.89418935,100.040426 8.739084,98.8853205 8.739084,97.4604258 C8.739084,96.0903348 9.80704382,94.9696792 11.1559207,94.8855017 L11.319084,94.8804258 L89.462124,94.8804258 Z M20.2242559,2.00064253 C27.004337,2.07192896 32.2453314,7.85177657 32.3916201,16.32991 L32.39476,16.6949018 L32.394,36.0776907 L32.6128307,35.9276255 C34.5544413,34.6197607 36.9019976,33.8785809 39.4508394,33.8262713 L39.7576535,33.8233086 C43.7548778,33.8279774 47.2842986,35.5171024 49.567683,38.4242617 L49.646,38.5276907 L49.7461001,38.3935336 C51.9692546,35.460266 55.4125547,33.7256747 59.3370595,33.6449994 L59.6398811,33.6420634 C63.6618301,33.646586 67.2054385,35.3782569 69.486645,38.3523049 L69.722,38.6716907 L69.7902629,38.588811 C72.0197391,35.9104267 75.3952552,34.3381602 79.2119938,34.2604138 L79.522412,34.2573928 C86.3676828,34.2633148 91.8743583,39.0496424 92.0372118,46.4021761 L92.04092,46.7381418 L92.04092,88.1918618 C92.04092,89.6167565 90.8858147,90.7718618 89.46092,90.7718618 C88.090829,90.7718618 86.9701734,89.703902 86.8859958,88.3550251 L86.88092,88.1918618 L86.88092,46.7381418 C86.88092,42.1939202 83.7498633,39.421052 79.517948,39.4173908 C75.3704775,39.4138028 72.2849381,42.0710972 72.1631755,46.4668498 L72.15944,46.7381418 C72.15944,50.1144381 67.1887816,50.1769621 67.0046831,46.9257138 L66.99944,46.7381418 L66.9958075,46.4488939 C66.8749922,41.6664258 63.7538105,38.8066927 59.6340789,38.8020602 C55.4319956,38.7973351 52.27452,41.7647231 52.27452,46.7381418 C52.27452,50.1144381 47.3038616,50.1769621 47.1197631,46.9257138 L47.1108989,46.4559812 C46.9904593,41.7904435 43.8787858,38.9881257 39.7516265,38.9833051 C35.6244263,38.9784844 32.5185851,41.7728644 32.3983742,46.4549582 L32.39476,46.7381418 C32.39476,50.1144381 27.4241016,50.1769621 27.2400031,46.9257138 L27.23476,46.7381418 L27.23476,16.6949018 C27.23476,10.7330184 24.090606,7.20185487 20.1705041,7.16101683 C16.3300784,7.12100882 13.2729581,10.4545308 13.1630596,16.3639554 L13.16,16.6949018 L13.16,88.1918618 C13.16,89.6167565 12.0048947,90.7718618 10.58,90.7718618 C9.20990899,90.7718618 8.08925335,89.703902 8.00507584,88.3550251 L8,88.1918618 L8,16.6949018 C8,7.83798048 13.2940145,1.92910033 20.2242559,2.00064253 Z" id="Pointer-Finger" fill="#00B077"></path>
    </g>
</svg>