<?xml version="1.0" encoding="UTF-8"?>
<svg width="100px" height="100px" viewBox="0 0 100 100" version="1.1" xmlns="http://www.w3.org/2000/svg" xmlns:xlink="http://www.w3.org/1999/xlink">
    <!-- Generator: Sketch 63.1 (92452) - https://sketch.com -->
    <title>PuzzlePiece</title>
    <desc>Created with Sketch.</desc>
    <g id="PuzzlePiece" stroke="none" stroke-width="1" fill="none" fill-rule="evenodd">
        <path d="M45.8071809,0.9539149 C41.8774092,5.79393721 37.3361389,10.7270519 31.8355265,16.2201293 C29.5810974,18.4643759 30.9558024,22.3129096 33.9519234,22.8636179 L34.1336203,22.8926638 C36.1419248,23.1634955 38.0044898,24.0726751 39.4705281,25.536079 C43.1165732,29.1848247 43.1169905,35.1010597 39.4695971,38.7525028 C35.8196068,42.4024926 29.8997659,42.4024926 26.2504506,38.7518277 C24.7456621,37.2470391 23.8281839,35.3192872 23.5855008,33.2509737 L23.5513168,32.9050017 C23.295199,29.7226023 19.3471441,28.2259167 17.000954,30.4078221 L11.3468014,35.7140167 C9.34593185,37.6010944 7.8540392,39.0251016 6.17589909,40.6469875 L4.85774209,41.9264022 C3.77929682,42.9778226 2.74929084,43.9940307 1.75566456,44.987657 C0.744540172,45.9987814 0.748650503,47.639401 1.76482861,48.6454462 C5.59125191,52.4337143 9.10342375,56.3927328 13.7282375,62.0046383 L15.8320964,64.5767549 L17.0590001,66.0851592 L16.7945706,66.1200556 C13.7564903,66.5483363 10.8606502,67.9383936 8.579109,70.2199348 C2.91418631,75.8869524 2.91353864,85.0670354 8.579109,90.7326058 C14.2417885,96.3994739 23.4258345,96.3981783 29.0931649,90.732943 L29.3516941,90.4679329 C31.0492856,88.6830495 32.2274089,86.5387267 32.8421345,84.2474072 L32.8540001,84.1991592 L32.9636106,84.3074041 C38.764191,90.0212054 44.5646496,94.4119772 51.1480754,97.8649593 C52.1152934,98.3722615 53.2971506,98.2155764 54.0987677,97.4737704 L54.9059006,96.7224104 C59.4595946,92.4579357 63.7160174,88.035977 69.9055999,81.2926122 C72.3880359,78.5855218 69.9944043,75.1526709 66.84226,75.10121 L66.6695974,75.1017812 C64.1395823,75.1559929 61.6992459,74.1989007 59.87478,72.3744348 C56.2237778,68.7261318 56.2237778,62.8097355 59.8751171,59.1570464 C63.5267243,55.5094885 69.4412368,55.5094885 73.092506,59.1580581 C74.618083,60.6836353 75.53898,62.6421157 75.7643688,64.7382321 L75.7941634,65.0702985 C76.039212,68.4871106 80.0516374,70.2720705 82.566495,67.6753114 C88.1193742,61.944802 93.0390611,57.3936083 98.1699932,53.3784308 C99.3657652,52.4426872 99.498878,50.6817441 98.4573592,49.5768797 L98.0907005,49.1861411 C95.8987499,46.839703 93.6118776,44.2103084 90.8614221,40.904354 L88.5263256,38.0682878 L83.7300001,32.1931592 L83.7751928,32.1869743 C86.711824,31.7100466 89.49538,30.330728 91.7014467,28.1246613 C97.3678354,22.4624624 97.3678354,13.272467 91.7007719,7.60959357 C86.0367449,1.94766124 76.8534774,1.94766124 71.1891131,7.60993075 L70.9223078,7.88363192 C69.3463405,9.54320687 68.2186107,11.5123023 67.5758948,13.6233911 L67.5050001,13.8651592 C61.184465,7.66583049 55.1931174,3.19092445 48.9049571,0.243984444 C47.8318666,-0.25891837 46.5541744,0.0338957301 45.8071809,0.9539149 Z M48.4970001,5.80315917 L48.8409616,5.98461401 C55.0269456,9.30379283 61.1170301,14.4119801 67.8012047,21.5609767 C69.5058918,23.384209 72.512053,21.9629767 72.2535266,19.5420448 L72.2319907,19.3827637 C71.7483588,16.4238286 72.6847537,13.4103196 74.8368902,11.2594954 C78.4865227,7.61121266 84.4036996,7.61121266 88.0531131,11.2592765 C91.7036092,14.9070735 91.7036092,20.8278559 88.0534505,24.4753158 C85.6657231,26.8630429 82.2351591,27.7474659 79.0423411,26.900471 L78.74375,26.8159857 C76.2943725,26.0793075 74.3813065,28.9723721 76.0181832,30.9377676 L77.5784222,32.8221005 L86.0569331,43.1933079 L86.8980774,44.2085237 C88.8796165,46.5902129 90.631631,48.6349957 92.2885914,50.4857847 L92.8070001,51.0621592 L92.2228912,51.5458067 C88.5517967,54.5934548 84.9297927,57.9512711 81.0630995,61.8401099 L80.5720001,62.3351592 L80.5067001,62.0687772 C79.8664693,59.6184815 78.5869277,57.3551381 76.7405022,55.5087126 C71.0738744,49.8462742 61.8948314,49.8462742 56.2271211,55.507701 C50.5598889,61.1770273 50.5598889,70.3610754 56.2267838,76.0237803 L56.5129585,76.3022745 C58.5384334,78.2203803 61.0265787,79.4787811 63.686075,79.9962278 L64.0260001,80.0571592 L62.4481036,81.7554307 C58.8661509,85.5903907 55.9313158,88.6027716 52.9996199,91.4187747 L51.9430001,92.4241592 L51.5468806,92.2013825 C44.7452058,88.3165549 38.7354302,83.2070563 32.4095277,76.2865748 C30.6754494,74.3895084 27.5743219,75.9193756 27.9512732,78.3971699 L27.9794052,78.553244 C28.6194297,81.6267527 27.6988828,84.8311973 25.4453633,87.0834028 C21.7928961,90.7345197 15.8765011,90.7353544 12.2284543,87.0846093 C8.57731783,83.4334726 8.57773504,77.5200007 12.2281172,73.8682685 C14.8398865,71.2564992 18.7016875,70.4590069 22.1145425,71.7332871 C24.5844595,72.6554964 26.6840565,69.7163414 25.0108264,67.6788771 L18.7304048,59.9654802 L17.1991148,58.1039954 C13.5493652,53.69326 10.5522368,50.2725419 7.49626174,47.1064306 L7.22600005,46.8281592 L8.46114192,45.6197904 L10.7048501,43.4479743 C11.6720542,42.5175143 12.6216842,41.6111367 13.700999,40.5888505 L18.8190001,35.7731592 L18.8827394,36.0172884 C19.5387057,38.4006175 20.8008108,40.5995298 22.6014423,42.4001613 C28.2655676,48.0663813 37.45306,48.0663813 43.11928,42.4001613 C48.7803198,36.7328367 48.7796722,27.5520718 43.1182323,21.8864429 L42.8307424,21.6071624 C41.2932244,20.1536771 39.488262,19.0755001 37.5366994,18.4143901 L37.0760001,18.2661592 L37.7254769,17.6074877 C41.6272943,13.6282983 45.0457789,9.90656583 48.1195129,6.25454819 L48.4970001,5.80315917 Z" id="Puzzle-piece" fill="#00B077"></path>
    </g>
</svg>