<?xml version="1.0" encoding="UTF-8"?>
<svg width="100px" height="100px" viewBox="0 0 100 100" version="1.1" xmlns="http://www.w3.org/2000/svg" xmlns:xlink="http://www.w3.org/1999/xlink">
    <!-- Generator: Sketch 63.1 (92452) - https://sketch.com -->
    <title>Ribbon</title>
    <desc>Created with Sketch.</desc>
    <g id="Ribbon" stroke="none" stroke-width="1" fill="none" fill-rule="evenodd">
        <path d="M50.559031,0.705155 C52.5877204,0.705155 54.5693722,1.25117469 56.1559194,2.30481761 L56.4486819,2.50831499 L60.4892053,5.44263088 C62.3655067,6.80893547 65.9986787,8.02093309 68.4269826,8.11570681 L68.724031,8.121665 L73.711621,8.121665 C77.7154707,8.121665 81.7961859,11.0245 83.1582601,14.7952567 L83.2450068,15.047904 L84.7837171,19.7850635 C85.5076705,22.0045523 87.745961,25.1308715 89.6583613,26.6301554 L89.8774719,26.795785 L93.915297,29.7281387 C97.1524397,32.0790319 98.748389,36.8215199 97.6360231,40.6678722 L97.5540085,40.934727 L96.0131471,45.6819565 C95.2973877,47.8763241 95.2648532,51.6715887 95.9165537,54.0170492 L96.0143085,54.341923 L97.5528471,59.0820135 C98.7930254,62.8841393 97.2990425,67.6589659 94.1373863,70.1247843 L93.9141132,70.2930305 L90.882715,72.490155 L97.2251216,78.8335094 C98.6437906,80.2523354 97.978205,82.6505582 96.0846715,83.1690259 L95.9144301,83.209822 L84.279,85.61 L81.8806619,97.2433905 C81.4754125,99.2085687 79.1060059,99.9710028 77.6319596,98.6741256 L77.5042931,98.5543293 L62.362035,83.4139157 C58.669453,84.7184507 54.6959363,85.428272 50.556609,85.428272 C46.4178827,85.428272 42.4448939,84.7182962 38.7527979,83.4135001 L23.6106549,98.5543293 C22.1917506,99.9730833 19.7933823,99.3073331 19.2750679,97.4136455 L19.2342861,97.2433905 L16.835,85.61 L5.20051794,83.209822 C3.23549293,82.8044015 2.47323033,80.4351331 3.77003692,78.9611689 L3.88982642,78.8335094 L10.232715,72.489155 L7.20078618,70.2907328 C3.96607693,67.9369458 2.37135606,63.1959313 3.48215292,59.3522496 L3.56405348,59.085583 L5.10462449,54.3392444 C5.82066112,52.141335 5.85320824,48.3459094 5.20150829,46.0028939 L5.10375348,45.678387 L3.56447978,40.9360392 C2.32698388,37.1303315 3.82027191,32.3556773 6.97965793,29.8959468 L7.20277007,29.728135 L11.2393251,26.7967042 C13.1251528,25.42544 15.4064757,22.3305365 16.2433123,20.0477537 L16.3333552,19.788104 L17.8735993,15.046231 C19.1129323,11.2395415 23.1335493,8.25395237 27.1394345,8.12594315 L27.406441,8.121665 L32.394031,8.121665 C34.7167874,8.121665 38.3678175,6.96431956 40.3877747,5.61080632 L40.6315601,5.44066499 L44.6679354,2.50936486 C46.3011671,1.32156004 48.4035486,0.705155 50.559031,0.705155 Z M64.6282205,89.7817772 C65.1617672,91.1119388 64.5159833,92.6227729 63.1858218,93.1563195 C62.2184295,93.5443543 61.3648959,93.9817448 60.7159638,94.4170944 L60.4823822,94.5801545 L56.4511389,97.5042583 C54.8165156,98.6977928 52.713235,99.3154343 50.5606446,99.3130893 C48.5288754,99.3152941 46.547937,98.7688058 44.9619983,97.7129725 L44.6693478,97.5090445 L40.6261955,94.5762763 C39.9633218,94.0928764 39.019009,93.5938191 37.9286579,93.1558538 C36.5987536,92.6216663 35.9536977,91.1105213 36.4878852,89.7806169 C37.0220727,88.4507126 38.5332177,87.8056567 39.8631221,88.3398442 C41.1799858,88.8687937 42.3776032,89.4850195 43.3596569,90.1540754 L43.6788922,90.3790035 L47.7218496,93.3116295 C48.4227855,93.8226866 49.4498434,94.1242886 50.5606477,94.1230857 C51.5725811,94.1241883 52.5206263,93.8706442 53.2144262,93.4320468 L53.3971978,93.3078935 L57.4316564,90.3814459 C58.4766538,89.6208856 59.7924989,88.9254783 61.2536782,88.3393785 C62.5838398,87.8058318 64.0946739,88.4516157 64.6282205,89.7817772 Z M80.3039916,69.2502004 C77.0861796,74.2130842 72.6596889,78.3199227 67.4413315,81.1539636 L77.769,91.48 L79.5413941,82.8897595 C79.7383695,81.9345656 80.4524173,81.1758471 81.3818474,80.9153242 L81.5585659,80.872388 L90.151,79.099 L85.1805946,74.1293203 C85.1693695,74.1182781 85.1582206,74.1071134 85.1471495,74.0958261 L85.130715,74.078155 Z M20.8139358,69.2479391 L10.963,79.099 L19.5563821,80.872388 C20.5115565,81.0694579 21.2702043,81.7835809 21.5306352,82.7130368 L21.5735539,82.8897595 L23.345,91.48 L33.6737798,81.1528938 C28.4565125,78.3184411 24.0309512,74.2111762 20.8139358,69.2479391 Z M50.556609,19.778232 C33.8629738,19.778232 20.328319,33.314365 20.328319,50.009982 C20.328319,62.6235576 28.0553239,73.4334944 39.03372,77.9641786 C39.0571327,77.9717765 39.0795926,77.9806994 39.1019494,77.9899483 C42.6340179,79.4399031 46.5021358,80.238272 50.556609,80.238272 C54.5853824,80.238272 58.4301029,79.4504688 61.9450725,78.0205538 C61.993601,77.99747 62.0426631,77.9773079 62.0921794,77.9587117 C68.6884465,75.2359624 74.1097993,70.2460316 77.3862502,63.9606404 C77.4201027,63.8817019 77.459655,63.8044924 77.5033236,63.7290122 C79.606714,59.6124228 80.791819,54.9495268 80.791819,50.009982 C80.791819,33.3139982 67.2550673,19.778232 50.556609,19.778232 Z M46.5822464,30.0693501 C48.401891,26.3638286 52.5238481,26.2996356 54.4354292,29.8644407 L54.4354292,29.8644407 L54.5412409,30.0700978 L58.826,38.75 L68.4158334,40.1406645 C72.5671857,40.7594776 73.8760806,44.7776936 70.8662673,47.713146 L70.8662673,47.713146 L63.933,54.465 L65.5700003,64.0139335 C66.2716231,68.0805535 62.969565,70.5563891 59.3263017,68.7868035 L59.3263017,68.7868035 L59.1342557,68.689733 L50.56,64.183 L41.9855381,68.6900956 C38.3317287,70.6093034 34.9566927,68.2360591 35.5183472,64.2300587 L35.5183472,64.2300587 L35.5515627,64.0177233 L37.184,54.465 L30.2586056,47.7140503 C27.2966043,44.8320091 28.5074591,40.900155 32.5000361,40.174925 L32.5000361,40.174925 L32.7165774,40.1391652 L42.294,38.75 Z M50.559031,5.895155 C49.5448012,5.895155 48.5928164,6.14949046 47.9011386,6.58464779 L47.7191019,6.70775501 L43.6839853,9.63813912 C40.9396398,11.636545 36.2486491,13.2005075 32.7627638,13.3059908 L32.394031,13.311665 L27.406441,13.311665 C25.6255898,13.311665 23.5301992,14.7900813 22.8739161,16.4704877 L22.8091868,16.651246 L21.2684971,21.3944865 C20.2130802,24.6301723 17.3290968,28.6575109 14.5661327,30.7885424 L14.2903119,30.995225 L10.252497,33.9275713 C8.81475575,34.9716947 7.98943906,37.3939324 8.44464635,39.1411858 L8.50052852,39.332443 L10.0390671,44.0725335 C11.0879871,47.2883014 11.1283302,52.2033543 10.1611288,55.5503085 L10.0402285,55.944207 L8.49981272,60.690069 C7.94965574,62.3799109 8.70417869,64.8258344 10.0942764,65.9701897 L10.2513132,66.0918795 L13.948715,68.773155 L18.2264442,64.4950782 C16.3173172,60.2408054 15.2232597,55.5414027 15.1430643,50.5956628 L15.138319,50.009982 C15.138319,30.4481341 30.9964891,14.588232 50.556609,14.588232 C70.1213406,14.588232 85.981819,30.4475558 85.981819,50.009982 C85.981819,55.1717461 84.8773744,60.0756444 82.8918631,64.4983311 L87.167715,68.774155 L90.8635862,66.0941772 C92.3035674,65.0463522 93.1294366,62.6235821 92.6735017,60.8788335 L92.6175335,60.687867 L91.0787045,55.9468856 C90.0300637,52.7280315 89.9897314,47.81286 90.9569332,44.4695465 L91.0778335,44.076103 L92.6184045,39.3297644 C93.1694946,37.6381665 92.4149373,35.1930273 91.0228375,34.0492066 L90.8655701,33.927575 L86.8264851,30.9943058 C84.0749794,28.9935709 81.1362834,25.0060695 79.9602326,21.7178387 L79.8485752,21.391446 L78.3094193,16.652919 C77.7576411,14.9580975 75.7046323,13.4212391 73.9035502,13.3172641 L73.711621,13.311665 L68.724031,13.311665 C65.3282447,13.311665 60.6147906,11.816613 57.7378523,9.85231444 L57.4367801,9.64010501 L53.3975154,6.70670514 C52.6978193,6.19783522 51.6654636,5.895155 50.559031,5.895155 Z M50.561,33.733 L46.3440795,42.2717578 C45.9658619,43.0375515 45.2350374,43.5681993 44.3897766,43.6907668 L44.3897766,43.6907668 L34.967,45.056 L41.7840503,51.7014181 C42.3516266,52.2547088 42.6328282,53.0343322 42.5549023,53.8165521 L42.5549023,53.8165521 L42.5305113,53.9970087 L40.925,63.383 L49.3528357,58.954179 C50.0505929,58.5874061 50.8736912,58.5591928 51.5907316,58.8695391 L51.5907316,58.8695391 L51.7676483,58.954179 L60.196,63.384 L58.5867154,53.9981924 C58.4526175,53.2162027 58.6839468,52.419451 59.2077503,51.8322996 L59.2077503,51.8322996 L59.3337867,51.700626 L66.154,45.057 L56.7307651,43.6907752 C55.9456788,43.5769513 55.2593192,43.1110848 54.8625053,42.4317561 L54.8625053,42.4317561 L54.7761596,42.2712617 L50.561,33.733 Z" id="Ribbon02" fill="#00B077"></path>
    </g>
</svg>