<?xml version="1.0" encoding="UTF-8"?>
<svg width="100px" height="100px" viewBox="0 0 100 100" version="1.1" xmlns="http://www.w3.org/2000/svg" xmlns:xlink="http://www.w3.org/1999/xlink">
    <!-- Generator: Sketch 63.1 (92452) - https://sketch.com -->
    <title>Stamp</title>
    <desc>Created with Sketch.</desc>
    <g id="Stamp" stroke="none" stroke-width="1" fill="none" fill-rule="evenodd">
        <path d="M37.6108941,38.081096 C39.3748795,38.081096 40.8049341,39.5111507 40.8049341,41.275136 C40.8049341,43.0391213 39.3748795,44.469176 37.6108941,44.469176 C35.8453359,44.469176 34.4151341,43.0392684 34.4151341,41.275136 C34.4151341,39.5110036 35.8453359,38.081096 37.6108941,38.081096 Z M82.6717981,21.711856 C84.0966928,21.711856 85.2517981,22.8669613 85.2517981,24.291856 C85.2517981,25.661947 84.1838383,26.7826026 82.8349614,26.8667802 L82.6717981,26.871856 L20.0293021,26.871092 L20.0289408,50.5259556 C23.8418799,55.0939185 27.9228356,56.9454186 32.8388412,56.8378632 C36.5414406,56.7568554 39.6940627,55.9152987 46.4705528,53.3742893 L51.1641341,51.5896584 C53.3831571,50.7545355 54.866537,50.2334216 56.4950535,49.7250181 L56.7535222,49.6448056 C61.8751001,48.0646837 66.1945671,47.4472966 70.3741347,47.9539833 C73.4466455,48.3255685 77.0761755,49.7422598 80.0915469,51.7201886 L80.0917981,33.175656 C80.0917981,31.805565 81.1597579,30.6849094 82.5086348,30.6007318 L82.6717981,30.595656 C84.0418891,30.595656 85.1625448,31.6636158 85.2467223,33.0124927 L85.2517981,33.175656 L85.2517981,74.397176 C85.2517981,75.767267 84.1838383,76.8879226 82.8349614,76.9721002 L82.6717981,76.977176 L17.4493981,76.977176 C16.0793071,76.977176 14.9586515,75.9092162 14.8744739,74.5603393 L14.8693981,74.397176 L14.8693981,24.291856 C14.8693981,22.921765 15.9373579,21.8011094 17.2862348,21.7169318 L17.4493981,21.711856 L82.6717981,21.711856 Z M58.8314151,54.4068843 L57.7925947,54.7260464 C56.116172,55.2561162 54.5201961,55.8307708 51.8675477,56.8409929 L49.1506802,57.8785529 C41.1923689,60.8941657 37.5947531,61.8950452 32.9517078,61.9966286 C28.163927,62.1013786 23.8802699,60.7494155 20.0294906,57.7231791 L20.0293021,71.817092 L80.0913021,71.817092 L80.0935494,58.4073082 C77.8503761,55.8409496 73.1507736,53.4873846 69.7538715,53.0765679 C66.5430215,52.6873184 63.0659817,53.1489554 58.8314151,54.4068843 Z M37.6108941,32.921096 C42.2246688,32.921096 45.9649341,36.6613613 45.9649341,41.275136 C45.9649341,45.8889107 42.2246688,49.629176 37.6108941,49.629176 C32.9957842,49.629176 29.2551341,45.8892954 29.2551341,41.275136 C29.2551341,36.6609766 32.9957842,32.921096 37.6108941,32.921096 Z M50.0623181,6 C46.0708636,6 43.3687061,7.97424319 42.0622392,11.0809177 L41.9034345,11.4827564 L41.8743021,11.566092 L41.7519358,11.5034485 C33.8687972,7.52337906 28.7305145,7.87427932 23.4557822,11.148819 L22.8668513,11.525053 C22.5286145,11.7448038 22.0735912,12.0421174 21.9765767,12.1045867 L21.6037711,12.3408349 C21.374292,12.4833937 21.179154,12.5982433 20.9957102,12.6984094 C20.3565179,13.0474285 19.9092079,13.18788 19.5030781,13.18788 C18.9017891,13.18788 18.2421204,12.9906731 16.6951822,12.3476317 L15.516358,11.8525842 C14.9026842,11.5987245 14.4810303,11.4381412 13.9917815,11.2747234 C10.545858,10.1237237 7.60856558,10.5563474 5.11012144,13.3494909 C2.18317689,16.6216778 2.24801544,19.4038642 3.99940937,24.1996072 L4.40741041,25.3068777 C4.91880039,26.7255783 5.07743811,27.3739367 5.07743811,28.02804 C5.07743811,28.6471118 4.87384844,29.217403 4.31981659,30.1252138 L4.11367726,30.453876 L3.4811015,31.4181008 L3.31745754,31.671448 C0.149976087,36.6469763 -0.0089335576,41.2318288 4.33298106,49.0386002 L4.50430211,49.344092 L4.33292736,49.6496791 C-0.00767090466,57.4549908 0.1498988,62.039838 3.31470321,67.0138696 L4.11382461,68.2360426 L4.18583906,68.3490748 C4.84135704,69.3849595 5.07743811,69.9950431 5.07743811,70.66168 C5.07743811,71.3884668 4.88155887,72.1082532 4.22362412,73.8852561 L4.12143522,74.1598687 C2.25243234,79.1595305 2.11657458,81.9931621 5.11045309,85.3388798 C7.60841236,88.1314813 10.5455345,88.5645279 13.9913368,87.4142647 L14.4677834,87.2482872 C14.7306409,87.1526455 14.9993455,87.0479886 15.3184246,86.917841 L16.9207099,86.2485757 C18.3079013,85.6797291 18.9317828,85.50184 19.5030781,85.50184 C19.9093633,85.50184 20.3567779,85.6422752 20.9960546,85.9912142 L21.2827958,86.1540294 C21.3831859,86.2130547 21.4893292,86.2773759 21.6040562,86.3486203 L23.1731397,87.3619047 L23.441733,87.5312735 C28.6271462,90.7541242 33.677977,91.1537869 41.3316865,87.3935908 L41.8743021,87.121092 L41.9034345,87.2052436 C41.9533221,87.3398964 42.0062212,87.473876 42.0622392,87.6070823 C43.3687061,90.7137568 46.0708636,92.688 50.0623181,92.688 C54.0526403,92.688 56.7538342,90.7133977 58.0595957,87.6065858 L58.2182872,87.2047986 L58.2463021,87.121092 L58.3697925,87.1843881 C66.2534073,91.1638076 71.3910569,90.8133421 76.6665135,87.540155 L78.1443197,86.5858571 C78.5482025,86.3259358 78.8494596,86.1428524 79.1244798,85.9926852 C79.7654352,85.6427092 80.2139986,85.50184 80.6215581,85.50184 L80.8043751,85.5080006 C81.425139,85.5498995 82.1872627,85.8137211 83.9193959,86.5480284 L84.6065685,86.8364248 C85.2201614,87.0901929 85.6418436,87.2507448 86.1310677,87.4141007 C89.576722,88.5646322 92.5137809,88.131578 95.0114455,85.3380946 C97.8715916,82.1418258 97.8746593,79.4124189 96.2385683,74.8138896 L95.7137872,73.3828075 C95.2024203,71.9642259 95.0437581,71.3157881 95.0437581,70.66168 C95.0437581,70.0427546 95.2473402,69.4725471 95.8013495,68.5648887 L96.0850943,68.115987 L96.6403805,67.2717069 L96.8040564,67.0183476 C99.9721562,62.0425762 100.131092,57.4571641 95.7883496,49.649508 L95.6163021,49.343092 L95.7882959,49.0387713 C100.12986,41.234141 99.9722608,36.6495074 96.8067608,31.675546 L96.0076603,30.453687 L95.9356489,30.3406877 C95.2798999,29.3046998 95.0437581,28.6946308 95.0437581,28.02804 C95.0437581,27.4102758 95.185259,26.7976358 95.6317871,25.5363281 L96.2385713,23.8757155 C97.8745826,19.2771481 97.8714979,16.54731 95.0110748,13.3494909 C92.5136276,10.5562506 89.5763985,10.1236194 86.130623,11.2748876 L85.6544175,11.4409202 C85.3391426,11.5557252 85.0154494,11.6835062 84.6064836,11.8527211 L83.2026526,12.440842 C81.8157886,13.0099374 81.1922267,13.18788 80.6215581,13.18788 C80.214154,13.18788 79.7656953,13.0469944 79.1248242,12.6969378 L78.8382031,12.5340971 C78.7378603,12.4750721 78.6317719,12.41076 78.5171082,12.339533 L76.9493548,11.3269166 L76.6807243,11.1574901 C71.4946074,7.93353546 66.4439038,7.53346605 58.7897156,11.2941533 L58.2463021,11.566092 L58.2182872,11.4832014 C58.1684353,11.3485661 58.1155739,11.2146037 58.0595957,11.0814142 C56.7538342,7.97460235 54.0526403,6 50.0623181,6 Z M46.3782802,15.6054309 L46.3751213,15.457115 C46.3571135,14.8186759 46.4730004,13.9033842 46.818757,13.0812023 C47.3526901,11.8115518 48.2444726,11.16 50.0623181,11.16 C51.8782859,11.16 52.769097,11.8111927 53.3026605,13.0807058 L53.3995435,13.3298177 C53.6400282,13.9995942 53.7395984,14.7053055 53.7473696,15.2575411 L53.7468093,15.44416 C53.6363985,17.5060049 55.8722622,18.8557303 57.6453077,17.7975691 C65.862189,12.8936989 69.6157477,12.8395382 73.9548967,15.5386917 L75.3513475,16.442092 C75.8505771,16.7634978 76.2484552,17.0053922 76.6512765,17.2254212 C77.9889227,17.9560702 79.2361083,18.34788 80.6215581,18.34788 C82.1784454,18.34788 83.2405274,18.0236533 85.6037156,17.0311149 L86.7038597,16.5695459 C87.1391658,16.3913076 87.4436288,16.2765854 87.7657789,16.1689518 C89.4296209,15.6130456 90.2168468,15.7289979 91.1647908,16.7892146 C92.3959982,18.1656469 92.4237067,19.2276603 91.3814721,22.1363783 L90.9280333,23.3672926 C90.1442874,25.5123909 89.8837581,26.5520684 89.8837581,28.02804 C89.8837581,29.8642257 90.4449512,31.3140602 91.5756661,33.100425 L91.8501553,33.5261235 L92.3244028,34.2460104 C93.488787,36.0229693 93.9095535,37.0598683 93.9211905,38.597032 C93.9373262,40.8537843 92.9024726,43.8794922 90.4187244,48.0158379 C89.927914,48.8332159 89.9278876,49.8546442 90.4186556,50.6720476 C92.9024416,54.8089414 93.937327,57.8350828 93.9211905,60.0921779 C93.9101779,61.5441899 93.5342451,62.5498886 92.5116108,64.1541545 L91.6615037,65.4545291 L91.5754254,65.5896473 C90.4448844,67.3758477 89.8837581,68.8256394 89.8837581,70.66168 C89.8837581,72.1376688 90.1443366,73.1775084 90.9280571,75.3224475 L91.3814734,76.5532366 C92.4236444,79.4615727 92.3959614,80.5229279 91.1654931,81.8980002 C90.2579187,82.9130657 89.4979715,83.0634312 87.9774742,82.5883739 L87.7653342,82.5197393 C87.4833993,82.425599 87.2150084,82.3260256 86.8606346,82.1832271 L85.2886294,81.5266941 C83.1425164,80.6370932 82.1073908,80.34184 80.6215581,80.34184 C79.2362727,80.34184 77.989201,80.733477 76.6516209,81.4638257 C76.3831101,81.6104386 76.1167935,81.7667644 75.8211841,81.9498729 L75.3518648,82.2467564 C75.1957139,82.3472482 74.3948847,82.8706611 74.1694575,83.0148103 C69.7380863,85.8484468 65.9971304,85.8739682 57.6451382,80.8903297 L57.5042506,80.8117763 C55.8032945,79.9284195 53.7534578,81.1659528 53.742916,83.08258 L53.7460767,83.2309347 C53.7640905,83.8695686 53.6482614,84.7850025 53.3026605,85.6072942 C52.769097,86.8768073 51.8782859,87.528 50.0623181,87.528 C48.2444726,87.528 47.3526901,86.8764482 46.818757,85.6067977 C46.507576,84.866834 46.3825896,84.0514514 46.3738318,83.4303524 L46.3743869,83.24384 C46.4847957,81.1820311 44.249004,79.8323021 42.4759569,80.8903901 C34.2596726,85.7935603 30.5055496,85.8479355 26.1671673,83.1498271 L24.7696232,82.2458751 L24.2997454,81.9486012 C24.0037777,81.7652597 23.7371238,81.6087528 23.4682559,81.4619956 C22.1324662,80.7328762 20.8866585,80.34184 19.5030781,80.34184 C17.9461296,80.34184 16.8837231,80.665935 14.5205975,81.657792 L13.4199564,82.119264 C12.9843918,82.2974876 12.6798012,82.4121707 12.3574765,82.5197678 C10.6930848,83.0753679 9.90490094,82.9591588 8.95603478,81.8983709 C7.68555233,80.4785819 7.69701767,79.3934249 8.84391349,76.2659464 L9.30156873,75.0233789 C10.0010858,73.077487 10.2374381,72.0673836 10.2374381,70.66168 C10.2374381,68.940487 9.74437177,67.5587244 8.751399,65.920975 L8.4600749,65.4547168 L7.7973266,64.4438696 C6.63314755,62.6668099 6.21240868,61.6297019 6.20077001,60.0921733 C6.18463291,57.8349832 7.21933338,54.8087855 9.7026551,50.6718569 C10.1932704,49.8545481 10.193244,48.833312 9.70258637,48.0160286 C7.21930235,43.879648 6.18463374,40.8538839 6.20077001,38.5970366 C6.2117827,37.1451726 6.58763284,36.1395818 7.61009524,34.5353532 L8.45985816,33.2353102 C8.48909131,33.1897048 8.51759417,33.1449587 8.54589639,33.1002368 C9.67637139,31.3139098 10.2374381,29.8641242 10.2374381,28.02804 C10.2374381,26.6223527 10.0011304,25.6123972 9.30159571,23.6663818 L8.73972402,22.1363784 C7.6974881,19.2276618 7.72517559,18.165672 8.95603478,16.7896291 C9.86347233,15.7751564 10.6238345,15.6248688 12.1448242,16.1002439 L12.3570318,16.1689234 C12.6792952,16.2765651 12.9838278,16.3912851 13.4193024,16.569553 L14.8342188,17.1623995 C16.9808914,18.0524103 18.016613,18.34788 19.5030781,18.34788 C20.8868228,18.34788 22.1327444,17.9566712 23.4686002,17.227252 C23.8047311,17.043714 24.1373982,16.8449343 24.5281944,16.5975232 L25.9539766,15.6735345 C30.3841334,12.8390973 34.1252177,12.8133356 42.4757874,17.7975087 C44.2021713,18.827929 46.3674385,17.5754286 46.3782802,15.6054309 Z" fill="#00B077"></path>
    </g>
</svg>