<?xml version="1.0" encoding="UTF-8"?>
<svg width="100px" height="100px" viewBox="0 0 100 100" version="1.1" xmlns="http://www.w3.org/2000/svg" xmlns:xlink="http://www.w3.org/1999/xlink">
    <!-- Generator: Sketch 63.1 (92452) - https://sketch.com -->
    <title>Star</title>
    <desc>Created with Sketch.</desc>
    <g id="Star" stroke="none" stroke-width="1" fill="none" fill-rule="evenodd">
        <path d="M56.2936251,7.75203933 C56.9240811,9.02986954 56.3992805,10.5768411 55.1214503,11.2072971 C53.8436201,11.837753 52.2966485,11.3129525 51.6661925,10.0351223 L51.4841447,9.67902714 C50.4085834,7.65487606 49.6233664,7.65421643 48.5494006,9.67346766 L48.3676334,10.0287118 L36.6337934,33.7991118 C36.2848335,34.5060343 35.6336651,35.0115222 34.8697346,35.1779341 L34.6915275,35.2102551 L8.46655659,39.0232635 C5.83678585,39.4072935 5.4751521,40.143114 7.16702971,41.8913217 L7.4434909,42.1683531 L26.4219709,60.6652331 C26.9834573,61.2124712 27.2631062,61.9824508 27.1897519,62.756103 L27.1640179,62.9494658 L22.678862,89.0710124 C22.2116651,91.8148212 22.8894702,92.3075994 25.3506258,91.0162464 C26.6123835,90.3542099 28.1719268,90.8403801 28.8339633,92.1021378 C29.4959997,93.3638955 29.0098296,94.9234388 27.7480719,95.5854752 C21.579773,98.8219434 16.5340254,95.2489016 17.5516664,88.4575144 L17.5926798,88.2013358 L21.8476728,63.4130608 L3.84195024,45.8635534 C-1.15598077,40.9921523 0.679639408,35.0919659 7.45601949,33.9589069 L7.72253011,33.9171866 L32.6076728,30.2980608 L43.7407812,7.74445298 C46.8658295,1.4153662 53.1690983,1.41913892 56.2936251,7.75203933 Z M60.3973869,16.070311 L60.4773836,16.2200005 L67.4256728,30.2990608 L92.3105366,33.9181061 C99.2123486,34.9259898 101.198255,40.7752963 96.3806156,45.6739362 L96.1894687,45.8642986 L78.1836728,63.4120608 L82.4356372,88.203654 C83.610283,95.0711887 78.6592981,98.7702443 72.5119787,95.7030469 L72.2809031,95.5848483 L50.0146728,83.8700608 L36.2297578,91.1263751 C35.0192912,91.763492 33.5330207,91.3427766 32.8288889,90.192534 L32.7450226,90.0449778 C32.1079056,88.8345112 32.528621,87.3482407 33.6788636,86.6441088 L33.8264198,86.5602425 L48.8127798,78.6723225 C49.5069713,78.3069418 50.3261578,78.2787613 51.0396398,78.5878033 L51.2156746,78.6720893 L74.6797386,91.0163506 L75.0196945,91.1886801 C77.0965169,92.2026604 77.7333431,91.7392008 77.4088466,89.4511952 L77.3496913,89.0747181 L72.8690913,62.9479181 C72.7365943,62.1753155 72.9628776,61.3881982 73.4767977,60.8054907 L73.6112289,60.664199 L92.5870308,42.1699733 C94.5369832,40.2675344 94.3393104,39.4668088 91.7640893,39.0543938 L65.3416463,35.2109396 C64.5614315,35.097492 63.8794276,34.6343299 63.4851159,33.9591331 L63.3993141,33.7996172 L55.8502341,18.5036572 C55.2196197,17.2259051 55.7442284,15.6788685 57.0219805,15.0482541 C58.2486224,14.4428643 59.7234371,14.9021281 60.3973869,16.070311 Z" fill="#00B077"></path>
    </g>
</svg>