<?xml version="1.0" encoding="UTF-8"?>
<svg width="100px" height="100px" viewBox="0 0 100 100" version="1.1" xmlns="http://www.w3.org/2000/svg" xmlns:xlink="http://www.w3.org/1999/xlink">
    <!-- Generator: Sketch 63.1 (92452) - https://sketch.com -->
    <title>ThumbsDown</title>
    <desc>Created with Sketch.</desc>
    <g id="ThumbsDown" stroke="none" stroke-width="1" fill="none" fill-rule="evenodd">
        <path d="M74.5207621,2 C81.2210052,2 85.6355739,6.89339146 85.6405612,12.9947111 C85.6425931,15.4804652 84.9124311,17.7653461 83.5929102,19.6008702 L83.3764341,19.89024 L83.4150993,19.9071847 C87.2791131,21.6298964 89.668892,25.2565122 89.7751863,29.5396049 L89.7788807,29.8261033 C89.7819187,32.7987837 88.6905313,35.4719595 86.7682369,37.438328 L86.6424341,37.56324 L86.8149946,37.677575 C89.6352319,39.6089057 91.3277694,42.7589486 91.4171203,46.3704417 L91.420835,46.6565045 C91.4241377,49.2420998 90.6096596,51.6037303 89.1470926,53.4701858 L89.0644341,53.57124 L89.3206741,53.6868614 C93.0111572,55.4127368 95.3219257,58.8497866 95.4664529,62.9035934 L95.4736551,63.187404 C95.5360618,69.1247808 90.9604535,73.7861805 84.0206088,73.9303997 L83.6883621,73.93384 L58.689,73.933 L60.3475579,76.8125164 C60.8081144,77.6226247 61.1400985,78.2201052 61.3247458,78.5745502 C64.6671386,85.01069 64.0547428,92.3482508 60.2685016,96.7709608 C56.1033651,101.636259 49.7541668,101.120319 45.3833793,95.0071272 L45.1830706,94.7210047 C38.0407061,84.3207196 31.4234844,79.2884322 17.6621242,72.2359544 C16.2358065,71.5064343 14.9094386,70.6699345 13.6759369,69.7177243 C12.5480188,68.8470202 12.3395057,67.2268169 13.2102098,66.0988988 C14.0809138,64.9709807 15.7011172,64.7624676 16.8290353,65.6331717 C17.8075848,66.3885697 18.8647765,67.0553083 20.0136512,67.6429253 L21.3279064,68.3216751 C34.7016826,75.2844086 41.734344,80.7367433 49.0820147,91.2871302 L49.4378209,91.8016392 C51.9514318,95.4682614 54.3949186,95.6974687 56.3487005,93.4152552 C58.6706269,90.703012 59.1264349,85.7996093 56.9027359,81.2642405 L56.7469583,80.9556111 C56.5177872,80.5157022 55.9419584,79.4954303 55.1215268,78.0697047 L54.038629,76.1969186 L52.718,73.933 L48.7672021,73.93384 C47.3423074,73.93384 46.1872021,72.7787347 46.1872021,71.35384 C46.1872021,69.983749 47.2551619,68.8630934 48.6040388,68.7789158 L48.7672021,68.77384 L83.6883621,68.77384 C87.9570518,68.77384 90.346712,66.3883388 90.3133025,63.242196 C90.2805676,60.1595713 87.9365019,57.766684 83.9678706,57.6595087 L83.6883621,57.65576 L79.9198421,57.65576 C76.5435458,57.65576 76.4810218,52.6851016 79.7322701,52.5010031 L79.9198421,52.49576 C83.9193757,52.49576 86.265108,50.0050817 86.2608392,46.6630955 C86.2566667,43.3964985 84.0088131,40.9377629 80.1888905,40.8276895 L79.9198421,40.82384 L78.1224421,40.82384 C74.7461458,40.82384 74.6836218,35.8531816 77.9348701,35.6690831 L78.1224421,35.66384 C82.2259088,35.66384 84.6222887,33.1634586 84.6188834,29.8313767 C84.6155533,26.5728208 82.3184457,24.1053874 78.3926275,23.9973329 L78.1224421,23.99364 L74.5207621,23.99364 C71.1444658,23.99364 71.0819418,19.0229816 74.3331901,18.8388831 L74.5207621,18.83364 C78.2570335,18.83364 80.4833139,16.3643963 80.4805629,12.9989289 C80.4778743,9.70972739 78.3468539,7.27288072 74.7724709,7.16381393 L74.5207621,7.16 L35.9583621,7.16 C25.2994346,7.16 15.5615169,11.4569127 9.58157813,18.8087291 C8.68245354,19.9141248 7.05746874,20.0813406 5.952073,19.182216 C4.84667726,18.2830915 4.67946145,16.6581067 5.57858604,15.5527109 C12.4666846,7.08439082 23.4526798,2.15323505 35.3977466,2.00351152 L35.9583621,2 L74.5207621,2 Z" fill="#00B077"></path>
    </g>
</svg>