<?xml version="1.0" encoding="UTF-8"?>
<svg width="100px" height="100px" viewBox="0 0 100 100" version="1.1" xmlns="http://www.w3.org/2000/svg" xmlns:xlink="http://www.w3.org/1999/xlink">
    <!-- Generator: Sketch 63.1 (92452) - https://sketch.com -->
    <title>Trash</title>
    <desc>Created with Sketch.</desc>
    <g id="Trash" stroke="none" stroke-width="1" fill="none" fill-rule="evenodd">
        <path d="M84.519676,31.3644232 C85.88078,31.5210922 86.8719644,32.710193 86.8013466,34.0598478 L86.7877316,34.2225212 L80.4581688,89.2123171 C79.7796087,95.1140618 74.5295894,99.8822357 68.6094806,100.036983 L68.3129348,100.04086 L31.5032148,100.04086 C25.5630368,100.04086 20.2209935,95.3712296 19.3828258,89.5103781 L19.3446887,89.2163589 L12.9342487,34.2262389 C12.7692597,32.8109286 13.7828455,31.5298428 15.1981559,31.3648539 C16.5590312,31.2062107 17.7958083,32.137226 18.0356065,33.467283 L18.0595409,33.6287611 L24.4700202,88.6192187 C24.8565776,91.9389925 27.9382053,94.7503731 31.2703629,94.8764483 L31.5032148,94.88086 L68.3129348,94.88086 C71.6537851,94.88086 74.7955089,92.1471482 75.3010179,88.8532847 L75.331978,88.6225988 L81.661578,33.6324788 C81.8245137,32.2169306 83.1041278,31.2014875 84.519676,31.3644232 Z M90.2413868,2 C91.6662814,2 92.8213868,3.15510535 92.8213868,4.58 C92.8213868,5.95009101 91.753427,7.07074665 90.40455,7.15492416 L90.2413868,7.16 L12.4399748,7.159864 L13.9139748,21.440864 L85.8659748,21.440864 L86.679392,15.3203604 C86.8598827,13.96221 88.066166,12.9920102 89.4143764,13.0862623 L89.5767863,13.1027252 C90.9349367,13.2832159 91.9051366,14.4894992 91.8108845,15.8377096 L91.7944216,16.0001196 L90.6833016,24.3610396 C90.5203062,25.5875421 89.512662,26.5172539 88.2933142,26.5957799 L88.1257868,26.60116 L11.5875068,26.60116 C10.3226928,26.60116 9.25372541,25.6864843 9.04431493,24.4558452 L9.02114912,24.2861285 L7.01390912,4.84496854 C6.86241882,3.37770648 7.9670272,2.09477882 9.41770271,2.00501264 L9.58026679,2 L90.2413868,2 Z M35.8963089,40.400801 L36.0311899,40.5264921 L49.869,54.361 L63.6971896,40.5351422 C64.7048253,39.5276725 66.3383909,39.5278071 67.3458606,40.5354428 C68.3095272,41.4992683 68.3513026,43.0357782 67.4712771,44.049257 L67.34556,44.1841138 L36.03124,75.4932738 C35.0236043,76.5007435 33.3900386,76.5006089 32.382569,75.4929732 C31.4189024,74.5291477 31.377127,72.9926378 32.2571525,71.979159 L32.3828696,71.8443022 L46.22,58.009 L32.3829197,44.1755639 C31.3752563,43.1681218 31.3750769,41.5345562 32.3825189,40.5268929 C33.3461591,39.563041 34.882661,39.5209702 35.8963089,40.400801 Z M57.432988,61.9376693 L57.5678773,62.0633516 L67.3460773,71.8381116 C68.3538072,72.845487 68.3540946,74.4790526 67.3467192,75.4867825 C66.3831427,76.4506981 64.8466437,76.4928704 63.8329376,75.6131067 L63.6980483,75.4874244 L53.9198483,65.7126644 C52.9121184,64.705289 52.911831,63.0717234 53.9192064,62.0639935 C54.8827828,61.1000779 56.4192819,61.0579056 57.432988,61.9376693 Z" fill="#00B077"></path>
    </g>
</svg>