<?xml version="1.0" encoding="UTF-8"?>
<svg width="100px" height="100px" viewBox="0 0 100 100" version="1.1" xmlns="http://www.w3.org/2000/svg" xmlns:xlink="http://www.w3.org/1999/xlink">
    <!-- Generator: Sketch 63.1 (92452) - https://sketch.com -->
    <title>User</title>
    <desc>Created with Sketch.</desc>
    <g id="User" stroke="none" stroke-width="1" fill="none" fill-rule="evenodd">
        <path d="M69.8941498,48.2149637 L70.3578702,48.3923905 C70.5074242,48.4510141 70.6814819,48.5202601 70.8784363,48.599953 L71.6597108,48.9224959 C72.1980579,49.1490345 72.7703983,49.3984905 73.3707226,49.670246 C75.9448526,50.8355063 78.5204201,52.1746932 80.9383304,53.6759088 C86.4363548,57.0894847 90.3462459,60.8266406 91.9573264,65.0372806 C92.9561394,67.6366639 93.5653337,70.4546186 93.8820508,73.6093425 L93.9454775,74.2905525 C94.1384458,76.5349025 94.1872246,78.4415233 94.1549594,81.5572491 L94.0837952,86.6747865 L94.08292,87.11868 C94.08292,88.5435747 92.9278147,89.69868 91.50292,89.69868 C90.0780253,89.69868 88.92292,88.5435747 88.92292,87.11868 L88.9326517,85.6498622 L88.9900805,81.9530012 C89.0296754,78.7288363 88.9886415,76.8749047 88.804445,74.7325764 C88.5479871,71.7498009 88.0200473,69.1766252 87.1393626,66.8846602 C86.0262657,63.9755306 82.8406931,60.9306934 78.2165573,58.0596916 C76.0076584,56.6882455 73.6259303,55.449847 71.2427648,54.3710327 L70.8306594,54.186117 L70.232832,53.923896 L70.1445431,54.0891194 C60.4606674,71.5339188 40.2287608,71.280419 30.6593251,54.0568107 L30.586832,53.922896 L29.9880517,54.1866071 L29.5758554,54.3716155 C27.1921617,55.4509709 24.8099046,56.6899756 22.6005096,58.0620776 C17.9781462,60.9327069 14.7927233,63.9770666 13.6770894,66.8870299 C11.9163591,71.4752522 11.2670819,80.6672602 11.1724727,93.0638427 L11.166832,93.879896 L92.31992,93.88 C93.690011,93.88 94.8106666,94.9479598 94.8948442,96.2968367 L94.89992,96.46 C94.89992,97.830091 93.8319602,98.9507466 92.4830833,99.0349242 L92.31992,99.04 L8.58,99.04 C7.15510535,99.04 6,97.8848947 6,96.46 L6.00466023,94.2434368 C6.06451924,80.4172252 6.7166758,70.6225772 8.85933593,65.0390984 C10.4741417,60.8271198 14.3831366,57.0912307 19.8782383,53.6786042 C22.2966422,52.1767013 24.8727411,50.83688 27.4474034,49.6710526 C28.1979647,49.3311925 28.9047919,49.0261911 29.5561455,48.7572558 L30.3031851,48.4547552 C30.5794268,48.3452246 30.7890765,48.2650525 30.9246931,48.2150511 C32.1884992,47.7490902 33.5980838,48.3337656 34.1610512,49.5574458 C41.6863178,65.9145568 59.0316658,66.1490588 66.6576647,49.5582375 C67.2203181,48.3341511 68.6300748,47.7490444 69.8941498,48.2149637 Z M50.643288,1 C78.1711409,1 82.5854079,38.1334449 57.9936639,48.9402719 C56.6891718,49.5135302 55.1669543,48.9207481 54.5936961,47.6162559 C54.0204378,46.3117638 54.6132199,44.7895463 55.9177121,44.2162881 C64.9905906,40.2292171 69.8737218,31.0687468 68.7744316,21.8213601 C67.6714115,12.5425971 60.9579472,6.16 50.643288,6.16 C43.589117,6.16 38.551182,8.93536157 35.4783097,13.7563625 C32.8739447,17.8423265 31.9067858,23.2283788 32.7133767,27.6543725 C34.6106233,38.0514484 41.5802353,45.5934549 53.3220312,52.3054497 C54.5590774,53.0125858 54.9886544,54.588657 54.2815183,55.8257032 C53.5743822,57.0627494 51.998311,57.4923264 50.7612648,56.7851903 C37.8284134,49.3923492 29.8617517,40.771408 27.6370921,28.5800796 C26.6021318,22.9009591 27.8068575,16.191911 31.1270463,10.9828975 C35.1455063,4.67837314 41.82262,1 50.643288,1 Z" fill="#00B077"></path>
    </g>
</svg>