<?xml version="1.0" encoding="UTF-8"?>
<svg width="100px" height="100px" viewBox="0 0 100 100" version="1.1" xmlns="http://www.w3.org/2000/svg" xmlns:xlink="http://www.w3.org/1999/xlink">
    <!-- Generator: Sketch 63.1 (92452) - https://sketch.com -->
    <title>UsingSmartphone</title>
    <desc>Created with Sketch.</desc>
    <g id="UsingSmartphone" stroke="none" stroke-width="1" fill="none" fill-rule="evenodd">
        <path d="M61.73516,2 C67.8230082,2 72.8120932,6.89463304 72.9665158,12.94766 L72.9702,13.23676 L72.9697939,48.1654325 C74.140101,47.6274069 75.4507756,47.3237219 76.8380001,47.2899777 L77.1075647,47.286827 C82.152716,47.2913495 86.2547901,50.8458483 86.3971697,56.2634734 L86.400992,56.555476 L86.400992,73.058876 C86.400992,79.8939119 84.0437714,86.3733271 79.8045818,91.5539117 C78.9022172,92.6566641 77.2767487,92.8191105 76.1739963,91.9167458 C75.0712439,91.0143812 74.9087975,89.3889127 75.8111622,88.2861603 C79.1969735,84.1484632 81.1220982,79.0134109 81.2356633,73.5700713 L81.240992,73.058876 L81.240992,56.555476 C81.240992,53.972042 79.5212024,52.4489927 77.1029393,52.446825 C74.7585502,52.4447234 73.0741429,53.8724951 72.9742104,56.3227787 L72.97,56.508 L72.9702,56.55496 L72.965,56.702 L72.9642689,56.743048 C72.783644,59.932952 67.99538,59.932952 67.8147551,56.743048 L67.809512,56.555476 L67.809512,55.145076 C67.809512,52.2727192 66.0591369,50.6263756 63.6725177,50.6236243 C61.3570967,50.620955 59.6446999,52.1661822 59.5459736,54.8938582 L59.541472,55.145076 C59.541472,58.5213723 54.5708136,58.5838963 54.3867151,55.332648 L54.381472,55.145076 L54.381472,53.741556 C54.381472,50.9537823 52.6395004,49.3431428 50.2432877,49.3400739 C47.8481463,49.3370063 46.111712,50.9410434 46.111712,53.741556 C46.111712,57.1178523 41.1410536,57.1803763 40.9569551,53.929128 L40.951712,53.741556 L40.951712,33.447276 C40.951712,30.6595853 39.2665852,29.0362219 37.0093189,29.0127617 C34.8307836,28.9901197 33.2206314,30.4662746 33.125047,33.1884311 L33.120552,33.447276 L33.120552,73.058876 C33.120552,82.0638155 38.1105244,90.1523524 45.8390094,94.2862065 L76.288596,94.285396 C78.0421664,94.285396 79.463716,95.7069456 79.463716,97.460516 C79.463716,99.1536184 78.138514,100.537203 76.4687708,100.63061 L76.288596,100.635636 L38.613716,100.635636 C36.8601456,100.635636 35.438596,99.2140864 35.438596,97.460516 C35.438596,96.1499896 36.2325716,95.0249062 37.3657376,94.5400511 C31.6061633,89.2251021 28.085253,81.6886196 27.9637998,73.497148 L27.960552,73.058876 L27.960552,33.447276 C27.960552,27.6489124 31.9845753,23.8002597 37.0629451,23.8525042 C42.0072052,23.9044271 45.9704793,27.6397783 46.1080198,33.1503779 L46.111712,33.447276 L46.111644,45.085416 L46.2776363,45.0085882 C47.4050317,44.5015413 48.6583823,44.2154219 49.9838559,44.1831402 L50.2498963,44.1800781 C53.1833111,44.1838351 55.7865874,45.4233864 57.4857898,47.5468057 L57.579644,47.667416 L57.6324031,47.6214431 C59.1906828,46.2921015 61.1995636,45.5216944 63.4120112,45.4667738 L63.6784663,45.4636277 C65.1667851,45.4653435 66.5688903,45.7888837 67.8108722,46.3872901 L67.8102,13.23676 C67.8102,9.97669786 65.192846,7.2848929 61.9615688,7.16422204 L61.73516,7.16 L25.23504,7.16 C21.9752678,7.16 19.2848288,9.7770705 19.1642199,13.0102172 L19.16,13.23676 L19.16,76.07352 C19.16,79.3327418 21.7765326,82.0237062 25.0085752,82.1443393 L25.23504,82.14856 C26.6599347,82.14856 27.81504,83.3036653 27.81504,84.72856 C27.81504,86.1534547 26.6599347,87.30856 25.23504,87.30856 C19.1463452,87.30856 14.1580804,82.4147604 14.0036836,76.3625797 L14,76.07352 L14,13.23676 C14,7.14739395 18.8927937,2.15811271 24.9459331,2.00368433 L25.23504,2 L61.73516,2 Z M61.99402,12.999228 C63.4189147,12.999228 64.57402,14.1543333 64.57402,15.579228 C64.57402,16.949319 63.5060602,18.0699746 62.1571833,18.1541522 L61.99402,18.159228 L24.97962,18.159228 C23.5547253,18.159228 22.39962,17.0041227 22.39962,15.579228 C22.39962,14.209137 23.4675798,13.0884814 24.8164567,13.0043038 L24.97962,12.999228 L61.99402,12.999228 Z" fill="#00B077"></path>
    </g>
</svg>