<?xml version="1.0" encoding="UTF-8"?>
<svg width="100px" height="100px" viewBox="0 0 100 100" version="1.1" xmlns="http://www.w3.org/2000/svg" xmlns:xlink="http://www.w3.org/1999/xlink">
    <!-- Generator: Sketch 63.1 (92452) - https://sketch.com -->
    <title>VerifiedLetter</title>
    <desc>Created with Sketch.</desc>
    <g id="VerifiedLetter" stroke="none" stroke-width="1" fill="none" fill-rule="evenodd">
        <path d="M90.248,1 C91.6728947,1 92.828,2.15510535 92.828,3.58 C92.828,4.95009101 91.7600402,6.07074665 90.4111633,6.15492416 L90.248,6.16 L12.159,6.16 L12.159,93.88 L87.667,93.88 L87.668,14.12188 C87.668,12.751789 88.7359598,11.6311334 90.0848367,11.5469558 L90.248,11.54188 C91.618091,11.54188 92.7387466,12.6098398 92.8229242,13.9587167 L92.828,14.12188 L92.828,96.46 C92.828,97.830091 91.7600402,98.9507466 90.4111633,99.0349242 L90.248,99.04 L9.58,99.04 C8.20990899,99.04 7.08925335,97.9720402 7.00507584,96.6231633 L7,96.46 L7,3.58 C7,2.20990899 8.06795982,1.08925335 9.41683674,1.00507584 L9.58,1 L90.248,1 Z M75.2680824,68.0685195 C76.2317508,69.0323431 76.2735291,70.568853 75.3935054,71.5823334 L75.2677885,71.7171904 L64.5900285,82.3932304 C63.6261396,83.3569641 62.0895037,83.3986736 61.0760372,82.5184997 L60.941183,82.3927619 L56.063263,77.5131219 C55.0558879,76.5053916 55.0561759,74.871826 56.0639061,73.864451 C57.027822,72.9008748 58.5643359,72.8592437 59.577732,73.7393643 L59.712577,73.8650941 L62.766,76.919 L71.6194115,68.0682256 C72.6270453,67.0607541 74.2606109,67.0608856 75.2680824,68.0685195 Z M73.442912,32.847004 C74.8678067,32.847004 76.022912,34.0021093 76.022912,35.427004 C76.022912,36.797095 74.9549522,37.9177506 73.6060753,38.0019282 L73.442912,38.007004 L26.385432,38.007004 C24.9605373,38.007004 23.805432,36.8518987 23.805432,35.427004 C23.805432,34.056913 24.8733918,32.9362574 26.2222687,32.8520798 L26.385432,32.847004 L73.442912,32.847004 Z M73.442912,20.041088 C74.8678067,20.041088 76.022912,21.1961933 76.022912,22.621088 C76.022912,23.991179 74.9549522,25.1118346 73.6060753,25.1960122 L73.442912,25.201088 L26.385432,25.201088 C24.9605373,25.201088 23.805432,24.0459827 23.805432,22.621088 C23.805432,21.250997 24.8733918,20.1303414 26.2222687,20.0461638 L26.385432,20.041088 L73.442912,20.041088 Z M51.456152,58.44542 C52.8810467,58.44542 54.036152,59.6005253 54.036152,61.02542 C54.036152,62.395511 52.9681922,63.5161666 51.6193153,63.6003442 L51.456152,63.60542 L26.385432,63.60542 C24.9605373,63.60542 23.805432,62.4503147 23.805432,61.02542 C23.805432,59.655329 24.8733918,58.5346734 26.2222687,58.4504958 L26.385432,58.44542 L51.456152,58.44542 Z M73.442912,45.644492 C74.8678067,45.644492 76.022912,46.7995973 76.022912,48.224492 C76.022912,49.594583 74.9549522,50.7152386 73.6060753,50.7994162 L73.442912,50.804492 L26.385432,50.804492 C24.9605373,50.804492 23.805432,49.6493867 23.805432,48.224492 C23.805432,46.854401 24.8733918,45.7337454 26.2222687,45.6495678 L26.385432,45.644492 L73.442912,45.644492 Z" id="Verified-Letter" fill="#00B077"></path>
    </g>
</svg>