<?xml version="1.0" encoding="UTF-8"?>
<svg width="100px" height="100px" viewBox="0 0 100 100" version="1.1" xmlns="http://www.w3.org/2000/svg" xmlns:xlink="http://www.w3.org/1999/xlink">
    <!-- Generator: Sketch 63.1 (92452) - https://sketch.com -->
    <title>Webinar</title>
    <desc>Created with Sketch.</desc>
    <g id="Webinar" stroke="none" stroke-width="1" fill="none" fill-rule="evenodd">
        <path d="M50.02,77.31984 C51.390091,77.31984 52.5107466,78.3877998 52.5949242,79.7366767 L52.6,79.89984 L52.599,83.079 L68.1924273,94.3703493 C69.3465095,95.206064 69.6045974,96.8191131 68.7688827,97.9731953 C67.9679894,99.0791908 66.4531901,99.3623025 65.312598,98.6484324 L65.1660367,98.5496507 L52.599,89.449 L52.6,96.46 C52.6,97.8848947 51.4448947,99.0401864 50.02,99.0401864 C48.649909,99.0401864 47.5292534,97.9720402 47.4450758,96.6231633 L47.44,96.46 L47.439,89.449 L34.8725873,98.5496507 C33.7665919,99.3505439 32.23908,99.1468859 31.3781648,98.1127746 L31.2697413,97.9731953 C30.4688481,96.8671999 30.6725061,95.339688 31.7066174,94.4787728 L31.8461967,94.3703493 L47.439,83.079 L47.44,79.89984 C47.44,78.4749453 48.5951053,77.31984 50.02,77.31984 Z M96.46,1 C97.8848947,1 99.04,2.15510535 99.04,3.58 C99.04,4.95009101 97.9720402,6.07074665 96.6231633,6.15492416 L96.46,6.16 L6.16,6.159 L6.16,68.289 L93.88,68.289 L93.88,13.06752 C93.88,11.697429 94.9479598,10.5767734 96.2968367,10.4925958 L96.46,10.48752 C97.830091,10.48752 98.9507466,11.5554798 99.0349242,12.9043567 L99.04,13.06752 L99.04,70.86984 C99.04,72.239931 97.9720402,73.3605866 96.6231633,73.4447642 L96.46,73.44984 L3.58,73.44984 C2.20990899,73.44984 1.08925335,72.3818802 1.00507584,71.0330033 L1,70.86984 L1,3.58 C1,2.20990899 2.06795982,1.08925335 3.41683674,1.00507584 L3.58,1 L96.46,1 Z M31.96,45.595644 C33.330091,45.595644 34.4507466,46.6636038 34.5349242,48.0124807 L34.54,48.175644 L34.54,56.268244 C34.54,57.6931387 33.3848947,58.848244 31.96,58.848244 C30.589909,58.848244 29.4692534,57.7802842 29.3850758,56.4314073 L29.38,56.268244 L29.38,48.175644 C29.38,46.7507493 30.5351053,45.595644 31.96,45.595644 Z M44,46.21708 C45.370091,46.21708 46.4907466,47.2850398 46.5749242,48.6339167 L46.58,48.79708 L46.58,56.26876 C46.58,57.6936547 45.4248947,58.84876 44,58.84876 C42.629909,58.84876 41.5092534,57.7808002 41.4250758,56.4319233 L41.42,56.26876 L41.42,48.79708 C41.42,47.3721853 42.5751053,46.21708 44,46.21708 Z M56.04,37.408788 C57.410091,37.408788 58.5307466,38.4767478 58.6149242,39.8256247 L58.62,39.988788 L58.62,56.268588 C58.62,57.6934827 57.4648947,58.848588 56.04,58.848588 C54.669909,58.848588 53.5492534,57.7806282 53.4650758,56.4317513 L53.46,56.268588 L53.46,39.988788 C53.46,38.5638933 54.6151053,37.408788 56.04,37.408788 Z M80.12,31.308292 C81.490091,31.308292 82.6107466,32.3762518 82.6949242,33.7251287 L82.7,33.888292 L82.7,56.268932 C82.7,57.6938267 81.5448947,58.848932 80.12,58.848932 C78.749909,58.848932 77.6292534,57.7809722 77.5450758,56.4320953 L77.54,56.268932 L77.54,33.888292 C77.54,32.4633973 78.6951053,31.308292 80.12,31.308292 Z M68.08,41.376312 C69.450091,41.376312 70.5707466,42.4442718 70.6549242,43.7931487 L70.66,43.956312 L70.66,56.268072 C70.66,57.6929667 69.5048947,58.848072 68.08,58.848072 C66.709909,58.848072 65.5892534,57.7801122 65.5050758,56.4312353 L65.5,56.268072 L65.5,43.956312 C65.5,42.5314173 66.6551053,41.376312 68.08,41.376312 Z M19.92,51.706288 C21.290091,51.706288 22.4107466,52.7742478 22.4949242,54.1231247 L22.5,54.286288 L22.5,56.267728 C22.5,57.6926227 21.3448947,58.847728 19.92,58.847728 C18.549909,58.847728 17.4292534,57.7797682 17.3450758,56.4308913 L17.34,56.267728 L17.34,54.286288 C17.34,52.8613933 18.4951053,51.706288 19.92,51.706288 Z M81.6661263,16.1146441 C82.7592886,16.9329668 83.0183551,18.4520632 82.2864963,19.5811972 L82.1854039,19.7261743 L70.1454039,35.8098943 C69.3721964,36.8427891 67.9627666,37.1392125 66.8456398,36.5294189 L66.6952033,36.4406323 L56.551,29.987 L45.9666743,42.4541958 C45.2344925,43.3164969 44.0323749,43.5960861 43.0024805,43.1637102 L42.8325362,43.0850331 L32.422,37.802 L21.7035419,48.0579247 C20.7187171,49.0001206 19.1816598,49.0080306 18.1878174,48.1058879 L18.0557633,47.9772299 C17.1135674,46.9924051 17.1056574,45.4553478 18.0078001,44.4615054 L18.1364581,44.3294513 L30.1764581,32.8106113 C30.921237,32.0980708 32.0130197,31.9011421 32.9530986,32.2935934 L33.1274638,32.3741029 L43.351,37.562 L54.0733257,24.9347002 C54.8675,23.9993898 56.2028705,23.7585784 57.2672705,24.3351174 L57.4247967,24.4277437 L67.447,30.803 L78.0545961,16.6339217 C78.9084981,15.4932306 80.5254353,15.2607421 81.6661263,16.1146441 Z" fill="#00B077"></path>
    </g>
</svg>