<?xml version="1.0" encoding="UTF-8"?>
<svg width="100px" height="100px" viewBox="0 0 100 100" version="1.1" xmlns="http://www.w3.org/2000/svg" xmlns:xlink="http://www.w3.org/1999/xlink">
    <!-- Generator: Sketch 63.1 (92452) - https://sketch.com -->
    <title>WWW</title>
    <desc>Created with Sketch.</desc>
    <g id="WWW" stroke="none" stroke-width="1" fill="none" fill-rule="evenodd">
        <path d="M50.01656,1 C22.939006,1 1,22.9384446 1,50.02 C1,77.0947112 22.9424817,99.04 50.01656,99.04 C77.0941139,99.04 99.04,77.0946754 99.04,50.02 C99.04,22.9384804 77.0975902,1 50.01656,1 Z M50.01656,6.16 C74.2480077,6.16 93.88,25.7884766 93.88,50.02 C93.88,74.2448565 74.2443542,93.88 50.01656,93.88 C25.7924188,93.88 6.16,74.2450696 6.16,50.02 C6.16,25.7882635 25.7887657,6.16 50.01656,6.16 Z M49.929356,11.314496 C51.299447,11.314496 52.4201026,12.3824558 52.5042802,13.7313327 L52.509356,13.894496 L52.509,25.845 L79.03812,25.845916 C80.4630147,25.845916 81.61812,27.0010213 81.61812,28.425916 C81.61812,29.796007 80.5501602,30.9166626 79.2012833,31.0008402 L79.03812,31.005916 L52.509,31.005 L52.509,47.44 L86.41434,47.44 C87.8392347,47.44 88.99434,48.5951053 88.99434,50.02 C88.99434,51.390091 87.9263802,52.5107466 86.5775033,52.5949242 L86.41434,52.6 L52.509,52.599 L52.509,69.49 L79.03812,69.490916 C80.4630147,69.490916 81.61812,70.6460213 81.61812,72.070916 C81.61812,73.441007 80.5501602,74.5616626 79.2012833,74.6458402 L79.03812,74.650916 L52.509,74.65 L52.509356,86.151696 C52.509356,87.5765907 51.3542507,88.731696 49.929356,88.731696 C48.559265,88.731696 47.4386094,87.6637362 47.3544318,86.3148593 L47.349356,86.151696 L47.349,74.65 L20.995,74.650916 C19.5701053,74.650916 18.415,73.4958107 18.415,72.070916 C18.415,70.700825 19.4829598,69.5801694 20.8318367,69.4959918 L20.995,69.490916 L47.349,69.49 L47.349,52.599 L13.43818,52.6 C12.0132853,52.6 10.85818,51.4448947 10.85818,50.02 C10.85818,48.649909 11.9261398,47.5292534 13.2750167,47.4450758 L13.43818,47.44 L47.349,47.44 L47.349,31.005 L20.995,31.005916 C19.5701053,31.005916 18.415,29.8508107 18.415,28.425916 C18.415,27.055825 19.4829598,25.9351694 20.8318367,25.8509918 L20.995,25.845916 L47.349,25.845 L47.349356,13.894496 C47.349356,12.4696013 48.5044613,11.314496 49.929356,11.314496 Z" fill="#00B077"></path>
    </g>
</svg>