<?xml version="1.0" encoding="UTF-8"?>
<svg width="100px" height="100px" viewBox="0 0 100 100" version="1.1" xmlns="http://www.w3.org/2000/svg" xmlns:xlink="http://www.w3.org/1999/xlink">
    <!-- Generator: Sketch 63.1 (92452) - https://sketch.com -->
    <title>Compass</title>
    <desc>Created with Sketch.</desc>
    <g id="Compass" stroke="none" stroke-width="1" fill="none" fill-rule="evenodd">
        <path d="M50.302871,0.729029 C23.0781624,0.729029 0.994411,22.8020483 0.994411,50.020189 C0.994411,77.25021 23.0762031,99.326919 50.302871,99.326919 C77.5294849,99.326919 99.604411,77.2519929 99.604411,50.020189 C99.604411,22.800266 77.527526,0.729029 50.302871,0.729029 Z M50.302871,5.919029 C74.6614654,5.919029 94.414411,25.6669211 94.414411,50.020189 C94.414411,74.3856351 74.6631271,94.136919 50.302871,94.136919 C25.9422935,94.136919 6.184411,74.3835847 6.184411,50.020189 C6.184411,25.6689711 25.9439556,5.919029 50.302871,5.919029 Z M54.630293,14.397932 C54.630293,16.783602 52.689233,18.716012 50.303563,18.716012 C47.916163,18.716012 45.976833,16.783602 45.976833,14.397932 C45.976833,12.007072 47.916163,10.066012 50.303563,10.066012 C52.689233,10.066012 54.630293,12.007072 54.630293,14.397932 M90.265871,50.020189 C90.265871,52.409319 88.328271,54.339999 85.937411,54.339999 C83.553471,54.339999 81.614141,52.409319 81.614141,50.020189 C81.614141,47.631059 83.553471,45.689999 85.937411,45.689999 C88.328271,45.689999 90.265871,47.631059 90.265871,50.020189 M10.339698,50.020189 C10.339698,52.409319 12.277298,54.339999 14.666428,54.339999 C17.052098,54.339999 18.991428,52.409319 18.991428,50.020189 C18.991428,47.631059 17.052098,45.689999 14.666428,45.689999 C12.277298,45.689999 10.339698,47.631059 10.339698,50.020189 M54.628563,85.660784 C54.628563,88.048184 52.687503,89.985784 50.303563,89.985784 C47.916163,89.985784 45.978563,88.048184 45.978563,85.660784 C45.978563,83.273384 47.916163,81.335784 50.303563,81.335784 C52.687503,81.335784 54.628563,83.273384 54.628563,85.660784 M39.747,27.771 L43.05,50.588 L55.32,44.768 L39.747,27.771 Z M33.4048839,20.1813646 C33.0466885,17.7072456 36.0297417,16.2366703 37.7745054,17.9408832 L37.8864916,18.056551 L61.4820293,43.8108996 C61.5196325,43.8501313 61.5561217,43.8906871 61.591421,43.9325401 L61.6936733,44.0619635 L61.7883309,44.1990074 L61.8749381,44.3435093 L61.9530396,44.4953068 L62.0211665,44.6518349 L62.092197,44.8558871 L62.1244885,44.9703463 L62.1600084,45.1314187 L67.1952702,79.8662666 C67.5538297,82.3404634 64.5707056,83.8114085 62.8257829,82.1071863 L62.7137862,81.9915174 L44.3169662,61.9131374 C43.348771,60.8564444 43.4205127,59.2149483 44.4772056,58.2467532 C45.4879554,57.3206535 47.0337614,57.3460271 48.0135886,58.2747534 L48.1435898,58.4069926 L60.85,72.275 L57.544,49.457 L42.0986462,56.7836266 C40.5714835,57.5079081 38.7878677,56.6015399 38.4475787,54.9757209 L38.4184239,54.8107746 L33.4048839,20.1813646 Z" fill="#00B077"></path>
    </g>
</svg>