<?xml version="1.0" encoding="UTF-8"?>
<svg width="100px" height="100px" viewBox="0 0 100 100" version="1.1" xmlns="http://www.w3.org/2000/svg" xmlns:xlink="http://www.w3.org/1999/xlink">
    <!-- Generator: Sketch 63.1 (92452) - https://sketch.com -->
    <title>Passport</title>
    <desc>Created with Sketch.</desc>
    <g id="Passport" stroke="none" stroke-width="1" fill="none" fill-rule="evenodd">
        <path d="M89.06619,0.721244 C90.4993689,0.721244 91.66119,1.88306507 91.66119,3.316244 C91.66119,4.69430066 90.5870211,5.82147173 89.2303019,5.90613865 L89.06619,5.911244 L14.255,5.911 L14.255,94.141 L86.471,94.141 L86.47119,13.720464 C86.47119,12.3424073 87.5453589,11.2152363 88.9020781,11.1305693 L89.06619,11.125464 C90.4442467,11.125464 91.5714177,12.1996329 91.6560847,13.5563521 L91.66119,13.720464 L91.66119,96.736244 C91.66119,98.1143007 90.5870211,99.2414717 89.2303019,99.3261387 L89.06619,99.331244 L11.6608,99.331244 C10.2827433,99.331244 9.15557227,98.2570751 9.07090535,96.9003559 L9.0658,96.736244 L9.0658,3.316244 C9.0658,1.93818734 10.1399689,0.811016269 11.4966881,0.726349347 L11.6608,0.721244 L89.06619,0.721244 Z M26.141592,33.683107 C26.141592,35.1162859 24.9797709,36.278107 23.546592,36.278107 C22.1685353,36.278107 21.0413643,35.2039381 20.9566973,33.8472189 L20.951592,33.683107 L20.951592,17.362287 C20.951592,15.9842303 22.0257609,14.8570593 23.3824801,14.7723923 L23.546592,14.767287 L29.956242,14.767287 C33.9879065,14.767287 36.7302314,17.8286025 36.8267177,21.5578902 C36.9247025,25.3451013 34.2538793,28.482727 30.130972,28.482727 C28.6977931,28.482727 27.535972,27.3209059 27.535972,25.887727 C27.535972,24.5096703 28.6101409,23.3824993 29.9668601,23.2978323 L30.130972,23.292727 C31.1661318,23.292727 31.6647115,22.7070064 31.6384538,21.6921238 C31.6124801,20.6882118 31.0683001,20.0294208 30.1183116,19.9628553 L29.956242,19.957287 L26.141,19.957 L26.141592,33.683107 Z M62.116077,14.767979 C63.5492559,14.767979 64.711077,15.9298001 64.711077,17.362979 C64.711077,18.7410357 63.6369081,19.8682067 62.2801889,19.9528737 L62.116077,19.957979 L57.706307,19.957979 C56.5582211,19.957979 56.041457,20.4524668 56.0222963,21.094959 C56.0059634,21.6426295 56.3571655,22.0294985 57.3384152,22.0731175 L57.529847,22.077229 C61.7075356,22.077229 64.3202011,25.4093272 64.2263789,29.3624161 C64.2092073,30.0859235 64.1027093,30.7873863 63.9145326,31.4501 C64.1040069,31.3900276 64.3044636,31.3528306 64.5115001,31.3399103 L64.675612,31.334805 L72.415632,31.334805 C73.4109821,31.334805 74.0682928,30.5380827 74.0989978,29.2390066 C74.1288173,27.9773955 73.5708909,27.265845 72.590362,27.265845 C68.5621941,27.265845 65.7903997,24.473447 65.8970921,20.9387915 C65.9993359,17.5515149 68.7094843,14.8864172 72.5117372,14.7721441 L72.766822,14.768325 L77.180052,14.768325 C78.6132309,14.768325 79.775052,15.9301461 79.775052,17.363325 C79.775052,18.7413817 78.7008831,19.8685527 77.3441639,19.9532197 L77.180052,19.958325 L72.766822,19.958325 C71.6209062,19.958325 71.1041229,20.4528821 71.0847294,21.0953785 C71.0682176,21.6424052 71.4182982,22.0282447 72.3990216,22.0717448 L72.590362,22.075845 C76.7680443,22.075845 79.3809909,25.4082625 79.2875487,29.3616434 C79.1972375,33.1825552 76.6159384,36.3886536 72.6693831,36.5205827 L72.415632,36.524805 L64.675612,36.524805 C63.4550983,36.524805 62.4313855,35.6822006 62.1544481,34.5469665 C61.0210055,35.7150462 59.4660825,36.4581471 57.6088163,36.5202372 L57.355117,36.524459 L49.611637,36.524459 C48.5660098,36.524459 47.6291411,35.8979245 47.2242345,34.9465831 L47.1583887,34.775389 L43.898,25.323 L40.6381564,34.775618 C40.1895285,36.0762721 38.8102331,36.7913738 37.5019244,36.4330455 L37.338828,36.3826284 C36.0381739,35.9340005 35.3230722,34.5547051 35.6814005,33.2463964 L35.7318176,33.0833 L41.4460076,16.51682 C42.2302306,14.2432145 45.3849716,14.1865206 46.2875188,16.3465228 L46.3524253,16.517049 L51.461,31.334 L57.355117,31.334459 C58.3024292,31.334459 58.9436606,30.6119573 59.029207,29.4213431 L59.0378401,29.2392719 C59.06777,27.9782089 58.5102976,27.267229 57.529847,27.267229 C53.5019368,27.267229 50.7291913,24.4748765 50.8346027,20.940249 C50.9356576,17.5517013 53.6465635,14.8860935 57.4510697,14.7717989 L57.706307,14.767979 L62.116077,14.767979 Z M50.364187,44.796281 C39.4116831,44.796281 30.538387,53.6695771 30.538387,64.623811 C30.538387,75.5726054 39.4131636,84.446151 50.364187,84.446151 C61.3137881,84.446151 70.188257,75.5722977 70.188257,64.623811 C70.188257,53.6698848 61.3152686,44.796281 50.364187,44.796281 Z M50.364187,49.986281 C58.4488302,49.986281 64.998257,56.5361621 64.998257,64.623811 C64.998257,65.3683065 64.9426701,66.0998042 64.835419,66.8143813 L43.052169,66.815029 L42.8880571,66.8201343 C41.5313379,66.9048013 40.457169,68.0319723 40.457169,69.410029 C40.457169,70.8432079 41.6189901,72.005029 43.052169,72.005029 L43.052169,72.005029 L63.0030645,72.005079 C60.4639356,76.3429748 55.7548606,79.256151 50.364187,79.256151 C42.2793603,79.256151 35.728387,72.7060864 35.728387,64.623811 C35.728387,63.8784297 35.7840167,63.1461133 35.8913518,62.4307846 L57.670496,62.430863 L57.8346079,62.4257577 C59.1913271,62.3410907 60.265496,61.2139197 60.265496,59.835863 C60.265496,58.4026841 59.1036749,57.240863 57.670496,57.240863 L57.670496,57.240863 L37.7222331,57.2406052 C40.2609709,52.9000669 44.9708045,49.986281 50.364187,49.986281 Z" fill="#00B077"></path>
    </g>
</svg>