<?xml version="1.0" encoding="UTF-8"?>
<svg width="100px" height="100px" viewBox="0 0 100 100" version="1.1" xmlns="http://www.w3.org/2000/svg" xmlns:xlink="http://www.w3.org/1999/xlink">
    <!-- Generator: Sketch 63.1 (92452) - https://sketch.com -->
    <title>Rainbow</title>
    <desc>Created with Sketch.</desc>
    <g id="Rainbow" stroke="none" stroke-width="1" fill="none" fill-rule="evenodd">
        <path d="M14.009,61.824 L13.703177,61.8951394 C6.13882139,63.7112444 0.888036082,69.9508275 0.947887224,76.9735218 C1.02230434,85.5708863 8.73861749,91.568635 21.382634,91.568635 L67.487134,91.568635 C76.6224986,91.568635 83.185795,88.0165701 84.8710804,82.4091319 L84.9467401,82.1438249 C86.1871296,77.5471635 83.7412733,73.0652939 78.8717098,70.4404286 L78.592,70.293 L78.7433132,70.0029445 C85.1988476,57.0579155 70.7261377,44.0768341 56.4888,49.8278386 L56.019,50.024 L55.7613706,49.5712711 C43.4677987,28.7192595 11.812608,36.5170151 13.9460841,61.1964144 L14.009,61.824 Z M52.5174577,54.583489 C53.1540585,55.9988323 54.88236,56.5426683 56.2147237,55.7468891 C67.8549039,48.7945729 80.3015056,60.1110531 72.6694651,69.9325794 C71.5517347,71.3709651 72.2250896,73.4831795 73.9690788,74.0092748 C84.1803017,77.0896133 81.3885361,86.378635 67.487134,86.378635 L21.382634,86.378635 C11.3500465,86.378635 6.18492905,82.3638839 6.13789173,76.9289107 C6.09398482,71.7839138 10.654031,67.075107 17.1573138,66.594209 C18.711127,66.4793093 19.8141196,65.0307055 19.5115378,63.5023137 C17.4302838,52.9895475 22.3432598,45.3890555 30.8876474,43.2993536 C39.4106146,41.2148905 48.3976992,45.4241024 52.5174577,54.583489 Z M87.7090077,30.9400734 C91.1926052,30.7746354 94.6225749,31.3056491 97.8484982,32.4792483 C99.1953184,32.9692249 99.8899274,34.458243 99.3999507,35.8050632 C98.9099741,37.1518834 97.420956,37.8464924 96.0741358,37.3565157 C93.4900541,36.4164202 90.7464803,35.9916715 87.9543826,36.1242696 C81.7243037,36.4181554 76.0758084,39.4183291 72.3380424,44.2550649 C71.4616864,45.3890852 69.8319544,45.5979634 68.6979341,44.7216074 C67.5639138,43.8452514 67.3550356,42.2155194 68.2313916,41.0814991 C72.8901569,35.0529739 79.9439815,31.3063657 87.7090077,30.9400734 Z M82.5608153,8.94160099 C87.5565706,8.30029045 92.5560374,8.43967566 97.4275847,9.32947299 C98.837439,9.58698554 99.7715966,10.9386534 99.514084,12.3485077 C99.2565715,13.758362 97.9049036,14.6925196 96.4950493,14.435007 C92.1469255,13.640814 87.684853,13.5164113 83.222989,14.0891853 C69.7504124,15.8258601 58.4044646,23.7764222 51.6033956,35.6851145 C50.8926469,36.9296377 49.3075857,37.3623474 48.0630625,36.6515986 C46.8185393,35.9408499 46.3858296,34.3557887 47.0965784,33.1112655 C54.6852569,19.8234666 67.4311937,10.8918759 82.5608153,8.94160099 Z M83.8804754,20.0515803 C88.4695811,19.4587379 93.0788188,19.7418147 97.5765396,20.8394271 C98.9688588,21.1792052 99.8221119,22.5833474 99.4823339,23.9756666 C99.1425558,25.3679858 97.7384136,26.2212389 96.3460944,25.8814609 C92.4585831,24.9327624 88.4910311,24.6890949 84.5443941,25.1989399 C74.1049442,26.5433328 65.3673948,32.8654754 60.330817,42.2696583 C59.6541829,43.5330538 58.0814783,44.008718 56.8180827,43.332084 C55.5546872,42.6554499 55.079023,41.0827453 55.755657,39.8193497 C61.5641625,28.9738414 71.7332406,21.6159016 83.8804754,20.0515803 Z" fill="#00B077"></path>
    </g>
</svg>