<?xml version="1.0" encoding="UTF-8"?>
<svg width="100px" height="100px" viewBox="0 0 100 100" version="1.1" xmlns="http://www.w3.org/2000/svg" xmlns:xlink="http://www.w3.org/1999/xlink">
    <!-- Generator: Sketch 63.1 (92452) - https://sketch.com -->
    <title>Tent</title>
    <desc>Created with Sketch.</desc>
    <g id="Tent" stroke="none" stroke-width="1" fill="none" fill-rule="evenodd">
        <path d="M13.12915,87.180384 C11.6959711,87.180384 10.53415,86.0185629 10.53415,84.585384 C10.53415,83.2073273 11.6083189,82.0801563 12.9650381,81.9954893 L13.12915,81.990384 L18.0917253,81.9897673 L16.6628273,74.8753551 C16.380523,73.4702551 17.2907288,72.1023436 18.6958289,71.8200393 C20.0468866,71.5485929 21.3635614,72.3796891 21.713813,73.6931499 L21.7511447,73.8530409 L23.3847253,81.9897673 L76.0347253,81.9897673 L77.6697203,73.8530409 C77.9520246,72.4479408 79.3199361,71.537735 80.7250361,71.8200393 C82.0760939,72.0914858 82.969594,73.3666371 82.7853587,74.7134529 L82.7580377,74.8753551 L81.3277253,81.9897673 L86.29258,81.990384 C87.7257589,81.990384 88.88758,83.1522051 88.88758,84.585384 C88.88758,85.9634407 87.8134111,87.0906117 86.4566919,87.1752787 L86.29258,87.180384 L13.12915,87.180384 Z M49.7223873,11.4047673 L49.7714748,11.4053972 C49.809419,11.4062603 49.8473803,11.407956 49.8853303,11.4104901 C49.890673,11.4111681 49.8956686,11.4115251 49.9006628,11.4118965 C50.11068,11.4268056 50.3205866,11.4678643 50.5251878,11.535676 L50.5385273,11.5406875 C50.6147607,11.5663097 50.6898932,11.5954894 50.7636519,11.6281722 C50.8005922,11.6445393 50.8372679,11.6619215 50.8736665,11.6802374 C51.0672749,11.7768663 51.2505573,11.8990317 51.4176717,12.0451998 C51.5895793,12.1954921 51.7378052,12.364563 51.8611788,12.5474157 L51.8684972,12.5595436 L98.5784972,82.5536136 C99.3740393,83.7457187 99.0525615,85.3570251 97.8604564,86.1525672 C96.7180223,86.9149618 95.1905926,86.6514821 94.365105,85.5789872 L94.2615028,85.4345264 L49.7097253,18.6737673 L5.15849724,85.4345264 C4.36295514,86.6266315 2.75164871,86.9481093 1.5595436,86.1525672 C0.417109533,85.3901727 0.0742619773,83.878578 0.747859982,82.7047207 L0.841502756,82.5536136 L47.5515028,12.5595436 L47.5643077,12.5393173 C47.6242705,12.4511694 47.6900309,12.3662572 47.7614677,12.2851888 C47.7732605,12.2722825 47.7842194,12.2600453 47.7952758,12.2479324 C47.8202026,12.2203456 47.8469574,12.1924036 47.8744237,12.1649878 C47.9020811,12.1372805 47.9296882,12.1108323 47.9577826,12.0850841 C47.9693592,12.074834 47.9819359,12.063565 47.9946436,12.052401 C48.1541011,11.9114356 48.327783,11.7932147 48.5116547,11.6977188 C48.5592702,11.6731673 48.6068386,11.6501781 48.6548241,11.6287564 C48.7300772,11.595448 48.8066918,11.5657194 48.8844472,11.5396897 C49.0914388,11.4694883 49.3047098,11.4272421 49.5184689,11.4116228 C49.5236129,11.4115766 49.5289676,11.4111928 49.5343239,11.4108255 C49.5725354,11.4079598 49.6105389,11.4062613 49.6485252,11.4053972 C49.6648337,11.4051086 49.6812199,11.4048605 49.6976127,11.4047673 L49.7223873,11.4047673 L49.7223873,11.4047673 Z M51.5779578,40.658389 L51.6021962,40.6837477 C51.6203528,40.7030668 51.6382354,40.7226912 51.6558351,40.742617 C51.6724516,40.7617617 51.6887504,40.7808103 51.7047575,40.800076 C51.7260622,40.8252521 51.7468143,40.851179 51.7671002,40.8775581 C51.7793662,40.8940882 51.7918218,40.9107129 51.8040708,40.9274764 C51.8215933,40.95081 51.8382527,40.9744172 51.8545456,40.9983534 C51.8688719,41.0200992 51.8833764,41.0421178 51.8975379,41.0643424 C51.9159288,41.0924997 51.9334212,41.1211835 51.9503979,41.1502902 C51.956924,41.1621497 51.9636444,41.1738644 51.9702727,41.1856291 C51.9892002,41.2186288 52.0072192,41.25238 52.0245499,41.2866549 C52.037069,41.3118462 52.0492309,41.3368294 52.0609909,41.3619996 C52.0662126,41.3728841 52.071464,41.3843644 52.0766396,41.3958992 L52.0855037,41.4160591 C52.0998702,41.4487244 52.1135679,41.4816861 52.1265866,41.5149218 L52.1414297,41.5538377 L64.7271797,75.3026777 C65.2279575,76.6455192 64.5453299,78.140068 63.2024883,78.6408457 C61.9133604,79.1215924 60.4844192,78.5117127 59.9291104,77.2740928 L59.8643203,77.1161543 L49.7097253,49.8867673 L39.5556797,77.1161543 C39.054902,78.4589959 37.5603532,79.1416235 36.2175117,78.6408457 C34.9283838,78.1600991 34.2477091,76.7634931 34.6383738,75.4644735 L34.6928203,75.3026777 L47.2785703,41.5538377 L47.2934134,41.5149218 C47.3057637,41.4833924 47.3187251,41.4521097 47.3322888,41.4210926 L47.2785703,41.5538377 C47.3053223,41.4821017 47.3349104,41.4122498 47.3671599,41.3443618 C47.3754272,41.3273496 47.3840753,41.3096965 47.3929223,41.2921418 C47.4110534,41.2556196 47.4299035,41.2202223 47.4494836,41.1854121 C47.4563556,41.1738644 47.463076,41.1621497 47.4698881,41.1504861 C47.4877932,41.1191014 47.5065765,41.0883981 47.5259316,41.0581897 C47.5361412,41.0429847 47.5461921,41.0276631 47.5564071,41.0124443 C47.5786257,40.9786337 47.601871,40.9457094 47.6258042,40.9134365 C47.6325125,40.9049973 47.6390162,40.8963322 47.6455757,40.8877058 C47.6680057,40.8576666 47.6912881,40.8284348 47.7151395,40.7997848 C47.7312496,40.7808103 47.7475484,40.7617617 47.7641354,40.7429377 C47.7817646,40.7226912 47.7996472,40.7030668 47.8178038,40.6837477 C47.8258116,40.675351 47.8338961,40.6668443 47.8420422,40.658389 L47.907813,40.5926182 C47.9162683,40.5844721 47.924775,40.5763876 47.9333324,40.568365 C47.9524908,40.5502232 47.9721152,40.5323406 47.992041,40.5147409 C48.0118876,40.4975059 48.0316552,40.4806105 48.051656,40.4640291 C48.0736037,40.4454472 48.0963173,40.4272174 48.1193793,40.4093451 C48.1385962,40.3948998 48.1576568,40.3805663 48.1769004,40.3665052 C48.2454117,40.3159399 48.3170379,40.2687905 48.3914482,40.2250199 C48.4145634,40.2118154 48.4375088,40.1987685 48.4606419,40.1860751 C48.4799269,40.1751745 48.499633,40.1647082 48.5195177,40.1544745 C48.5482419,40.1399223 48.5772174,40.1256482 48.6064465,40.1119169 C48.6291245,40.1011407 48.651864,40.0908817 48.6748147,40.0809211 C48.7010839,40.069555 48.7278145,40.0584441 48.7547269,40.0477792 C48.770723,40.0414638 48.7869436,40.0352317 48.8032617,40.0291463 L48.831311,40.0188116 C48.8560706,40.0098878 48.880971,40.0013366 48.9060034,39.993162 L48.8032617,40.0291463 C48.863566,40.0066573 48.9241762,39.986555 48.9849887,39.9687919 C49.0128636,39.960611 49.0411288,39.9528748 49.0695333,39.9456146 C49.0965048,39.9387296 49.1231913,39.9323526 49.1498985,39.9264145 C49.1684589,39.922307 49.1871381,39.9183749 49.205868,39.9146476 C49.2410563,39.9076067 49.2761266,39.9013745 49.3112027,39.8958829 C49.3273731,39.8934071 49.3433112,39.8910673 49.3592786,39.8888755 C49.396,39.8837736 49.4329255,39.8795158 49.4698247,39.876064 C49.4858219,39.8746208 49.5014778,39.8733006 49.5171552,39.8721226 C49.5506579,39.8695618 49.5843565,39.8677009 49.6180076,39.8665027 L49.8019924,39.8665027 C49.8359766,39.8677128 49.8700094,39.8695987 49.9040727,39.8721688 C49.9193607,39.8733712 49.9346219,39.8746621 49.949861,39.8760874 C49.9907282,39.8798576 50.0313128,39.8846246 50.0718989,39.890379 C50.0838268,39.8921277 50.0951616,39.8938135 50.1064806,39.8955737 C50.1432171,39.9012286 50.1806226,39.907883 50.2179985,39.9153905 C50.235696,39.9189727 50.2529542,39.9226207 50.2701663,39.9264424 C50.2968087,39.9323526 50.3234952,39.9387296 50.3501522,39.9455494 C50.3785781,39.9527999 50.4065532,39.9604514 50.43438,39.9685637 C50.4647335,39.9774607 50.4954012,39.9870172 50.5260041,39.9971766 C50.5453165,40.0035311 50.5639447,40.009955 50.5824945,40.0165878 C50.5935174,40.0205792 50.6051335,40.0248185 50.6167383,40.0291463 L50.6656092,40.0479124 C50.6951336,40.0596172 50.7244393,40.0718587 50.7535106,40.08463 L50.6167383,40.0291463 C50.6799932,40.0527355 50.7417832,40.0785299 50.8020535,40.1064096 C50.8352291,40.1219297 50.8685267,40.1382374 50.9014681,40.1552502 C50.9211272,40.165112 50.9404498,40.1753808 50.9595985,40.1858689 C50.9824912,40.1987685 51.0054366,40.2118154 51.0281853,40.2252118 C51.0594469,40.2431934 51.089862,40.2619493 51.119788,40.2812679 C51.1329155,40.2902072 51.1466672,40.2992694 51.1603357,40.308464 C51.1891388,40.3273724 51.2168228,40.3468109 51.2440494,40.3667366 C51.2603947,40.3791526 51.2767513,40.3914122 51.2929693,40.4038701 C51.319397,40.4237617 51.3453239,40.4445138 51.3707912,40.4657155 C51.3897657,40.4818256 51.4088143,40.4981244 51.4276383,40.5147114 C51.4478848,40.5323406 51.4675092,40.5502232 51.4868283,40.5683798 C51.495225,40.5763876 51.5037317,40.5844721 51.512187,40.5926182 L51.5779578,40.658389 L51.5779578,40.658389 Z" fill="#00B077"></path>
    </g>
</svg>