<?xml version="1.0" encoding="UTF-8"?>
<svg width="100px" height="100px" viewBox="0 0 100 100" version="1.1" xmlns="http://www.w3.org/2000/svg" xmlns:xlink="http://www.w3.org/1999/xlink">
    <!-- Generator: Sketch 63.1 (92452) - https://sketch.com -->
    <title>Umbrella</title>
    <desc>Created with Sketch.</desc>
    <g id="Umbrella" stroke="none" stroke-width="1" fill="none" fill-rule="evenodd">
        <path d="M50.837681,47.935133 C52.2157377,47.935133 53.3429087,49.0093019 53.4275757,50.3660211 L53.432681,50.530133 L53.432681,72.544383 C53.432681,73.9775619 52.2708599,75.139383 50.837681,75.139383 C49.4596243,75.139383 48.3324533,74.0652141 48.2477863,72.7084949 L48.242681,72.544383 L48.242681,50.530133 C48.242681,49.0969541 49.4045021,47.935133 50.837681,47.935133 Z M68.17626,87.432763 C70.873623,87.432763 72.9559819,88.1172676 75.8601992,89.654244 L77.3198039,90.4486941 C82.7693767,93.4383042 85.9178269,93.8255445 92.6944015,90.8228668 C94.0047116,90.2422728 95.5375922,90.8338245 96.1181862,92.1441345 C96.6987802,93.4544446 96.1072285,94.9873252 94.7969185,95.5679192 C86.5279837,99.2318568 81.7526479,98.7266416 75.1775439,95.1912399 L73.7899925,94.4328972 C71.3662979,93.1203676 69.9377699,92.622763 68.17626,92.622763 C65.3265227,92.622763 63.5419107,93.1780634 60.6490248,94.7147685 L59.3070707,95.4411035 C56.1569583,97.1379587 53.9910637,97.866393 50.91778,97.866393 C47.9781551,97.866393 45.8705452,97.2019313 42.9410366,95.6622772 L41.5851151,94.930117 C38.4522231,93.2291236 36.6398431,92.622763 33.66103,92.622763 C31.9868635,92.622763 30.5988256,93.06389 28.3983576,94.1976373 L26.9266846,94.9794522 C20.135668,98.6153286 15.3189623,99.2061473 6.90874788,95.5955003 C5.59180431,95.0301142 4.98254661,93.5041845 5.54793272,92.1872409 C6.11331884,90.8702973 7.63924855,90.2610396 8.95619212,90.8264257 C15.6211213,93.6877924 18.8407051,93.366455 24.1493163,90.5777755 L25.6226996,89.7918666 C28.7138525,88.1614349 30.8683978,87.432763 33.66103,87.432763 C37.5132206,87.432763 40.0370968,88.2275963 43.6256477,90.1348132 L44.9795634,90.8679011 C47.4455635,92.1972931 48.8688791,92.676393 50.91778,92.676393 C52.8638598,92.676393 54.2473204,92.2422741 56.5010125,91.0555409 L57.7722432,90.3687137 C61.5981468,88.2927535 64.1700791,87.432763 68.17626,87.432763 Z M68.17626,74.233036 C70.8736594,74.233036 72.9561206,74.9175883 75.8602594,76.4545962 L77.3203585,77.2493622 C82.7697412,80.2390481 85.9183331,80.6265174 92.6946374,77.6247653 C94.0050051,77.0443015 95.5378269,77.6360056 96.1182907,78.9463734 C96.6987545,80.2567411 96.1070504,81.7895629 94.7966826,82.3700267 C86.5280566,86.0328442 81.7527598,85.5273024 75.177966,81.9918472 L73.7899442,81.2332013 C71.3663667,79.9206688 69.9377842,79.423036 68.17626,79.423036 C65.3266732,79.423036 63.542148,79.9784928 60.649331,81.5156691 L59.3073854,82.2422392 C56.1572019,83.9396925 53.9912216,84.668396 50.91778,84.668396 C47.9780043,84.668396 45.8703094,84.0036887 42.9407317,82.463491 L41.5847996,81.7310837 C38.4519779,80.0295672 36.6396857,79.423036 33.66103,79.423036 C31.987026,79.423036 30.5990622,79.864305 28.3987027,80.99843 L26.9268849,81.7806237 C20.1358261,85.4179269 15.3188506,86.0090998 6.90850911,82.3974008 C5.59162216,81.8318828 4.98251726,80.3058921 5.54803525,78.9890051 C6.11355323,77.6721182 7.63954394,77.0630133 8.95643089,77.6285312 C15.4850316,80.432144 18.7075581,80.1808469 23.8263535,77.5471059 L25.6223371,76.5931034 C28.7135395,74.9620215 30.8682097,74.233036 33.66103,74.233036 C37.5133719,74.233036 40.0373351,75.0281587 43.625955,76.9360409 L44.9798782,77.6693746 C47.4458072,78.9991669 48.8690371,79.478396 50.91778,79.478396 C52.8637095,79.478396 54.2470851,79.04416 56.5007081,77.8570709 L57.7719278,77.1700229 C61.5979017,75.0933396 64.1699218,74.233036 68.17626,74.233036 Z M50.837681,0.405 C52.2157377,0.405 53.3429087,1.47916889 53.4275757,2.83588812 L53.432681,3 L53.4321733,6.82047769 C58.3265596,7.63147138 66.5569347,10.2587001 74.2904314,13.4991547 L74.2904314,13.4991547 L75.2715006,13.9147019 C87.4110421,19.1125819 94.755115,24.0059642 94.755115,28.947172 C94.755115,38.5122967 75.1170938,44.823382 50.837335,44.823382 C26.5583324,44.823382 6.923015,38.5124356 6.923015,28.947172 C6.923015,24.1413926 13.8700369,19.3810154 25.4198783,14.3412761 L25.4198783,14.3412761 L26.4068258,13.9147104 C34.4163762,10.4851214 43.1427037,7.66603785 48.2432561,6.82053802 L48.242681,3 C48.242681,1.56682107 49.4045021,0.405 50.837681,0.405 Z M50.837,17.447 L50.6573586,17.7414442 C49.7069904,19.3177265 48.5661593,21.5924118 47.3983595,24.2453746 C45.2444461,29.1385525 43.2793714,34.6453866 42.0459395,39.3269946 C44.8948408,39.5281658 47.8390583,39.633382 50.837335,39.633382 C53.8370391,39.633382 56.7826913,39.5280656 59.6317499,39.3252943 C58.3987444,34.6440127 56.4331852,29.1373757 54.2793124,24.2456111 C53.1111166,21.5924652 51.9699838,19.3179669 51.0192907,17.7419383 L50.837,17.447 Z M45.8515792,15.5779754 L45.6920254,15.6593989 C43.10932,16.9840433 39.9662939,18.9417274 36.850559,21.2802875 C30.8218745,25.8052042 25.7202277,31.011606 22.6853233,35.9545052 C26.7173115,37.2264625 31.5319251,38.2046593 36.8145129,38.8315749 C38.0466701,33.9224497 40.0655947,28.1365207 42.3166351,22.9155231 L42.648202,22.1544169 C43.8290354,19.4718449 44.8718229,17.2809141 45.8515792,15.5779754 Z M55.8235157,15.5774032 L55.8599657,15.6391188 C56.8299644,17.3332758 57.862298,19.5038331 59.0292616,22.1541804 C61.4128255,27.5676075 63.571387,33.681397 64.864923,38.8323012 C70.2646606,38.1901183 75.1765522,37.1818574 79.2630707,35.86857 L78.9925486,35.9535821 C75.9575221,31.011133 70.8556578,25.8051746 64.826504,21.2803631 C61.6455648,18.8931044 58.4360889,16.9026545 55.8235157,15.5774032 Z M35.2292314,15.9979283 L34.8311376,16.1446432 C32.7096104,16.9302557 30.5484358,17.787092 28.4497192,18.6857361 L28.4497192,18.6857361 L27.8165066,18.9588953 C23.2018251,20.9645474 19.2297413,23.0216729 16.3820125,24.9190783 C13.5542679,26.8031684 12.113015,28.395693 12.113015,28.947172 C12.113015,30.4501125 14.0607916,32.3254851 17.7754092,34.0722478 C21.4850264,27.7468193 28.4043406,20.9685915 35.2292314,15.9979283 Z M66.4475565,15.9974188 L66.5748695,16.090782 C73.3590836,21.0529324 80.2164919,27.7864202 83.9023813,34.0725369 C87.6173139,32.3250278 89.565115,30.4498381 89.565115,28.947172 C89.565115,28.3956471 88.1239277,26.8031324 85.2962822,24.919062 C82.3191343,22.9353776 78.1130684,20.7771446 73.2286469,18.6857446 C70.9979529,17.7306114 68.6967469,16.8227372 66.4475565,15.9974188 Z" fill="#00B077"></path>
    </g>
</svg>