<?xml version="1.0" encoding="UTF-8"?>
<svg width="100px" height="100px" viewBox="0 0 100 100" version="1.1" xmlns="http://www.w3.org/2000/svg" xmlns:xlink="http://www.w3.org/1999/xlink">
    <!-- Generator: Sketch 63.1 (92452) - https://sketch.com -->
    <title>AI</title>
    <desc>Created with Sketch.</desc>
    <g id="AI" stroke="none" stroke-width="1" fill="none" fill-rule="evenodd">
        <path d="M39.804,10.268 L17.189,33.083 L39.804,33.083 L39.804,10.268 Z M60.883956,56.822748 C62.254047,56.822748 63.3747026,57.8907078 63.4588802,59.2395847 L63.463956,59.402748 L63.463956,74.882748 C63.463956,76.3076427 62.3088507,77.462748 60.883956,77.462748 C59.513865,77.462748 58.3932094,76.3947882 58.3090318,75.0459113 L58.303956,74.882748 L58.303956,59.402748 C58.303956,57.9778533 59.4590613,56.822748 60.883956,56.822748 Z M82.8702,1.42 C84.240291,1.42 85.3609466,2.48795982 85.4451242,3.83683674 L85.4502,4 L85.4498334,46.768 L88.029168,46.768144 C89.399259,46.768144 90.5199146,47.8361038 90.6040922,49.1849807 L90.609168,49.348144 L90.609168,84.933224 C90.609168,86.303315 89.5412082,87.4239706 88.1923313,87.5081482 L88.029168,87.513224 L13.5808334,87.513 L13.581,94.3 L80.289,94.3 L80.289512,93.29896 C80.289512,91.928869 81.3574718,90.8082134 82.7063487,90.7240358 L82.869512,90.71896 C84.239603,90.71896 85.3602586,91.7869198 85.4444362,93.1357967 L85.449512,93.29896 L85.449512,96.88 C85.449512,98.250091 84.3815522,99.3707466 83.0326753,99.4549242 L82.869512,99.46 L11.001032,99.46 C9.63094099,99.46 8.51028535,98.3920402 8.42610784,97.0431633 L8.421032,96.88 L8.42089769,84.9664602 C8.42075804,84.9553981 8.420688,84.9443192 8.420688,84.933224 L8.42083337,84.905 L8.42083337,49.381 L8.420688,49.348144 L8.42083337,49.32 L8.421032,44.68316 C8.421032,43.2582653 9.57613735,42.10316 11.001032,42.10316 C12.371123,42.10316 13.4917786,43.1711198 13.5759562,44.5199967 L13.581032,44.68316 L13.5808334,46.768 L80.2898334,46.768 L80.29,6.58 L44.964,6.58 L44.96484,35.66348 C44.96484,37.033571 43.8968802,38.1542266 42.5480033,38.2384042 L42.38484,38.24348 L11,38.24348 C8.76028556,38.24348 7.60764784,35.6030321 9.0594685,33.9626454 L9.16761981,33.8472248 L40.556,2.179 L40.6867701,2.05744402 L40.8276138,1.94254226 L40.9108305,1.88224998 L41.0388424,1.79850251 L41.1264315,1.74694684 L41.3099079,1.65390699 L41.465,1.588 L41.599014,1.54185884 L41.7753011,1.49266471 L41.9037429,1.46477585 L42.1154743,1.43402168 L42.2873345,1.42183422 L82.8702,1.42 Z M85.449,51.928 L13.5808334,51.928 L13.5808334,82.353 L85.449,82.353 L85.449,51.928 Z M47.5577659,58.1524477 L47.6414776,58.31871 L53.6623331,71.3426975 C53.6727067,71.3642772 53.6827889,71.3860236 53.6925747,71.4079314 L54.7966776,73.79871 C55.3945203,75.0921197 54.8306518,76.6252828 53.537242,77.2231256 C52.2955687,77.7970546 50.8329386,77.3003505 50.1889819,76.1153698 L50.1128264,75.96369 L49.6848334,75.039 L40.9148334,75.039 L40.4880967,75.9634756 C39.9142813,77.2052015 38.4784132,77.7746611 37.2200872,77.2894029 L37.0637964,77.2232247 C35.8220705,76.6494093 35.2526109,75.2135412 35.7378691,73.9552152 L35.8040473,73.7989244 L42.9575273,58.3189244 C43.853936,56.3791125 46.5579008,56.3235667 47.5577659,58.1524477 Z M45.299,65.551 L43.2988334,69.879 L47.2998334,69.879 L45.299,65.551 Z" fill="#00B077"></path>
    </g>
</svg>