<?xml version="1.0" encoding="UTF-8"?>
<svg width="100px" height="100px" viewBox="0 0 100 100" version="1.1" xmlns="http://www.w3.org/2000/svg" xmlns:xlink="http://www.w3.org/1999/xlink">
    <!-- Generator: Sketch 63.1 (92452) - https://sketch.com -->
    <title>GIF</title>
    <desc>Created with Sketch.</desc>
    <g id="GIF" stroke="none" stroke-width="1" fill="none" fill-rule="evenodd">
        <path d="M39.804,10.268 L17.189,33.083 L39.804,33.083 L39.804,10.268 Z M82.8702,1.42 C84.240291,1.42 85.3609466,2.48795982 85.4451242,3.83683674 L85.4502,4 L85.4498334,46.769 L88.029168,46.769004 C89.399259,46.769004 90.5199146,47.8369638 90.6040922,49.1858407 L90.609168,49.349004 L90.609168,84.934084 C90.609168,86.304175 89.5412082,87.4248306 88.1923313,87.5090082 L88.029168,87.514084 L13.5808334,87.514 L13.581,94.3 L80.289,94.3 L80.289512,93.299648 C80.289512,91.929557 81.3574718,90.8089014 82.7063487,90.7247238 L82.869512,90.719648 C84.239603,90.719648 85.3602586,91.7876078 85.4444362,93.1364847 L85.449512,93.299648 L85.449512,96.880688 C85.449512,98.250779 84.3815522,99.3714346 83.0326753,99.4556122 L82.869512,99.460688 L11.001032,99.460688 C9.63094099,99.460688 8.51028535,98.3927282 8.42610784,97.0438513 L8.421032,96.880688 L8.42089769,84.9673202 C8.42075804,84.9562581 8.420688,84.9451792 8.420688,84.934084 L8.42083337,84.906 L8.42083337,49.382 L8.420688,49.349004 L8.42083337,49.321 L8.421032,44.683848 C8.421032,43.2589533 9.57613735,42.103848 11.001032,42.103848 C12.371123,42.103848 13.4917786,43.1718078 13.5759562,44.5206847 L13.581032,44.683848 L13.5808334,46.769 L80.2898334,46.769 L80.29,6.58 L44.964,6.58 L44.96484,35.66348 C44.96484,37.033571 43.8968802,38.1542266 42.5480033,38.2384042 L42.38484,38.24348 L11,38.24348 C8.76028556,38.24348 7.60764784,35.6030321 9.0594685,33.9626454 L9.16761981,33.8472248 L40.556,2.179 L40.6867701,2.05744402 L40.8276138,1.94254226 L40.9108305,1.88224998 L41.0388424,1.79850251 L41.1264315,1.74694684 L41.3099079,1.65390699 L41.465,1.588 L41.599014,1.54185884 L41.7753011,1.49266471 L41.9037429,1.46477585 L42.1154743,1.43402168 L42.2873345,1.42183422 L82.8702,1.42 Z M85.449,51.929 L82.9014247,51.9293349 C82.8910311,51.9294582 82.8806228,51.92952 82.8702,51.92952 L82.8368334,51.928 L13.5808334,51.929 L13.5808334,82.354 L85.449,82.354 L85.449,51.929 Z M71.235088,56.822748 C72.6599827,56.822748 73.815088,57.9778533 73.815088,59.402748 C73.815088,60.772839 72.7471282,61.8934946 71.3982513,61.9776722 L71.235088,61.982748 L63.304,61.982 L63.3038334,65.959 L67.794572,65.959388 C69.2194667,65.959388 70.374572,67.1144933 70.374572,68.539388 C70.374572,69.909479 69.3066122,71.0301346 67.9577353,71.1143122 L67.794572,71.119388 L63.3038334,71.119 L63.304168,74.882748 C63.304168,76.252839 62.2362082,77.3734946 60.8873313,77.4576722 L60.724168,77.462748 C59.354077,77.462748 58.2334214,76.3947882 58.1492438,75.0459113 L58.144168,74.882748 L58.1438617,68.5726242 C58.143722,68.5615621 58.143652,68.5504832 58.143652,68.539388 L58.1438334,68.511 L58.144168,59.402748 C58.144168,58.032657 59.2121278,56.9120014 60.5610047,56.8278238 L60.724168,56.822748 L71.235088,56.822748 Z M50.83778,56.822748 C52.207871,56.822748 53.3285266,57.8907078 53.4127042,59.2395847 L53.41778,59.402748 L53.41778,74.882748 C53.41778,76.3076427 52.2626747,77.462748 50.83778,77.462748 C49.467689,77.462748 48.3470334,76.3947882 48.2628558,75.0459113 L48.25778,74.882748 L48.25778,59.402748 C48.25778,57.9778533 49.4128853,56.822748 50.83778,56.822748 Z M40.252384,56.822748 C41.6772787,56.822748 42.832384,57.9778533 42.832384,59.402748 C42.832384,60.772839 41.7644242,61.8934946 40.4155473,61.9776722 L40.252384,61.982748 L35.551624,61.982748 C32.1790562,61.982748 30.374424,63.5947571 30.374424,67.142748 C30.374424,70.6891749 32.1791909,72.301028 35.551624,72.301028 C37.1626014,72.301028 38.4240463,71.9013474 39.2783009,71.1615096 L39.361,71.084 L39.361,69.535 L36.181144,69.535268 C34.811053,69.535268 33.6903974,68.4673082 33.6062198,67.1184313 L33.601144,66.955268 C33.601144,65.585177 34.6691038,64.4645214 36.0179807,64.3803438 L36.181144,64.375268 L41.941424,64.375268 C43.311515,64.375268 44.4321706,65.4432278 44.5163482,66.7921047 L44.521424,66.955268 L44.521424,72.043028 C44.521424,72.5806131 44.3534976,73.1047713 44.0411052,73.5422741 C42.1717558,76.1602818 39.1150023,77.461028 35.551624,77.461028 C29.4512249,77.461028 25.214424,73.6771041 25.214424,67.142748 C25.214424,60.7159763 29.3108798,56.9496556 35.2481533,56.8258968 L35.551624,56.822748 L40.252384,56.822748 Z" fill="#00B077"></path>
    </g>
</svg>