<?xml version="1.0" encoding="UTF-8"?>
<svg width="100px" height="100px" viewBox="0 0 100 100" version="1.1" xmlns="http://www.w3.org/2000/svg" xmlns:xlink="http://www.w3.org/1999/xlink">
    <!-- Generator: Sketch 63.1 (92452) - https://sketch.com -->
    <title>INDD</title>
    <desc>Created with Sketch.</desc>
    <g id="INDD" stroke="none" stroke-width="1" fill="none" fill-rule="evenodd">
        <path d="M40.352,10.267 L17.738,33.083 L40.352,33.083 L40.352,10.267 Z M53.24234,56.82292 L48.99222,56.82292 C47.5673253,56.82292 46.41222,57.9780253 46.41222,59.40292 L46.41222,74.88292 C46.41222,76.3082224 47.5679618,77.4634966 48.9932641,77.46292 L53.2433841,77.4611998 C59.270308,77.4612 63.44882,73.665984 63.44882,67.14292 C63.44882,60.617276 59.2712549,56.82292 53.24234,56.82292 Z M51.572,72.301 L51.572,61.982 L53.24234,61.98292 C56.5263227,61.98292 58.28882,63.583743 58.28882,67.14292 C58.28882,70.699517 56.5253758,72.3012 53.24234,72.3012 L51.572,72.301 Z M72.872872,56.82292 L68.622752,56.82292 C67.1978573,56.82292 66.042752,57.9780253 66.042752,59.40292 L66.042752,74.88292 C66.042752,76.3082224 67.1984938,77.4634966 68.6237961,77.46292 L72.8739161,77.4611998 C78.90084,77.4612 83.079352,73.665984 83.079352,67.14292 C83.079352,60.617276 78.9017869,56.82292 72.872872,56.82292 Z M71.202,72.301 L71.202,61.982 L72.872872,61.98292 C76.1568547,61.98292 77.919352,63.583743 77.919352,67.14292 C77.919352,70.699517 76.1559078,72.3012 72.872872,72.3012 L71.202,72.301 Z M19.626832,56.822748 C20.996923,56.822748 22.1175786,57.8907078 22.2017562,59.2395847 L22.206832,59.402748 L22.206832,74.882748 C22.206832,76.3076427 21.0517267,77.462748 19.626832,77.462748 C18.256741,77.462748 17.1360854,76.3947882 17.0519078,75.0459113 L17.046832,74.882748 L17.046832,59.402748 C17.046832,57.9778533 18.2019373,56.822748 19.626832,56.822748 Z M83.416128,1.42 C84.786219,1.42 85.9068746,2.48795982 85.9910522,3.83683674 L85.996128,4 L85.9952014,46.768 L88.575956,46.768144 C89.946047,46.768144 91.0667026,47.8361038 91.1508802,49.1849807 L91.155956,49.348144 L91.155956,84.933224 C91.155956,86.303315 90.0879962,87.4239706 88.7391193,87.5081482 L88.575956,87.513224 L14.1282014,87.513 L14.129,94.3 L80.836,94.3 L80.8363,93.29896 C80.8363,91.928869 81.9042598,90.8082134 83.2531367,90.7240358 L83.4163,90.71896 C84.786391,90.71896 85.9070466,91.7869198 85.9912242,93.1357967 L85.9963,93.29896 L85.9963,96.88 C85.9963,98.250091 84.9283402,99.3707466 83.5794633,99.4549242 L83.4163,99.46 L11.54954,99.46 C10.179449,99.46 9.05879335,98.3920402 8.97461584,97.0431633 L8.96954,96.88 L8.96933642,84.9604246 C8.96924288,84.9513689 8.969196,84.9423019 8.969196,84.933224 L8.96920141,84.905 L8.96920141,49.375 L8.969196,49.348144 L8.96920141,49.32 L8.96954,44.68316 C8.96954,43.2582653 10.1246453,42.10316 11.54954,42.10316 C12.919631,42.10316 14.0402866,43.1711198 14.1244642,44.5199967 L14.12954,44.68316 L14.1292014,46.768 L80.8352014,46.768 L80.836,6.58 L45.512,6.58 L45.512488,35.66348 C45.512488,37.033571 44.4445282,38.1542266 43.0956513,38.2384042 L42.932488,38.24348 L11.549368,38.24348 C9.30968681,38.24348 8.15703534,35.6030991 9.60879143,33.9626969 L9.71693804,33.847275 L41.104,2.179 L41.2343649,2.05749055 L41.3752054,1.94258494 L41.5219622,1.83908094 L41.6740178,1.74698132 L41.8575559,1.65390699 C41.9510522,1.61099872 42.0475552,1.57351501 42.146662,1.54185884 L42.3228804,1.49268142 L42.492169,1.45764482 L42.6630519,1.43402906 L42.8349118,1.42183689 L83.416128,1.42 Z M85.995,51.928 L14.1292014,51.928 L14.1282014,82.353 L85.995,82.353 L85.995,51.928 Z M30.0054471,57.6471559 L30.1123561,57.7706756 L38.177,67.644 L38.177892,59.402748 C38.177892,58.032657 39.2458518,56.9120014 40.5947287,56.8278238 L40.757892,56.822748 C42.127983,56.822748 43.2486386,57.8907078 43.3328162,59.2395847 L43.337892,59.402748 L43.337892,74.882748 C43.337892,77.2533452 40.4309675,78.3435091 38.8666169,76.6383401 L38.7597079,76.5148204 L30.694,66.64 L30.694172,74.882748 C30.694172,76.252839 29.6262122,77.3734946 28.2773353,77.4576722 L28.114172,77.462748 C26.744081,77.462748 25.6234254,76.3947882 25.5392478,75.0459113 L25.534172,74.882748 L25.534172,59.402748 C25.534172,57.0321508 28.4410965,55.9419869 30.0054471,57.6471559 Z" fill="#00B077"></path>
    </g>
</svg>