<?xml version="1.0" encoding="UTF-8"?>
<svg width="100px" height="100px" viewBox="0 0 100 100" version="1.1" xmlns="http://www.w3.org/2000/svg" xmlns:xlink="http://www.w3.org/1999/xlink">
    <!-- Generator: Sketch 63.1 (92452) - https://sketch.com -->
    <title>JPG</title>
    <desc>Created with Sketch.</desc>
    <g id="JPG" stroke="none" stroke-width="1" fill="none" fill-rule="evenodd">
        <path d="M40.259,9.572 L17.643,32.388 L40.259,32.388 L40.259,9.572 Z M34.763528,55.532756 C36.4566304,55.532756 37.8402153,56.857958 37.9336217,58.5277012 L37.938648,58.707876 L37.938648,66.447876 C37.938648,73.2438131 33.8098889,77.361276 27.816448,77.361276 C24.3812451,77.361276 21.777761,75.8519208 20.1431257,73.4242609 C19.5911601,72.6045154 19.1927856,71.7441434 18.9148871,70.8832905 C18.7421451,70.3481836 18.6427758,69.9019195 18.5951399,69.5790906 C18.339159,67.8443045 19.5379674,66.2304689 21.2727534,65.9744879 C22.9477193,65.7273339 24.5099322,66.8363687 24.8460823,68.4745904 L24.8773561,68.6521014 C24.9076839,68.8576335 25.0769783,69.3820608 25.4105703,69.8774911 C25.90981,70.6189312 26.5861509,71.011036 27.816448,71.011036 C30.237465,71.011036 31.5162661,69.8028002 31.5854425,66.716988 L31.588408,66.447876 L31.588408,58.707876 C31.588408,56.9543056 33.0099576,55.532756 34.763528,55.532756 Z M74.910564,56.127876 C76.3354587,56.127876 77.490564,57.2829813 77.490564,58.707876 C77.490564,60.077967 76.4226042,61.1986226 75.0737273,61.2828002 L74.910564,61.287876 L70.209804,61.287876 C66.8372362,61.287876 65.032604,62.8998851 65.032604,66.447876 C65.032604,69.9943029 66.8373709,71.606156 70.209804,71.606156 C71.8207814,71.606156 73.0822263,71.2064754 73.9364809,70.4666376 L74.019,70.389 L74.019,68.84 L70.839324,68.840396 C69.469233,68.840396 68.3485774,67.7724362 68.2643998,66.4235593 L68.259324,66.260396 C68.259324,64.890305 69.3272838,63.7696494 70.6761607,63.6854718 L70.839324,63.680396 L76.599604,63.680396 C77.969695,63.680396 79.0903506,64.7483558 79.1745282,66.0972327 L79.179604,66.260396 L79.179604,71.348156 C79.179604,71.8857411 79.0116776,72.4098993 78.6992852,72.8474021 C76.8299358,75.4654098 73.7731823,76.766156 70.209804,76.766156 C64.1094049,76.766156 59.872604,72.9822321 59.872604,66.447876 C59.872604,60.0211043 63.9690598,56.2547836 69.9063333,56.1310248 L70.209804,56.127876 L74.910564,56.127876 Z M46.25,65.264 L49.833652,65.264516 C51.3410714,65.264516 52.1346828,64.4331061 52.1447816,63.2540978 C52.1543359,62.1386591 51.4601899,61.3581403 50.0328383,61.2923777 L49.833652,61.287876 L46.25,61.287 L46.25,65.264 Z M83.324804,0.725128 C84.694895,0.725128 85.8155506,1.79308782 85.8997282,3.14196474 L85.904804,3.305128 L85.9044374,46.074128 L88.483772,46.074132 C89.853863,46.074132 90.9745186,47.1420918 91.0586962,48.4909687 L91.063772,48.654132 L91.063772,84.239212 C91.063772,85.609303 89.9958122,86.7299586 88.6469353,86.8141362 L88.483772,86.819212 L14.0344374,86.819128 L14.035,93.605 L80.744,93.605 L80.744116,92.604776 C80.744116,91.234685 81.8120758,90.1140294 83.1609527,90.0298518 L83.324116,90.024776 C84.694207,90.024776 85.8148626,91.0927358 85.8990402,92.4416127 L85.904116,92.604776 L85.904116,96.185816 C85.904116,97.555907 84.8361562,98.6765626 83.4872793,98.7607402 L83.324116,98.765816 L11.455636,98.765816 C10.085545,98.765816 8.96488935,97.6978562 8.88071184,96.3489793 L8.875636,96.185816 L8.87550169,84.2724482 C8.87536204,84.2613861 8.875292,84.2503072 8.875292,84.239212 L8.87543737,84.211128 L8.87543737,48.687128 L8.875292,48.654132 L8.87543737,48.626128 L8.875636,43.988976 C8.875636,42.5640813 10.0307413,41.408976 11.455636,41.408976 C12.825727,41.408976 13.9463826,42.4769358 14.0305602,43.8258127 L14.035636,43.988976 L14.0354374,46.074128 L80.7444374,46.074128 L80.744,5.885 L45.419,5.885 L45.419444,34.968608 C45.419444,36.338699 44.3514842,37.4593546 43.0026073,37.5435322 L42.839444,37.548608 L11.454604,37.548608 C9.21488956,37.548608 8.06225184,34.9081601 9.5140725,33.2677734 L9.62222381,33.1523528 L41.011,1.484 L41.1413741,1.36257202 L41.2822178,1.24767026 L41.4289774,1.14417029 L41.4934464,1.10363051 L41.626573,1.02741544 L41.76,0.961 C41.8565042,0.916781724 41.9540098,0.878861349 42.0534509,0.847059615 L42.2299051,0.797792714 L42.3991946,0.762760754 L42.5700783,0.739149679 L42.7419385,0.726962218 L83.324804,0.725128 Z M85.903,51.234 L83.3560287,51.2344629 C83.3456351,51.2345862 83.3352268,51.234648 83.324804,51.234648 L83.2914374,51.233128 L14.0354374,51.234128 L14.0344374,81.659128 L85.903,81.659 L85.903,51.234 Z M49.833652,56.127876 C54.3148205,56.127876 57.3387125,59.3148568 57.3045924,63.2982942 C57.2714352,67.1693045 54.3590209,70.297158 50.0963086,70.4207238 L49.833652,70.424516 L46.25,70.424 L46.250892,74.187876 C46.250892,75.557967 45.1829322,76.6786226 43.8340553,76.7628002 L43.670892,76.767876 C42.300801,76.767876 41.1801454,75.6999162 41.0959678,74.3510393 L41.090892,74.187876 L41.090892,58.707876 C41.090892,57.337785 42.1588518,56.2171294 43.5077287,56.1329518 L43.670892,56.127876 L49.833652,56.127876 Z" fill="#00B077"></path>
    </g>
</svg>