<?xml version="1.0" encoding="UTF-8"?>
<svg width="100px" height="100px" viewBox="0 0 100 100" version="1.1" xmlns="http://www.w3.org/2000/svg" xmlns:xlink="http://www.w3.org/1999/xlink">
    <!-- Generator: Sketch 63.1 (92452) - https://sketch.com -->
    <title>PNG</title>
    <desc>Created with Sketch.</desc>
    <g id="PNG" stroke="none" stroke-width="1" fill="none" fill-rule="evenodd">
        <path d="M39.804,9.268 L17.189,32.083 L39.804,32.083 L39.804,9.268 Z M75.044716,55.822748 C76.4696107,55.822748 77.624716,56.9778533 77.624716,58.402748 C77.624716,59.772839 76.5567562,60.8934946 75.2078793,60.9776722 L75.044716,60.982748 L70.343956,60.982748 C66.9713882,60.982748 65.166756,62.5947571 65.166756,66.142748 C65.166756,69.6891749 66.9715229,71.301028 70.343956,71.301028 C71.9549334,71.301028 73.2163783,70.9013474 74.0706329,70.1615096 L74.153,70.085 L74.153,68.535 L70.973476,68.535268 C69.603385,68.535268 68.4827294,67.4673082 68.3985518,66.1184313 L68.393476,65.955268 C68.393476,64.585177 69.4614358,63.4645214 70.8103127,63.3803438 L70.973476,63.375268 L76.733756,63.375268 C78.103847,63.375268 79.2245026,64.4432278 79.3086802,65.7921047 L79.313756,65.955268 L79.313756,71.043028 C79.313756,71.5806131 79.1458296,72.1047713 78.8334372,72.5422741 C76.9640878,75.1602818 73.9073343,76.461028 70.343956,76.461028 C64.2435569,76.461028 60.006756,72.6771041 60.006756,66.142748 C60.006756,59.7159763 64.1032118,55.9496556 70.0404853,55.8258968 L70.343956,55.822748 L75.044716,55.822748 Z M28.459376,55.822748 C32.9405445,55.822748 35.9644365,59.0097288 35.9303164,62.9931662 C35.8971592,66.8641765 32.9847449,69.99203 28.7220326,70.1155958 L28.459376,70.119388 L24.876,70.119 L24.876616,73.882748 C24.876616,75.252839 23.8086562,76.3734946 22.4597793,76.4576722 L22.296616,76.462748 C20.926525,76.462748 19.8058694,75.3947882 19.7216918,74.0459113 L19.716616,73.882748 L19.716616,58.402748 C19.716616,57.032657 20.7845758,55.9120014 22.1334527,55.8278238 L22.296616,55.822748 L28.459376,55.822748 Z M38.916288,58.402748 C38.916288,56.0321508 41.8232125,54.9419869 43.3875631,56.6471559 L43.4944721,56.7706756 L51.56,66.645 L51.560008,58.402748 C51.560008,57.032657 52.6279678,55.9120014 53.9768447,55.8278238 L54.140008,55.822748 C55.510099,55.822748 56.6307546,56.8907078 56.7149322,58.2395847 L56.720008,58.402748 L56.720008,73.882748 C56.720008,76.2533452 53.8130835,77.3435091 52.2487329,75.6383401 L52.1418239,75.5148204 L44.076,65.639 L44.076288,73.882748 C44.076288,75.252839 43.0083282,76.3734946 41.6594513,76.4576722 L41.496288,76.462748 C40.126197,76.462748 39.0055414,75.3947882 38.9213638,74.0459113 L38.916288,73.882748 L38.916288,58.402748 Z M82.8702,0.42 C84.240291,0.42 85.3609466,1.48795982 85.4451242,2.83683674 L85.4502,3 L85.4498334,45.769 L88.029168,45.769004 C89.399259,45.769004 90.5199146,46.8369638 90.6040922,48.1858407 L90.609168,48.349004 L90.609168,83.934084 C90.609168,85.304175 89.5412082,86.4248306 88.1923313,86.5090082 L88.029168,86.514084 L13.5808334,86.514 L13.581,93.3 L80.289,93.3 L80.289512,92.299648 C80.289512,90.929557 81.3574718,89.8089014 82.7063487,89.7247238 L82.869512,89.719648 C84.239603,89.719648 85.3602586,90.7876078 85.4444362,92.1364847 L85.449512,92.299648 L85.449512,95.880688 C85.449512,97.250779 84.3815522,98.3714346 83.0326753,98.4556122 L82.869512,98.460688 L11.001032,98.460688 C9.63094099,98.460688 8.51028535,97.3927282 8.42610784,96.0438513 L8.421032,95.880688 L8.42089769,83.9673202 C8.42075804,83.9562581 8.420688,83.9451792 8.420688,83.934084 L8.42083337,83.906 L8.42083337,48.382 L8.420688,48.349004 L8.42083337,48.321 L8.421032,43.683848 C8.421032,42.2589533 9.57613735,41.103848 11.001032,41.103848 C12.371123,41.103848 13.4917786,42.1718078 13.5759562,43.5206847 L13.581032,43.683848 L13.5808334,45.769 L80.2898334,45.769 L80.29,5.58 L44.964,5.58 L44.96484,34.66348 C44.96484,36.033571 43.8968802,37.1542266 42.5480033,37.2384042 L42.38484,37.24348 L11,37.24348 C8.76028556,37.24348 7.60764784,34.6030321 9.0594685,32.9626454 L9.16761981,32.8472248 L40.556,1.179 L40.6867701,1.05744402 L40.8276138,0.942542265 L40.9108305,0.882249981 L41.0388424,0.798502514 L41.1264315,0.746946836 L41.3099079,0.653906988 L41.465,0.588 L41.599014,0.541858837 L41.7753011,0.492664714 L41.9037429,0.464775855 L42.1154743,0.434021679 L42.2873345,0.421834218 L82.8702,0.42 Z M85.449,50.929 L82.9014247,50.9293349 C82.8910311,50.9294582 82.8806228,50.92952 82.8702,50.92952 L82.8368334,50.928 L13.5808334,50.929 L13.5808334,81.354 L85.449,81.354 L85.449,50.929 Z M24.876,60.982 L28.459376,60.982748 L28.6585623,60.9872497 C30.0859139,61.0530123 30.7800599,61.8335311 30.7705056,62.9489698 C30.7604068,64.1279781 29.9667954,64.959388 28.459376,64.959388 L28.459376,64.959388 L24.876,64.959 L24.876,60.982 Z" fill="#00B077"></path>
    </g>
</svg>