<?xml version="1.0" encoding="UTF-8"?>
<svg width="100px" height="100px" viewBox="0 0 100 100" version="1.1" xmlns="http://www.w3.org/2000/svg" xmlns:xlink="http://www.w3.org/1999/xlink">
    <!-- Generator: Sketch 63.1 (92452) - https://sketch.com -->
    <title>RAW</title>
    <desc>Created with Sketch.</desc>
    <g id="RAW" stroke="none" stroke-width="1" fill="none" fill-rule="evenodd">
        <path d="M39.803,10.267 L17.189,33.083 L39.803,33.083 L39.803,10.267 Z M21.2087807,56.8278238 L21.371944,56.822748 L22.2547398,56.8264663 C25.0928181,56.8520106 26.9197945,57.0166082 28.7748712,57.5469024 C32.1406689,58.509053 34.3198717,60.650355 34.3646305,64.0495529 C34.4048232,67.3313717 32.4215496,69.3831883 28.8949207,70.4439297 L28.683,70.505 L32.0452273,72.7318827 C33.183622,73.4860136 33.529583,74.987706 32.8638407,76.1570427 L32.7712493,76.3075913 C32.0171184,77.445986 30.515426,77.791947 29.3460893,77.1262047 L29.1955407,77.0336133 L23.951,73.559 L23.951944,74.882748 C23.951944,76.252839 22.8839842,77.3734946 21.5351073,77.4576722 L21.371944,77.462748 C20.001853,77.462748 18.8811974,76.3947882 18.7970198,75.0459113 L18.791944,74.882748 L18.791,68.915 L18.7875094,68.8239933 L18.791,68.652 L18.791944,59.402748 C18.791944,58.032657 19.8599038,56.9120014 21.2087807,56.8278238 Z M23.951,62.045 L23.951,66.091 L24.0158066,66.0868475 C27.5431406,65.8268896 29.1291528,65.0348365 29.2024334,64.1859775 L29.2050476,64.115118 C29.189705,62.949953 27.6944412,62.2872328 24.3181932,62.0664449 L23.951,62.045 Z M75.1592259,58.7488583 C75.5203592,57.370487 76.9305063,56.5458526 78.3088777,56.9069859 C79.6321141,57.2536739 80.4450266,58.567133 80.1884348,59.8911497 L80.1507501,60.0566377 L76.0949901,75.5366377 C75.4702535,77.9211284 72.2103028,78.1342428 71.2443956,75.9384997 L71.177885,75.7735332 L67.904,66.876 L64.6325381,75.7732962 C63.7816969,78.0867617 60.5163609,77.9858316 59.7657754,75.7074877 L59.7154139,75.5368971 L55.6579339,60.0568971 C55.2966573,58.6785634 56.1211451,57.2683305 57.4994789,56.9070539 C58.8226793,56.5602284 60.1752779,57.3062033 60.6010031,58.5858977 L60.6493221,58.7485989 L62.624,66.284 L65.4828779,58.5121998 C66.2894914,56.3189908 69.3309794,56.2611269 70.2554214,58.3388213 L70.325651,58.5119628 L73.185,66.284 L75.1592259,58.7488583 Z M82.866932,1.42 C84.237023,1.42 85.3576786,2.48795982 85.4418562,3.83683674 L85.446932,4 L85.4460054,46.769 L88.02676,46.769004 C89.396851,46.769004 90.5175066,47.8369638 90.6016842,49.1858407 L90.60676,49.349004 L90.60676,84.934084 C90.60676,86.304175 89.5388002,87.4248306 88.1899233,87.5090082 L88.02676,87.514084 L13.5790054,87.514 L13.58,94.3 L80.287,94.3 L80.287104,93.299648 C80.287104,91.929557 81.3550638,90.8089014 82.7039407,90.7247238 L82.867104,90.719648 C84.237195,90.719648 85.3578506,91.7876078 85.4420282,93.1364847 L85.447104,93.299648 L85.447104,96.880688 C85.447104,98.250779 84.3791442,99.3714346 83.0302673,99.4556122 L82.867104,99.460688 L11.000344,99.460688 C9.63025299,99.460688 8.50959735,98.3927282 8.42541984,97.0438513 L8.420344,96.880688 L8.42014042,84.9612846 C8.42004688,84.9522289 8.42,84.9431619 8.42,84.934084 L8.42000541,84.906 L8.42000541,49.376 L8.42,49.349004 L8.42000541,49.321 L8.420344,44.683848 C8.420344,43.2589533 9.57544935,42.103848 11.000344,42.103848 C12.370435,42.103848 13.4910906,43.1718078 13.5752682,44.5206847 L13.580344,44.683848 L13.5800054,46.769 L80.2860054,46.769 L80.286,6.58 L44.963,6.58 L44.963292,35.66348 C44.963292,37.033571 43.8953322,38.1542266 42.5464553,38.2384042 L42.383292,38.24348 L11.000172,38.24348 C8.76049081,38.24348 7.60783934,35.6030991 9.05959543,33.9626969 L9.16774204,33.847275 L40.554,2.179 L40.6851689,2.05749055 L40.8260094,1.94258494 L40.9727662,1.83908094 L41.1248218,1.74698132 L41.3083599,1.65390699 C41.4018562,1.61099872 41.4983592,1.57351501 41.597466,1.54185884 L41.7736844,1.49268142 L41.942973,1.45764482 L42.1138559,1.43402906 L42.2857158,1.42183689 L82.866932,1.42 Z M85.446,51.929 L82.8989662,51.9293252 C82.8883036,51.9294549 82.8776254,51.92952 82.866932,51.92952 L82.8330054,51.928 L13.5800054,51.929 L13.5790054,82.354 L85.446,82.354 L85.446,51.929 Z M48.0760019,58.1539957 L48.1597136,58.320258 L54.165865,71.313301 C54.1876748,71.3571964 54.2082712,71.4018012 54.2276105,71.4470713 L55.3149136,73.800258 C55.9127563,75.0936677 55.3488878,76.6268308 54.055478,77.2246736 C52.8138047,77.7986026 51.3511746,77.3018985 50.7072179,76.1169178 L50.6310624,75.965238 L50.2030054,75.039 L41.4340054,75.039 L41.0063327,75.9650236 C40.4325173,77.2067495 38.9966492,77.7762091 37.7383232,77.2909509 L37.5820324,77.2247727 C36.3403065,76.6509573 35.7708469,75.2150892 36.2561051,73.9567632 L36.3222833,73.8004724 L43.4757633,58.3204724 C44.372172,56.3806605 47.0761368,56.3251147 48.0760019,58.1539957 Z M45.817,65.552 L43.8170054,69.879 L47.8170054,69.879 L45.817,65.552 Z" fill="#00B077"></path>
    </g>
</svg>