<?xml version="1.0" encoding="UTF-8"?>
<svg width="100px" height="100px" viewBox="0 0 100 100" version="1.1" xmlns="http://www.w3.org/2000/svg" xmlns:xlink="http://www.w3.org/1999/xlink">
    <!-- Generator: Sketch 63.1 (92452) - https://sketch.com -->
    <title>ZIP</title>
    <desc>Created with Sketch.</desc>
    <g id="ZIP" stroke="none" stroke-width="1" fill="none" fill-rule="evenodd">
        <path d="M40.259,10.402 L17.643,33.218 L40.259,33.218 L40.259,10.402 Z M66.582668,56.957604 C71.0638365,56.957604 74.0877285,60.1445848 74.0536084,64.1280222 C74.0204512,67.9990325 71.1080369,71.126886 66.8453246,71.2504518 L66.582668,71.254244 L62.999,71.254 L62.999908,75.017604 C62.999908,76.387695 61.9319482,77.5083506 60.5830713,77.5925282 L60.419908,77.597604 C59.049817,77.597604 57.9291614,76.5296442 57.8449838,75.1807673 L57.839908,75.017604 L57.839908,59.537604 C57.839908,58.167513 58.9078678,57.0468574 60.2567447,56.9626798 L60.419908,56.957604 L66.582668,56.957604 Z M62.999,66.094 L66.582668,66.094244 C68.0900874,66.094244 68.8836988,65.2628341 68.8937976,64.0838258 C68.9033519,62.9683871 68.2092059,62.1878683 66.7818543,62.1221057 L66.582668,62.117604 L62.999,62.117 L62.999,66.094 Z M40.910636,56.957604 C43.0227478,56.957604 44.2180257,59.342095 43.0183775,61.0261106 L42.9213482,61.1542166 L33.849,72.437 L40.910636,72.437604 C42.280727,72.437604 43.4013826,73.5055638 43.4855602,74.8544407 L43.490636,75.017604 C43.490636,76.387695 42.4226762,77.5083506 41.0737993,77.5925282 L40.910636,77.597604 L28.464716,77.597604 C26.3526042,77.597604 25.1573263,75.213113 26.3569745,73.5290974 L26.4540038,73.4009914 L35.525,62.117 L28.464716,62.117604 C27.094625,62.117604 25.9739694,61.0496442 25.8897918,59.7007673 L25.884716,59.537604 C25.884716,58.167513 26.9526758,57.0468574 28.3015527,56.9626798 L28.464716,56.957604 L40.910636,56.957604 Z M83.324804,1.554856 C84.694895,1.554856 85.8155506,2.62281582 85.8997282,3.97169274 L85.904804,4.134856 L85.9044374,46.902856 L88.483772,46.903 C89.853863,46.903 90.9745186,47.9709598 91.0586962,49.3198367 L91.063772,49.483 L91.063772,85.06808 C91.063772,86.438171 89.9958122,87.5588266 88.6469353,87.6430042 L88.483772,87.64808 L14.0344374,87.647856 L14.035,94.434 L80.744,94.434 L80.744116,93.433816 C80.744116,92.063725 81.8120758,90.9430694 83.1609527,90.8588918 L83.324116,90.853816 C84.694207,90.853816 85.8148626,91.9217758 85.8990402,93.2706527 L85.904116,93.433816 L85.904116,97.014856 C85.904116,98.384947 84.8361562,99.5056026 83.4872793,99.5897802 L83.324116,99.594856 L11.455636,99.594856 C10.085545,99.594856 8.96488935,98.5268962 8.88071184,97.1780193 L8.875636,97.014856 L8.87550169,85.1013162 C8.87536204,85.0902541 8.875292,85.0791752 8.875292,85.06808 L8.87543737,85.039856 L8.87543737,49.515856 L8.875292,49.483 L8.87543737,49.454856 L8.875636,44.818016 C8.875636,43.3931213 10.0307413,42.238016 11.455636,42.238016 C12.825727,42.238016 13.9463826,43.3059758 14.0305602,44.6548527 L14.035636,44.818016 L14.0354374,46.902856 L80.7444374,46.902856 L80.744,6.714 L45.419,6.714 L45.419444,35.798336 C45.419444,37.168427 44.3514842,38.2890826 43.0026073,38.3732602 L42.839444,38.378336 L11.454604,38.378336 C9.21488956,38.378336 8.06225184,35.7378881 9.5140725,34.0975014 L9.62222381,33.9820808 L41.011,2.314 L41.1254497,2.20642414 L41.2822178,2.07739826 L41.4289774,1.97389829 L41.5810355,1.88180284 L41.7645119,1.78876299 L41.906,1.728 L42.062827,1.67397083 L42.2299051,1.62752071 L42.424,1.588 L42.5158143,1.57495786 L42.6762807,1.55993184 L42.839444,1.554856 L83.324804,1.554856 Z M85.903,52.062 L14.0354374,52.062856 L14.0344374,82.487856 L85.903,82.488 L85.903,52.062 Z M50.099908,56.957604 C51.469999,56.957604 52.5906546,58.0255638 52.6748322,59.3744407 L52.679908,59.537604 L52.679908,75.017604 C52.679908,76.4424987 51.5248027,77.597604 50.099908,77.597604 C48.729817,77.597604 47.6091614,76.5296442 47.5249838,75.1807673 L47.519908,75.017604 L47.519908,59.537604 C47.519908,58.1127093 48.6750133,56.957604 50.099908,56.957604 Z" fill="#00B077"></path>
    </g>
</svg>