<?xml version="1.0" encoding="UTF-8"?>
<svg width="100px" height="100px" viewBox="0 0 100 100" version="1.1" xmlns="http://www.w3.org/2000/svg" xmlns:xlink="http://www.w3.org/1999/xlink">
    <!-- Generator: Sketch 63.1 (92452) - https://sketch.com -->
    <title>BrokenHeart</title>
    <desc>Created with Sketch.</desc>
    <g id="BrokenHeart" stroke="none" stroke-width="1" fill="none" fill-rule="evenodd">
        <path d="M93.5594268,25.6122791 C100.364578,32.9351363 101.523916,44.0470468 96.439225,55.6000591 C90.8964407,68.1939137 78.4660582,80.5625694 59.7991277,91.0772709 C58.5504202,91.7806424 56.9679476,91.3385602 56.2645761,90.0898527 C55.5612046,88.8411452 56.0032868,87.2586726 57.2519943,86.5553011 C75.0079206,76.5537497 86.6413632,64.9780764 91.688947,53.5093754 C95.9854916,43.7471234 95.0570053,34.8478575 89.7574524,29.1451377 C84.3302959,23.3040274 77.5886616,21.5756625 70.1732642,23.4557929 C63.6095767,25.1199773 56.9368646,29.6075582 52.226259,35.2577896 L45.876,44.891 L53.657687,44.89124 C55.5356251,44.89124 56.7724985,46.8140864 56.0444329,48.5054794 L55.9727953,48.6585449 L45.2485253,69.8372049 C44.6010792,71.1158039 43.0397111,71.6274544 41.7611121,70.9800083 C40.5336571,70.35846 40.0130218,68.8946413 40.5461538,67.6473077 L40.6183087,67.4925951 L49.434,50.081 L41.058097,50.08124 C39.0474112,50.08124 37.821605,47.9058857 38.8044605,46.1990758 L38.8915083,46.0579829 L46.8912982,33.922205 C42.2803525,28.9061113 36.1502658,24.9865526 30.1126612,23.4557973 C22.6970398,21.5756639 15.9554066,23.3040161 10.5282037,29.1451764 C4.96285992,35.13477 4.57649622,44.9008531 10.2161868,55.5655242 C16.8571039,68.1235174 30.9471505,80.5492105 51.6706817,90.8304872 C52.9545442,91.467432 53.4789747,93.0245541 52.8420298,94.3084167 C52.205085,95.5922792 50.6479629,96.1167097 49.3641003,95.4797648 C27.7320372,84.7477509 12.8256662,71.6021598 5.62820519,57.9917403 C-0.967727308,45.518813 -0.487326741,33.3757679 6.72610238,25.6124543 C13.4962843,18.3258799 22.1981837,16.0949743 31.3881608,18.4249722 C38.1071422,20.1284817 44.7610881,24.2500366 49.9245875,29.575432 L50.143,29.804 L50.3623276,29.5756121 C55.3960327,24.383337 61.8470401,20.3353599 68.3939546,18.5572576 L68.8977303,18.4249766 C78.0875009,16.0949643 86.7894172,18.3258901 93.5594268,25.6122791 Z" id="Broken-Heart" fill="#00B077"></path>
    </g>
</svg>