<?xml version="1.0" encoding="UTF-8"?>
<svg width="100px" height="100px" viewBox="0 0 100 100" version="1.1" xmlns="http://www.w3.org/2000/svg" xmlns:xlink="http://www.w3.org/1999/xlink">
    <!-- Generator: Sketch 63.1 (92452) - https://sketch.com -->
    <title>EngagementRing</title>
    <desc>Created with Sketch.</desc>
    <g id="EngagementRing" stroke="none" stroke-width="1" fill="none" fill-rule="evenodd">
        <path d="M68.124051,20.2409396 C82.5941055,27.0306907 92.034065,41.5713194 92.034065,57.823354 C92.034065,80.7491879 73.4520089,99.331244 50.524445,99.331244 C27.5954364,99.331244 9.013095,80.7494732 9.013095,57.823354 C9.013095,41.5713194 18.4530545,27.0306907 32.923109,20.2409396 C34.2205554,19.6321417 35.7658716,20.1904017 36.3746694,21.487848 C36.9834673,22.7852944 36.4252073,24.3306106 35.127761,24.9394084 C22.4619736,30.8825474 14.203095,43.6039247 14.203095,57.823354 C14.203095,77.8830797 30.4617586,94.141244 50.524445,94.141244 C70.5856511,94.141244 86.844065,77.8828301 86.844065,57.823354 C86.844065,43.6039247 78.5851864,30.8825474 65.919399,24.9394084 C64.6219527,24.3306106 64.0636927,22.7852944 64.6724906,21.487848 C65.2812884,20.1904017 66.8266046,19.6321417 68.124051,20.2409396 Z M50.523753,0.721936 C55.6421414,0.721936 60.5087875,1.58800932 64.9745991,3.03191409 C66.5420039,3.53869393 67.951368,4.08335381 69.1843794,4.63117406 L69.1843794,4.63117406 L69.4291606,4.74096386 C69.9027174,4.95543036 70.2799347,5.13865309 70.5553138,5.28045953 L70.5553138,5.28045953 L70.7965432,5.40808377 C72.3159191,6.23847864 72.6113415,8.29564043 71.3870485,9.52004469 L71.3870485,9.52004469 L52.3587785,28.5500447 C51.3454792,29.5634361 49.7025447,29.5635855 48.6890612,28.5503783 L48.6890612,28.5503783 L29.6573312,9.52383831 C28.4326528,8.29949393 28.7279697,6.24196336 30.2475734,5.41150519 C30.4890467,5.27954088 30.8717164,5.08653683 31.3868195,4.84865879 L31.3868195,4.84865879 L31.8605646,4.63415083 C33.0942633,4.08594479 34.50426,3.54089243 36.0721797,3.03373939 C40.539664,1.58870478 45.4067062,0.721936 50.523753,0.721936 Z M50.523753,5.911936 C45.987616,5.911936 41.6492201,6.68455847 37.6694388,7.97184261 C37.1487051,8.14027705 36.6487881,8.31298772 36.1707652,8.48820471 L36.1707652,8.48820471 L36.019,8.545 L38.403095,10.929936 L38.480531,10.927898 L51.048981,10.927898 C52.4821599,10.927898 53.643981,12.0897191 53.643981,13.522898 C53.643981,14.9009547 52.5698121,16.0281257 51.2130929,16.1127927 L51.048981,16.117898 L43.592095,16.116936 L50.523,23.045 L65.025,8.542 L64.3908343,8.31196017 L63.8914459,8.13985676 L63.3779294,7.97020791 C59.3997191,6.68395643 55.0615758,5.911936 50.523753,5.911936 Z" fill="#00B077"></path>
    </g>
</svg>