<?xml version="1.0" encoding="UTF-8"?>
<svg width="100px" height="100px" viewBox="0 0 100 100" version="1.1" xmlns="http://www.w3.org/2000/svg" xmlns:xlink="http://www.w3.org/1999/xlink">
    <!-- Generator: Sketch 63.1 (92452) - https://sketch.com -->
    <title>Hearts</title>
    <desc>Created with Sketch.</desc>
    <g id="Hearts" stroke="none" stroke-width="1" fill="none" fill-rule="evenodd">
        <path d="M81.2580083,23.5077473 C84.3240906,26.8061344 86.1190384,31.0530511 86.4753191,35.8095158 C89.8911194,36.1634026 93.1665093,37.6996012 95.9154858,40.6573201 C99.9521225,45.0017613 100.717891,51.2598885 97.9300542,57.7314959 C95.0144743,64.4996433 88.4242292,71.2250729 78.4840094,77.2011092 C77.2557181,77.939555 75.6613626,77.5424568 74.9229168,76.3141654 C74.184471,75.0858741 74.5815692,73.4915186 75.8098606,72.7530728 C92.9003241,62.478327 98.033715,50.5618141 92.1136447,44.1903222 C86.8864714,38.5662257 78.3277324,40.7371126 72.6140723,47.6448926 C71.5764552,48.8993652 69.6533788,48.8996706 68.6153633,47.6455277 C62.8971,40.7366529 54.3406065,38.5663356 49.113669,44.1901784 C46.3361529,47.1790574 46.1389,52.1656159 49.1092952,57.7829424 C51.4043617,62.1231522 55.3625543,66.462529 60.8760958,70.5088895 C60.9985637,70.5814318 61.1145694,70.6654797 61.2238463,70.7597404 C64.3308228,73.0091442 67.9221006,75.1645297 71.9771374,77.1764328 C73.2609831,77.8134118 73.7853721,79.3705478 73.1483932,80.6543934 C72.5114142,81.9382391 70.9542782,82.4626281 69.6704326,81.8256492 C65.9228944,79.9663112 62.5239275,77.9771166 59.4898872,75.8880848 C57.1713735,77.4335717 54.7145257,78.9372999 52.1244331,80.3943162 C50.8753278,81.096981 49.2931055,80.6540034 48.5904408,79.4048981 C47.887776,78.1557928 48.3307536,76.5735705 49.5798589,75.8709058 C51.4921857,74.7951561 53.3259086,73.6944302 55.0799958,72.5709574 C50.3324848,68.6630931 46.7823734,64.4850581 44.5212598,60.2090571 C40.5946599,52.7834477 40.8859406,45.4198639 45.3119547,40.6570398 C52.3959488,33.0351255 62.9737579,34.8531546 70.4480849,42.0067294 L70.614,42.167 L70.7791737,42.0073385 C73.9020589,39.0171738 77.5681967,36.9591106 81.295194,36.1330059 C81.0149311,32.5542485 79.688906,29.4426541 77.4564314,27.0410337 C68.8028147,17.7288889 54.8228526,21.2730916 45.6390442,32.3714904 C44.6012328,33.6256592 42.6783192,33.6256592 41.6405078,32.3714904 C32.4566994,21.2730916 18.4767373,17.7288889 9.82304419,27.0411159 C5.14949768,32.0698764 4.82343915,40.306085 9.60876488,49.3555887 C15.2832381,60.0865544 27.3482475,70.7272385 45.1132199,79.5417094 C46.3970541,80.1787112 46.9214155,81.7358566 46.2844136,83.0196909 C45.6474118,84.3035251 44.0902664,84.8278865 42.8064321,84.1908846 C24.1329793,74.9256518 11.2517039,63.5650652 5.02073462,51.7817128 C-0.720845348,40.9238419 -0.300679561,30.3104926 6.02127137,23.5080403 C11.9399008,17.1390114 19.563494,15.1847299 27.5935826,17.2205195 C33.3592374,18.6822294 39.0600712,22.1829408 43.5186986,26.7152729 L43.639,26.84 L43.7608534,26.7152729 C48.09563,22.3088389 53.6045601,18.8775093 59.2056734,17.347027 L59.6859694,17.2205195 C67.716058,15.1847299 75.3396512,17.1390114 81.2580083,23.5077473 Z" fill="#00B077"></path>
    </g>
</svg>