<?xml version="1.0" encoding="UTF-8"?>
<svg width="100px" height="100px" viewBox="0 0 100 100" version="1.1" xmlns="http://www.w3.org/2000/svg" xmlns:xlink="http://www.w3.org/1999/xlink">
    <!-- Generator: Sketch 63.1 (92452) - https://sketch.com -->
    <title>Tuxedo</title>
    <desc>Created with Sketch.</desc>
    <g id="Tuxedo" stroke="none" stroke-width="1" fill="none" fill-rule="evenodd">
        <path d="M50.253739,14.688226 C57.685997,14.688226 65.1112449,15.6611287 72.192432,17.2820465 C74.6705809,17.8493067 76.9315254,18.4577511 78.9324539,19.0676381 C79.3553275,19.1965307 79.7489098,19.3201724 80.1120383,19.4374939 L81.2173209,19.8069622 C81.3324504,19.8470387 81.422493,19.8791293 81.486774,19.902616 C82.2333657,20.1754019 82.8104421,20.7737806 83.0588775,21.521872 L83.1103025,21.697086 L99.4778325,85.700166 C99.8189038,87.0338808 99.0594173,88.3904551 97.7687084,88.8101885 L97.6046442,88.8577064 L84.9116342,92.0928064 C83.6102344,92.4244975 82.2812991,91.7085395 81.8309272,90.4624054 L81.7792721,90.3039148 L77.6741132,76.210936 L77.674412,88.27862 C77.674412,89.7117989 76.5125909,90.87362 75.079412,90.87362 C73.7013553,90.87362 72.5741843,89.7994511 72.4895173,88.4427319 L72.484412,88.27862 L72.4849412,57.8648695 L72.4930913,57.382567 C72.5474852,55.3648723 72.8655394,52.8495799 73.6708937,47.3497098 C73.8785418,45.9316533 75.1964358,44.9504235 76.6144922,45.1580717 C78.0325487,45.3657198 79.0137785,46.6836138 78.8061303,48.1016702 L78.3639188,51.1785704 C77.899002,54.5025448 77.7063743,56.2926301 77.6781247,57.6668053 L86.06,86.443 L93.805,84.469 L78.431,24.348 L77.8032665,24.1502986 L77.4192619,24.0321471 C75.5318127,23.4568489 73.3886772,22.8801081 71.0343685,22.3411955 C64.3085337,20.8016196 57.2611422,19.878226 50.253739,19.878226 C43.2463358,19.878226 36.1989443,20.8016196 29.4731095,22.3411955 C27.3803906,22.8202289 25.4545247,23.3291513 23.7267747,23.8403814 L22.580539,24.1888393 L22.076,24.348 L6.701,84.469 L14.446,86.444 L22.8261132,57.666936 L22.8232337,57.4852267 C22.7713702,55.76068 22.4680843,53.3624962 21.6996399,48.0999471 C21.4925612,46.6818073 22.4743202,45.3643075 23.8924599,45.1572289 C25.3105997,44.9501502 26.6280995,45.9319092 26.8351781,47.3500489 L27.3321649,50.822356 C27.8288044,54.4021485 28.0104629,56.2256704 28.0210165,57.8700082 L28.020328,57.924093 C28.0226033,57.9839914 28.0227953,58.0441943 28.0208521,58.104607 L28.021,94.142 L75.079239,94.142628 C76.4572957,94.142628 77.5844667,95.2167969 77.6691337,96.5735161 L77.674239,96.737628 C77.674239,98.1156847 76.6000701,99.2428557 75.2433509,99.3275227 L75.079239,99.332628 L25.426509,99.332628 C24.0484523,99.332628 22.9212813,98.2584591 22.8366143,96.9017399 L22.831509,96.737628 L22.8301132,76.214936 L18.7282425,90.3037889 C18.3527089,91.5932717 17.0607704,92.3741411 15.7586025,92.1288498 L15.5958438,92.0928064 L2.9028338,88.8577064 C1.56884481,88.5177092 0.742355878,87.2008836 0.992702493,85.86693 L1.02964552,85.700166 L17.3971755,21.697086 C17.609258,20.8677654 18.2166822,20.1963854 19.020704,19.902616 L19.7101321,19.663393 L20.3954397,19.4374939 C20.7585682,19.3201724 21.1521505,19.1965307 21.5750241,19.0676381 C23.5759526,18.4577511 25.8368971,17.8493067 28.315046,17.2820465 C35.3962331,15.6611287 42.821481,14.688226 50.253739,14.688226 Z M53.3111108,82.8847102 C55.0001284,84.5737277 55.0001284,87.3121663 53.3111108,89.0011838 C51.6220933,90.6902014 48.8836547,90.6902014 47.1946372,89.0011838 C45.5056196,87.3121663 45.5056196,84.5737277 47.1946372,82.8847102 C48.8836547,81.1956926 51.6220933,81.1956926 53.3111108,82.8847102 Z M53.3111108,71.1321282 C55.0001284,72.8211457 55.0001284,75.5595843 53.3111108,77.2486018 C51.6220933,78.9376194 48.8836547,78.9376194 47.1946372,77.2486018 C45.5056196,75.5595843 45.5056196,72.8211457 47.1946372,71.1321282 C48.8836547,69.4431106 51.6220933,69.4431106 53.3111108,71.1321282 Z M58.2232451,38.2157126 C59.5345206,38.6322755 60.2832672,39.9936002 59.9571645,41.3103112 L59.9107664,41.4745961 L52.7260764,64.0908861 L52.7129049,64.131756 C52.7053118,64.1542948 52.6974129,64.1767205 52.6892115,64.1990268 L52.7260764,64.0908861 C52.7070399,64.15081 52.6860304,64.2095591 52.6631423,64.2670845 C52.6613363,64.271507 52.6593485,64.2764389 52.6573457,64.2813644 L52.6028257,64.4066892 C52.6010811,64.4104234 52.5993283,64.4141519 52.5975675,64.4178747 C52.5894924,64.4341957 52.581288,64.4510143 52.572904,64.4677424 C52.5086902,64.5970748 52.4344756,64.7187137 52.3516549,64.8325548 C52.1080881,65.1652611 51.7901734,65.4395128 51.4103128,65.6281943 C51.3983855,65.6337274 51.3866205,65.6394805 51.3748124,65.6451449 L51.3543582,65.6551567 C51.2880678,65.686127 51.2199726,65.7145259 51.1501562,65.7401925 C51.1175778,65.752298 51.0847393,65.7636844 51.0516649,65.7744148 C51.0473721,65.7755938 51.0429668,65.7770059 51.0385551,65.7784074 L51.0058189,65.7888222 C50.9673959,65.8005081 50.9286707,65.8113137 50.8896741,65.8212231 L51.0385551,65.7784074 C50.9723291,65.7994459 50.9058841,65.8176883 50.8393476,65.8332006 C50.8079052,65.8408087 50.7758727,65.8476411 50.7436862,65.8538691 C50.7098555,65.8601763 50.6762173,65.8660059 50.6425878,65.8711559 C50.6250249,65.8740435 50.6070051,65.8766029 50.5889461,65.8789731 C50.5592794,65.8827024 50.5299146,65.8860545 50.5005742,65.8888966 C50.469424,65.8920285 50.4380683,65.8944744 50.4066242,65.896347 C50.3846729,65.8975835 50.3630028,65.8986078 50.3413569,65.8993578 C50.3123154,65.900401 50.2826555,65.9009086 50.2529381,65.9009017 C50.2228369,65.9009061 50.1931416,65.9003947 50.1635157,65.8993736 C50.1422864,65.8985854 50.1209243,65.8975731 50.099543,65.8962921 C50.0683013,65.8945148 50.0372892,65.8921053 50.0063772,65.889142 C49.9768964,65.8861772 49.9468665,65.882758 49.9168227,65.8787994 C49.8979072,65.8764921 49.8791976,65.8738259 49.8605335,65.8709574 C49.8281253,65.8657555 49.7956896,65.8601236 49.763261,65.8538519 C49.7306502,65.8478063 49.6982282,65.8408986 49.665981,65.8333805 C49.6497358,65.8293154 49.633077,65.825259 49.6164259,65.8210303 C49.5770773,65.8113137 49.5383521,65.8005081 49.4999291,65.7888222 C49.4891867,65.7853154 49.4781868,65.7818999 49.4671929,65.7784074 L49.4540831,65.7744148 C49.4181275,65.7627496 49.3824507,65.7503092 49.3470782,65.7371068 L49.3062503,65.721488 L49.3062503,65.721488 L49.2767146,65.7096767 C49.255798,65.7011719 49.2349966,65.6923974 49.2143157,65.683356 C49.1888847,65.6724655 49.164423,65.661354 49.1402043,65.6498985 C49.1211597,65.6405308 49.1016479,65.6309708 49.0822588,65.621169 C48.8315288,65.4952155 48.6084469,65.3317904 48.4173131,65.1402888 C48.2262886,64.9496321 48.0628635,64.7265502 47.9367085,64.4762809 C47.9271082,64.4564311 47.9175482,64.4369193 47.9082325,64.4172896 C47.896725,64.393656 47.8856135,64.3691943 47.8748541,64.3444938 C47.8656816,64.3230824 47.8569071,64.302281 47.8484023,64.2813644 L47.836591,64.2518287 L47.836591,64.2518287 L47.8209722,64.2110008 C47.8077698,64.1756283 47.7953294,64.1399515 47.7836642,64.1039959 L47.7796716,64.0908861 L40.5949816,41.4745961 C40.1610619,40.1086842 40.9165909,38.6496323 42.2825029,38.2157126 C43.5937783,37.7991497 44.9908916,38.4787827 45.484467,39.7422913 L45.5413864,39.9032339 L50.2521132,54.733936 L54.9643616,39.9032339 C55.3982813,38.5373219 56.8573332,37.7817929 58.2232451,38.2157126 Z M71.4025348,27.9302715 L71.4478037,28.0948711 L73.6345237,37.1860211 C73.7675215,37.7389513 73.7147872,38.31823 73.4878438,38.8354702 L73.3945964,39.0263546 L62.0406064,60.0423946 C61.3593855,61.3033228 59.7849626,61.7732684 58.5240344,61.0920474 C57.3135434,60.4380754 56.8320219,58.9609283 57.3981376,57.7282143 L57.4743816,57.5754754 L68.356,37.433 L66.4017243,29.3086189 C66.0799639,27.97092 66.857731,26.6259647 68.1532905,26.2239742 L68.3178901,26.1787053 C69.655589,25.8569449 71.0005443,26.634712 71.4025348,27.9302715 Z M32.1845709,26.1787053 C33.5222697,26.5004658 34.3664152,27.8047836 34.1352721,29.1414374 L34.1007367,29.3086189 L32.146,37.433 L43.0280794,57.5754754 C43.6820515,58.7859665 43.2751086,60.2853743 42.1259182,61.0060908 L41.9784266,61.0920474 C40.7679355,61.7460195 39.2685277,61.3390766 38.5478112,60.1898862 L38.4618546,60.0423946 L27.1078646,39.0263546 C26.837549,38.5260051 26.740002,37.9525686 26.8267468,37.3944324 L26.8679373,37.1860211 L29.0546573,28.0948711 C29.3898245,26.7014348 30.7911345,25.8435382 32.1845709,26.1787053 Z M63.0878797,24.4153946 C64.1527341,25.2828542 64.3504556,26.8201795 63.5684064,27.9247492 L63.4608344,28.0662787 L61.733,30.186 L63.4593553,32.3016553 C64.327775,33.3657268 64.2119606,34.9113821 63.2235555,35.8358984 L63.0896937,35.9528743 C62.0256222,36.821294 60.4799669,36.7054796 59.5554506,35.7170745 L59.4384747,35.5832127 L56.3746447,31.8291127 C55.6367801,30.9250099 55.5973905,29.6475002 56.2567945,28.7034944 L56.3731656,28.5493693 L59.4369956,24.7883493 C60.3421708,23.6771969 61.9767273,23.5102194 63.0878797,24.4153946 Z M40.9520703,24.6543821 L41.0689254,24.7883493 L44.1327554,28.5493693 C44.8698042,29.4541373 44.9080416,30.731682 44.2477863,31.6750926 L44.1312763,31.8291127 L41.0674463,35.5832127 C40.1612693,36.6935482 38.5265628,36.8590514 37.4162273,35.9528743 C36.3521558,35.0844546 36.1558209,33.5469515 36.938866,32.4430877 L37.0465657,32.3016553 L38.772,30.186 L37.0450866,28.0662787 C36.177627,27.0014243 36.2948355,25.4558742 37.2840741,24.5322497 L37.4180413,24.4153946 C38.4828957,23.547935 40.0284458,23.6651435 40.9520703,24.6543821 Z M50.252874,0.721936 C55.0669571,0.721936 58.972074,4.62629109 58.972074,9.441136 C58.972074,10.8743149 57.8102529,12.036136 56.377074,12.036136 C54.9990173,12.036136 53.8718463,10.9619671 53.7871793,9.60524788 L53.782074,9.441136 C53.782074,7.49287564 52.2008259,5.911936 50.252874,5.911936 C48.3698538,5.911936 46.829498,7.38923627 46.7288998,9.24757932 L46.723674,9.441136 C46.723674,10.8743149 45.5618529,12.036136 44.128674,12.036136 C42.6954951,12.036136 41.533674,10.8743149 41.533674,9.441136 C41.533674,4.62629109 45.4387909,0.721936 50.252874,0.721936 Z" fill="#00B077"></path>
    </g>
</svg>