<?xml version="1.0" encoding="UTF-8"?>
<svg width="100px" height="100px" viewBox="0 0 100 100" version="1.1" xmlns="http://www.w3.org/2000/svg" xmlns:xlink="http://www.w3.org/1999/xlink">
    <!-- Generator: Sketch 63.1 (92452) - https://sketch.com -->
    <title>WeddingDress</title>
    <desc>Created with Sketch.</desc>
    <g id="WeddingDress" stroke="none" stroke-width="1" fill="none" fill-rule="evenodd">
        <path d="M49.746351,0.721936 C54.5604341,0.721936 58.465551,4.62629109 58.465551,9.441136 C58.465551,10.8743149 57.3037299,12.036136 55.870551,12.036136 C54.4924943,12.036136 53.3653233,10.9619671 53.2806563,9.60524788 L53.275551,9.441136 C53.275551,7.49287564 51.6943029,5.911936 49.746351,5.911936 C47.8633308,5.911936 46.322975,7.38923627 46.2223768,9.24757932 L46.217151,9.441136 C46.217151,10.8743149 45.0553299,12.036136 43.622151,12.036136 C42.1889721,12.036136 41.027151,10.8743149 41.027151,9.441136 C41.027151,4.62629109 44.9322679,0.721936 49.746351,0.721936 Z M78.383733,15.911682 C79.8169119,15.911682 80.978733,17.0735031 80.978733,18.506682 C80.978733,19.8847387 79.9045641,21.0119097 78.5478449,21.0965767 L78.383733,21.101682 L76.314653,21.101682 C74.8814741,21.101682 73.719653,19.9398609 73.719653,18.506682 C73.719653,17.1286253 74.7938219,16.0014543 76.1505411,15.9167873 L76.314653,15.911682 L78.383733,15.911682 Z M23.178049,15.911682 C24.6112279,15.911682 25.773049,17.0735031 25.773049,18.506682 C25.773049,19.8847387 24.6988801,21.0119097 23.3421609,21.0965767 L23.178049,21.101682 L21.108969,21.101682 C19.6757901,21.101682 18.513969,19.9398609 18.513969,18.506682 C18.513969,17.1286253 19.5881379,16.0014543 20.9448571,15.9167873 L21.108969,15.911682 L23.178049,15.911682 Z M60.16147,15.475376 C67.3453066,15.475376 73.17107,21.3031446 73.17107,28.488436 C73.17107,30.9546884 72.4719617,33.3873648 70.8583281,37.3771878 L69.5566211,40.5306357 C68.0146591,44.3036902 67.51916,45.9265154 67.51916,47.366196 C67.51916,47.8994551 75.9359898,58.3174243 78.1208131,61.4393252 L78.2186064,61.580255 C83.7588256,69.6394651 87.4797968,78.00556 89.0478703,87.5955235 C89.2791409,89.0099194 88.3200284,90.3439957 86.9056325,90.5752663 C85.4912366,90.8065369 84.1571603,89.8474244 83.9258897,88.4330285 C83.7458415,87.3318967 83.534498,86.2478994 83.2923756,85.1792919 C81.3684607,86.581767 79.013126,87.3855958 76.514295,87.3855958 C72.9898905,87.3855958 69.8357114,85.8044776 67.7227573,83.312775 L67.589,83.151 L67.4566286,83.3127048 C65.4030406,85.7352108 62.3655311,87.2970496 58.9603718,87.3819492 L58.667615,87.3855958 C55.1460849,87.3855958 51.9926576,85.8039472 49.8798022,83.312065 L49.746,83.151 L49.6130083,83.3124915 C47.559228,85.7350499 44.5216449,87.2970408 41.1170976,87.3819488 L40.824395,87.3855958 C37.301621,87.3855958 34.1488584,85.8043193 32.0368436,83.3125631 L31.904,83.152 L31.7715003,83.3121364 C29.717906,85.734782 26.6809843,87.2970261 23.2784502,87.3819479 L22.9859234,87.3855958 C20.5033912,87.3868277 18.135094,86.4566938 16.1875681,84.9164716 C15.5733275,87.6375882 15.1739827,90.4451798 15.000496,93.3614692 L14.959,94.141 L87.1858,94.141936 C88.5638567,94.141936 89.6910277,95.2161049 89.7756947,96.5728241 L89.7808,96.736936 C89.7808,98.1149927 88.7066311,99.2421637 87.3499119,99.3268307 L87.1858,99.331936 L12.30621,99.331936 C10.8730311,99.331936 9.71121,98.1701149 9.71121,96.736936 C9.71121,83.5810807 13.751037,72.4759078 20.9116599,61.9763674 L21.3053288,61.4042572 C23.2980022,58.5337885 31.97285,47.8934823 31.97285,47.366196 C31.97285,45.8840387 31.4479327,44.2079181 29.7972319,40.1918516 L28.9944019,38.2563043 L28.6346635,37.3769443 C27.0215525,33.3871925 26.32267,30.9545628 26.32267,28.488436 C26.32267,21.3029478 32.1468999,15.475376 39.33054,15.475376 C43.5390332,15.475376 47.28126,17.4745428 49.6596474,20.5748451 L49.746,20.69 L49.8335071,20.5747612 C52.1534405,17.550092 55.7713835,15.5735481 59.8543859,15.4789307 L60.16147,15.475376 Z M60.16147,20.665376 C55.9263665,20.665376 52.4768434,24.0350007 52.3457357,28.2401308 L52.34187,28.488436 C52.34187,31.948436 47.15187,31.948436 47.15187,28.488436 C47.15187,24.1689017 43.6491479,20.665376 39.33054,20.665376 C35.0139244,20.665376 31.51267,24.1686394 31.51267,28.488436 C31.51267,30.0878247 32.0968262,32.0940046 33.4719688,35.4943849 L34.775583,38.6515137 C36.6020558,43.1175279 37.16285,45.0127976 37.16285,47.366196 C37.16285,49.2115348 36.2918053,50.7255574 33.8343282,53.8026599 L30.0308144,58.4599922 L29.551306,59.0544139 C28.0706172,60.9072041 26.7872455,62.6086186 25.5687312,64.3639023 C22.2523825,69.1411403 19.6457756,74.0171742 17.8395075,79.1653233 C19.0998173,80.9874813 21.065793,82.1965474 22.984635,82.1955949 C26.3989775,82.1955949 29.1832812,79.4875279 29.3053419,76.1009169 L29.3147886,75.6803214 C29.4964636,72.4718715 34.3125664,72.4718715 34.4942414,75.6803214 L34.503685,76.101003 C34.6228851,79.4118232 37.2828946,82.0722079 40.5924646,82.1914243 L40.824395,82.1955949 C44.2412748,82.1955949 47.0248079,79.4883548 47.1468331,76.1009721 L47.1562786,75.6803214 C47.3379536,72.4718715 52.1540564,72.4718715 52.3357314,75.6803214 L52.341,75.868 L52.3451799,76.100886 C52.4645184,79.4101054 55.1275595,82.0721298 58.4357856,82.1914217 L58.667615,82.1955949 C62.085526,82.1955949 64.8680737,79.4890004 64.9900547,76.1010151 L64.9994986,75.6803214 C65.1811736,72.4718715 69.9972764,72.4718715 70.1789514,75.6803214 L70.184,75.868 L70.1883974,76.1009962 C70.3076666,79.4117236 72.9692342,82.0722033 76.2821298,82.1914242 L76.514295,82.1955949 C78.5965676,82.1955949 80.4962103,81.180758 81.6647151,79.5432167 L81.6795299,79.521484 C79.8681088,74.2761122 77.2653267,69.355144 73.941708,64.5203638 C72.8724822,62.9649894 71.7533844,61.4516773 70.4966985,59.8429138 L69.9494394,59.1471989 C69.666665,58.7901122 69.3845005,58.4370777 69.0814213,58.060969 L66.3924994,54.7561957 L65.8934117,54.1353166 C63.2533862,50.8290257 62.32916,49.2713716 62.32916,47.366196 C62.32916,44.8218405 62.9847849,42.8130433 65.1869611,37.5126171 L65.702429,36.2731169 C67.3069742,32.3932699 67.98107,30.2061634 67.98107,28.488436 C67.98107,24.1691027 64.4785488,20.665376 60.16147,20.665376 Z M55.783532,44.99575 C57.2167109,44.99575 58.378532,46.1575711 58.378532,47.59075 C58.378532,48.9688067 57.3043631,50.0959777 55.9476439,50.1806447 L55.783532,50.18575 L43.711592,50.18575 C42.2784131,50.18575 41.116592,49.0239289 41.116592,47.59075 C41.116592,46.2126933 42.1907609,45.0855223 43.5474801,45.0008553 L43.711592,44.99575 L55.783532,44.99575 Z" id="Wedding-Dress" fill="#00B077"></path>
    </g>
</svg>