<?xml version="1.0" encoding="UTF-8"?>
<svg width="100px" height="100px" viewBox="0 0 100 100" version="1.1" xmlns="http://www.w3.org/2000/svg" xmlns:xlink="http://www.w3.org/1999/xlink">
    <!-- Generator: Sketch 63.1 (92452) - https://sketch.com -->
    <title>WeddingCake</title>
    <desc>Created with Sketch.</desc>
    <g id="WeddingCake" stroke="none" stroke-width="1" fill="none" fill-rule="evenodd">
        <path d="M75.287471,43.022798 C76.6655277,43.022798 77.7926987,44.0969669 77.8773657,45.4536861 L77.882471,45.617798 L77.881753,53.0279866 L90.440541,53.028599 C91.8185977,53.028599 92.9457687,54.1027679 93.0304357,55.4594871 L93.035541,55.623599 L93.0360932,65.9048963 C93.0366466,65.9269463 93.036925,65.9490646 93.036925,65.971248 L93.034753,66.1129866 L93.035541,88.580099 C93.035541,90.0132779 91.8737199,91.175099 90.440541,91.175099 C89.0624843,91.175099 87.9353133,90.1009301 87.8506463,88.7442109 L87.845541,88.580099 L87.845135,75.1167478 C86.2493807,76.0709675 84.3830745,76.619398 82.388775,76.619398 C79.2594814,76.619398 76.4447648,75.2683833 74.4962776,73.1180061 L74.336,72.936 L74.175824,73.1184127 C72.286733,75.2035136 69.5828542,76.5368017 66.5661885,76.6156923 L66.282475,76.619398 C63.1532652,76.619398 60.3390333,75.2684279 58.3909812,73.1180688 L58.23,72.936 L58.0708282,73.1182094 C56.1815616,75.203367 53.4776381,76.536793 50.4615614,76.6156919 L50.177905,76.619398 C47.0486114,76.619398 44.2338948,75.2683833 42.2854076,73.1180061 L42.124,72.936 L41.9641024,73.1180061 C40.0746603,75.2032203 37.3706921,76.5367843 34.3552043,76.6156915 L34.071605,76.619398 C30.9409302,76.619398 28.1258126,75.2686283 26.1772524,73.11835 L26.017,72.936 L25.8567988,73.1180688 C23.9677786,75.2032655 21.264279,76.536787 18.2488956,76.6156917 L17.965305,76.619398 C15.9693209,76.619398 14.1013186,76.0697538 12.5044504,75.1136176 L12.503753,93.9979866 L96.883753,93.998459 C98.3169319,93.998459 99.478753,95.1602801 99.478753,96.593459 C99.478753,97.9715157 98.4045841,99.0986867 97.0478649,99.1833537 L96.883753,99.188459 L3.463753,99.188459 C2.03057407,99.188459 0.868753,98.0266379 0.868753,96.593459 C0.868753,95.2154023 1.94292189,94.0882313 3.29964112,94.0035643 L3.463753,93.998459 L7.313753,93.9979866 L7.314041,55.623599 C7.314041,54.2455423 8.38820989,53.1183713 9.74492912,53.0337043 L9.909041,53.028599 L22.465753,53.0279866 L22.4659,45.617798 C22.4659,44.1846191 23.6277211,43.022798 25.0609,43.022798 C26.4389567,43.022798 27.5661277,44.0969669 27.6507947,45.4536861 L27.6559,45.617798 L27.655753,53.0279866 L72.691753,53.0279866 L72.692471,45.617798 C72.692471,44.1846191 73.8542921,43.022798 75.287471,43.022798 Z M25.031753,58.2179866 L12.504,58.218 L12.503753,65.8729866 L12.507155,65.971248 C12.507155,68.9841691 14.9523839,71.429398 17.965305,71.429398 C20.9042502,71.429398 23.3021673,69.102472 23.4173905,66.1907002 L23.4269986,65.7825854 C23.6086736,62.5741355 28.4247764,62.5741355 28.6064514,65.7825854 L28.6160602,66.1907255 C28.728421,69.0300149 31.0111482,71.312703 33.852004,71.4250629 L34.071605,71.429398 C37.0110402,71.429398 39.4101378,69.1019939 39.5254184,66.1906653 L39.5350286,65.7825854 C39.7167036,62.5741355 44.5328064,62.5741355 44.7144814,65.7825854 L44.7240916,66.1906653 C44.8364902,69.0292107 47.1199423,71.3126628 49.9584877,71.4250614 L50.177905,71.429398 C53.1183611,71.429398 55.5164876,69.1026447 55.6317202,66.1907129 L55.6413286,65.7825854 C55.8230036,62.5741355 60.6391064,62.5741355 60.8207814,65.7825854 L60.8303895,66.1907002 C60.9427321,69.0296777 63.2250606,71.3126862 66.0630958,71.4250622 L66.282475,71.429398 C69.2239519,71.429398 71.6211074,69.1032956 71.736292,66.1907605 L71.7458986,65.7825854 C71.9275736,62.5741355 76.7436764,62.5741355 76.9253514,65.7825854 L76.9349616,66.1906653 C77.0473602,69.0292107 79.3308123,71.3126628 82.1693577,71.4250614 L82.388775,71.429398 C85.3732036,71.429398 87.7989611,69.0325342 87.8462225,66.0596881 L87.845,58.218 L75.3206969,58.2189096 C75.3096381,58.2190484 75.2985627,58.219118 75.287471,58.219118 L75.257753,58.2179866 L25.0941259,58.2189096 C25.0830671,58.2190484 25.0719917,58.219118 25.0609,58.219118 L25.031753,58.2179866 Z M50.3607555,2.71937004 C54.0180623,-0.0417180675 58.7966155,-0.459011774 62.1633274,3.16681929 C66.2414654,7.5517617 64.8119696,13.1160773 57.8293903,19.3534953 L78.217745,19.353457 C79.6509239,19.353457 80.812745,20.5152781 80.812745,21.948457 L80.812745,21.948457 L80.812745,30.916777 C80.812745,36.221828 76.5125721,40.523467 71.207785,40.523467 C68.4632244,40.523467 65.9877036,39.3727104 64.2371816,37.5274604 L64.2371816,37.5274604 L64.196,37.483 L63.9403477,37.7468818 C62.2655187,39.4038326 59.9844162,40.4490416 57.4596077,40.5196477 L57.4596077,40.5196477 L57.186135,40.523467 C54.4422114,40.523467 51.9666687,39.372577 50.215977,37.5272673 L50.215977,37.5272673 L50.174,37.482 L50.1333584,37.5274604 C48.4411871,39.3112021 46.0715448,40.4459782 43.4362974,40.519648 L43.4362974,40.519648 L43.162755,40.523467 C40.4196048,40.523467 37.944961,39.3725142 36.1949571,37.5271764 L36.1949571,37.5271764 L36.154,37.483 L35.8983126,37.7466962 C34.2233382,39.4037076 31.9422347,40.4490331 29.4179762,40.5196473 L29.4179762,40.5196473 L29.144565,40.523467 C24.0283435,40.523467 19.536145,35.7151537 19.536145,30.916777 L19.536145,30.916777 L19.536145,21.948457 C19.536145,20.5152781 20.6979661,19.353457 22.131145,19.353457 L22.131145,19.353457 L42.5208165,19.3540832 C35.535863,13.1141576 34.1057959,7.55134821 38.1840125,3.16886023 C41.550643,-0.458848389 46.3318078,-0.0415968305 49.989957,2.71943054 L49.989957,2.71943054 L50.175,2.862 Z M58.3614798,6.69981389 C56.8405239,5.06179796 54.1429232,5.74605499 52.1748034,8.12463042 C51.136989,9.37888319 49.213977,9.37888319 48.1761626,8.12463042 C46.2084752,5.74657755 43.5078825,5.06180373 41.9858274,6.70188888 C39.9025042,8.94064799 41.5532075,12.7398427 50.1635455,18.7933778 L50.1635455,18.7933778 L50.174,18.8 L50.9061082,18.2800111 C58.7751718,12.6068776 60.3436132,8.97924869 58.4439417,6.79154523 L58.4439417,6.79154523 Z M24.726,24.543 L75.622,24.543 L75.622745,30.916777 C75.622745,33.3558661 73.6458181,35.333467 71.207785,35.333467 C68.8399432,35.333467 66.9077948,33.4706436 66.7961873,31.1307685 L66.791095,30.916777 C66.791095,27.5208511 61.7915374,27.4579636 61.6063686,30.7281144 L61.601095,30.916777 C61.601095,33.3558661 59.6241681,35.333467 57.186135,35.333467 C54.8192963,35.333467 52.8862038,33.4699874 52.7745399,31.1307106 L52.769445,30.916777 C52.769445,27.5208511 47.7698874,27.4579636 47.5847186,30.7281144 L47.579445,30.916777 C47.579445,33.3560346 45.6023496,35.333467 43.162755,35.333467 C40.7979444,35.333467 38.8662026,33.470326 38.7546164,31.1307405 L38.749525,30.916777 C38.749525,27.5208511 33.7499674,27.4579636 33.5647986,30.7281144 L33.559525,30.916777 C33.559525,33.3551695 31.5815646,35.333467 29.144565,35.333467 L28.953115,35.3272874 C26.8461188,35.1921217 24.726,32.8656462 24.726,30.916777 L24.726,24.543 Z" id="Wedding-Cake" fill="#00B077"></path>
    </g>
</svg>