<?xml version="1.0" encoding="UTF-8"?>
<svg width="100px" height="100px" viewBox="0 0 100 100" version="1.1" xmlns="http://www.w3.org/2000/svg" xmlns:xlink="http://www.w3.org/1999/xlink">
    <!-- Generator: Sketch 63.1 (92452) - https://sketch.com -->
    <title>Egg01</title>
    <desc>Created with Sketch.</desc>
    <g id="Egg01" stroke="none" stroke-width="1" fill="none" fill-rule="evenodd">
        <path d="M41.7438262,16.2190267 C46.3036715,12.1164232 51.2094235,11.0211987 55.5909512,14.4547329 C56.7190227,15.3387332 56.9168814,16.9698397 56.0328811,18.0979112 C55.1857141,19.1789797 53.6524028,19.4057382 52.5332413,18.6447174 L52.3897028,18.5398411 C50.3778421,16.9632694 48.1146225,17.4685403 45.2151653,20.0772523 C42.7260647,22.3167565 40.2263993,25.8446681 38.4954345,29.1569682 C37.8316484,30.427161 36.2638486,30.9187507 34.9936558,30.2549645 C33.723463,29.5911784 33.2318733,28.0233786 33.8956595,26.7531858 C35.8889595,22.9388921 38.7271472,18.933206 41.7438262,16.2190267 Z M50.52877,0.721071 C35.9872703,0.721071 17.1743039,23.2580534 10.9379983,46.5203754 C7.73978074,58.4521871 9.33143687,71.4997098 15.5341199,81.5116005 C22.5246783,92.7952187 34.6170085,99.331071 50.52877,99.331071 C66.4349054,99.331071 78.5228048,92.7768267 85.5135873,81.4707432 C91.7082928,71.4521427 93.3043826,58.4055236 90.1196157,46.5206513 C83.8832361,23.2580534 65.0702697,0.721071 50.52877,0.721071 Z M50.52877,5.911071 C62.1330675,5.911071 79.4071023,26.6044911 85.1065583,47.8642866 C87.931974,58.4081364 86.5162392,69.9805124 81.0992752,78.7412838 C75.0665544,88.497909 64.6589512,94.141071 50.52877,94.141071 C36.3896793,94.141071 25.9770724,88.5131019 19.9460401,78.7782765 C14.5239171,70.0263053 13.1123091,58.4547189 15.9510098,47.8641817 C21.6504377,26.6044911 38.9244725,5.911071 50.52877,5.911071 Z" id="Egg-01" fill="#00B077"></path>
    </g>
</svg>