<?xml version="1.0" encoding="UTF-8"?>
<svg width="100px" height="100px" viewBox="0 0 100 100" version="1.1" xmlns="http://www.w3.org/2000/svg" xmlns:xlink="http://www.w3.org/1999/xlink">
    <!-- Generator: Sketch 63.1 (92452) - https://sketch.com -->
    <title>Egg02</title>
    <desc>Created with Sketch.</desc>
    <g id="Egg02" stroke="none" stroke-width="1" fill="none" fill-rule="evenodd">
        <path d="M49.760996,0.576902 C64.3033709,0.576902 83.113173,23.1121027 89.351869,46.3783143 C90.0012884,48.8022037 90.4575902,51.2969294 90.7141062,53.8217792 C90.7991562,54.658914 90.4983718,55.3846663 89.9939096,55.8961209 L89.96,55.927 L89.6720836,56.2692178 C76.2163239,72.0552992 56.0557222,83.01577 29.3876212,88.8060426 C34.8941973,92.1734615 41.7249848,93.99794 49.759439,93.99794 C68.4408696,93.99794 80.697909,84.0386653 84.5749753,68.4942673 C84.9218116,67.1036896 86.330264,66.25757 87.7208417,66.6044063 C89.1114194,66.9512426 89.957539,68.359695 89.6107027,69.7502727 C85.1667001,87.5676997 70.8654836,99.18794 49.759439,99.18794 C33.8533021,99.18794 21.7657638,92.6336959 14.7754425,81.3275408 C8.58124022,71.3090295 6.9855327,58.2624809 10.1705848,46.3765452 C11.4164212,41.7345729 13.2054236,37.0117873 15.4423946,32.4030442 C15.8578836,31.5470286 16.6573274,31.0456272 17.5043727,30.9554558 L18.3827631,30.8825777 C39.0635109,29.0761609 54.5467608,23.2877492 64.7902815,13.9071792 C59.5980182,8.86931904 54.2549605,5.76690197 49.7615235,5.76690195 C42.7061195,5.76833626 32.9772958,13.6719605 25.0992608,25.8244316 C24.3196614,27.0270232 22.7127781,27.3699262 21.5101864,26.5903268 C20.3075948,25.8107274 19.9646918,24.2038441 20.7442912,23.0012524 C29.4841543,9.51934572 40.489374,0.578786805 49.760996,0.576902 Z M82.796241,42.7509651 L82.371487,43.1910039 C67.6333535,58.3319078 45.4183394,68.0088575 15.9752061,71.8262832 C16.811019,74.2113131 17.8841877,76.4864557 19.189843,78.5982242 C20.5647498,80.8220005 22.1669331,82.8320809 23.9886729,84.6103539 C51.1655835,79.4240481 71.4583935,69.0446694 84.8386026,53.9200095 L85.423,53.25 L85.3460726,52.6652189 C85.1479745,51.2697169 84.8811313,49.8891019 84.5472097,48.5327834 L84.3388206,47.7219831 C83.8927047,46.0582658 83.3757594,44.3980471 82.796241,42.7509651 Z M76.1209687,28.553824 L75.9825947,28.7018319 C62.7725861,42.6417567 42.0371108,51.0454508 14.0694601,53.4997106 C13.5287243,57.9563845 13.7059774,62.4704496 14.582462,66.7712795 C44.7317555,62.9803594 66.7843993,52.9899193 80.6766291,37.3976319 C79.3327918,34.3412937 77.795274,31.3715724 76.1209687,28.553824 Z M68.3469124,17.6863376 L68.2029361,17.8193408 C57.3134798,27.7446344 41.3317759,33.8492919 20.4473736,35.9031654 L19.484,35.994 L19.2954339,36.4022164 C17.709506,39.876342 16.4029305,43.3945974 15.4219026,46.8566071 L15.1834547,47.7208797 L15.0599524,48.1968638 C41.8599483,45.6198117 61.2672961,37.3702731 73.2282105,24.0330886 C71.6677153,21.7616958 70.0283233,19.6324304 68.3469124,17.6863376 Z" id="Egg-02" fill="#00B077"></path>
    </g>
</svg>