<?xml version="1.0" encoding="UTF-8"?>
<svg width="100px" height="100px" viewBox="0 0 100 100" version="1.1" xmlns="http://www.w3.org/2000/svg" xmlns:xlink="http://www.w3.org/1999/xlink">
    <!-- Generator: Sketch 63.1 (92452) - https://sketch.com -->
    <title>Tulip</title>
    <desc>Created with Sketch.</desc>
    <g id="Tulip" stroke="none" stroke-width="1" fill="none" fill-rule="evenodd">
        <path d="M40.435388,5.53888057 C44.9586738,-1.54283458 57.6956395,-0.501781505 60.1102315,6.57334766 C60.5731302,7.92971286 59.8488326,9.4045177 58.4924673,9.86741646 C57.1903567,10.3117993 55.7790922,9.66206185 55.2587312,8.40934672 L55.1983985,8.24965234 C54.2447828,5.45541009 47.3032877,4.84039416 44.9319081,8.15147435 L44.809302,8.33261943 C44.0378323,9.54044241 42.4332986,9.89417666 41.2254756,9.12270697 C40.0176526,8.35123729 39.6639183,6.74670356 40.435388,5.53888057 Z M76.9173548,10.9985896 L76.5671075,11.4789725 L76.4852796,11.5954931 C76.1823361,12.0294183 75.8408928,12.54845 75.4703401,13.1496652 C74.3979364,14.8896214 73.3204563,16.9246027 72.3123397,19.2310703 C69.5173022,25.6258303 67.8037708,32.7868587 67.6961288,40.55769 L67.690737,41.3368 C67.690737,51.3313333 60.1594181,57.5891344 51.9650834,56.7345442 L51.9647255,80.3709781 C53.4113663,77.2497732 55.0728021,74.1349142 56.8756517,71.2214902 L57.2710535,70.5893632 C63.3460547,60.9817655 70.3330922,54.462991 77.6040548,52.7695078 C79.8535347,52.2455804 81.6151496,54.7005924 80.3984662,56.6638401 C73.8980545,67.1529438 71.1879085,75.20779 68.433197,89.4125382 C67.7675433,92.8516091 66.0606774,95.4254619 63.6569948,97.1586789 C62.541045,97.9633538 61.3547168,98.529762 60.1661151,98.9042102 C59.4321903,99.1354204 58.8319511,99.2548816 58.4239548,99.3005834 C56.9996834,99.4601234 55.7157507,98.4348561 55.5562106,97.0105848 C55.4028068,95.6410931 56.3448239,94.4013523 57.6836857,94.166183 L57.8462092,94.1428406 C57.8378327,94.1437789 57.8827591,94.1369223 57.9726604,94.1190299 C58.1568323,94.0823756 58.3709187,94.0283047 58.6066507,93.9540414 C59.2950003,93.7371889 59.9856235,93.4074533 60.6214949,92.9489472 C61.9775003,91.9711761 62.9294899,90.5356321 63.3379443,88.4253708 L63.6605421,86.7892088 C65.7071927,76.5856069 67.8460375,69.3434557 71.5079481,61.9308604 L71.64,61.665 L71.4182316,61.8468449 C62.7897679,68.9950723 54.5373704,83.7565869 52.012104,95.8437499 L51.9166266,96.3133026 C51.3763139,99.0462366 47.5357467,99.1008963 46.862641,96.4785426 C46.8456116,96.4163978 46.8313185,96.3533323 46.8193665,96.2894423 L46.8249814,96.3123099 C44.7356439,85.7226154 37.4851822,74.5527779 28.9126508,68.7744661 L28.66,68.606 L28.8759486,68.992711 C31.9334742,74.5326414 33.7434348,80.0539356 35.2751371,87.7603347 L35.405767,88.4262858 C35.8140102,90.5354568 36.7666063,91.970916 38.1238765,92.9487374 C38.7603301,93.4072592 39.4516336,93.7370312 40.1406872,93.9539178 C40.3176868,94.0096302 40.482504,94.0539834 40.6316479,94.0881483 L40.9022828,94.1428147 C42.3265685,94.3022266 43.3519513,95.5860671 43.1925393,97.0103528 C43.0331274,98.4346385 41.7492869,99.4600213 40.3250012,99.3006093 C39.9169793,99.2549419 39.3165989,99.1355539 38.5824494,98.9044728 C37.3933924,98.530205 36.2065854,97.9640635 35.0901359,97.159737 C32.6844204,95.4265816 30.9761421,92.8523912 30.3103646,89.4126808 C28.1982894,78.5040094 25.6908284,72.5394546 19.6187616,64.2365668 C18.1979395,62.2937479 19.9582178,59.6311785 22.3023345,60.1774366 C32.021755,62.4423883 41.128693,71.1233151 46.7756053,81.4467854 L46.7755754,56.7370963 C39.6632093,57.3441223 32.161727,52.2187955 32.161727,41.3368 C32.161727,33.2649834 30.4289249,25.8387551 27.5417179,19.2307583 C26.5339539,16.9242726 25.4568521,14.8892781 24.3848258,13.1493123 C24.0144044,12.5480951 23.6730822,12.029062 23.3702465,11.5951359 L23.3702465,11.5951359 L23.288448,11.4786155 L22.9383157,10.998218 C21.6980123,9.19762631 23.1372887,6.71745655 25.3592598,6.9557334 C26.4637554,7.07417586 28.3128116,7.39038187 30.6642957,7.99245518 C34.5683867,8.9920575 38.4747884,10.4572789 42.1413158,12.4872361 C52.7891401,18.3823584 59.281207,27.772898 59.281207,41.14131 C59.281207,45.2736662 58.2072201,48.5884597 56.4866988,51.0843733 C59.8666615,49.8340281 62.3956262,46.4628523 62.4975417,41.640399 L62.500737,41.3368 C62.500737,32.5044417 64.3964472,24.3829467 67.5567543,17.1524872 C68.0607829,15.9993214 68.5817224,14.9056863 69.1123629,13.8735128 L69.406,13.308 L69.0822905,13.3993308 C66.2859454,14.2054401 63.5125406,15.283473 60.890826,16.668417 L60.238632,17.0210672 C59.2850767,17.5487528 58.36598,18.112328 57.4851076,18.7127012 C56.3008372,19.5198601 54.6864648,19.2141509 53.8793058,18.0298806 C53.0721469,16.8456102 53.3778561,15.2312378 54.5621264,14.4240788 C55.5783451,13.7314583 56.6342101,13.0840189 57.7256719,12.4800176 C61.3899005,10.4522793 65.2938242,8.98887374 69.1954322,7.99071202 L69.9598324,7.80076566 C71.9468726,7.32180043 73.5159497,7.06072511 74.4971241,6.95568412 C76.7191316,6.71780404 78.1579669,9.19821765 76.9173548,10.9985896 Z M30.448,13.309 L30.7425338,13.8738466 C31.2729814,14.9060137 31.7937313,15.9996417 32.2975761,17.1527992 C35.4567191,24.3831805 37.351727,32.5045704 37.351727,41.3368 C37.351727,55.0843216 54.091207,55.0097097 54.091207,41.14131 C54.091207,29.8204595 48.7319089,22.0684291 39.6274582,17.0277889 C36.8135919,15.4699039 33.8089939,14.2759391 30.777461,13.4013889 L30.777461,13.4013889 L30.448,13.309 Z" fill="#00B077"></path>
    </g>
</svg>