<?xml version="1.0" encoding="UTF-8"?>
<svg width="100px" height="100px" viewBox="0 0 100 100" version="1.1" xmlns="http://www.w3.org/2000/svg" xmlns:xlink="http://www.w3.org/1999/xlink">
    <!-- Generator: Sketch 63.1 (92452) - https://sketch.com -->
    <title>Apron</title>
    <desc>Created with Sketch.</desc>
    <g id="Apron" stroke="none" stroke-width="1" fill="none" fill-rule="evenodd">
        <path d="M63.5355509,51.1175381 C64.9629474,51.1175381 66.1200809,52.2746716 66.1200809,53.7020681 C66.1200809,55.0745647 65.0502459,56.197188 63.6990006,56.2815133 L63.5355509,56.2865981 L34.948926,56.2865981 C33.5215295,56.2865981 32.364396,55.1294646 32.364396,53.7020681 C32.364396,52.3295714 33.434231,51.2069481 34.7854763,51.1226228 L34.948926,51.1175381 L63.5355509,51.1175381 Z M97.7981445,50.6760367 C98.0209803,52.030323 97.1476068,53.3117474 95.8279808,53.6143393 L95.6675253,53.645894 L82.7,55.779 L82.7008746,84.1500714 C82.7008746,84.5585353 82.6040771,84.9601831 82.4196512,85.322496 L82.3201784,85.500224 C81.9994423,86.0237566 81.3964489,86.8274985 80.4752912,87.8140737 C78.9984166,89.395831 77.133535,90.9622535 74.8477303,92.4128208 C68.4415373,96.4781786 59.9751568,98.8956766 49.2398262,98.8956766 C38.5044683,98.8956766 30.0383764,96.4781632 23.6326949,92.4127644 C21.3470577,90.962173 19.4823627,89.395721 18.0056815,87.8139307 C17.0846381,86.8273281 16.4817372,86.0235579 16.161058,85.499997 C15.9477537,85.1517431 15.8205209,84.7587593 15.7885218,84.3535465 L15.7805009,84.1500714 L15.78,55.779 L2.81385018,53.645894 C1.45956393,53.4230582 0.525531914,52.1851511 0.661710864,50.8381433 L0.683230948,50.6760367 C0.906066706,49.3217505 2.14397385,48.3877184 3.4909816,48.5238974 L3.65308824,48.5454175 L18.7846499,51.0351814 C19.9765447,51.2312971 20.8655778,52.2236615 20.9439364,53.4140775 L20.9495609,53.5854196 L20.949,83.324 L21.0252133,83.4198416 C21.1878825,83.6205273 21.3899727,83.8567098 21.6332313,84.1231181 L21.7841406,84.2865481 C22.9683138,85.5550098 24.4965414,86.8388098 26.4025273,88.0484535 C31.9729116,91.5837267 39.4772767,93.7266166 49.2398262,93.7266166 C59.0024031,93.7266166 66.5071257,91.5837113 72.0780755,88.0483972 C73.9842708,86.8387293 75.5127155,85.5548998 76.6970992,84.2864051 C76.9465505,84.0192386 77.1577345,83.7789566 77.3321966,83.5702226 L77.531,83.325 L77.5318146,53.5854196 C77.5318146,52.377498 78.3666707,51.3391424 79.52857,51.06855 L79.6967256,51.0351814 L94.8282872,48.5454175 C96.2367449,48.3136683 97.5663953,49.267579 97.7981445,50.6760367 Z M63.5355509,61.4556581 C64.9629474,61.4556581 66.1200809,62.6127916 66.1200809,64.0401881 C66.1200809,73.3648145 58.5630221,80.920615 49.2396539,80.920615 C39.9193353,80.920615 32.364396,73.3644175 32.364396,64.0401881 C32.364396,62.6127916 33.5215295,61.4556581 34.948926,61.4556581 L34.948926,61.4556581 Z M60.665,66.624 L37.819,66.624 L37.8922616,66.9294925 C39.1547182,71.9088791 43.6048591,75.6146926 48.942138,75.7478477 L48.942138,75.7478477 L49.2396539,75.751555 C54.8127462,75.751555 59.4757166,71.8608915 60.6601556,66.6462993 L60.6601556,66.6462993 L60.665,66.624 Z M77.514,10.7481197 L77.5277931,10.9110657 L79.119,40.731 L95.2475617,40.7313458 C96.6200583,40.7313458 97.7426816,41.8011808 97.8270069,43.1524261 L97.8320917,43.3158758 C97.8320917,44.6883725 96.7622567,45.8109958 95.4110114,45.8953211 L95.2475617,45.9004058 L76.66996,45.9004058 C75.3533598,45.9004058 74.2572604,44.9132824 74.1037282,43.6235731 L74.089107,43.4536904 L72.366087,11.1866948 C72.2899741,9.76132905 73.3837597,8.54414011 74.8091255,8.46802723 C76.1796695,8.39484178 77.3577423,9.40329322 77.514,10.7481197 Z M23.5077278,8.46352763 L23.6712162,8.46716572 C25.0417602,8.54035118 26.1057397,9.6685256 26.1178928,11.022345 L26.1142547,11.1858333 L24.3912347,43.4528289 C24.3210298,44.767556 23.2768636,45.8094597 21.9808023,45.8940025 L21.8103816,45.8995443 L3.23278,45.8995443 C1.8053835,45.8995443 0.648250002,44.7424108 0.648250002,43.3150143 C0.648250002,41.9425177 1.71808496,40.8198944 3.06933026,40.7355691 L3.23278,40.7304843 L19.36,40.73 L20.9525486,10.9102042 C21.025734,9.5396602 22.1539085,8.47568071 23.5077278,8.46352763 Z M34.948926,0.68370887 C36.3214227,0.68370887 37.444046,1.75354383 37.5283713,3.10478912 L37.533456,3.26823887 L37.533456,25.1230246 C37.533456,31.5896442 42.7747573,36.8309454 49.2396539,36.8309454 C55.6084724,36.8309454 60.7894067,31.7496856 60.9473126,25.4207943 L60.9510209,25.1232283 L60.9492979,3.26844263 C60.9491896,1.89586948 62.0190509,0.773128423 63.3703691,0.68879416 L63.5338278,0.68370887 L74.9471123,0.68370887 C76.3745088,0.68370887 77.5316423,1.84084237 77.5316423,3.26823887 C77.5316423,4.64073551 76.4618074,5.7633588 75.1105621,5.84768412 L74.9471123,5.85276887 L66.118,5.852 L66.1200809,25.1230246 C66.1200809,34.3376869 58.7351343,41.8260899 49.5604193,41.9970197 L49.2396539,42.0000054 C40.0270872,42.0000054 32.5383203,34.6171302 32.3673819,25.4437439 L32.364396,25.1230246 L32.364,5.852 L23.5339185,5.85276887 C22.1614219,5.85276887 21.0387986,4.78293391 20.9544733,3.43168862 L20.9493885,3.26823887 C20.9493885,1.89574223 22.0192235,0.773118936 23.3704688,0.688793619 L23.5339185,0.68370887 L34.948926,0.68370887 Z" fill="#00B077"></path>
    </g>
</svg>