<?xml version="1.0" encoding="UTF-8"?>
<svg width="100px" height="100px" viewBox="0 0 100 100" version="1.1" xmlns="http://www.w3.org/2000/svg" xmlns:xlink="http://www.w3.org/1999/xlink">
    <!-- Generator: Sketch 63.1 (92452) - https://sketch.com -->
    <title>Blender</title>
    <desc>Created with Sketch.</desc>
    <g id="Blender" stroke="none" stroke-width="1" fill="none" fill-rule="evenodd">
        <path d="M67.6775549,76.6149957 C69.1049514,76.6149957 70.2620849,77.7721292 70.2620849,79.1995257 C70.2620849,80.5720223 69.19225,81.6946456 67.8410047,81.7789709 L67.6775549,81.7840557 L29.5074929,81.7840557 C26.9450823,81.7840557 24.0960117,83.8761759 23.2706015,86.3194216 L23.2030817,86.535869 L21.8400139,91.2971285 C21.2867496,93.2280756 22.2151318,94.5432383 24.159203,94.6235503 L24.350494,94.6274468 L65.9424738,94.6274468 C67.2074411,94.6274468 68.1607471,94.3323103 68.6125435,93.9403456 L68.7124666,93.8499389 C68.7555854,93.8038227 68.7548603,93.7757796 68.7291882,93.7043874 L66.9913158,89.152008 C66.482035,87.8185562 67.1501576,86.3247262 68.4836095,85.8154454 C69.7637232,85.3265358 71.1916415,85.9227212 71.7544059,87.1509511 L72.3240042,88.627094 L73.5349601,91.7989327 C75.2410587,96.2715935 71.4174181,99.6848804 66.2001653,99.7938229 L65.9424738,99.7965068 L24.350494,99.7965068 C18.9280655,99.7965068 15.4646741,95.3151078 16.8022643,90.1255547 L16.8707452,89.8739104 L18.2335022,85.1137368 C19.5674772,80.4503365 24.3766782,76.7567 29.2276096,76.6189776 L29.5074929,76.6149957 L67.6775549,76.6149957 Z M48.3531964,85.6217381 C49.7805929,85.6217381 50.9377264,86.7788716 50.9377264,88.2062681 C50.9377264,89.5787648 49.8678915,90.7013881 48.5166462,90.7857134 L48.3531964,90.7907981 L41.940116,90.7907981 C40.5127195,90.7907981 39.355586,89.6336646 39.355586,88.2062681 C39.355586,86.8337715 40.4254209,85.7111482 41.7766662,85.6268229 L41.940116,85.6217381 L48.3531964,85.6217381 Z M73.4107317,10.2296196 C78.6239822,10.2296196 82.6076523,14.4665204 82.3197832,19.6304333 L82.3010685,19.898342 L80.0094519,47.1927018 C79.8900288,48.6150938 78.6401407,49.6713587 77.2177487,49.5519356 C75.8500641,49.4371057 74.8208846,48.2770974 74.8499068,46.9235346 L74.8585149,46.7602325 L77.1501277,19.4659181 C77.3348949,17.2647779 75.7867143,15.5080416 73.6160238,15.403594 L73.4107317,15.3986796 L22.4665661,15.3981945 L27.0849536,63.9016871 C27.3116807,66.2774396 29.4670488,68.3014164 31.8408624,68.4184187 L32.0572179,68.4237586 L58.2264456,68.4237586 C60.6088636,68.4237586 62.818675,66.4722128 63.1537553,64.122622 L63.1790052,63.9079695 L67.1316131,21.0823074 C67.2627975,19.6609519 68.5213798,18.6150616 69.9427353,18.7462461 C71.3094233,18.872385 72.3289726,20.0408665 72.2887552,21.394143 L72.2787966,21.5573683 L68.3260946,64.3840479 C67.8615064,69.3961079 63.5110445,73.4458726 58.5003894,73.5889088 L58.2264456,73.5928186 L32.0572179,73.5928186 C27.0259612,73.5928186 22.5871864,69.6377505 21.969118,64.6644033 L21.9392137,64.3921377 L17.0618359,13.1484877 C17.0476994,13.03904 17.0404094,12.9274462 17.0404094,12.8141496 L17.0414766,12.7565006 C17.0418435,12.7387977 17.0423914,12.7211316 17.0431185,12.7035044 L17.0404094,12.8141496 C17.0404094,12.7401827 17.0435166,12.6669416 17.0496075,12.5945495 C17.0512337,12.5788845 17.0527274,12.5628381 17.0543691,12.5468297 C17.057978,12.5088215 17.0626529,12.4714665 17.0681161,12.434368 C17.0708595,12.4177894 17.073433,12.4014368 17.0761608,12.3851306 C17.0819967,12.3483466 17.0889471,12.3116829 17.0966629,12.2753019 C17.1043318,12.2407785 17.1124798,12.2060013 17.1213288,12.1714804 C17.1241774,12.1588526 17.127431,12.1465273 17.1307731,12.1342384 C17.139585,12.1033423 17.148676,12.072287 17.158333,12.0414632 C17.1643758,12.0207423 17.1710882,12.0002081 17.1780489,11.9797889 C17.1870069,11.9549008 17.1958856,11.9301353 17.205131,11.9055377 C17.2142374,11.8799933 17.224181,11.8547494 17.2345069,11.8297034 C17.266605,11.753091 17.3018725,11.6780901 17.3405624,11.6050807 C17.3891892,11.5124289 17.4439366,11.4228926 17.5037495,11.3371527 C17.5747498,11.2356664 17.6524417,11.1395287 17.7366244,11.0493125 C17.757932,11.0266822 17.7793461,11.0045846 17.8011455,10.9828737 C17.8169783,10.9667949 17.8332654,10.9509611 17.8497626,10.9353392 C17.8717434,10.9149163 17.8942413,10.8943807 17.9170979,10.8742427 C17.9294952,10.8628456 17.9420149,10.8520097 17.9546416,10.8412914 L17.9760339,10.8238582 C17.9880229,10.8139145 18.0001032,10.8040771 18.0122734,10.7943474 C18.0798761,10.7396705 18.1503628,10.6888215 18.2234822,10.6415274 C18.236882,10.6335524 18.2498212,10.6253525 18.2628375,10.617265 C18.2929222,10.5978667 18.3240558,10.579403 18.3556194,10.5615773 C18.3684786,10.5550077 18.3807675,10.5482021 18.3931171,10.5414942 C18.4743344,10.4966826 18.5589997,10.4564508 18.6461903,10.4207948 C18.6617751,10.4149977 18.6770559,10.4089139 18.6924077,10.4029725 C18.7235563,10.3903727 18.7553356,10.3787995 18.7874191,10.3678323 C18.8068928,10.3616736 18.8262637,10.3553003 18.8457342,10.3491513 C18.8818308,10.3372865 18.9185585,10.3265898 18.9556418,10.3166859 C18.9662682,10.3142832 18.9762571,10.3116798 18.9862692,10.3091349 C19.0271417,10.2983143 19.069195,10.2887275 19.1116621,10.2801648 C19.1254745,10.2778038 19.1391196,10.2751703 19.1528025,10.2726445 C19.1931028,10.2647633 19.2337875,10.2582278 19.2748138,10.2526367 C19.2895626,10.2511379 19.3042444,10.2492781 19.318964,10.2475419 C19.3392186,10.2445873 19.3599257,10.2423674 19.3807139,10.2403886 L19.4352287,10.2364763 C19.4439703,10.2358421 19.452724,10.2352514 19.4614896,10.2347044 L19.4845661,10.2331945 L19.5506742,10.22975 L19.5506742,10.22975 L73.4107317,10.2296196 Z M48.3531964,58.2451903 C49.7805929,58.2451903 50.9377264,59.4023238 50.9377264,60.8297203 C50.9377264,62.2022169 49.8678915,63.3248402 48.5166462,63.4091655 L48.3531964,63.4142503 L41.940116,63.4142503 C40.5127195,63.4142503 39.355586,62.2571168 39.355586,60.8297203 C39.355586,59.4572236 40.4254209,58.3346003 41.7766662,58.250275 L41.940116,58.2451903 L48.3531964,58.2451903 Z M51.9899747,48.9520819 C53.4173712,48.9520819 54.5745047,50.1092154 54.5745047,51.5366119 C54.5745047,52.9091085 53.5046698,54.0317318 52.1534245,54.1160571 L51.9899747,54.1211419 L38.3005808,54.1211419 C36.8731843,54.1211419 35.7160508,52.9640084 35.7160508,51.5366119 C35.7160508,50.1641153 36.7858858,49.041492 38.1371311,48.9571666 L38.3005808,48.9520819 L51.9899747,48.9520819 Z M48.3531964,39.6605242 C49.7805929,39.6605242 50.9377264,40.8176577 50.9377264,42.2450542 C50.9377264,43.6175509 49.8678915,44.7401742 48.5166462,44.8244995 L48.3531964,44.8295842 L41.940116,44.8295842 C40.5127195,44.8295842 39.355586,43.6724507 39.355586,42.2450542 C39.355586,40.8725576 40.4254209,39.7499343 41.7766662,39.665609 L41.940116,39.6605242 L48.3531964,39.6605242 Z M51.9899747,30.3689666 C53.4173712,30.3689666 54.5745047,31.5261001 54.5745047,32.9534966 C54.5745047,34.3259932 53.5046698,35.4486165 52.1534245,35.5329418 L51.9899747,35.5380266 L38.3005808,35.5380266 C36.8731843,35.5380266 35.7160508,34.3808931 35.7160508,32.9534966 C35.7160508,31.5809999 36.7858858,30.4583767 38.1371311,30.3740513 L38.3005808,30.3689666 L51.9899747,30.3689666 Z M48.3531964,21.0758582 C49.7805929,21.0758582 50.9377264,22.2329917 50.9377264,23.6603882 C50.9377264,25.0328849 49.8678915,26.1555081 48.5166462,26.2398335 L48.3531964,26.2449182 L41.940116,26.2449182 C40.5127195,26.2449182 39.355586,25.0877847 39.355586,23.6603882 C39.355586,22.2878916 40.4254209,21.1652683 41.7766662,21.080943 L41.940116,21.0758582 L48.3531964,21.0758582 Z M64.0051101,1.58419447 C65.4325066,1.58419447 66.5896401,2.74132796 66.5896401,4.16872447 C66.5896401,5.5412211 65.5198051,6.6638444 64.1685598,6.74816972 L64.0051101,6.75325447 L26.2882023,6.75325447 C24.8608058,6.75325447 23.7036723,5.59612097 23.7036723,4.16872447 C23.7036723,2.79622783 24.7735073,1.67360453 26.1247526,1.58927921 L26.2882023,1.58419447 L64.0051101,1.58419447 Z" fill="#00B077"></path>
    </g>
</svg>