<?xml version="1.0" encoding="UTF-8"?>
<svg width="100px" height="100px" viewBox="0 0 100 100" version="1.1" xmlns="http://www.w3.org/2000/svg" xmlns:xlink="http://www.w3.org/1999/xlink">
    <!-- Generator: Sketch 63.1 (92452) - https://sketch.com -->
    <title>Chef</title>
    <desc>Created with Sketch.</desc>
    <g id="Chef" stroke="none" stroke-width="1" fill="none" fill-rule="evenodd">
        <path d="M66.9927143,59.7284417 L67.2778248,59.8528833 C67.8480407,60.1068323 68.6750608,60.5021652 69.6843353,61.0298087 C71.6648441,62.0652086 73.6462533,63.25399 75.5083011,64.5867077 C79.544071,67.4752169 82.48392,70.6353771 83.8345573,74.1597463 C85.7911481,79.2710565 86.2814689,85.876373 86.2814689,96.3113189 C86.2814689,97.6838155 85.2116339,98.8064388 83.8603886,98.8907641 L83.6969389,98.8958489 L16.6938602,98.8958489 C15.2664636,98.8958489 14.1093302,97.7387154 14.1093302,96.3113189 C14.1093302,94.9388222 15.1791651,93.8161989 16.5304104,93.7318736 L16.6938602,93.7267889 L81.1,93.726 L81.0949171,93.2608298 C80.999228,85.439423 80.4919918,80.0859444 79.1125505,76.2903502 L79.0074498,76.0085875 C78.0924041,73.6208566 75.787287,71.1429949 72.4998361,68.7900777 C71.0570789,67.7574576 69.5137047,66.8106064 67.9571502,65.9662012 L67.2895034,65.6106341 L67.123,65.524 L67.0326541,65.6844317 C61.7606532,74.7484276 52.9582321,78.1178417 45.1032942,75.6396273 L45.1035308,87.3524764 C45.1035308,88.7798729 43.9463973,89.9370064 42.5190008,89.9370064 C41.1465042,89.9370064 40.0238809,88.8671714 39.9395556,87.5159261 L39.9344708,87.3524764 L39.9346116,73.0331007 C37.4858485,71.2789794 35.2652903,68.842656 33.4497856,65.7180861 L33.339,65.525 L33.1748495,65.6104505 C31.6154797,66.4248053 30.0568028,67.3439424 28.586303,68.3511959 L27.9617424,68.7882223 C24.6702182,71.1415981 22.3631174,73.6200101 21.4486955,76.0089229 L21.1715648,76.7465752 C20.3906772,78.8728122 20.0560701,80.2454911 19.9447347,81.5914869 L19.915415,82.0300574 C19.8852711,82.5898396 19.8866935,83.0897471 19.9149125,84.3670827 L19.9525446,86.1955192 C19.9580955,86.5878161 19.9607061,86.9545229 19.9607061,87.3533379 C19.9607061,88.7807344 18.8035726,89.9378679 17.3761761,89.9378679 C15.9487796,89.9378679 14.7916461,88.7807344 14.7916461,87.3533379 L14.7873227,86.5358767 C14.7834122,86.1732115 14.77676,85.7974525 14.7670064,85.3527539 L14.728845,83.5289791 C14.7155099,82.612519 14.7269483,82.1449833 14.7699768,81.4812828 C14.9093577,79.3313767 15.4201766,77.2937544 16.6217012,74.1597864 C17.9712235,70.6341792 20.9140943,67.4727889 24.9553529,64.5833675 C26.8182758,63.2514138 28.8006096,62.0633373 30.7820384,61.0285692 L31.5659819,60.6268199 C32.3884582,60.2136265 33.0434242,59.9117628 33.4748417,59.7280395 C34.7623098,59.1797587 36.252298,59.7557289 36.8362369,61.0274211 C43.1448911,74.766301 57.4026094,74.5737247 63.6308708,61.026342 C64.2153679,59.7549751 65.7055216,59.1796744 66.9927143,59.7284417 Z M67.4780894,38.1427752 L67.6414592,38.1499831 C69.0648227,38.257209 70.1317629,39.4979968 70.024537,40.9213602 C69.1608208,52.386706 61.6625105,61.0623838 50.1339598,67.6563931 C48.8949228,68.3650877 47.3159743,67.9351602 46.6072797,66.6961232 C45.8985851,65.4570862 46.3285126,63.8781377 47.5675496,63.1694431 C57.7591668,57.3401225 64.162043,49.9318813 64.8700821,40.5330609 C64.973184,39.1644422 66.1243275,38.1253568 67.4780894,38.1427752 Z M32.3132907,37.4058304 L32.4768075,37.4078168 C33.9028694,37.4695268 35.0088952,38.6756042 34.9471852,40.1016662 C34.636848,47.2732767 38.8064668,53.2599106 45.7253317,56.3034329 C47.0319034,56.8781774 47.6251665,58.4032855 47.0504219,59.7098572 C46.4756774,61.0164289 44.9505692,61.6096919 43.6439976,61.0349474 C34.8634196,57.1724808 29.3755455,49.293129 29.7829581,39.8781945 C29.8422946,38.5069811 30.9596632,37.4316591 32.3132907,37.4058304 Z M50.1943657,0.68457038 C55.4954185,0.68457038 60.3886026,3.27810861 63.1542959,7.2666041 L63.368,7.586 L63.3947909,7.57788807 C64.5739772,7.17074587 65.8496926,6.93324594 67.1468475,6.89342895 L67.536562,6.88744238 C73.8155956,6.88744238 79.0394435,11.4939328 79.0394435,17.3358357 C79.0394435,21.6536358 76.1979482,25.2906066 72.1843298,26.900893 L72.1833747,32.1934371 C72.1833747,33.5659338 71.1135397,34.6885571 69.7622944,34.7728824 L69.5988447,34.7779671 L30.7843731,34.7779671 C29.4118765,34.7779671 28.2892532,33.7081322 28.2049279,32.3568869 L28.1998431,32.1934371 L28.199024,26.8992507 C24.1861887,25.2885129 21.3492879,21.6536089 21.3492879,17.3358357 C21.3492879,11.4915369 26.5690259,6.88744238 32.8556155,6.88744238 C34.2273721,6.88744238 35.5817987,7.11040535 36.8336816,7.52375964 L36.999,7.581 L37.0167534,7.55442672 C39.6592624,3.47482576 44.5046074,0.800194712 49.8453702,0.688227434 L50.1943657,0.68457038 Z M50.1943657,5.85363038 C45.8727428,5.85363038 42.0629401,8.28786093 40.6663777,11.6748848 L40.5728825,11.9127161 C40.0074742,13.4241861 38.2213461,14.0415263 36.8517449,13.2409117 L36.7066704,13.1496818 C35.7097531,12.4770781 34.3049156,12.0565024 32.8556155,12.0565024 C29.2894903,12.0565024 26.5183479,14.5008015 26.5183479,17.3358357 C26.5183479,20.116027 29.1607318,22.5092353 32.6134373,22.6165814 L32.8556155,22.620338 C34.283012,22.620338 35.4401455,23.7774715 35.4401455,25.204868 C35.4401455,26.4568701 34.5499111,27.5009469 33.3679112,27.7386295 L33.368,29.608 L67.014,29.608 L67.013435,27.7364272 C65.8368321,27.4945619 64.952032,26.453043 64.952032,25.204868 C64.952032,23.7774715 66.1091655,22.620338 67.536562,22.620338 C71.0998208,22.620338 73.8703835,20.1779411 73.8703835,17.3358357 C73.8703835,14.5035438 71.0953919,12.0565024 67.536562,12.0565024 C66.1891339,12.0565024 64.87648,12.4201441 63.9030553,13.0083242 L63.6845792,13.1479807 C62.3077719,14.0792476 60.4225451,13.4875115 59.824878,11.9364956 C58.4741333,8.43115492 54.558348,5.85363038 50.1943657,5.85363038 Z" fill="#00B077"></path>
    </g>
</svg>