<?xml version="1.0" encoding="UTF-8"?>
<svg width="100px" height="100px" viewBox="0 0 100 100" version="1.1" xmlns="http://www.w3.org/2000/svg" xmlns:xlink="http://www.w3.org/1999/xlink">
    <!-- Generator: Sketch 63.1 (92452) - https://sketch.com -->
    <title>Fork</title>
    <desc>Created with Sketch.</desc>
    <g id="Fork" stroke="none" stroke-width="1" fill="none" fill-rule="evenodd">
        <path d="M67.0057203,1.41545375 C71.0989433,1.40525042 74.4507541,4.63347656 74.580624,8.68000253 L74.58453,8.92375669 L74.58453,35.5711993 C74.58453,46.2688171 67.0274215,55.3266085 56.1753925,57.9734163 C54.788647,58.3116433 53.3902804,57.461651 53.0520534,56.0749054 C52.7138265,54.6881598 53.5638187,53.2897933 54.9505643,52.9515663 C63.4216485,50.8854705 69.2447743,44.0231997 69.4117812,35.9290806 L69.41547,35.5711993 L69.41547,8.92375669 C69.41547,7.63628712 68.3462938,6.58120454 67.0057203,6.58452193 C65.7375429,6.58135316 64.7115621,7.54617896 64.6282654,8.76965332 L64.6228042,8.93064545 L64.6228042,30.0774138 C64.6228042,33.5925682 61.7636235,36.4084956 58.2715762,36.3853041 C54.8402539,36.3966265 52.0326293,33.7017316 51.9011135,30.304888 L51.8963329,30.0774138 L51.8963413,8.93035809 C51.8930277,7.63304547 50.8294513,6.58120944 49.4883065,6.58452189 C48.222811,6.5813518 47.1911913,7.55000646 47.10742,8.77013177 L47.1019274,8.93064545 L47.1019274,30.0774138 C47.1019274,33.5899651 44.2418601,36.4085604 40.7576583,36.3853041 C37.325637,36.3966288 34.5125228,33.7006235 34.3835356,30.3048157 L34.3789356,30.0774138 L34.3789356,8.92375669 C34.3789356,7.63469269 33.3116294,6.58120182 31.9674461,6.58452193 C30.6992687,6.58135316 29.6732879,7.54617896 29.5899912,8.76965332 L29.58453,8.93064545 L29.58453,35.5711993 C29.58453,43.820331 35.4537767,50.8550868 44.0494357,52.9515663 C45.1491244,53.2197802 45.9392391,54.1691688 46.0155014,55.2849994 L46.0215516,55.4624913 L46.0215516,91.0067663 C46.0215516,92.8863227 47.5742718,94.4194303 49.512265,94.4154754 C51.3706891,94.4192908 52.8751158,92.9897836 52.973346,91.1875966 L52.9784484,90.9998776 L52.9784484,65.5097465 C52.9784484,64.08235 54.1355819,62.9252165 55.5629784,62.9252165 C56.9354751,62.9252165 58.0580984,63.9950515 58.1424237,65.3462968 L58.1475084,65.5097465 L58.1475084,90.9998776 C58.1475084,95.7564412 54.275143,99.5943246 49.5122623,99.5845433 C44.8250196,99.5941425 40.9940844,95.8959173 40.8563272,91.2649824 L40.8524916,91.0067663 L40.852,57.409 L40.602814,57.3274372 C31.0754816,54.0956574 24.579441,45.7349568 24.4185286,35.9436993 L24.41547,35.5711993 L24.41547,8.93064545 C24.41547,4.76516071 27.8040796,1.40504288 31.9674583,1.41545375 C36.0644879,1.40526027 39.4143019,4.63221949 39.544092,8.67992858 L39.5479956,8.92375669 L39.5479873,30.0708649 C39.5495782,30.698731 40.0774524,31.2184604 40.7662863,31.2163151 C41.3738382,31.2203481 41.8635149,30.7779569 41.9261049,30.2026208 L41.9328674,30.0774138 L41.9328674,8.93064545 C41.9328674,4.76706857 45.3299715,1.40502898 49.4883351,1.41545375 C53.5823631,1.40526775 56.9214981,4.62795427 57.0608887,8.67967767 L57.0653929,8.92375669 L57.0653782,30.0686819 C57.0675114,30.7000809 57.5931725,31.2184545 58.2801183,31.2163145 C58.8956933,31.2203804 59.3845535,30.7796041 59.446999,30.2029498 L59.4537442,30.0774138 L59.4537442,8.93064545 C59.4537442,4.76516071 62.8423537,1.40504288 67.0057203,1.41545375 Z" fill="#00B077"></path>
    </g>
</svg>