<?xml version="1.0" encoding="UTF-8"?>
<svg width="100px" height="100px" viewBox="0 0 100 100" version="1.1" xmlns="http://www.w3.org/2000/svg" xmlns:xlink="http://www.w3.org/1999/xlink">
    <!-- Generator: Sketch 63.1 (92452) - https://sketch.com -->
    <title>Grill</title>
    <desc>Created with Sketch.</desc>
    <g id="Grill" stroke="none" stroke-width="1" fill="none" fill-rule="evenodd">
        <path d="M73.6149614,86.7213168 L73.7209201,86.8631638 L79.2655985,94.8321313 C80.0808378,96.0038162 79.7918816,97.6145366 78.6201967,98.429776 C77.497332,99.2110471 75.9712559,98.9782218 75.1285108,97.9262213 L75.022552,97.7843742 L69.4778737,89.8154067 C68.6626343,88.6437218 68.9515905,87.0330014 70.1232754,86.2177621 C71.2461402,85.436491 72.7722163,85.6693162 73.6149614,86.7213168 Z M29.1391976,86.2177621 C30.2620623,86.9990331 30.5742265,88.5108762 29.8807693,89.6667488 L29.7845993,89.8154067 L24.239921,97.7843742 C23.4246816,98.9560592 21.8139612,99.2450154 20.6422763,98.429776 C19.5194116,97.6485049 19.2072474,96.1366619 19.9007046,94.9807893 L19.9968745,94.8321313 L25.5415529,86.8631638 C26.3567923,85.6914789 27.9675126,85.4025227 29.1391976,86.2177621 Z M80.3881773,54.24899 C81.8155738,54.24899 82.9727073,55.4061235 82.9727073,56.83352 C82.9727073,73.8950238 67.9957102,87.6290564 49.6305473,87.6290564 C31.2662503,87.6290564 16.2935563,73.8957817 16.2935563,56.83352 C16.2935563,55.4061235 17.4506898,54.24899 18.8780863,54.24899 C20.3054828,54.24899 21.4626163,55.4061235 21.4626163,56.83352 C21.4626163,70.9364978 34.0261034,82.4599964 49.6305473,82.4599964 C65.236098,82.4599964 77.8036473,70.9354477 77.8036473,56.83352 C77.8036473,55.4061235 78.9607808,54.24899 80.3881773,54.24899 Z M49.6305473,25.179575 C67.8589097,25.179575 82.9727073,32.6277077 82.9727073,42.9215119 C82.9727073,53.2159835 67.8668875,60.6496647 49.6305473,60.6496647 C31.3952306,60.6496647 16.2935563,53.216298 16.2935563,42.9215119 C16.2935563,32.6273926 31.4032061,25.179575 49.6305473,25.179575 Z M49.6305473,30.348635 C33.8958145,30.348635 21.4626163,36.4771816 21.4626163,42.9215119 C21.4626163,44.3482602 22.0719414,45.7589859 23.1916753,47.0908207 L41.5933155,34.205977 C42.762534,33.3872043 44.3741194,33.6712968 45.1928921,34.8405154 C45.9775493,35.9610165 45.749332,37.4877885 44.6998803,38.3337055 L44.5583537,38.440092 L27.3970552,50.4573253 C28.5287533,51.1144422 29.8008085,51.7263606 31.1941897,52.280985 L57.1563816,34.4145202 C58.3322294,33.6052967 59.9414477,33.9025045 60.7506711,35.0783524 C61.526177,36.2052066 61.2855332,37.7300694 60.2292272,38.5674116 L60.0868389,38.6726419 L37.525627,54.2002128 C39.8624718,54.7201598 42.3818725,55.0988423 45.0334237,55.3042243 L68.7141603,38.6630951 C69.8820412,37.8424154 71.494088,38.1238775 72.3147677,39.2917584 C73.1012524,40.4109775 72.875527,41.9381199 71.8274571,42.7857484 L71.6861044,42.8923657 L54.0003408,55.3213935 C67.6135371,54.320786 77.8036473,48.7545444 77.8036473,42.9215119 C77.8036473,36.4778381 65.36623,30.348635 49.6305473,30.348635 Z M67.6035484,1.97549595 C68.3158173,3.21248175 67.8904502,4.79266485 66.6534644,5.5049337 C61.5004056,8.47211669 61.164453,12.827881 65.489228,17.7698512 C66.429243,18.8440171 66.3204921,20.4768334 65.2463261,21.4168485 C64.1721602,22.3568635 62.5393439,22.2481126 61.5993288,21.1739466 C55.2590243,13.9288076 55.8908104,5.73743835 64.0741107,1.02541186 C65.3110965,0.313143009 66.8912796,0.738510146 67.6035484,1.97549595 Z M54.5970908,1.97597492 C55.3090951,3.213113 54.8833901,4.79320512 53.646252,5.50520943 C48.493066,8.47099856 48.1585414,12.8254598 52.4830679,17.7705065 C53.422721,18.8449891 53.31342,20.4777687 52.2389374,21.4174217 C51.1644548,22.3570748 49.5316753,22.2477739 48.5920222,21.1732913 C42.2536806,13.9254699 42.8828373,5.73582197 51.0678563,1.02513612 C52.3049944,0.313131809 53.8850865,0.738836839 54.5970908,1.97597492 Z M41.5886344,1.97597492 C42.3006387,3.213113 41.8749337,4.79320512 40.6377956,5.50520943 C35.4836217,8.47156713 35.1473928,12.8266109 39.4697291,17.7708344 C40.4092011,18.8454753 40.299625,20.4782364 39.2249841,21.4177084 C38.1503432,22.3571804 36.517582,22.2476044 35.57811,21.1729634 C29.2421755,13.9254301 29.8744531,5.7357804 38.0593999,1.02513612 C39.296538,0.313131809 40.8766301,0.738836839 41.5886344,1.97597492 Z" fill="#00B077"></path>
    </g>
</svg>