<?xml version="1.0" encoding="UTF-8"?>
<svg width="100px" height="100px" viewBox="0 0 100 100" version="1.1" xmlns="http://www.w3.org/2000/svg" xmlns:xlink="http://www.w3.org/1999/xlink">
    <!-- Generator: Sketch 63.1 (92452) - https://sketch.com -->
    <title>HandMixer</title>
    <desc>Created with Sketch.</desc>
    <g id="HandMixer" stroke="none" stroke-width="1" fill="none" fill-rule="evenodd">
        <path d="M43.1908607,52.5376865 C44.5633574,52.5376865 45.6859807,53.6075215 45.770306,54.9587668 L45.7753907,55.1222165 L45.7754662,67.6644901 C51.7522557,68.6741977 56.9821495,73.0930464 57.4747657,80.0091933 L57.4957825,80.3645057 L58.5261761,93.4196868 C58.693665,96.9917687 55.539133,99.682906 51.7552296,99.7934863 L51.512875,99.7970237 L37.3479276,99.7970237 C35.9205311,99.7970237 34.7633976,98.6398902 34.7633976,97.2124937 C34.7633976,95.839997 35.8332326,94.7173737 37.1844779,94.6330484 L37.3479276,94.6279637 L40.606,94.6271945 L40.6069059,72.9164248 C39.3084028,73.2441327 38.0564879,73.8383701 36.9468003,74.7232553 C35.8307869,75.6131849 34.2046487,75.4299077 33.3147191,74.3138943 C32.4247895,73.1978808 32.6080667,71.5717426 33.7240801,70.681813 C35.7839044,69.0392714 38.1643143,68.0476791 40.6066266,67.6479244 L40.6063307,55.1222165 C40.6063307,53.69482 41.7634642,52.5376865 43.1908607,52.5376865 Z M17.7359971,52.5376865 C19.1084937,52.5376865 20.231117,53.6075215 20.3154423,54.9587668 L20.3205271,55.1222165 L20.320893,67.7138779 C26.3168227,68.6533793 31.6883718,72.897836 32.0452081,80.4473013 L32.045,80.4461945 L32.040082,80.3660251 L33.0685182,93.4147782 C33.2458793,97.0646826 29.9498259,99.7965068 26.0588729,99.7965068 L26.0588729,99.7965068 L9.41105362,99.7965068 C5.52427213,99.7965068 2.23497369,97.0673521 2.40814736,93.3362394 L2.40814736,93.3362394 L3.42991754,80.4466655 C3.78848417,72.9000021 9.157602,68.6560163 15.1513402,67.7147614 L15.1514671,55.1222165 C15.1514671,53.69482 16.3086006,52.5376865 17.7359971,52.5376865 Z M45.775233,72.9571523 L45.775,94.6271945 L51.512875,94.6279637 C52.6218679,94.6279637 53.2984023,94.1214443 53.3630737,93.8019058 L53.3679855,93.7443528 L52.3376387,80.6901651 C52.1461451,76.6394422 49.2699075,73.8880791 45.775233,72.9571523 Z M15.1513171,73.008635 C11.70721,73.862696 8.79397482,76.4491475 8.58800305,80.7733084 L8.58800305,80.7733084 L7.5664109,93.6590762 C7.54813107,94.0561546 8.23667778,94.6274468 9.41105362,94.6274468 L9.41105362,94.6274468 L15.151,94.6271945 Z M20.3202487,72.9954474 L20.32,94.6271945 L26.0588729,94.6274468 C27.1663382,94.6274468 27.8417934,94.1216115 27.9057338,93.8012485 L27.9105126,93.7435227 L26.8819126,80.6913519 C26.6790034,76.3984706 23.7654783,73.8313941 20.3202487,72.9954474 Z M4.10258814,49.413623 L4.08606439,49.4104506 C4.07768325,49.408813 4.0693166,49.4071349 4.06096466,49.4054166 C4.01665243,49.3963027 3.97258572,49.3860106 3.92896826,49.3746075 C3.9137932,49.3706447 3.89799985,49.3663581 3.88226735,49.3619264 C3.84827877,49.3523446 3.81506838,49.3422464 3.78214859,49.3315053 C3.7545479,49.3225007 3.72707172,49.313015 3.69980984,49.3030835 C3.67890592,49.2954692 3.65801643,49.2875489 3.63725833,49.2793676 C3.60573033,49.2669385 3.57471382,49.2539992 3.54401027,49.2404799 C3.52686253,49.2329312 3.50961335,49.2251087 3.49246657,49.2171035 C3.46955262,49.2064059 3.44681818,49.1953804 3.42427265,49.1840345 C3.39228359,49.1679322 3.36090134,49.1513111 3.32991069,49.134071 C3.31960734,49.1283425 3.30882575,49.1222458 3.29809266,49.1160744 C3.26600521,49.0976171 3.23471605,49.0787218 3.20386888,49.0591913 C3.18999986,49.050413 3.17592347,49.0413105 3.16194209,49.0320757 C3.13226132,49.0124717 3.10299035,48.9922586 3.07416519,48.9714659 C3.05897747,48.9605063 3.04428533,48.9496664 3.02971324,48.9386757 C3.00293296,48.9184785 2.9765029,48.8977272 2.95049446,48.8764793 C2.93605268,48.8646894 2.92105823,48.8521635 2.90620933,48.8394722 C2.88214782,48.8188907 2.8592331,48.7985774 2.83668724,48.7778688 C2.82173631,48.7641435 2.80646617,48.7497808 2.79137249,48.7352363 C2.76142915,48.7063717 2.73250926,48.6771396 2.70429495,48.6472346 C2.69839789,48.6409841 2.69253992,48.6347131 2.68671293,48.6284131 C2.66165561,48.6013138 2.63741387,48.5739624 2.61375234,48.5461027 C2.60215506,48.5324522 2.59044505,48.5183699 2.57888298,48.5041624 C2.56104831,48.4822422 2.54374393,48.460258 2.52679276,48.4379904 C2.50904295,48.4146767 2.49159032,48.3909252 2.47453874,48.3668694 C2.46214794,48.3493883 2.44999328,48.3317827 2.43805326,48.3140208 C2.42281393,48.2913544 2.40782765,48.2682794 2.39320345,48.2449543 C2.37765028,48.2201417 2.36264476,48.1952836 2.34805054,48.170157 C2.33676552,48.150725 2.32580556,48.131277 2.31509216,48.1116751 C2.30169981,48.0871849 2.28842755,48.0619296 2.27556522,48.0364322 C2.26327079,48.0120543 2.25146342,47.9876966 2.24003083,47.9631293 C2.22180788,47.9239631 2.20460535,47.8844315 2.18837682,47.8444009 C2.1858897,47.8382648 2.18349329,47.8322879 2.18111861,47.8263001 C2.16871109,47.795013 2.15690832,47.7634587 2.14571142,47.7316191 C2.12149787,47.6627499 2.10016386,47.5927192 2.08178965,47.521499 C2.06208306,47.4451161 2.04577856,47.3673502 2.03305137,47.2883872 C2.01975715,47.2058813 2.01037651,47.1221933 2.00508475,47.0373972 L2,46.8739475 L2,29.859125 C2,20.0134055 9.95558298,11.9484257 19.7605149,11.7704194 L20.09171,11.767415 L71.3119255,11.767415 C81.0221319,11.767415 89.2089277,17.8988476 89.4002142,25.845921 L89.4036355,26.1305097 L89.4036355,37.9107974 C89.4036355,39.3381939 88.246502,40.4953274 86.8191055,40.4953274 C85.4466089,40.4953274 84.3239856,39.4254925 84.2396603,38.0742472 L84.2345755,37.9107974 L84.2345755,26.1305097 C84.2345755,21.3345696 78.7207632,17.0716708 71.6497993,16.9396261 L71.3119255,16.936475 L20.09171,16.936475 C13.0930786,16.936475 7.33805641,22.5900677 7.17271417,29.5511825 L7.16906,29.859125 L7.169,44.2891945 L94.6519545,44.2894175 C96.079351,44.2894175 97.2364845,45.446551 97.2364845,46.8739475 C97.2364845,48.2464441 96.1666495,49.3690674 94.8154042,49.4533927 L94.6519545,49.4584775 L4.58453,49.4584775 L4.58453,49.4584775 C4.4198304,49.4584775 4.25872898,49.4430718 4.10258814,49.413623 Z M39.6143881,1.58419447 C41.0417846,1.58419447 42.1989181,2.74132796 42.1989181,4.16872447 C42.1989181,5.5412211 41.1290831,6.6638444 39.7778379,6.74816972 L39.6143881,6.75325447 L19.1931551,6.75325447 C17.7657586,6.75325447 16.6086251,5.59612097 16.6086251,4.16872447 C16.6086251,2.79622783 17.67846,1.67360453 19.0297053,1.58927921 L19.1931551,1.58419447 L39.6143881,1.58419447 Z" id="Hand-Mixer" fill="#00B077"></path>
    </g>
</svg>