<?xml version="1.0" encoding="UTF-8"?>
<svg width="100px" height="100px" viewBox="0 0 100 100" version="1.1" xmlns="http://www.w3.org/2000/svg" xmlns:xlink="http://www.w3.org/1999/xlink">
    <!-- Generator: Sketch 63.1 (92452) - https://sketch.com -->
    <title>Knife</title>
    <desc>Created with Sketch.</desc>
    <g id="Knife" stroke="none" stroke-width="1" fill="none" fill-rule="evenodd">
        <path d="M91.8825632,3.49822988 L91.9610673,3.93327262 C92.0454009,4.43889803 92.1452904,5.15476023 92.2433415,6.06725853 C92.9956691,13.0686844 92.6498244,21.6966442 90.4199411,31.3362136 C87.2086986,45.2181037 80.5407028,58.852198 69.6477909,71.5880563 C67.6926337,73.8740021 65.6094916,76.1189797 63.3954453,78.3204438 C62.4312327,79.2791769 60.8995582,79.3209409 59.885907,78.4456775 L59.7509947,78.3206393 L43.607902,62.2727305 C42.5956002,61.2663976 42.5907616,59.6299708 43.5970945,58.6176691 C44.5596738,57.6493805 46.0987473,57.6028539 47.1166802,58.481335 L47.2521559,58.6068617 L61.552,72.822 L62.4010807,71.9288262 C63.2613367,71.0129911 64.0985047,70.0900952 64.9128354,69.1603223 L65.7195629,68.2282638 C76.0568398,56.142047 82.3552595,43.2636275 85.3838697,30.1712392 C87.1058589,22.7272468 87.6287197,15.9505868 87.3720918,10.1840499 L87.344,9.635 L15.1288207,81.4447641 C11.6977838,84.855696 11.8580876,89.236142 14.8484407,92.2096822 C17.8818061,95.2259928 22.3232742,95.3047254 26.0904587,91.5577119 L45.4459914,72.3104523 C46.45848,71.3043074 48.0949058,71.3094499 49.1010507,72.3219385 C50.0634503,73.2904058 50.1005886,74.8297344 49.2159153,75.8422902 L48.9153284,76.1501506 L29.7360139,95.2222867 C23.9226395,101.004534 16.2249435,100.868079 11.2036819,95.8750491 C6.31489785,91.0137517 5.96775674,83.5082528 11.2332391,78.0343688 L87.5248612,2.16728491 C88.9879572,0.712465472 91.4819892,1.47420168 91.8825632,3.49822988 Z" fill="#00B077"></path>
    </g>
</svg>