<?xml version="1.0" encoding="UTF-8"?>
<svg width="100px" height="100px" viewBox="0 0 100 100" version="1.1" xmlns="http://www.w3.org/2000/svg" xmlns:xlink="http://www.w3.org/1999/xlink">
    <!-- Generator: Sketch 63.1 (92452) - https://sketch.com -->
    <title>Oven</title>
    <desc>Created with Sketch.</desc>
    <g id="Oven" stroke="none" stroke-width="1" fill="none" fill-rule="evenodd">
        <path d="M88.9453304,11.8462939 C90.3727269,11.8462939 91.5298604,13.0034274 91.5298604,14.4308239 C91.5298604,15.8033206 90.4600254,16.9259439 89.1087801,17.0102692 L88.9453304,17.0153539 L12.584,17.015 L12.584,94.613 L86.36,94.613 L86.3608004,24.2692681 C86.3608004,22.8967715 87.4306353,21.7741482 88.7818806,21.6898229 L88.9453304,21.6847381 C90.317827,21.6847381 91.4404503,22.7545731 91.5247756,24.1058184 L91.5298604,24.2692681 L91.5298604,97.1978127 C91.5298604,98.5703093 90.4600254,99.6929326 89.1087801,99.7772579 L88.9453304,99.7823427 L10,99.7823427 C8.62750336,99.7823427 7.50488007,98.7125077 7.42055475,97.3612624 L7.41547,97.1978127 L7.41547,14.4308239 C7.41547,13.0583273 8.48530496,11.935704 9.83655025,11.8513787 L10,11.8462939 L88.9453304,11.8462939 Z M67.3031653,39.7142471 C72.5212059,39.7142471 76.7797753,43.9728166 76.7797753,49.1908571 L76.7797753,49.1908571 L76.7797753,76.2784545 C76.7797753,81.496495 72.5212059,85.7550645 67.3031653,85.7550645 L67.3031653,85.7550645 L31.6452664,85.7550645 C26.4259973,85.7550645 22.1686564,81.4969895 22.1686564,76.2784545 L22.1686564,76.2784545 L22.1686564,49.1908571 C22.1686564,43.9723221 26.4259973,39.7142471 31.6452664,39.7142471 L31.6452664,39.7142471 Z M67.3031653,44.8833071 L31.6452664,44.8833071 C29.2809898,44.8833071 27.3377164,46.8269156 27.3377164,49.1908571 L27.3377164,49.1908571 L27.3377164,76.2784545 C27.3377164,78.642396 29.2809898,80.5860045 31.6452664,80.5860045 L31.6452664,80.5860045 L31.86247,80.5855473 L48.849125,62.0059823 C49.8122417,60.95248 51.4470343,60.8792079 52.5005366,61.8423245 C53.5082345,62.7635666 53.6190865,64.2993477 52.7839454,65.3531293 L52.6641943,65.4937362 L38.86647,80.5855473 L48.99347,80.5855473 L71.61047,55.8475473 L71.6107153,49.1908571 C71.6107153,46.8971169 69.7791017,44.9980403 67.5105611,44.8883141 L67.3031653,44.8833071 Z M71.61047,63.5075473 L55.99747,80.5855473 L67.3031653,80.5860045 C69.5969056,80.5860045 71.4959822,78.7543908 71.6057084,76.4858503 L71.6107153,76.2784545 L71.61047,63.5075473 Z M63.1198818,50.2259367 C64.1276492,51.1471026 64.2386172,52.6828754 63.4035556,53.73672 L63.2838151,53.8773359 L59.8015917,57.6869332 C58.8385546,58.7405082 57.2037675,58.8139036 56.1501925,57.8508665 C55.1424251,56.9297005 55.0314571,55.3939278 55.8665187,54.3400832 L55.9862591,54.1994672 L59.4684826,50.38987 C60.4315197,49.336295 62.0663068,49.2628996 63.1198818,50.2259367 Z M73.0480017,25.4737161 C74.7302046,27.155919 74.7302046,29.8833088 73.0480017,31.5655117 C71.3657988,33.2477146 68.638409,33.2477146 66.9562061,31.5655117 C65.2740031,29.8833088 65.2740031,27.155919 66.9562061,25.4737161 C68.638409,23.7915131 71.3657988,23.7915131 73.0480017,25.4737161 Z M31.9884351,25.4737161 C33.670638,27.155919 33.670638,29.8833088 31.9884351,31.5655117 C30.3062322,33.2477146 27.5788424,33.2477146 25.8966395,31.5655117 C24.2144365,29.8833088 24.2144365,27.155919 25.8966395,25.4737161 C27.5788424,23.7915131 30.3062322,23.7915131 31.9884351,25.4737161 Z M57.3149495,25.0735739 C59.2181448,25.0735739 60.7609895,26.6164185 60.7609895,28.5196139 C60.7609895,30.4228092 59.2181448,31.9656539 57.3149495,31.9656539 L57.3149495,31.9656539 L56.3149495,31.9656539 C54.4117541,31.9656539 52.8689095,30.4228092 52.8689095,28.5196139 C52.8689095,26.6164185 54.4117541,25.0735739 56.3149495,25.0735739 L56.3149495,25.0735739 Z M43.629002,25.0735739 C45.5321974,25.0735739 47.075042,26.6164185 47.075042,28.5196139 C47.075042,30.4228092 45.5321974,31.9656539 43.629002,31.9656539 L43.629002,31.9656539 L42.629002,31.9656539 C40.7258067,31.9656539 39.182962,30.4228092 39.182962,28.5196139 C39.182962,26.6164185 40.7258067,25.0735739 42.629002,25.0735739 L42.629002,25.0735739 Z M77.8942247,1.57054726 C79.3216212,1.57054726 80.4787547,2.72768076 80.4787547,4.15507726 C80.4787547,5.5275739 79.4089197,6.6501972 78.0576744,6.73452252 L77.8942247,6.73960726 L58.6308611,6.73960726 C57.2034646,6.73960726 56.0463311,5.58247377 56.0463311,4.15507726 C56.0463311,2.78258063 57.116166,1.65995733 58.4674113,1.57563201 L58.6308611,1.57054726 L77.8942247,1.57054726 Z M40.3141247,1.57054726 C41.7415212,1.57054726 42.8986547,2.72768076 42.8986547,4.15507726 C42.8986547,5.5275739 41.8288197,6.6501972 40.4775744,6.73452252 L40.3141247,6.73960726 L21.0542071,6.73960726 C19.6268106,6.73960726 18.4696771,5.58247377 18.4696771,4.15507726 C18.4696771,2.78258063 19.5395121,1.65995733 20.8907574,1.57563201 L21.0542071,1.57054726 L40.3141247,1.57054726 Z" fill="#00B077"></path>
    </g>
</svg>