<?xml version="1.0" encoding="UTF-8"?>
<svg width="100px" height="100px" viewBox="0 0 100 100" version="1.1" xmlns="http://www.w3.org/2000/svg" xmlns:xlink="http://www.w3.org/1999/xlink">
    <!-- Generator: Sketch 63.1 (92452) - https://sketch.com -->
    <title>OvenMitt</title>
    <desc>Created with Sketch.</desc>
    <g id="OvenMitt" stroke="none" stroke-width="1" fill="none" fill-rule="evenodd">
        <path d="M86.9701958,32.6907183 L86.9744494,33.200166 L86.9744494,91.6294972 C86.9744494,93.0568937 85.8173159,94.2140272 84.3899194,94.2140272 C83.0174228,94.2140272 81.8947995,93.1441922 81.8104741,91.7929469 L81.8053894,91.6294972 L81.8053894,33.200166 C81.8053894,19.3968415 70.1998828,10.7364351 54.8160895,10.8548891 C39.4908613,10.9728922 27.7869894,19.7667813 27.7869894,33.200166 L27.7887019,36.5492456 C27.7927685,37.9766363 26.6389364,39.1370618 25.2115457,39.1411284 C23.8390546,39.1450387 22.7133879,38.0784064 22.6252133,36.7274068 L22.6187919,35.9125094 L22.6179294,33.200166 C22.6179294,16.5436627 36.8851746,5.82374251 54.7762893,5.68598233 C72.5811553,5.54888626 86.6898033,15.9429816 86.9701958,32.6907183 Z M35.2161799,51.3373741 C36.0663315,52.4839791 35.8260086,54.1026702 34.6794035,54.9528218 C33.5327985,55.8029734 31.9141075,55.5626504 31.0639559,54.4160454 C24.5124533,45.5799911 17.2306029,43.0334608 13.2363262,45.8477779 C9.70219429,48.3378827 10.3728192,54.2417978 16.7599848,59.9411108 L17.0542528,60.200017 C21.6637,64.1932913 25.8911977,71.4798089 26.0601087,77.4044222 L26.0653478,77.7654124 L26.067,89.042 L75.1162812,89.0428996 C76.4887778,89.0428996 77.6114011,90.1127345 77.6957264,91.4639798 L77.7008112,91.6274296 C77.7008112,92.9999262 76.6309762,94.1225495 75.2797309,94.2068748 L75.1162812,94.2119596 L23.4825408,94.2119596 C22.1101648,94.2119596 20.9875942,93.1423056 20.903115,91.7911858 L20.8980108,91.6277508 L20.8962879,77.7664927 C20.8950586,73.5806386 17.4983406,67.5660532 13.9182216,64.3270382 L13.6681887,64.1056216 C4.74331407,56.3621524 3.5120317,46.3761234 10.2590693,41.6222456 C16.9386983,36.9158631 27.1784134,40.4967859 35.2161799,51.3373741 Z M75.9246535,49.2150163 C76.8900917,50.1804545 76.9320673,51.7196588 76.0505802,52.7349897 L75.9246535,52.8700937 L69.8794132,58.9159624 C69.7754206,59.5499872 69.4789309,60.1585762 68.9899442,60.6475629 C68.5009575,61.1365496 67.8923685,61.4330393 67.2583437,61.5370319 L61.8923786,66.9023685 C60.8830569,67.9116903 59.246623,67.9116903 58.2373013,66.9023685 C57.2718631,65.9369303 57.2298875,64.397726 58.1113745,63.3823951 L58.2373013,63.2472912 L62.6639639,58.8196426 L57.916718,54.0725186 C56.6745793,52.83038 56.6745793,50.8164753 57.916718,49.5743367 C59.111082,48.3799726 61.0189872,48.3340355 62.268239,49.4365255 L62.4148999,49.5743367 L67.1619639,54.3216426 L72.2695761,49.2150163 C73.2788979,48.2056945 74.9153318,48.2056945 75.9246535,49.2150163 Z M49.8324255,37.8441441 L49.9675295,37.9700709 L54.7949639,42.7976426 L59.5868553,38.007031 C60.5962239,36.9977561 62.2326578,36.997832 63.2419327,38.0072006 C64.2073261,38.9726836 64.2492302,40.5118899 63.3676961,41.5271798 L63.2417631,41.662278 L46.5039639,58.3966426 L51.3549052,63.2474635 C52.364227,64.2567852 52.364227,65.8932191 51.3549052,66.9025408 C50.389467,67.867979 48.8502627,67.9099546 47.8349318,67.0284676 L47.6998278,66.9025408 L39.0485444,58.2512574 C38.0392227,57.2419357 38.0392227,55.6055018 39.0485444,54.59618 C40.0139826,53.6307419 41.5531869,53.5887663 42.5685178,54.4702533 L42.7036218,54.59618 L42.8499639,54.7426426 L51.1399639,46.4526426 L46.3124521,41.6251482 C45.3031304,40.6158265 45.3031304,38.9793926 46.3124521,37.9700709 C47.2778903,37.0046327 48.8170946,36.9626571 49.8324255,37.8441441 Z M73.5718505,61.5827076 L73.7069545,61.7086343 L75.2456113,63.2472912 C76.2549331,64.2566129 76.2549331,65.8930468 75.2456113,66.9023685 C74.2801731,67.8678067 72.7409688,67.9097823 71.7256379,67.0282953 L71.590534,66.9023685 L70.0518771,65.3637117 C69.0425553,64.3543899 69.0425553,62.7179561 70.0518771,61.7086343 C71.0173153,60.7431961 72.5565196,60.7012205 73.5718505,61.5827076 Z M39.4216133,61.8264889 C40.3870515,62.7919271 40.4290271,64.3311314 39.54754,65.3464623 L39.4216133,65.4815663 L38.0018448,66.9013347 C36.9925231,67.9106565 35.3560892,67.9106565 34.3467674,66.9013347 C33.3813293,65.9358965 33.3393537,64.3966922 34.2208407,63.3813613 L34.3467674,63.2462574 L35.7665359,61.8264889 C36.7758577,60.8171671 38.4122916,60.8171671 39.4216133,61.8264889 Z M61.7580167,25.8787006 L61.8931284,26.004619 L66.7409639,30.8516426 L71.5900806,26.0044949 C72.5995326,24.9953035 74.2359665,24.9955146 75.2451579,26.0049666 C76.2104715,26.9705294 76.2522485,28.5097391 75.3706304,29.5249562 L75.2446863,29.660044 L70.3959639,34.5066426 L75.983986,40.0937536 C76.9933694,41.1030136 76.9934695,42.7394475 75.9842094,43.7488309 C75.0188303,44.7143282 73.4796285,44.7563979 72.4642437,43.8749729 L72.3291321,43.7490544 L64.9255215,36.3470854 C64.9213057,36.3429249 64.9171006,36.3387471 64.9129064,36.3345518 L64.8999639,36.3206426 L58.2382745,29.6599199 C57.2288911,28.6506599 57.228791,27.014226 58.238051,26.0048425 C59.2034302,25.0393453 60.7426319,24.9972756 61.7580167,25.8787006 Z M37.867947,25.878804 L38.0030509,26.0047308 L42.8509639,30.8526426 L47.6979902,26.0048454 C48.7072487,24.9954603 50.3436825,24.9953577 51.3530676,26.0046162 C52.3185663,26.9699938 52.3606384,28.5091955 51.4792151,29.5245817 L51.3532968,29.6596935 L37.6173814,43.397332 C36.6081229,44.406717 34.971689,44.4068197 33.962304,43.3975612 C32.9968053,42.4321836 32.9547332,40.8929819 33.8361565,39.8775957 L33.9620748,39.7424838 L39.1949639,34.5076426 L34.3479736,29.6598081 C33.3386518,28.6504864 33.3386518,27.0140525 34.3479736,26.0047308 C35.3134118,25.0392926 36.8526161,24.997317 37.867947,25.878804 Z" id="Oven-Mitt" fill="#00B077"></path>
    </g>
</svg>