<?xml version="1.0" encoding="UTF-8"?>
<svg width="100px" height="100px" viewBox="0 0 100 100" version="1.1" xmlns="http://www.w3.org/2000/svg" xmlns:xlink="http://www.w3.org/1999/xlink">
    <!-- Generator: Sketch 63.1 (92452) - https://sketch.com -->
    <title>RollingPin</title>
    <desc>Created with Sketch.</desc>
    <g id="RollingPin" stroke="none" stroke-width="1" fill="none" fill-rule="evenodd">
        <path d="M93.1012177,6.70809615 C96.6444469,10.2513253 96.7125859,15.9918337 93.3056348,19.6218291 L93.1012177,19.8328914 L85.886933,27.0471762 C84.8776112,28.0564979 83.2411773,28.0564979 82.2318556,27.0471762 C81.2664174,26.081738 81.2244418,24.5425337 82.1059289,23.5272028 L82.2318556,23.3920988 L89.4455359,16.1784187 C91.0404025,14.5824966 91.0404025,11.9574357 89.4461403,10.3631735 C87.906624,8.82365718 85.4027689,8.7726478 83.7978138,10.2106998 L83.6350669,10.3647755 L72.4525958,21.548 L87.6408391,36.7343483 C88.6502317,37.7435992 88.6503465,39.3800331 87.6410955,40.3894257 C86.6757251,41.3549316 85.1365237,41.3970151 84.121131,40.5155993 L83.9860182,40.389682 L61.248,17.654463 L16.815,62.086463 L37.724,82.997463 L78.2103641,42.5134484 C79.175822,41.5480298 80.7150271,41.5060856 81.7303401,42.3875933 L81.8654415,42.5135228 C82.83086,43.4789806 82.8728043,45.0181858 81.9912966,46.0334987 L81.8653671,46.1686001 L39.5514419,88.4808023 C38.5859501,89.4462548 37.0466793,89.4881632 36.0313735,88.6065773 L35.8962736,88.4806369 L20.7095958,73.291 L9.52647722,84.4731929 C7.93237966,86.0672904 7.93205021,88.6923514 9.52354431,90.2849013 C11.0664033,91.8257195 13.5716771,91.8770801 15.1766509,90.4400753 L15.3393947,90.2861104 L22.5536795,83.0718256 C23.5630012,82.0625039 25.1994351,82.0625039 26.2087569,83.0718256 C27.1741951,84.0372638 27.2161706,85.5764681 26.3346836,86.591799 L26.2087569,86.726903 L18.9938671,93.9417926 C15.3813014,97.5519674 9.48523813,97.5519674 5.86907197,93.9405827 C2.32776314,90.3969286 2.26037294,84.6564124 5.66711709,81.0289075 L5.87152088,80.8179944 L17.0535958,69.635 L11.3329005,63.9138177 C10.3675656,62.9483475 10.3256605,61.4092091 11.2071366,60.3939325 L11.3330614,60.2588358 L59.4208266,12.1727936 C60.3862219,11.2074329 61.9253108,11.1654216 62.9406387,12.0467884 L63.075743,12.1726982 L68.7975958,17.893 L79.9798685,6.70981917 C83.5923033,3.09738434 89.4897657,3.0966441 93.1012177,6.70809615 Z" id="Rolling-Pin" fill="#00B077"></path>
    </g>
</svg>