<?xml version="1.0" encoding="UTF-8"?>
<svg width="100px" height="100px" viewBox="0 0 100 100" version="1.1" xmlns="http://www.w3.org/2000/svg" xmlns:xlink="http://www.w3.org/1999/xlink">
    <!-- Generator: Sketch 63.1 (92452) - https://sketch.com -->
    <title>Salt&amp;Pepper</title>
    <desc>Created with Sketch.</desc>
    <g id="Salt&amp;Pepper" stroke="none" stroke-width="1" fill="none" fill-rule="evenodd">
        <path d="M53.8441423,28.9446165 C54.7348279,5.51258671 93.8960794,5.51258671 94.7754633,28.9458028 L94.7754633,28.9458028 L96.3533681,80.8139291 C96.553482,86.0902657 92.3749203,90.4302875 87.0937273,90.4302875 L87.0937273,90.4302875 L61.5274704,90.4302875 C56.2461518,90.4302875 52.0660835,86.0901403 52.2655641,80.8323239 L52.2655641,80.8323239 Z M4.64052241,28.9444187 C5.53309034,5.51261966 44.695727,5.51261966 45.5751096,28.9458028 L45.5751096,28.9458028 L47.1530534,80.8149615 C47.3509383,86.0911518 43.1739226,90.4302875 37.8933736,90.4302875 L37.8933736,90.4302875 L12.3254798,90.4302875 C7.04299824,90.4302875 2.8613459,86.0884956 3.0652057,80.8324787 L3.0652057,80.8324787 Z M89.8683104,29.1299547 C89.2254061,11.9982833 59.4024505,11.9982833 58.751842,29.1125385 L58.751842,29.1125385 L57.1732717,81.0000382 C57.0787282,83.4928357 59.0308163,85.5196805 61.5274704,85.5196805 L61.5274704,85.5196805 L87.0937273,85.5196805 C89.5898866,85.5196805 91.5408513,83.4933302 91.4456604,80.9816434 L91.4456604,80.9816434 Z M40.6679568,29.1299547 C40.0250512,11.9982503 10.200207,11.9982503 9.54821934,29.1123838 L9.54821934,29.1123838 L7.97283886,81.0021031 C7.87627402,83.4928462 9.82835196,85.5196805 12.3254798,85.5196805 L12.3254798,85.5196805 L37.8933736,85.5196805 C40.3890485,85.5196805 42.3394559,83.4935731 42.2453068,80.9816434 L42.2453068,80.9816434 Z M75.2773336,56.6192851 C79.5419184,56.6192851 82.4196598,59.6522328 82.3871887,63.4431428 C82.3556609,67.123927 79.5886942,70.0986748 75.5376414,70.2210251 L75.2773336,70.2249402 L71.867,70.224 L71.8677355,73.8064096 C71.8677355,75.1081952 70.854642,76.1733602 69.5738689,76.2564905 L69.412432,76.2617131 C68.1106464,76.2617131 67.0454815,75.2486196 66.9623511,73.9678465 L66.9571285,73.8064096 L66.9571285,63.7331178 C66.9571285,58.9993963 70.3468036,56.6192851 75.2773336,56.6192851 Z M31.1061847,59.0730626 C32.059591,60.0373368 32.0507809,61.591924 31.0865067,62.5453303 C30.1641575,63.4572842 28.7017109,63.4888737 27.7419077,62.6460082 L27.614239,62.5256524 C26.6370203,61.5372944 24.8040605,61.2287153 24.0484717,61.8784473 C23.3744427,62.4569587 23.5228041,63.1115418 25.5938791,63.8155982 L25.8074364,63.8861678 C31.0502878,65.5694097 33.2903864,68.2147997 32.0702668,72.2727864 C30.7238102,76.7569679 24.4757095,77.4249146 19.1069852,74.4451728 C17.9213345,73.7871146 17.4936362,72.2924932 18.1516944,71.1068424 C18.8097526,69.9211916 20.3043741,69.4934934 21.4900248,70.1515516 C23.1585042,71.0775887 24.8322238,71.4614742 26.1237987,71.3233998 C26.9633972,71.2336433 27.3261076,70.9971149 27.3673667,70.8597079 C27.6496774,69.9207725 27.3174644,69.5284537 24.3055106,68.5614516 C18.5313649,66.7054019 17.1036049,61.3678335 20.8485,58.1536335 C23.791664,55.6227969 28.4742315,56.4111079 31.1061847,59.0730626 Z" id="SaltandPepper" fill="#00B077"></path>
    </g>
</svg>