<?xml version="1.0" encoding="UTF-8"?>
<svg width="100px" height="100px" viewBox="0 0 100 100" version="1.1" xmlns="http://www.w3.org/2000/svg" xmlns:xlink="http://www.w3.org/1999/xlink">
    <!-- Generator: Sketch 63.1 (92452) - https://sketch.com -->
    <title>Spoon</title>
    <desc>Created with Sketch.</desc>
    <g id="Spoon" stroke="none" stroke-width="1" fill="none" fill-rule="evenodd">
        <path d="M49.9752302,0.70007756 C63.8105331,0.70007756 74.8453009,13.6324129 74.8453009,29.4055908 C74.8453009,45.1810639 63.8101308,58.117996 49.9752302,58.117996 C48.811812,58.117996 47.6681847,58.0264684 46.5492498,57.8494234 L46.5495163,90.3282751 C46.5534502,92.221466 48.0838667,93.7491562 49.9819688,93.745244 C51.8057629,93.7490264 53.2945283,92.3217442 53.3917528,90.5149716 L53.3968034,90.3267535 L53.3968034,64.8243345 C53.3968034,63.396938 54.5539369,62.2398045 55.9813334,62.2398045 C57.35383,62.2398045 58.4764533,63.3096394 58.5607786,64.6608847 L58.5658634,64.8243345 L58.5658634,90.3267535 C58.5658634,95.0786473 54.7188524,98.9241391 49.981966,98.9143117 C45.3233323,98.9239495 41.5305058,95.2226066 41.3847875,90.5918484 L41.3804619,90.3336456 L41.3798915,56.3639814 C31.8408106,52.3176883 25.1086056,41.7271273 25.1086056,29.4055908 C25.1086056,13.6330868 36.1427698,0.70007756 49.9752302,0.70007756 Z M49.9752302,5.86913756 C39.1957551,5.86913756 30.2776656,16.3219215 30.2776656,29.4055908 C30.2776656,42.4918495 39.196581,52.948936 49.9752302,52.948936 C60.7568637,52.948936 69.6762409,42.492425 69.6762409,29.4055908 C69.6762409,16.3213462 60.7576897,5.86913756 49.9752302,5.86913756 Z" fill="#00B077"></path>
    </g>
</svg>