<?xml version="1.0" encoding="UTF-8"?>
<svg width="100px" height="100px" viewBox="0 0 100 100" version="1.1" xmlns="http://www.w3.org/2000/svg" xmlns:xlink="http://www.w3.org/1999/xlink">
    <!-- Generator: Sketch 63.1 (92452) - https://sketch.com -->
    <title>Bat</title>
    <desc>Created with Sketch.</desc>
    <g id="Bat" stroke="none" stroke-width="1" fill="none" fill-rule="evenodd">
        <path d="M69.3498218,37.9139936 C72.5561843,44.1959608 72.9152791,49.8881353 70.8022342,55.361598 C69.3536011,59.1140214 67.3301273,61.9792538 63.0471981,66.8633971 L60.41546,69.8326761 C55.6132091,75.295676 53.676777,78.1554152 52.6247143,81.8738007 C51.912237,84.3919635 48.3428852,84.3917711 47.6306795,81.8735314 C46.5312456,77.9861179 44.4648077,75.037217 39.1671681,69.0707357 L37.5608876,67.2638973 C33.0351371,62.1332937 30.9410669,59.2154127 29.4533621,55.361549 C27.3403904,49.8879464 27.7000519,44.1956595 30.9075447,37.9136674 C31.5592681,36.6372433 33.1223405,36.1308233 34.3987646,36.7825467 C35.6751887,37.4342701 36.1816087,38.9973425 35.5298853,40.2737666 C32.9840929,45.2597941 32.7214869,49.4160046 34.2951282,53.4924848 C35.465961,56.5254992 37.2509738,59.0430302 41.1737448,63.5130555 L43.4604393,66.0903667 C46.4592919,69.4860708 48.5040609,72.0204006 49.9632198,74.3924618 L50.128,74.663 L50.2926524,74.3925539 C51.7539776,72.0171014 53.8024962,69.4789017 56.8083055,66.075834 L59.0820062,63.5131321 C63.004499,59.043229 64.7895698,56.5255351 65.9605059,53.4924358 C67.5342834,49.4158483 67.2720783,45.2595164 64.7271482,40.2734404 C64.075605,38.9969243 64.5822455,37.4339235 65.8587616,36.7823802 C67.1352777,36.130837 68.6982785,36.6374775 69.3498218,37.9139936 Z M60.1145289,18.7400763 C62.6551016,27.5297735 66.0383979,30.1238088 69.4001315,28.7654354 C72.3978786,27.5541378 74.9044144,23.4375854 74.5232002,20.8086099 L74.4910271,20.6234151 C74.1637582,19.0152459 75.3927743,17.510929 77.033906,17.510929 C90.6847003,17.510929 99.432216,28.3462762 99.432216,49.401749 C99.432216,51.7983587 96.4611469,52.914061 94.8836417,51.1098393 C92.4187712,48.2907216 90.3066858,47.9687302 88.5731439,49.4017516 C86.579058,51.0501501 85.4176128,54.6653597 85.941212,58.5758195 C86.2197929,60.656379 84.04134,62.1895426 82.1768892,61.2250953 C79.3821407,59.7794216 77.2785705,60.3063767 75.481437,62.3766298 C74.0061154,64.0761634 73.0572045,66.7387401 73.2136832,67.5645998 C73.480486,68.9727256 72.5552609,70.3305234 71.1471352,70.5973262 C69.7390094,70.864129 68.3812116,69.9389039 68.1144088,68.5307782 C67.6303983,65.9762783 69.1253712,61.7814905 71.5621425,58.9743907 C73.9527013,56.2205266 77.0651725,54.8492633 80.5174273,55.2989705 L80.678,55.321 L80.6910025,55.1490259 C81.0172969,51.2609812 82.5594433,47.7760076 85.0318964,45.6015429 L85.2664056,45.4015539 C87.8598146,43.2577287 90.9652701,42.8243059 93.9729867,44.0695028 L94.037,44.097 L94.002924,43.6928229 C92.8520299,30.7308032 87.6176282,24.1102858 79.7769781,22.9038541 L79.624,22.881 L79.616248,22.9366029 C78.9399456,27.230289 75.6964677,31.6798822 71.6176572,33.4625828 L71.344518,33.5774476 C66.6363238,35.4798844 62.2093747,33.7535099 58.8445224,28.670256 L58.611,28.31 L58.553386,28.5471892 C58.163974,30.1106935 57.7641211,31.3055141 57.2993165,32.3256453 L57.2212383,32.494083 C55.747734,35.6187797 53.465361,37.054739 50.127216,37.054739 C46.7889267,37.054739 44.5064611,35.6186206 43.033454,32.4937178 C42.5351668,31.4366292 42.1126802,30.1967737 41.701995,28.5462264 L41.644,28.312 L41.6063015,28.3732776 C38.276073,33.5957196 33.8644759,35.4533577 29.1567881,33.6728246 L28.9130269,33.5774821 C24.8022084,31.9165963 21.4858625,27.5318699 20.6906253,23.2370426 L20.631,22.881 L20.4774539,22.9038541 C12.6368038,24.1102858 7.40240209,30.7308032 6.25150804,43.6928229 L6.217,44.096 L6.28065117,44.0695686 C9.20463681,42.8588904 12.2212587,43.234911 14.769993,45.2267963 L14.987297,45.4014872 C17.5969333,47.5585495 19.2267379,51.1394947 19.5633584,55.1490437 L19.576,55.322 L19.7371122,55.2989779 C23.0962642,54.8614179 26.1339897,56.147687 28.4979852,58.7539595 L28.6934177,58.9741958 C31.1316562,61.7824211 32.6265943,65.9785276 32.1394763,68.5336559 C31.8710841,69.9414796 30.5122428,70.8651714 29.1044191,70.5967793 C27.6965954,70.3283871 26.7729036,68.9695458 27.0412957,67.5617221 C27.198323,66.7380517 26.2500242,64.0762943 24.7744618,62.3768247 C22.9768745,60.3064652 20.8723938,59.7793685 18.0775428,61.2250953 C16.213092,62.1895426 14.0346391,60.656379 14.31322,58.5758195 C14.8367943,54.6655455 13.6751006,51.0503251 11.68072,49.4018183 C9.99381844,48.0074662 7.94895611,48.2745881 5.5700125,50.8865038 L5.37099437,51.1096059 C3.79360414,52.9141312 0.822216,51.7985117 0.822216,49.401749 C0.822216,28.3462762 9.56973168,17.510929 23.220526,17.510929 C24.8046256,17.510929 26.00487,18.912552 25.7919006,20.456417 L25.7636279,20.6223181 C25.2322091,23.2394384 27.787691,27.5252161 30.8572426,28.7654009 C34.2194672,30.1238338 37.6027656,27.5298592 40.1433631,18.7400763 C40.9136563,16.0750691 44.7657695,16.3149964 45.1994145,19.0549903 L45.4673202,20.7203583 C47.0524023,30.3950199 47.8628248,31.864739 50.127216,31.864739 L50.3101055,31.861292 C52.5564457,31.7733848 53.3326034,29.9398 55.0585935,19.0542575 C55.4929583,16.3147889 59.3443485,16.0754594 60.1145289,18.7400763 Z" fill="#00B077"></path>
    </g>
</svg>