<?xml version="1.0" encoding="UTF-8"?>
<svg width="100px" height="100px" viewBox="0 0 100 100" version="1.1" xmlns="http://www.w3.org/2000/svg" xmlns:xlink="http://www.w3.org/1999/xlink">
    <!-- Generator: Sketch 63.1 (92452) - https://sketch.com -->
    <title>Broom</title>
    <desc>Created with Sketch.</desc>
    <g id="Broom" stroke="none" stroke-width="1" fill="none" fill-rule="evenodd">
        <path d="M92.3701843,1.03884847 L92.5058291,1.16531395 L98.7044191,7.36563395 C99.6735547,8.33504 99.7155672,9.88033405 98.8305475,10.8996713 L98.7041169,11.0353083 L66.8300966,42.9071382 C67.6286099,43.5509176 68.2500986,44.3740104 68.6571874,45.3689639 L68.742325,45.5880485 C70.5510921,50.4965068 65.8373909,54.7672134 58.9605884,54.5438087 C57.5281652,54.497274 56.4046806,53.2983417 56.4512153,51.8659184 C56.49775,50.4334952 57.6966823,49.3100106 59.1291056,49.3565453 C61.2317256,49.4248525 62.704914,48.9767846 63.46892,48.2845801 C63.8732881,47.9182146 63.9584528,47.6159868 63.872449,47.382598 C63.7364007,47.0134031 63.2059942,46.6268905 62.1718159,46.458655 C60.5263619,46.1909799 58.210192,46.618697 55.3952371,47.9149294 C53.2056632,48.9231858 50.9443134,46.6614984 51.9528967,44.472075 C53.2494233,41.657587 53.6772977,39.3419596 53.4097133,37.6971008 C53.2415683,36.6635022 52.8552414,36.1335385 52.4860165,35.9975683 C52.252116,35.9114325 51.9490951,35.9968223 51.5822554,36.4015541 C50.8897451,37.1655962 50.4414093,38.6385119 50.5094007,40.7406587 C50.555731,42.1730885 49.4320752,43.3718605 47.9996453,43.4181907 C46.5672155,43.464521 45.3684435,42.3408652 45.3221133,40.9084353 C45.0997206,34.0325396 49.3712457,29.3197935 54.27953,31.1273107 C55.3734895,31.5301705 56.2703473,32.1827615 56.9609113,33.0389741 L88.8357351,1.16501174 C89.8051871,0.195608525 91.3507793,0.153584359 92.3701843,1.03884847 Z M90.67,6.669 L58.6534291,38.6865241 C58.6471803,39.5342927 58.5597376,40.4290307 58.3890588,41.360495 L58.36,41.507 L58.5078897,41.4790608 C59.4398435,41.3083826 60.3350368,41.2209953 61.1832141,41.2148541 L93.199,9.2 L90.67,6.669 Z M37.8595552,48.3264531 C39.2964008,48.3281304 40.4569148,49.4912571 40.4553034,50.9244351 C40.4537539,52.3024909 39.3783183,53.4284535 38.0215047,53.5115949 L37.8573872,53.5165157 L36.3451251,53.5319315 L34.7784094,53.5657592 C34.0528291,53.5849289 33.2897725,53.6097941 32.4954007,53.6410823 C28.5535245,53.7963421 24.6188033,54.0767298 20.9605161,54.5117763 C15.9367185,55.1092103 11.84994,55.9543254 9.10322785,57.0423419 C7.13151626,57.8233684 6.28419215,58.4693877 6.09685919,58.9768641 L6.072,59.058 L6.08604514,59.0642377 C6.54276474,59.2451739 7.26421876,59.3869874 8.20417899,59.4658066 L8.49267602,59.4875387 C10.6420196,59.6317794 13.5925449,59.4580838 17.1102438,59.0168451 C19.0892201,58.7686144 21.1915566,58.4430057 23.3596483,58.0587076 C24.896298,57.7863338 26.3935312,57.4975616 27.8104197,57.2061578 L29.6300862,56.8210323 L30.7590241,56.5686277 C33.8687052,55.8431652 35.2476648,60.2428036 32.406301,61.4666855 L32.2471171,61.5302433 C32.0992352,61.5848245 31.8084086,61.6952997 31.3952889,61.8573193 L30.5224115,62.2051905 C30.0677669,62.3891555 29.5868102,62.5879517 29.0840275,62.8006209 C26.6924566,63.8122175 24.3024268,64.9262156 22.083648,66.103897 C17.6012853,68.4830416 14.4292771,70.8220041 13.3209597,72.6783338 C12.9258537,73.3401001 12.9024508,73.667968 13.1083831,74.0090881 C13.2706947,74.2782573 13.6959635,74.4064024 14.8313509,74.2253704 C16.2942367,73.9921204 18.2615941,73.2220068 20.5602112,72.0010575 C21.8818881,71.2990264 23.2827045,70.4651105 24.7338144,69.5272236 C26.4347193,68.4278882 28.1138421,67.2458948 29.6932161,66.0638775 L30.330242,65.5828525 C30.5337457,65.4277697 30.7282092,65.2781641 30.9130272,65.1346905 L31.7085187,64.5069932 C34.1301845,62.5391931 37.3265818,65.7349429 35.3592723,68.1570073 L34.9422412,68.6826312 L34.51212,69.236997 C34.2880278,69.5284995 34.0508792,69.8410274 33.8028838,70.1725374 C32.6212353,71.752116 31.43961,73.4314898 30.3406154,75.1326936 C29.4025405,76.5847995 28.5685137,77.9865772 27.8664784,79.3091407 C26.6461516,81.608113 25.8765415,83.5758366 25.6435974,85.0391915 C25.4627091,86.1755318 25.5912474,86.6020786 25.8602352,86.7644283 C26.1997521,86.9691455 26.5274489,86.9456692 27.1886981,86.5508746 C29.0451182,85.4425108 31.3842973,82.2697382 33.7636332,77.7862088 C34.9413394,75.5669842 36.0553566,73.1764764 37.0669679,70.7844274 L37.4735308,69.8090974 C37.6026966,69.494576 37.7254126,69.1910865 37.841395,68.8999582 L38.3373655,67.6206966 C39.4429483,64.6246739 43.8758273,65.8949536 43.3335185,68.9410931 L42.9787425,70.5496168 C42.9327954,70.7624807 42.885234,70.9851724 42.8362487,71.2171309 C42.48579,72.8766457 42.1351559,74.6636362 41.8081472,76.5073892 C41.4236169,78.6754619 41.0978193,80.7777805 40.8494581,82.7567291 C40.4080254,86.2740766 40.2342919,89.2242909 40.378669,91.3733428 C40.4447075,92.3563246 40.5761483,93.1254345 40.7490951,93.6344605 L40.808,93.793 L40.8251859,93.7898954 C41.3213484,93.6595786 41.9552005,92.8894074 42.7243959,91.0148472 L42.8254931,90.7640381 C43.9135034,88.0174411 44.7586082,83.9305406 45.3560192,78.906481 C45.7910089,75.2483379 46.07136,71.3137724 46.2265996,67.3720523 L46.2688001,66.2047974 C46.2875829,65.6336828 46.3029579,65.0819149 46.3152319,64.552093 L46.3424386,63.0789347 L46.3511498,62.010107 L46.3560708,61.846159 C46.4392123,60.4893455 47.565175,59.41391 48.9432308,59.4123606 C50.3212866,59.4108113 51.4496646,60.4837122 51.5358568,61.8403354 L51.5411467,62.0044415 L51.5323893,63.2279441 C51.5185217,64.2635179 51.4869605,65.5929426 51.4290368,67.146957 L51.4125793,67.5762955 C51.2523596,71.6444641 50.962677,75.7099929 50.5097115,79.5193065 C49.8638025,84.9512213 48.9391317,89.4229003 47.6506989,92.6754484 C45.8047285,97.3354562 42.9766616,99.8998089 39.0811839,98.7751822 C36.4524182,98.0158002 35.4540503,95.4976822 35.2003417,91.7212319 C35.0863638,90.0246709 35.1333595,88.0159413 35.3193559,85.7338213 L35.36,85.255 L35.1977,85.4941013 C33.5319654,87.9114469 31.8532724,89.7266808 30.1228911,90.8375349 L29.8492379,91.0070645 C27.6506624,92.3197099 25.3015171,92.488003 23.1793527,91.2084093 C20.8032094,89.7742719 20.0384691,87.236527 20.5181304,84.2232944 C20.8580037,82.0882101 21.817066,79.6360989 23.2822801,76.8757838 C23.3932606,76.6667077 23.5069231,76.456345 23.623192,76.2447549 L22.9948298,76.5845858 C20.2349063,78.0505659 17.783223,79.0102667 15.6485487,79.3506302 C12.6352979,79.8310784 10.09737,79.0663313 8.66458111,76.6902673 C7.38354145,74.5682713 7.5513232,72.2176964 8.86477782,70.0177807 C9.95565158,68.1906674 11.8327084,66.4230475 14.3766998,64.669776 L14.618,64.505 L14.1326881,64.5468127 C12.0406817,64.7172411 10.1784204,64.7709463 8.57578416,64.6910162 L8.14516099,64.6658911 C4.36839923,64.4124357 1.85055945,63.4149564 1.09038642,60.7852141 C-0.0325643928,56.8904598 2.53203145,54.0629518 7.19187741,52.2171125 C10.4444855,50.9287025 14.9160222,50.0040223 20.3476356,49.3580904 C23.7338321,48.9554012 27.3224782,48.6817427 30.9354726,48.5133589 L32.291139,48.4551034 C34.7551223,48.3580537 36.6977059,48.3258598 37.8595552,48.3264531 Z M45.1436928,44.4860397 L45.279355,44.6124648 L55.257995,54.5893748 C56.2714934,55.6026975 56.2716358,57.2457606 55.2583132,58.259259 C54.289048,59.2286923 52.743612,59.2709719 51.7240912,58.3860023 L51.588429,58.2595772 L41.609789,48.2826672 C40.5962906,47.2693445 40.5961482,45.6262814 41.6094708,44.612783 C42.578736,43.6433497 44.124172,43.6010701 45.1436928,44.4860397 Z" fill="#00B077"></path>
    </g>
</svg>