<?xml version="1.0" encoding="UTF-8"?>
<svg width="100px" height="100px" viewBox="0 0 100 100" version="1.1" xmlns="http://www.w3.org/2000/svg" xmlns:xlink="http://www.w3.org/1999/xlink">
    <!-- Generator: Sketch 63.1 (92452) - https://sketch.com -->
    <title>Fortune</title>
    <desc>Created with Sketch.</desc>
    <g id="Fortune" stroke="none" stroke-width="1" fill="none" fill-rule="evenodd">
        <path d="M49.796002,0.670901 C27.732287,0.670901 9.852032,18.5517281 9.852032,40.616601 C9.852032,62.678586 27.7328591,80.558841 49.796002,80.558841 C71.8597102,80.558841 89.736512,62.6797508 89.736512,40.616601 C89.736512,18.5505632 71.8602823,0.670901 49.796002,0.670901 Z M49.796002,5.860901 C68.9937013,5.860901 84.546512,21.416698 84.546512,40.616601 C84.546512,59.8135417 68.9932036,75.368841 49.796002,75.368841 C30.5991798,75.368841 15.042032,59.812191 15.042032,40.616601 C15.042032,21.4180488 30.598682,5.860901 49.796002,5.860901 Z M30.2681875,21.0866893 C41.0532654,10.2997019 58.5329991,10.3008827 69.3203565,21.0901493 C70.3336773,22.1036495 70.3335319,23.7467126 69.3200317,24.7600335 C68.3065315,25.7733543 66.6634684,25.7732089 65.6501475,24.7597087 C56.8895746,15.9975852 42.6964681,15.9966264 33.9382341,24.7564111 C25.1771446,33.5175006 25.1771446,47.7125874 33.9382341,56.4736769 C34.9516446,57.4870874 34.9516446,59.1301506 33.9382341,60.1435611 C32.9248236,61.1569716 31.2817604,61.1569716 30.2683499,60.1435611 C19.4804394,49.3556506 19.4804394,31.8744374 30.2681875,21.0866893 Z M81.726785,94.091247 C83.1599639,94.091247 84.321785,95.2530681 84.321785,96.686247 C84.321785,98.0643037 83.2476161,99.1914747 81.8908969,99.2761417 L81.726785,99.281247 L17.862105,99.281247 C16.4289261,99.281247 15.267105,98.1194259 15.267105,96.686247 C15.267105,95.3081903 16.3412739,94.1810193 17.6979931,94.0963523 L17.862105,94.091247 L81.726785,94.091247 Z M74.1152567,76.070415 C75.3214805,75.4086052 76.8234963,75.8058142 77.5516515,76.9503057 L77.638563,77.0972367 L82.641723,86.2160667 C83.5634634,87.8960438 82.4089547,89.9388312 80.5339371,90.0541905 L80.366659,90.059309 L19.224999,90.059309 C17.3087713,90.059309 16.0731777,88.064521 16.8739587,86.3651833 L16.949935,86.2160667 L21.953095,77.0972367 C22.6424802,75.8407536 24.2199181,75.3810298 25.4764013,76.070415 C26.6826251,76.7322248 27.1545555,78.212464 26.580456,79.4414801 L26.503223,79.5937213 L23.608,84.869 L75.983,84.869 L73.088435,79.5937213 C72.4266252,78.3874975 72.8238342,76.8854817 73.9683257,76.1573265 L74.1152567,76.070415 Z" fill="#00B077"></path>
    </g>
</svg>