<?xml version="1.0" encoding="UTF-8"?>
<svg width="100px" height="100px" viewBox="0 0 100 100" version="1.1" xmlns="http://www.w3.org/2000/svg" xmlns:xlink="http://www.w3.org/1999/xlink">
    <!-- Generator: Sketch 63.1 (92452) - https://sketch.com -->
    <title>Ghost</title>
    <desc>Created with Sketch.</desc>
    <g id="Ghost" stroke="none" stroke-width="1" fill="none" fill-rule="evenodd">
        <path d="M51.227785,47.0699107 C47.8299406,47.0699107 43.9498335,47.5243558 41.9747019,48.1132594 C41.014676,48.3994998 40.3051528,49.2127716 40.1517667,50.2027494 L39.7860486,52.5851214 C39.7519689,52.7947004 39.7198929,52.9837301 39.6829574,53.1948039 L39.6035565,53.6333594 C39.4958681,54.2079664 39.3806033,54.7426017 39.2542296,55.2440243 L39.207,55.422 L39.046747,55.1141314 L38.6775705,54.3848545 C38.0199244,53.0602645 37.4758593,51.8186692 37.179096,50.9025744 C36.8186315,49.7898372 35.7583025,49.05578 34.5898981,49.1100936 C27.5037733,49.4394942 23.7758194,53.3153096 24.4963565,59.9676569 L24.5303079,60.2485999 C25.7124198,69.0218355 37.9865181,75.0900645 50.5068086,74.9572692 L51.227,74.942 L51.9446603,74.9572244 C64.6017892,75.0928653 77.0078879,68.8928068 77.961354,59.9637525 C78.6814174,53.3158063 74.9524033,49.439543 67.8674292,49.1100953 C66.6984605,49.0557389 65.6377382,49.7905066 65.277737,50.9039884 L65.1831516,51.1838943 C64.8108577,52.2432568 64.1634356,53.6567146 63.4111241,55.115489 L63.25,55.423 L63.2041532,55.2448679 C63.0778897,54.7434249 62.9627293,54.2087177 62.855133,53.6339677 L62.6524821,52.4594366 L62.3072444,50.2027494 C62.1538144,49.2124878 61.4439362,48.3990607 60.4835475,48.1130324 C58.5064432,47.5242 54.6265593,47.0699107 51.227785,47.0699107 Z M51.5820067,52.2617972 C53.4319441,52.2812736 55.4244313,52.4496562 56.9732342,52.6781824 L57.445,52.751 L57.5954267,53.6933313 C57.6170819,53.8222762 57.6391891,53.9509149 57.6633103,54.0889141 C58.2773592,57.6019375 59.1510129,60.1563248 60.8446622,62.5641322 C61.8996081,64.0639154 64.1350017,64.0262338 65.1387995,62.4917467 L65.3923621,62.0991961 C66.7537992,59.9655345 68.2484907,57.2126908 69.280946,54.8849303 L69.453,54.487 L69.5744607,54.5098829 C72.2629835,55.0376438 73.1172208,56.4903175 72.8011127,59.40878 C72.1959638,65.0758725 61.8725831,70.0898224 51.3105366,69.7528393 L51.1450203,69.7528397 C40.5848731,70.0898156 30.2625683,65.0759171 29.6565383,59.4121274 L29.6339968,59.1845001 C29.3862646,56.4144929 30.2643936,55.0236447 32.8824605,54.509843 L33.004,54.487 L33.1772027,54.8848114 C34.2741954,57.3566591 35.8920949,60.3087672 37.3177532,62.4906182 C38.3210686,64.0261085 40.5573512,64.0643862 41.6126284,62.5641322 C43.2292902,60.2657754 44.0995509,57.8332327 44.7098115,54.5624365 L44.854733,53.7442372 L45.014,52.751 L45.0738317,52.7418886 C46.7629191,52.4662313 49.1158509,52.2599107 51.227785,52.2599107 L51.5820067,52.2617972 Z M68.9598889,21.5483647 C63.786506,21.5483647 60.9677442,26.844172 60.9758607,33.149606 C60.9840175,39.4590852 63.8211352,44.7441521 69.0097852,44.7441521 C73.9686298,44.7441521 77.1690802,40.1874865 77.1690802,33.5707851 C77.1690802,26.995542 74.3659962,21.5483647 68.9598889,21.5483647 Z M68.9598889,26.7383647 C70.5643787,26.7383647 71.9790802,29.4875259 71.9790802,33.5707851 C71.9790802,37.6335615 70.6301212,39.5541521 69.0097852,39.5541521 C67.5591479,39.5541521 66.1708082,36.9679119 66.1658608,33.1429108 C66.1609506,29.3263373 67.5384324,26.7383647 68.9598889,26.7383647 Z M33.4974017,21.5483647 C28.0912944,21.5483647 25.2882104,26.995542 25.2882104,33.5707851 C25.2882104,40.1867017 28.4898946,44.7441521 33.4475054,44.7441521 C38.6361554,44.7441521 41.473273,39.4590852 41.4814299,33.149606 C41.4895464,26.844172 38.6707846,21.5483647 33.4974017,21.5483647 Z M33.4974017,26.7383647 C34.9188582,26.7383647 36.29634,29.3263373 36.2914298,33.1429108 C36.2864824,36.9679119 34.8981427,39.5541521 33.4475054,39.5541521 C31.8280921,39.5541521 30.4782104,37.6326576 30.4782104,33.5707851 C30.4782104,29.4875259 31.8929119,26.7383647 33.4974017,26.7383647 Z M76.4905331,15.6448837 C87.8851331,26.6187365 90.6089475,49.0819033 83.5666952,66.2537866 L83.2730195,66.9529758 C74.005983,88.5100591 50.1414685,97.799701 20.8967957,93.3480248 L19.89,93.189 L19.9638162,93.0862066 C22.4177718,89.5341307 23.3884718,85.1179414 23.1794181,79.9804749 C23.0550871,76.9250557 22.5600938,73.9016548 21.6700228,70.0561854 L20.683255,65.9749518 C17.0203884,50.7282661 15.8813575,42.9021951 16.93807,34.8610672 C18.2783696,24.6619631 23.6584571,16.8833873 34.6116539,10.9264954 C47.6931304,3.81174807 65.9116629,5.45826941 76.4905331,15.6448837 Z M32.1319475,6.36720196 C19.7258848,13.1142345 13.3498325,22.3327846 11.7923121,34.1848453 C10.6605593,42.7969982 11.7542746,50.815967 15.2927184,65.7454438 L16.4680212,70.6048707 C17.3836405,74.4666095 17.8788493,77.3688114 17.9937097,80.1914916 C18.2238671,85.8475802 16.770832,90.0051121 13.1231813,92.8111423 C11.3641894,94.1641099 12.0049251,96.9572369 14.1774752,97.4086877 C48.498501,104.540516 77.6524396,94.3429837 88.3684404,68.2233915 C96.1606271,49.2228622 93.16226,24.495473 80.0906011,11.9064869 C67.8102702,0.0815007469 47.1261707,-1.78784912 32.1319475,6.36720196 Z" fill="#00B077"></path>
    </g>
</svg>