<?xml version="1.0" encoding="UTF-8"?>
<svg width="100px" height="100px" viewBox="0 0 100 100" version="1.1" xmlns="http://www.w3.org/2000/svg" xmlns:xlink="http://www.w3.org/1999/xlink">
    <!-- Generator: Sketch 63.1 (92452) - https://sketch.com -->
    <title>JackOLantern</title>
    <desc>Created with Sketch.</desc>
    <g id="JackOLantern" stroke="none" stroke-width="1" fill="none" fill-rule="evenodd">
        <path d="M86.1967198,27.4593657 C94.5540964,34.1872175 99.607698,44.8654997 99.607698,55.94349 C99.607698,78.1529793 87.1806742,91.3691916 67.7196614,90.8104731 L67.067,90.786 L66.6413888,90.9366996 C62.179052,92.4693574 55.4319866,93.7321314 50.8075637,93.8203746 L50.302698,93.8253 C45.6749895,93.8253 38.5901641,92.5262118 33.9623282,90.9367175 L33.536,90.786 L33.4819517,90.7890611 C13.8782973,91.6293871 1.25459774,78.646338 1.00157368,56.6205679 L0.997698,55.94349 C0.997698,44.8654618 6.0508977,34.1872237 14.4077556,27.4594105 C23.3726515,20.2420871 35.0322722,18.3421212 46.8786719,22.9210394 C47.0335173,22.9808908 47.1793465,23.0539698 47.3153676,23.1384866 C48.2991809,23.0604888 49.296254,23.020725 50.302525,23.020725 C51.3082215,23.020725 52.3047385,23.0604423 53.2886025,23.1382891 C53.4243195,23.0539698 53.5701487,22.9808908 53.7249941,22.9210394 C65.5713857,18.3421243 77.2313779,20.24209 86.1967198,27.4593657 Z M17.6623929,31.502112 C10.536011,37.2393122 6.187698,46.4280094 6.187698,55.94349 C6.187698,75.7197511 16.7225862,86.5479888 33.7895578,85.5773863 C34.1553949,85.556581 34.5214905,85.6134894 34.8637491,85.7443658 C38.838126,87.2641297 45.9904328,88.6353 50.302698,88.6353 C54.6135059,88.6353 61.765788,87.2640349 65.7399169,85.7443658 C66.0821755,85.6134894 66.4482711,85.556581 66.8141082,85.5773863 C83.881518,86.5480138 94.417698,75.7193286 94.417698,55.94349 C94.417698,46.4281261 90.0690513,37.2394167 82.9421937,31.5021568 C77.5601885,27.1695373 71.0671665,25.1249359 64.1125475,25.7352746 C68.5278476,27.6156437 72.1984289,30.397044 74.602155,33.8410032 C75.4224148,35.0162375 75.1346511,36.6339051 73.9594168,37.454165 C72.7841825,38.2744248 71.1665149,37.9866611 70.346255,36.8114268 C66.7550373,31.6660785 59.0226889,28.210725 50.302525,28.210725 C41.5830053,28.210725 33.8517065,31.6656095 30.256464,36.8122873 C29.435729,37.9871898 27.8179451,38.2742991 26.6430427,37.453564 C25.4681402,36.632829 25.1810309,35.0150451 26.001766,33.8401427 C28.4071664,30.3967529 32.077521,27.6159027 36.4916859,25.7360282 C29.5373942,25.1247364 23.0443226,27.1693092 17.6623929,31.502112 Z M87.0994521,60.6188662 C88.1977166,61.5396359 88.3416045,63.1763866 87.4208348,64.2746511 C80.3507325,72.7076416 66.0867408,78.01483 50.301141,78.01483 C34.5172742,78.01483 20.2579431,72.7086181 13.1836235,64.2751833 C12.2625598,63.1771653 12.4060097,61.5403762 13.5040277,60.6193125 C14.6020457,59.6982488 16.2388348,59.8416987 17.1598985,60.9397167 C23.1354992,68.0633472 35.930985,72.82483 50.301141,72.82483 C64.67275,72.82483 77.4725299,68.0624293 83.4436672,60.9402489 C84.3644369,59.8419844 86.0011876,59.6980965 87.0994521,60.6188662 Z M48.510415,55.7420804 C49.5128408,54.7861227 51.0893556,54.7860026 52.091927,55.7418077 L52.091927,55.7418077 L57.766327,61.1515177 C59.4613554,62.7674793 58.317605,65.624743 55.975714,65.624743 L55.975714,65.624743 L44.628644,65.624743 C42.2869451,65.624743 41.1431017,62.7678776 42.837745,61.1517904 L42.837745,61.1517904 Z M84.299242,50.5545593 C85.0926392,51.7480931 84.7682644,53.3588188 83.5747307,54.152216 C82.3811969,54.9456132 80.7704712,54.6212384 79.977074,53.4277047 C77.7533238,50.0824433 74.6161497,48.9610864 71.4863764,49.8704619 C68.64782,50.6952225 66.5157049,53.037869 66.2110274,55.6660648 L66.1878519,55.9132571 C66.0854997,57.3427766 64.8436723,58.4186582 63.4141529,58.3163059 C61.9846334,58.2139537 60.9087518,56.9721263 61.0111041,55.5426069 C61.3683359,50.5532691 65.1058403,46.3197279 70.0382771,44.8865771 C75.3313034,43.3486547 80.8112143,45.3074034 84.299242,50.5545593 Z M30.5653889,44.8865771 C35.4978257,46.3197279 39.2353301,50.5532691 39.5925619,55.5426069 C39.6949142,56.9721263 38.6190326,58.2139537 37.1895131,58.3163059 C35.8149752,58.4147215 34.6139691,57.4237937 34.4326266,56.0765853 L34.4158141,55.9132571 C34.2205284,53.1857667 32.0445509,50.7209963 29.1172896,49.8704619 C25.9875163,48.9610864 22.8503422,50.0824433 20.626592,53.4277047 C19.8331948,54.6212384 18.2224691,54.9456132 17.0289353,54.152216 C15.8354016,53.3588188 15.5110268,51.7480931 16.304424,50.5545593 C19.7924517,45.3074034 25.2723626,43.3486547 30.5653889,44.8865771 Z M60.2927987,7.96827187 C60.5452035,9.32301611 59.6956588,10.6278637 58.3773987,10.959595 L58.2169981,10.9946727 C55.4069844,11.5182114 52.6324596,14.9427593 52.3685364,18.3969711 L52.3539879,18.6437122 C52.2947165,20.075665 51.0858406,21.1884432 49.6538878,21.1291719 C48.221935,21.0699005 47.1091568,19.8610246 47.1684281,18.4290718 C47.4112503,12.5626605 51.9153841,6.88942824 57.2663979,5.8924713 C58.6753319,5.62997029 60.0302977,6.55933786 60.2927987,7.96827187 Z" id="JackoLantern" fill="#00B077"></path>
    </g>
</svg>