<?xml version="1.0" encoding="UTF-8"?>
<svg width="100px" height="100px" viewBox="0 0 100 100" version="1.1" xmlns="http://www.w3.org/2000/svg" xmlns:xlink="http://www.w3.org/1999/xlink">
    <!-- Generator: Sketch 63.1 (92452) - https://sketch.com -->
    <title>Moon</title>
    <desc>Created with Sketch.</desc>
    <g id="Moon" stroke="none" stroke-width="1" fill="none" fill-rule="evenodd">
        <path d="M41.2010539,1.405 C68.4821262,1.405 90.595,23.378927 90.595,50.5 C90.595,77.621073 68.4821262,99.595 41.2010539,99.595 C30.3098002,99.595 19.9502957,96.0781498 11.4409791,89.683205 C10.2952739,88.8221815 10.0644938,87.1954065 10.9255172,86.0497013 C11.7865407,84.9039961 13.4133157,84.673216 14.5590209,85.5342395 C22.1764619,91.2589194 31.4437989,94.405 41.2010539,94.405 C65.6230661,94.405 85.405,74.7473664 85.405,50.5 C85.405,26.2526336 65.6230661,6.595 41.2010539,6.595 C33.4774969,6.595 26.060025,8.56631096 19.5244201,12.226948 L19.1,12.468 L19.4984421,12.6173382 C34.8101176,18.4593291 45.435927,33.0889752 45.6727762,49.9251929 L45.6768176,50.5 C45.6768176,65.5351296 37.3745462,79.1135827 24.3237949,86.1649016 C23.0628912,86.8461677 21.4884514,86.3762785 20.8071853,85.1153747 C20.1259192,83.854471 20.5958084,82.2800312 21.8567121,81.5987651 C33.2490204,75.4435028 40.4868176,63.6060084 40.4868176,50.5 C40.4868176,33.7747351 28.7107129,19.4373209 12.4519473,15.9243 C10.2787285,15.454734 9.66379088,12.6481672 11.4415615,11.312913 C19.9519949,4.92086692 30.3113714,1.405 41.2010539,1.405 Z" fill="#00B077"></path>
    </g>
</svg>