<?xml version="1.0" encoding="UTF-8"?>
<svg width="100px" height="100px" viewBox="0 0 100 100" version="1.1" xmlns="http://www.w3.org/2000/svg" xmlns:xlink="http://www.w3.org/1999/xlink">
    <!-- Generator: Sketch 63.1 (92452) - https://sketch.com -->
    <title>Pumpkin</title>
    <desc>Created with Sketch.</desc>
    <g id="Pumpkin" stroke="none" stroke-width="1" fill="none" fill-rule="evenodd">
        <path d="M85.9900823,28.1975191 C94.3466654,34.9249215 99.4002679,45.602803 99.402114,56.681621 C99.402114,67.8353547 94.5468205,78.8872036 86.4543121,86.0297511 C77.6517011,93.7990439 66.0535731,96.1891526 53.8622936,91.9076288 C52.6301695,92.1199697 51.3742796,92.2292097 50.1011986,92.2289718 C48.8260289,92.2294485 47.5681993,92.1202312 46.3341044,91.9074419 L46.6221349,91.8049885 C34.3253197,96.2265515 22.613397,93.8603732 13.7412999,86.0297511 C5.64879149,78.8872036 0.793498,67.8353547 0.793498,56.681621 C0.793498,45.6033076 5.84649099,34.9255554 14.2036458,28.1981176 C23.1688766,20.9811838 34.8297427,19.0811325 46.6792637,23.6590165 C46.8742908,23.7343623 47.0550206,23.830691 47.2198704,23.9444277 C48.166025,23.8204539 49.1260256,23.7569524 50.096307,23.7569524 C51.0674726,23.7567799 52.0283404,23.8202125 52.9761199,23.9444722 C53.1401346,23.8309448 53.3209733,23.7345168 53.5161314,23.6591003 C65.3648309,19.0803136 77.0249182,20.9801832 85.9900823,28.1975191 Z M61.4817844,26.7909514 L61.3927605,26.8065651 C67.1611607,30.0891601 71.8980202,35.8382896 74.6955726,43.1502387 C75.2077031,44.4887917 74.5377553,45.9890671 73.1992023,46.5011976 C71.8606493,47.0133281 70.3603739,46.3433803 69.8482434,45.0048273 C66.0895813,35.1808307 58.4440883,28.9454698 50.096768,28.9469527 C41.7514356,28.9469527 34.1075354,35.1824248 30.3505649,45.0046122 C29.8385532,46.3432107 28.3383373,47.0132916 26.9997388,46.5012799 C25.6611403,45.9892682 24.9910594,44.4890523 25.5030711,43.1504538 C28.2995955,35.8392473 33.0356502,30.0902403 38.803237,26.8073875 C30.9020516,25.4077415 23.4834318,27.3906262 17.4581027,32.2409644 C10.3315625,37.977768 5.983498,47.1658978 5.983498,56.681621 C5.983498,66.3648173 10.2137414,75.9938975 17.1756836,82.1385934 C22.9494928,87.2346284 30.074037,89.5653579 37.8599624,88.6163008 C32.9690101,85.5421955 28.8814392,80.6536863 26.1888469,74.5166453 C25.6130313,73.2042284 26.2101647,71.6735135 27.5225817,71.0976979 C28.8349986,70.5218823 30.3657135,71.1190157 30.9415291,72.4314327 C34.8996601,81.4529291 42.1923461,87.041928 50.1007134,87.0389704 C58.0034355,87.0404486 65.2974299,81.4487129 69.249944,72.4321918 C69.8253403,71.119591 71.3558644,70.5219687 72.6684652,71.097365 C73.981066,71.6727613 74.5786883,73.2032854 74.003292,74.5158862 C71.3132681,80.6523999 67.2249673,85.5420462 62.3334495,88.6160406 C70.1199054,89.565904 77.2454427,87.2352255 83.0199284,82.1385934 C89.9818706,75.9938975 94.212114,66.3648173 94.212114,56.6820534 C94.2105283,47.1658507 89.8617405,37.9771896 82.7355007,32.2402654 C76.733134,27.4081067 69.3485694,25.4220082 61.4817844,26.7909514 Z M76.9036867,53.0817704 C77.2137391,54.6042074 77.374543,56.2730378 77.374543,57.995556 C77.374543,59.9232787 77.1711217,61.7875636 76.7836939,63.463741 C76.4609414,64.8601051 75.0673221,65.7304393 73.670958,65.4076869 C72.3304485,65.0978445 71.4747281,63.8010913 71.693966,62.4624332 L71.7270121,62.294951 C72.0238523,61.0106943 72.184543,59.5380206 72.184543,57.995556 C72.184543,56.6136103 72.0571245,55.2912546 71.8180793,54.1174816 C71.5320756,52.7131299 72.4386757,51.3428261 73.8430274,51.0568223 C75.2473791,50.7708186 76.6176829,51.6774187 76.9036867,53.0817704 Z M18.3427939,40.4552716 C19.5108278,41.2857526 19.7844684,42.905869 18.9539874,44.0739029 C18.3343557,44.9453867 17.8034658,45.8441785 17.356597,46.7687151 C15.0967268,51.44421 15.0445054,56.500103 16.3372763,61.2466412 C16.4820726,61.7782753 16.6342876,62.2643124 16.7867408,62.6990379 L16.9856778,63.2381404 L17.1192295,63.5636541 C17.7135652,64.8677886 17.1381595,66.4068028 15.8340249,67.0011385 C14.5298904,67.5954742 12.9908762,67.0200685 12.3965405,65.7159339 C12.1103832,65.0880268 11.7155229,64.0271496 11.3296865,62.6105123 C9.73638347,56.7605403 9.80131816,50.4737903 12.6838047,44.510151 C13.2566406,43.3249982 13.9355427,42.1756232 14.7241626,41.0664651 C15.5546436,39.8984312 17.17476,39.6247906 18.3427939,40.4552716 Z M59.3350399,5.58319203 L59.4600379,5.71255676 L63.3404279,10.0167968 C64.0905131,10.8488128 64.2176438,12.0611432 63.6757409,13.0250284 L63.5731566,13.1924188 L60.7307666,17.4620588 C59.936563,18.6550561 58.3256184,18.9783422 57.1326212,18.1841386 C55.9893321,17.4230268 55.6447882,15.9118179 56.3170683,14.7372053 L56.4105414,14.5859932 L58.135,11.994 L56.731,10.436 L56.6192447,10.4919076 C54.3453051,11.6686871 52.3817834,14.5273941 52.1628985,17.4044566 L52.1484429,17.6510681 C52.0896953,19.0830424 50.8812263,20.1962626 49.4492519,20.1375149 C48.0172776,20.0787673 46.9040574,18.8702983 46.9628051,17.4383239 C47.2034109,11.5735567 51.7074824,5.89889401 57.0559231,4.89931228 C57.8850109,4.74436225 58.733608,5.00239165 59.3350399,5.58319203 Z" fill="#00B077"></path>
    </g>
</svg>