<?xml version="1.0" encoding="UTF-8"?>
<svg width="100px" height="100px" viewBox="0 0 100 100" version="1.1" xmlns="http://www.w3.org/2000/svg" xmlns:xlink="http://www.w3.org/1999/xlink">
    <!-- Generator: Sketch 63.1 (92452) - https://sketch.com -->
    <title>Skull</title>
    <desc>Created with Sketch.</desc>
    <g id="Skull" stroke="none" stroke-width="1" fill="none" fill-rule="evenodd">
        <path d="M16.7922899,50.4284613 C16.8897686,61.2505662 26.6607864,68.3770411 36.1450925,66.0692465 C41.7537909,64.7091493 45.7998761,60.2195215 46.9028721,53.5438522 L46.9621533,53.1636557 C48.5041542,42.596603 42.1961457,34.4463383 33.2396109,33.3176183 C24.0473457,32.1591911 16.6961019,38.9385328 16.7922899,50.4284613 Z M41.8268335,52.412266 C41.1195532,57.233184 38.5471687,60.1463288 34.9200013,61.0259096 C28.6075936,62.5618925 22.0487019,57.7781762 21.9820937,50.3833647 C21.9118545,41.9930242 26.5596164,37.7068426 32.5906896,38.4668902 C38.590986,39.2230593 42.8164664,44.5765849 41.8737373,52.0670195 L41.8268335,52.412266 Z M67.8398721,33.3179643 C58.8833416,34.4466838 52.5744978,42.5968381 54.1155679,53.163784 C55.1256343,60.0485395 59.2189684,64.6834723 64.934402,66.0700156 C74.4183188,68.3754354 84.1881736,61.2499916 84.2837279,50.4294221 C84.3826399,38.9392927 77.0324544,32.1594971 67.8398721,33.3179643 Z M50.538963,82.973123 C51.9170197,82.973123 53.0441907,84.0472919 53.1288577,85.4040111 L53.133963,85.568123 L53.133963,93.892883 C53.133963,95.3260619 51.9721419,96.487883 50.538963,96.487883 C49.1609063,96.487883 48.0337353,95.4137141 47.9490683,94.0569949 L47.943963,93.892883 L47.943963,85.568123 C47.943963,84.1349441 49.1057841,82.973123 50.538963,82.973123 Z M57.538963,82.973123 C58.9170197,82.973123 60.0441907,84.0472919 60.1288577,85.4040111 L60.133963,85.568123 L60.133963,93.892883 C60.133963,95.3260619 58.9721419,96.487883 57.538963,96.487883 C56.1609063,96.487883 55.0337353,95.4137141 54.9490683,94.0569949 L54.943963,93.892883 L54.943963,85.568123 C54.943963,84.1349441 56.1057841,82.973123 57.538963,82.973123 Z M79.0940563,50.0171917 L79.0940563,50.384169 C79.0286313,57.7780471 72.4707901,62.5608745 66.159155,61.0265963 C62.5314249,60.1465219 59.9580761,57.2326872 59.2509195,52.412612 C58.1323936,44.7429985 62.3959541,39.2350677 68.4887934,38.4672362 C74.4310326,37.7183836 79.0292,41.8681064 79.0940563,50.0171917 Z M43.538963,82.973123 C44.9170197,82.973123 46.0441907,84.0472919 46.1288577,85.4040111 L46.133963,85.568123 L46.133963,93.892883 C46.133963,95.3260619 44.9721419,96.487883 43.538963,96.487883 C42.1609063,96.487883 41.0337353,95.4137141 40.9490683,94.0569949 L40.943963,93.892883 L40.943963,85.568123 C40.943963,84.1349441 42.1057841,82.973123 43.538963,82.973123 Z M48.4922114,63.6749303 C49.4938523,62.3909476 51.4020478,62.3447865 52.468831,63.5367312 L52.7666651,63.8985823 C53.0855457,64.2728447 53.4937802,64.6673167 54.2723824,65.3551871 L56.2278504,67.0578622 C56.6453455,67.4266438 56.969756,67.724425 57.3001929,68.0432086 C58.8189261,69.5083813 59.7538306,70.7755396 60.1133141,72.2588503 C60.6434914,74.4464829 59.6761653,76.4268477 57.5590465,77.8168521 C56.3610077,78.6034301 54.7521579,78.2698752 53.9655799,77.0718365 C53.211776,75.923716 53.4867052,74.3983055 54.5653617,73.5808856 L54.8938913,73.3510567 L54.984,73.281 L54.9355058,73.197886 C54.7550183,72.9050441 54.4008428,72.4749855 53.8634776,71.9414845 L53.4581221,71.551548 C53.1727396,71.2842874 52.8547363,71.0002123 52.4176808,70.6198238 L50.9098073,69.3105531 L50.538,68.981 L49.9712885,69.4825367 L48.3120329,70.9243787 C47.9898276,71.2087132 47.7369252,71.4389828 47.498906,71.6652469 L47.3808847,71.7782769 C46.7495487,72.3874073 46.341037,72.8754246 46.1426649,73.1973217 L46.093,73.279 L46.2113949,73.3697161 L46.3686879,73.4778983 C47.5669871,74.2640795 47.9010748,75.8728187 47.1148937,77.0711179 C46.3287125,78.2694171 44.7199733,78.6035048 43.5216741,77.8173237 C41.403593,76.4276912 40.4351368,74.4476659 40.9646123,72.2597019 C41.3012168,70.8687434 42.1438517,69.6679561 43.4993357,68.3158388 L43.7772725,68.0432965 C44.2019372,67.6335682 44.6166176,67.2585674 45.2319304,66.7227642 L46.6433744,65.4974188 C47.5830544,64.6721097 48.0230635,64.2469666 48.3721243,63.8245518 L48.4922114,63.6749303 Z M50.5114941,4.65011707 C74.6614792,4.39124726 93.1191306,16.6520003 97.3361017,38.6402464 C99.1867359,48.2928976 97.7467116,58.5759146 93.07039,66.4292365 C88.1224568,74.7386976 79.9783332,79.8287809 69.2219531,80.6623378 L68.891,80.685 L68.888103,81.2125648 L68.8652513,81.8817426 C68.8304895,82.5862798 68.7583144,83.2898957 68.6010062,84.6302036 L68.5631714,84.9510979 C68.1530227,88.4161839 68.1347953,90.2040992 68.6966738,92.6724939 C69.01477,94.069926 68.1397953,95.4606365 66.7423631,95.7787328 C65.344931,96.096829 63.9542205,95.2218543 63.6361242,93.8244221 C62.9416822,90.7736605 62.9342166,88.5406024 63.3522354,84.8331651 L63.5760916,82.8776495 C63.658141,82.1022819 63.6875352,81.6550821 63.699273,81.1023708 C63.7150488,80.3595193 63.6705704,79.6980289 63.5557868,79.0640815 L63.4924897,78.749154 C63.1342443,77.1292354 64.3672102,75.593808 66.026269,75.593808 C76.5475151,75.593808 84.1226064,71.3117834 88.6110905,63.773912 C92.601676,57.0722016 93.8611289,48.0786212 92.2389646,39.6176373 C88.540314,20.3320321 72.3928649,9.60586327 50.5114941,9.83981893 C28.6855996,9.60586163 12.5385119,20.3320844 8.84126925,39.6182322 C7.21676099,48.0781124 8.47540673,57.0717587 12.4664184,63.7738653 C16.9550233,71.3115801 24.5309233,75.593808 35.052349,75.593808 C36.6564696,75.593808 37.8621529,77.0291923 37.6165566,78.5883683 L37.5859299,78.7500502 C37.447232,79.3761655 37.3805712,80.0208345 37.3758855,80.7378545 L37.3786607,81.1026429 C37.390345,81.6555661 37.4197427,82.1029623 37.5018735,82.8787167 L37.7780511,85.3101914 C38.1422043,88.7372647 38.1066034,90.9069145 37.4424938,93.8244221 C37.1243975,95.2218543 35.733687,96.096829 34.3362549,95.7787328 C32.9388227,95.4606365 32.063848,94.069926 32.3819442,92.6724939 C32.8947915,90.4194985 32.9241172,88.7334521 32.61304,85.8204991 L32.3545719,83.5565582 C32.2534366,82.6246991 32.2124242,82.0684081 32.1939814,81.3858525 L32.1863018,80.9773203 L32.186,80.685 L31.8566204,80.6623349 C21.2735315,79.8422039 13.2186585,74.9016687 8.24908968,66.8288292 L8.00717459,66.4292832 C3.33016685,58.5751834 1.89097494,48.2914454 3.74423764,38.6402914 C7.95945839,16.6521828 26.4168828,4.39124451 50.5114941,4.65011707 Z" fill="#00B077"></path>
    </g>
</svg>