<?xml version="1.0" encoding="UTF-8"?>
<svg width="100px" height="100px" viewBox="0 0 100 100" version="1.1" xmlns="http://www.w3.org/2000/svg" xmlns:xlink="http://www.w3.org/1999/xlink">
    <!-- Generator: Sketch 63.1 (92452) - https://sketch.com -->
    <title>SpiderWeb</title>
    <desc>Created with Sketch.</desc>
    <g id="SpiderWeb" stroke="none" stroke-width="1" fill="none" fill-rule="evenodd">
        <path d="M50.268963,0.593459 C51.639054,0.593459 52.7597096,1.66141882 52.8438872,3.01029574 L52.848963,3.173459 L52.847963,8.479459 L52.8757756,8.51497586 C53.1120814,8.81939949 53.3870918,9.15293782 53.7007742,9.50953824 C54.8385363,10.8029686 56.21934,12.1032239 57.8417409,13.3181416 C63.2125033,17.3399798 69.816944,19.4673699 77.7781604,18.7274471 L81.4734654,15.0320156 C82.4810313,14.0244761 84.1145969,14.0244975 85.1221364,15.0320634 C86.0858698,15.995822 86.1277517,17.5323291 85.2477964,18.5458689 L85.1220886,18.6807344 L70.823963,32.977459 L70.8221801,32.9970609 C70.5960117,35.9188484 71.1241072,39.344448 72.9498757,42.6209245 L73.1752315,43.0133441 C74.0980723,44.5734416 75.2915689,46.0107957 76.7891355,47.3051287 L85.4377097,47.3053798 C81.6327424,43.0853783 79.0921764,38.343804 77.6379515,33.2988534 L77.4978396,32.7995687 C77.1225197,31.4249924 77.9325771,30.0064214 79.3071533,29.6311016 C80.6817296,29.2557817 82.1003006,30.0658391 82.4756204,31.4404153 C84.0874525,37.3436102 87.4044449,42.765342 92.8851932,47.305888 L96.978963,47.305189 C98.4038577,47.305189 99.558963,48.4602943 99.558963,49.885189 C99.558963,51.25528 98.4910032,52.3759356 97.1421263,52.4601132 L96.978963,52.465189 L92.8863428,52.4641513 C90.3413895,54.5740725 88.2493409,56.8930854 86.5694368,59.3891611 C84.1351917,63.0060701 82.6400667,66.8696714 81.9074657,70.8001339 C81.4370614,73.3238904 81.3284049,75.5705538 81.4335702,77.372549 L81.434963,77.401459 L85.1227806,81.0886056 C86.1303465,82.0961451 86.1303679,83.7297107 85.1228284,84.7372766 C84.159095,85.7010353 82.622589,85.7429574 81.6090262,84.8630286 L81.4741574,84.7373244 L77.77607,81.0376614 C69.8160236,80.2989972 63.2123663,82.4266158 57.8420799,86.4480922 C56.2194767,87.6631596 54.8385011,88.9635755 53.7005972,90.2571663 C53.386875,90.6138116 53.1118297,90.9473922 52.8754935,91.2518549 L52.847963,91.287459 L52.848963,96.593459 C52.848963,98.0183537 51.6938577,99.173459 50.268963,99.173459 C48.898872,99.173459 47.7782164,98.1054992 47.6940388,96.7566223 L47.688963,96.593459 L47.687963,91.285459 L47.6621349,91.2521578 C47.4257135,90.9476783 47.1505761,90.6140809 46.8367568,90.257419 C45.6985093,88.963778 44.3171961,87.6633153 42.6942877,86.4482066 C37.3235128,82.4269846 30.7201978,80.2993572 22.7617279,81.0374733 L19.0637686,84.7373244 C18.0562027,85.7448639 16.4226371,85.7448425 15.4150976,84.7372766 C14.4513642,83.773518 14.4094823,82.2370109 15.2894376,81.2234711 L15.4151454,81.0886056 L29.709963,66.794459 L29.7123419,66.7695531 C29.938707,63.8455342 29.4095166,60.4170961 27.5802906,57.1376881 L27.3545084,56.7449163 C26.4337104,55.1898098 25.2439641,53.7564959 23.7521977,52.4650418 L15.1011393,52.464615 C18.3386056,56.0588423 20.6692052,60.0434407 22.195971,64.2912509 L22.3816564,64.8207202 C22.8428008,66.1689303 22.123692,67.635702 20.7754818,68.0968464 C19.4272717,68.5579908 17.9605,67.838882 17.4993556,66.4906718 C15.7151971,61.2744739 12.5403079,56.5109832 7.65612366,52.4637727 L3.558963,52.465189 C2.13406835,52.465189 0.978963,51.3100837 0.978963,49.885189 C0.978963,48.515098 2.04692282,47.3944424 3.39579974,47.3102648 L3.558963,47.305189 L7.64852987,47.3052144 C10.1939978,45.1950169 12.2864327,42.8757277 13.9666082,40.3793779 C16.4012035,36.7621357 17.8964808,32.8981978 18.6290724,28.9673684 C19.0994979,26.4432304 19.2080854,24.1961239 19.1027849,22.393609 L19.099963,22.365459 L15.4158374,18.6807344 C14.4082715,17.6731949 14.4082501,16.0396293 15.4157896,15.0320634 C16.379523,14.0683047 17.916029,14.0263826 18.9295918,14.9063114 L19.0644606,15.0320156 L22.7597213,18.7275789 C30.7196328,19.4671184 37.3239309,17.3397135 42.6953188,13.3180272 C44.3180249,12.1030683 45.6991662,10.802766 46.8372718,9.50928551 C47.1510514,9.15266849 47.4261537,8.81911342 47.6625448,8.51467295 L47.687963,8.479459 L47.688963,3.173459 C47.688963,1.74856435 48.8440683,0.593459 50.268963,0.593459 Z M44.7557215,73.843712 C41.5619562,71.4427344 37.7742073,70.1400868 33.3396168,70.460794 L28.0039176,75.7966425 C34.8471079,76.2080796 40.7837974,78.5717307 45.7869105,82.3176759 C46.4555226,82.818281 47.0899045,83.331503 47.6903702,83.8532389 L47.687963,76.605459 L47.6043947,76.5064783 L47.3498002,76.2157945 C46.6291474,75.4110371 45.7623232,74.6004452 44.7557215,73.843712 Z M67.1980067,70.4610905 C63.1231827,70.1663575 59.5843665,71.2459806 56.5305888,73.3088621 C55.3601367,74.0995235 54.3405786,74.9853477 53.4794476,75.8983167 C53.2320492,76.1606079 53.0211381,76.3992185 52.8479033,76.6059337 L52.84644,83.8529817 C53.2741282,83.4813142 53.7190295,83.1139679 54.1812579,82.752426 L54.7491515,82.3177903 C59.7522258,78.5712964 65.6895433,76.2074872 72.5341308,75.7964879 Z M85.4462044,52.464782 L76.7909056,52.4641217 C75.2967381,53.7560567 74.105151,55.1899122 73.1829914,56.7455874 C71.0946288,60.268637 70.5454776,63.9951909 70.8516234,67.1054956 L70.823963,66.790459 L76.4021037,72.3691706 C76.9183542,67.4835238 78.5919938,62.1726208 81.9730211,56.9846545 L82.2886474,56.5081124 C83.2307105,55.1083534 84.2820298,53.7589244 85.4462044,52.464782 Z M52.847963,56.111459 L52.847963,69.595459 L53.1487839,69.3755649 L53.6421877,69.0330301 C56.2322877,67.2833711 59.1192724,66.0706032 62.282244,65.545434 L52.847963,56.111459 Z M47.687963,56.113459 L38.2575356,65.5430008 C41.6865874,66.1105175 44.7777133,67.4843257 47.5070919,69.4614296 L47.5070919,69.4614296 L47.687963,69.594459 L47.687963,56.113459 Z M44.039963,52.464459 L30.7129331,52.4642753 C30.9938826,52.8537425 31.2605819,53.2503973 31.5132153,53.6539243 L31.5132153,53.6539243 L31.7945473,54.1159137 C33.3212667,56.6943416 34.2134535,59.330927 34.6315562,61.8741099 L44.039963,52.464459 Z M69.825957,52.4642747 L56.496963,52.464459 L65.9037128,61.8724607 C66.2743266,59.6220628 67.0164804,57.2985485 68.2414118,55.0069386 L68.4866036,54.5601876 L68.744235,54.11442 C69.0780519,53.5512739 69.4384652,53.0009504 69.825957,52.4642747 Z M18.5630035,42.7839376 L18.2473286,43.2605291 C17.3049744,44.6606483 16.2533019,46.0104202 15.0887094,47.3048857 L23.7405364,47.3054659 C25.2394231,46.0109253 26.433934,44.573363 27.3575277,43.0130719 C29.4410159,39.4932905 29.98871,35.7698147 29.682857,32.6616958 L29.709963,32.974459 L24.1343709,27.398534 C23.6181155,32.2846348 21.944318,37.5957858 18.5630035,42.7839376 Z M34.6309793,37.8947534 C34.2370269,40.2880506 33.4229689,42.7639786 32.0549576,45.1961089 L32.0549576,45.1961089 L31.7979086,45.6414969 C31.4616559,46.209552 31.0983518,46.7645523 30.7075017,47.3056498 L44.039963,47.304459 Z M65.9036378,37.8967955 L56.496963,47.304459 L69.8245438,47.3057237 C69.662421,47.0811574 69.5050405,46.8541962 69.3523669,46.6249009 L69.0156397,46.1032518 L68.7340543,45.6404234 C67.2117223,43.0668634 66.3214685,40.4353662 65.9036378,37.8967955 Z M52.847963,30.171459 L52.847963,43.656459 L62.2808953,34.2250121 C59.0078312,33.6839161 56.0428573,32.4078139 53.4066742,30.5733163 L53.028063,30.304384 L52.847963,30.171459 Z M47.6890123,30.1721002 C44.9152376,32.221278 41.7628096,33.6443948 38.2571981,34.2244592 L47.687963,43.654459 Z M46.3558517,17.013978 L45.7879442,17.4485559 C40.7840722,21.1950743 34.8462841,23.5587178 28.0016849,23.9692294 L33.3389724,29.3062102 C37.773912,29.6277266 41.5618817,28.3247873 44.7558276,25.9227686 C45.7623025,25.1658455 46.6290254,24.3550425 47.3495983,23.5500704 C47.4772353,23.4074835 47.5904499,23.2765575 47.68911,23.159085 L47.690202,15.9140228 C47.2626512,16.2854858 46.8179055,16.6526313 46.3558517,17.013978 Z M52.846299,15.91341 L52.847963,23.158459 L52.9337914,23.2597462 L53.1882244,23.5504835 C53.9084274,24.3553904 54.7747636,25.1661306 55.7808546,25.9229955 C58.9745659,28.3255695 62.7629883,29.6284913 67.1994353,29.3059248 L72.5361849,23.9693315 C65.6905555,23.5591096 59.7524308,21.1953497 54.7488098,17.4484415 C54.0805301,16.9480074 53.4464649,16.4349638 52.846299,15.91341 Z" id="Spider-Web" fill="#00B077"></path>
    </g>
</svg>