<?xml version="1.0" encoding="UTF-8"?>
<svg width="100px" height="100px" viewBox="0 0 100 100" version="1.1" xmlns="http://www.w3.org/2000/svg" xmlns:xlink="http://www.w3.org/1999/xlink">
    <!-- Generator: Sketch 63.1 (92452) - https://sketch.com -->
    <title>Tombstone</title>
    <desc>Created with Sketch.</desc>
    <g id="Tombstone" stroke="none" stroke-width="1" fill="none" fill-rule="evenodd">
        <path d="M95.960685,94.141936 C97.3938639,94.141936 98.555685,95.3037571 98.555685,96.736936 C98.555685,98.1149927 97.4815161,99.2421637 96.1247969,99.3268307 L95.960685,99.331936 L4.611495,99.331936 C3.17831607,99.331936 2.016495,98.1701149 2.016495,96.736936 C2.016495,95.3588793 3.09066389,94.2317083 4.44738312,94.1470413 L4.611495,94.141936 L95.960685,94.141936 Z M50.285225,0.722628 C58.5236793,0.722628 65.6544475,4.08009288 70.9370246,9.72476912 C74.5786956,13.6160619 77.0819542,18.411647 77.863241,22.6237612 L77.875,22.693 L86.748435,22.693628 C88.1264917,22.693628 89.2536627,23.7677969 89.3383297,25.1245161 L89.343435,25.288628 L89.343435,86.973508 C89.343435,88.4066869 88.1816139,89.568508 86.748435,89.568508 C85.3703783,89.568508 84.2432073,88.4943391 84.1585403,87.1376199 L84.153435,86.973508 L84.153,27.883 L75.527655,27.883628 C74.1495983,27.883628 73.0224273,26.8094591 72.9377603,25.4527399 L72.932655,25.288628 C72.932655,21.9686221 70.7383508,17.1079679 67.1476104,13.2710969 C62.8098522,8.63600294 57.025799,5.912628 50.285225,5.912628 C43.5438272,5.912628 37.7592875,8.63602055 33.421281,13.2711448 C29.8304059,17.1079652 27.636065,21.96858 27.636065,25.288628 C27.636065,26.6666847 26.5618961,27.7938557 25.2051769,27.8785227 L25.041065,27.883628 L16.417,27.883 L16.417,84.378 L76.937605,84.378508 C78.3156617,84.378508 79.4428327,85.4526769 79.5274997,86.8093961 L79.532605,86.973508 C79.532605,88.3515647 78.4584361,89.4787357 77.1017169,89.5634027 L76.937605,89.568508 L13.822015,89.568508 C12.4439583,89.568508 11.3167873,88.4943391 11.2321203,87.1376199 L11.227015,86.973508 L11.227015,25.288628 C11.227015,23.9105713 12.3011839,22.7834003 13.6579031,22.6987333 L13.822015,22.693628 L22.693,22.693 L22.705486,22.6237252 C23.462379,18.5431967 25.8353521,13.9151383 29.2938884,10.0921311 L29.6319565,9.72472119 C34.9147952,4.08005162 42.0460294,0.722628 50.285225,0.722628 Z M50.284879,21.968412 C51.6629357,21.968412 52.7901067,23.0425809 52.8747737,24.3993001 L52.879879,24.563412 L52.879495,32.915628 L61.581433,32.916025 C63.0146119,32.916025 64.176433,34.0778461 64.176433,35.511025 C64.176433,36.8890817 63.1022641,38.0162527 61.7455449,38.1009197 L61.581433,38.106025 L52.879495,38.105628 L52.879879,56.276042 C52.879879,57.7092209 51.7180579,58.871042 50.284879,58.871042 C48.9068223,58.871042 47.7796513,57.7968731 47.6949843,56.4401539 L47.689879,56.276042 L47.689495,38.105628 L38.987633,38.106025 C37.5544541,38.106025 36.392633,36.9442039 36.392633,35.511025 C36.392633,34.1329683 37.4668019,33.0057973 38.8235211,32.9211303 L38.987633,32.916025 L47.689495,32.915628 L47.689879,24.563412 C47.689879,23.1302331 48.8517001,21.968412 50.284879,21.968412 Z" fill="#00B077"></path>
    </g>
</svg>