<?xml version="1.0" encoding="UTF-8"?>
<svg width="100px" height="100px" viewBox="0 0 100 100" version="1.1" xmlns="http://www.w3.org/2000/svg" xmlns:xlink="http://www.w3.org/1999/xlink">
    <!-- Generator: Sketch 63.1 (92452) - https://sketch.com -->
    <title>Candle/1</title>
    <desc>Created with Sketch.</desc>
    <g id="Candle/1" stroke="none" stroke-width="1" fill="none" fill-rule="evenodd">
        <path d="M52.016669,17.290951 C53.3947257,17.290951 54.5218967,18.3651199 54.6065637,19.7218391 L54.611669,19.885951 L54.611272,29.522767 L57.610451,29.523089 C58.9584806,29.523089 60.2889828,29.7573418 61.5487252,30.2281191 L61.9244719,30.3764503 C66.049124,32.0941136 68.736081,36.125508 68.736081,40.595089 L68.736081,40.595089 L68.736081,88.119919 C68.736081,94.2325819 63.7788061,99.188459 57.665811,99.188459 L57.665811,99.188459 L46.367181,99.188459 C40.2531376,99.188459 35.298641,94.2332636 35.298641,88.119919 L35.298641,88.119919 L35.298,67.039 L35.0723406,67.2116987 C30.8046849,70.3798835 24.7813496,70.0818216 20.8516183,66.3306797 L20.8516183,66.3306797 L20.6229014,66.1060416 C16.3183421,61.7653284 16.3504928,54.7571757 20.6924992,50.4535941 L20.6924992,50.4535941 L38.5751681,32.7318121 C40.6932871,30.6319725 43.3191648,29.523089 46.311821,29.523089 L46.311821,29.523089 L49.421272,29.522767 L49.421669,19.885951 C49.421669,18.4527721 50.5834901,17.290951 52.016669,17.290951 Z M51.987272,34.712767 L46.311821,34.713089 C44.7050764,34.713089 43.3869508,35.2697211 42.2287728,36.4179039 L42.2287728,36.4179039 L24.3458998,54.1398882 C22.0397644,56.4256152 22.0226925,60.1469333 24.3100049,62.4534588 C26.5928193,64.7602523 30.3141158,64.7765819 32.6218202,62.4917023 L32.6218202,62.4917023 L36.0679802,59.0801423 C37.7064837,57.4580897 40.488641,58.6187283 40.488641,60.924319 L40.488641,60.924319 L40.488641,88.119919 C40.488641,91.3670696 43.1196593,93.998459 46.367181,93.998459 L46.367181,93.998459 L57.665811,93.998459 C60.9127758,93.998459 63.546081,91.3658963 63.546081,88.119919 L63.546081,88.119919 L63.546081,40.595089 C63.546081,38.2206591 62.1189772,36.0794941 59.9298817,35.1678707 C59.2022379,34.865077 58.4184928,34.713089 57.610451,34.713089 L57.610451,34.713089 L52.0438612,34.7136415 C52.0348081,34.7137344 52.025744,34.713781 52.016669,34.713781 L51.987272,34.712767 Z M83.007889,73.316136 C84.3859457,73.316136 85.5131167,74.3903049 85.5977837,75.7470241 L85.602889,75.911136 L85.602272,79.213767 L88.904075,79.214052 C90.3372539,79.214052 91.499075,80.3758731 91.499075,81.809052 C91.499075,83.1871087 90.4249061,84.3142797 89.0681869,84.3989467 L88.904075,84.404052 L85.602272,84.403767 L85.602889,87.708006 C85.602889,89.1411849 84.4410679,90.303006 83.007889,90.303006 C81.6298323,90.303006 80.5026613,89.2288371 80.4179943,87.8721179 L80.412889,87.708006 L80.412272,84.403767 L77.102015,84.404052 C75.6688361,84.404052 74.507015,83.2422309 74.507015,81.809052 C74.507015,80.4309953 75.5811839,79.3038243 76.9379031,79.2191573 L77.102015,79.214052 L80.412272,79.213767 L80.412889,75.911136 C80.412889,74.4779571 81.5747101,73.316136 83.007889,73.316136 Z M14.829973,28.839566 C16.2080297,28.839566 17.3352007,29.9137349 17.4198677,31.2704541 L17.424973,31.434566 L17.424272,34.736767 L20.726332,34.737482 C22.1595109,34.737482 23.321332,35.8993031 23.321332,37.332482 C23.321332,38.7105387 22.2471631,39.8377097 20.8904439,39.9223767 L20.726332,39.927482 L17.424272,39.926767 L17.424973,43.231436 C17.424973,44.6646149 16.2631519,45.826436 14.829973,45.826436 C13.4519163,45.826436 12.3247453,44.7522671 12.2400783,43.3955479 L12.234973,43.231436 L12.234272,39.926767 L8.924272,39.927482 C7.49109307,39.927482 6.329272,38.7656609 6.329272,37.332482 C6.329272,35.9544253 7.40344089,34.8272543 8.76016012,34.7425873 L8.924272,34.737482 L12.234272,34.736767 L12.234973,31.434566 C12.234973,30.0013871 13.3967941,28.839566 14.829973,28.839566 Z M81.289826,27.0504 C82.6678827,27.0504 83.7950537,28.1245689 83.8797207,29.4812881 L83.884826,29.6454 L83.884272,32.947767 L87.186012,32.948316 C88.6191909,32.948316 89.781012,34.1101371 89.781012,35.543316 C89.781012,36.9213727 88.7068431,38.0485437 87.3501239,38.1332107 L87.186012,38.138316 L83.884272,38.137767 L83.884826,41.44227 C83.884826,42.8754489 82.7230049,44.03727 81.289826,44.03727 C79.9117693,44.03727 78.7845983,42.9631011 78.6999313,41.6063819 L78.694826,41.44227 L78.694272,38.137767 L75.383952,38.138316 C73.9507731,38.138316 72.788952,36.9764949 72.788952,35.543316 C72.788952,34.1652593 73.8631209,33.0380883 75.2198401,32.9534213 L75.383952,32.948316 L78.694272,32.947767 L78.694826,29.6454 C78.694826,28.2122211 79.8566471,27.0504 81.289826,27.0504 Z M25.9834807,19.505733 C28.5564097,21.8846144 31.5371307,22.759138 34.5561506,22.6213572 C35.9878394,22.5560184 37.20142,23.6636639 37.2667588,25.0953526 C37.3320976,26.5270414 36.2244521,27.740622 34.7927634,27.8059608 C30.4860816,28.0025073 26.1535265,26.7313646 22.4601133,23.316505 C21.4077977,22.3435539 21.34346,20.7017509 22.316411,19.6494353 C23.2893621,18.5971197 24.9311651,18.532782 25.9834807,19.505733 Z M53.6324811,1.14041882 C61.930355,7.72843517 64.0958543,14.4631995 62.4553286,20.0626481 C62.2672865,20.7044742 62.0627608,21.1908926 61.8908028,21.5108742 C61.2123722,22.7733059 59.6389925,23.2467324 58.3765608,22.5683018 C57.1646264,21.9170084 56.6798392,20.4409299 57.2432272,19.206967 L57.3391564,19.0071117 C57.3659732,18.9399068 57.4161268,18.8033108 57.4746904,18.6034214 C58.4089917,15.4144605 57.3365322,11.435441 52.3418365,6.85320643 L52.019,6.561 L52.000129,6.57796047 C46.8443151,11.1878082 45.6515556,15.1976619 46.5043754,18.4191106 L46.5568862,18.6076968 L46.6217697,18.8160648 C46.6708996,18.9637943 46.7057008,19.0459385 46.7113254,19.0564308 C47.3884465,20.3195653 46.9133887,21.8924533 45.6502542,22.5695744 C44.3871197,23.2466955 42.8142317,22.7716377 42.1371106,21.5085032 C41.965903,21.1891242 41.7623407,20.7037619 41.5752218,20.0634164 C39.9391803,14.4646668 42.1070327,7.7297603 50.4052093,1.1405344 C51.3501204,0.390221082 52.6875163,0.390173182 53.6324811,1.14041882 Z M23.4292413,73.0384719 C24.860891,73.1046612 25.9678153,74.3188996 25.9016261,75.7505493 C25.8379825,77.1271355 24.712903,78.203495 23.3537213,78.2254134 L23.1895487,78.2229341 C19.695355,78.0613874 16.8591643,79.3133837 14.6310727,81.3708648 C13.5781519,82.3431608 11.9363893,82.2778015 10.9640932,81.2248807 C9.99179719,80.1719599 10.0571565,78.5301973 11.1100773,77.5579012 C14.2842504,74.6267824 18.4081763,72.8063337 23.4292413,73.0384719 Z M86.8065702,49.7936726 C87.2863026,51.1441757 86.5804035,52.6278748 85.2299004,53.1076072 C81.9308296,54.2795195 79.7757799,56.5103396 78.4901619,59.2542098 C77.8820937,60.5519983 76.3370916,61.1111271 75.0393032,60.5030589 C73.7415147,59.8949907 73.1823859,58.3499886 73.7904541,57.0522002 C75.622215,53.1427074 78.7547737,49.9000096 83.4926356,48.2170028 C84.8431387,47.7372704 86.3268378,48.4431695 86.8065702,49.7936726 Z" id="Candle_01" fill="#00B077"></path>
    </g>
</svg>