<?xml version="1.0" encoding="UTF-8"?>
<svg width="100px" height="100px" viewBox="0 0 100 100" version="1.1" xmlns="http://www.w3.org/2000/svg" xmlns:xlink="http://www.w3.org/1999/xlink">
    <!-- Generator: Sketch 63.1 (92452) - https://sketch.com -->
    <title>Candle/10</title>
    <desc>Created with Sketch.</desc>
    <g id="Candle/10" stroke="none" stroke-width="1" fill="none" fill-rule="evenodd">
        <path d="M9.952983,18.751936 C11.3310397,18.751936 12.4582107,19.8261049 12.5428777,21.1828241 L12.547983,21.346936 L12.547527,24.648767 L15.849169,24.649679 C17.2823479,24.649679 18.444169,25.8115001 18.444169,27.244679 C18.444169,28.6227357 17.3700001,29.7499067 16.0132809,29.8345737 L15.849169,29.839679 L12.547527,29.838767 L12.547983,33.143806 C12.547983,34.5769849 11.3861619,35.738806 9.952983,35.738806 C8.57492634,35.738806 7.44775527,34.6646371 7.36308835,33.3079179 L7.357983,33.143806 L7.35752704,29.838767 L4.047109,29.839679 C2.61393007,29.839679 1.452109,28.6778579 1.452109,27.244679 C1.452109,25.8666223 2.52627789,24.7394513 3.88299712,24.6547843 L4.047109,24.649679 L7.35752704,24.648767 L7.357983,21.346936 C7.357983,19.9137571 8.51980407,18.751936 9.952983,18.751936 Z M95.7226975,17.2874262 C96.8232236,18.2054916 96.9711372,19.8418834 96.0530718,20.9424095 C93.2922768,24.251898 89.4264216,26.5897858 84.411436,27.0077012 C82.9832076,27.1267203 81.7289158,26.0653964 81.6098968,24.637168 C81.4908777,23.2089396 82.5522016,21.9546478 83.98043,21.8356288 C87.4744992,21.5444563 90.1335205,19.936405 92.0677142,17.6178005 C92.9857796,16.5172744 94.6221714,16.3693608 95.7226975,17.2874262 Z M39.0647231,1.14041882 C47.362597,7.72843517 49.5280963,14.4631995 47.8875706,20.0626481 C47.6995285,20.7044742 47.4950028,21.1908926 47.3230448,21.5108742 C46.6446142,22.7733059 45.0712345,23.2467324 43.8088028,22.5683018 C42.5968684,21.9170084 42.1120812,20.4409299 42.6754692,19.206967 L42.7513752,19.0540598 C42.7594379,19.0390566 42.8249434,18.8832665 42.9069324,18.6034214 C43.8412337,15.4144605 42.7687742,11.435441 37.7740785,6.85320643 L37.451,6.561 L37.432371,6.57796047 C32.2765571,11.1878082 31.0837976,15.1976619 31.9366174,18.4191106 L31.9891282,18.6076968 C32.0706323,18.8866146 32.135693,19.0417416 32.1435674,19.0564308 C32.8206885,20.3195653 32.3456307,21.8924533 31.0824962,22.5695744 C29.8193617,23.2466955 28.2464737,22.7716377 27.5693526,21.5085032 C27.398145,21.1891242 27.1945827,20.7037619 27.0074638,20.0634164 C25.3714223,14.4646668 27.5392747,7.7297603 35.8374513,1.1405344 C36.7823624,0.390221082 38.1197583,0.390173182 39.0647231,1.14041882 Z M68.0320161,1.14041882 C76.32989,7.72843517 78.4953893,14.4631995 76.8548636,20.0626481 C76.6668215,20.7044742 76.4622958,21.1908926 76.2903378,21.5108742 C75.6119072,22.7733059 74.0385275,23.2467324 72.7760958,22.5683018 C71.5641614,21.9170084 71.0793742,20.4409299 71.6427622,19.206967 L71.7186682,19.0540598 C71.7267309,19.0390566 71.7922364,18.8832665 71.8742254,18.6034214 C72.8085267,15.4144605 71.7360672,11.435441 66.7413715,6.85320643 L66.418,6.561 L66.399664,6.57796047 C61.2438501,11.1878082 60.0510906,15.1976619 60.9039104,18.4191106 L60.9564212,18.6076968 L61.0213047,18.8160648 C61.0704346,18.9637943 61.1052358,19.0459385 61.1108604,19.0564308 C61.7879815,20.3195653 61.3129237,21.8924533 60.0497892,22.5695744 C58.7866547,23.2466955 57.2137667,22.7716377 56.5366456,21.5085032 L56.4029359,21.238019 C56.2646846,20.9367566 56.115096,20.5436755 55.9747568,20.0634164 C54.3387153,14.4646668 56.5065677,7.7297603 64.8047443,1.1405344 C65.7496554,0.390221082 67.0870513,0.390173182 68.0320161,1.14041882 Z M66.416204,17.290951 C67.7942607,17.290951 68.9214317,18.3651199 69.0060987,19.7218391 L69.011204,19.885951 L69.010527,29.522767 L71.946322,29.523089 C87.8081625,29.523089 99.2163872,41.646056 99.4429655,63.6840581 L99.446402,64.354909 C99.446402,86.8166653 87.9673585,99.188459 71.946322,99.188459 L71.946322,99.188459 L59.597582,99.188459 C43.577441,99.188459 32.100962,86.8171627 32.100962,64.354909 C32.100962,50.6701924 36.3598682,40.7318992 43.3108955,35.0541766 C42.7585526,34.8599418 42.1752925,34.7484673 41.5772503,34.7202543 L41.272384,34.713089 L37.4759302,34.7136415 C37.4668771,34.7137344 37.457813,34.713781 37.448738,34.713781 L37.419527,34.712767 L29.901094,34.713089 C28.3722615,34.713089 27.1038128,35.2078293 25.9827083,36.2264764 L25.7742003,36.4236194 L7.77843753,54.1460376 C5.45830162,56.4301838 5.44052983,60.1426379 7.7395649,62.4476737 C9.98365199,64.7011306 13.6148399,64.7760032 15.9537615,62.662398 L16.140519,62.4862287 L19.607439,59.0746687 C21.2099779,57.4977192 23.8941243,58.5699182 24.0181017,60.7655949 L24.022554,60.924319 L24.022554,88.119919 C24.022554,91.2891127 26.5560869,93.8783433 29.7337362,93.9943987 L29.956454,93.998459 L37.793354,93.998459 C39.2265329,93.998459 40.388354,95.1602801 40.388354,96.593459 C40.388354,97.9715157 39.3141851,99.0986867 37.9574659,99.1833537 L37.793354,99.188459 L29.956454,99.188459 C23.9138843,99.188459 18.9910634,94.3926627 18.8363058,88.4102991 L18.832554,88.119919 L18.832,67.019 C14.5281236,70.3885288 8.31861319,70.1540609 4.29325233,66.3356099 L4.06347235,66.1113384 C-0.193333668,61.8434238 -0.234284254,54.9927108 3.91480575,50.6728739 L4.13704769,50.4478786 L22.1343152,32.7239803 C24.1817154,30.7116158 26.688752,29.6130497 29.5425689,29.5283842 L29.901094,29.523089 L34.853527,29.522767 L34.853738,19.885951 C34.853738,18.4527721 36.0155591,17.290951 37.448738,17.290951 C38.8267947,17.290951 39.9539657,18.3651199 40.0386327,19.7218391 L40.043738,19.885951 L40.043527,29.522767 L41.272384,29.523089 C42.7596543,29.523089 44.2282748,29.8061281 45.5998073,30.3741145 C46.5620777,30.7721921 47.456022,31.2989755 48.2600387,31.9365476 C51.6598748,30.3406803 55.4784879,29.523089 59.597582,29.523089 L59.597582,29.523089 L63.820527,29.522767 L63.821204,19.885951 C63.821204,18.4527721 64.9830251,17.290951 66.416204,17.290951 Z M71.946322,34.713089 L59.597582,34.713089 C46.5332872,34.713089 37.290962,44.6747651 37.290962,64.354909 C37.290962,84.0342365 46.5344711,93.998459 59.597582,93.998459 L59.597582,93.998459 L71.946322,93.998459 C85.0105576,93.998459 94.256402,84.0335451 94.256402,64.354909 C94.256402,44.6754565 85.0117417,34.713089 71.946322,34.713089 L71.946322,34.713089 Z M59.597582,44.695189 C64.7138037,44.695189 68.3978683,47.3002166 70.5176197,51.7966053 C72.1043342,55.1623232 72.776722,59.4406942 72.776722,64.354909 C72.776722,69.2700597 72.1043586,73.5491589 70.5177038,76.9154131 C68.3980118,81.4125616 64.7139433,84.018089 59.597582,84.018089 C54.4838717,84.018089 50.8020579,81.4120464 48.6840237,76.9146564 C47.0988117,73.54865 46.4271021,69.2699019 46.4271021,64.3476555 L46.4271021,64.3476555 L46.4279025,64.0649875 C46.4551832,59.2007584 47.1500126,54.9768465 48.7495126,51.6601359 C50.8782383,47.2460272 54.5399602,44.695189 59.597582,44.695189 Z M15.3191985,75.5463517 C15.3611028,76.9789178 14.2337485,78.1742123 12.8011823,78.2161165 C9.73037617,78.3059412 7.20046559,79.5176018 5.19172833,81.3715154 C4.13854373,82.3435257 2.49679888,82.2777209 1.52478858,81.2245363 C0.552778283,80.1713517 0.618583061,78.5296069 1.67176767,77.5575966 C4.53546472,74.9146193 8.20236067,73.1584176 12.6494337,73.0283355 C14.0819998,72.9864312 15.2772943,74.1137855 15.3191985,75.5463517 Z M59.597582,49.885189 C54.145364,49.885189 51.6687081,55.0207632 51.6178516,64.0867946 L51.6178516,64.0867946 L51.6188505,64.7776572 C51.693922,73.7359763 54.1754566,78.828089 59.597582,78.828089 C65.1109966,78.828089 67.586722,73.5755785 67.586722,64.354909 C67.586722,55.1364083 65.1111176,49.885189 59.597582,49.885189 Z" id="Candle_10" fill="#00B077"></path>
    </g>
</svg>