<?xml version="1.0" encoding="UTF-8"?>
<svg width="100px" height="100px" viewBox="0 0 100 100" version="1.1" xmlns="http://www.w3.org/2000/svg" xmlns:xlink="http://www.w3.org/1999/xlink">
    <!-- Generator: Sketch 63.1 (92452) - https://sketch.com -->
    <title>Candle/2</title>
    <desc>Created with Sketch.</desc>
    <g id="Candle/2" stroke="none" stroke-width="1" fill="none" fill-rule="evenodd">
        <path d="M50.921173,17.290951 C52.2992297,17.290951 53.4264007,18.3651199 53.5110677,19.7218391 L53.516173,19.885951 L53.515882,29.522767 L57.314388,29.523089 C70.5155042,29.523089 80.821325,40.2112523 81.0261213,53.4400569 L81.029228,53.841699 C81.029228,60.6977331 78.7879953,66.6848072 74.6419957,72.0611905 C72.8384873,74.3999154 70.807522,76.5020901 68.3533508,78.6226849 L68.3533508,78.6226849 L68.112,78.828 L70.849908,78.828089 C76.3778697,78.828089 80.8770103,83.2337083 81.0254461,88.7255147 L81.0254461,88.7255147 L81.029228,89.005679 C81.029228,94.6287059 76.4716291,99.188459 70.849908,99.188459 L70.849908,99.188459 L29.492528,99.188459 C23.87066,99.188459 19.311478,94.6285589 19.311478,89.005679 C19.311478,84.6131266 21.0013684,80.7940006 24.1556041,77.2590229 C26.3115205,74.8428698 28.6402058,72.9499103 32.9271915,69.9188024 L32.9271915,69.9188024 L35.3428405,68.2226269 C44.5617171,61.7049693 47.591788,58.2965121 47.591788,53.841699 C47.591788,51.6604222 45.8155837,49.885189 43.633548,49.885189 C41.4499442,49.885189 39.673578,51.6602605 39.673578,53.841699 L39.673578,53.841699 L39.6697959,54.1219655 C39.5213502,59.6157983 35.0219018,64.024479 29.492528,64.024479 C23.87066,64.024479 19.311478,59.4645789 19.311478,53.841699 C19.311478,40.4311305 30.2207187,29.523089 43.633548,29.523089 L43.633548,29.523089 L48.325882,29.522767 L48.326173,19.885951 C48.326173,18.4527721 49.4879941,17.290951 50.921173,17.290951 Z M50.891882,34.712767 L43.633548,34.713089 C33.0869489,34.713089 24.501478,43.297616 24.501478,53.841699 C24.501478,56.598404 26.7372009,58.834479 29.492528,58.834479 C32.2488961,58.834479 34.483578,56.5990931 34.483578,53.841699 L34.483578,53.841699 L34.4873475,53.5768758 C34.6277595,48.6505317 38.6730141,44.695189 43.633548,44.695189 C48.6813063,44.695189 52.781788,48.7934288 52.781788,53.841699 C52.781788,57.7274004 51.1857869,61.1447494 48.1025387,64.4777113 C45.8774814,66.882977 43.1559202,69.0639657 38.3697573,72.4396237 L38.3697573,72.4396237 L36.3535425,73.8536587 C27.609355,80.0201215 24.501478,83.5904864 24.501478,89.005679 C24.501478,91.762384 26.7372009,93.998459 29.492528,93.998459 L29.492528,93.998459 L70.849908,93.998459 C73.6047221,93.998459 75.839228,91.7628969 75.839228,89.005679 C75.839228,86.251041 73.6055722,84.018089 70.849908,84.018089 L70.849908,84.018089 L60.523538,84.018089 C58.0008247,84.018089 56.9615336,80.7825954 59.0123523,79.3135055 C70.4365498,71.1298599 75.839228,64.123861 75.839228,53.841699 C75.839228,43.2389346 67.7236774,34.713089 57.314388,34.713089 L57.314388,34.713089 L50.9483652,34.7136415 C50.9393121,34.7137344 50.930248,34.713781 50.921173,34.713781 L50.891882,34.712767 Z M87.252903,67.862657 C88.6309597,67.862657 89.7581307,68.9368259 89.8427977,70.2935451 L89.847903,70.457657 L89.847882,73.759767 L93.149089,73.7604 C94.5822679,73.7604 95.744089,74.9222211 95.744089,76.3554 C95.744089,77.7334567 94.6699201,78.8606277 93.3132009,78.9452947 L93.149089,78.9504 L89.847882,78.949767 L89.847903,82.254527 C89.847903,83.6877059 88.6860819,84.849527 87.252903,84.849527 C85.8748463,84.849527 84.7476753,83.7753581 84.6630083,82.4186389 L84.657903,82.254527 L84.657882,78.949767 L81.347029,78.9504 C79.9138501,78.9504 78.752029,77.7885789 78.752029,76.3554 C78.752029,74.9773433 79.8261979,73.8501723 81.1829171,73.7655053 L81.347029,73.7604 L84.657882,73.759767 L84.657903,70.457657 C84.657903,69.0244781 85.8197241,67.862657 87.252903,67.862657 Z M12.025756,28.839566 C13.4038127,28.839566 14.5309837,29.9137349 14.6156507,31.2704541 L14.620756,31.434566 L14.619882,34.736767 L17.921942,34.737482 C19.3551209,34.737482 20.516942,35.8993031 20.516942,37.332482 C20.516942,38.7105387 19.4427731,39.8377097 18.0860539,39.9223767 L17.921942,39.927482 L14.619882,39.926767 L14.620756,43.231436 C14.620756,44.6646149 13.4589349,45.826436 12.025756,45.826436 C10.6476993,45.826436 9.52052827,44.7522671 9.43586135,43.3955479 L9.430756,43.231436 L9.429882,39.926767 L6.119882,39.927482 C4.68670307,39.927482 3.524882,38.7656609 3.524882,37.332482 C3.524882,35.9544253 4.59905089,34.8272543 5.95577012,34.7425873 L6.119882,34.737482 L9.429882,34.736767 L9.430756,31.434566 C9.430756,30.0013871 10.5925771,28.839566 12.025756,28.839566 Z M85.96042,25.785078 C87.3384767,25.785078 88.4656477,26.8592469 88.5503147,28.2159661 L88.55542,28.380078 L88.554882,31.682767 L91.856606,31.682994 C93.2897849,31.682994 94.451606,32.8448151 94.451606,34.277994 C94.451606,35.6560507 93.3774371,36.7832217 92.0207179,36.8678887 L91.856606,36.872994 L88.554882,36.872767 L88.55542,40.176948 C88.55542,41.6101269 87.3935989,42.771948 85.96042,42.771948 C84.5823633,42.771948 83.4551923,41.6977791 83.3705253,40.3410599 L83.36542,40.176948 L83.364882,36.872767 L80.054546,36.872994 C78.6213671,36.872994 77.459546,35.7111729 77.459546,34.277994 C77.459546,32.8999373 78.5337149,31.7727663 79.8904341,31.6880993 L80.054546,31.682994 L83.364882,31.682767 L83.36542,28.380078 C83.36542,26.9468991 84.5272411,25.785078 85.96042,25.785078 Z M24.8879847,19.505733 C27.4609137,21.8846144 30.4416347,22.759138 33.4606546,22.6213572 C34.8923434,22.5560184 36.105924,23.6636639 36.1712628,25.0953526 C36.2366016,26.5270414 35.1289561,27.740622 33.6972674,27.8059608 C29.3905856,28.0025073 25.0580305,26.7313646 21.3646173,23.316505 C20.3123017,22.3435539 20.247964,20.7017509 21.220915,19.6494353 C22.1938661,18.5971197 23.8356691,18.532782 24.8879847,19.505733 Z M52.5369851,1.14041882 C60.834859,7.72843517 63.0003583,14.4631995 61.3598326,20.0626481 C61.1717905,20.7044742 60.9672648,21.1908926 60.7953068,21.5108742 C60.1168762,22.7733059 58.5434965,23.2467324 57.2810648,22.5683018 C56.0691304,21.9170084 55.5843432,20.4409299 56.1477312,19.206967 L56.2236372,19.0540598 C56.2316999,19.0390566 56.2972054,18.8832665 56.3791944,18.6034214 C57.3134957,15.4144605 56.2410362,11.435441 51.2463405,6.85320643 L50.923,6.561 L50.904633,6.57796047 C45.7488191,11.1878082 44.5560596,15.1976619 45.4088794,18.4191106 L45.4613902,18.6076968 L45.5262737,18.8160648 C45.5754036,18.9637943 45.6102048,19.0459385 45.6158294,19.0564308 C46.2929505,20.3195653 45.8178927,21.8924533 44.5547582,22.5695744 C43.2916237,23.2466955 41.7187357,22.7716377 41.0416146,21.5085032 C40.870407,21.1891242 40.6668447,20.7037619 40.4797258,20.0634164 C38.8436843,14.4646668 41.0115367,7.7297603 49.3097133,1.1405344 C50.2546244,0.390221082 51.5920203,0.390173182 52.5369851,1.14041882 Z M20.159703,70.8794635 C20.9288244,72.0887831 20.5719732,73.6926265 19.3626535,74.461748 C16.4112315,76.338838 14.8113215,78.9953722 14.1734188,81.959385 C13.8718802,83.3604832 12.4916203,84.2518524 11.090522,83.9503138 C9.68942378,83.6487752 8.79805459,82.2685153 9.09959321,80.867417 C10.0086173,76.6436394 12.3352721,72.7803985 16.5774185,70.082414 C17.7867381,69.3132926 19.3905815,69.6701438 20.159703,70.8794635 Z M96.3199532,48.3930646 C96.7996856,49.7435677 96.0937865,51.2272668 94.7432834,51.7069992 C91.4442126,52.8789115 89.2891629,55.1097316 88.0035449,57.8536018 C87.3954767,59.1513903 85.8504746,59.7105191 84.5526862,59.1024509 C83.2548977,58.4943827 82.6957689,56.9493806 83.3038371,55.6515922 C85.135598,51.7420994 88.2681567,48.4994016 93.0060186,46.8163948 C94.3565217,46.3366624 95.8402208,47.0425615 96.3199532,48.3930646 Z" id="Candle_02" fill="#00B077"></path>
    </g>
</svg>