<?xml version="1.0" encoding="UTF-8"?>
<svg width="100px" height="100px" viewBox="0 0 100 100" version="1.1" xmlns="http://www.w3.org/2000/svg" xmlns:xlink="http://www.w3.org/1999/xlink">
    <!-- Generator: Sketch 63.1 (92452) - https://sketch.com -->
    <title>CelebratingPerson</title>
    <desc>Created with Sketch.</desc>
    <g id="CelebratingPerson" stroke="none" stroke-width="1" fill="none" fill-rule="evenodd">
        <path d="M69.2272684,57.1003616 L69.4951316,57.2019529 C69.6418839,57.2587527 69.8248015,57.3310007 70.0408018,57.418367 C70.659073,57.6684408 71.3450273,57.9611089 72.0822773,58.2947451 C74.1900248,59.2485883 76.2992185,60.3450271 78.2819329,61.5758614 C82.8282463,64.398133 86.0716104,67.4979646 87.4280144,71.0416906 C88.3131115,73.345524 88.8273888,75.8492044 89.0711461,78.6718919 L89.1356532,79.4969998 C89.2426426,81.0354293 89.267419,82.5076128 89.2436131,84.7243901 L89.1921008,88.2311145 C89.1776351,89.6642205 88.0041464,90.8142556 86.5710405,90.7997898 C85.1379345,90.7853241 83.9878994,89.6118354 84.0023652,88.1787295 L84.0532953,84.7195803 C84.0803165,82.2475281 84.0447478,80.7900632 83.9003906,79.1184202 C83.6956158,76.7471467 83.2768069,74.7082395 82.5820999,72.8999701 C81.7268147,70.6654648 79.212035,68.2619748 75.5446243,65.9853105 C73.7722256,64.8850366 71.8580839,63.8899932 69.9424959,63.0231101 L69.5459971,62.8455648 L69.4232959,63.0602506 C61.3584622,76.9235032 45.0121539,76.7226112 37.0437188,63.0269359 L36.94,62.844 L36.5414316,63.0232451 C34.6257607,63.8902677 32.7115356,64.8854674 30.9390582,65.9859103 C27.2721817,68.2624913 24.7574918,70.6658753 23.9009726,72.9022228 C22.543745,76.4382445 22.0104312,83.5468658 21.9099382,93.0931423 L21.9,94.126 L87.252903,94.126712 C88.6309597,94.126712 89.7581307,95.2008809 89.8427977,96.5576001 L89.847903,96.721712 C89.847903,98.0997687 88.7737341,99.2269397 87.4170149,99.3116067 L87.252903,99.316712 L19.296773,99.316712 C17.8635941,99.316712 16.701773,98.1548909 16.701773,96.721712 L16.7064604,94.7118988 C16.760443,83.5174341 17.2951697,75.6290245 19.054961,71.0441949 C20.4131176,67.498083 23.6561411,64.3986031 28.201534,61.5765951 C30.1843277,60.3455772 32.2936075,59.2489691 34.4014413,58.2949746 C34.9912658,58.0280232 35.5482597,57.7872951 36.0640323,57.5736233 L36.8718927,57.2475047 C37.0365419,57.1829909 37.1657949,57.1338452 37.2565691,57.1003979 C38.5278175,56.6319848 39.9454784,57.2203458 40.5114703,58.4512547 C46.4388381,71.3419886 59.9615569,71.5248707 65.972428,58.4513367 C66.5383746,57.2204133 67.9560063,56.6320019 69.2272684,57.1003616 Z M10.34558,52.13027 C11.7236367,52.13027 12.8508077,53.2044389 12.9354747,54.5611581 L12.94058,54.72527 L12.939706,58.0274382 L16.241766,58.028186 C17.6749449,58.028186 18.836766,59.1900071 18.836766,60.623186 C18.836766,62.0012427 17.7625971,63.1284137 16.4058779,63.2130807 L16.241766,63.218186 L12.939706,63.2174382 L12.94058,66.52214 C12.94058,67.9553189 11.7787589,69.11714 10.34558,69.11714 C8.96752334,69.11714 7.84035227,68.0429711 7.75568535,66.6862519 L7.75058,66.52214 L7.749706,63.2174382 L4.439706,63.218186 C3.00652707,63.218186 1.844706,62.0563649 1.844706,60.623186 C1.844706,59.2451293 2.91887489,58.1179583 4.27559412,58.0332913 L4.439706,58.028186 L7.749706,58.0274382 L7.75058,54.72527 C7.75058,53.2920911 8.91240107,52.13027 10.34558,52.13027 Z M53.433479,21.327447 C73.3793951,21.327447 77.138646,48.1097457 59.9428945,56.866269 C58.6657681,57.516615 57.103243,57.008509 56.452897,55.7313825 C55.802551,54.4542561 56.310657,52.891731 57.5877835,52.241385 C63.3705203,49.2966652 66.38752,43.0236298 65.519798,36.8416562 C64.6524901,30.6626326 60.2320188,26.517447 53.433479,26.517447 C48.6926153,26.517447 45.3590533,28.3832129 43.311859,31.6459902 C41.5586675,34.4401917 40.9028322,38.1491093 41.445266,41.1739203 C42.747857,48.4296863 47.5557031,53.7134837 55.7295954,58.4598815 C56.9689752,59.1795618 57.3902748,60.7676937 56.6705945,62.0070734 C55.9509142,63.2464532 54.3627823,63.6677528 53.1234026,62.9480725 C43.761289,57.5117011 37.960943,51.1371515 36.3368446,42.0905068 C35.5715656,37.8230286 36.4593769,32.8022266 38.915574,28.8875888 C41.9069258,24.1200321 46.8964348,21.327447 53.433479,21.327447 Z M82.64228,39.950205 C84.0203367,39.950205 85.1475077,41.0243739 85.2321747,42.3810931 L85.23728,42.545205 L85.236706,45.8474382 L88.538466,45.848121 C89.9716449,45.848121 91.133466,47.0099421 91.133466,48.443121 C91.133466,49.8211777 90.0592971,50.9483487 88.7025779,51.0330157 L88.538466,51.038121 L85.236706,51.0374382 L85.23728,54.342075 C85.23728,55.7752539 84.0754589,56.937075 82.64228,56.937075 C81.2642233,56.937075 80.1370523,55.8629061 80.0523853,54.5061869 L80.04728,54.342075 L80.046706,51.0374382 L76.736406,51.038121 C75.3032271,51.038121 74.141406,49.8762999 74.141406,48.443121 C74.141406,47.0650643 75.2155749,45.9378933 76.5722941,45.8532263 L76.736406,45.848121 L80.046706,45.8474382 L80.04728,42.545205 C80.04728,41.1120261 81.2091011,39.950205 82.64228,39.950205 Z M91.7137876,26.386984 C92.6484229,27.4734731 92.5253211,29.1119182 91.438832,30.0465536 C87.6263293,33.3261997 83.2576177,34.4401545 78.9586991,34.093001 C77.5301704,33.977642 76.4656361,32.7260738 76.580995,31.2975451 C76.696354,29.8690164 77.9479222,28.8044821 79.3764509,28.919841 C82.3923883,29.1633892 85.3979911,28.3970063 88.054218,26.1120284 C89.1407071,25.1773931 90.7791522,25.3004949 91.7137876,26.386984 Z M25.302295,14.343956 C26.6803517,14.343956 27.8075227,15.4181249 27.8921897,16.7748441 L27.897295,16.938956 L27.896706,20.2414382 L31.198481,20.241872 C32.6316599,20.241872 33.793481,21.4036931 33.793481,22.836872 C33.793481,24.2149287 32.7193121,25.3420997 31.3625929,25.4267667 L31.198481,25.431872 L27.896706,25.4314382 L27.897295,28.735826 C27.897295,30.1690049 26.7354739,31.330826 25.302295,31.330826 C23.9242383,31.330826 22.7970673,30.2566571 22.7124003,28.8999379 L22.707295,28.735826 L22.706706,25.4314382 L19.396421,25.431872 C17.9632421,25.431872 16.801421,24.2700509 16.801421,22.836872 C16.801421,21.4588153 17.8755899,20.3316443 19.2323091,20.2469773 L19.396421,20.241872 L22.706706,20.2414382 L22.707295,16.938956 C22.707295,15.5057771 23.8691161,14.343956 25.302295,14.343956 Z M69.2037096,2.63455657 L69.2422218,2.80266985 L73.0586018,22.2772799 C73.3342151,23.6837076 72.4175089,25.0472714 71.0110811,25.3228848 C69.6587467,25.5878976 68.3460425,24.750544 68.0020465,23.435431 L67.9654762,23.2753641 L64.947,7.871 L50.5257804,18.748114 C49.4292477,19.5751672 47.8891583,19.4002737 47.0031533,18.3772046 L46.891387,18.2389634 C46.0643338,17.1424307 46.2392273,15.6023413 47.2622964,14.7163363 L47.4005376,14.60457 L65.1330376,1.22993998 C66.6168873,0.11075535 68.7402898,0.87233201 69.2037096,2.63455657 Z M19.7152877,46.0730333 C21.6509712,48.4031733 24.2971371,50.0181413 27.7864191,50.3221816 C29.214188,50.446591 30.2707697,51.7048802 30.1463604,53.1326491 C30.021951,54.560418 28.7636618,55.6169997 27.3358929,55.4925904 C22.3266048,55.0561035 18.4806048,52.7088709 15.7230843,49.3894187 C14.8072898,48.2870022 14.9585768,46.6509188 16.0609933,45.7351243 C17.1634098,44.8193298 18.7994932,44.9706168 19.7152877,46.0730333 Z M36.6064873,2.82379185 C39.7679543,5.7596464 41.8987843,9.73043608 42.060331,14.7572872 C42.106365,16.1897266 40.9824613,17.3882661 39.5500218,17.4343 C38.1175824,17.480334 36.9190429,16.3564303 36.873009,14.9239908 C36.760412,11.4203075 35.29403,8.687713 33.0748127,6.62686615 C32.0246227,5.65162112 31.9638678,4.00968164 32.9391129,2.95949167 C33.9143579,1.9093017 35.5562974,1.84854682 36.6064873,2.82379185 Z" fill="#00B077"></path>
    </g>
</svg>