<?xml version="1.0" encoding="UTF-8"?>
<svg width="100px" height="100px" viewBox="0 0 100 100" version="1.1" xmlns="http://www.w3.org/2000/svg" xmlns:xlink="http://www.w3.org/1999/xlink">
    <!-- Generator: Sketch 63.1 (92452) - https://sketch.com -->
    <title>HBDMessage</title>
    <desc>Created with Sketch.</desc>
    <g id="HBDMessage" stroke="none" stroke-width="1" fill="none" fill-rule="evenodd">
        <path d="M55.9681693,37.2945209 C56.1118975,35.9233678 57.2986592,34.9141536 58.6573608,34.9722269 L60.35423,35.1459805 L66.8864111,35.8336095 C72.2097958,36.3913279 75.565438,40.0855361 75.0632287,44.4473375 C74.8421333,46.3676019 73.917608,48.0083193 72.4998623,49.1904856 L72.409,49.263 L72.4830015,49.354865 C73.576989,50.7455632 74.1404359,52.4541323 74.0251742,54.2879634 L74.0062788,54.5278533 C73.592448,58.9002935 69.5424198,61.8178797 64.2204067,61.2572178 L56.1540427,60.4128623 C54.7835008,60.2691911 53.7744631,59.0833684 53.8316979,57.7252201 L53.8437293,57.5614709 L55.9681693,37.2945209 Z M59.796,50.55 L59.275,55.521 L64.7617213,56.095525 C67.3467013,56.3678462 68.7120283,55.3842828 68.8393692,54.0388297 C68.9640946,52.7210093 67.8736955,51.4771472 65.5362339,51.1553506 L65.2810183,51.1244394 L59.796,50.55 Z M60.858,40.418 L60.337,45.388 L65.8231197,45.9628286 C68.2495522,46.2176662 69.6517891,45.2825396 69.8866064,43.9931585 L69.9072918,43.853693 C70.0617838,42.511895 68.9301974,41.2661378 66.3450181,40.9952946 L60.858,40.418 Z M85.8689131,31.6296215 L80.2948756,32.0482798 C78.8656559,32.1556265 77.7940961,33.4013074 77.9015365,34.83052 L79.4291265,55.1511 C79.5366489,56.581404 80.7841377,57.6532055 82.2143176,57.544045 L87.7901076,57.118465 C95.2756448,56.556173 100.03746,51.5283549 99.4253581,43.4278122 C98.8174551,35.3250481 93.3586104,31.0670151 85.8689131,31.6296215 Z M94.2694606,44.1161393 C94.5382557,49.0460879 92.0400337,51.5946016 87.3982331,51.9432815 L84.409,52.171 L83.271,37.029 L86.2576544,36.8050422 C90.994043,36.4492572 93.8652365,38.6888587 94.2500075,43.8174832 L94.2694606,44.1161393 Z M49.8672102,29.645398 L49.882463,29.8088792 L51.143633,50.1467592 C51.2323353,51.5771906 50.1446491,52.8086917 48.7142178,52.897394 C47.338803,52.9826847 46.1473104,51.980338 45.9788358,50.63146 L45.963583,50.4679788 L45.492753,42.887028 L36.794753,43.427028 L37.2655713,51.001525 C37.3542887,52.4319554 36.2666154,53.663468 34.836185,53.7521853 C33.4607711,53.8374905 32.269268,52.8351563 32.1007792,51.4862801 L32.0855247,51.322799 L30.8243547,30.988379 C30.7356373,29.5579486 31.8233106,28.326436 33.253741,28.2377187 C34.6291549,28.1524135 35.820658,29.1547477 35.9891468,30.5036239 L36.0044013,30.667105 L36.473753,38.247028 L45.171753,37.707028 L44.702413,30.1300988 C44.6137107,28.6996674 45.7013969,27.4681663 47.1318282,27.379464 C48.507243,27.2941733 49.6987356,28.29652 49.8672102,29.645398 Z M3.463753,61.616379 C4.84180966,61.616379 5.96898073,62.6905479 6.05364765,64.0472671 L6.058753,64.211379 L6.058753,73.800769 C6.058753,78.666872 9.98164093,82.6738353 14.8193962,82.8153894 L15.084163,82.819259 L21.409043,82.819259 C22.8422219,82.819259 24.004043,83.9810801 24.004043,85.414259 C24.004043,86.7923157 22.9298741,87.9194867 21.5731549,88.0041537 L21.409043,88.009259 L15.084163,88.009259 C7.36438663,88.009259 1.03944271,81.7917171 0.872149946,74.1128627 L0.868753,73.800769 L0.868753,64.211379 C0.868753,62.7782001 2.03057407,61.616379 3.463753,61.616379 Z M96.883753,61.616552 C98.2618097,61.616552 99.3889807,62.6907209 99.4736477,64.0474401 L99.478753,64.211552 L99.478753,73.800942 C99.478753,81.5184227 93.2567394,87.8388644 85.575531,88.0060375 L85.263343,88.009432 L48.656,88.009 L31.2194914,98.9034743 C29.5377948,99.9541322 27.3703135,98.8061594 27.2543807,96.8661525 L27.249523,96.702682 L27.249523,85.414432 C27.249523,83.9812531 28.4113441,82.819432 29.844523,82.819432 C31.2225797,82.819432 32.3497507,83.8936009 32.4344177,85.2503201 L32.439523,85.414432 L32.439,92.021 L46.5376746,83.2136397 C46.8911115,82.9928262 47.2916276,82.8609281 47.7050276,82.8277494 L47.912643,82.819432 L85.263343,82.819432 C90.1333718,82.819432 94.1432245,78.8993634 94.2848806,74.0654957 L94.288753,73.800942 L94.288753,64.211552 C94.288753,62.7783731 95.4505741,61.616552 96.883753,61.616552 Z M85.263343,0.688028 C92.983767,0.688028 99.3080806,6.90620888 99.4753564,14.5877733 L99.478753,14.899978 L99.478753,25.202128 C99.478753,26.6353069 98.3169319,27.797128 96.883753,27.797128 C95.5056963,27.797128 94.3785253,26.7229591 94.2938583,25.3662399 L94.288753,25.202128 L94.288753,14.899978 C94.288753,10.0308869 90.3662681,6.02346749 85.5281314,5.88189801 L85.263343,5.878028 L15.084163,5.878028 C10.2137239,5.878028 6.20426682,9.79849933 6.062625,14.6352638 L6.058753,14.899978 L6.058753,25.202128 C6.058753,26.6353069 4.89693193,27.797128 3.463753,27.797128 C2.08569634,27.797128 0.958525269,26.7229591 0.873858347,25.3662399 L0.868753,25.202128 L0.868753,14.899978 C0.868753,7.17973102 7.0901276,0.858613512 14.7719494,0.691422866 L15.084163,0.688028 L85.263343,0.688028 Z M20.8394372,30.0959562 C22.2025168,30.2985747 23.1595002,31.5267995 23.0437657,32.8812223 L23.0246858,33.0443012 L22.549753,36.234028 L24.967307,36.234165 C26.4004859,36.234165 27.562307,37.3959861 27.562307,38.829165 C27.562307,40.2072217 26.4881381,41.3343927 25.1314189,41.4190597 L24.967307,41.424165 L21.778753,41.424028 L21.046753,46.347028 L23.871698,46.347226 C25.3048769,46.347226 26.466698,47.5090471 26.466698,48.942226 C26.466698,50.3202827 25.3925291,51.4474537 24.0358099,51.5321207 L23.871698,51.537226 L20.274753,51.537028 L19.6875158,55.4945112 C19.4767926,56.912114 18.1567735,57.8904831 16.7391708,57.6797598 C15.3760912,57.4771413 14.4191078,56.2489165 14.5348423,54.8944937 L14.5539222,54.7314148 L15.028753,51.537028 L11.128753,51.537028 L10.5399391,55.4947047 C10.3291089,56.9122916 9.00901613,57.8905612 7.59142928,57.6797311 C6.22836499,57.4770098 5.2714742,56.2487128 5.3873108,54.8942988 L5.40640294,54.7312213 L5.880753,51.537028 L3.464618,51.537226 C2.03143907,51.537226 0.869618,50.3754049 0.869618,48.942226 C0.869618,47.5641693 1.94378689,46.4369983 3.30050612,46.3523313 L3.464618,46.347226 L6.652753,46.347028 L7.384753,41.424028 L4.558497,41.424165 C3.12531807,41.424165 1.963497,40.2623439 1.963497,38.829165 C1.963497,37.4511083 3.03766589,36.3239373 4.39438512,36.2392703 L4.558497,36.234165 L8.156753,36.234028 L8.74530294,32.2810113 C8.95613308,30.8634244 10.2762259,29.8851548 11.6938127,30.0959849 C13.056877,30.2987062 14.0137678,31.5270032 13.8979312,32.8814172 L13.8788391,33.0444947 L13.403753,36.234028 L17.302753,36.234028 L17.8910922,32.2812048 C18.1018154,30.863602 19.4218345,29.8852329 20.8394372,30.0959562 Z M16.531753,41.424028 L12.631753,41.424028 L11.899753,46.347028 L15.799753,46.347028 L16.531753,41.424028 Z" id="#HBD" fill="#00B077"></path>
    </g>
</svg>