<?xml version="1.0" encoding="UTF-8"?>
<svg width="100px" height="100px" viewBox="0 0 100 100" version="1.1" xmlns="http://www.w3.org/2000/svg" xmlns:xlink="http://www.w3.org/1999/xlink">
    <!-- Generator: Sketch 63.1 (92452) - https://sketch.com -->
    <title>Present02</title>
    <desc>Created with Sketch.</desc>
    <g id="Present02" stroke="none" stroke-width="1" fill="none" fill-rule="evenodd">
        <path d="M49.6812151,30.1525314 C38.3176156,30.0186717 29.9483563,25.4820147 26.4589016,18.4659175 C23.082759,11.6776522 25.3419826,4.15646734 32.0317587,1.52126681 L32.0317587,1.52126681 L32.3573003,1.39677876 C37.0386672,-0.335744454 41.2142908,0.613176486 44.496436,3.80598875 C46.9504008,6.19316193 48.7993368,9.69834778 50.1995704,14.0492326 C51.6002592,9.69834778 53.4491952,6.19316193 55.90316,3.80598875 C59.2616342,0.538925038 63.5556271,-0.378666742 68.3697183,1.52200862 L68.3697183,1.52200862 L68.6560013,1.63896037 C75.1212135,4.37448644 77.2661415,11.7762103 73.938711,18.4659923 C70.3961517,25.5882895 61.8256919,30.155577 50.199798,30.155577 L50.199798,30.155577 Z M66.4637977,6.34938538 C61.197563,4.27019704 57.5518919,7.81664082 54.9906584,16.1145718 C54.2087983,18.6476562 53.6250871,21.3861442 53.2152133,24.1281657 L53.2152133,24.1281657 L53.1799379,24.3671708 L53.111,24.854 L53.4934342,24.822429 C61.3321306,24.1211 66.785028,20.8994594 69.158295,16.4147852 L69.158295,16.4147852 L69.2917925,16.1546617 C71.3868951,11.9424688 70.1428332,7.79884906 66.4637977,6.34938538 Z M18,99.15334 C16.6219433,99.15334 15.4947723,98.0791711 15.4101053,96.7224519 L15.405,96.55834 L15.405,36.20037 C15.405,34.8223133 16.4791689,33.6951423 17.8358881,33.6104753 L18,33.60537 L82.39579,33.60537 C83.8289689,33.60537 84.99079,34.7671911 84.99079,36.20037 C84.99079,37.5784267 83.9166211,38.7055977 82.5599019,38.7902647 L82.39579,38.79537 L59.772,38.7948522 L59.772,56.8178522 L79.8,56.8178522 L79.80079,45.21194 C79.80079,43.8338833 80.8749589,42.7067123 82.2316781,42.6220453 L82.39579,42.61694 C83.7738467,42.61694 84.9010177,43.6911089 84.9856847,45.0478281 L84.99079,45.21194 L84.9911006,59.3802841 C84.9912394,59.3913429 84.991309,59.4024183 84.991309,59.41351 L84.99,59.4418522 L84.99079,96.55834 C84.99079,97.9363967 83.9166211,99.0635677 82.5599019,99.1482347 L82.39579,99.15334 L18,99.15334 Z M20.595,93.963 L54.582,93.9628522 L54.582,62.0078522 L20.594,62.0078522 L20.595,93.963 Z M79.8,62.0078522 L59.772,62.0078522 L59.772,93.9628522 L79.8,93.963 L79.8,62.0078522 Z M54.582,38.7948522 L20.595,38.795 L20.594,56.8178522 L54.582,56.8178522 L54.582,38.7948522 Z M45.4089376,16.1145718 C46.1907977,18.6476562 46.7745089,21.3861442 47.1843827,24.1281657 L47.288,24.854 L46.9056513,24.8224286 C38.9150224,24.1076109 33.4035896,20.7746138 31.1058944,16.1547365 C29.0521061,12.0252722 30.20818,7.96155056 33.7221382,6.43774596 L33.9357983,6.34938538 C39.202033,4.27019704 42.8477041,7.81664082 45.4089376,16.1145718 Z" fill="#00B077"></path>
    </g>
</svg>