<?xml version="1.0" encoding="UTF-8"?>
<svg width="100px" height="100px" viewBox="0 0 100 100" version="1.1" xmlns="http://www.w3.org/2000/svg" xmlns:xlink="http://www.w3.org/1999/xlink">
    <!-- Generator: Sketch 63.1 (92452) - https://sketch.com -->
    <title>Present01</title>
    <desc>Created with Sketch.</desc>
    <g id="Present01" stroke="none" stroke-width="1" fill="none" fill-rule="evenodd">
        <path d="M92.869069,35.388481 C94.2471257,35.388481 95.3742967,36.4626499 95.4589637,37.8193691 L95.464069,37.983481 L95.464069,55.478971 C95.464069,56.8570277 94.3899001,57.9841987 93.0331809,58.0688657 L92.869069,58.073971 L59.343129,58.073851 L59.343399,88.365752 C59.343399,89.7989309 58.1815779,90.960752 56.748399,90.960752 C55.3703423,90.960752 54.2431713,89.8865831 54.1585043,88.5298639 L54.153399,88.365752 L54.153129,40.577851 L45.813129,40.577851 L45.8140716,55.4457451 C45.8142104,55.4568039 45.81428,55.4678793 45.81428,55.478971 L45.813129,55.507851 L45.814107,88.365752 C45.814107,89.7989309 44.6522859,90.960752 43.219107,90.960752 C41.8410503,90.960752 40.7138793,89.8865831 40.6292123,88.5298639 L40.624107,88.365752 L40.623129,58.073851 L9.693129,58.073851 L9.694,93.981 L90.274,93.981 L90.274069,64.362521 C90.274069,62.9844643 91.3482379,61.8572933 92.7049571,61.7726263 L92.869069,61.767521 C94.2471257,61.767521 95.3742967,62.8416899 95.4589637,64.1984091 L95.464069,64.362521 L95.464069,96.576851 C95.464069,97.9549077 94.3899001,99.0820787 93.0331809,99.1667457 L92.869069,99.171851 L7.099129,99.171851 C5.72107234,99.171851 4.59390127,98.0976821 4.50923435,96.7409629 L4.504129,96.576851 L4.504129,37.983481 C4.504129,36.6054243 5.57829789,35.4782533 6.93501712,35.3935863 L7.099129,35.388481 L92.869069,35.388481 Z M40.623129,40.577851 L9.694,40.578 L9.693129,52.883851 L40.623129,52.883851 L40.623129,40.577851 Z M90.274,40.578 L59.343129,40.577851 L59.343129,52.883851 L90.274,52.883 L90.274,40.578 Z M49.984445,0.561851 C53.0207205,0.561851 55.5742343,1.81081734 57.6110508,3.83200603 C57.8584062,4.07746356 58.0880326,4.32290277 58.3004175,4.56553643 C61.161735,3.01680934 64.4954304,2.84365161 68.1311744,4.23715967 L68.1311744,4.23715967 L68.4197989,4.35166842 C72.362435,5.97253715 74.7083111,9.29616718 75.1843013,13.1262133 C80.9172525,11.8664534 85.5874895,15.0642175 86.1765753,20.6599652 C86.885754,27.3964803 81.1998447,32.970287 72.026029,32.970287 C70.5928501,32.970287 69.431029,31.8084659 69.431029,30.375287 C69.431029,28.9421081 70.5928501,27.780287 72.026029,27.780287 C78.2592274,27.780287 81.3849134,24.7162266 81.0150977,21.2033338 C80.7159939,18.3621356 78.3299726,17.0358634 74.5778393,18.7684956 C74.3466496,19.4591225 74.057568,20.1472679 73.7088851,20.8277457 C70.1565377,27.7603862 61.5941824,32.189884 49.983753,32.189884 C38.3716701,32.189884 29.8089212,27.7603177 26.2576009,20.827443 C25.9089477,20.1468036 25.6199334,19.4584987 25.3891961,18.7684814 C21.6377344,17.0362741 19.2524026,18.3625794 18.9535032,21.2032043 C18.5838667,24.7160869 21.7099217,27.780287 27.943207,27.780287 C29.3763859,27.780287 30.538207,28.9421081 30.538207,30.375287 C30.538207,31.8084659 29.3763859,32.970287 27.943207,32.970287 C18.7694286,32.970287 13.0831685,27.3965404 13.7919983,20.6600947 C14.3807772,15.0645676 19.0505466,11.8668779 24.784184,13.1254776 C25.2721981,9.20329196 27.7222143,5.8119827 31.8397916,4.23715967 C35.4745607,2.84402525 38.8073443,3.01671644 41.6687633,4.56343701 C41.8800361,4.32209073 42.1094162,4.07697908 42.3564825,3.83185023 C44.3935773,1.81072997 46.9475562,0.561851 49.984445,0.561851 Z M40.4178245,9.97553471 C38.5380782,8.41034212 36.3211754,8.07769176 33.6972544,9.08338833 L33.6972544,9.08338833 L33.4803345,9.17050921 C30.6658878,10.3560609 29.3836735,13.0953552 30.0478748,16.1802061 C30.0905657,16.306862 30.1217449,16.4369718 30.1428146,16.5689224 C30.3069532,17.1911399 30.5509799,17.8251365 30.8768351,18.46127 C33.1605627,22.9195547 38.65735,26.1518633 46.6308419,26.8560952 L46.6308419,26.8560952 L47.06,26.89 L46.9702529,26.2850964 C46.5615737,23.629878 45.9795306,20.9782327 45.2001557,18.5264679 C43.9865394,14.708663 42.5277286,11.9283105 40.7618044,10.2791848 C40.6611979,10.2079667 40.5675258,10.1280863 40.4805818,10.0426851 Z M66.2737116,9.08338833 C61.1331724,7.11312225 57.5541119,10.2795165 55.0115822,17.786734 L55.0115822,17.786734 L54.7687491,18.5267631 C53.9890494,20.9785357 53.4066686,23.6301854 52.9976594,26.2854073 L52.9976594,26.2854073 L52.907,26.89 L53.3361775,26.8560938 C61.1552896,26.1653975 66.5930394,23.0428858 68.954599,18.7168207 L68.954599,18.7168207 L69.0899609,18.4609673 C71.1556294,14.429679 69.9359253,10.4845107 66.2737116,9.08338833 Z M49.984445,5.751851 C48.4528363,5.751851 47.146104,6.39083453 46.0118925,7.51615177 C45.8756001,7.65137542 45.7454027,7.79032589 45.6215292,7.93168224 C47.5119314,10.2500524 48.9884473,13.3119026 50.146267,16.954182 L49.9844058,16.4558493 C51.117268,13.0330775 52.5439155,10.1451528 54.3456983,7.93372303 C54.2230115,7.79149233 54.0922439,7.65186266 53.9553267,7.51599597 C52.8213775,6.39074716 51.5151533,5.751851 49.984445,5.751851 Z" id="Present-01" fill="#00B077"></path>
    </g>
</svg>