<?xml version="1.0" encoding="UTF-8"?>
<svg width="100px" height="100px" viewBox="0 0 100 100" version="1.1" xmlns="http://www.w3.org/2000/svg" xmlns:xlink="http://www.w3.org/1999/xlink">
    <!-- Generator: Sketch 63.1 (92452) - https://sketch.com -->
    <title>Swirl</title>
    <desc>Created with Sketch.</desc>
    <g id="Swirl" stroke="none" stroke-width="1" fill="none" fill-rule="evenodd">
        <path d="M43.3218378,84.4713972 C44.2580923,85.5564914 44.1374339,87.1951182 43.0523398,88.1313728 C41.9672456,89.0676273 40.3286188,88.9469689 39.3923642,87.8618748 C35.0898252,82.8753461 27.749149,78.6974568 20.2313547,76.6213692 C16.8485125,75.6871754 13.7166901,75.2761896 11.3442725,75.4327091 C9.36814135,75.5630838 8.2833079,76.0460948 8.05032103,76.5081037 C6.51951003,79.545822 14.8746213,86.9730681 26.4370878,91.2157407 C39.7647125,96.1061116 51.0239354,94.9490691 54.9278424,87.2066767 C55.5536223,85.9551169 55.7846907,84.5789339 55.626434,83.0687899 C55.477061,81.6434164 56.5114637,80.3668321 57.9368371,80.217459 C59.3622106,80.068086 60.6387949,81.1024887 60.788168,82.5278621 C61.047175,84.9994039 60.6493226,87.3689091 59.5659925,89.5355364 C54.1195801,100.337136 40.1433032,101.773394 24.6492542,96.0880863 C10.3609211,90.845198 -0.2382664,81.4230884 3.41589269,74.1718303 C7.83547131,65.4078786 32.828464,72.3098554 43.3218378,84.4713972 Z M40.110484,41.8077122 C49.5776131,48.2788949 57.0462165,57.4984075 59.2517765,66.7421471 C59.5843966,68.1361936 58.7239404,69.5359335 57.3298939,69.8685535 C55.9358474,70.2011736 54.5361075,69.3407174 54.2034875,67.9466709 C52.3365297,60.1220501 45.6733389,51.8967677 37.181725,46.0923908 C29.8802402,41.1015175 23.1434153,39.4179024 21.6756171,41.1622159 C18.7739553,44.6104956 25.7560014,55.8512271 37.215669,64.284001 C50.276467,73.8949914 62.8893445,75.8878857 69.5727601,67.9454882 C70.6880738,66.6218771 71.3947081,65.0013382 71.6921559,63.0993882 C71.9136005,61.6834206 73.2409853,60.7150684 74.6569528,60.9365129 C76.0729204,61.1579575 77.0412726,62.4853423 76.8198281,63.9013098 C76.3800551,66.7133196 75.2884641,69.2166877 73.5427424,71.2884415 C64.5864864,81.9318249 49.1205317,79.4881309 34.1396125,68.4641895 L33.324335,67.8553543 C20.1120084,57.8425966 12.0477547,44.5429785 17.7045021,37.8206078 C21.6446751,33.1381538 30.7598243,35.4161412 40.110484,41.8077122 Z M71.0765922,0.930482182 C92.7936995,10.6279087 106.333343,42.49485 92.7680667,53.7978943 C82.4587715,62.3851031 68.2079525,57.4494924 55.8845629,44.47627 L55.2149118,43.7612815 C44.3872853,32.0357353 38.9942449,18.0608564 45.5392394,12.6079647 C50.1101693,8.80152806 58.3803675,12.511367 66.1696696,20.1603327 C74.0371534,27.8860717 79.5486328,37.8759635 80.0741932,47.008115 C80.1565372,48.4389264 79.0633884,49.6655812 77.632577,49.7479252 C76.2017656,49.8302692 74.9751108,48.7371204 74.8927668,47.306309 C74.4510355,39.6307742 69.5576601,30.7612336 62.5332954,23.8634238 C56.514885,17.9534443 50.4809022,15.2467251 48.8608801,16.5957965 C45.6078944,19.3059866 50.2846705,31.0453134 59.6474796,40.901839 C70.3290629,52.1466798 81.8506265,56.1370436 89.4460688,49.81036 C99.3693893,41.5419157 87.6792928,14.0280734 68.9604678,5.66948182 C67.6518292,5.0851302 67.0646786,3.55055842 67.6490302,2.2419198 C68.2333818,0.933281189 69.7679536,0.346130566 71.0765922,0.930482182 Z M19.840918,11.856908 C21.2189747,11.856908 22.3461457,12.9310769 22.4308127,14.2877961 L22.435918,14.451908 L22.4352679,17.7543369 L25.737104,17.754824 C27.1702829,17.754824 28.332104,18.9166451 28.332104,20.349824 C28.332104,21.7278807 27.2579351,22.8550517 25.9012159,22.9397187 L25.737104,22.944824 L22.4352679,22.9443369 L22.435918,26.248778 C22.435918,27.6819569 21.2740969,28.843778 19.840918,28.843778 C18.4628613,28.843778 17.3356903,27.7696091 17.2510233,26.4128899 L17.245918,26.248778 L17.2452679,22.9443369 L13.935044,22.944824 C12.5018651,22.944824 11.340044,21.7830029 11.340044,20.349824 C11.340044,18.9717673 12.4142129,17.8445963 13.7709321,17.7599293 L13.935044,17.754824 L17.2452679,17.7543369 L17.245918,14.451908 C17.245918,13.0187291 18.4077391,11.856908 19.840918,11.856908 Z M88.589042,61.755817 C89.9670987,61.755817 91.0942697,62.8299859 91.1789367,64.1867051 L91.184042,64.350817 L91.1832679,67.6533369 L94.485228,67.65356 C95.9184069,67.65356 97.080228,68.8153811 97.080228,70.24856 C97.080228,71.6266167 96.0060591,72.7537877 94.6493399,72.8384547 L94.485228,72.84356 L91.1832679,72.8433369 L91.184042,76.147687 C91.184042,77.5808659 90.0222209,78.742687 88.589042,78.742687 C87.2109853,78.742687 86.0838143,77.6685181 85.9991473,76.3117989 L85.994042,76.147687 L85.9932679,72.8433369 L82.683168,72.84356 C81.2499891,72.84356 80.088168,71.6817389 80.088168,70.24856 C80.088168,68.8705033 81.1623369,67.7433323 82.5190561,67.6586653 L82.683168,67.65356 L85.9932679,67.6533369 L85.994042,64.350817 C85.994042,62.9176381 87.1558631,61.755817 88.589042,61.755817 Z" fill="#00B077"></path>
    </g>
</svg>