<?xml version="1.0" encoding="UTF-8"?>
<svg width="100px" height="100px" viewBox="0 0 100 100" version="1.1" xmlns="http://www.w3.org/2000/svg" xmlns:xlink="http://www.w3.org/1999/xlink">
    <!-- Generator: Sketch 63.1 (92452) - https://sketch.com -->
    <title>Sled</title>
    <desc>Created with Sketch.</desc>
    <g id="Sled" stroke="none" stroke-width="1" fill="none" fill-rule="evenodd">
        <path d="M89.2556477,44.5209621 C95.2276701,46.5828939 99.431005,52.2086834 99.431005,59.416034 C99.431005,72.802221 89.5539025,79.7372996 70.463909,79.8746626 L69.882605,79.876744 L4.372695,79.876744 C2.93951607,79.876744 1.777695,78.7149229 1.777695,77.281744 C1.777695,75.9036873 2.85186389,74.7765163 4.20858312,74.6918493 L4.372695,74.686744 L69.882605,74.686744 C86.8100831,74.686744 94.241005,69.5699286 94.241005,59.416034 C94.241005,54.4705943 91.4843863,50.7811057 87.5618373,49.4267859 C84.2646347,48.2883764 81.5296574,49.2354544 80.7644855,51.6520728 L80.710813,51.8360649 C80.3405608,53.220592 78.9180311,54.0428242 77.5335041,53.672572 C76.148977,53.3023198 75.3267448,51.8797901 75.696997,50.4952631 C77.2529176,44.6770285 83.2882802,42.4606375 89.2556477,44.5209621 Z M25.300678,19.796093 C33.876297,19.796093 40.2977867,25.7637962 44.9446926,35.3978053 C46.5070799,38.6369615 47.7611578,42.0859763 48.7414804,45.5324146 C48.9373784,46.2211171 49.1142995,46.8822794 49.2728925,47.5108533 L49.409,48.064 L68.080118,48.064293 C69.4581747,48.064293 70.5853457,49.1384619 70.6700127,50.4951811 L70.675118,50.659293 C70.675118,52.0373497 69.6009491,53.1645207 68.2442299,53.2491877 L68.080118,53.254293 L58.0104287,53.254093 L58.0104287,57.751093 L68.079426,57.751601 C69.5126049,57.751601 70.674426,58.9134221 70.674426,60.346601 C70.674426,61.7246577 69.6002571,62.8518287 68.2435379,62.9364957 L68.079426,62.941601 L58.0104287,62.941093 L58.010999,69.381353 C58.010999,70.8145319 56.8491779,71.976353 55.415999,71.976353 C54.0379423,71.976353 52.9107713,70.9021841 52.8261043,69.5454649 L52.820999,69.381353 L52.8204287,62.941093 L23.5834287,62.941093 L23.58348,69.381353 C23.58348,70.8145319 22.4216589,71.976353 20.98848,71.976353 C19.6104233,71.976353 18.4832523,70.9021841 18.3985853,69.5454649 L18.39348,69.381353 L18.3934287,62.941093 L10.010246,62.941601 C8.57706707,62.941601 7.415246,61.7797799 7.415246,60.346601 C7.415246,58.9685443 8.48941489,57.8413733 9.84613412,57.7567063 L10.010246,57.751601 L18.3934287,57.751093 L18.3934287,53.254093 L10.010938,53.254293 C9.12119129,53.254293 8.29347776,52.7984528 7.81784405,52.0465074 C2.27819787,43.2886946 0.0779708118,35.4676203 1.03723893,29.3557199 C1.92049879,23.7281 5.59040903,19.9384446 10.2070689,19.8000169 L10.469388,19.796093 L25.300678,19.796093 Z M52.8204287,53.254093 L23.5834287,53.254093 L23.5834287,57.751093 L52.8204287,57.751093 L52.8204287,53.254093 Z M25.300678,24.986093 L10.469388,24.986093 C8.48389117,24.986093 6.69306633,26.7925474 6.16447207,30.1604436 C5.95510716,31.4943955 5.95346903,32.9794724 6.16990637,34.5992701 L30.493792,34.599357 C31.9269709,34.599357 33.088792,35.7611781 33.088792,37.194357 C33.088792,38.5724137 32.0146231,39.6995847 30.6579039,39.7842517 L30.493792,39.789357 L7.46361421,39.7892496 C8.340587,42.2810385 9.62277356,44.9831084 11.334642,47.8566734 L11.459,48.064 L44.055,48.064 L43.9033528,47.5022774 L43.749501,46.9523589 C42.8452724,43.7734378 41.6903387,40.5970933 40.2700709,37.6525807 C36.4630868,29.7599054 31.5845238,25.1496966 25.6211806,24.9903642 L25.300678,24.986093 Z" fill="#00B077"></path>
    </g>
</svg>