<?xml version="1.0" encoding="UTF-8"?>
<svg width="100px" height="100px" viewBox="0 0 100 100" version="1.1" xmlns="http://www.w3.org/2000/svg" xmlns:xlink="http://www.w3.org/1999/xlink">
    <!-- Generator: Sketch 63.1 (92452) - https://sketch.com -->
    <title>Snowflake02</title>
    <desc>Created with Sketch.</desc>
    <g id="Snowflake02" stroke="none" stroke-width="1" fill="none" fill-rule="evenodd">
        <path d="M50.173753,0.405 C51.5518097,0.405 52.6789807,1.47916889 52.7636477,2.83588812 L52.768753,3 L52.767753,13.571 L60.808451,8.2327503 C62.002374,7.43993893 63.6129403,7.7651041 64.4057517,8.95902703 C65.1655293,10.1032032 64.8985541,11.6300258 63.8241725,12.4530564 L63.679475,12.5563277 L52.767753,19.801 L52.7681812,33.0775716 C55.4807788,33.4971669 57.9791995,34.564149 60.1006188,36.1158007 L69.489753,26.727 L66.9003171,13.8917148 C66.6168449,12.4868499 67.5259133,11.1181823 68.9307782,10.8347101 C70.2816098,10.5621407 71.598975,11.3921421 71.9503183,12.7053113 L71.9877829,12.8651712 L73.895753,22.322 L81.370981,14.8479048 C82.3844297,13.8345324 84.0274929,13.8345943 85.0408652,14.848043 C86.0101779,15.8174288 86.0522653,17.36287 85.1671689,18.3822807 L85.040727,18.5179272 L77.565753,25.99 L87.0242471,27.9012561 C88.429059,28.1849908 89.3378716,29.5538282 89.0541369,30.9586401 C88.7813151,32.3094208 87.5052548,33.2016222 86.1586272,33.0160158 L85.9967529,32.9885299 L73.160753,30.396 L63.7701428,39.7863982 C65.3200663,41.9067669 66.3859357,44.4035577 66.8052854,47.1144117 L80.083753,47.114 L87.3292501,36.2058652 C88.1221404,35.0119947 89.7327282,34.6869359 90.9265988,35.4798261 C92.0707247,36.2396793 92.4169315,37.7505082 91.7459445,38.9258598 L91.6526379,39.0771748 L86.313753,47.114 L96.883753,47.115 C98.3169319,47.115 99.478753,48.2768211 99.478753,49.71 C99.478753,51.0880567 98.4045841,52.2152277 97.0478649,52.2998947 L96.883753,52.305 L86.313753,52.304 L91.6526379,60.3428252 C92.4455281,61.5366958 92.1204693,63.1472836 90.9265988,63.9401739 C89.7824728,64.700027 88.2556326,64.4331527 87.432531,63.3588255 L87.3292501,63.2141348 L80.083753,52.304 L66.8054271,52.30431 C66.3860476,55.016032 65.319592,57.5137329 63.768761,59.6347656 L73.158753,69.024 L85.9976461,66.4366528 C87.4025576,66.1534114 88.7710758,67.0627047 89.0543172,68.4676161 C89.3266647,69.8184925 88.4964468,71.1357213 87.1832199,71.4868489 L87.0233539,71.5242872 L77.564753,73.431 L85.0408652,80.907401 C86.0542376,81.9208497 86.0541757,83.5639129 85.040727,84.5772852 C84.0713413,85.5465979 82.5259,85.5886853 81.5064893,84.7035889 L81.3708428,84.577147 L73.894753,77.101 L71.9878071,86.5583416 C71.7044013,87.9632199 70.3357766,88.872353 68.9308984,88.5889471 C67.5800539,88.3164415 66.6875537,87.0405901 66.8728449,85.6939191 L66.9002929,85.5320384 L69.489753,72.695 L60.0997242,63.3043406 C57.9784263,64.8558471 55.4802625,65.922789 52.7680532,66.3423995 L52.767753,79.62 L63.679475,86.8655753 C64.8733979,87.6583867 65.1985631,89.268953 64.4057517,90.462876 C63.6459741,91.6070521 62.1351681,91.9533587 60.9597721,91.2824494 L60.808451,91.1891527 L52.767753,85.85 L52.768753,96.42 C52.768753,97.8531789 51.6069319,99.015 50.173753,99.015 C48.7956963,99.015 47.6685253,97.9408311 47.5838583,96.5841119 L47.578753,96.42 L47.577753,85.851 L39.5428006,91.188963 C38.3489824,91.9819321 36.7383731,91.6569798 35.945404,90.4631616 C35.1854753,89.3190858 35.4522487,87.792228 36.5265215,86.9690554 L36.6712054,86.865765 L47.577753,79.62 L47.578274,66.3423726 C44.8678143,65.9229065 42.3708223,64.8566492 40.2500868,63.3062292 L30.860753,72.696 L33.4521701,85.5317406 C33.7357403,86.9365857 32.8267675,88.3053168 31.4219224,88.5888871 C30.0711098,88.8615508 28.7536866,88.0316414 28.4022517,86.7184966 L28.3647759,86.5586394 L26.455753,77.101 L18.9833063,84.5753478 C17.9699722,85.5888347 16.3269091,85.5889585 15.3134222,84.5756243 C14.3439999,83.6063482 14.3017379,82.0609117 15.186719,81.041401 L15.3131457,80.9057402 L22.785753,73.431 L13.3291091,71.5242751 C11.9242043,71.2410006 11.0149434,69.8724608 11.2982179,68.4675561 C11.5705973,67.1166861 12.8463653,66.2240667 14.1930536,66.4092321 L14.3549369,66.4366649 L27.191753,69.024 L36.579408,59.6366354 C35.0275782,57.5152778 33.9602776,55.0170735 33.5405364,52.3048923 L20.264753,52.304 L13.0198129,63.2141348 C12.2269226,64.4080053 10.6163348,64.7330641 9.42246423,63.9401739 C8.27833828,63.1803207 7.93213148,61.6694918 8.60311848,60.4941402 L8.69642513,60.3428252 L14.033753,52.304 L3.463753,52.305 C2.03057407,52.305 0.868753,51.1431789 0.868753,49.71 C0.868753,48.3319433 1.94292189,47.2047723 3.29964112,47.1201053 L3.463753,47.115 L14.033753,47.114 L8.69642513,39.0771748 C7.9035349,37.8833042 8.22859367,36.2727164 9.42246423,35.4798261 C10.5665902,34.719973 12.0934304,34.9868473 12.916532,36.0611745 L13.0198129,36.2058652 L20.264753,47.114 L33.5405484,47.1146676 C33.9601915,44.4028897 35.0270548,41.9051808 36.5782676,39.7841975 L27.189753,30.396 L14.3540401,32.9885299 C12.9492282,33.2722646 11.5803908,32.363452 11.2966561,30.9586401 C11.0238342,29.6078594 11.8535895,28.2903392 13.166693,27.9387505 L13.3265459,27.9012561 L22.784753,25.99 L15.3132148,18.517789 C14.2998424,17.5043402 14.2999043,15.8612771 15.313353,14.8479048 C16.2827388,13.8785921 17.82818,13.8365047 18.8475907,14.7216011 L18.9832372,14.848043 L26.455753,22.321 L28.3647881,12.8632035 C28.6483915,11.4583651 30.0171441,10.5494246 31.4219825,10.8330281 C32.7727886,11.1057237 33.6651093,12.3817007 33.4796287,13.7283456 L33.4521579,13.8902225 L30.859753,26.726 L40.2478402,36.1149006 C42.3689878,34.5638001 44.8667219,33.4971385 47.5781459,33.0775985 L47.577753,19.801 L36.6712054,12.556138 C35.4773872,11.7631689 35.1524349,10.1525596 35.945404,8.95874141 C36.7053327,7.81466566 38.2161845,7.46855869 39.3914918,8.13962334 L39.5428006,8.23293999 L47.577753,13.57 L47.578753,3 C47.578753,1.56682107 48.7405741,0.405 50.173753,0.405 Z M50.172888,38.06883 C43.7440915,38.06883 38.531718,43.2794536 38.531718,49.71 L38.5324817,49.6868321 C38.5325492,49.6945468 38.532583,49.7022694 38.532583,49.71 L38.5317403,49.7330526 C38.5441833,56.1519155 43.7524224,61.35117 50.172888,61.35117 C56.6032054,61.35117 61.814058,56.1407548 61.814058,49.71 C61.814058,43.2781615 56.6038518,38.06883 50.172888,38.06883 Z" id="Snowflake_02" fill="#00B077"></path>
    </g>
</svg>