<?xml version="1.0" encoding="UTF-8"?>
<svg width="100px" height="100px" viewBox="0 0 100 100" version="1.1" xmlns="http://www.w3.org/2000/svg" xmlns:xlink="http://www.w3.org/1999/xlink">
    <!-- Generator: Sketch 63.1 (92452) - https://sketch.com -->
    <title>Snowman</title>
    <desc>Created with Sketch.</desc>
    <g id="Snowman" stroke="none" stroke-width="1" fill="none" fill-rule="evenodd">
        <path d="M64.23353,0.72159 C65.6667089,0.72159 66.82853,1.88341107 66.82853,3.31659 L66.82853,3.31659 L66.8279358,15.81459 L72.733366,15.815494 C74.1665449,15.815494 75.328366,16.9773151 75.328366,18.410494 C75.328366,19.7885507 74.2541971,20.9157217 72.8974779,21.0003887 L72.733366,21.005494 L70.4426418,21.0048642 C72.6180936,24.905422 73.799616,29.3937558 73.799616,34.068205 C73.799616,37.7714844 73.0604838,41.5870207 71.7554519,44.5588963 L71.593,44.916 L71.9011833,45.1773472 C72.9950155,46.1124769 74.0595652,47.080235 75.0856918,48.0751657 L81.4399358,42.74959 L79.9469976,36.5900577 C79.6093232,35.1972269 80.4646964,33.7943751 81.8575273,33.4567006 C83.1946449,33.1325332 84.5409978,33.9078785 84.9453194,35.2027123 L84.9908844,35.3672303 L85.8789358,39.03159 L89.8764494,35.6833279 C90.9750316,34.7629373 92.6117325,34.9073901 93.5321231,36.0059724 C94.4141641,37.0587804 94.3182499,38.605798 93.341824,39.5429573 L93.2094786,39.6616461 L89.8459358,42.47959 L94.188882,43.4923202 C95.5288099,43.8046682 96.3821044,45.1030191 96.1603641,46.4412649 L96.1270048,46.608685 C95.8146568,47.9486129 94.5163059,48.8019074 93.1780601,48.5801671 L93.01064,48.5468078 L84.8689358,46.64859 L78.6681318,51.8452127 C84.033929,58.0005022 87.7051577,64.8553564 87.8578357,71.3210105 L87.862786,71.738955 C87.862786,91.111935 74.0150084,99.317455 49.824706,99.317455 C25.6358963,99.317455 11.784896,91.1111317 11.784896,71.738955 C11.784896,65.1429891 15.4969556,58.1232535 20.9777944,51.8407393 L14.7819358,46.64859 L6.63963703,48.5468078 C5.2438788,48.8721704 3.84863472,48.0044433 3.52327216,46.608685 C3.2109241,45.2687571 3.99812751,43.9293031 5.2964811,43.5364307 L5.46139497,43.4923202 L9.80693584,42.47859 L6.444055,39.6614757 C5.34556686,38.7409728 5.20128135,37.1042571 6.12178429,36.005769 C7.00393293,34.9530512 8.54385332,34.7766757 9.63746746,35.5739732 L9.777491,35.6834983 L13.7709358,39.02959 L14.6593926,35.3672303 C14.9970671,33.9743994 16.3999189,33.1190262 17.7927497,33.4567006 C19.1298673,33.7808681 19.971664,35.086703 19.7381156,36.4229387 L19.7032794,36.5900577 L18.2089358,42.74859 L24.5623675,48.0725811 C25.6082392,47.059978 26.694038,46.075819 27.8100913,45.1258828 L28.057,44.917 L27.8944116,44.557856 C26.6470563,41.7151247 25.9168408,38.1007024 25.8557017,34.5516788 L25.851526,34.068205 C25.851526,29.3927862 27.0325661,24.9044726 29.2079149,21.0046227 L26.916046,21.005494 C25.4828671,21.005494 24.321046,19.8436729 24.321046,18.410494 C24.321046,17.0324373 25.3952149,15.9052663 26.7519341,15.8205993 L26.916046,15.815494 L32.8209358,15.81459 L32.82192,3.31659 C32.82192,1.93853334 33.8960889,0.811362269 35.2528081,0.726695347 L35.41692,0.72159 Z M64.2831086,21.0052176 L64.23353,21.00584 L35.41692,21.00584 C35.4011228,21.00584 35.3853585,21.0056988 35.3696284,21.0054177 C32.574192,24.6366462 31.011526,29.2157814 31.011526,34.068205 C31.011526,37.5314344 31.8200456,41.1195994 33.0464406,43.3629185 L33.073,43.409 C34.198326,44.3321719 34.6240856,46.1383637 33.206432,47.3733984 L33.031,47.516 L32.6746694,47.8003535 C30.6761713,49.4026574 28.7598762,51.1403832 26.9948531,52.9589038 C26.9264847,53.0762443 26.8464621,53.1891321 26.7562017,53.296845 C26.5923243,53.4924092 26.4057467,53.6577301 26.2035472,53.7921838 C20.8783958,59.5007326 17.1083065,65.9069538 16.9500736,71.3826805 L16.944896,71.738955 C16.944896,87.5409459 28.1125366,94.157455 49.824706,94.157455 C71.5383451,94.157455 82.702786,87.5419499 82.702786,71.738955 C82.702786,66.1911296 78.8766335,59.6226775 73.4277279,53.7778501 C73.2321339,53.6467059 73.0523987,53.4858206 72.8939049,53.2966416 C72.80794,53.1940335 72.7312644,53.0867311 72.6637879,52.9757564 C70.9051218,51.1585738 68.9951048,49.4217688 67.0031469,47.8187938 L66.6242051,47.5192226 L66.5359751,47.4448326 C65.1160082,46.2476056 65.4362436,44.5298405 66.4531165,43.5690697 L66.52,43.507 L66.6038576,43.3622242 C67.7837114,41.2058361 68.5767887,37.8059657 68.6360493,34.468338 L68.639616,34.068205 C68.639616,29.217875 67.076685,24.638718 64.2831086,21.0052176 Z M49.825052,74.76559 C52.212452,74.76559 54.153512,76.698 54.153512,79.09059 C54.153512,81.47799 52.212452,83.42078 49.825052,83.42078 C47.437652,83.42078 45.503512,81.47799 45.503512,79.09059 C45.503512,76.698 47.437652,74.76559 49.825052,74.76559 Z M63.3132208,45.8296161 C64.1169441,47.0162207 63.8065576,48.6297004 62.6199529,49.4334238 C62.4880271,49.5227811 62.3546836,49.6104902 62.2199746,49.6965509 C63.2099293,50.5842697 64.1846532,51.5719294 65.1160133,52.6586465 C68.8011173,56.9584498 71.158613,62.0146188 71.4969881,67.7884004 C71.5808363,69.2191244 70.4889777,70.4469278 69.0582536,70.5307761 C67.6275296,70.6146243 66.3997262,69.5227657 66.3158779,68.0920416 C66.0502741,63.5599745 64.1730439,59.5338406 61.1752715,56.0360203 C60.0209335,54.6891312 58.7809074,53.5188143 57.544961,52.5361103 C57.3308212,52.3658472 57.1251698,52.2079759 56.9294398,52.062629 C50.3269417,54.0043877 42.4516611,53.1270662 37.0008827,49.4330508 C35.814484,48.6290235 35.5045108,47.0154644 36.3085382,45.8290657 C37.1125655,44.642667 38.7261246,44.3326938 39.9125233,45.1367212 C44.3036796,48.1126262 51.0982786,48.6643269 56.3824855,46.7916219 C56.4230107,46.7741656 56.4646245,46.7587262 56.5065863,46.7443633 C57.6633103,46.3268077 58.7442816,45.7900611 59.7094131,45.1363482 C60.8960177,44.3326249 62.5094974,44.6430114 63.3132208,45.8296161 Z M49.825052,61.216057 C52.212452,61.216057 54.153512,63.148467 54.153512,65.541057 C54.153512,67.926727 52.212452,69.866057 49.825052,69.866057 C47.437652,69.866057 45.503512,67.926727 45.503512,65.541057 C45.503512,63.148467 47.437652,61.216057 49.825052,61.216057 Z M59.924273,35.832113 C61.3574519,35.832113 62.519273,36.9939341 62.519273,38.427113 C62.519273,39.8051697 61.4451041,40.9323407 60.0883849,41.0170077 L59.924273,41.022113 L39.754203,41.022113 C38.3210241,41.022113 37.159203,39.8602919 37.159203,38.427113 C37.159203,37.0490563 38.2333719,35.9218853 39.5900911,35.8372183 L39.754203,35.832113 L59.924273,35.832113 Z M39.673239,24.624308 C42.064099,24.624308 43.998239,26.556718 43.998239,28.949308 C43.998239,31.336708 42.064099,33.274308 39.673239,33.274308 C37.284109,33.274308 35.344779,31.336708 35.344779,28.949308 C35.344779,26.556718 37.284109,24.624308 39.673239,24.624308 Z M59.977038,24.624308 C62.366168,24.624308 64.305498,26.556718 64.305498,28.949308 C64.305498,31.336708 62.366168,33.274308 59.977038,33.274308 C57.586178,33.274308 55.652038,31.336708 55.652038,28.949308 C55.652038,26.556718 57.586178,24.624308 59.977038,24.624308 Z M61.638,5.911 L38.011,5.911 L38.011,15.815 L61.638,15.815 L61.638,5.911 Z" fill="#00B077"></path>
    </g>
</svg>