<?xml version="1.0" encoding="UTF-8"?>
<svg width="100px" height="100px" viewBox="0 0 100 100" version="1.1" xmlns="http://www.w3.org/2000/svg" xmlns:xlink="http://www.w3.org/1999/xlink">
    <!-- Generator: Sketch 63.1 (92452) - https://sketch.com -->
    <title>Snowflake04</title>
    <desc>Created with Sketch.</desc>
    <g id="Snowflake04" stroke="none" stroke-width="1" fill="none" fill-rule="evenodd">
        <path d="M49.71,0.405 C51.0880567,0.405 52.2152277,1.47916889 52.2998947,2.83588812 L52.305,3 L52.3042994,18.089 L66.075532,9.33824514 C67.2347115,8.6015608 68.7558745,8.89909481 69.5571985,9.98976197 L69.6575479,10.136501 C70.3942322,11.2956805 70.0966982,12.8168435 69.006031,13.6181675 L68.859292,13.7185169 L52.3042994,24.239 L52.3042994,31.165 L71.4114541,18.0850808 C73.3815586,16.7362241 75.9418619,18.5359647 75.4071805,20.8068439 L75.3669094,20.9589045 L68.8282994,43.174 L75.4192994,41.032 L80.3080449,22.0378959 C80.6652274,20.6499397 82.0799419,19.8143324 83.4678981,20.1715149 C84.8003361,20.5144101 85.6237292,21.8319268 85.3714566,23.1647543 L85.3342791,23.3313681 L81.2662994,39.132 L95.6180965,34.4697658 C96.9811299,34.0268867 98.4451112,34.7728192 98.8879902,36.1358525 C99.3131541,37.4443646 98.6427093,38.8459102 97.3824688,39.3477713 L97.2219035,39.4057462 L82.8712994,44.068 L95.4491713,54.4606566 C96.5079793,55.3354861 96.695026,56.8741468 95.9053292,57.9732619 L95.7967774,58.1140413 C94.9219479,59.1728493 93.3832872,59.359896 92.2841721,58.5701992 L92.1433927,58.4616474 L77.0232994,45.969 L70.4332994,48.11 L88.7192203,62.1885839 C88.7481563,62.2109037 88.7616718,62.2213289 88.9223424,62.5383364 L88.9751208,62.6429546 L89.793408,64.292862 C89.793408,65.6977713 88.6753556,66.8475481 87.2709961,66.8868466 L87.2709961,66.8868466 L64.1242994,67.533 L68.1982994,73.14 L87.7724777,71.919582 C89.2028776,71.8303735 90.4347635,72.9176239 90.523972,74.3480237 C90.6097494,75.7234082 89.6078244,76.9152554 88.2590061,77.0842074 L88.0955303,77.099518 L71.8122994,78.114 L80.6821738,90.3213593 C81.5246211,91.4807921 81.2676535,93.1036366 80.1082207,93.9460838 C78.9970976,94.7534291 77.4603759,94.5510688 76.5927767,93.5123452 L76.4834962,93.3721307 L67.6122994,81.163 L61.6173168,96.3390928 C61.111707,97.6186735 59.7021871,98.2721871 58.4109729,97.8564509 L58.2502612,97.7988828 C56.9706805,97.293273 56.3171669,95.8837531 56.7329031,94.5925389 L56.7904712,94.4318272 L63.9982994,76.189 L59.9242994,70.582 L52.1538725,92.4006882 C51.3769626,94.5819134 48.4105546,94.6936861 47.4091948,92.7361271 L47.3323917,92.5728714 L47.264693,92.4005464 L39.4942994,70.584 L35.4212994,76.189 L42.6297018,94.4318272 C43.1563786,95.7647238 42.5028084,97.272206 41.1699118,97.7988828 C39.890331,98.3044925 38.4498523,97.7223866 37.8706913,96.4957475 L37.8028562,96.3390928 L31.8062994,81.165 L22.9366768,93.3721307 C22.0942296,94.5315635 20.4713851,94.7885311 19.3119523,93.9460838 C18.2008292,93.1387386 17.9185327,91.6146743 18.6384051,90.4686121 L18.7379992,90.3213593 L27.6072994,78.114 L11.3246427,77.099518 C9.94925828,77.0137406 8.89108127,75.8714937 8.89108127,74.5121352 L8.896201,74.3480237 C8.98197839,72.9726393 10.1242253,71.9144623 11.4835838,71.9144623 L11.6476953,71.919582 L31.2212994,73.14 L35.2952994,67.533 L12.1493499,66.8868466 C10.8179821,66.8495906 9.7439331,65.8142908 10.4925822,62.7620331 L10.5592224,62.5029876 L10.6324089,62.2416618 L28.9822994,48.109 L22.3962994,45.969 L7.27660733,58.4616474 C6.17176422,59.374513 4.53608816,59.2188844 3.62322259,58.1140413 C2.74839309,57.0552333 2.85487155,55.5089069 3.83767574,54.5784387 L3.97082867,54.4606566 L16.5462994,44.068 L2.19809652,39.4057462 C0.835063154,38.9628672 0.0891307015,37.4988859 0.532009762,36.1358525 C0.957173659,34.8273405 2.32338536,34.0875487 3.63792673,34.42229 L3.80190348,34.4697658 L18.1512994,39.132 L14.0857209,23.3313681 C13.7428257,21.9989301 14.4992055,20.6418318 15.7882394,20.2193836 L15.9521019,20.1715149 C17.2845399,19.8286197 18.6416382,20.5849995 19.0640864,21.8740334 L19.1119551,22.0378959 L24.0002994,41.032 L30.5872994,43.173 L24.0516633,20.9587573 C23.3927392,18.7191921 25.7708717,16.8732888 27.7413155,17.923661 L27.8749917,17.9997947 L28.0071619,18.0850808 L47.1142994,31.166 L47.1142994,24.238 L30.5604586,13.7185782 C29.3508461,12.9499175 28.993384,11.3462101 29.7620448,10.1365976 C30.498678,8.97738558 32.0022203,8.60079094 33.1908602,9.24794657 L33.3440254,9.33818376 L47.1142994,18.088 L47.115,3 C47.115,1.56682107 48.2768211,0.405 49.71,0.405 Z M68.331,26.483 L51.2028119,38.2108705 C51.1475264,38.2498186 51.0906512,38.2866617 51.032303,38.3212833 C51.0103721,38.3341294 50.9887718,38.3465153 50.96704,38.3585661 C50.9381268,38.3747839 50.9085149,38.3904755 50.8785699,38.4056038 C50.8556548,38.4169867 50.8329097,38.428055 50.8100447,38.4387715 C50.7051618,38.488145 50.5960453,38.5306408 50.4836471,38.5656992 C50.4638724,38.5717715 50.4439287,38.5777416 50.4239315,38.5834665 C50.3875104,38.5939384 50.3505383,38.6036193 50.3132542,38.6124957 C50.2879927,38.6185582 50.2630357,38.6241311 50.2380187,38.6293309 C50.2097119,38.6350772 50.1809895,38.6405127 50.1521039,38.6454706 C50.1194052,38.6513395 50.0864179,38.6563924 50.0533641,38.6608062 C50.0308852,38.66343 50.0089822,38.6660374 49.9869972,38.6683702 C49.8488391,38.683664 49.7093538,38.6873962 49.570338,38.6799559 L49.71,38.68298 C49.6512139,38.68298 49.5928843,38.6810253 49.5350727,38.6771772 C49.5059783,38.6758664 49.4775971,38.6734839 49.4492527,38.6706344 C49.416275,38.6667592 49.3829867,38.6627896 49.3498979,38.6581961 C49.3249151,38.6552153 49.3005861,38.6514597 49.2763028,38.6473563 C49.2383556,38.6405159 49.2006112,38.6332923 49.1631666,38.6252609 C49.1433355,38.6213857 49.1230052,38.6167619 49.1027206,38.6118901 C49.0664762,38.6028343 49.0311358,38.5935479 48.9960983,38.5835437 C48.9691989,38.5761933 48.9418223,38.5678879 48.9145582,38.5591194 C48.8859979,38.5496035 48.8579566,38.54004 48.8301358,38.5300145 C48.80062,38.5197259 48.771281,38.5085561 48.7421063,38.4968349 C48.7048401,38.481483 48.66737,38.4653754 48.6303674,38.4484234 C48.5942745,38.4323516 48.5586189,38.4150438 48.523282,38.3968725 C48.493742,38.3811277 48.4645742,38.3653836 48.4357489,38.3491041 C48.3703252,38.312839 48.3061002,38.2728942 48.2432941,38.2298932 L48.3535202,38.3006469 C48.3296452,38.2859791 48.3060258,38.2709356 48.2826701,38.2555249 L48.2432941,38.2298932 L31.087,26.483 L36.9323751,46.3516756 C37.0709012,46.7719662 37.1033182,47.2307021 37.0086216,47.6866596 C37.0050985,47.6997469 37.0023079,47.7127548 36.999418,47.7257386 C36.9906772,47.7682579 36.9800655,47.8106902 36.968328,47.8530549 C36.9625163,47.8717999 36.9569237,47.8911871 36.9511065,47.9105055 C36.9462116,47.9287032 36.9406853,47.9463398 36.9349602,47.9639595 L36.9154556,48.0200507 C36.9093554,48.0374736 36.9030694,48.0548324 36.8965985,48.072124 L36.9349602,47.9639595 C36.7702232,48.470965 36.4642058,48.892588 36.0746554,49.1994051 L36.049505,49.2184704 L19.577,61.902 L40.3620461,62.4842974 C41.3696279,62.5124928 42.2634957,63.1205373 42.664711,64.033109 L42.664711,64.033109 L42.734073,64.2077176 L49.709,83.795 L56.6863235,64.2075758 C57.0245147,63.258082 57.8789751,62.5959035 58.8708129,62.496311 L58.8708129,62.496311 L59.0582999,62.4842974 L79.841,61.902 L63.3675356,49.2185894 C63.3503199,49.205335 63.3333053,49.1918936 63.3164932,49.1782697 C63.3090319,49.1703053 63.3003284,49.1631626 63.2916694,49.1559616 C63.2571024,49.1291391 63.2245932,49.100683 63.192915,49.071537 C63.1837194,49.0610592 63.1735668,49.0515663 63.1634866,49.0419877 C62.4625516,48.3780108 62.1843903,47.3703072 62.4611666,46.4297995 L62.4611666,46.4297995 L68.331,26.483 Z" id="Snowflake_04" fill="#00B077"></path>
    </g>
</svg>